<?xml version="1.0" encoding="UTF-8" standalone="no"?>
<!-- Created with Inkscape (http://www.inkscape.org/) -->

<svg
   version="1.1"
   id="svg2"
   xml:space="preserve"
   width="670.59998"
   height="420"
   viewBox="0 0 670.59998 419.99998"
   sodipodi:docname="fallback.svg"
   inkscape:version="1.1.2 (0a00cf5339, 2022-02-04)"
   xmlns:inkscape="http://www.inkscape.org/namespaces/inkscape"
   xmlns:sodipodi="http://sodipodi.sourceforge.net/DTD/sodipodi-0.dtd"
   xmlns="http://www.w3.org/2000/svg"
   xmlns:svg="http://www.w3.org/2000/svg"><defs
     id="defs6"><clipPath
       clipPathUnits="userSpaceOnUse"
       id="clipPath268"><path
         d="m 86,288 h 461.348 v 1 H 86 Z"
         id="path266" /></clipPath><clipPath
       clipPathUnits="userSpaceOnUse"
       id="clipPath280"><path
         d="m 86,267 h 461.348 v 2 H 86 Z"
         id="path278" /></clipPath><clipPath
       clipPathUnits="userSpaceOnUse"
       id="clipPath292"><path
         d="m 86,247 h 461.348 v 1 H 86 Z"
         id="path290" /></clipPath><clipPath
       clipPathUnits="userSpaceOnUse"
       id="clipPath304"><path
         d="m 86,226 h 461.348 v 2 H 86 Z"
         id="path302" /></clipPath><clipPath
       clipPathUnits="userSpaceOnUse"
       id="clipPath316"><path
         d="m 86,206 h 461.348 v 2 H 86 Z"
         id="path314" /></clipPath><clipPath
       clipPathUnits="userSpaceOnUse"
       id="clipPath328"><path
         d="m 86,186 h 461.348 v 1 H 86 Z"
         id="path326" /></clipPath><clipPath
       clipPathUnits="userSpaceOnUse"
       id="clipPath340"><path
         d="m 86,165 h 461.348 v 2 H 86 Z"
         id="path338" /></clipPath><clipPath
       clipPathUnits="userSpaceOnUse"
       id="clipPath352"><path
         d="m 86,145 h 461.348 v 1 H 86 Z"
         id="path350" /></clipPath><clipPath
       clipPathUnits="userSpaceOnUse"
       id="clipPath364"><path
         d="m 86,124 h 461.348 v 2 H 86 Z"
         id="path362" /></clipPath><clipPath
       clipPathUnits="userSpaceOnUse"
       id="clipPath376"><path
         d="m 86,104 h 461.348 v 1 H 86 Z"
         id="path374" /></clipPath><clipPath
       clipPathUnits="userSpaceOnUse"
       id="clipPath388"><path
         d="m 86,308 h 461.348 v 2 H 86 Z"
         id="path386" /></clipPath><clipPath
       clipPathUnits="userSpaceOnUse"
       id="clipPath400"><path
         d="M 86.398,103 H 547.347 V 284 H 86.398 Z"
         id="path398" /></clipPath></defs><sodipodi:namedview
     id="namedview4"
     pagecolor="#ffffff"
     bordercolor="#666666"
     borderopacity="1.0"
     inkscape:pageshadow="2"
     inkscape:pageopacity="0.0"
     inkscape:pagecheckerboard="0"
     showgrid="false"
     fit-margin-top="0"
     fit-margin-left="0"
     fit-margin-right="0"
     fit-margin-bottom="0"
     inkscape:zoom="1.6224824"
     inkscape:cx="323.57824"
     inkscape:cy="203.7002"
     inkscape:window-width="1920"
     inkscape:window-height="1051"
     inkscape:window-x="639"
     inkscape:window-y="1440"
     inkscape:window-maximized="1"
     inkscape:current-layer="g8" /><g
     id="g8"
     inkscape:groupmode="layer"
     inkscape:label="Token Metrics and Distribution Oasis Documentation"
     transform="matrix(1.3333333,0,0,1.3333333,-59.197332,-47.999999)"><path
       d="M 44.398,36 H 547.347 V 351 H 44.398 Z"
       style="fill:#ffffff;fill-opacity:1;fill-rule:nonzero;stroke:none"
       id="path220" /><g
       id="g222"><path
         d="M 91.914,88.5 V 309"
         style="fill:none;stroke:#eeeeee;stroke-width:0.525;stroke-linecap:butt;stroke-linejoin:miter;stroke-miterlimit:4;stroke-dasharray:none;stroke-opacity:1"
         id="path224" /></g><g
       id="g226"><path
         d="M 138.324,88.5 V 309"
         style="fill:none;stroke:#eeeeee;stroke-width:0.525;stroke-linecap:butt;stroke-linejoin:miter;stroke-miterlimit:4;stroke-dasharray:none;stroke-opacity:1"
         id="path228" /></g><g
       id="g230"><path
         d="M 184.738,88.5 V 309"
         style="fill:none;stroke:#eeeeee;stroke-width:0.525;stroke-linecap:butt;stroke-linejoin:miter;stroke-miterlimit:4;stroke-dasharray:none;stroke-opacity:1"
         id="path232" /></g><g
       id="g234"><path
         d="M 231.152,88.5 V 309"
         style="fill:none;stroke:#eeeeee;stroke-width:0.525;stroke-linecap:butt;stroke-linejoin:miter;stroke-miterlimit:4;stroke-dasharray:none;stroke-opacity:1"
         id="path236" /></g><g
       id="g238"><path
         d="M 277.695,88.5 V 309"
         style="fill:none;stroke:#eeeeee;stroke-width:0.525;stroke-linecap:butt;stroke-linejoin:miter;stroke-miterlimit:4;stroke-dasharray:none;stroke-opacity:1"
         id="path240" /></g><g
       id="g242"><path
         d="M 324.105,88.5 V 309"
         style="fill:none;stroke:#eeeeee;stroke-width:0.525;stroke-linecap:butt;stroke-linejoin:miter;stroke-miterlimit:4;stroke-dasharray:none;stroke-opacity:1"
         id="path244" /></g><g
       id="g246"><path
         d="M 370.52,88.5 V 309"
         style="fill:none;stroke:#eeeeee;stroke-width:0.525;stroke-linecap:butt;stroke-linejoin:miter;stroke-miterlimit:4;stroke-dasharray:none;stroke-opacity:1"
         id="path248" /></g><g
       id="g250"><path
         d="M 416.934,88.5 V 309"
         style="fill:none;stroke:#eeeeee;stroke-width:0.525;stroke-linecap:butt;stroke-linejoin:miter;stroke-miterlimit:4;stroke-dasharray:none;stroke-opacity:1"
         id="path252" /></g><g
       id="g254"><path
         d="M 463.469,88.5 V 309"
         style="fill:none;stroke:#eeeeee;stroke-width:0.525;stroke-linecap:butt;stroke-linejoin:miter;stroke-miterlimit:4;stroke-dasharray:none;stroke-opacity:1"
         id="path256" /></g><g
       id="g258"><path
         d="M 509.887,88.5 V 309"
         style="fill:none;stroke:#eeeeee;stroke-width:0.525;stroke-linecap:butt;stroke-linejoin:miter;stroke-miterlimit:4;stroke-dasharray:none;stroke-opacity:1"
         id="path260" /></g><g
       id="g262"><g
         id="g264"
         clip-path="url(#clipPath268)"><g
           id="g270"><path
             d="M 86.398,288.562 H 547.352"
             style="fill:none;stroke:#eeeeee;stroke-width:0.525;stroke-linecap:butt;stroke-linejoin:miter;stroke-miterlimit:4;stroke-dasharray:none;stroke-opacity:1"
             id="path272" /></g></g></g><g
       id="g274"><g
         id="g276"
         clip-path="url(#clipPath280)"><g
           id="g282"><path
             d="M 86.398,268.129 H 547.352"
             style="fill:none;stroke:#eeeeee;stroke-width:0.525;stroke-linecap:butt;stroke-linejoin:miter;stroke-miterlimit:4;stroke-dasharray:none;stroke-opacity:1"
             id="path284" /></g></g></g><g
       id="g286"><g
         id="g288"
         clip-path="url(#clipPath292)"><g
           id="g294"><path
             d="M 86.398,247.691 H 547.352"
             style="fill:none;stroke:#eeeeee;stroke-width:0.525;stroke-linecap:butt;stroke-linejoin:miter;stroke-miterlimit:4;stroke-dasharray:none;stroke-opacity:1"
             id="path296" /></g></g></g><g
       id="g298"><g
         id="g300"
         clip-path="url(#clipPath304)"><g
           id="g306"><path
             d="M 86.398,227.254 H 547.352"
             style="fill:none;stroke:#eeeeee;stroke-width:0.525;stroke-linecap:butt;stroke-linejoin:miter;stroke-miterlimit:4;stroke-dasharray:none;stroke-opacity:1"
             id="path308" /></g></g></g><g
       id="g310"><g
         id="g312"
         clip-path="url(#clipPath316)"><g
           id="g318"><path
             d="M 86.398,206.82 H 547.352"
             style="fill:none;stroke:#eeeeee;stroke-width:0.525;stroke-linecap:butt;stroke-linejoin:miter;stroke-miterlimit:4;stroke-dasharray:none;stroke-opacity:1"
             id="path320" /></g></g></g><g
       id="g322"><g
         id="g324"
         clip-path="url(#clipPath328)"><g
           id="g330"><path
             d="M 86.398,186.383 H 547.352"
             style="fill:none;stroke:#eeeeee;stroke-width:0.525;stroke-linecap:butt;stroke-linejoin:miter;stroke-miterlimit:4;stroke-dasharray:none;stroke-opacity:1"
             id="path332" /></g></g></g><g
       id="g334"><g
         id="g336"
         clip-path="url(#clipPath340)"><g
           id="g342"><path
             d="M 86.398,165.941 H 547.352"
             style="fill:none;stroke:#eeeeee;stroke-width:0.525;stroke-linecap:butt;stroke-linejoin:miter;stroke-miterlimit:4;stroke-dasharray:none;stroke-opacity:1"
             id="path344" /></g></g></g><g
       id="g346"><g
         id="g348"
         clip-path="url(#clipPath352)"><g
           id="g354"><path
             d="M 86.398,145.508 H 547.352"
             style="fill:none;stroke:#eeeeee;stroke-width:0.525;stroke-linecap:butt;stroke-linejoin:miter;stroke-miterlimit:4;stroke-dasharray:none;stroke-opacity:1"
             id="path356" /></g></g></g><g
       id="g358"><g
         id="g360"
         clip-path="url(#clipPath364)"><g
           id="g366"><path
             d="M 86.398,125.07 H 547.352"
             style="fill:none;stroke:#eeeeee;stroke-width:0.525;stroke-linecap:butt;stroke-linejoin:miter;stroke-miterlimit:4;stroke-dasharray:none;stroke-opacity:1"
             id="path368" /></g></g></g><g
       id="g370"><g
         id="g372"
         clip-path="url(#clipPath376)"><g
           id="g378"><path
             d="M 86.398,104.633 H 547.352"
             style="fill:none;stroke:#eeeeee;stroke-width:0.525;stroke-linecap:butt;stroke-linejoin:miter;stroke-miterlimit:4;stroke-dasharray:none;stroke-opacity:1"
             id="path380" /></g></g></g><g
       id="g382"><g
         id="g384"
         clip-path="url(#clipPath388)"><g
           id="g390"><path
             d="M 86.398,309 H 547.352"
             style="fill:none;stroke:#444444;stroke-width:0.525;stroke-linecap:butt;stroke-linejoin:miter;stroke-miterlimit:4;stroke-dasharray:none;stroke-opacity:1"
             id="path392" /></g></g></g><g
       id="g394"><g
         id="g396"
         clip-path="url(#clipPath400)"><g
           id="g402"><path
             d="m 86.398,103.918 19.774,0.328 0.125,0.215 0.762,1.187 0.125,0.215 1.015,3.547 0.125,0.641 0.762,6.742 0.125,1.707 1.648,20.285 0.125,0.629 1.145,3.766 0.129,0.211 1.012,1.351 15.714,0.211 1.137,1.453 0.133,0.317 0.754,1.972 0.133,0.52 0.757,4.562 0.129,1.239 1.141,16.32 0.125,1.633 1.012,8.109 0.129,0.606 1.394,3.328 0.125,0.203 0.504,0.605 15.594,0.098 2.027,1.91 0.125,0.301 0.637,1.707 0.125,0.602 0.637,3.703 0.125,0.996 1.265,7.859 0.125,0.399 1.399,2.273 0.125,0.102 0.886,0.593 15.715,0.098 0.887,1.09 0.129,0.191 0.887,2.074 0.128,0.493 0.887,5.011 0.125,1.176 2.262,25.227 0.129,0.488 1.363,3.121 0.125,0.199 0.367,0.485 15.383,0.101 1.738,1.75 0.121,0.195 0.622,1.555 0.125,0.485 0.867,5.421 0.125,1.063 1.238,7.305 0.125,0.382 1.242,2.012 0.125,0.094 0.746,0.574 15.504,0.094 1.61,1.055 0.125,0.093 1.113,2.285 0.129,0.477 0.992,5.508 0.117,0.758 0.992,3.496 0.129,0.187 0.867,1.129 0.125,0.094 0.993,0.57 h 319.668"
             style="fill:none;stroke:#0500e2;stroke-width:1.05;stroke-linecap:butt;stroke-linejoin:miter;stroke-miterlimit:2;stroke-dasharray:none;stroke-opacity:1"
             id="path404" /></g></g></g><g
       aria-label="2021
2022
2023
2024
2025
2026
2027
2028
2029
2030"
       transform="rotate(-45)"
       id="text432"
       style="font-size:6.3px;font-family:CairoFont-4;-inkscape-font-specification:CairoFont-4-0;fill:#444444"><path
         d="m -168.85668,289.23654 h -2.9736 v -0.4599 l 1.1781,-1.1907 q 0.3402,-0.3402 0.5733,-0.6048 0.2331,-0.2646 0.3528,-0.5166 0.1197,-0.2583 0.1197,-0.5607 0,-0.3717 -0.2205,-0.5607 -0.2205,-0.1953 -0.5733,-0.1953 -0.3276,0 -0.5796,0.1134 -0.2457,0.1134 -0.504,0.315 l -0.2961,-0.3717 q 0.2646,-0.2205 0.6048,-0.3717 0.3465,-0.1575 0.7749,-0.1575 0.63,0 0.9954,0.3213 0.3654,0.315 0.3654,0.8757 0,0.3528 -0.1449,0.6615 -0.1449,0.3087 -0.4032,0.6111 -0.2583,0.2961 -0.6048,0.6363 l -0.9387,0.9261 v 0.0252 h 2.2743 z"
         id="path4522" /><path
         d="m -164.83727,286.98114 q 0,0.7245 -0.1512,1.2474 -0.1512,0.5166 -0.4788,0.7938 -0.3276,0.2772 -0.8694,0.2772 -0.7623,0 -1.1277,-0.6111 -0.3591,-0.6174 -0.3591,-1.7073 0,-0.7308 0.1449,-1.2474 0.1512,-0.5166 0.4788,-0.7875 0.3276,-0.2772 0.8631,-0.2772 0.756,0 1.1277,0.6111 0.3717,0.6048 0.3717,1.701 z m -2.4318,0 q 0,0.9261 0.2079,1.386 0.2142,0.4599 0.7245,0.4599 0.504,0 0.7182,-0.4536 0.2205,-0.4599 0.2205,-1.3923 0,-0.9198 -0.2205,-1.3797 -0.2142,-0.4599 -0.7182,-0.4599 -0.5103,0 -0.7245,0.4599 -0.2079,0.4599 -0.2079,1.3797 z"
         id="path4524" /><path
         d="m -160.85567,289.23654 h -2.9736 v -0.4599 l 1.1781,-1.1907 q 0.3402,-0.3402 0.5733,-0.6048 0.2331,-0.2646 0.3528,-0.5166 0.1197,-0.2583 0.1197,-0.5607 0,-0.3717 -0.2205,-0.5607 -0.2205,-0.1953 -0.5733,-0.1953 -0.3276,0 -0.5796,0.1134 -0.2457,0.1134 -0.504,0.315 l -0.2961,-0.3717 q 0.2646,-0.2205 0.6048,-0.3717 0.3465,-0.1575 0.7749,-0.1575 0.63,0 0.9954,0.3213 0.3654,0.315 0.3654,0.8757 0,0.3528 -0.1449,0.6615 -0.1449,0.3087 -0.4032,0.6111 -0.2583,0.2961 -0.6048,0.6363 l -0.9387,0.9261 v 0.0252 h 2.2743 z"
         id="path4526" /><path
         d="m -157.89466,289.23654 h -0.5418 v -3.1437 q 0,-0.2709 0.006,-0.4347 0.006,-0.1638 0.0189,-0.3402 -0.1008,0.1008 -0.1827,0.1701 -0.0819,0.0693 -0.2079,0.1764 l -0.4788,0.3906 -0.2898,-0.3717 1.2159,-0.945 h 0.4599 z"
         id="path4528" /><path
         d="m -136.03986,322.05334 h -2.9736 v -0.4599 l 1.1781,-1.1907 q 0.3402,-0.3402 0.5733,-0.6048 0.2331,-0.2646 0.3528,-0.5166 0.1197,-0.2583 0.1197,-0.5607 0,-0.3717 -0.2205,-0.5607 -0.2205,-0.1953 -0.5733,-0.1953 -0.3276,0 -0.5796,0.1134 -0.2457,0.1134 -0.504,0.315 l -0.2961,-0.3717 q 0.2646,-0.2205 0.6048,-0.3717 0.3465,-0.1575 0.7749,-0.1575 0.63,0 0.9954,0.3213 0.3654,0.315 0.3654,0.8757 0,0.3528 -0.1449,0.6615 -0.1449,0.3087 -0.4032,0.6111 -0.2583,0.2961 -0.6048,0.6363 l -0.9387,0.9261 v 0.0252 h 2.2743 z"
         id="path4530" /><path
         d="m -132.02045,319.79794 q 0,0.7245 -0.1512,1.2474 -0.1512,0.5166 -0.4788,0.7938 -0.3276,0.2772 -0.8694,0.2772 -0.7623,0 -1.1277,-0.6111 -0.3591,-0.6174 -0.3591,-1.7073 0,-0.7308 0.1449,-1.2474 0.1512,-0.5166 0.4788,-0.7875 0.3276,-0.2772 0.8631,-0.2772 0.756,0 1.1277,0.6111 0.3717,0.6048 0.3717,1.701 z m -2.4318,0 q 0,0.9261 0.2079,1.386 0.2142,0.4599 0.7245,0.4599 0.504,0 0.7182,-0.4536 0.2205,-0.4599 0.2205,-1.3923 0,-0.9198 -0.2205,-1.3797 -0.2142,-0.4599 -0.7182,-0.4599 -0.5103,0 -0.7245,0.4599 -0.2079,0.4599 -0.2079,1.3797 z"
         id="path4532" /><path
         d="m -128.03885,322.05334 h -2.9736 v -0.4599 l 1.1781,-1.1907 q 0.3402,-0.3402 0.5733,-0.6048 0.2331,-0.2646 0.3528,-0.5166 0.1197,-0.2583 0.1197,-0.5607 0,-0.3717 -0.2205,-0.5607 -0.2205,-0.1953 -0.5733,-0.1953 -0.3276,0 -0.5796,0.1134 -0.2457,0.1134 -0.504,0.315 l -0.2961,-0.3717 q 0.2646,-0.2205 0.6048,-0.3717 0.3465,-0.1575 0.7749,-0.1575 0.63,0 0.9954,0.3213 0.3654,0.315 0.3654,0.8757 0,0.3528 -0.1449,0.6615 -0.1449,0.3087 -0.4032,0.6111 -0.2583,0.2961 -0.6048,0.6363 l -0.9387,0.9261 v 0.0252 h 2.2743 z"
         id="path4534" /><path
         d="m -124.03835,322.05334 h -2.9736 v -0.4599 l 1.1781,-1.1907 q 0.3402,-0.3402 0.5733,-0.6048 0.2331,-0.2646 0.3528,-0.5166 0.1197,-0.2583 0.1197,-0.5607 0,-0.3717 -0.2205,-0.5607 -0.2205,-0.1953 -0.5733,-0.1953 -0.3276,0 -0.5796,0.1134 -0.2457,0.1134 -0.504,0.315 l -0.2961,-0.3717 q 0.2646,-0.2205 0.6048,-0.3717 0.3465,-0.1575 0.7749,-0.1575 0.63,0 0.9954,0.3213 0.3654,0.315 0.3654,0.8757 0,0.3528 -0.1449,0.6615 -0.1449,0.3087 -0.4032,0.6111 -0.2583,0.2961 -0.6048,0.6363 l -0.9387,0.9261 v 0.0252 h 2.2743 z"
         id="path4536" /><path
         d="m -103.21932,354.8739 h -2.9736 v -0.4599 l 1.1781,-1.1907 q 0.3402,-0.3402 0.5733,-0.6048 0.2331,-0.2646 0.3528,-0.5166 0.1197,-0.2583 0.1197,-0.5607 0,-0.3717 -0.2205,-0.5607 -0.2205,-0.1953 -0.5733,-0.1953 -0.3276,0 -0.5796,0.1134 -0.2457,0.1134 -0.504,0.315 l -0.2961,-0.3717 q 0.2646,-0.2205 0.6048,-0.3717 0.3465,-0.1575 0.7749,-0.1575 0.63,0 0.9954,0.3213 0.3654,0.315 0.3654,0.8757 0,0.3528 -0.1449,0.6615 -0.1449,0.3087 -0.4032,0.6111 -0.2583,0.2961 -0.6048,0.6363 l -0.9387,0.9261 v 0.0252 h 2.2743 z"
         id="path4538" /><path
         d="m -99.19992,352.6185 q 0,0.7245 -0.1512,1.2474 -0.1512,0.5166 -0.4788,0.7938 -0.3276,0.2772 -0.8694,0.2772 -0.7623,0 -1.1277,-0.6111 -0.3591,-0.6174 -0.3591,-1.7073 0,-0.7308 0.1449,-1.2474 0.1512,-0.5166 0.4788,-0.7875 0.3276,-0.2772 0.8631,-0.2772 0.756,0 1.1277,0.6111 0.3717,0.6048 0.3717,1.701 z m -2.4318,0 q 0,0.9261 0.2079,1.386 0.2142,0.4599 0.7245,0.4599 0.504,0 0.7182,-0.4536 0.2205,-0.4599 0.2205,-1.3923 0,-0.9198 -0.2205,-1.3797 -0.2142,-0.4599 -0.7182,-0.4599 -0.5103,0 -0.7245,0.4599 -0.2079,0.4599 -0.2079,1.3797 z"
         id="path4540" /><path
         d="m -95.218324,354.8739 h -2.9736 v -0.4599 l 1.1781,-1.1907 q 0.3402,-0.3402 0.5733,-0.6048 0.2331,-0.2646 0.3528,-0.5166 0.1197,-0.2583 0.1197,-0.5607 0,-0.3717 -0.2205,-0.5607 -0.2205,-0.1953 -0.5733,-0.1953 -0.3276,0 -0.5796,0.1134 -0.2457,0.1134 -0.504,0.315 l -0.2961,-0.3717 q 0.2646,-0.2205 0.6048,-0.3717 0.3465,-0.1575 0.7749,-0.1575 0.63,0 0.9954,0.3213 0.3654,0.315 0.3654,0.8757 0,0.3528 -0.1449,0.6615 -0.1449,0.3087 -0.4032,0.6111 -0.2583,0.2961 -0.6048,0.6363 l -0.9387,0.9261 v 0.0252 h 2.2743 z"
         id="path4542" /><path
         d="m -91.38792,351.4278 q 0,0.4536 -0.252,0.7245 -0.252,0.2646 -0.6804,0.3528 v 0.0252 q 0.5418,0.063 0.8064,0.3402 0.2646,0.2772 0.2646,0.7245 0,0.3906 -0.1827,0.6993 -0.1827,0.3024 -0.567,0.4725 -0.378,0.1701 -0.9765,0.1701 -0.3528,0 -0.6552,-0.0567 -0.3024,-0.0504 -0.5796,-0.189 v -0.5166 q 0.2835,0.1386 0.6111,0.2205 0.3276,0.0756 0.63,0.0756 0.6048,0 0.8694,-0.2331 0.2709,-0.2394 0.2709,-0.6552 0,-0.4221 -0.3339,-0.6048 -0.3276,-0.189 -0.9261,-0.189 h -0.4347 v -0.4725 h 0.441 q 0.5544,0 0.8379,-0.2331 0.2898,-0.2331 0.2898,-0.6174 0,-0.3276 -0.2205,-0.504 -0.2205,-0.1827 -0.5985,-0.1827 -0.3654,0 -0.6237,0.1071 -0.2583,0.1071 -0.5103,0.2709 l -0.2772,-0.378 q 0.2394,-0.189 0.5922,-0.3276 0.3591,-0.1386 0.8127,-0.1386 0.7056,0 1.0458,0.315 0.3465,0.315 0.3465,0.8001 z"
         id="path4544" /><path
         d="m -70.398759,387.69446 h -2.9736 v -0.4599 l 1.1781,-1.1907 q 0.3402,-0.3402 0.5733,-0.6048 0.2331,-0.2646 0.3528,-0.5166 0.1197,-0.2583 0.1197,-0.5607 0,-0.3717 -0.2205,-0.5607 -0.2205,-0.1953 -0.5733,-0.1953 -0.3276,0 -0.5796,0.1134 -0.2457,0.1134 -0.504,0.315 l -0.2961,-0.3717 q 0.2646,-0.2205 0.6048,-0.3717 0.3465,-0.1575 0.7749,-0.1575 0.63,0 0.9954,0.3213 0.3654,0.315 0.3654,0.8757 0,0.3528 -0.1449,0.6615 -0.1449,0.3087 -0.4032,0.6111 -0.2583,0.2961 -0.6048,0.6363 l -0.9387,0.9261 v 0.0252 h 2.2743 z"
         id="path4546" /><path
         d="m -66.379355,385.43906 q 0,0.7245 -0.1512,1.2474 -0.1512,0.5166 -0.4788,0.7938 -0.3276,0.2772 -0.8694,0.2772 -0.7623,0 -1.1277,-0.6111 -0.3591,-0.6174 -0.3591,-1.7073 0,-0.7308 0.1449,-1.2474 0.1512,-0.5166 0.4788,-0.7875 0.3276,-0.2772 0.8631,-0.2772 0.756,0 1.1277,0.6111 0.3717,0.6048 0.3717,1.701 z m -2.4318,0 q 0,0.9261 0.2079,1.386 0.2142,0.4599 0.7245,0.4599 0.504,0 0.7182,-0.4536 0.2205,-0.4599 0.2205,-1.3923 0,-0.9198 -0.2205,-1.3797 -0.2142,-0.4599 -0.7182,-0.4599 -0.5103,0 -0.7245,0.4599 -0.2079,0.4599 -0.2079,1.3797 z"
         id="path4548" /><path
         d="m -62.397752,387.69446 h -2.9736 v -0.4599 l 1.1781,-1.1907 q 0.3402,-0.3402 0.5733,-0.6048 0.2331,-0.2646 0.3528,-0.5166 0.1197,-0.2583 0.1197,-0.5607 0,-0.3717 -0.2205,-0.5607 -0.2205,-0.1953 -0.5733,-0.1953 -0.3276,0 -0.5796,0.1134 -0.2457,0.1134 -0.504,0.315 l -0.2961,-0.3717 q 0.2646,-0.2205 0.6048,-0.3717 0.3465,-0.1575 0.7749,-0.1575 0.63,0 0.9954,0.3213 0.3654,0.315 0.3654,0.8757 0,0.3528 -0.1449,0.6615 -0.1449,0.3087 -0.4032,0.6111 -0.2583,0.2961 -0.6048,0.6363 l -0.9387,0.9261 v 0.0252 h 2.2743 z"
         id="path4550" /><path
         d="m -58.195652,386.67386 h -0.6552 v 1.0206 h -0.5355 v -1.0206 h -2.1546 v -0.4725 l 2.1168,-3.0303 h 0.5733 v 3.0051 h 0.6552 z m -1.1907,-1.9152 q 0,-0.3276 0.0126,-0.5544 0.0126,-0.2331 0.0189,-0.441 h -0.0252 q -0.0504,0.1197 -0.126,0.2583 -0.0756,0.1386 -0.1449,0.2331 l -1.3482,1.9215 h 1.6128 z"
         id="path4552" /><path
         d="m -37.489148,420.60406 h -2.9736 v -0.4599 l 1.1781,-1.1907 q 0.3402,-0.3402 0.5733,-0.6048 0.2331,-0.2646 0.3528,-0.5166 0.1197,-0.2583 0.1197,-0.5607 0,-0.3717 -0.2205,-0.5607 -0.2205,-0.1953 -0.5733,-0.1953 -0.3276,0 -0.5796,0.1134 -0.2457,0.1134 -0.504,0.315 l -0.2961,-0.3717 q 0.2646,-0.2205 0.6048,-0.3717 0.3465,-0.1575 0.7749,-0.1575 0.63,0 0.9954,0.3213 0.3654,0.315 0.3654,0.8757 0,0.3528 -0.1449,0.6615 -0.1449,0.3087 -0.4032,0.6111 -0.2583,0.2961 -0.6048,0.6363 l -0.9387,0.9261 v 0.0252 h 2.2743 z"
         id="path4554" /><path
         d="m -33.469745,418.34866 q 0,0.7245 -0.1512,1.2474 -0.1512,0.5166 -0.4788,0.7938 -0.3276,0.2772 -0.8694,0.2772 -0.7623,0 -1.1277,-0.6111 -0.3591,-0.6174 -0.3591,-1.7073 0,-0.7308 0.1449,-1.2474 0.1512,-0.5166 0.4788,-0.7875 0.3276,-0.2772 0.8631,-0.2772 0.756,0 1.1277,0.6111 0.3717,0.6048 0.3717,1.701 z m -2.4318,0 q 0,0.9261 0.2079,1.386 0.2142,0.4599 0.7245,0.4599 0.504,0 0.7182,-0.4536 0.2205,-0.4599 0.2205,-1.3923 0,-0.9198 -0.2205,-1.3797 -0.2142,-0.4599 -0.7182,-0.4599 -0.5103,0 -0.7245,0.4599 -0.2079,0.4599 -0.2079,1.3797 z"
         id="path4556" /><path
         d="m -29.488141,420.60406 h -2.9736 v -0.4599 l 1.1781,-1.1907 q 0.3402,-0.3402 0.5733,-0.6048 0.2331,-0.2646 0.3528,-0.5166 0.1197,-0.2583 0.1197,-0.5607 0,-0.3717 -0.2205,-0.5607 -0.2205,-0.1953 -0.5733,-0.1953 -0.3276,0 -0.5796,0.1134 -0.2457,0.1134 -0.504,0.315 l -0.2961,-0.3717 q 0.2646,-0.2205 0.6048,-0.3717 0.3465,-0.1575 0.7749,-0.1575 0.63,0 0.9954,0.3213 0.3654,0.315 0.3654,0.8757 0,0.3528 -0.1449,0.6615 -0.1449,0.3087 -0.4032,0.6111 -0.2583,0.2961 -0.6048,0.6363 l -0.9387,0.9261 v 0.0252 h 2.2743 z"
         id="path4558" /><path
         d="m -27.031137,417.84466 q 0.693,0 1.1025,0.3465 0.4095,0.3465 0.4095,0.9765 0,0.6993 -0.4473,1.1025 -0.441,0.3969 -1.2348,0.3969 -0.346501,0 -0.655201,-0.063 -0.3024,-0.063 -0.5103,-0.1827 v -0.5229 q 0.2268,0.1386 0.5481,0.2205 0.3276,0.0756 0.623701,0.0756 0.4977,0 0.8001,-0.2331 0.3087,-0.2394 0.3087,-0.7371 0,-0.441 -0.2709,-0.6741 -0.2709,-0.2394 -0.8568,-0.2394 -0.176401,0 -0.403201,0.0315 -0.2268,0.0315 -0.3654,0.063 l -0.2772,-0.1764 0.1701,-2.1231 h 2.255401 v 0.504 h -1.782901 l -0.1071,1.3041 q 0.1071,-0.0189 0.2898,-0.0441 0.182701,-0.0252 0.403201,-0.0252 z"
         id="path4560" /><path
         d="m -4.6723298,453.42087 h -2.9736001 v -0.4599 l 1.1781,-1.1907 q 0.3402,-0.3402 0.5733,-0.6048 0.2331,-0.2646 0.3528,-0.5166 0.1197001,-0.2583 0.1197001,-0.5607 0,-0.3717 -0.2205001,-0.5607 -0.2205,-0.1953 -0.5733,-0.1953 -0.3276,0 -0.5796,0.1134 -0.2457,0.1134 -0.504,0.315 l -0.2961,-0.3717 q 0.2646,-0.2205 0.6048,-0.3717 0.3465,-0.1575 0.7749,-0.1575 0.63,0 0.9954001,0.3213 0.3654,0.315 0.3654,0.8757 0,0.3528 -0.1449,0.6615 -0.1449,0.3087 -0.4032,0.6111 -0.2583001,0.2961 -0.6048001,0.6363 l -0.9387,0.9261 v 0.0252 h 2.2743001 z"
         id="path4562" /><path
         d="m -0.65294178,451.16547 q 0,0.7245 -0.15120001,1.2474 -0.1512,0.5166 -0.47880001,0.7938 -0.3276,0.2772 -0.8694,0.2772 -0.7623001,0 -1.1277001,-0.6111 -0.3591,-0.6174 -0.3591,-1.7073 0,-0.7308 0.1449,-1.2474 0.1512,-0.5166 0.4788,-0.7875 0.3276001,-0.2772 0.8631001,-0.2772 0.756,0 1.1277,0.6111 0.37170002,0.6048 0.37170002,1.701 z m -2.43180012,0 q 0,0.9261 0.2079,1.386 0.2142001,0.4599 0.7245001,0.4599 0.504,0 0.7182,-0.4536 0.2205,-0.4599 0.2205,-1.3923 0,-0.9198 -0.2205,-1.3797 -0.2142,-0.4599 -0.7182,-0.4599 -0.5103,0 -0.7245001,0.4599 -0.2079,0.4599 -0.2079,1.3797 z"
         id="path4564" /><path
         d="M 3.3286618,453.42087 H 0.3550617 v -0.4599 l 1.1781,-1.1907 q 0.3402,-0.3402 0.5733001,-0.6048 0.2331,-0.2646 0.3528,-0.5166 0.1197,-0.2583 0.1197,-0.5607 0,-0.3717 -0.2205,-0.5607 -0.2205,-0.1953 -0.5733001,-0.1953 -0.3276,0 -0.5796,0.1134 -0.24569998,0.1134 -0.50399999,0.315 l -0.2961,-0.3717 q 0.2646,-0.2205 0.60479999,-0.3717 0.3465,-0.1575 0.7749,-0.1575 0.6300001,0 0.9954001,0.3213 0.3654,0.315 0.3654,0.8757 0,0.3528 -0.1449,0.6615 -0.1449,0.3087 -0.4032,0.6111 -0.2583,0.2961 -0.6048,0.6363 l -0.9387001,0.9261 v 0.0252 h 2.2743001 z"
         id="path4566" /><path
         d="m 4.3996654,451.49937 q 0,-0.4851 0.0819,-0.9513 0.0882,-0.4725 0.3087001,-0.8505 0.2268,-0.3843 0.63,-0.6111 0.4032,-0.2268 1.0395,-0.2268 0.1323,0 0.2898,0.0126 0.1638,0.0126 0.2646,0.0441 v 0.4725 q -0.1134,-0.0378 -0.2583,-0.0567 -0.1386,-0.0189 -0.2835,-0.0189 -0.4347,0 -0.7245,0.1449 -0.2898,0.1449 -0.4599,0.3969 -0.1638,0.252 -0.2394,0.5796 -0.0756,0.3276 -0.0945,0.6993 h 0.0378 q 0.1449,-0.2205 0.4032,-0.3717 0.2583,-0.1575 0.6615,-0.1575 0.5859,0 0.945,0.3591 0.3591,0.3528 0.3591,1.008 0,0.7056 -0.3906,1.1088 -0.3843,0.4032 -1.0395,0.4032 -0.4284,0 -0.7749,-0.2142 -0.3465,-0.2142 -0.5544,-0.6552 -0.2016001,-0.441 -0.2016001,-1.1151 z m 1.5246001,1.5183 q 0.3969,0 0.6426,-0.252 0.2457,-0.2583 0.2457,-0.7938 0,-0.4284 -0.2205,-0.6804 -0.2142,-0.252 -0.6489,-0.252 -0.2961,0 -0.5166,0.126 -0.2205,0.1197 -0.3465,0.3087 -0.1197,0.189 -0.1197,0.3906 0,0.2709 0.1071,0.5418 0.1071,0.2646 0.3213,0.441 0.2142,0.1701 0.5355,0.1701 z"
         id="path4568" /><path
         d="m 28.148212,486.24142 h -2.973601 v -0.4599 l 1.178101,-1.1907 q 0.3402,-0.3402 0.5733,-0.6048 0.2331,-0.2646 0.3528,-0.5166 0.1197,-0.2583 0.1197,-0.5607 0,-0.3717 -0.2205,-0.5607 -0.2205,-0.1953 -0.5733,-0.1953 -0.327601,0 -0.579601,0.1134 -0.2457,0.1134 -0.504,0.315 l -0.2961,-0.3717 q 0.2646,-0.2205 0.6048,-0.3717 0.3465,-0.1575 0.774901,-0.1575 0.63,0 0.9954,0.3213 0.3654,0.315 0.3654,0.8757 0,0.3528 -0.1449,0.6615 -0.1449,0.3087 -0.4032,0.6111 -0.2583,0.2961 -0.6048,0.6363 l -0.938701,0.9261 v 0.0252 h 2.274301 z"
         id="path4570" /><path
         d="m 32.167615,483.98602 q 0,0.7245 -0.1512,1.2474 -0.1512,0.5166 -0.4788,0.7938 -0.3276,0.2772 -0.8694,0.2772 -0.7623,0 -1.1277,-0.6111 -0.3591,-0.6174 -0.3591,-1.7073 0,-0.7308 0.1449,-1.2474 0.1512,-0.5166 0.4788,-0.7875 0.3276,-0.2772 0.8631,-0.2772 0.756,0 1.1277,0.6111 0.3717,0.6048 0.3717,1.701 z m -2.4318,0 q 0,0.9261 0.2079,1.386 0.2142,0.4599 0.7245,0.4599 0.504,0 0.7182,-0.4536 0.2205,-0.4599 0.2205,-1.3923 0,-0.9198 -0.2205,-1.3797 -0.2142,-0.4599 -0.7182,-0.4599 -0.5103,0 -0.7245,0.4599 -0.2079,0.4599 -0.2079,1.3797 z"
         id="path4572" /><path
         d="m 36.149203,486.24142 h -2.9736 v -0.4599 l 1.1781,-1.1907 q 0.3402,-0.3402 0.5733,-0.6048 0.2331,-0.2646 0.3528,-0.5166 0.1197,-0.2583 0.1197,-0.5607 0,-0.3717 -0.2205,-0.5607 -0.2205,-0.1953 -0.5733,-0.1953 -0.3276,0 -0.5796,0.1134 -0.2457,0.1134 -0.504,0.315 l -0.2961,-0.3717 q 0.2646,-0.2205 0.6048,-0.3717 0.3465,-0.1575 0.7749,-0.1575 0.63,0 0.9954,0.3213 0.3654,0.315 0.3654,0.8757 0,0.3528 -0.1449,0.6615 -0.1449,0.3087 -0.4032,0.6111 -0.2583,0.2961 -0.6048,0.6363 l -0.9387,0.9261 v 0.0252 h 2.2743 z"
         id="path4574" /><path
         d="m 37.730507,486.24142 1.8459,-3.9942 h -2.4255 v -0.504 h 3.0177 v 0.4284 l -1.827,4.0698 z"
         id="path4576" /><path
         d="m 60.968768,519.06195 h -2.9736 v -0.4599 l 1.1781,-1.1907 q 0.3402,-0.3402 0.5733,-0.6048 0.2331,-0.2646 0.3528,-0.5166 0.1197,-0.2583 0.1197,-0.5607 0,-0.3717 -0.2205,-0.5607 -0.2205,-0.1953 -0.5733,-0.1953 -0.3276,0 -0.5796,0.1134 -0.2457,0.1134 -0.504,0.315 l -0.2961,-0.3717 q 0.2646,-0.2205 0.6048,-0.3717 0.3465,-0.1575 0.7749,-0.1575 0.63,0 0.9954,0.3213 0.3654,0.315 0.3654,0.8757 0,0.3528 -0.1449,0.6615 -0.1449,0.3087 -0.4032,0.6111 -0.2583,0.2961 -0.6048,0.6363 l -0.9387,0.9261 v 0.0252 h 2.2743 z"
         id="path4578" /><path
         d="m 64.988172,516.80655 q 0,0.7245 -0.1512,1.2474 -0.1512,0.5166 -0.4788,0.7938 -0.3276,0.2772 -0.8694,0.2772 -0.7623,0 -1.1277,-0.6111 -0.3591,-0.6174 -0.3591,-1.7073 0,-0.7308 0.1449,-1.2474 0.1512,-0.5166 0.4788,-0.7875 0.3276,-0.2772 0.8631,-0.2772 0.756,0 1.1277,0.6111 0.3717,0.6048 0.3717,1.701 z m -2.4318,0 q 0,0.9261 0.2079,1.386 0.2142,0.4599 0.7245,0.4599 0.504,0 0.7182,-0.4536 0.2205,-0.4599 0.2205,-1.3923 0,-0.9198 -0.2205,-1.3797 -0.2142,-0.4599 -0.7182,-0.4599 -0.5103,0 -0.7245,0.4599 -0.2079,0.4599 -0.2079,1.3797 z"
         id="path4580" /><path
         d="m 68.969771,519.06195 h -2.9736 v -0.4599 l 1.1781,-1.1907 q 0.3402,-0.3402 0.5733,-0.6048 0.2331,-0.2646 0.3528,-0.5166 0.1197,-0.2583 0.1197,-0.5607 0,-0.3717 -0.2205,-0.5607 -0.2205,-0.1953 -0.5733,-0.1953 -0.3276,0 -0.5796,0.1134 -0.2457,0.1134 -0.504,0.315 l -0.2961,-0.3717 q 0.2646,-0.2205 0.6048,-0.3717 0.3465,-0.1575 0.7749,-0.1575 0.63,0 0.9954,0.3213 0.3654,0.315 0.3654,0.8757 0,0.3528 -0.1449,0.6615 -0.1449,0.3087 -0.4032,0.6111 -0.2583,0.2961 -0.6048,0.6363 l -0.9387,0.9261 v 0.0252 h 2.2743 z"
         id="path4582" /><path
         d="m 71.489775,514.50075 q 0.5922,0 0.9702,0.2772 0.378,0.2772 0.378,0.8001 0,0.2709 -0.1197,0.4725 -0.1134,0.2016 -0.3087,0.3591 -0.1953,0.1512 -0.4284,0.2709 0.2772,0.1323 0.504,0.3024 0.2268,0.1638 0.3591,0.3843 0.1386,0.2205 0.1386,0.5292 0,0.567 -0.4032,0.9009 -0.3969,0.3276 -1.071,0.3276 -0.7245,0 -1.1151,-0.315 -0.3906,-0.3213 -0.3906,-0.8946 0,-0.3087 0.126,-0.5355 0.1323,-0.2268 0.3465,-0.3906 0.2142,-0.1638 0.4599,-0.2772 -0.3276,-0.189 -0.5607,-0.4536 -0.2268,-0.2709 -0.2268,-0.6867 0,-0.3465 0.1764,-0.5796 0.1764,-0.2394 0.4788,-0.3654 0.3024,-0.126 0.6867,-0.126 z m -0.0063,0.4473 q -0.3465,0 -0.5733,0.1701 -0.2205,0.1638 -0.2205,0.4788 0,0.2331 0.1071,0.3906 0.1134,0.1575 0.3024,0.2709 0.189,0.1071 0.4158,0.2079 0.3276,-0.1386 0.5481,-0.3339 0.2268,-0.1953 0.2268,-0.5355 0,-0.315 -0.2205,-0.4788 -0.2205,-0.1701 -0.5859,-0.1701 z m -0.9387,2.9736 q 0,0.3276 0.2331,0.5481 0.2331,0.2142 0.7182,0.2142 0.4599,0 0.6993,-0.2142 0.2457,-0.2205 0.2457,-0.567 0,-0.3276 -0.2583,-0.5418 -0.2583,-0.2205 -0.6867,-0.3843 l -0.1008,-0.0378 q -0.4158,0.1764 -0.6363,0.4095 -0.2142,0.2268 -0.2142,0.5733 z"
         id="path4584" /><path
         d="m 93.874709,551.9679 h -2.9736 v -0.4599 l 1.1781,-1.1907 q 0.3402,-0.3402 0.5733,-0.6048 0.2331,-0.2646 0.3528,-0.5166 0.1197,-0.2583 0.1197,-0.5607 0,-0.3717 -0.2205,-0.5607 -0.2205,-0.1953 -0.5733,-0.1953 -0.3276,0 -0.5796,0.1134 -0.2457,0.1134 -0.504,0.315 l -0.2961,-0.3717 q 0.2646,-0.2205 0.6048,-0.3717 0.3465,-0.1575 0.7749,-0.1575 0.63,0 0.9954,0.3213 0.3654,0.315 0.3654,0.8757 0,0.3528 -0.1449,0.6615 -0.1449,0.3087 -0.4032,0.6111 -0.2583,0.2961 -0.6048,0.6363 l -0.9387,0.9261 v 0.0252 h 2.2743 z"
         id="path4586" /><path
         d="m 97.894097,549.7125 q 0,0.7245 -0.1512,1.2474 -0.1512,0.5166 -0.4788,0.7938 -0.3276,0.2772 -0.8694,0.2772 -0.7623,0 -1.1277,-0.6111 -0.3591,-0.6174 -0.3591,-1.7073 0,-0.7308 0.1449,-1.2474 0.1512,-0.5166 0.4788,-0.7875 0.3276,-0.2772 0.8631,-0.2772 0.756,0 1.1277,0.6111 0.3717,0.6048 0.3717,1.701 z m -2.4318,0 q 0,0.9261 0.2079,1.386 0.2142,0.4599 0.7245,0.4599 0.504,0 0.7182,-0.4536 0.2205,-0.4599 0.2205,-1.3923 0,-0.9198 -0.2205,-1.3797 -0.2142,-0.4599 -0.7182,-0.4599 -0.5103,0 -0.7245,0.4599 -0.2079,0.4599 -0.2079,1.3797 z"
         id="path4588" /><path
         d="m 101.87569,551.9679 h -2.973604 v -0.4599 l 1.178104,-1.1907 q 0.3402,-0.3402 0.5733,-0.6048 0.2331,-0.2646 0.3528,-0.5166 0.1197,-0.2583 0.1197,-0.5607 0,-0.3717 -0.2205,-0.5607 -0.2205,-0.1953 -0.5733,-0.1953 -0.3276,0 -0.579604,0.1134 -0.2457,0.1134 -0.504,0.315 l -0.2961,-0.3717 q 0.2646,-0.2205 0.6048,-0.3717 0.3465,-0.1575 0.774904,-0.1575 0.63,0 0.9954,0.3213 0.3654,0.315 0.3654,0.8757 0,0.3528 -0.1449,0.6615 -0.1449,0.3087 -0.4032,0.6111 -0.2583,0.2961 -0.6048,0.6363 l -0.938704,0.9261 v 0.0252 h 2.274304 z"
         id="path4590" /><path
         d="m 105.8762,549.3912 q 0,0.4851 -0.0882,0.9576 -0.0819,0.4662 -0.3087,0.8505 -0.2205,0.378 -0.63,0.6048 -0.4032,0.2268 -1.0395,0.2268 -0.126,0 -0.2961,-0.0189 -0.1638,-0.0126 -0.2709,-0.0441 v -0.4725 q 0.2457,0.0819 0.5544,0.0819 0.441,0 0.7245,-0.1449 0.2898,-0.1449 0.4599,-0.3906 0.1701,-0.252 0.2457,-0.5796 0.0756,-0.3339 0.0882,-0.6993 h -0.0378 q -0.1386,0.2142 -0.4032,0.3717 -0.2583,0.1512 -0.6678,0.1512 -0.5796,0 -0.9387,-0.3528 -0.3528,-0.3591 -0.3528,-1.008 0,-0.4725 0.1764,-0.8127 0.1827,-0.3402 0.504,-0.5229 0.3213,-0.1827 0.756,-0.1827 0.4284,0 0.7749,0.2205 0.3465,0.2142 0.5481,0.6552 0.2016,0.4347 0.2016,1.1088 z m -1.5246,-1.5183 q -0.3906,0 -0.6426,0.2583 -0.2457,0.2583 -0.2457,0.7875 0,0.4347 0.2079,0.6867 0.2142,0.2457 0.6552,0.2457 0.3024,0 0.5229,-0.1197 0.2205,-0.126 0.3402,-0.315 0.126,-0.189 0.126,-0.3906 0,-0.2709 -0.1071,-0.5355 -0.1071,-0.2646 -0.3213,-0.441 -0.2142,-0.1764 -0.5355,-0.1764 z"
         id="path4592" /><path
         d="m 126.6952,584.78839 h -2.9736 v -0.4599 l 1.1781,-1.1907 q 0.3402,-0.3402 0.5733,-0.6048 0.2331,-0.2646 0.3528,-0.5166 0.1197,-0.2583 0.1197,-0.5607 0,-0.3717 -0.2205,-0.5607 -0.2205,-0.1953 -0.5733,-0.1953 -0.3276,0 -0.5796,0.1134 -0.2457,0.1134 -0.504,0.315 l -0.2961,-0.3717 q 0.2646,-0.2205 0.6048,-0.3717 0.3465,-0.1575 0.7749,-0.1575 0.63,0 0.9954,0.3213 0.3654,0.315 0.3654,0.8757 0,0.3528 -0.1449,0.6615 -0.1449,0.3087 -0.4032,0.6111 -0.2583,0.2961 -0.6048,0.6363 l -0.9387,0.9261 v 0.0252 h 2.2743 z"
         id="path4594" /><path
         d="m 130.71462,582.53299 q 0,0.7245 -0.1512,1.2474 -0.1512,0.5166 -0.4788,0.7938 -0.3276,0.2772 -0.8694,0.2772 -0.7623,0 -1.1277,-0.6111 -0.3591,-0.6174 -0.3591,-1.7073 0,-0.7308 0.1449,-1.2474 0.1512,-0.5166 0.4788,-0.7875 0.3276,-0.2772 0.8631,-0.2772 0.756,0 1.1277,0.6111 0.3717,0.6048 0.3717,1.701 z m -2.4318,0 q 0,0.9261 0.2079,1.386 0.2142,0.4599 0.7245,0.4599 0.504,0 0.7182,-0.4536 0.2205,-0.4599 0.2205,-1.3923 0,-0.9198 -0.2205,-1.3797 -0.2142,-0.4599 -0.7182,-0.4599 -0.5103,0 -0.7245,0.4599 -0.2079,0.4599 -0.2079,1.3797 z"
         id="path4596" /><path
         d="m 134.52611,581.34229 q 0,0.4536 -0.252,0.7245 -0.252,0.2646 -0.6804,0.3528 v 0.0252 q 0.5418,0.063 0.8064,0.3402 0.2646,0.2772 0.2646,0.7245 0,0.3906 -0.1827,0.6993 -0.1827,0.3024 -0.567,0.4725 -0.378,0.1701 -0.9765,0.1701 -0.3528,0 -0.6552,-0.0567 -0.3024,-0.0504 -0.5796,-0.189 v -0.5166 q 0.2835,0.1386 0.6111,0.2205 0.3276,0.0756 0.63,0.0756 0.6048,0 0.8694,-0.2331 0.2709,-0.2394 0.2709,-0.6552 0,-0.4221 -0.3339,-0.6048 -0.3276,-0.189 -0.9261,-0.189 h -0.4347 v -0.4725 h 0.441 q 0.5544,0 0.8379,-0.2331 0.2898,-0.2331 0.2898,-0.6174 0,-0.3276 -0.2205,-0.504 -0.2205,-0.1827 -0.5985,-0.1827 -0.3654,0 -0.6237,0.1071 -0.2583,0.1071 -0.5103,0.2709 l -0.2772,-0.378 q 0.2394,-0.189 0.5922,-0.3276 0.3591,-0.1386 0.8127,-0.1386 0.7056,0 1.0458,0.315 0.3465,0.315 0.3465,0.8001 z"
         id="path4598" /><path
         d="m 138.71563,582.53299 q 0,0.7245 -0.1512,1.2474 -0.1512,0.5166 -0.4788,0.7938 -0.3276,0.2772 -0.8694,0.2772 -0.7623,0 -1.1277,-0.6111 -0.3591,-0.6174 -0.3591,-1.7073 0,-0.7308 0.1449,-1.2474 0.1512,-0.5166 0.4788,-0.7875 0.3276,-0.2772 0.8631,-0.2772 0.756,0 1.1277,0.6111 0.3717,0.6048 0.3717,1.701 z m -2.4318,0 q 0,0.9261 0.2079,1.386 0.2142,0.4599 0.7245,0.4599 0.504,0 0.7182,-0.4536 0.2205,-0.4599 0.2205,-1.3923 0,-0.9198 -0.2205,-1.3797 -0.2142,-0.4599 -0.7182,-0.4599 -0.5103,0 -0.7245,0.4599 -0.2079,0.4599 -0.2079,1.3797 z"
         id="path4600" /></g><g
       aria-label="0%
2%
4%
6%
8%
10%
12%
14%
16%
18%
20%"
       id="text456"
       style="font-size:6.3px;font-family:CairoFont-4;-inkscape-font-specification:CairoFont-4-0;fill:#444444"><path
         d="m 78.38115,308.94959 q 0,0.7245 -0.1512,1.2474 -0.1512,0.5166 -0.4788,0.7938 -0.3276,0.2772 -0.8694,0.2772 -0.7623,0 -1.1277,-0.6111 -0.3591,-0.6174 -0.3591,-1.7073 0,-0.7308 0.1449,-1.2474 0.1512,-0.5166 0.4788,-0.7875 0.3276,-0.2772 0.8631,-0.2772 0.756,0 1.1277,0.6111 0.3717,0.6048 0.3717,1.701 z m -2.4318,0 q 0,0.9261 0.2079,1.386 0.2142,0.4599 0.7245,0.4599 0.504,0 0.7182,-0.4536 0.2205,-0.4599 0.2205,-1.3923 0,-0.9198 -0.2205,-1.3797 -0.2142,-0.4599 -0.7182,-0.4599 -0.5103,0 -0.7245,0.4599 -0.2079,0.4599 -0.2079,1.3797 z"
         id="path13587" /><path
         d="m 80.315254,306.64379 q 0.4662,0 0.7056,0.3717 0.2394,0.3654 0.2394,1.0332 0,0.6678 -0.2331,1.0458 -0.2268,0.3717 -0.7119,0.3717 -0.4473,0 -0.6867,-0.3717 -0.2331,-0.378 -0.2331,-1.0458 0,-0.6678 0.2205,-1.0332 0.2205,-0.3717 0.6993,-0.3717 z m 2.8791,0.063 -2.4948,4.4982 h -0.4851 l 2.4948,-4.4982 z m -2.8791,0.3276 q -0.2394,0 -0.3528,0.2583 -0.1071,0.252 -0.1071,0.756 0,0.504 0.1071,0.7623 0.1134,0.2583 0.3528,0.2583 0.4851,0 0.4851,-1.0206 0,-1.0143 -0.4851,-1.0143 z m 2.7531,1.4112 q 0.4599,0 0.6993,0.3717 0.2457,0.3654 0.2457,1.0332 0,0.6678 -0.2331,1.0458 -0.2268,0.3717 -0.7119,0.3717 -0.4473,0 -0.6867,-0.3717 -0.2331,-0.378 -0.2331,-1.0458 0,-0.6678 0.2205,-1.0332 0.2205,-0.3717 0.6993,-0.3717 z m 0,0.3969 q -0.2394,0 -0.3528,0.252 -0.1071,0.252 -0.1071,0.756 0,0.5103 0.1071,0.7686 0.1134,0.252 0.3528,0.252 0.4851,0 0.4851,-1.0206 0,-1.008 -0.4851,-1.008 z"
         id="path13589" /><path
         d="m 78.36225,290.76672 h -2.9736 v -0.4599 l 1.1781,-1.1907 q 0.3402,-0.3402 0.5733,-0.6048 0.2331,-0.2646 0.3528,-0.5166 0.1197,-0.2583 0.1197,-0.5607 0,-0.3717 -0.2205,-0.5607 -0.2205,-0.1953 -0.5733,-0.1953 -0.3276,0 -0.5796,0.1134 -0.2457,0.1134 -0.504,0.315 l -0.2961,-0.3717 q 0.2646,-0.2205 0.6048,-0.3717 0.3465,-0.1575 0.7749,-0.1575 0.63,0 0.9954,0.3213 0.3654,0.315 0.3654,0.8757 0,0.3528 -0.1449,0.6615 -0.1449,0.3087 -0.4032,0.6111 -0.2583,0.2961 -0.6048,0.6363 l -0.9387,0.9261 v 0.0252 h 2.2743 z"
         id="path13591" /><path
         d="m 80.315254,286.20552 q 0.4662,0 0.7056,0.3717 0.2394,0.3654 0.2394,1.0332 0,0.6678 -0.2331,1.0458 -0.2268,0.3717 -0.7119,0.3717 -0.4473,0 -0.6867,-0.3717 -0.2331,-0.378 -0.2331,-1.0458 0,-0.6678 0.2205,-1.0332 0.2205,-0.3717 0.6993,-0.3717 z m 2.8791,0.063 -2.4948,4.4982 h -0.4851 l 2.4948,-4.4982 z m -2.8791,0.3276 q -0.2394,0 -0.3528,0.2583 -0.1071,0.252 -0.1071,0.756 0,0.504 0.1071,0.7623 0.1134,0.2583 0.3528,0.2583 0.4851,0 0.4851,-1.0206 0,-1.0143 -0.4851,-1.0143 z m 2.7531,1.4112 q 0.4599,0 0.6993,0.3717 0.2457,0.3654 0.2457,1.0332 0,0.6678 -0.2331,1.0458 -0.2268,0.3717 -0.7119,0.3717 -0.4473,0 -0.6867,-0.3717 -0.2331,-0.378 -0.2331,-1.0458 0,-0.6678 0.2205,-1.0332 0.2205,-0.3717 0.6993,-0.3717 z m 0,0.3969 q -0.2394,0 -0.3528,0.252 -0.1071,0.252 -0.1071,0.756 0,0.5103 0.1071,0.7686 0.1134,0.252 0.3528,0.252 0.4851,0 0.4851,-1.0206 0,-1.008 -0.4851,-1.008 z"
         id="path13593" /><path
         d="m 78.56385,269.31311 h -0.6552 v 1.0206 h -0.5355 v -1.0206 h -2.1546 v -0.4725 l 2.1168,-3.0303 h 0.5733 v 3.0051 h 0.6552 z m -1.1907,-1.9152 q 0,-0.3276 0.0126,-0.5544 0.0126,-0.2331 0.0189,-0.441 h -0.0252 q -0.0504,0.1197 -0.126,0.2583 -0.0756,0.1386 -0.1449,0.2331 l -1.3482,1.9215 h 1.6128 z"
         id="path13595" /><path
         d="m 80.315254,265.77251 q 0.4662,0 0.7056,0.3717 0.2394,0.3654 0.2394,1.0332 0,0.6678 -0.2331,1.0458 -0.2268,0.3717 -0.7119,0.3717 -0.4473,0 -0.6867,-0.3717 -0.2331,-0.378 -0.2331,-1.0458 0,-0.6678 0.2205,-1.0332 0.2205,-0.3717 0.6993,-0.3717 z m 2.8791,0.063 -2.4948,4.4982 h -0.4851 l 2.4948,-4.4982 z m -2.8791,0.3276 q -0.2394,0 -0.3528,0.2583 -0.1071,0.252 -0.1071,0.756 0,0.504 0.1071,0.7623 0.1134,0.2583 0.3528,0.2583 0.4851,0 0.4851,-1.0206 0,-1.0143 -0.4851,-1.0143 z m 2.7531,1.4112 q 0.4599,0 0.6993,0.3717 0.2457,0.3654 0.2457,1.0332 0,0.6678 -0.2331,1.0458 -0.2268,0.3717 -0.7119,0.3717 -0.4473,0 -0.6867,-0.3717 -0.2331,-0.378 -0.2331,-1.0458 0,-0.6678 0.2205,-1.0332 0.2205,-0.3717 0.6993,-0.3717 z m 0,0.3969 q -0.2394,0 -0.3528,0.252 -0.1071,0.252 -0.1071,0.756 0,0.5103 0.1071,0.7686 0.1134,0.252 0.3528,0.252 0.4851,0 0.4851,-1.0206 0,-1.008 -0.4851,-1.008 z"
         id="path13597" /><path
         d="m 75.43275,247.97398 q 0,-0.4851 0.0819,-0.9513 0.0882,-0.4725 0.3087,-0.8505 0.2268,-0.3843 0.63,-0.6111 0.4032,-0.2268 1.0395,-0.2268 0.1323,0 0.2898,0.0126 0.1638,0.0126 0.2646,0.0441 v 0.4725 q -0.1134,-0.0378 -0.2583,-0.0567 -0.1386,-0.0189 -0.2835,-0.0189 -0.4347,0 -0.7245,0.1449 -0.2898,0.1449 -0.4599,0.3969 -0.1638,0.252 -0.2394,0.5796 -0.0756,0.3276 -0.0945,0.6993 h 0.0378 q 0.1449,-0.2205 0.4032,-0.3717 0.2583,-0.1575 0.6615,-0.1575 0.5859,0 0.945,0.3591 0.3591,0.3528 0.3591,1.008 0,0.7056 -0.3906,1.1088 -0.3843,0.4032 -1.0395,0.4032 -0.4284,0 -0.7749,-0.2142 -0.3465,-0.2142 -0.5544,-0.6552 -0.2016,-0.441 -0.2016,-1.1151 z m 1.5246,1.5183 q 0.3969,0 0.6426,-0.252 0.2457,-0.2583 0.2457,-0.7938 0,-0.4284 -0.2205,-0.6804 -0.2142,-0.252 -0.6489,-0.252 -0.2961,0 -0.5166,0.126 -0.2205,0.1197 -0.3465,0.3087 -0.1197,0.189 -0.1197,0.3906 0,0.2709 0.1071,0.5418 0.1071,0.2646 0.3213,0.441 0.2142,0.1701 0.5355,0.1701 z"
         id="path13599" /><path
         d="m 80.315254,245.33428 q 0.4662,0 0.7056,0.3717 0.2394,0.3654 0.2394,1.0332 0,0.6678 -0.2331,1.0458 -0.2268,0.3717 -0.7119,0.3717 -0.4473,0 -0.6867,-0.3717 -0.2331,-0.378 -0.2331,-1.0458 0,-0.6678 0.2205,-1.0332 0.2205,-0.3717 0.6993,-0.3717 z m 2.8791,0.063 -2.4948,4.4982 h -0.4851 l 2.4948,-4.4982 z m -2.8791,0.3276 q -0.2394,0 -0.3528,0.2583 -0.1071,0.252 -0.1071,0.756 0,0.504 0.1071,0.7623 0.1134,0.2583 0.3528,0.2583 0.4851,0 0.4851,-1.0206 0,-1.0143 -0.4851,-1.0143 z m 2.7531,1.4112 q 0.4599,0 0.6993,0.3717 0.2457,0.3654 0.2457,1.0332 0,0.6678 -0.2331,1.0458 -0.2268,0.3717 -0.7119,0.3717 -0.4473,0 -0.6867,-0.3717 -0.2331,-0.378 -0.2331,-1.0458 0,-0.6678 0.2205,-1.0332 0.2205,-0.3717 0.6993,-0.3717 z m 0,0.3969 q -0.2394,0 -0.3528,0.252 -0.1071,0.252 -0.1071,0.756 0,0.5103 0.1071,0.7686 0.1134,0.252 0.3528,0.252 0.4851,0 0.4851,-1.0206 0,-1.008 -0.4851,-1.008 z"
         id="path13601" /><path
         d="m 76.88175,224.89603 q 0.5922,0 0.9702,0.2772 0.378,0.2772 0.378,0.8001 0,0.2709 -0.1197,0.4725 -0.1134,0.2016 -0.3087,0.3591 -0.1953,0.1512 -0.4284,0.2709 0.2772,0.1323 0.504,0.3024 0.2268,0.1638 0.3591,0.3843 0.1386,0.2205 0.1386,0.5292 0,0.567 -0.4032,0.9009 -0.3969,0.3276 -1.071,0.3276 -0.7245,0 -1.1151,-0.315 -0.3906,-0.3213 -0.3906,-0.8946 0,-0.3087 0.126,-0.5355 0.1323,-0.2268 0.3465,-0.3906 0.2142,-0.1638 0.4599,-0.2772 -0.3276,-0.189 -0.5607,-0.4536 -0.2268,-0.2709 -0.2268,-0.6867 0,-0.3465 0.1764,-0.5796 0.1764,-0.2394 0.4788,-0.3654 0.3024,-0.126 0.6867,-0.126 z m -0.0063,0.4473 q -0.3465,0 -0.5733,0.1701 -0.2205,0.1638 -0.2205,0.4788 0,0.2331 0.1071,0.3906 0.1134,0.1575 0.3024,0.2709 0.189,0.1071 0.4158,0.2079 0.3276,-0.1386 0.5481,-0.3339 0.2268,-0.1953 0.2268,-0.5355 0,-0.315 -0.2205,-0.4788 -0.2205,-0.1701 -0.5859,-0.1701 z m -0.9387,2.9736 q 0,0.3276 0.2331,0.5481 0.2331,0.2142 0.7182,0.2142 0.4599,0 0.6993,-0.2142 0.2457,-0.2205 0.2457,-0.567 0,-0.3276 -0.2583,-0.5418 -0.2583,-0.2205 -0.6867,-0.3843 l -0.1008,-0.0378 q -0.4158,0.1764 -0.6363,0.4095 -0.2142,0.2268 -0.2142,0.5733 z"
         id="path13603" /><path
         d="m 80.315254,224.89603 q 0.4662,0 0.7056,0.3717 0.2394,0.3654 0.2394,1.0332 0,0.6678 -0.2331,1.0458 -0.2268,0.3717 -0.7119,0.3717 -0.4473,0 -0.6867,-0.3717 -0.2331,-0.378 -0.2331,-1.0458 0,-0.6678 0.2205,-1.0332 0.2205,-0.3717 0.6993,-0.3717 z m 2.8791,0.063 -2.4948,4.4982 h -0.4851 l 2.4948,-4.4982 z m -2.8791,0.3276 q -0.2394,0 -0.3528,0.2583 -0.1071,0.252 -0.1071,0.756 0,0.504 0.1071,0.7623 0.1134,0.2583 0.3528,0.2583 0.4851,0 0.4851,-1.0206 0,-1.0143 -0.4851,-1.0143 z m 2.7531,1.4112 q 0.4599,0 0.6993,0.3717 0.2457,0.3654 0.2457,1.0332 0,0.6678 -0.2331,1.0458 -0.2268,0.3717 -0.7119,0.3717 -0.4473,0 -0.6867,-0.3717 -0.2331,-0.378 -0.2331,-1.0458 0,-0.6678 0.2205,-1.0332 0.2205,-0.3717 0.6993,-0.3717 z m 0,0.3969 q -0.2394,0 -0.3528,0.252 -0.1071,0.252 -0.1071,0.756 0,0.5103 0.1071,0.7686 0.1134,0.252 0.3528,0.252 0.4851,0 0.4851,-1.0206 0,-1.008 -0.4851,-1.008 z"
         id="path13605" /><path
         d="m 73.315251,209.02423 h -0.5418 v -3.1437 q 0,-0.2709 0.0063,-0.4347 0.0063,-0.1638 0.0189,-0.3402 -0.1008,0.1008 -0.1827,0.1701 -0.0819,0.0693 -0.2079,0.1764 l -0.4788,0.3906 -0.2898,-0.3717 1.2159,-0.945 h 0.4599 z"
         id="path13607" /><path
         d="m 78.374154,206.76883 q 0,0.7245 -0.1512,1.2474 -0.1512,0.5166 -0.4788,0.7938 -0.3276,0.2772 -0.8694,0.2772 -0.7623,0 -1.1277,-0.6111 -0.3591,-0.6174 -0.3591,-1.7073 0,-0.7308 0.1449,-1.2474 0.1512,-0.5166 0.4788,-0.7875 0.3276,-0.2772 0.8631,-0.2772 0.756,0 1.1277,0.6111 0.3717,0.6048 0.3717,1.701 z m -2.4318,0 q 0,0.9261 0.2079,1.386 0.2142,0.4599 0.7245,0.4599 0.504,0 0.7182,-0.4536 0.2205,-0.4599 0.2205,-1.3923 0,-0.9198 -0.2205,-1.3797 -0.2142,-0.4599 -0.7182,-0.4599 -0.5103,0 -0.7245,0.4599 -0.2079,0.4599 -0.2079,1.3797 z"
         id="path13609" /><path
         d="m 80.30825,204.46303 q 0.4662,0 0.7056,0.3717 0.2394,0.3654 0.2394,1.0332 0,0.6678 -0.2331,1.0458 -0.2268,0.3717 -0.7119,0.3717 -0.4473,0 -0.6867,-0.3717 -0.2331,-0.378 -0.2331,-1.0458 0,-0.6678 0.2205,-1.0332 0.2205,-0.3717 0.6993,-0.3717 z m 2.8791,0.063 -2.4948,4.4982 h -0.4851 l 2.4948,-4.4982 z m -2.8791,0.3276 q -0.2394,0 -0.3528,0.2583 -0.1071,0.252 -0.1071,0.756 0,0.504 0.1071,0.7623 0.1134,0.2583 0.3528,0.2583 0.4851,0 0.4851,-1.0206 0,-1.0143 -0.4851,-1.0143 z m 2.7531,1.4112 q 0.4599,0 0.6993,0.3717 0.2457,0.3654 0.2457,1.0332 0,0.6678 -0.2331,1.0458 -0.2268,0.3717 -0.7119,0.3717 -0.4473,0 -0.6867,-0.3717 -0.2331,-0.378 -0.2331,-1.0458 0,-0.6678 0.2205,-1.0332 0.2205,-0.3717 0.6993,-0.3717 z m 0,0.3969 q -0.2394,0 -0.3528,0.252 -0.1071,0.252 -0.1071,0.756 0,0.5103 0.1071,0.7686 0.1134,0.252 0.3528,0.252 0.4851,0 0.4851,-1.0206 0,-1.008 -0.4851,-1.008 z"
         id="path13611" /><path
         d="m 73.315251,188.58598 h -0.5418 v -3.1437 q 0,-0.2709 0.0063,-0.4347 0.0063,-0.1638 0.0189,-0.3402 -0.1008,0.1008 -0.1827,0.1701 -0.0819,0.0693 -0.2079,0.1764 l -0.4788,0.3906 -0.2898,-0.3717 1.2159,-0.945 h 0.4599 z"
         id="path13613" /><path
         d="m 78.355254,188.58598 h -2.9736 v -0.4599 l 1.1781,-1.1907 q 0.3402,-0.3402 0.5733,-0.6048 0.2331,-0.2646 0.3528,-0.5166 0.1197,-0.2583 0.1197,-0.5607 0,-0.3717 -0.2205,-0.5607 -0.2205,-0.1953 -0.5733,-0.1953 -0.3276,0 -0.5796,0.1134 -0.2457,0.1134 -0.504,0.315 l -0.2961,-0.3717 q 0.2646,-0.2205 0.6048,-0.3717 0.3465,-0.1575 0.7749,-0.1575 0.63,0 0.9954,0.3213 0.3654,0.315 0.3654,0.8757 0,0.3528 -0.1449,0.6615 -0.1449,0.3087 -0.4032,0.6111 -0.2583,0.2961 -0.6048,0.6363 l -0.9387,0.9261 v 0.0252 h 2.2743 z"
         id="path13615" /><path
         d="m 80.30825,184.02478 q 0.4662,0 0.7056,0.3717 0.2394,0.3654 0.2394,1.0332 0,0.6678 -0.2331,1.0458 -0.2268,0.3717 -0.7119,0.3717 -0.4473,0 -0.6867,-0.3717 -0.2331,-0.378 -0.2331,-1.0458 0,-0.6678 0.2205,-1.0332 0.2205,-0.3717 0.6993,-0.3717 z m 2.8791,0.063 -2.4948,4.4982 h -0.4851 l 2.4948,-4.4982 z m -2.8791,0.3276 q -0.2394,0 -0.3528,0.2583 -0.1071,0.252 -0.1071,0.756 0,0.504 0.1071,0.7623 0.1134,0.2583 0.3528,0.2583 0.4851,0 0.4851,-1.0206 0,-1.0143 -0.4851,-1.0143 z m 2.7531,1.4112 q 0.4599,0 0.6993,0.3717 0.2457,0.3654 0.2457,1.0332 0,0.6678 -0.2331,1.0458 -0.2268,0.3717 -0.7119,0.3717 -0.4473,0 -0.6867,-0.3717 -0.2331,-0.378 -0.2331,-1.0458 0,-0.6678 0.2205,-1.0332 0.2205,-0.3717 0.6993,-0.3717 z m 0,0.3969 q -0.2394,0 -0.3528,0.252 -0.1071,0.252 -0.1071,0.756 0,0.5103 0.1071,0.7686 0.1134,0.252 0.3528,0.252 0.4851,0 0.4851,-1.0206 0,-1.008 -0.4851,-1.008 z"
         id="path13617" /><path
         d="m 73.315251,168.14774 h -0.5418 v -3.1437 q 0,-0.2709 0.0063,-0.4347 0.0063,-0.1638 0.0189,-0.3402 -0.1008,0.1008 -0.1827,0.1701 -0.0819,0.0693 -0.2079,0.1764 l -0.4788,0.3906 -0.2898,-0.3717 1.2159,-0.945 h 0.4599 z"
         id="path13619" /><path
         d="m 78.556854,167.12714 h -0.6552 v 1.0206 h -0.5355 v -1.0206 h -2.1546 v -0.4725 l 2.1168,-3.0303 h 0.5733 v 3.0051 h 0.6552 z m -1.1907,-1.9152 q 0,-0.3276 0.0126,-0.5544 0.0126,-0.2331 0.0189,-0.441 h -0.0252 q -0.0504,0.1197 -0.126,0.2583 -0.0756,0.1386 -0.1449,0.2331 l -1.3482,1.9215 h 1.6128 z"
         id="path13621" /><path
         d="m 80.30825,163.58654 q 0.4662,0 0.7056,0.3717 0.2394,0.3654 0.2394,1.0332 0,0.6678 -0.2331,1.0458 -0.2268,0.3717 -0.7119,0.3717 -0.4473,0 -0.6867,-0.3717 -0.2331,-0.378 -0.2331,-1.0458 0,-0.6678 0.2205,-1.0332 0.2205,-0.3717 0.6993,-0.3717 z m 2.8791,0.063 -2.4948,4.4982 h -0.4851 l 2.4948,-4.4982 z m -2.8791,0.3276 q -0.2394,0 -0.3528,0.2583 -0.1071,0.252 -0.1071,0.756 0,0.504 0.1071,0.7623 0.1134,0.2583 0.3528,0.2583 0.4851,0 0.4851,-1.0206 0,-1.0143 -0.4851,-1.0143 z m 2.7531,1.4112 q 0.4599,0 0.6993,0.3717 0.2457,0.3654 0.2457,1.0332 0,0.6678 -0.2331,1.0458 -0.2268,0.3717 -0.7119,0.3717 -0.4473,0 -0.6867,-0.3717 -0.2331,-0.378 -0.2331,-1.0458 0,-0.6678 0.2205,-1.0332 0.2205,-0.3717 0.6993,-0.3717 z m 0,0.3969 q -0.2394,0 -0.3528,0.252 -0.1071,0.252 -0.1071,0.756 0,0.5103 0.1071,0.7686 0.1134,0.252 0.3528,0.252 0.4851,0 0.4851,-1.0206 0,-1.008 -0.4851,-1.008 z"
         id="path13623" /><path
         d="m 73.315251,147.71475 h -0.5418 v -3.1437 q 0,-0.2709 0.0063,-0.4347 0.0063,-0.1638 0.0189,-0.3402 -0.1008,0.1008 -0.1827,0.1701 -0.0819,0.0693 -0.2079,0.1764 l -0.4788,0.3906 -0.2898,-0.3717 1.2159,-0.945 h 0.4599 z"
         id="path13625" /><path
         d="m 75.425754,145.79325 q 0,-0.4851 0.0819,-0.9513 0.0882,-0.4725 0.3087,-0.8505 0.2268,-0.3843 0.63,-0.6111 0.4032,-0.2268 1.0395,-0.2268 0.1323,0 0.2898,0.0126 0.1638,0.0126 0.2646,0.0441 v 0.4725 q -0.1134,-0.0378 -0.2583,-0.0567 -0.1386,-0.0189 -0.2835,-0.0189 -0.4347,0 -0.7245,0.1449 -0.2898,0.1449 -0.4599,0.3969 -0.1638,0.252 -0.2394,0.5796 -0.0756,0.3276 -0.0945,0.6993 h 0.0378 q 0.1449,-0.2205 0.4032,-0.3717 0.2583,-0.1575 0.6615,-0.1575 0.5859,0 0.945,0.3591 0.3591,0.3528 0.3591,1.008 0,0.7056 -0.3906,1.1088 -0.3843,0.4032 -1.0395,0.4032 -0.4284,0 -0.7749,-0.2142 -0.3465,-0.2142 -0.5544,-0.6552 -0.2016,-0.441 -0.2016,-1.1151 z m 1.5246,1.5183 q 0.3969,0 0.6426,-0.252 0.2457,-0.2583 0.2457,-0.7938 0,-0.4284 -0.2205,-0.6804 -0.2142,-0.252 -0.6489,-0.252 -0.2961,0 -0.5166,0.126 -0.2205,0.1197 -0.3465,0.3087 -0.1197,0.189 -0.1197,0.3906 0,0.2709 0.1071,0.5418 0.1071,0.2646 0.3213,0.441 0.2142,0.1701 0.5355,0.1701 z"
         id="path13627" /><path
         d="m 80.30825,143.15355 q 0.4662,0 0.7056,0.3717 0.2394,0.3654 0.2394,1.0332 0,0.6678 -0.2331,1.0458 -0.2268,0.3717 -0.7119,0.3717 -0.4473,0 -0.6867,-0.3717 -0.2331,-0.378 -0.2331,-1.0458 0,-0.6678 0.2205,-1.0332 0.2205,-0.3717 0.6993,-0.3717 z m 2.8791,0.063 -2.4948,4.4982 h -0.4851 l 2.4948,-4.4982 z m -2.8791,0.3276 q -0.2394,0 -0.3528,0.2583 -0.1071,0.252 -0.1071,0.756 0,0.504 0.1071,0.7623 0.1134,0.2583 0.3528,0.2583 0.4851,0 0.4851,-1.0206 0,-1.0143 -0.4851,-1.0143 z m 2.7531,1.4112 q 0.4599,0 0.6993,0.3717 0.2457,0.3654 0.2457,1.0332 0,0.6678 -0.2331,1.0458 -0.2268,0.3717 -0.7119,0.3717 -0.4473,0 -0.6867,-0.3717 -0.2331,-0.378 -0.2331,-1.0458 0,-0.6678 0.2205,-1.0332 0.2205,-0.3717 0.6993,-0.3717 z m 0,0.3969 q -0.2394,0 -0.3528,0.252 -0.1071,0.252 -0.1071,0.756 0,0.5103 0.1071,0.7686 0.1134,0.252 0.3528,0.252 0.4851,0 0.4851,-1.0206 0,-1.008 -0.4851,-1.008 z"
         id="path13629" /><path
         d="m 73.315251,127.27649 h -0.5418 v -3.1437 q 0,-0.2709 0.0063,-0.4347 0.0063,-0.1638 0.0189,-0.3402 -0.1008,0.1008 -0.1827,0.1701 -0.0819,0.0693 -0.2079,0.1764 l -0.4788,0.3906 -0.2898,-0.3717 1.2159,-0.945 h 0.4599 z"
         id="path13631" /><path
         d="m 76.874754,122.71529 q 0.5922,0 0.9702,0.2772 0.378,0.2772 0.378,0.8001 0,0.2709 -0.1197,0.4725 -0.1134,0.2016 -0.3087,0.3591 -0.1953,0.1512 -0.4284,0.2709 0.2772,0.1323 0.504,0.3024 0.2268,0.1638 0.3591,0.3843 0.1386,0.2205 0.1386,0.5292 0,0.567 -0.4032,0.9009 -0.3969,0.3276 -1.071,0.3276 -0.7245,0 -1.1151,-0.315 -0.3906,-0.3213 -0.3906,-0.8946 0,-0.3087 0.126,-0.5355 0.1323,-0.2268 0.3465,-0.3906 0.2142,-0.1638 0.4599,-0.2772 -0.3276,-0.189 -0.5607,-0.4536 -0.2268,-0.2709 -0.2268,-0.6867 0,-0.3465 0.1764,-0.5796 0.1764,-0.2394 0.4788,-0.3654 0.3024,-0.126 0.6867,-0.126 z m -0.0063,0.4473 q -0.3465,0 -0.5733,0.1701 -0.2205,0.1638 -0.2205,0.4788 0,0.2331 0.1071,0.3906 0.1134,0.1575 0.3024,0.2709 0.189,0.1071 0.4158,0.2079 0.3276,-0.1386 0.5481,-0.3339 0.2268,-0.1953 0.2268,-0.5355 0,-0.315 -0.2205,-0.4788 -0.2205,-0.1701 -0.5859,-0.1701 z m -0.9387,2.9736 q 0,0.3276 0.2331,0.5481 0.2331,0.2142 0.7182,0.2142 0.4599,0 0.6993,-0.2142 0.2457,-0.2205 0.2457,-0.567 0,-0.3276 -0.2583,-0.5418 -0.2583,-0.2205 -0.6867,-0.3843 l -0.1008,-0.0378 q -0.4158,0.1764 -0.6363,0.4095 -0.2142,0.2268 -0.2142,0.5733 z"
         id="path13633" /><path
         d="m 80.30825,122.71529 q 0.4662,0 0.7056,0.3717 0.2394,0.3654 0.2394,1.0332 0,0.6678 -0.2331,1.0458 -0.2268,0.3717 -0.7119,0.3717 -0.4473,0 -0.6867,-0.3717 -0.2331,-0.378 -0.2331,-1.0458 0,-0.6678 0.2205,-1.0332 0.2205,-0.3717 0.6993,-0.3717 z m 2.8791,0.063 -2.4948,4.4982 h -0.4851 l 2.4948,-4.4982 z m -2.8791,0.3276 q -0.2394,0 -0.3528,0.2583 -0.1071,0.252 -0.1071,0.756 0,0.504 0.1071,0.7623 0.1134,0.2583 0.3528,0.2583 0.4851,0 0.4851,-1.0206 0,-1.0143 -0.4851,-1.0143 z m 2.7531,1.4112 q 0.4599,0 0.6993,0.3717 0.2457,0.3654 0.2457,1.0332 0,0.6678 -0.2331,1.0458 -0.2268,0.3717 -0.7119,0.3717 -0.4473,0 -0.6867,-0.3717 -0.2331,-0.378 -0.2331,-1.0458 0,-0.6678 0.2205,-1.0332 0.2205,-0.3717 0.6993,-0.3717 z m 0,0.3969 q -0.2394,0 -0.3528,0.252 -0.1071,0.252 -0.1071,0.756 0,0.5103 0.1071,0.7686 0.1134,0.252 0.3528,0.252 0.4851,0 0.4851,-1.0206 0,-1.008 -0.4851,-1.008 z"
         id="path13635" /><path
         d="m 74.354751,106.83824 h -2.9736 v -0.4599 l 1.1781,-1.1907 q 0.3402,-0.3402 0.5733,-0.6048 0.2331,-0.2646 0.3528,-0.5166 0.1197,-0.2583 0.1197,-0.5607 0,-0.3717 -0.2205,-0.5607 -0.2205,-0.1953 -0.5733,-0.1953 -0.3276,0 -0.5796,0.1134 -0.2457,0.1134 -0.504,0.315 l -0.2961,-0.3717 q 0.2646,-0.2205 0.6048,-0.3717 0.3465,-0.1575 0.7749,-0.1575 0.63,0 0.9954,0.3213 0.3654,0.315 0.3654,0.8757 0,0.3528 -0.1449,0.6615 -0.1449,0.3087 -0.4032,0.6111 -0.2583,0.2961 -0.6048,0.6363 l -0.9387,0.9261 v 0.0252 h 2.2743 z"
         id="path13637" /><path
         d="m 78.374154,104.58284 q 0,0.7245 -0.1512,1.2474 -0.1512,0.5166 -0.4788,0.7938 -0.3276,0.2772 -0.8694,0.2772 -0.7623,0 -1.1277,-0.6111 -0.3591,-0.6174 -0.3591,-1.7073 0,-0.7308 0.1449,-1.2474 0.1512,-0.5166 0.4788,-0.7875 0.3276,-0.2772 0.8631,-0.2772 0.756,0 1.1277,0.6111 0.3717,0.6048 0.3717,1.701 z m -2.4318,0 q 0,0.9261 0.2079,1.386 0.2142,0.4599 0.7245,0.4599 0.504,0 0.7182,-0.4536 0.2205,-0.4599 0.2205,-1.3923 0,-0.9198 -0.2205,-1.3797 -0.2142,-0.4599 -0.7182,-0.4599 -0.5103,0 -0.7245,0.4599 -0.2079,0.4599 -0.2079,1.3797 z"
         id="path13639" /><path
         d="m 80.30825,102.27704 q 0.4662,0 0.7056,0.3717 0.2394,0.3654 0.2394,1.0332 0,0.6678 -0.2331,1.0458 -0.2268,0.3717 -0.7119,0.3717 -0.4473,0 -0.6867,-0.3717 -0.2331,-0.378 -0.2331,-1.0458 0,-0.6678 0.2205,-1.0332 0.2205,-0.3717 0.6993,-0.3717 z m 2.8791,0.063 -2.4948,4.4982 h -0.4851 l 2.4948,-4.4982 z m -2.8791,0.3276 q -0.2394,0 -0.3528,0.2583 -0.1071,0.252 -0.1071,0.756 0,0.504 0.1071,0.7623 0.1134,0.2583 0.3528,0.2583 0.4851,0 0.4851,-1.0206 0,-1.0143 -0.4851,-1.0143 z m 2.7531,1.4112 q 0.4599,0 0.6993,0.3717 0.2457,0.3654 0.2457,1.0332 0,0.6678 -0.2331,1.0458 -0.2268,0.3717 -0.7119,0.3717 -0.4473,0 -0.6867,-0.3717 -0.2331,-0.378 -0.2331,-1.0458 0,-0.6678 0.2205,-1.0332 0.2205,-0.3717 0.6993,-0.3717 z m 0,0.3969 q -0.2394,0 -0.3528,0.252 -0.1071,0.252 -0.1071,0.756 0,0.5103 0.1071,0.7686 0.1134,0.252 0.3528,0.252 0.4851,0 0.4851,-1.0206 0,-1.008 -0.4851,-1.008 z"
         id="path13641" /></g><g
       aria-label="Staking Rewards Schedule (time estimated from epoch interval)"
       id="text464"
       style="font-size:10.5px;font-family:CairoFont-4;-inkscape-font-specification:CairoFont-4-0;fill:#444444"><path
         d="m 74.818501,57.094498 q 0,0.9975 -0.7245,1.554 -0.7245,0.5565 -1.953,0.5565 -0.63,0 -1.1655,-0.0945 -0.5355,-0.0945 -0.8925,-0.2625 v -0.903 q 0.378,0.168 0.9345,0.3045 0.567,0.1365 1.1655,0.1365 0.84,0 1.26,-0.3255 0.4305,-0.3255 0.4305,-0.882 0,-0.3675 -0.1575,-0.6195 -0.1575,-0.252 -0.546,-0.462 -0.378,-0.2205 -1.0605,-0.462 -0.9555,-0.3465 -1.449,-0.8505 -0.483,-0.504 -0.483,-1.3755 0,-0.5985 0.3045,-1.0185 0.3045,-0.4305 0.84,-0.6615 0.546,-0.231 1.2495,-0.231 0.6195,0 1.134,0.1155 0.5145,0.1155 0.9345,0.3045 l -0.294,0.8085 q -0.3885,-0.168 -0.8505,-0.2835 -0.4515,-0.1155 -0.945,-0.1155 -0.7035,0 -1.0605,0.3045 -0.357,0.294 -0.357,0.7875 0,0.378 0.1575,0.63 0.1575,0.252 0.5145,0.4515 0.357,0.1995 0.966,0.4305 0.6615,0.2415 1.113,0.525 0.462,0.273 0.693,0.6615 0.2415,0.3885 0.2415,0.9765 z"
         id="path11417" /><path
         d="m 79.491002,58.448998 q 0.21,0 0.4305,-0.0315 0.2205,-0.042 0.357,-0.084 v 0.7035 q -0.147,0.0735 -0.42,0.1155 -0.273,0.0525 -0.525,0.0525 -0.441,0 -0.819,-0.147 -0.3675,-0.1575 -0.5985,-0.5355 -0.231,-0.378 -0.231,-1.0605 v -3.276 h -0.798 v -0.441 l 0.8085,-0.3675 0.3675,-1.197 h 0.546 v 1.2915 h 1.6275 v 0.714 h -1.6275 v 3.255 q 0,0.5145 0.2415,0.7665 0.252,0.2415 0.6405,0.2415 z"
         id="path11419" /><path
         d="m 83.880003,53.377498 q 1.029,0 1.5225,0.4515 0.4935,0.4515 0.4935,1.4385 v 3.8325 h -0.672 l -0.1785,-0.798 h -0.042 q -0.3675,0.462 -0.777,0.6825 -0.399,0.2205 -1.113,0.2205 -0.7665,0 -1.2705,-0.399 -0.504,-0.4095 -0.504,-1.2705 0,-0.84 0.6615,-1.2915 0.6615,-0.462 2.037,-0.504 l 0.9555,-0.0315 v -0.336 q 0,-0.7035 -0.3045,-0.9765 -0.3045,-0.273 -0.861,-0.273 -0.441,0 -0.84,0.1365 -0.399,0.126 -0.7455,0.294 l -0.2835,-0.693 q 0.3675,-0.1995 0.8715,-0.336 0.504,-0.147 1.05,-0.147 z m 0.273,3.003 q -1.05,0.042 -1.4595,0.336 -0.399,0.294 -0.399,0.8295 0,0.4725 0.2835,0.693 0.294,0.2205 0.7455,0.2205 0.714,0 1.1865,-0.3885 0.4725,-0.399 0.4725,-1.218 v -0.504 z"
         id="path11421" /><path
         d="m 88.961998,55.288498 q 0,0.168 -0.021,0.441 -0.0105,0.273 -0.021,0.4725 h 0.042 q 0.063,-0.084 0.189,-0.2415 0.126,-0.1575 0.252,-0.315 0.1365,-0.168 0.231,-0.273 l 1.7955,-1.9005 h 1.0815 l -2.2785,2.4045 2.436,3.2235 h -1.113 l -1.953,-2.625 -0.6405,0.5565 v 2.0685 h -0.9135 v -7.98 h 0.9135 z"
         id="path11423" /><path
         d="m 94.726504,51.361498 q 0.21,0 0.3675,0.147 0.168,0.1365 0.168,0.441 0,0.294 -0.168,0.441 -0.1575,0.147 -0.3675,0.147 -0.231,0 -0.3885,-0.147 -0.1575,-0.147 -0.1575,-0.441 0,-0.3045 0.1575,-0.441 0.1575,-0.147 0.3885,-0.147 z m 0.4515,2.1105 v 5.628 h -0.924 v -5.628 z"
         id="path11425" /><path
         d="m 99.840003,53.366998 q 1.007997,0 1.522497,0.4935 0.5145,0.483 0.5145,1.575 v 3.6645 h -0.9135 v -3.6015 q 0,-1.3545 -1.259997,-1.3545 -0.9345,0 -1.2915,0.525 -0.357,0.525 -0.357,1.512 v 2.919 h -0.924 v -5.628 h 0.7455 l 0.1365,0.7665 h 0.0525 q 0.273,-0.441 0.756,-0.651 0.483,-0.2205 1.0185,-0.2205 z"
         id="path11427" /><path
         d="m 105.762,53.366998 q 0.5565,0 0.9975,0.21 0.4515,0.21 0.7665,0.6405 h 0.0525 l 0.126,-0.7455 h 0.735 v 5.7225 q 0,1.2075 -0.6195,1.8165 -0.609,0.609 -1.9005,0.609 -1.239,0 -2.0265,-0.357 v -0.8505 q 0.8295,0.441 2.079,0.441 0.7245,0 1.134,-0.4305 0.42,-0.42 0.42,-1.155 v -0.2205 q 0,-0.126 0.0105,-0.357 0.0105,-0.2415 0.021,-0.336 h -0.042 q -0.567,0.8505 -1.743,0.8505 -1.092,0 -1.7115,-0.7665 -0.609,-0.7665 -0.609,-2.142 0,-1.344 0.609,-2.1315 0.6195,-0.798 1.701,-0.798 z m 0.126,0.777 q -0.7035,0 -1.092,0.567 -0.3885,0.5565 -0.3885,1.596 0,1.0395 0.378,1.596 0.3885,0.546 1.1235,0.546 0.8505,0 1.239,-0.4515 0.3885,-0.462 0.3885,-1.4805 v -0.2205 q 0,-1.155 -0.399,-1.6485 -0.399,-0.504 -1.2495,-0.504 z"
         id="path11429" /><path
         d="m 116.1885,51.602998 q 1.3965,0 2.058,0.5355 0.672,0.525 0.672,1.596 0,0.5985 -0.2205,0.9975 -0.2205,0.399 -0.567,0.6405 -0.336,0.231 -0.714,0.3675 l 2.058,3.36 h -1.1025 l -1.8165,-3.0975 h -1.491 v 3.0975 h -0.945 v -7.497 z m -0.0525,0.819 h -1.071 v 2.7825 h 1.1235 q 0.9135,0 1.3335,-0.357 0.42,-0.3675 0.42,-1.071 0,-0.735 -0.441,-1.0395 -0.441,-0.315 -1.365,-0.315 z"
         id="path11431" /><path
         d="m 123.20251,53.366998 q 0.7245,0 1.239,0.315 0.525,0.315 0.798,0.8925 0.2835,0.567 0.2835,1.3335 v 0.5565 h -3.8535 q 0.021,0.9555 0.483,1.4595 0.4725,0.4935 1.3125,0.4935 0.5355,0 0.945,-0.0945 0.42,-0.105 0.861,-0.294 v 0.8085 q -0.4305,0.189 -0.8505,0.273 -0.42,0.0945 -0.9975,0.0945 -0.798,0 -1.4175,-0.3255 -0.609,-0.3255 -0.9555,-0.966 -0.336,-0.651 -0.336,-1.5855 0,-0.924 0.3045,-1.5855 0.315,-0.6615 0.8715,-1.0185 0.567,-0.357 1.3125,-0.357 z m -0.0105,0.756 q -0.6615,0 -1.05,0.4305 -0.378,0.42 -0.4515,1.176 h 2.8665 q -0.0105,-0.714 -0.336,-1.155 -0.3255,-0.4515 -1.029,-0.4515 z"
         id="path11433" /><path
         d="m 130.9095,55.918498 q -0.1365,-0.4305 -0.2415,-0.84 -0.0945,-0.42 -0.147,-0.651 h -0.042 q -0.042,0.231 -0.1365,0.651 -0.0945,0.4095 -0.2415,0.8505 l -1.008,3.1605 h -1.05 l -1.5435,-5.628 h 0.9555 l 0.777,3.003 q 0.1155,0.4515 0.2205,0.9135 0.105,0.462 0.147,0.7665 h 0.042 q 0.042,-0.1785 0.0945,-0.441 0.063,-0.2625 0.1365,-0.546 0.0735,-0.294 0.147,-0.525 l 0.9975,-3.171 h 1.008 l 0.966,3.171 q 0.1155,0.357 0.2205,0.777 0.1155,0.42 0.1575,0.7245 h 0.042 q 0.0315,-0.2625 0.1365,-0.7245 0.1155,-0.462 0.2415,-0.945 l 0.7875,-3.003 h 0.945 l -1.5645,5.628 h -1.0815 z"
         id="path11435" /><path
         d="m 137.89201,53.377498 q 1.029,0 1.5225,0.4515 0.4935,0.4515 0.4935,1.4385 v 3.8325 h -0.672 l -0.1785,-0.798 h -0.042 q -0.3675,0.462 -0.777,0.6825 -0.399,0.2205 -1.113,0.2205 -0.7665,0 -1.2705,-0.399 -0.504,-0.4095 -0.504,-1.2705 0,-0.84 0.6615,-1.2915 0.6615,-0.462 2.037,-0.504 l 0.9555,-0.0315 v -0.336 q 0,-0.7035 -0.3045,-0.9765 -0.3045,-0.273 -0.861,-0.273 -0.441,0 -0.84,0.1365 -0.399,0.126 -0.7455,0.294 l -0.2835,-0.693 q 0.3675,-0.1995 0.8715,-0.336 0.504,-0.147 1.05,-0.147 z m 0.273,3.003 q -1.05,0.042 -1.4595,0.336 -0.399,0.294 -0.399,0.8295 0,0.4725 0.2835,0.693 0.294,0.2205 0.7455,0.2205 0.714,0 1.1865,-0.3885 0.4725,-0.399 0.4725,-1.218 v -0.504 z"
         id="path11437" /><path
         d="m 144.6855,53.366998 q 0.1575,0 0.336,0.021 0.189,0.0105 0.3255,0.042 l -0.1155,0.8505 q -0.1365,-0.0315 -0.3045,-0.0525 -0.1575,-0.021 -0.3045,-0.021 -0.4305,0 -0.8085,0.2415 -0.378,0.231 -0.609,0.6615 -0.2205,0.42 -0.2205,0.987 v 3.003 h -0.924 v -5.628 h 0.756 l 0.105,1.029 h 0.042 q 0.273,-0.462 0.7035,-0.798 0.4305,-0.336 1.0185,-0.336 z"
         id="path11439" /><path
         d="m 148.52851,59.204998 q -1.05,0 -1.68,-0.7245 -0.63,-0.735 -0.63,-2.184 0,-1.449 0.63,-2.184 0.6405,-0.7455 1.6905,-0.7455 0.651,0 1.0605,0.2415 0.42,0.2415 0.6825,0.588 h 0.063 q -0.0105,-0.1365 -0.042,-0.399 -0.021,-0.273 -0.021,-0.4305 v -2.247 h 0.924 v 7.98 h -0.7455 l -0.1365,-0.756 h -0.042 q -0.252,0.357 -0.672,0.609 -0.42,0.252 -1.0815,0.252 z m 0.147,-0.7665 q 0.8925,0 1.2495,-0.483 0.3675,-0.4935 0.3675,-1.4805 v -0.168 q 0,-1.05 -0.3465,-1.6065 -0.3465,-0.567 -1.281,-0.567 -0.7455,0 -1.1235,0.5985 -0.3675,0.588 -0.3675,1.5855 0,1.008 0.3675,1.5645 0.378,0.5565 1.134,0.5565 z"
         id="path11441" /><path
         d="m 156.73951,57.545998 q 0,0.819 -0.609,1.239 -0.609,0.42 -1.638,0.42 -0.588,0 -1.0185,-0.0945 -0.42,-0.0945 -0.7455,-0.2625 v -0.84 q 0.336,0.168 0.8085,0.315 0.483,0.1365 0.9765,0.1365 0.7035,0 1.0185,-0.2205 0.315,-0.231 0.315,-0.609 0,-0.21 -0.1155,-0.378 -0.1155,-0.168 -0.42,-0.336 -0.294,-0.168 -0.8505,-0.378 -0.546,-0.21 -0.9345,-0.42 -0.3885,-0.21 -0.5985,-0.504 -0.21,-0.294 -0.21,-0.756 0,-0.714 0.5775,-1.1025 0.588,-0.3885 1.533,-0.3885 0.5145,0 0.9555,0.105 0.4515,0.0945 0.84,0.273 l -0.315,0.735 q -0.357,-0.147 -0.7455,-0.252 -0.3885,-0.105 -0.798,-0.105 -0.567,0 -0.8715,0.189 -0.294,0.1785 -0.294,0.4935 0,0.231 0.1365,0.399 0.1365,0.1575 0.4515,0.315 0.3255,0.147 0.861,0.357 0.5355,0.1995 0.9135,0.4095 0.378,0.21 0.5775,0.5145 0.1995,0.294 0.1995,0.7455 z"
         id="path11443" /><path
         d="m 166.599,57.094498 q 0,0.9975 -0.7245,1.554 -0.7245,0.5565 -1.953,0.5565 -0.63,0 -1.1655,-0.0945 -0.5355,-0.0945 -0.8925,-0.2625 v -0.903 q 0.378,0.168 0.9345,0.3045 0.567,0.1365 1.1655,0.1365 0.84,0 1.26,-0.3255 0.4305,-0.3255 0.4305,-0.882 0,-0.3675 -0.1575,-0.6195 -0.1575,-0.252 -0.546,-0.462 -0.378,-0.2205 -1.0605,-0.462 -0.9555,-0.3465 -1.449,-0.8505 -0.483,-0.504 -0.483,-1.3755 0,-0.5985 0.3045,-1.0185 0.3045,-0.4305 0.84,-0.6615 0.546,-0.231 1.2495,-0.231 0.6195,0 1.134,0.1155 0.5145,0.1155 0.9345,0.3045 l -0.294,0.8085 q -0.3885,-0.168 -0.8505,-0.2835 -0.4515,-0.1155 -0.945,-0.1155 -0.7035,0 -1.0605,0.3045 -0.357,0.294 -0.357,0.7875 0,0.378 0.1575,0.63 0.1575,0.252 0.5145,0.4515 0.357,0.1995 0.966,0.4305 0.6615,0.2415 1.113,0.525 0.462,0.273 0.693,0.6615 0.2415,0.3885 0.2415,0.9765 z"
         id="path11445" /><path
         d="m 171.64951,59.204998 q -0.7455,0 -1.3335,-0.3045 -0.5775,-0.3045 -0.9135,-0.945 -0.3255,-0.6405 -0.3255,-1.638 0,-1.0395 0.3465,-1.6905 0.3465,-0.651 0.9345,-0.9555 0.5985,-0.3045 1.3545,-0.3045 0.4305,0 0.8295,0.0945 0.399,0.084 0.651,0.21 l -0.2835,0.7665 q -0.252,-0.0945 -0.588,-0.1785 -0.336,-0.084 -0.63,-0.084 -1.659,0 -1.659,2.1315 0,1.0185 0.399,1.5645 0.4095,0.5355 1.2075,0.5355 0.462,0 0.8085,-0.0945 0.357,-0.0945 0.651,-0.231 v 0.819 q -0.2835,0.147 -0.63,0.2205 -0.336,0.084 -0.819,0.084 z"
         id="path11447" /><path
         d="m 175.776,53.461498 q 0,0.42 -0.0525,0.7875 h 0.063 q 0.273,-0.4305 0.735,-0.651 0.4725,-0.2205 1.0185,-0.2205 1.029,0 1.5435,0.4935 0.5145,0.483 0.5145,1.5645 v 3.6645 h -0.9135 v -3.6015 q 0,-1.3545 -1.26,-1.3545 -0.945,0 -1.302,0.5355 -0.3465,0.525 -0.3465,1.512 v 2.9085 h -0.924 v -7.98 h 0.924 z"
         id="path11449" /><path
         d="m 183.6615,53.366998 q 0.7245,0 1.239,0.315 0.525,0.315 0.798,0.8925 0.2835,0.567 0.2835,1.3335 v 0.5565 h -3.8535 q 0.021,0.9555 0.483,1.4595 0.4725,0.4935 1.3125,0.4935 0.5355,0 0.945,-0.0945 0.42,-0.105 0.861,-0.294 v 0.8085 q -0.4305,0.189 -0.8505,0.273 -0.42,0.0945 -0.9975,0.0945 -0.798,0 -1.4175,-0.3255 -0.609,-0.3255 -0.9555,-0.966 -0.336,-0.651 -0.336,-1.5855 0,-0.924 0.3045,-1.5855 0.315,-0.6615 0.8715,-1.0185 0.567,-0.357 1.3125,-0.357 z m -0.0105,0.756 q -0.6615,0 -1.05,0.4305 -0.378,0.42 -0.4515,1.176 h 2.8665 q -0.0105,-0.714 -0.336,-1.155 -0.3255,-0.4515 -1.029,-0.4515 z"
         id="path11451" /><path
         d="m 189.7305,59.204998 q -1.05,0 -1.68,-0.7245 -0.63,-0.735 -0.63,-2.184 0,-1.449 0.63,-2.184 0.6405,-0.7455 1.6905,-0.7455 0.651,0 1.0605,0.2415 0.42,0.2415 0.6825,0.588 h 0.063 q -0.0105,-0.1365 -0.042,-0.399 -0.021,-0.273 -0.021,-0.4305 v -2.247 h 0.924 v 7.98 h -0.7455 l -0.1365,-0.756 h -0.042 q -0.252,0.357 -0.672,0.609 -0.42,0.252 -1.0815,0.252 z m 0.147,-0.7665 q 0.8925,0 1.2495,-0.483 0.3675,-0.4935 0.3675,-1.4805 v -0.168 q 0,-1.05 -0.3465,-1.6065 -0.3465,-0.567 -1.281,-0.567 -0.7455,0 -1.1235,0.5985 -0.3675,0.588 -0.3675,1.5855 0,1.008 0.3675,1.5645 0.378,0.5565 1.134,0.5565 z"
         id="path11453" /><path
         d="m 198.98101,53.471998 v 5.628 h -0.756 l -0.1365,-0.7455 h -0.042 q -0.273,0.441 -0.756,0.651 -0.483,0.1995 -1.029,0.1995 -1.0185,0 -1.533,-0.483 -0.5145,-0.4935 -0.5145,-1.5645 v -3.6855 h 0.9345 v 3.6225 q 0,1.344 1.2495,1.344 0.9345,0 1.2915,-0.525 0.3675,-0.525 0.3675,-1.512 v -2.9295 z"
         id="path11455" /><path
         d="m 201.83701,59.099998 h -0.924 v -7.98 h 0.924 z"
         id="path11457" /><path
         d="m 205.96351,53.366998 q 0.7245,0 1.239,0.315 0.525,0.315 0.798,0.8925 0.2835,0.567 0.2835,1.3335 v 0.5565 h -3.8535 q 0.021,0.9555 0.483,1.4595 0.4725,0.4935 1.3125,0.4935 0.5355,0 0.945,-0.0945 0.42,-0.105 0.861,-0.294 v 0.8085 q -0.4305,0.189 -0.8505,0.273 -0.42,0.0945 -0.9975,0.0945 -0.798,0 -1.4175,-0.3255 -0.609,-0.3255 -0.9555,-0.966 -0.336,-0.651 -0.336,-1.5855 0,-0.924 0.3045,-1.5855 0.315,-0.6615 0.8715,-1.0185 0.567,-0.357 1.3125,-0.357 z m -0.0105,0.756 q -0.6615,0 -1.05,0.4305 -0.378,0.42 -0.4515,1.176 h 2.8665 q -0.0105,-0.714 -0.336,-1.155 -0.3255,-0.4515 -1.029,-0.4515 z"
         id="path11459" /><path
         d="m 213.25051,56.222998 q 0,-1.281 0.3675,-2.4675 0.378,-1.197 1.176,-2.1525 h 0.8715 q -0.735,0.987 -1.113,2.1735 -0.3675,1.1865 -0.3675,2.436 0,1.218 0.3675,2.394 0.378,1.1655 1.1025,2.1525 h -0.861 q -0.798,-0.924 -1.176,-2.0895 -0.3675,-1.176 -0.3675,-2.4465 z"
         id="path11461" /><path
         d="m 220.3695,58.448998 q 0.21,0 0.4305,-0.0315 0.2205,-0.042 0.357,-0.084 v 0.7035 q -0.147,0.0735 -0.42,0.1155 -0.273,0.0525 -0.525,0.0525 -0.441,0 -0.819,-0.147 -0.3675,-0.1575 -0.5985,-0.5355 -0.231,-0.378 -0.231,-1.0605 v -3.276 h -0.798 v -0.441 l 0.8085,-0.3675 0.3675,-1.197 h 0.546 v 1.2915 h 1.6275 v 0.714 h -1.6275 v 3.255 q 0,0.5145 0.2415,0.7665 0.252,0.2415 0.6405,0.2415 z"
         id="path11463" /><path
         d="m 223.0995,51.361498 q 0.21,0 0.3675,0.147 0.168,0.1365 0.168,0.441 0,0.294 -0.168,0.441 -0.1575,0.147 -0.3675,0.147 -0.231,0 -0.3885,-0.147 -0.1575,-0.147 -0.1575,-0.441 0,-0.3045 0.1575,-0.441 0.1575,-0.147 0.3885,-0.147 z m 0.4515,2.1105 v 5.628 h -0.924 v -5.628 z"
         id="path11465" /><path
         d="m 231.678,53.366998 q 0.9555,0 1.428,0.4935 0.4725,0.483 0.4725,1.575 v 3.6645 h -0.9135 v -3.6225 q 0,-1.3335 -1.1445,-1.3335 -0.819,0 -1.176,0.4725 -0.3465,0.4725 -0.3465,1.3755 v 3.108 h -0.9135 v -3.6225 q 0,-1.3335 -1.155,-1.3335 -0.8505,0 -1.176,0.525 -0.3255,0.525 -0.3255,1.512 v 2.919 h -0.924 v -5.628 h 0.7455 l 0.1365,0.7665 h 0.0525 q 0.2625,-0.441 0.7035,-0.651 0.4515,-0.2205 0.9555,-0.2205 1.323,0 1.722,0.945 h 0.0525 q 0.2835,-0.483 0.7665,-0.714 0.4935,-0.231 1.0395,-0.231 z"
         id="path11467" /><path
         d="m 237.8835,53.366998 q 0.7245,0 1.239,0.315 0.525,0.315 0.798,0.8925 0.2835,0.567 0.2835,1.3335 v 0.5565 h -3.8535 q 0.021,0.9555 0.483,1.4595 0.4725,0.4935 1.3125,0.4935 0.5355,0 0.945,-0.0945 0.42,-0.105 0.861,-0.294 v 0.8085 q -0.4305,0.189 -0.8505,0.273 -0.42,0.0945 -0.9975,0.0945 -0.798,0 -1.4175,-0.3255 -0.609,-0.3255 -0.9555,-0.966 -0.336,-0.651 -0.336,-1.5855 0,-0.924 0.3045,-1.5855 0.315,-0.6615 0.8715,-1.0185 0.567,-0.357 1.3125,-0.357 z m -0.0105,0.756 q -0.6615,0 -1.05,0.4305 -0.378,0.42 -0.4515,1.176 h 2.8665 q -0.0105,-0.714 -0.336,-1.155 -0.3255,-0.4515 -1.029,-0.4515 z"
         id="path11469" /><path
         d="m 247.8165,53.366998 q 0.7245,0 1.239,0.315 0.525,0.315 0.798,0.8925 0.2835,0.567 0.2835,1.3335 v 0.5565 h -3.8535 q 0.021,0.9555 0.483,1.4595 0.4725,0.4935 1.3125,0.4935 0.5355,0 0.945,-0.0945 0.42,-0.105 0.861,-0.294 v 0.8085 q -0.4305,0.189 -0.8505,0.273 -0.42,0.0945 -0.9975,0.0945 -0.798,0 -1.4175,-0.3255 -0.609,-0.3255 -0.9555,-0.966 -0.336,-0.651 -0.336,-1.5855 0,-0.924 0.3045,-1.5855 0.315,-0.6615 0.8715,-1.0185 0.567,-0.357 1.3125,-0.357 z m -0.0105,0.756 q -0.6615,0 -1.05,0.4305 -0.378,0.42 -0.4515,1.176 h 2.8665 q -0.0105,-0.714 -0.336,-1.155 -0.3255,-0.4515 -1.029,-0.4515 z"
         id="path11471" /><path
         d="m 255.555,57.545998 q 0,0.819 -0.609,1.239 -0.609,0.42 -1.638,0.42 -0.588,0 -1.0185,-0.0945 -0.42,-0.0945 -0.7455,-0.2625 v -0.84 q 0.336,0.168 0.8085,0.315 0.483,0.1365 0.9765,0.1365 0.7035,0 1.0185,-0.2205 0.315,-0.231 0.315,-0.609 0,-0.21 -0.1155,-0.378 -0.1155,-0.168 -0.42,-0.336 -0.294,-0.168 -0.8505,-0.378 -0.546,-0.21 -0.9345,-0.42 -0.3885,-0.21 -0.5985,-0.504 -0.21,-0.294 -0.21,-0.756 0,-0.714 0.5775,-1.1025 0.588,-0.3885 1.533,-0.3885 0.5145,0 0.9555,0.105 0.4515,0.0945 0.84,0.273 l -0.315,0.735 q -0.357,-0.147 -0.7455,-0.252 -0.3885,-0.105 -0.798,-0.105 -0.567,0 -0.8715,0.189 -0.294,0.1785 -0.294,0.4935 0,0.231 0.1365,0.399 0.1365,0.1575 0.4515,0.315 0.3255,0.147 0.861,0.357 0.5355,0.1995 0.9135,0.4095 0.378,0.21 0.5775,0.5145 0.1995,0.294 0.1995,0.7455 z"
         id="path11473" /><path
         d="m 259.23001,58.448998 q 0.21,0 0.4305,-0.0315 0.2205,-0.042 0.357,-0.084 v 0.7035 q -0.147,0.0735 -0.42,0.1155 -0.273,0.0525 -0.525,0.0525 -0.441,0 -0.819,-0.147 -0.3675,-0.1575 -0.5985,-0.5355 -0.231,-0.378 -0.231,-1.0605 v -3.276 h -0.798 v -0.441 l 0.8085,-0.3675 0.3675,-1.197 h 0.546 v 1.2915 h 1.6275 v 0.714 h -1.6275 v 3.255 q 0,0.5145 0.2415,0.7665 0.252,0.2415 0.6405,0.2415 z"
         id="path11475" /><path
         d="m 261.96,51.361498 q 0.21,0 0.3675,0.147 0.168,0.1365 0.168,0.441 0,0.294 -0.168,0.441 -0.1575,0.147 -0.3675,0.147 -0.231,0 -0.3885,-0.147 -0.1575,-0.147 -0.1575,-0.441 0,-0.3045 0.1575,-0.441 0.1575,-0.147 0.3885,-0.147 z m 0.4515,2.1105 v 5.628 h -0.924 v -5.628 z"
         id="path11477" /><path
         d="m 270.53852,53.366998 q 0.9555,0 1.428,0.4935 0.4725,0.483 0.4725,1.575 v 3.6645 h -0.9135 v -3.6225 q 0,-1.3335 -1.1445,-1.3335 -0.819,0 -1.176,0.4725 -0.3465,0.4725 -0.3465,1.3755 v 3.108 h -0.9135 v -3.6225 q 0,-1.3335 -1.155,-1.3335 -0.8505,0 -1.176,0.525 -0.3255,0.525 -0.3255,1.512 v 2.919 h -0.924 v -5.628 h 0.7455 l 0.1365,0.7665 h 0.0525 q 0.2625,-0.441 0.7035,-0.651 0.4515,-0.2205 0.9555,-0.2205 1.323,0 1.722,0.945 h 0.0525 q 0.2835,-0.483 0.7665,-0.714 0.4935,-0.231 1.0395,-0.231 z"
         id="path11479" /><path
         d="m 276.70201,53.377498 q 1.029,0 1.5225,0.4515 0.4935,0.4515 0.4935,1.4385 v 3.8325 h -0.672 l -0.1785,-0.798 h -0.042 q -0.3675,0.462 -0.777,0.6825 -0.399,0.2205 -1.113,0.2205 -0.7665,0 -1.2705,-0.399 -0.504,-0.4095 -0.504,-1.2705 0,-0.84 0.6615,-1.2915 0.6615,-0.462 2.037,-0.504 l 0.9555,-0.0315 v -0.336 q 0,-0.7035 -0.3045,-0.9765 -0.3045,-0.273 -0.861,-0.273 -0.441,0 -0.84,0.1365 -0.399,0.126 -0.7455,0.294 l -0.2835,-0.693 q 0.3675,-0.1995 0.8715,-0.336 0.504,-0.147 1.05,-0.147 z m 0.273,3.003 q -1.05,0.042 -1.4595,0.336 -0.399,0.294 -0.399,0.8295 0,0.4725 0.2835,0.693 0.294,0.2205 0.7455,0.2205 0.714,0 1.1865,-0.3885 0.4725,-0.399 0.4725,-1.218 v -0.504 z"
         id="path11481" /><path
         d="m 282.75,58.448998 q 0.21,0 0.4305,-0.0315 0.2205,-0.042 0.357,-0.084 v 0.7035 q -0.147,0.0735 -0.42,0.1155 -0.273,0.0525 -0.525,0.0525 -0.441,0 -0.819,-0.147 -0.3675,-0.1575 -0.5985,-0.5355 -0.231,-0.378 -0.231,-1.0605 v -3.276 h -0.798 v -0.441 l 0.8085,-0.3675 0.3675,-1.197 h 0.546 v 1.2915 h 1.6275 v 0.714 h -1.6275 v 3.255 q 0,0.5145 0.2415,0.7665 0.252,0.2415 0.6405,0.2415 z"
         id="path11483" /><path
         d="m 287.18102,53.366998 q 0.7245,0 1.239,0.315 0.525,0.315 0.798,0.8925 0.2835,0.567 0.2835,1.3335 v 0.5565 h -3.8535 q 0.021,0.9555 0.483,1.4595 0.4725,0.4935 1.3125,0.4935 0.5355,0 0.945,-0.0945 0.42,-0.105 0.861,-0.294 v 0.8085 q -0.4305,0.189 -0.8505,0.273 -0.42,0.0945 -0.9975,0.0945 -0.798,0 -1.4175,-0.3255 -0.609,-0.3255 -0.9555,-0.966 -0.336,-0.651 -0.336,-1.5855 0,-0.924 0.3045,-1.5855 0.315,-0.6615 0.8715,-1.0185 0.567,-0.357 1.3125,-0.357 z m -0.0105,0.756 q -0.6615,0 -1.05,0.4305 -0.378,0.42 -0.4515,1.176 h 2.8665 q -0.0105,-0.714 -0.336,-1.155 -0.3255,-0.4515 -1.029,-0.4515 z"
         id="path11485" /><path
         d="m 293.25002,59.204998 q -1.05,0 -1.68,-0.7245 -0.63,-0.735 -0.63,-2.184 0,-1.449 0.63,-2.184 0.6405,-0.7455 1.6905,-0.7455 0.651,0 1.0605,0.2415 0.42,0.2415 0.6825,0.588 h 0.063 q -0.0105,-0.1365 -0.042,-0.399 -0.021,-0.273 -0.021,-0.4305 v -2.247 h 0.924 v 7.98 h -0.7455 l -0.1365,-0.756 h -0.042 q -0.252,0.357 -0.672,0.609 -0.42,0.252 -1.0815,0.252 z m 0.147,-0.7665 q 0.8925,0 1.2495,-0.483 0.3675,-0.4935 0.3675,-1.4805 v -0.168 q 0,-1.05 -0.3465,-1.6065 -0.3465,-0.567 -1.281,-0.567 -0.7455,0 -1.1235,0.5985 -0.3675,0.588 -0.3675,1.5855 0,1.008 0.3675,1.5645 0.378,0.5565 1.134,0.5565 z"
         id="path11487" /><path
         d="m 304.07551,54.185998 h -1.4175 v 4.914 h -0.924 v -4.914 h -0.987 v -0.4305 l 0.987,-0.315 v -0.3255 q 0,-1.092 0.483,-1.5645 0.483,-0.483 1.344,-0.483 0.336,0 0.609,0.063 0.2835,0.0525 0.483,0.126 l -0.2415,0.7245 q -0.168,-0.0525 -0.3885,-0.105 -0.2205,-0.0525 -0.4515,-0.0525 -0.462,0 -0.693,0.315 -0.2205,0.3045 -0.2205,0.966 v 0.3675 h 1.4175 z"
         id="path11489" /><path
         d="m 307.79249,53.366998 q 0.1575,0 0.336,0.021 0.189,0.0105 0.3255,0.042 l -0.1155,0.8505 q -0.1365,-0.0315 -0.3045,-0.0525 -0.1575,-0.021 -0.3045,-0.021 -0.4305,0 -0.8085,0.2415 -0.378,0.231 -0.609,0.6615 -0.2205,0.42 -0.2205,0.987 v 3.003 h -0.924 v -5.628 h 0.756 l 0.105,1.029 h 0.042 q 0.273,-0.462 0.7035,-0.798 0.4305,-0.336 1.0185,-0.336 z"
         id="path11491" /><path
         d="m 314.53352,56.275498 q 0,1.3965 -0.714,2.163 -0.7035,0.7665 -1.911,0.7665 -0.7455,0 -1.3335,-0.336 -0.5775,-0.3465 -0.9135,-0.9975 -0.336,-0.6615 -0.336,-1.596 0,-1.3965 0.7035,-2.1525 0.7035,-0.756 1.911,-0.756 0.7665,0 1.344,0.3465 0.588,0.336 0.9135,0.987 0.336,0.6405 0.336,1.575 z m -4.2525,0 q 0,0.9975 0.3885,1.5855 0.399,0.5775 1.26,0.5775 0.8505,0 1.2495,-0.5775 0.399,-0.588 0.399,-1.5855 0,-0.9975 -0.399,-1.5645 -0.399,-0.567 -1.26,-0.567 -0.861,0 -1.2495,0.567 -0.3885,0.567 -0.3885,1.5645 z"
         id="path11493" /><path
         d="m 322.17752,53.366998 q 0.9555,0 1.428,0.4935 0.4725,0.483 0.4725,1.575 v 3.6645 h -0.9135 v -3.6225 q 0,-1.3335 -1.1445,-1.3335 -0.819,0 -1.176,0.4725 -0.3465,0.4725 -0.3465,1.3755 v 3.108 h -0.9135 v -3.6225 q 0,-1.3335 -1.155,-1.3335 -0.8505,0 -1.176,0.525 -0.3255,0.525 -0.3255,1.512 v 2.919 h -0.924 v -5.628 h 0.7455 l 0.1365,0.7665 h 0.0525 q 0.2625,-0.441 0.7035,-0.651 0.4515,-0.2205 0.9555,-0.2205 1.323,0 1.722,0.945 h 0.0525 q 0.2835,-0.483 0.7665,-0.714 0.4935,-0.231 1.0395,-0.231 z"
         id="path11495" /><path
         d="m 332.0685,53.366998 q 0.7245,0 1.239,0.315 0.525,0.315 0.798,0.8925 0.2835,0.567 0.2835,1.3335 v 0.5565 h -3.8535 q 0.021,0.9555 0.483,1.4595 0.4725,0.4935 1.3125,0.4935 0.5355,0 0.945,-0.0945 0.42,-0.105 0.861,-0.294 v 0.8085 q -0.4305,0.189 -0.8505,0.273 -0.42,0.0945 -0.9975,0.0945 -0.798,0 -1.4175,-0.3255 -0.609,-0.3255 -0.9555,-0.966 -0.336,-0.651 -0.336,-1.5855 0,-0.924 0.3045,-1.5855 0.315,-0.6615 0.8715,-1.0185 0.567,-0.357 1.3125,-0.357 z m -0.0105,0.756 q -0.6615,0 -1.05,0.4305 -0.378,0.42 -0.4515,1.176 h 2.8665 q -0.0105,-0.714 -0.336,-1.155 -0.3255,-0.4515 -1.029,-0.4515 z"
         id="path11497" /><path
         d="m 338.82003,53.366998 q 1.0395,0 1.6695,0.7245 0.6405,0.7245 0.6405,2.184 0,1.4385 -0.6405,2.184 -0.63,0.7455 -1.68,0.7455 -0.651,0 -1.0815,-0.2415 -0.42,-0.252 -0.6615,-0.5775 h -0.063 q 0.021,0.1785 0.042,0.4515 0.021,0.273 0.021,0.4725 v 2.31 h -0.924 v -8.148 h 0.756 l 0.126,0.7665 h 0.042 q 0.252,-0.3675 0.6615,-0.6195 0.4095,-0.252 1.092,-0.252 z m -0.168,0.777 q -0.861,0 -1.218,0.483 -0.3465,0.483 -0.3675,1.47 v 0.1785 q 0,1.0395 0.336,1.6065 0.3465,0.5565 1.2705,0.5565 0.5145,0 0.84,-0.2835 0.336,-0.2835 0.4935,-0.7665 0.168,-0.4935 0.168,-1.1235 0,-0.966 -0.378,-1.5435 -0.3675,-0.5775 -1.1445,-0.5775 z"
         id="path11499" /><path
         d="m 347.577,56.275498 q 0,1.3965 -0.714,2.163 -0.7035,0.7665 -1.911,0.7665 -0.7455,0 -1.3335,-0.336 -0.5775,-0.3465 -0.9135,-0.9975 -0.336,-0.6615 -0.336,-1.596 0,-1.3965 0.7035,-2.1525 0.7035,-0.756 1.911,-0.756 0.7665,0 1.344,0.3465 0.588,0.336 0.9135,0.987 0.336,0.6405 0.336,1.575 z m -4.2525,0 q 0,0.9975 0.3885,1.5855 0.399,0.5775 1.26,0.5775 0.8505,0 1.2495,-0.5775 0.399,-0.588 0.399,-1.5855 0,-0.9975 -0.399,-1.5645 -0.399,-0.567 -1.26,-0.567 -0.861,0 -1.2495,0.567 -0.3885,0.567 -0.3885,1.5645 z"
         id="path11501" /><path
         d="m 351.30451,59.204998 q -0.7455,0 -1.3335,-0.3045 -0.5775,-0.3045 -0.9135,-0.945 -0.3255,-0.6405 -0.3255,-1.638 0,-1.0395 0.3465,-1.6905 0.3465,-0.651 0.9345,-0.9555 0.5985,-0.3045 1.3545,-0.3045 0.4305,0 0.8295,0.0945 0.399,0.084 0.651,0.21 l -0.2835,0.7665 q -0.252,-0.0945 -0.588,-0.1785 -0.336,-0.084 -0.63,-0.084 -1.659,0 -1.659,2.1315 0,1.0185 0.399,1.5645 0.4095,0.5355 1.2075,0.5355 0.462,0 0.8085,-0.0945 0.357,-0.0945 0.651,-0.231 v 0.819 q -0.2835,0.147 -0.63,0.2205 -0.336,0.084 -0.819,0.084 z"
         id="path11503" /><path
         d="m 355.431,53.461498 q 0,0.42 -0.0525,0.7875 h 0.063 q 0.273,-0.4305 0.735,-0.651 0.4725,-0.2205 1.0185,-0.2205 1.029,0 1.5435,0.4935 0.5145,0.483 0.5145,1.5645 v 3.6645 h -0.9135 v -3.6015 q 0,-1.3545 -1.26,-1.3545 -0.945,0 -1.302,0.5355 -0.3465,0.525 -0.3465,1.512 v 2.9085 h -0.924 v -7.98 h 0.924 z"
         id="path11505" /><path
         d="m 365.301,51.361498 q 0.21,0 0.3675,0.147 0.168,0.1365 0.168,0.441 0,0.294 -0.168,0.441 -0.1575,0.147 -0.3675,0.147 -0.231,0 -0.3885,-0.147 -0.1575,-0.147 -0.1575,-0.441 0,-0.3045 0.1575,-0.441 0.1575,-0.147 0.3885,-0.147 z m 0.4515,2.1105 v 5.628 h -0.924 v -5.628 z"
         id="path11507" /><path
         d="m 370.41452,53.366998 q 1.008,0 1.5225,0.4935 0.5145,0.483 0.5145,1.575 v 3.6645 h -0.9135 v -3.6015 q 0,-1.3545 -1.26,-1.3545 -0.9345,0 -1.2915,0.525 -0.357,0.525 -0.357,1.512 v 2.919 h -0.924 v -5.628 h 0.7455 l 0.1365,0.7665 h 0.0525 q 0.273,-0.441 0.756,-0.651 0.483,-0.2205 1.0185,-0.2205 z"
         id="path11509" /><path
         d="m 376.22101,58.448998 q 0.21,0 0.4305,-0.0315 0.2205,-0.042 0.357,-0.084 v 0.7035 q -0.147,0.0735 -0.42,0.1155 -0.273,0.0525 -0.525,0.0525 -0.441,0 -0.819,-0.147 -0.3675,-0.1575 -0.5985,-0.5355 -0.231,-0.378 -0.231,-1.0605 v -3.276 h -0.798 v -0.441 l 0.8085,-0.3675 0.3675,-1.197 h 0.546 v 1.2915 h 1.6275 v 0.714 h -1.6275 v 3.255 q 0,0.5145 0.2415,0.7665 0.252,0.2415 0.6405,0.2415 z"
         id="path11511" /><path
         d="m 380.65203,53.366998 q 0.7245,0 1.239,0.315 0.525,0.315 0.798,0.8925 0.2835,0.567 0.2835,1.3335 v 0.5565 h -3.8535 q 0.021,0.9555 0.483,1.4595 0.4725,0.4935 1.3125,0.4935 0.5355,0 0.945,-0.0945 0.42,-0.105 0.861,-0.294 v 0.8085 q -0.4305,0.189 -0.8505,0.273 -0.42,0.0945 -0.9975,0.0945 -0.798,0 -1.4175,-0.3255 -0.609,-0.3255 -0.9555,-0.966 -0.336,-0.651 -0.336,-1.5855 0,-0.924 0.3045,-1.5855 0.315,-0.6615 0.8715,-1.0185 0.567,-0.357 1.3125,-0.357 z m -0.0105,0.756 q -0.6615,0 -1.05,0.4305 -0.378,0.42 -0.4515,1.176 h 2.8665 q -0.0105,-0.714 -0.336,-1.155 -0.3255,-0.4515 -1.029,-0.4515 z"
         id="path11513" /><path
         d="m 387.35103,53.366998 q 0.1575,0 0.336,0.021 0.189,0.0105 0.3255,0.042 l -0.1155,0.8505 q -0.1365,-0.0315 -0.3045,-0.0525 -0.1575,-0.021 -0.3045,-0.021 -0.4305,0 -0.8085,0.2415 -0.378,0.231 -0.609,0.6615 -0.2205,0.42 -0.2205,0.987 v 3.003 h -0.924 v -5.628 h 0.756 l 0.105,1.029 h 0.042 q 0.273,-0.462 0.7035,-0.798 0.4305,-0.336 1.0185,-0.336 z"
         id="path11515" /><path
         d="m 390.43802,59.099998 -2.1315,-5.628 h 0.987 l 1.197,3.318 q 0.084,0.231 0.1785,0.5145 0.0945,0.2835 0.168,0.546 0.0735,0.252 0.105,0.4305 h 0.042 q 0.042,-0.1785 0.1155,-0.441 0.084,-0.2625 0.1785,-0.546 0.105,-0.2835 0.1785,-0.504 l 1.197,-3.318 h 0.987 l -2.142,5.628 z"
         id="path11517" /><path
         d="m 397.326,53.377498 q 1.029,0 1.5225,0.4515 0.4935,0.4515 0.4935,1.4385 v 3.8325 h -0.672 l -0.1785,-0.798 h -0.042 q -0.3675,0.462 -0.777,0.6825 -0.399,0.2205 -1.113,0.2205 -0.7665,0 -1.2705,-0.399 -0.504,-0.4095 -0.504,-1.2705 0,-0.84 0.6615,-1.2915 0.6615,-0.462 2.037,-0.504 l 0.9555,-0.0315 v -0.336 q 0,-0.7035 -0.3045,-0.9765 -0.3045,-0.273 -0.861,-0.273 -0.441,0 -0.84,0.1365 -0.399,0.126 -0.7455,0.294 l -0.2835,-0.693 q 0.3675,-0.1995 0.8715,-0.336 0.504,-0.147 1.05,-0.147 z m 0.273,3.003 q -1.05,0.042 -1.4595,0.336 -0.399,0.294 -0.399,0.8295 0,0.4725 0.2835,0.693 0.294,0.2205 0.7455,0.2205 0.714,0 1.1865,-0.3885 0.4725,-0.399 0.4725,-1.218 v -0.504 z"
         id="path11519" /><path
         d="m 402.41852,59.099998 h -0.924 v -7.98 h 0.924 z"
         id="path11521" /><path
         d="m 406.209,56.222998 q 0,1.2705 -0.378,2.4465 -0.3675,1.1655 -1.1655,2.0895 h -0.861 q 0.7245,-0.987 1.092,-2.1525 0.378,-1.176 0.378,-2.394 0,-1.2495 -0.378,-2.436 -0.3675,-1.1865 -1.1025,-2.1735 h 0.8715 q 0.798,0.9555 1.1655,2.1525 0.378,1.1865 0.378,2.4675 z"
         id="path11523" /></g><g
       aria-label="Estimated Annualized Rewards"
       transform="rotate(-90)"
       id="text468"
       style="font-size:7.35px;font-family:CairoFont-4;-inkscape-font-specification:CairoFont-4-0;fill:#444444"><path
         d="m -251.79565,66.449989 h -2.93265 v -5.2479 h 2.93265 v 0.58065 h -2.27115 v 1.63905 h 2.13885 v 0.5733 h -2.13885 v 1.87425 h 2.27115 z"
         id="path11544" /><path
         d="m -247.60615,65.362189 q 0,0.5733 -0.4263,0.8673 -0.4263,0.294 -1.1466,0.294 -0.4116,0 -0.71295,-0.06615 -0.294,-0.06615 -0.52185,-0.18375 v -0.588 q 0.2352,0.1176 0.56595,0.2205 0.3381,0.09555 0.68355,0.09555 0.49245,0 0.71295,-0.15435 0.2205,-0.1617 0.2205,-0.4263 0,-0.147 -0.0808,-0.2646 -0.0808,-0.1176 -0.294,-0.2352 -0.2058,-0.1176 -0.59535,-0.2646 -0.3822,-0.147 -0.65415,-0.294 -0.27195,-0.147 -0.41895,-0.3528 -0.147,-0.2058 -0.147,-0.5292 0,-0.4998 0.40425,-0.77175 0.4116,-0.27195 1.0731,-0.27195 0.36015,0 0.66885,0.0735 0.31605,0.06615 0.588,0.1911 l -0.2205,0.5145 q -0.2499,-0.1029 -0.52185,-0.1764 -0.27195,-0.0735 -0.5586,-0.0735 -0.3969,0 -0.61005,0.1323 -0.2058,0.12495 -0.2058,0.34545 0,0.1617 0.0956,0.2793 0.0956,0.11025 0.31605,0.2205 0.22785,0.1029 0.6027,0.2499 0.37485,0.13965 0.63945,0.28665 0.2646,0.147 0.40425,0.36015 0.13965,0.2058 0.13965,0.52185 z"
         id="path11546" /><path
         d="m -245.03366,65.994289 q 0.147,0 0.30135,-0.02205 0.15435,-0.0294 0.2499,-0.0588 v 0.49245 q -0.1029,0.05145 -0.294,0.08085 -0.1911,0.03675 -0.3675,0.03675 -0.3087,0 -0.5733,-0.1029 -0.25725,-0.11025 -0.41895,-0.37485 -0.1617,-0.2646 -0.1617,-0.74235 v -2.2932 h -0.5586 v -0.3087 l 0.56595,-0.25725 0.25725,-0.8379 h 0.3822 v 0.90405 h 1.13925 v 0.4998 h -1.13925 v 2.2785 q 0,0.36015 0.16905,0.53655 0.1764,0.16905 0.44835,0.16905 z"
         id="path11548" /><path
         d="m -243.12266,61.033039 q 0.147,0 0.25725,0.1029 0.1176,0.09555 0.1176,0.3087 0,0.2058 -0.1176,0.3087 -0.11025,0.1029 -0.25725,0.1029 -0.1617,0 -0.27195,-0.1029 -0.11025,-0.1029 -0.11025,-0.3087 0,-0.21315 0.11025,-0.3087 0.11025,-0.1029 0.27195,-0.1029 z m 0.31605,1.47735 v 3.9396 h -0.6468 v -3.9396 z"
         id="path11550" /><path
         d="m -237.1177,62.436889 q 0.66885,0 0.9996,0.34545 0.33075,0.3381 0.33075,1.1025 v 2.56515 h -0.63945 v -2.53575 q 0,-0.93345 -0.80115,-0.93345 -0.5733,0 -0.8232,0.33075 -0.24255,0.33075 -0.24255,0.96285 v 2.1756 h -0.63945 v -2.53575 q 0,-0.93345 -0.8085,-0.93345 -0.59535,0 -0.8232,0.3675 -0.22785,0.3675 -0.22785,1.0584 v 2.0433 h -0.6468 v -3.9396 h 0.52185 l 0.0956,0.53655 h 0.0368 q 0.18375,-0.3087 0.49245,-0.4557 0.31605,-0.15435 0.66885,-0.15435 0.9261,0 1.2054,0.6615 h 0.0368 q 0.19845,-0.3381 0.53655,-0.4998 0.34545,-0.1617 0.72765,-0.1617 z"
         id="path11552" /><path
         d="m -232.80326,62.444239 q 0.7203,0 1.06575,0.31605 0.34545,0.31605 0.34545,1.00695 v 2.68275 h -0.4704 l -0.12495,-0.5586 h -0.0294 q -0.25725,0.3234 -0.5439,0.47775 -0.2793,0.15435 -0.7791,0.15435 -0.53655,0 -0.88935,-0.2793 -0.3528,-0.28665 -0.3528,-0.88935 0,-0.588 0.46305,-0.90405 0.46305,-0.3234 1.4259,-0.3528 l 0.66885,-0.02205 v -0.2352 q 0,-0.49245 -0.21315,-0.68355 -0.21315,-0.1911 -0.6027,-0.1911 -0.3087,0 -0.588,0.09555 -0.2793,0.0882 -0.52185,0.2058 l -0.19845,-0.4851 q 0.25725,-0.13965 0.61005,-0.2352 0.3528,-0.1029 0.735,-0.1029 z m 0.1911,2.1021 q -0.735,0.0294 -1.02165,0.2352 -0.2793,0.2058 -0.2793,0.58065 0,0.33075 0.19845,0.4851 0.2058,0.15435 0.52185,0.15435 0.4998,0 0.83055,-0.27195 0.33075,-0.2793 0.33075,-0.8526 v -0.3528 z"
         id="path11554" /><path
         d="m -228.56966,65.994289 q 0.147,0 0.30135,-0.02205 0.15435,-0.0294 0.2499,-0.0588 v 0.49245 q -0.1029,0.05145 -0.294,0.08085 -0.1911,0.03675 -0.3675,0.03675 -0.3087,0 -0.5733,-0.1029 -0.25725,-0.11025 -0.41895,-0.37485 -0.1617,-0.2646 -0.1617,-0.74235 v -2.2932 h -0.5586 v -0.3087 l 0.56595,-0.25725 0.25725,-0.8379 h 0.3822 v 0.90405 h 1.13925 v 0.4998 h -1.13925 v 2.2785 q 0,0.36015 0.16905,0.53655 0.1764,0.16905 0.44835,0.16905 z"
         id="path11556" /><path
         d="m -225.46795,62.436889 q 0.50715,0 0.8673,0.2205 0.3675,0.2205 0.5586,0.62475 0.19845,0.3969 0.19845,0.93345 v 0.38955 h -2.69745 q 0.0147,0.66885 0.3381,1.02165 0.33075,0.34545 0.91875,0.34545 0.37485,0 0.6615,-0.06615 0.294,-0.0735 0.6027,-0.2058 v 0.56595 q -0.30135,0.1323 -0.59535,0.1911 -0.294,0.06615 -0.69825,0.06615 -0.5586,0 -0.99225,-0.22785 -0.4263,-0.22785 -0.66885,-0.6762 -0.2352,-0.4557 -0.2352,-1.10985 0,-0.6468 0.21315,-1.10985 0.2205,-0.46305 0.61005,-0.71295 0.3969,-0.2499 0.91875,-0.2499 z m -0.007,0.5292 q -0.46305,0 -0.735,0.30135 -0.2646,0.294 -0.31605,0.8232 h 2.00655 q -0.007,-0.4998 -0.2352,-0.8085 -0.22785,-0.31605 -0.7203,-0.31605 z"
         id="path11558" /><path
         d="m -221.21966,66.523489 q -0.735,0 -1.176,-0.50715 -0.441,-0.5145 -0.441,-1.5288 0,-1.0143 0.441,-1.5288 0.44835,-0.52185 1.18335,-0.52185 0.4557,0 0.74235,0.16905 0.294,0.16905 0.47775,0.4116 h 0.0441 q -0.007,-0.09555 -0.0294,-0.2793 -0.0147,-0.1911 -0.0147,-0.30135 v -1.5729 h 0.6468 v 5.586 h -0.52185 l -0.0956,-0.5292 h -0.0294 q -0.1764,0.2499 -0.4704,0.4263 -0.294,0.1764 -0.75705,0.1764 z m 0.1029,-0.53655 q 0.62475,0 0.87465,-0.3381 0.25725,-0.34545 0.25725,-1.03635 v -0.1176 q 0,-0.735 -0.24255,-1.12455 -0.24255,-0.3969 -0.8967,-0.3969 -0.52185,0 -0.78645,0.41895 -0.25725,0.4116 -0.25725,1.10985 0,0.7056 0.25725,1.09515 0.2646,0.38955 0.7938,0.38955 z"
         id="path11560" /><path
         d="m -212.07625,66.449989 -0.6321,-1.62435 h -2.08005 l -0.62475,1.62435 h -0.66885 l 2.05065,-5.26995 h 0.59535 l 2.0433,5.26995 z m -1.41855,-3.79995 q -0.0221,-0.0588 -0.0735,-0.21315 -0.0515,-0.15435 -0.1029,-0.31605 -0.0441,-0.16905 -0.0735,-0.25725 -0.0515,0.22785 -0.1176,0.44835 -0.0661,0.21315 -0.11025,0.3381 l -0.59535,1.5876 h 1.6611 z"
         id="path11562" /><path
         d="m -208.5409,62.436889 q 0.7056,0 1.06575,0.34545 0.36015,0.3381 0.36015,1.1025 v 2.56515 h -0.63945 v -2.52105 q 0,-0.94815 -0.882,-0.94815 -0.65415,0 -0.90405,0.3675 -0.2499,0.3675 -0.2499,1.0584 v 2.0433 h -0.6468 v -3.9396 h 0.52185 l 0.0956,0.53655 h 0.0367 q 0.1911,-0.3087 0.5292,-0.4557 0.3381,-0.15435 0.71295,-0.15435 z"
         id="path11564" /><path
         d="m -203.8957,62.436889 q 0.7056,0 1.06575,0.34545 0.36015,0.3381 0.36015,1.1025 v 2.56515 h -0.63945 v -2.52105 q 0,-0.94815 -0.882,-0.94815 -0.65415,0 -0.90405,0.3675 -0.2499,0.3675 -0.2499,1.0584 v 2.0433 h -0.6468 v -3.9396 h 0.52185 l 0.0956,0.53655 h 0.0368 q 0.1911,-0.3087 0.5292,-0.4557 0.3381,-0.15435 0.71295,-0.15435 z"
         id="path11566" /><path
         d="m -197.854,62.510389 v 3.9396 h -0.5292 l -0.0956,-0.52185 h -0.0294 q -0.1911,0.3087 -0.5292,0.4557 -0.3381,0.13965 -0.7203,0.13965 -0.71295,0 -1.0731,-0.3381 -0.36015,-0.34545 -0.36015,-1.09515 v -2.57985 h 0.65415 v 2.53575 q 0,0.9408 0.87465,0.9408 0.65415,0 0.90405,-0.3675 0.25725,-0.3675 0.25725,-1.0584 v -2.05065 z"
         id="path11568" /><path
         d="m -195.00956,62.444239 q 0.7203,0 1.06575,0.31605 0.34545,0.31605 0.34545,1.00695 v 2.68275 h -0.4704 l -0.12495,-0.5586 h -0.0294 q -0.25725,0.3234 -0.5439,0.47775 -0.2793,0.15435 -0.7791,0.15435 -0.53655,0 -0.88935,-0.2793 -0.3528,-0.28665 -0.3528,-0.88935 0,-0.588 0.46305,-0.90405 0.46305,-0.3234 1.4259,-0.3528 l 0.66885,-0.02205 v -0.2352 q 0,-0.49245 -0.21315,-0.68355 -0.21315,-0.1911 -0.6027,-0.1911 -0.3087,0 -0.588,0.09555 -0.2793,0.0882 -0.52185,0.2058 l -0.19845,-0.4851 q 0.25725,-0.13965 0.61005,-0.2352 0.3528,-0.1029 0.735,-0.1029 z m 0.1911,2.1021 q -0.735,0.0294 -1.02165,0.2352 -0.2793,0.2058 -0.2793,0.58065 0,0.33075 0.19845,0.4851 0.2058,0.15435 0.52185,0.15435 0.4998,0 0.83055,-0.27195 0.33075,-0.2793 0.33075,-0.8526 v -0.3528 z"
         id="path11570" /><path
         d="m -191.4448,66.449989 h -0.6468 v -5.586 h 0.6468 z"
         id="path11572" /><path
         d="m -189.74695,61.033039 q 0.147,0 0.25725,0.1029 0.1176,0.09555 0.1176,0.3087 0,0.2058 -0.1176,0.3087 -0.11025,0.1029 -0.25725,0.1029 -0.1617,0 -0.27195,-0.1029 -0.11025,-0.1029 -0.11025,-0.3087 0,-0.21315 0.11025,-0.3087 0.11025,-0.1029 0.27195,-0.1029 z m 0.31605,1.47735 v 3.9396 h -0.6468 v -3.9396 z"
         id="path11574" /><path
         d="m -185.5207,66.449989 h -2.8812 v -0.4263 l 2.1168,-3.0135 h -1.99185 v -0.4998 h 2.7048 v 0.4851 l -2.0874,2.9547 h 2.13885 z"
         id="path11576" /><path
         d="m -182.71301,62.436889 q 0.50715,0 0.8673,0.2205 0.3675,0.2205 0.5586,0.62475 0.19845,0.3969 0.19845,0.93345 v 0.38955 h -2.69745 q 0.0147,0.66885 0.3381,1.02165 0.33075,0.34545 0.91875,0.34545 0.37485,0 0.6615,-0.06615 0.294,-0.0735 0.6027,-0.2058 v 0.56595 q -0.30135,0.1323 -0.59535,0.1911 -0.294,0.06615 -0.69825,0.06615 -0.5586,0 -0.99225,-0.22785 -0.4263,-0.22785 -0.66885,-0.6762 -0.2352,-0.4557 -0.2352,-1.10985 0,-0.6468 0.21315,-1.10985 0.2205,-0.46305 0.61005,-0.71295 0.3969,-0.2499 0.91875,-0.2499 z m -0.007,0.5292 q -0.46305,0 -0.735,0.30135 -0.2646,0.294 -0.31605,0.8232 h 2.00655 q -0.007,-0.4998 -0.2352,-0.8085 -0.22785,-0.31605 -0.7203,-0.31605 z"
         id="path11578" /><path
         d="m -178.4647,66.523489 q -0.735,0 -1.176,-0.50715 -0.441,-0.5145 -0.441,-1.5288 0,-1.0143 0.441,-1.5288 0.44835,-0.52185 1.18335,-0.52185 0.4557,0 0.74235,0.16905 0.294,0.16905 0.47775,0.4116 h 0.0441 q -0.007,-0.09555 -0.0294,-0.2793 -0.0147,-0.1911 -0.0147,-0.30135 v -1.5729 h 0.6468 v 5.586 h -0.52185 l -0.0956,-0.5292 h -0.0294 q -0.1764,0.2499 -0.4704,0.4263 -0.294,0.1764 -0.75705,0.1764 z m 0.1029,-0.53655 q 0.62475,0 0.87465,-0.3381 0.25725,-0.34545 0.25725,-1.03635 v -0.1176 q 0,-0.735 -0.24255,-1.12455 -0.24255,-0.3969 -0.8967,-0.3969 -0.52185,0 -0.78645,0.41895 -0.25725,0.4116 -0.25725,1.10985 0,0.7056 0.25725,1.09515 0.2646,0.38955 0.7938,0.38955 z"
         id="path11580" /><path
         d="m -171.16616,61.202089 q 0.97755,0 1.4406,0.37485 0.4704,0.3675 0.4704,1.1172 0,0.41895 -0.15435,0.69825 -0.15435,0.2793 -0.3969,0.44835 -0.2352,0.1617 -0.4998,0.25725 l 1.4406,2.352 h -0.77175 l -1.27155,-2.16825 h -1.0437 v 2.16825 h -0.6615 v -5.2479 z m -0.0368,0.5733 h -0.7497 v 1.94775 h 0.78645 q 0.63945,0 0.93345,-0.2499 0.294,-0.25725 0.294,-0.7497 0,-0.5145 -0.3087,-0.72765 -0.3087,-0.2205 -0.9555,-0.2205 z"
         id="path11582" /><path
         d="m -166.25636,62.436889 q 0.50715,0 0.8673,0.2205 0.3675,0.2205 0.5586,0.62475 0.19845,0.3969 0.19845,0.93345 v 0.38955 h -2.69745 q 0.0147,0.66885 0.3381,1.02165 0.33075,0.34545 0.91875,0.34545 0.37485,0 0.6615,-0.06615 0.294,-0.0735 0.6027,-0.2058 v 0.56595 q -0.30135,0.1323 -0.59535,0.1911 -0.294,0.06615 -0.69825,0.06615 -0.5586,0 -0.99225,-0.22785 -0.4263,-0.22785 -0.66885,-0.6762 -0.2352,-0.4557 -0.2352,-1.10985 0,-0.6468 0.21315,-1.10985 0.2205,-0.46305 0.61005,-0.71295 0.3969,-0.2499 0.91875,-0.2499 z m -0.007,0.5292 q -0.46305,0 -0.735,0.30135 -0.2646,0.294 -0.31605,0.8232 h 2.00655 q -0.007,-0.4998 -0.2352,-0.8085 -0.22785,-0.31605 -0.7203,-0.31605 z"
         id="path11584" /><path
         d="m -160.86145,64.222939 q -0.0956,-0.30135 -0.16905,-0.588 -0.0662,-0.294 -0.1029,-0.4557 h -0.0294 q -0.0294,0.1617 -0.0956,0.4557 -0.0661,0.28665 -0.16905,0.59535 l -0.7056,2.21235 h -0.735 l -1.08045,-3.9396 h 0.66885 l 0.5439,2.1021 q 0.0808,0.31605 0.15435,0.63945 0.0735,0.3234 0.1029,0.53655 h 0.0294 q 0.0294,-0.12495 0.0661,-0.3087 0.0441,-0.18375 0.0956,-0.3822 0.0515,-0.2058 0.1029,-0.3675 l 0.69825,-2.2197 h 0.7056 l 0.6762,2.2197 q 0.0808,0.2499 0.15435,0.5439 0.0808,0.294 0.11025,0.50715 h 0.0294 q 0.022,-0.18375 0.0955,-0.50715 0.0809,-0.3234 0.16905,-0.6615 l 0.55125,-2.1021 h 0.6615 l -1.09515,3.9396 h -0.75705 z"
         id="path11586" /><path
         d="m -155.98105,62.444239 q 0.7203,0 1.06575,0.31605 0.34545,0.31605 0.34545,1.00695 v 2.68275 h -0.4704 l -0.12495,-0.5586 h -0.0294 q -0.25725,0.3234 -0.5439,0.47775 -0.2793,0.15435 -0.7791,0.15435 -0.53655,0 -0.88935,-0.2793 -0.3528,-0.28665 -0.3528,-0.88935 0,-0.588 0.46305,-0.90405 0.46305,-0.3234 1.4259,-0.3528 l 0.66885,-0.02205 v -0.2352 q 0,-0.49245 -0.21315,-0.68355 -0.21315,-0.1911 -0.6027,-0.1911 -0.3087,0 -0.588,0.09555 -0.2793,0.0882 -0.52185,0.2058 l -0.19845,-0.4851 q 0.25725,-0.13965 0.61005,-0.2352 0.3528,-0.1029 0.735,-0.1029 z m 0.1911,2.1021 q -0.735,0.0294 -1.02165,0.2352 -0.2793,0.2058 -0.2793,0.58065 0,0.33075 0.19845,0.4851 0.2058,0.15435 0.52185,0.15435 0.4998,0 0.83055,-0.27195 0.33075,-0.2793 0.33075,-0.8526 v -0.3528 z"
         id="path11588" /><path
         d="m -151.2256,62.436889 q 0.11025,0 0.2352,0.0147 0.1323,0.0074 0.22785,0.0294 l -0.0808,0.59535 q -0.0956,-0.02205 -0.21315,-0.03675 -0.11025,-0.0147 -0.21315,-0.0147 -0.30135,0 -0.56595,0.16905 -0.2646,0.1617 -0.4263,0.46305 -0.15435,0.294 -0.15435,0.6909 v 2.1021 h -0.6468 v -3.9396 h 0.5292 l 0.0735,0.7203 h 0.0294 q 0.1911,-0.3234 0.49245,-0.5586 0.30135,-0.2352 0.71295,-0.2352 z"
         id="path11590" /><path
         d="m -148.5355,66.523489 q -0.735,0 -1.176,-0.50715 -0.441,-0.5145 -0.441,-1.5288 0,-1.0143 0.441,-1.5288 0.44835,-0.52185 1.18335,-0.52185 0.4557,0 0.74235,0.16905 0.294,0.16905 0.47775,0.4116 h 0.0441 q -0.007,-0.09555 -0.0294,-0.2793 -0.0147,-0.1911 -0.0147,-0.30135 v -1.5729 h 0.6468 v 5.586 h -0.52185 l -0.0956,-0.5292 h -0.0294 q -0.1764,0.2499 -0.4704,0.4263 -0.294,0.1764 -0.75705,0.1764 z m 0.1029,-0.53655 q 0.62475,0 0.87465,-0.3381 0.25725,-0.34545 0.25725,-1.03635 v -0.1176 q 0,-0.735 -0.24255,-1.12455 -0.24255,-0.3969 -0.8967,-0.3969 -0.52185,0 -0.78645,0.41895 -0.25725,0.4116 -0.25725,1.10985 0,0.7056 0.25725,1.09515 0.2646,0.38955 0.7938,0.38955 z"
         id="path11592" /><path
         d="m -142.78781,65.362189 q 0,0.5733 -0.4263,0.8673 -0.4263,0.294 -1.1466,0.294 -0.4116,0 -0.71295,-0.06615 -0.294,-0.06615 -0.52185,-0.18375 v -0.588 q 0.2352,0.1176 0.56595,0.2205 0.3381,0.09555 0.68355,0.09555 0.49245,0 0.71295,-0.15435 0.2205,-0.1617 0.2205,-0.4263 0,-0.147 -0.0808,-0.2646 -0.0808,-0.1176 -0.294,-0.2352 -0.2058,-0.1176 -0.59535,-0.2646 -0.3822,-0.147 -0.65415,-0.294 -0.27195,-0.147 -0.41895,-0.3528 -0.147,-0.2058 -0.147,-0.5292 0,-0.4998 0.40425,-0.77175 0.4116,-0.27195 1.0731,-0.27195 0.36015,0 0.66885,0.0735 0.31605,0.06615 0.588,0.1911 l -0.2205,0.5145 q -0.2499,-0.1029 -0.52185,-0.1764 -0.27195,-0.0735 -0.5586,-0.0735 -0.3969,0 -0.61005,0.1323 -0.2058,0.12495 -0.2058,0.34545 0,0.1617 0.0956,0.2793 0.0955,0.11025 0.31605,0.2205 0.22785,0.1029 0.6027,0.2499 0.37485,0.13965 0.63945,0.28665 0.2646,0.147 0.40425,0.36015 0.13965,0.2058 0.13965,0.52185 z"
         id="path11594" /></g></g></svg>
