<svg width="310" height="326" viewBox="0 0 310 326" fill="none" xmlns="http://www.w3.org/2000/svg">
<path d="M356.638 -74.3914C354.003 -74.6594 350.731 -74.9813 346.454 -75.485C346.342 -75.4952 346.237 -75.4959 346.128 -75.4812C343.307 -75.0699 340.726 -74.7076 338.305 -74.372C314.465 -71.0441 307.2 -70.0222 257.974 -47.9978C256.89 -48.499 255.801 -48.9771 254.694 -49.4512C253.631 -50.0045 252.6 -50.42 251.377 -50.816C243.189 -54.0527 234.342 -56.6008 224.625 -58.3636C217.147 -60.7571 216.068 -60.8019 207 -60.6064C203.433 -60.8845 199.773 -61.079 195.991 -61.1724C192.716 -61.1375 189.533 -61.0155 186.417 -60.829C178.334 -61.1227 176.641 -61.0778 170.57 -59.1953C143.87 -55.1565 123.312 -45.1158 105.413 -30.7698C102.133 -28.834 100.543 -27.4399 98.1137 -24.5706C89.8125 -17.0974 82.0192 -8.68272 74.3366 0.497889C74.2912 0.552132 74.2535 0.608202 74.214 0.671966C69.4073 8.93432 65.2722 16.901 61.752 24.6399C60.17 27.434 58.3487 30.5859 56.1973 34.2039C55.8456 34.795 56.0446 35.5656 56.6357 35.9173C56.7419 35.9831 56.8573 36.0105 56.9727 36.038C50.3006 53.4562 46.9786 69.8413 46.7329 86.0384C46.6982 86.1846 46.6653 86.3231 46.6306 86.4693C46.5667 86.7386 46.6119 86.9931 46.7047 87.2184C46.703 87.3968 46.6935 87.5733 46.6918 87.7517C46.6771 93.8034 47.1287 99.8764 48.0064 105.969C47.9823 106.207 48.0081 106.441 48.1123 106.653C48.6393 110.184 49.3103 113.724 50.1425 117.27C43.8195 124.799 25.5032 150.522 25.3279 150.781C25.2448 150.891 25.206 151.02 25.1673 151.149C25.0933 151.221 25.0194 151.293 24.9649 151.386C21.7853 157.108 19.3298 161.459 17.3797 164.913C12.3373 173.848 8.31162 182.792 5.30258 191.744C4.32806 194.65 3.14033 198.18 1.6143 202.621C1.57151 202.733 1.55949 202.852 1.54747 202.971C1.37151 207.066 1.17262 210.197 1.02209 212.713C0.413616 222.566 0.44632 222.736 4.33012 230.819C5.15207 232.526 6.15117 234.616 7.36967 237.255C7.40708 237.337 7.46171 237.415 7.52586 237.487C7.56106 237.544 7.60761 237.587 7.65233 237.639C14.8197 245.38 21.6667 252.313 28.2521 258.534C27.9096 259.087 28.0371 259.816 28.5711 260.203C31.2658 262.135 33.6029 263.828 35.6266 265.3C78.6309 303.667 110.758 311.889 149.643 321.806C161.033 324.706 177.882 325.285 193.43 325.287C193.507 325.305 193.591 325.293 193.672 325.296C193.752 325.299 193.833 325.301 193.909 325.287C199.357 325.28 204.648 325.212 209.467 325.145L214.628 325.078C226.908 324.947 244.394 320.72 258.617 316.684C258.748 316.683 258.87 316.68 259.001 316.678C259.11 316.663 259.161 316.651 259.221 316.641C259.322 316.624 259.418 316.598 259.509 316.555C259.536 316.545 259.561 316.543 259.58 316.531C259.74 316.439 259.889 316.361 260.055 316.278C266.787 314.349 272.698 312.494 276.843 311.194L279.344 310.415C284.057 308.949 299.262 303.619 319.572 290.651C319.633 290.633 319.695 290.615 319.756 290.597C319.819 290.571 319.847 290.553 319.874 290.543C319.992 290.49 320.097 290.426 320.19 290.342C320.238 290.313 320.509 290.06 320.509 290.06C334.473 281.055 350.785 268.429 367.715 251.041C369.333 249.669 370.642 248.298 371.936 246.614C375.878 242.405 379.834 237.964 383.806 233.218C396.531 218.001 409.579 191.222 414.485 181.138L415.399 179.274C416.438 177.156 417.461 174.7 418.449 172.009C418.897 171.904 419.27 171.562 419.384 171.085C419.773 169.275 420.148 167.593 420.497 165.985C422.574 159.464 424.479 152.162 426.145 145.145C428.244 136.305 429.958 127.926 431.146 122.137L431.74 119.222C433.728 109.583 434.626 98.8887 434.497 87.4548C434.564 87.3408 434.624 87.225 434.655 87.0942C434.701 86.9019 434.702 86.6909 434.646 86.4825L434.484 85.8994C434.3 76.5414 433.411 66.6988 431.854 56.5188C432.124 56.3392 432.336 56.0969 432.409 55.7891C432.466 55.5506 432.453 55.2957 432.356 55.0532L431.082 51.7596C429.57 42.9314 427.556 33.8866 425.056 24.7018C425.075 24.69 425.1 24.6878 425.119 24.6761C425.399 24.4906 425.578 24.2161 425.647 23.9237C425.724 23.6006 425.67 23.2464 425.472 22.9476L423.896 20.5495C423.776 20.1308 423.666 19.7063 423.546 19.2877C420.911 10.2579 417.872 1.45733 414.541 -6.93317L414.625 -7.2871C414.765 -7.91213 414.411 -8.5083 413.827 -8.72005C404.553 -31.6156 393.06 -51.3643 381.241 -64.1925C381.115 -64.3118 381.049 -64.3763 380.964 -64.429C378.427 -65.9986 376.43 -67.2774 374.793 -68.3245C367.068 -73.2719 366.897 -73.337 356.631 -74.3606L356.638 -74.3914ZM297.699 -17.2128C298.424 -15.9516 299.048 -14.8523 299.587 -13.9035C299.748 -13.6215 299.897 -13.3585 300.046 -13.0956L294.385 -17.4958L289.376 -24.708C292.197 -22.315 294.968 -19.8121 297.701 -17.2205L297.699 -17.2128ZM302.94 5.89545C304.149 6.93033 304.988 7.64159 305.681 8.00933C305.305 12.0897 304.967 15.2604 304.713 17.5977C304.433 20.1808 304.243 22.0052 304.179 23.3717C302.473 22.2026 302.434 21.8195 301.664 12.3629C301.481 10.1574 301.263 7.48042 300.977 4.2346C301.712 4.8397 302.359 5.39978 302.934 5.88592L302.94 5.89545ZM281.323 60.2004L263.476 73.7133L259.761 66.3938L279.8 57.2051L281.322 60.2081L281.323 60.2004ZM261.424 75.2011L241.038 89.2408L235.049 77.4312L257.479 67.4124L261.426 75.1934L261.424 75.2011ZM238.935 90.6352L216.862 104.591L208.885 88.8635L232.759 78.448L238.935 90.6352ZM100.448 160.419L87.6984 163.487L76.7713 141.938L88.9003 137.65L100.448 160.419ZM85.0457 163.808L76.7253 164.311C76.2589 162.989 75.1011 160.78 72.9073 156.601C71.4121 153.759 69.4104 149.935 66.9147 145.043L74.3662 142.757L85.0515 163.817L85.0457 163.808ZM62.6637 145.968L64.4248 145.671C67.0445 150.828 69.1441 154.822 70.6884 157.765C72.009 160.281 73.1001 162.361 73.757 163.736C73.1223 163.431 72.3316 163.064 71.4295 162.688C68.1424 157.055 65.2129 151.491 62.6542 145.974L62.6637 145.968ZM54.9601 125.973C55.3785 125.512 55.7497 125.112 56.0661 124.773C56.2934 124.534 56.4827 124.319 56.6624 124.11L63.4453 143.293L61.6076 143.604C58.9732 137.687 56.7575 131.821 54.9601 125.973ZM52.7622 118.047C52.809 117.952 52.8482 117.856 52.8719 117.756C52.9761 117.317 52.8381 116.837 52.4737 116.523C52.4543 116.503 52.4235 116.495 52.4023 116.482C51.6259 113.112 50.9894 109.734 50.4892 106.364C51.0733 104.828 51.5238 103.513 51.8906 102.413C52.0129 103.028 52.1419 103.717 52.2827 104.425C52.7078 106.639 53.2884 109.67 54.105 113.522C54.4808 115.293 54.8117 116.672 55.0721 117.766C55.6318 120.11 55.3522 121.88 54.2334 123.078C54.1994 123.118 54.1576 123.157 54.1236 123.198C53.6372 121.481 53.1816 119.772 52.7604 118.054L52.7622 118.047ZM49.1727 86.6828C49.4595 85.4749 49.7299 84.3362 49.9517 83.2997C50.1571 86.8841 50.4464 91.7238 50.9078 98.1323C50.5418 98.6468 50.2335 99.5002 49.8034 100.764C49.3299 96.0833 49.1037 91.3886 49.165 86.681L49.1727 86.6828ZM106.945 -28.7644C108.568 -29.7119 110.624 -30.8084 113.478 -32.3172C114.37 -32.7881 115.357 -33.3176 116.4 -33.8747L107.624 -23.3769L94.8216 -16.5256C95.6818 -17.5811 96.4341 -18.5241 97.1259 -19.3839C98.2091 -20.7279 99.0861 -21.8201 99.8691 -22.7558C102.185 -24.8393 104.543 -26.8313 106.952 -28.7625L106.945 -28.7644ZM186.44 -58.3281C186.73 -58.3162 186.997 -58.3098 187.302 -58.2942C188.269 -58.2596 189.34 -58.2166 190.508 -58.1748C189.989 -58.0057 189.442 -57.8265 188.86 -57.6317C186.875 -56.9733 184.465 -56.1718 181.454 -55.229L166.729 -55.3444C166.932 -55.4101 167.134 -55.4758 167.327 -55.5356C168.779 -56.0035 170.002 -56.3959 171.09 -56.731C175.987 -57.4698 181.104 -58.0022 186.446 -58.3186L186.44 -58.3281ZM231.769 76.1484L207.895 86.564L201.972 69.8203L227.177 63.1752L231.761 76.1466L231.769 76.1484ZM205.594 87.5618L181.282 97.9384L174.148 77.7699L199.559 70.4991L205.6 87.5713L205.594 87.5618ZM178.979 98.9113L155.252 108.809L147.213 86.085L171.751 78.485L178.977 98.919L178.979 98.9113ZM106.513 128.34L90.2689 134.488L81.6267 110.06L97.7103 103.459L106.513 128.34ZM87.9198 135.344L75.7641 139.643L67.636 116.678L79.3275 111.083L87.9121 135.342L87.9198 135.344ZM73.3911 140.428L65.9033 142.73L58.6108 122.134L65.4219 117.924L73.3893 140.436L73.3911 140.428ZM139.779 -41.3517L129.655 -29.2478L111.897 -24.5974L122.223 -36.9377L139.787 -41.3499L139.779 -41.3517ZM228.628 -54.4463L220.242 -54.349C215.663 -55.6394 212.2 -56.6975 209.42 -57.5527C208.883 -57.7209 208.39 -57.8704 207.905 -58.0181C213.556 -57.546 218.94 -56.8444 224.069 -55.9192C224.725 -55.7064 225.42 -55.4844 226.191 -55.2365C226.938 -54.9941 227.752 -54.7275 228.628 -54.4463ZM226.504 60.7722L201.291 67.4154L197.669 50.3568L223.699 47.565L226.504 60.7722ZM97.0084 101.041L80.9593 107.634L75.6801 82.769L91.6278 75.7137L97.0084 101.041ZM78.6216 108.647L66.9836 114.223L62.0276 90.9058L73.3854 84.0122L78.6216 108.647ZM96.7571 -0.135601L91.5734 19.8794L76.2521 27.5142L81.3385 7.87442L96.7571 -0.135601ZM164.192 -42.6417L154.202 -30.6929L133.173 -29.5503L143.808 -42.2644L164.192 -42.6417ZM91.2197 73.154L75.3635 80.1661L73.627 55.9557L89.4452 48.4876L91.212 73.1522L91.2197 73.154ZM91.8902 47.467L111.721 41.1713L113.463 65.4641L93.6676 72.2236L91.892 47.4593L91.8902 47.467ZM113.49 15.8914L111.666 38.5653L91.9586 44.8174L93.8142 21.7038L113.482 15.8895L113.49 15.8914ZM121.793 -7.50369L144.139 -9.7072L139.225 9.27456L116.574 12.6575L121.795 -7.51139L121.793 -7.50369ZM189.377 -38.5224L180.297 -27.6661L157.247 -30.4412L167.404 -42.5781L189.377 -38.5224ZM257.236 -25.7241L249.883 -23.439L234.434 -34.5038C233.384 -35.249 232.566 -35.9145 231.902 -36.4379C231.527 -36.7385 231.188 -36.9896 230.861 -37.2216C232.822 -37.8452 234.419 -38.3762 235.707 -38.8019C238.948 -39.8798 240.878 -40.1015 241.497 -39.4669C241.856 -39.0971 242.295 -38.6516 242.908 -38.116L257.227 -25.7183L257.236 -25.7241ZM116.053 15.2645L138.855 11.8607L137.141 33.2118L114.236 37.9403L116.061 15.2664L116.053 15.2645ZM141.386 11.6082L166.334 10.8355L164.809 29.8904L139.678 32.8307L141.386 11.6082ZM146.76 -9.82452L171.116 -8.64918L166.721 8.31825L141.862 9.08801L146.76 -9.82452ZM247.472 -22.0851L240.742 -17.498L222.525 -27.993C221.588 -28.5324 220.838 -29.0357 220.243 -29.4372C219.843 -29.7029 219.481 -29.9269 219.145 -30.1204C220.703 -31.2053 222.004 -32.1318 223.092 -32.9138C225.58 -34.6964 227.079 -35.7709 227.894 -35.9187C228.378 -36.0069 228.817 -35.6995 230.343 -34.4919C231.027 -33.9475 231.88 -33.2652 232.985 -32.4746L247.482 -22.091L247.472 -22.0851ZM279.266 32.0694L287.244 38.4178L278.823 33.8009L279.274 32.0712L279.266 32.0694ZM173.631 -8.39313L198.946 -3.82838L195.285 10.3223L169.279 8.39733L173.624 -8.39496L173.631 -8.39313ZM209.416 -19.3371C210.874 -21.0959 212.065 -22.585 213.042 -23.7915C215.097 -26.3515 216.341 -27.893 217.035 -28.2484C217.275 -28.3701 217.545 -28.241 218.848 -27.3626C219.478 -26.9366 220.263 -26.4088 221.279 -25.8262L238.888 -15.6789L233.169 -8.84427L209.424 -19.3352L209.416 -19.3371ZM229.796 3.09914L234.033 -5.53431L256.843 8.48159C255.75 10.2783 254.812 12.0713 254.003 13.8705L229.787 3.10502L229.796 3.09914ZM258.864 10.0017L278.876 26.3524L278.011 28.1139L256.257 15.056C257.001 13.3631 257.861 11.69 258.871 10.0036L258.864 10.0017ZM280.763 28.1983L287.316 35.2733L280.105 29.5296L280.764 28.1906L280.763 28.1983ZM282.104 25.9728L282.9 25.0159L288.043 32.3818L282.106 25.9651L282.104 25.9728ZM281.321 23.0072L280.275 24.2625L260.221 7.87773C261.141 6.5031 262.151 5.12549 263.268 3.74085L281.328 23.009L281.321 23.0072ZM261.437 2.03817C260.262 3.4983 259.18 4.94006 258.205 6.37479L235.408 -7.62978L240.97 -14.2822L261.437 2.03817ZM231.823 -6.70121L227.449 2.20049L202.271 -5.57481L207.995 -17.22L231.828 -6.69169L231.823 -6.70121ZM201.382 -3.23383L226.589 4.55646L223.83 15.2152L197.792 10.6494L201.382 -3.23383ZM226.273 15.779L228.944 5.45694L253.048 16.1796C252.226 18.3414 251.615 20.5371 251.158 22.7694L226.273 15.779ZM255.303 17.3977L277.092 30.4801L276.506 32.7389L253.579 23.5636C253.995 21.468 254.562 19.4243 255.303 17.3977ZM284.744 23.2755L285.646 22.6606L289.505 30.0955L284.744 23.2755ZM284.332 20.5279L283.169 21.3166L265.115 2.05795C266.561 1.10099 267.896 0.271958 269.132 -0.417831L284.326 20.5184L284.332 20.5279ZM267.496 -2.35875C266.188 -1.60481 264.784 -0.726997 263.258 0.29229L242.901 -15.945L249.504 -20.4404L267.504 -2.35692L267.496 -2.35875ZM214.529 -29.4041C213.627 -28.513 212.555 -27.1826 211.098 -25.3586C210.013 -24.0069 208.654 -22.3222 206.959 -20.2862L183.03 -27.0252L192.11 -37.8815L214.539 -29.41L214.529 -29.4041ZM205.61 -18.0626L199.791 -6.22062L174.562 -10.773L181.483 -24.8567L205.61 -18.0626ZM168.844 10.8787L194.891 12.8051L193.612 28.6999L167.332 29.7013L168.846 10.871L168.844 10.8787ZM197.377 13.119L223.415 17.6848L222.446 29.7034L196.121 28.7105L197.377 13.119ZM225.878 18.2618L250.725 25.2431C250.361 27.7006 250.193 30.221 250.192 32.8296L224.938 29.8887L225.871 18.26L225.878 18.2618ZM253.164 26.0985L276.039 35.2532L275.818 37.9642L252.713 33.2332C252.703 30.7763 252.842 28.4116 253.162 26.1062L253.164 26.0985ZM278.451 36.4599L287.735 41.55L278.281 38.5814L278.451 36.4599ZM287.973 21.7259C288.327 21.6718 288.65 21.6104 288.972 21.5241L291.592 28.6974L287.979 21.7354L287.973 21.7259ZM287.889 19.2027C287.805 19.2152 287.721 19.2277 287.654 19.2362C287.351 19.2781 287.005 19.334 286.628 19.4151L271.405 -1.56872C272.874 -2.24399 274.265 -2.72653 275.644 -3.02481C278.694 2.4785 281.099 6.7235 282.937 9.97207C285.668 14.7982 287.46 17.9629 287.897 19.2045L287.889 19.2027ZM269.805 -3.5906L252.002 -21.4808L259.312 -23.752L274.062 -5.22914C272.688 -4.84844 271.292 -4.31023 269.803 -3.58292L269.805 -3.5906ZM225.311 -37.4667C224.336 -36.8855 223.17 -36.0489 221.624 -34.9449C220.281 -33.9796 218.598 -32.7782 216.492 -31.3358L194.408 -39.6848L205.086 -46.9674L225.313 -37.4744L225.311 -37.4667ZM155.543 -28.1232L178.925 -25.3098L171.955 -11.1238L147.768 -12.2916L155.545 -28.1309L155.543 -28.1232ZM114.18 40.5035L137.171 35.7548L138.805 58.5835L115.919 64.7388L114.18 40.5035ZM139.649 35.3514L164.821 32.4048L166.278 52.7613L141.273 58.0153L139.649 35.3514ZM167.314 32.2084L193.61 31.203L194.824 48.2019L168.751 52.3081L167.316 32.2007L167.314 32.2084ZM196.119 31.2136L222.43 32.2028L223.353 45.0851L197.314 47.8828L196.119 31.2136ZM224.956 32.4127L250.243 35.3532C250.346 37.9624 250.589 40.6698 250.974 43.5001L225.848 44.8811L224.956 32.4127ZM252.78 35.7931L275.775 40.5061L275.996 43.5494L253.497 43.4492C253.138 40.7873 252.887 38.2488 252.78 35.7931ZM278.339 41.2123L288.571 44.4306L278.517 43.6442L278.346 41.2141L278.339 41.2123ZM291.43 20.9618L292.488 20.9532L294.126 28.3644L291.422 20.96L291.43 20.9618ZM291.642 18.4601L290.28 18.4781C289.746 16.9289 288.245 14.2805 285.107 8.73991C283.365 5.66859 281.121 1.70558 278.296 -3.37841C279.772 -3.46684 281.319 -3.37583 283.018 -3.13506C285.21 2.35153 286.846 6.61714 288.059 9.75801C289.753 14.1591 290.776 16.7997 291.64 18.4678L291.642 18.4601ZM281.516 -5.84862C279.859 -5.99014 278.321 -5.98153 276.822 -5.79308L262.334 -23.9853L270.026 -24.0686L281.516 -5.84862ZM267.778 -26.5451L260.216 -26.4633L244.556 -40.0248C244.393 -40.161 244.276 -40.2862 244.135 -40.4092L254.207 -40.5207L267.778 -26.5451ZM237.479 -42.0222C236.759 -41.795 235.922 -41.5223 234.917 -41.1921C233.215 -40.6291 230.964 -39.8794 228.023 -38.9603L208.417 -48.1595L219.941 -51.7465L237.472 -42.024L237.479 -42.0222ZM201.928 -47.8392L191.435 -40.6834L170.132 -44.6205L181.895 -52.6371L201.936 -47.8374L201.928 -47.8392ZM131.161 -26.9314L152.743 -28.1054L144.983 -12.3027L122.913 -10.1313L131.161 -26.9314ZM113.849 13.1807L94.4086 18.9271L99.7041 -1.52463L119.044 -6.8804L113.849 13.1807ZM91.2155 22.8585L89.3802 45.7493L73.7451 53.1309L75.5528 30.6643L91.2232 22.8604L91.2155 22.8585ZM71.1242 54.5161L60.3282 62.364C60.6526 60.2791 60.8367 57.5187 61.1111 53.3168C61.3075 50.2993 61.5529 46.5619 61.9318 41.7834L72.8707 32.7177L71.1242 54.5161ZM60.1077 65.6196L71.2384 57.5261L72.9435 81.3552L61.719 88.1667L60.1 65.6178L60.1077 65.6196ZM93.9816 74.769L113.84 67.9839L119.123 92.8658L99.3626 100.129L93.9739 74.7672L93.9816 74.769ZM116.242 67.2458L139.171 61.0841L144.133 84.4431L121.505 92.0417L116.24 67.2535L116.242 67.2458ZM141.609 60.501L166.639 55.2447L171.065 76.0705L146.535 83.6724L141.609 60.501ZM169.104 54.7898L195.187 50.6777L198.884 68.0711L173.481 75.3438L169.114 54.7839L169.104 54.7898ZM226.217 47.3664L251.333 45.9913C251.751 48.6832 252.28 51.483 252.891 54.4239L228.933 60.1623L226.217 47.3664ZM253.87 45.9517L276.328 46.0504L277.009 49.2763L255.337 53.8751C254.764 51.1218 254.269 48.4846 253.87 45.9517ZM278.913 46.1848L289.534 47.0163L279.47 48.8041L278.912 46.1925L278.913 46.1848ZM295.17 21.4681C295.401 21.5229 295.647 21.5814 295.916 21.6453C296.04 21.6745 296.178 21.7074 296.318 21.7326L296.88 29.1892L295.176 21.4776L295.17 21.4681ZM295.711 19.02C294.135 18.5726 293.731 17.5339 290.395 8.85766C289.288 5.98598 287.832 2.19392 285.92 -2.62467C287.347 -2.33465 288.893 -1.96741 290.611 -1.53507C291.972 3.89231 292.965 8.06195 293.698 11.1375C294.606 14.9457 295.181 17.3825 295.717 19.0295L295.711 19.02ZM289.294 -4.4407C287.647 -4.83169 286.147 -5.15535 284.75 -5.39776L273.43 -23.3416L281.133 -21.3824C281.133 -21.3824 281.168 -21.3252 281.18 -21.3062C281.258 -21.1901 281.356 -21.0532 281.432 -20.8968C283.354 -16.905 284.818 -13.7614 285.975 -11.2758C287.439 -8.13215 288.441 -5.98425 289.294 -4.4407ZM271.356 -26.4512L258.712 -39.4672L268.293 -37.0296C268.872 -36.0793 270.157 -34.5792 272.52 -31.8317C274.125 -29.9634 276.182 -27.5729 278.677 -24.591L271.364 -26.4494L271.356 -26.4512ZM250.467 -42.9776L241.102 -42.8687L224.82 -51.8963L236.116 -52.0261L250.467 -42.9776ZM208.691 -55.1657C210.645 -54.5635 212.949 -53.8619 215.715 -53.0507L204.921 -49.6968L186.294 -54.1527C187.536 -54.5567 188.648 -54.9266 189.645 -55.2587C195.624 -57.2526 201.972 -57.2191 208.689 -55.158L208.691 -55.1657ZM166.519 -45.1858L147.383 -44.829L159.233 -52.9061L177.633 -52.7632L166.519 -45.1858ZM142.694 -44.6584L127.93 -40.9468C128.467 -41.3234 128.982 -41.6805 129.469 -42.02C135.238 -46.0522 141.523 -48.8432 148.322 -50.3929C149.57 -50.6819 150.97 -50.9996 152.535 -51.3595L142.694 -44.6584ZM128.037 -26.2346L119.929 -9.7181L101.025 -4.4864L109.3 -21.329L128.037 -26.2346ZM97.7325 -3.4558L83.0668 4.15595L90.776 -11.5368L105.588 -19.4553L97.7325 -3.4558ZM79.2517 6.25724L70.1158 14.5075C71.6719 11.4797 72.7275 9.25948 73.5528 7.52921C75.2758 3.90158 78.7863 -0.385265 84.0843 -5.33134C84.5852 -5.7976 85.1183 -6.29686 85.6817 -6.82141L79.2594 6.25906L79.2517 6.25724ZM67.411 20.3187L78.0082 10.741L73.2466 29.1495L62.906 37.7151L67.4128 20.311L67.411 20.3187ZM58.6138 53.1545C58.1128 60.8545 56.3799 66.509 53.4151 70.1181C53.0256 70.5945 52.5794 71.1388 52.1105 71.7101C52.3085 68.9937 52.4486 66.7268 52.5753 64.79C53.0015 58.0206 54.7654 52.3382 57.8669 47.7429C58.2457 47.1745 58.6718 46.5442 59.1205 45.8867C58.9141 48.7068 58.7602 51.1005 58.6215 53.1564L58.6138 53.1545ZM51.9211 75.9647C53.2758 74.2301 54.4197 72.8356 55.3462 71.7064C56.3617 70.4764 57.1575 69.4869 57.8086 68.593L59.3294 89.8099L53.238 95.6784C52.8585 90.1915 52.6091 85.9708 52.4237 82.7814C52.2138 79.1472 52.0957 77.1116 51.9134 75.9629L51.9211 75.9647ZM53.6028 98.7967L59.863 92.7651L64.679 115.439L58.0279 119.557C57.9147 118.905 57.7388 118.139 57.503 117.181C57.2467 116.104 56.918 114.75 56.5521 113.005C55.7377 109.179 55.163 106.157 54.736 103.951C54.2289 101.294 53.9265 99.727 53.601 98.8044L53.6028 98.7967ZM100.04 102.55L119.817 95.2821L128.461 119.702L108.848 127.44L100.04 102.55ZM122.186 94.4465L144.823 86.8421L152.929 109.761L130.788 118.768L122.186 94.4465ZM229.621 62.569L253.562 56.8346L256.495 65.1224L234.066 75.1334L229.621 62.569ZM256.024 56.2895L277.686 51.6965L278.817 54.9074L258.78 64.0884L256.024 56.2895ZM280.166 51.2126L290.485 49.3796L281.089 53.8294L280.16 51.2031L280.166 51.2126ZM298.918 22.9352C299.072 23.0043 299.233 23.083 299.402 23.1558C299.63 23.2586 299.888 23.3687 300.166 23.4997L299.52 30.9782L298.918 22.9352ZM296.121 10.5507C295.485 7.88828 294.657 4.39184 293.56 -0.0220772C294.087 0.257481 294.679 0.536282 295.383 0.857863C296.175 1.21676 297.134 1.66384 298.282 2.23719C298.666 6.50609 298.942 9.89587 299.166 12.5824C299.478 16.4359 299.688 18.9403 299.96 20.671C298.343 19.9133 298.174 19.2229 296.119 10.5584L296.121 10.5507ZM296.428 -1.42167C293.803 -2.61946 291.077 -6.25773 288.251 -12.3365C287.318 -14.3299 286.2 -16.7411 284.801 -19.6822C285.033 -19.5622 285.272 -19.4404 285.525 -19.3072C287.146 -18.4671 289.389 -17.3005 292.449 -15.7448L297.361 -1.00496C297.032 -1.15643 296.725 -1.30241 296.438 -1.42752L296.428 -1.42167ZM286.671 -21.5303C284.797 -22.5036 283.652 -23.0924 282.906 -23.4077C279.341 -27.733 276.504 -31.0484 274.421 -33.4692C273.987 -33.9705 273.573 -34.4509 273.186 -34.9085C273.286 -34.8522 273.394 -34.794 273.495 -34.7376C275.781 -33.4796 278.883 -31.7593 282.841 -29.7385L289.575 -20.036C288.438 -20.6229 287.475 -21.1198 286.665 -21.5399L286.671 -21.5303ZM253.765 -47.1117C255.614 -46.1362 257.631 -44.7062 261.2 -42.1762C261.722 -41.8084 262.285 -41.4065 262.885 -40.9878L255.228 -42.9361L243.67 -50.2242L244.293 -50.0762C246.963 -49.4422 248.809 -49.0037 250.321 -48.5229C251.481 -48.0686 252.628 -47.5931 253.765 -47.1117ZM62.5291 29.2053L59.5669 40.6528C58.3218 42.576 57.2662 44.146 56.3615 45.4917C58.1049 40.135 60.1564 34.7133 62.5309 29.1976L62.5291 29.2053ZM91.2589 136.787L107.494 130.645L119.346 154.015L102.897 159.724L91.2589 136.787ZM109.838 129.739L129.449 122.01L141.093 144.956L121.71 153.13L109.846 129.741L109.838 129.739ZM131.778 121.067L153.919 112.061L164.842 133.592L143.371 143.92L131.778 121.067ZM156.235 111.107L179.961 101.209C181.98 105.2 183.534 108.308 184.784 110.815C187.092 115.435 188.387 118.027 189.744 120.389L167.077 132.465L156.242 111.109L156.235 111.107ZM187.024 109.697C185.79 107.226 184.26 104.156 182.272 100.238L206.584 89.8613L214.722 105.904L191.927 119.168C190.58 116.833 189.303 114.27 187.024 109.697ZM282.075 56.1444L292.123 51.378C291.741 51.6856 291.34 52.0049 290.917 52.3513C288.897 53.9768 286.435 55.9605 283.324 58.5866L282.085 56.1385L282.075 56.1444ZM302.525 25.2709C302.67 25.3785 302.825 25.4803 302.993 25.5934C303.26 25.7705 303.559 25.9799 303.884 26.2196C302.997 29.3738 302.313 31.9828 301.746 34.1972L302.517 25.2691L302.525 25.2709ZM304.569 3.99839C303.509 3.08834 302.205 1.97401 300.54 0.668327L295.95 -13.1009L303.237 -7.4367C303.884 -3.65809 304.471 -0.690139 304.91 1.50278C305.163 2.76571 305.389 3.93306 305.542 4.83083C305.23 4.56982 304.893 4.27844 304.561 3.99657L304.569 3.99839ZM339.084 55.7999C339.687 55.1061 340.31 54.4005 340.938 53.6719L345.079 58.1419L324.559 93.1438L315.256 83.0997C315.489 82.838 315.745 82.5491 316.057 82.1925C316.67 81.4929 317.541 80.4966 318.722 79.1515C325.969 71.3226 332.774 63.5103 339.093 55.794L339.084 55.7999ZM383.893 -19.3315L386.466 -26.8482L394.364 -15.3738L382.945 -0.521325L379.271 -5.85613L382.182 -14.3492C382.781 -16.0193 383.335 -17.6677 383.893 -19.3315ZM387.791 -39.3754C387.942 -41.8266 388.057 -43.6769 388.077 -45.2001C391.227 -40.5995 393.629 -37.022 395.468 -34.2932C397.684 -30.9954 398.939 -29.1286 399.755 -28.114L395.636 -17.9571L387.303 -30.0632C387.432 -31.1867 387.512 -33.102 387.655 -36.4737L387.742 -38.4848C387.758 -38.79 387.779 -39.0856 387.799 -39.3736L387.791 -39.3754ZM430.998 108.041C430.735 106.548 430.412 104.862 430.036 102.887C429.481 99.9835 428.801 96.4488 428.014 92.0274L429.29 76.1806L431.996 86.2433C432.135 93.8756 431.809 101.17 431.006 108.042L430.998 108.041ZM394.578 208.255C393.356 209.672 391.953 211.297 390.376 213.15L399.135 184.239L410.487 170.663C409.451 174.92 408.641 178.433 407.957 181.416C405.573 191.731 401.113 200.677 394.578 208.255ZM366.036 249.179C363.683 251.181 360.628 253.194 355.8 256.38C354.104 257.497 352.167 258.776 349.963 260.252L366.887 234.093L383.432 222.815C381.043 226.848 379.103 230.191 377.455 233.026C374.079 238.857 372.043 242.364 369.99 245.022C368.662 246.438 367.343 247.815 366.03 249.169L366.036 249.179ZM318.551 288.344C313.418 289.937 309.3 291.194 305.902 292.224C301.523 293.549 298.333 294.523 295.695 295.4L319.054 274.28L340.783 267.525L318.934 288.101C318.801 288.184 318.677 288.26 318.551 288.344ZM258.258 314.193C251.894 314.259 247.051 314.255 243.142 314.253C238.495 314.247 235.228 314.243 232.435 314.368C236.965 311.925 240.637 309.879 243.745 308.154C254.033 302.437 264.887 299.604 276.307 299.656C278.882 299.665 281.893 299.682 285.391 299.667C282.547 301.105 279.143 302.979 274.122 305.744C270.251 307.873 265.398 310.549 259.101 313.963C258.822 314.043 258.535 314.121 258.256 314.201L258.258 314.193ZM227.225 161.102C230.003 159.022 232.761 156.922 235.5 154.801C241.015 150.64 243.927 148.438 245.448 147.272C245.737 147.048 245.993 146.857 246.225 146.668L265.343 167.301L233.531 197.662L210.97 173.318C215.793 169.676 219.992 166.504 223.616 163.772C224.818 162.887 226.018 162.01 227.215 161.107L227.225 161.102ZM274.99 121.987L281.552 116.328L296.246 132.18L267.077 165.477L248.178 145.083L255.659 138.635C262.241 133.167 268.69 127.603 274.984 121.978L274.99 121.987ZM309.062 89.3338L313.531 84.925L323.171 95.3258L297.822 130.197L283.394 114.628C283.722 114.308 284.113 113.929 284.589 113.465C285.563 112.51 286.993 111.11 289.054 109.071C295.981 102.524 302.668 95.927 309.071 89.3279L309.062 89.3338ZM427.338 69.2718L425.852 87.7834L414.804 67.36L415.807 54.8865L427.344 69.2813L427.338 69.2718ZM381.478 193.392L387.61 155.452L399.354 147.448L396.81 182.939L381.478 193.392ZM386.353 217.803L368.519 229.961L380.813 196.875L395.788 186.662L386.353 217.803ZM290.068 297.12C284.495 297.178 279.972 297.161 276.318 297.147C270.074 297.119 266.004 297.111 262.643 297.508L289.432 274.748L315.126 274.461L290.059 297.126L290.068 297.12ZM45.1422 248.606C51.4303 247.693 56.0756 247.024 59.4858 246.526C64.2575 245.838 66.8252 245.464 68.22 245.17L94.8043 273.858L70.1877 275.629L45.1422 248.606ZM136.365 218.876L171.049 199.56L196.431 226.947L163.312 247.952L136.359 218.867L136.365 218.876ZM173.218 198.23L208.923 174.783L231.653 199.305L198.502 225.512L173.218 198.23ZM268.925 167.176L298.103 133.872L313.931 146.181L289.315 183.031L268.925 167.176ZM391.211 36.5127L390.808 41.5294L372.827 27.9532L391.209 36.5205L391.211 36.5127ZM425.423 92.2575L421.122 108.865L411.104 81.9811L413.942 71.0242L425.431 92.2594L425.423 92.2575ZM402.283 94.1424L396.153 101.473L384.154 62.7395L386.583 59.8375L402.293 94.1366L402.283 94.1424ZM394.169 103.53L386.663 108.648L379.098 66.4724L382.065 64.454L394.177 103.531L394.169 103.53ZM399.455 144.351L387.681 152.381L387.036 111.426L394.658 106.23L399.463 144.352L399.455 144.351ZM378.667 195.097L360.772 200.666L371.161 160.788L384.903 156.516L378.667 195.097ZM340.725 239.568L317.172 239.835L337.183 204.03C342.34 203.978 346.338 203.984 349.278 203.992C352.982 204.002 355.395 204.006 357.016 203.854L340.723 239.575L340.725 239.568ZM100.193 275.431C108.009 273.15 113.803 271.478 118.051 270.259C124.313 268.463 127.289 267.601 128.735 267.026L158.119 289.877L128.982 297.816L100.201 275.433L100.193 275.431ZM165.276 249.678L198.297 228.739L225.672 250.024L194.345 272.284L165.276 249.678ZM200.394 227.197L233.494 201.034L258.021 220.107L227.694 248.424L200.394 227.197ZM390.297 25.5426L370.837 22.0269L389.052 19.6957L390.289 25.5408L390.297 25.5426ZM388.463 51.4736L386.714 55.0408L372.921 34.7458L388.461 51.4813L388.463 51.4736ZM385.323 57.4414L383.029 60.1883L371.844 37.6031L385.323 57.4414ZM381.15 62.0423L378.376 63.9357L370.055 39.6248L381.15 62.0423ZM358.027 201.103C357.631 201.505 354.309 201.496 349.279 201.489C346.542 201.481 342.902 201.478 338.251 201.52L353.284 161.248L368.5 161.074L358.353 200.002L358.279 200.318C358.203 200.601 358.093 201.03 358.027 201.103ZM196.722 273.669L227.875 251.531L256.049 265.926L226.651 288.961L196.722 273.669ZM229.927 249.767L260.161 221.534L285.443 234.454L258.086 264.159L229.927 249.767ZM304.045 237.132C300.507 236.186 295.768 234.923 289.515 233.324L313.555 198.248L334.562 203.602L314.932 238.726L314.832 238.905C314.716 239.122 314.547 239.423 314.486 239.473C313.882 239.761 310.181 238.776 304.053 237.134L304.045 237.132ZM360.835 115.315L351.465 158.468L335.64 154.433L350.427 112.665L360.827 115.313L360.835 115.315ZM350.757 160.868L335.672 201.289L314.841 195.985L334.67 156.771L350.757 160.868ZM368.99 158.565L353.97 158.737L363.325 115.646L373.136 115.538L368.99 158.565ZM366.938 66.4782L365.166 40.4633L370.466 66.4383L366.945 66.48L366.938 66.4782ZM366.927 68.9871L370.799 68.9394L373.197 113.025L363.661 113.134L366.929 68.9794L366.927 68.9871ZM373.29 68.58L376.74 67.5054L384.342 109.901L375.679 112.598L373.288 68.5877L373.29 68.58ZM376.12 65.0825L372.935 66.0735L367.74 40.6112L376.12 65.0825ZM364.401 66.1034L360.631 65.143L362.573 39.3028L364.401 66.1034ZM364.444 68.6981L361.183 112.822L351.119 110.261L360.257 67.639L364.442 68.7058L364.444 68.6981ZM333.306 153.546L317.301 145.372L337.499 106.385L348.09 111.793L333.304 153.553L333.306 153.546ZM332.327 155.857L312.467 195.129L291.426 184.377L316.032 147.534L332.327 155.857ZM311.185 197.279L287.067 232.475L261.915 219.626L289.917 186.417L311.185 197.279ZM191.974 273.607L161.012 288.955L131.415 265.939L162.94 251.025L191.969 273.597L191.974 273.607ZM163.648 290.451L194.307 275.25L224.054 290.449L193.982 305.952L163.656 290.452L163.648 290.451ZM229.567 289.857L258.654 267.073L286.321 274.123L258.973 297.352L229.575 289.859L229.567 289.857ZM260.704 265.008L287.897 235.484C294.632 237.205 299.693 238.553 303.406 239.549C308.092 240.8 310.959 241.562 312.823 241.858L288.51 272.091L260.712 265.01L260.704 265.008ZM385.197 153.807L371.55 158.052L375.676 115.215L384.539 112.459L385.189 153.805L385.197 153.807ZM388.276 57.533L390.117 53.7845L408.356 82.1249L403.791 91.4201L388.276 57.533ZM412.139 67.9708L409.293 78.9662L391.314 51.0371L392.501 46.4503L412.139 67.9708ZM390.445 44.3935L389.319 48.7264L373.215 31.3857L390.437 44.3917L390.445 44.3935ZM371.926 24.7645L390.731 28.1652L391.128 33.7133L371.926 24.7645ZM392.988 26.1572L391.578 19.499L408.941 18.7373L411.922 32.7749L392.995 26.159L392.988 26.1572ZM410.865 16.317L405.467 1.0555L412.231 -3.36894L419.669 17.6763L410.865 16.317ZM408.194 16.268L390.914 17.0249L388.536 10.2995L403.274 2.34737L408.194 16.268ZM388.344 17.2682L369.828 19.6335L386.288 11.4481L388.344 17.2682ZM358.198 64.1264L354.292 62.126L360.213 37.3283L358.2 64.1187L358.198 64.1264ZM357.878 66.7733L348.761 109.311L338.541 104.088L353.523 64.5442L357.886 66.7751L357.878 66.7733ZM315.196 144.003L299.665 131.919L325.048 97.0068L335.387 105.046L315.206 143.997L315.196 144.003ZM287.806 185.038L259.761 218.293L235.398 199.349L267.189 169.007L287.812 185.047L287.806 185.038ZM161.023 249.172L129.399 264.127C129.399 264.127 129.35 264.092 129.337 264.08C129.259 264.029 129.147 263.954 129.114 263.922L101.836 234.491L134.05 220.066L161.023 249.172ZM126.788 265.092C125.16 265.616 122.071 266.508 117.361 267.86C112.825 269.165 106.536 270.971 97.8882 273.502L71.0125 244.5C79.1968 241.9 85.1206 240.023 89.3648 238.682C94.9179 236.929 97.7937 236.01 99.2964 235.432L126.788 265.092ZM69.133 278.085L93.194 296.795C91.1078 296.202 89.2546 295.688 87.592 295.229C78.0868 292.587 69.094 287.867 60.6137 281.068C58.1894 279.127 55.3351 276.84 51.8636 274.106L69.133 278.085ZM73.0211 277.935L97.1088 276.202L125.148 298.01L99.4962 298.527L73.0211 277.935ZM132.156 299.545L160.727 291.764L190.64 307.052C187.034 307.553 182.667 308.727 175.792 310.606C171.951 311.652 167.19 312.944 161.328 314.461L132.154 299.552L132.156 299.545ZM210.949 310.144C204.806 308.425 200.924 307.349 197.484 306.946L226.935 291.768L255.882 299.145C252.487 300.436 248.679 302.539 242.518 305.961C238.502 308.193 233.509 310.974 226.943 314.462C220.199 312.739 215.071 311.302 210.949 310.144ZM317.776 271.929L291.607 272.225L315.631 242.354L339.086 242.088L317.776 271.929ZM359.899 203.556L377.723 198.011L365.024 232.187L343.83 238.777L359.901 203.548L359.899 203.556ZM396.948 104.425L403.113 97.0462L411.201 130.551L401.669 141.942L396.942 104.416L396.948 104.425ZM405.07 94.4873L409.631 85.2075L419.972 112.957L412.969 127.216L405.07 94.4873ZM422.598 113.125L426.537 97.9026C426.915 99.9428 427.266 101.749 427.574 103.359C429.267 112.181 428.926 120.848 426.553 129.361C426.023 131.251 425.429 133.41 424.749 135.898L422.598 113.125ZM413.501 52.2419L412.505 64.6521L393.163 43.4542L393.594 38.0459L413.501 52.2419ZM393.732 35.0712L393.291 28.9194L412.405 35.6041L413.366 49.0806L393.722 35.0771L393.732 35.0712ZM414.721 33.9598L411.538 18.956L420.508 20.3383L424.969 41.3593L414.721 33.9598ZM411.262 -5.72054L404.448 -1.25905L397.286 -15.3872L401.321 -25.3283L411.26 -5.71284L411.262 -5.72054ZM402.298 0.0265498L387.531 7.99626L384.367 1.74244L395.703 -12.9997L402.305 0.0283731L402.298 0.0265498ZM385.315 9.14453L368.957 17.2808L382.558 3.71065L385.315 9.14453ZM352.074 60.6159L348.17 57.5836C352.121 48.6792 355.408 41.5109 357.955 35.9874L352.074 60.6159ZM351.342 63.2217L336.397 102.677L326.421 94.9191L346.992 59.8398L351.342 63.2217ZM25.6279 246.995C27.2978 247.254 29.3603 247.467 32.2101 247.754C32.2563 247.765 32.3138 247.762 32.3618 247.765L35.0892 248.088C38.7022 248.515 40.742 248.756 41.9242 248.809L65.9924 274.779L47.4671 270.509C46.912 269.801 45.9099 268.75 44.2358 267.003C42.5424 265.235 40.2217 262.823 37.4337 259.812C34.4396 256.573 32.164 254.074 30.3528 252.084C28.3103 249.835 26.8529 248.237 25.6162 246.976L25.6279 246.995ZM86.9223 297.638C90.0476 298.51 93.8616 299.562 98.6118 300.95C105.005 304.216 109.819 306.806 113.699 308.881C114.016 309.054 114.319 309.215 114.622 309.377C104.874 306.136 95.2095 302.272 85.2769 297.174C85.8023 297.323 86.3526 297.47 86.9242 297.63L86.9223 297.638ZM114.88 306.683C111.917 305.093 108.392 303.2 104.044 300.94L128.413 300.452L155.898 314.497C152.391 314.477 149.382 314.486 146.802 314.499C135.275 314.531 124.634 311.928 114.878 306.69L114.88 306.683ZM166.202 315.773C170.181 314.727 173.578 313.803 176.446 313.021C188.439 309.751 199.716 309.598 210.277 312.561C213.485 313.461 217.28 314.525 221.977 315.762C218.688 316.468 214.605 317.506 208.62 319.027C204.615 320.043 199.745 321.284 193.682 322.787L166.2 315.781L166.202 315.773ZM344.78 263.662L321.603 270.87L342.305 241.878L363.052 235.425L344.78 263.662ZM399.542 179.857L402.008 145.444L411.358 134.27L411.744 165.264L399.542 179.857ZM413.821 131.157L420.506 117.554L422.871 142.604C422.16 143.72 421.07 146.013 418.928 150.519C417.687 153.142 416.107 156.473 414.192 160.432L413.827 131.167L413.821 131.157ZM416.026 51.159L415.031 37.2763L425.652 44.9514L427.076 64.9669L416.016 51.1649L416.026 51.159ZM377.979 -3.32625L381.273 1.45487L368.536 14.1574C371.613 8.86548 374.012 4.37952 375.965 0.397516C376.853 -1.22033 377.51 -2.41346 377.979 -3.32625ZM356.821 32.4831C356.772 32.5853 356.723 32.6876 356.673 32.7975C354.077 38.4232 350.57 46.0027 346.253 55.7304L342.526 51.7082C342.985 51.0775 343.423 50.4662 343.868 49.8567C348.506 43.9844 352.833 38.1847 356.819 32.4908L356.821 32.4831ZM28.5105 253.784C30.3217 255.774 32.6014 258.291 35.6031 261.531C36.2831 262.262 36.93 262.96 37.5459 263.618C37.455 263.556 37.3582 263.484 37.2692 263.414C30.5754 257.444 23.6102 250.734 16.3203 243.168C17.53 243.926 18.5403 244.532 19.4553 245.026C22.3442 246.996 23.8115 248.62 28.501 253.79L28.5105 253.784ZM140.961 316.989C142.681 316.999 144.617 316.995 146.811 316.996C150.568 316.986 155.244 316.975 161.024 317.039L183.181 322.683C170.995 322.422 158.961 321.588 150.269 319.378C147.127 318.575 144.031 317.783 140.961 316.989ZM214.596 322.576L209.435 322.643C207.763 322.668 206.02 322.685 204.242 322.71C206.049 322.253 207.702 321.833 209.241 321.442C221.61 318.3 232.91 316.735 243.143 316.749C244.85 316.748 246.743 316.75 248.84 316.752C236.925 319.832 224.114 322.471 214.596 322.576ZM278.604 308.02L276.093 308.805C274.513 309.3 272.677 309.88 270.634 310.508C272.343 309.573 273.906 308.709 275.327 307.925C285.564 302.282 295.997 297.848 306.624 294.623C307.641 294.311 308.734 293.986 309.883 293.633C294.1 302.767 282.57 306.792 278.595 308.026L278.604 308.02ZM346.37 265.698C349.812 263.354 352.746 261.401 355.243 259.751C347.497 266.941 339.984 273.114 332.862 278.429L346.377 265.7L346.37 265.698ZM379.678 234.204C381.921 230.34 384.705 225.531 388.448 219.316C391.682 215.451 394.341 212.368 396.481 209.894C396.581 209.779 396.672 209.671 396.772 209.556C392.124 217.564 386.968 225.548 381.894 231.618C381.156 232.499 380.42 233.34 379.686 234.206L379.678 234.204ZM412.24 180.052C411.526 181.516 410.637 183.345 409.606 185.425C409.858 184.363 410.121 183.223 410.409 181.974C411.358 177.876 412.537 172.775 414.194 166.138C417.169 160.082 419.497 155.173 421.194 151.585C421.228 151.512 421.261 151.439 421.295 151.366C420.438 154.974 419.352 159.617 418.075 165.369C416.514 170.265 414.861 174.692 413.149 178.171L412.232 180.05L412.24 180.052ZM429.863 68.6684L428.72 52.6373C429.992 60.1161 430.897 67.4267 431.436 74.5037L429.87 68.6702L429.863 68.6684ZM397.351 -37.2597C397.298 -37.0366 397.268 -36.808 397.344 -36.5787C397.457 -36.2022 397.573 -35.8333 397.692 -35.4799C397.644 -35.5484 397.597 -35.6246 397.548 -35.6931C395.308 -39.0289 392.239 -43.5941 387.971 -49.785C387.952 -49.8058 387.93 -49.819 387.911 -49.8399C387.886 -49.8702 387.876 -49.897 387.856 -49.9179C387.672 -50.4086 387.388 -51.0613 387.004 -51.9083C386.656 -52.8364 386.193 -53.8647 385.616 -55.0989C389.631 -49.8621 393.563 -43.8648 397.343 -37.2615L397.351 -37.2597ZM373.446 -66.2466C375.027 -65.2372 376.931 -64.013 379.325 -62.526C380.056 -60.9465 380.693 -59.5922 381.275 -58.3812L383.537 -53.4631C383.966 -52.5322 384.321 -51.7653 384.61 -51.1358C385.249 -49.4478 385.511 -48.0852 385.562 -46.2118L385.236 -38.6086C385.092 -36.2937 384.926 -33.4722 384.775 -29.9239C383.97 -27.5629 383.244 -25.3619 382.556 -23.2497C382.206 -22.1867 381.869 -21.1451 381.519 -20.1148L379.859 -15.2827C378.277 -10.8467 376.431 -6.25411 373.687 -0.655418C373.021 0.543589 372.226 1.97236 371.272 3.69648C369.289 7.25686 366.592 12.1108 362.943 18.6812C362.568 19.2994 362.183 19.9311 361.795 20.5706C361.677 20.7619 361.569 20.9396 361.462 21.1173C361.388 21.2218 361.351 21.2779 361.323 21.3281C360.16 22.5962 358.117 25.4841 353.827 31.5691C351.009 35.5651 347.3 40.8127 342.737 47.158C340.235 50.3351 337.628 53.5442 334.926 56.7793C329.566 62.9192 325.49 67.5919 322.394 71.1481C321.868 71.7547 321.376 72.3206 320.897 72.8652C252.549 148.104 138.532 232.306 42.5165 246.349C38.3812 245.862 35.1896 245.543 32.6087 245.288L25.6268 244.467C23.6587 244.13 22.2953 243.676 20.6819 242.838C19.3575 241.946 17.752 240.972 15.4782 239.595C14.7672 239.166 13.9713 238.684 13.1116 238.163C12.0448 237.487 10.8582 236.734 9.5038 235.9C8.35609 233.409 7.39844 231.418 6.60987 229.775C4.18449 224.724 3.16277 219.101 3.54471 212.906C3.69562 210.422 3.88537 207.33 4.06211 203.3C5.56218 198.934 6.73307 195.441 7.69847 192.573C10.6556 183.771 14.6171 174.972 19.5832 166.176C21.5351 162.714 24.0001 158.358 27.1738 152.625C27.217 152.546 27.2275 152.467 27.2458 152.39C27.2894 152.344 27.3542 152.311 27.3919 152.254C27.5636 152.011 43.8459 129.137 50.9096 120.338C51.3359 122 51.8083 123.672 52.298 125.341C52.0851 125.827 52.1899 126.412 52.6084 126.772C52.6491 126.806 52.6953 126.817 52.7301 126.841C54.5153 132.638 56.6903 138.47 59.2782 144.343C59.0685 144.61 58.9537 144.957 59.0136 145.321C59.1107 145.904 59.6161 146.309 60.1861 146.339C62.6143 151.686 65.3576 157.076 68.464 162.512C68.3922 162.608 68.3205 162.705 68.2759 162.825C68.0341 163.466 68.3745 164.189 69.0238 164.433C69.278 164.526 69.5228 164.624 69.7599 164.721C72.7668 169.857 76.0331 175.03 79.6434 180.26C80.0357 180.832 80.816 180.969 81.3792 180.582C81.9519 180.19 82.0884 179.41 81.702 178.847C78.8294 174.686 76.174 170.568 73.6821 166.482C74.3299 166.766 74.8769 166.961 75.3433 166.982L88.1045 185.496C88.4968 186.068 89.2772 186.205 89.8404 185.818C90.1029 185.637 90.28 185.37 90.3495 185.078C90.428 184.747 90.3681 184.383 90.165 184.075L78.2272 166.748L86.3904 166.257L100.655 186.964C101.047 187.537 101.827 187.673 102.39 187.287C102.653 187.105 102.83 186.839 102.899 186.546C102.978 186.215 102.918 185.852 102.713 185.551L89.0833 165.766L101.73 162.722L116.809 184.615C117.202 185.188 117.982 185.324 118.545 184.938C118.808 184.756 118.985 184.49 119.054 184.197C119.133 183.866 119.073 183.503 118.868 183.202L104.235 161.96L120.621 156.277L135.949 178.529C136.341 179.102 137.122 179.238 137.692 178.854C137.955 178.672 138.132 178.405 138.202 178.113C138.28 177.782 138.22 177.418 138.017 177.11L123.015 155.333L142.362 147.175L157.352 168.933C157.745 169.506 158.525 169.642 159.088 169.256C159.661 168.863 159.797 168.083 159.411 167.52L144.676 146.124L166.119 135.814L180.178 156.22C180.571 156.793 181.351 156.93 181.914 156.543C182.479 156.149 182.623 155.371 182.237 154.807L168.373 134.674L191.041 122.591C192.496 124.92 194.326 127.549 197.517 132.151C199.134 134.477 201.097 137.301 203.545 140.856C203.937 141.429 204.717 141.566 205.281 141.179C205.543 140.998 205.72 140.731 205.79 140.439C205.868 140.108 205.808 139.744 205.605 139.436C203.15 135.878 201.189 133.047 199.571 130.72C196.451 126.233 194.652 123.643 193.227 121.362L216.004 108.102L226.57 123.437C226.963 124.009 227.743 124.146 228.306 123.759C228.569 123.578 228.746 123.311 228.815 123.019C228.894 122.688 228.834 122.324 228.631 122.016L218.143 106.797L240.225 92.8353L248.362 104.643C248.754 105.215 249.534 105.352 250.097 104.965C250.36 104.784 250.537 104.517 250.607 104.225C250.685 103.894 250.625 103.53 250.42 103.23L242.308 91.4603L262.713 77.4089L268.081 85.1941C268.474 85.7668 269.254 85.9033 269.817 85.5169C270.08 85.3354 270.257 85.0686 270.326 84.7762C270.405 84.4454 270.345 84.0817 270.14 83.7811L264.742 75.9482L282.617 62.4177L284.967 65.8367C285.36 66.4094 286.14 66.5459 286.703 66.1595C286.966 65.978 287.143 65.7112 287.212 65.4188C287.291 65.088 287.231 64.7243 287.026 64.4236L284.571 60.8659C287.824 58.1191 290.387 56.0537 292.468 54.3776C296.148 51.4071 298.241 49.7098 299.652 47.8748L299.963 47.7292C300.047 47.6841 300.059 47.6705 300.078 47.6588C300.097 47.6471 300.123 47.6371 300.142 47.6254C300.56 47.1314 300.573 47.0775 300.596 47.0178C300.629 46.9445 300.637 46.9137 300.642 46.8906C300.658 46.8214 300.671 46.7675 300.67 46.7023L300.709 46.2319C301.799 44.207 302.454 41.6559 303.584 37.1696C304.174 34.8226 304.895 31.9945 305.88 28.4248C306.026 28.565 306.17 28.7129 306.336 28.8663C306.775 29.2793 307.299 29.7775 307.932 30.4644C308.404 30.9747 309.195 30.9999 309.703 30.5355C309.891 30.3606 310.017 30.1386 310.072 29.9078C310.165 29.5154 310.064 29.085 309.774 28.7643C309.094 28.0339 308.532 27.4939 308.066 27.0582C306.946 26.0012 306.657 22.9632 307.199 17.9442C307.406 15.9777 307.679 13.4254 307.984 10.255L313.018 15.685C313.49 16.1953 314.281 16.2205 314.782 15.7543C314.97 15.5794 315.096 15.3573 315.15 15.1265C315.244 14.7341 315.143 14.3038 314.853 13.983L308.207 6.82096C308.296 5.82634 307.968 4.1634 307.364 1.09397C307.089 -0.279948 306.758 -1.96775 306.387 -3.96582C306.982 -3.32071 307.664 -2.59801 308.489 -1.72738C309.781 -0.355901 311.42 1.36631 313.542 3.65824C314.014 4.16861 314.804 4.19379 315.305 3.72753C315.493 3.55268 315.619 3.33061 315.674 3.09979C315.767 2.7074 315.666 2.27703 315.376 1.9563C313.247 -0.337451 311.611 -2.07504 310.304 -3.45018C306.977 -6.96308 305.92 -8.09182 304.423 -10.4794C306.122 -8.73484 307.813 -6.95954 309.494 -5.13808C309.966 -4.6277 310.757 -4.60255 311.258 -5.06881C311.445 -5.24365 311.571 -5.4657 311.626 -5.69652C311.719 -6.08891 311.618 -6.51929 311.329 -6.84001C307.484 -10.9798 303.614 -14.9466 299.672 -18.7111C299.363 -19.2561 299.034 -19.8218 298.683 -20.4334C298.389 -20.942 297.802 -21.1384 297.263 -20.9901C286.217 -31.2208 274.473 -39.8858 260.955 -46.5178C308.073 -67.539 315.397 -68.5713 338.652 -71.827C341.023 -72.1581 343.562 -72.5142 346.323 -72.9152C350.546 -72.4242 353.777 -72.0961 356.388 -71.8335C362.903 -71.1804 368.592 -69.2958 373.455 -66.1796L373.446 -66.2466Z" fill="#0500E2"/>
</svg>
