<?xml version="1.0" encoding="UTF-8" standalone="no"?>
<svg
   id="svg6531"
   viewBox="0 0 720.50025 218.53303"
   version="1.1"
   width="720.50024"
   height="218.53304"
   xmlns="http://www.w3.org/2000/svg"
   xmlns:svg="http://www.w3.org/2000/svg"
   xmlns:rdf="http://www.w3.org/1999/02/22-rdf-syntax-ns#"
   xmlns:cc="http://creativecommons.org/ns#"
   xmlns:dc="http://purl.org/dc/elements/1.1/">
  <defs
     id="defs6533">
    <filter
       id="filter4166"
       height="1.288586"
       width="1.3016616"
       y="-0.14429301"
       x="-0.1508308"
       color-interpolation-filters="sRGB">
      <feGaussianBlur
         id="feGaussianBlur4168"
         stdDeviation="3.5244228" />
    </filter>
    <filter
       id="filter4158"
       color-interpolation-filters="sRGB"
       x="-0.097206036"
       y="-0.075173082"
       width="1.1949539"
       height="1.147784">
      <feGaussianBlur
         id="feGaussianBlur4160"
         stdDeviation="3.3426007" />
    </filter>
    <filter
       id="filter4229"
       height="2.2815296"
       width="1.7551433"
       y="-0.63884885"
       x="-0.37969013"
       color-interpolation-filters="sRGB">
      <feGaussianBlur
         id="feGaussianBlur4231"
         stdDeviation="2.7866382" />
    </filter>
    <filter
       id="filter4303"
       height="1.4252151"
       width="1.3050759"
       y="-0.21260757"
       x="-0.15253796"
       color-interpolation-filters="sRGB">
      <feGaussianBlur
         id="feGaussianBlur4305"
         stdDeviation="9.4344734" />
    </filter>
    <linearGradient
       id="linearGradient3800"
       y2="466.07001"
       gradientUnits="userSpaceOnUse"
       x2="333.34"
       gradientTransform="translate(41.626,11.405)"
       y1="415.39001"
       x1="310.5">
      <stop
         id="stop4134"
         stop-color="#070707"
         offset="0" />
      <stop
         id="stop4136"
         stop-color="#1f1f1f"
         stop-opacity="0"
         offset="1" />
    </linearGradient>
    <radialGradient
       id="radialGradient3802"
       gradientUnits="userSpaceOnUse"
       cy="366.17001"
       cx="398.34"
       gradientTransform="matrix(-0.18912,-0.26114,0.81716,-0.59182,174.46,698.42)"
       r="109.79">
      <stop
         id="stop4253"
         stop-color="#fff"
         offset="0" />
      <stop
         id="stop4255"
         stop-color="#fff"
         stop-opacity=".38667"
         offset="1" />
    </radialGradient>
    <filter
       id="filter3823"
       x="-0.032661079"
       y="-0.035687777"
       width="1.0653282"
       height="1.0713788">
      <feGaussianBlur
         id="feGaussianBlur3825"
         stdDeviation="0.56323223" />
    </filter>
    <filter
       id="filter3835"
       x="-0.013831009"
       y="-0.038924416"
       width="1.0276526"
       height="1.0778519">
      <feGaussianBlur
         id="feGaussianBlur3837"
         stdDeviation="1.2020938" />
    </filter>
    <filter
       id="filter3847"
       x="-0.0067230137"
       y="-0.0095611194"
       width="1.013446"
       height="1.0191222">
      <feGaussianBlur
         id="feGaussianBlur3849"
         stdDeviation="0.4869951" />
    </filter>
  </defs>
  <g
     id="Layer_1-2"
     data-name="Layer 1"
     transform="translate(67.95027,58.123031)"
     style="fill:#ffffff">
    <g
       id="g232"
       style="fill:#ffffff">
      <g
         id="g220"
         style="fill:#ffffff">
        <path
           class="cls-1"
           d="M 137.45,24.1 C 130.72,17.23 122.75,11.59 113.93,7.48 113.57,7.3 113.21,7.13 112.83,6.97 111.1,6.2 109.34,5.46 107.55,4.81 102.53,2.98 97.27,1.65 91.84,0.86 88.04,0.31 84.16,0.01 80.21,0.01 35.98,0 0,35.98 0,80.2 c 0,34.45 21.84,63.9 52.4,75.23 3.6,1.33 7.31,2.41 11.13,3.22 5.38,1.14 10.96,1.76 16.68,1.76 30.46,0 57.01,-17.08 70.58,-42.16 6.13,-11.33 9.62,-24.29 9.62,-38.05 0,-21.82 -8.77,-41.63 -22.96,-56.1 z M 23.92,123.11 C 14.44,110.61 9.43,95.7 9.43,79.98 c 0,-26.83 14.88,-50.25 36.81,-62.45 0.58,-0.32 1.15,0.45 0.67,0.9 -2,1.89 -3.93,3.9 -5.76,6.05 -12.71,14.87 -20.04,35.09 -20.1,55.5 0,26.49 17.72,55.09 46.35,55.09 25.55,0 46.34,-24.71 46.34,-55.09 0,-14.27 -4.78,-27.98 -12.95,-38.14 -0.29,-0.36 0.05,-0.87 0.49,-0.74 13.81,4.08 24.14,19.97 24.14,38.88 0,16.7 -6.06,33.32 -16.62,45.61 -10.95,12.74 -25.65,19.76 -41.39,19.76 -16.57,0 -32.44,-8.13 -43.48,-22.25 z M 137.75,36.9 c 9.47,12.47 14.47,27.36 14.45,43.07 0,26.83 -14.88,50.25 -36.81,62.45 -0.58,0.32 -1.15,-0.45 -0.67,-0.9 2,-1.89 3.93,-3.91 5.76,-6.05 12.71,-14.87 20.04,-35.09 20.1,-55.5 0,-26.49 -17.72,-55.09 -46.35,-55.09 -25.55,0 -46.34,24.71 -46.34,55.09 0,14.27 4.79,27.98 12.96,38.15 0.29,0.36 -0.05,0.87 -0.49,0.74 C 46.55,114.78 36.22,98.9 36.22,79.99 c 0,-16.7 6.06,-33.32 16.63,-45.61 10.95,-12.74 25.66,-19.76 41.4,-19.76 16.56,0 32.42,8.12 43.5,22.28 z m -32.4,43.08 c 0,18.92 -9.19,35.25 -22.36,42.58 -1.63,0.91 -3.64,0.8 -5.15,-0.31 l -2.82,-2.06 C 63.47,111.76 56.29,96.34 56.29,79.96 c 0,-18.92 9.19,-35.25 22.36,-42.58 1.63,-0.91 3.64,-0.8 5.15,0.31 l 2.82,2.06 c 11.55,8.43 18.73,23.85 18.73,40.23 z"
           id="path206"
           style="fill:#ffffff;stroke-width:0px" />
        <g
           id="g218"
           style="fill:#ffffff">
          <path
             class="cls-1"
             d="m 226.95,55.91 c -3.58,-2.29 -7.76,-3.43 -12.55,-3.43 -4.79,0 -8.99,1.14 -12.59,3.43 -3.6,2.29 -6.39,5.57 -8.37,9.83 -1.97,4.26 -2.96,9.34 -2.96,15.24 0,5.9 0.99,10.9 2.96,15.16 1.97,4.26 4.76,7.55 8.37,9.87 3.6,2.32 7.8,3.47 12.59,3.47 4.79,0 8.97,-1.16 12.55,-3.47 3.58,-2.32 6.37,-5.61 8.37,-9.87 2,-4.26 3,-9.32 3,-15.16 0,-5.84 -1,-11.04 -3,-15.28 -2,-4.24 -4.79,-7.5 -8.37,-9.79 z m -2.09,35.33 c -1.03,2.84 -2.45,5.01 -4.26,6.51 -1.82,1.5 -3.88,2.25 -6.2,2.25 -2.32,0 -4.4,-0.75 -6.24,-2.25 -1.84,-1.5 -3.28,-3.67 -4.3,-6.51 -1.03,-2.84 -1.54,-6.26 -1.54,-10.26 0,-4 0.51,-7.42 1.54,-10.26 1.03,-2.84 2.46,-5.01 4.3,-6.51 1.84,-1.5 3.92,-2.25 6.24,-2.25 2.32,0 4.38,0.75 6.2,2.25 1.82,1.5 3.24,3.66 4.26,6.47 1.03,2.82 1.54,6.25 1.54,10.3 0,4.05 -0.51,7.42 -1.54,10.26 z"
             id="path208"
             style="fill:#ffffff;stroke-width:0px" />
          <path
             class="cls-1"
             d="m 258.78,55.32 -13.53,49.98 c -0.44,1.63 0.79,3.23 2.47,3.23 h 6.04 c 1.16,0 2.18,-0.78 2.48,-1.91 l 2.07,-7.86 c 0.3,-1.13 1.31,-1.91 2.48,-1.91 h 13.79 c 1.17,0 2.19,0.79 2.48,1.92 l 2.03,7.84 c 0.29,1.13 1.31,1.92 2.48,1.92 h 6.35 c 1.69,0 2.92,-1.61 2.47,-3.24 L 276.78,55.31 c -0.3,-1.12 -1.32,-1.89 -2.47,-1.89 h -13.06 c -1.16,0 -2.17,0.78 -2.47,1.89 z m 5.86,32.06 c -1.68,0 -2.91,-1.59 -2.48,-3.22 l 2.27,-8.63 0.82,-3.43 c 0.63,-2.62 4.36,-2.62 4.98,0 l 0.82,3.43 2.23,8.64 c 0.42,1.62 -0.81,3.2 -2.48,3.2 h -6.17 z"
             id="path210"
             style="fill:#ffffff;stroke-width:0px" />
          <path
             class="cls-1"
             d="m 352.23,55.99 v 4.35 c 0,1.42 1.15,2.56 2.56,2.56 h 4.11 c 1.42,0 2.56,1.15 2.56,2.56 v 31.03 c 0,1.42 -1.15,2.56 -2.56,2.56 h -4.11 c -1.42,0 -2.56,1.15 -2.56,2.56 v 4.35 c 0,1.42 1.15,2.56 2.56,2.56 h 24.8 c 1.42,0 2.56,-1.15 2.56,-2.56 v -4.35 c 0,-1.42 -1.15,-2.56 -2.56,-2.56 h -4.11 c -1.42,0 -2.56,-1.15 -2.56,-2.56 V 65.46 c 0,-1.42 1.15,-2.56 2.56,-2.56 h 4.11 c 1.42,0 2.56,-1.15 2.56,-2.56 v -4.35 c 0,-1.42 -1.15,-2.56 -2.56,-2.56 h -24.8 c -1.42,0 -2.56,1.15 -2.56,2.56 z"
             id="path212"
             style="fill:#ffffff;stroke-width:0px" />
          <path
             class="cls-1"
             d="m 434.05,85.28 c -1.08,-2.03 -2.5,-3.66 -4.26,-4.9 -1.76,-1.24 -3.68,-2.21 -5.76,-2.92 -2.08,-0.71 -4.17,-1.32 -6.28,-1.82 -2.11,-0.5 -4.04,-1.03 -5.8,-1.58 -1.76,-0.55 -3.17,-1.28 -4.22,-2.17 -1.05,-0.89 -1.58,-2.08 -1.58,-3.55 0,-2.05 0.78,-3.63 2.33,-4.74 1.55,-1.11 3.51,-1.66 5.88,-1.66 1.63,0 3.17,0.27 4.54,0.99 1.81,0.95 3.05,2.41 3.74,3.46 0.47,0.71 1.27,1.13 2.12,1.13 h 6.92 c 1.79,0 3.07,-1.8 2.41,-3.47 -0.47,-1.18 -1.07,-2.28 -1.8,-3.29 -1.95,-2.68 -4.49,-4.74 -7.62,-6.16 -3.13,-1.42 -6.57,-2.13 -10.3,-2.13 -4.05,0 -7.58,0.71 -10.58,2.13 -3,1.42 -5.33,3.35 -6.99,5.8 -1.66,2.45 -2.49,5.2 -2.49,8.25 0,3.05 0.53,5.38 1.58,7.3 1.05,1.92 2.46,3.46 4.22,4.62 1.76,1.16 3.7,2.11 5.8,2.84 2.1,0.74 4.2,1.37 6.28,1.89 2.08,0.53 4,1.09 5.76,1.7 1.76,0.61 3.17,1.38 4.22,2.33 1.05,0.95 1.58,2.21 1.58,3.79 0,2.16 -0.8,3.84 -2.41,5.05 -1.61,1.21 -3.75,1.82 -6.43,1.82 -3.32,0 -5.84,-0.97 -7.58,-2.92 -0.72,-0.81 -1.28,-1.79 -1.69,-2.92 -0.4,-1.1 -1.43,-1.85 -2.61,-1.85 h -6.22 c -1.71,0 -2.93,1.63 -2.47,3.28 0.41,1.5 0.98,2.89 1.69,4.18 1.74,3.11 4.21,5.5 7.42,7.19 3.21,1.68 7.03,2.52 11.45,2.52 4,0 7.57,-0.7 10.7,-2.09 3.13,-1.39 5.59,-3.32 7.38,-5.76 1.79,-2.45 2.68,-5.3 2.68,-8.57 0,-3.27 -0.54,-5.75 -1.62,-7.78 z"
             id="path214"
             style="fill:#ffffff;stroke-width:0px" />
          <path
             class="cls-1"
             d="m 339.6,85.28 c -1.08,-2.03 -2.5,-3.66 -4.26,-4.9 -1.76,-1.24 -3.68,-2.21 -5.76,-2.92 -2.08,-0.71 -4.17,-1.32 -6.28,-1.82 -2.11,-0.5 -4.04,-1.03 -5.8,-1.58 -1.76,-0.55 -3.17,-1.28 -4.22,-2.17 -1.05,-0.89 -1.58,-2.08 -1.58,-3.55 0,-2.05 0.78,-3.63 2.33,-4.74 1.55,-1.11 3.51,-1.66 5.88,-1.66 1.63,0 3.17,0.27 4.54,0.99 1.81,0.95 3.05,2.41 3.74,3.46 0.47,0.71 1.27,1.13 2.12,1.13 h 6.92 c 1.79,0 3.07,-1.8 2.41,-3.47 -0.47,-1.18 -1.07,-2.28 -1.8,-3.29 -1.95,-2.68 -4.49,-4.74 -7.62,-6.16 -3.13,-1.42 -6.57,-2.13 -10.3,-2.13 -4.05,0 -7.58,0.71 -10.58,2.13 -3,1.42 -5.33,3.35 -6.99,5.8 -1.66,2.45 -2.49,5.2 -2.49,8.25 0,3.05 0.53,5.38 1.58,7.3 1.05,1.92 2.46,3.46 4.22,4.62 1.76,1.16 3.7,2.11 5.8,2.84 2.1,0.74 4.2,1.37 6.28,1.89 2.08,0.53 4,1.09 5.76,1.7 1.76,0.61 3.17,1.38 4.22,2.33 1.05,0.95 1.58,2.21 1.58,3.79 0,2.16 -0.8,3.84 -2.41,5.05 -1.61,1.21 -3.75,1.82 -6.43,1.82 -3.32,0 -5.84,-0.97 -7.58,-2.92 -0.72,-0.81 -1.28,-1.79 -1.69,-2.92 -0.4,-1.1 -1.43,-1.85 -2.61,-1.85 h -6.22 c -1.71,0 -2.93,1.63 -2.47,3.28 0.41,1.5 0.98,2.89 1.69,4.18 1.74,3.11 4.21,5.5 7.42,7.19 3.21,1.68 7.03,2.52 11.45,2.52 4,0 7.57,-0.7 10.7,-2.09 3.13,-1.39 5.59,-3.32 7.38,-5.76 1.79,-2.45 2.68,-5.3 2.68,-8.57 0,-3.27 -0.54,-5.75 -1.62,-7.78 z"
             id="path216"
             style="fill:#ffffff;stroke-width:0px" />
        </g>
      </g>
      <g
         id="g230"
         style="fill:#ffffff">
        <path
           class="cls-1"
           d="M 460.41,103.56 V 53.94 c 0,-1.4 1.14,-2.54 2.54,-2.54 h 13.29 c 3.92,0 7.44,0.64 10.58,1.92 3.13,1.28 5.8,3.11 7.99,5.49 2.19,2.38 3.89,5.24 5.09,8.58 1.2,3.34 1.8,7.08 1.8,11.21 0,4.13 -0.6,7.95 -1.8,11.32 -1.2,3.37 -2.9,6.27 -5.09,8.7 -2.19,2.43 -4.86,4.28 -7.99,5.56 -3.13,1.28 -6.66,1.92 -10.58,1.92 h -13.29 c -1.4,0 -2.54,-1.14 -2.54,-2.54 z m 5.25,-4.7 c 0,1.4 1.14,2.54 2.54,2.54 h 8.04 c 4.02,0 7.52,-0.94 10.5,-2.82 2.98,-1.88 5.29,-4.54 6.94,-7.99 1.65,-3.45 2.47,-7.44 2.47,-11.99 0,-4.55 -0.82,-8.58 -2.47,-11.95 -1.65,-3.37 -3.96,-5.97 -6.94,-7.8 -2.98,-1.83 -6.48,-2.74 -10.5,-2.74 h -8.04 c -1.4,0 -2.54,1.14 -2.54,2.54 v 40.22 z"
           id="path222"
           style="fill:#ffffff;stroke-width:0px" />
        <path
           class="cls-1"
           d="m 530.78,107.04 c -4.54,0 -8.49,-1.18 -11.83,-3.53 -3.34,-2.35 -5.93,-5.64 -7.76,-9.87 -1.83,-4.23 -2.74,-9.19 -2.74,-14.89 0,-5.7 0.91,-10.67 2.74,-14.93 1.83,-4.26 4.41,-7.55 7.76,-9.87 3.34,-2.32 7.29,-3.49 11.83,-3.49 4.54,0 8.49,1.16 11.83,3.49 3.34,2.33 5.93,5.62 7.76,9.87 1.83,4.26 2.74,9.23 2.74,14.93 0,5.7 -0.92,10.66 -2.74,14.89 -1.83,4.23 -4.41,7.52 -7.76,9.87 -3.34,2.35 -7.29,3.53 -11.83,3.53 z m 0,-4.7 c 3.4,0 6.35,-0.98 8.86,-2.94 2.51,-1.96 4.45,-4.71 5.84,-8.27 1.38,-3.55 2.08,-7.68 2.08,-12.38 0,-4.7 -0.69,-8.89 -2.08,-12.42 -1.38,-3.53 -3.33,-6.27 -5.84,-8.23 -2.51,-1.96 -5.46,-2.94 -8.86,-2.94 -3.4,0 -6.35,0.98 -8.85,2.94 -2.51,1.96 -4.45,4.71 -5.84,8.27 -1.38,3.55 -2.08,7.68 -2.08,12.38 0,4.7 0.69,8.83 2.08,12.38 1.38,3.55 3.33,6.31 5.84,8.27 2.51,1.96 5.46,2.94 8.85,2.94 z"
           id="path224"
           style="fill:#ffffff;stroke-width:0px" />
        <path
           class="cls-1"
           d="m 582.81,107.04 c -4.75,0 -8.88,-1.24 -12.38,-3.72 -3.5,-2.48 -6.18,-5.86 -8.03,-10.15 -1.86,-4.28 -2.78,-9.12 -2.78,-14.5 0,-5.75 0.99,-10.74 2.98,-14.97 1.99,-4.23 4.74,-7.5 8.27,-9.79 3.53,-2.3 7.56,-3.45 12.11,-3.45 3.81,0 7.2,0.74 10.15,2.23 2.95,1.49 5.37,3.59 7.25,6.31 1.33,1.92 2.28,4.08 2.85,6.49 0.38,1.6 -0.82,3.15 -2.47,3.15 h -0.67 c -1.2,0 -2.21,-0.85 -2.48,-2.02 -0.71,-3.15 -2.19,-5.74 -4.44,-7.78 -2.72,-2.45 -6.14,-3.68 -10.27,-3.68 -3.55,0 -6.66,0.98 -9.33,2.94 -2.66,1.96 -4.73,4.71 -6.19,8.27 -1.46,3.55 -2.19,7.68 -2.19,12.38 0,4.7 0.77,8.97 2.31,12.5 1.54,3.53 3.64,6.26 6.31,8.19 2.66,1.93 5.67,2.9 9.01,2.9 2.92,0 5.49,-0.6 7.68,-1.8 2.19,-1.2 3.97,-2.87 5.33,-5.02 1.01,-1.59 1.7,-3.36 2.07,-5.33 0.23,-1.22 1.26,-2.12 2.5,-2.12 h 0.68 c 1.64,0 2.84,1.53 2.48,3.13 -0.56,2.5 -1.49,4.78 -2.8,6.83 -1.83,2.87 -4.27,5.09 -7.33,6.66 -3.06,1.57 -6.6,2.35 -10.62,2.35 z"
           id="path226"
           style="fill:#ffffff;stroke-width:0px" />
        <path
           class="cls-1"
           d="m 633.59,107.04 c -4.02,0 -7.58,-0.77 -10.66,-2.31 -3.08,-1.54 -5.49,-3.81 -7.21,-6.82 -1.36,-2.36 -2.18,-5.15 -2.47,-8.37 -0.13,-1.47 1.06,-2.72 2.53,-2.72 h 0.18 c 1.33,0 2.4,1.03 2.53,2.35 0.38,3.84 1.73,6.88 4.04,9.13 2.77,2.69 6.43,4.04 10.97,4.04 3.97,0 7.2,-0.94 9.68,-2.82 2.48,-1.88 3.72,-4.49 3.72,-7.84 0,-2.25 -0.6,-4.05 -1.8,-5.41 -1.2,-1.36 -2.78,-2.45 -4.74,-3.29 -1.96,-0.83 -4.09,-1.57 -6.39,-2.19 -2.3,-0.63 -4.62,-1.29 -6.97,-2 -2.35,-0.71 -4.51,-1.58 -6.46,-2.63 -1.96,-1.04 -3.54,-2.43 -4.74,-4.15 -1.2,-1.72 -1.8,-3.94 -1.8,-6.66 0,-2.98 0.76,-5.58 2.27,-7.8 1.51,-2.22 3.64,-3.96 6.39,-5.21 2.74,-1.25 5.97,-1.88 9.68,-1.88 3.71,0 7.08,0.68 9.95,2.04 2.87,1.36 5.13,3.24 6.78,5.64 1.12,1.64 1.87,3.49 2.26,5.54 0.29,1.56 -0.92,3 -2.51,3 h -0.14 c -1.2,0 -2.27,-0.84 -2.48,-2.02 -0.26,-1.48 -0.82,-2.81 -1.67,-4.01 -1.23,-1.72 -2.9,-3.07 -5.02,-4.04 -2.12,-0.97 -4.51,-1.45 -7.17,-1.45 -3.81,0 -6.88,0.92 -9.21,2.74 -2.32,1.83 -3.49,4.26 -3.49,7.29 0,2.04 0.6,3.66 1.8,4.86 1.2,1.2 2.78,2.18 4.74,2.94 1.96,0.76 4.1,1.44 6.43,2.04 2.32,0.6 4.65,1.25 6.97,1.96 2.32,0.71 4.47,1.63 6.43,2.78 1.96,1.15 3.54,2.66 4.74,4.55 1.2,1.88 1.8,4.28 1.8,7.21 0,3.29 -0.84,6.09 -2.51,8.38 -1.67,2.3 -3.94,4.06 -6.82,5.29 -2.87,1.23 -6.09,1.84 -9.64,1.84 z"
           id="path228"
           style="fill:#ffffff;stroke-width:0px" />
      </g>
    </g>
  </g>
  <g
     id="layer1"
     transform="rotate(-14.449386,-958.9468,832.9157)">
    <path
       id="path3065"
       filter="url(#filter3847)"
       d="m 205.35,408.06 c 2.5871,-3.7409 158.46,-22.04 133.49,-35.906 -20.005,-47.602 -54.346,-58.601 -57.021,-60.993 -30.534,-6.5177 -62.947,6.675 -65.134,8.7914 -18.238,5.1358 -34.794,42.127 -36.753,47.831 -13.025,67.77 -10.001,44.282 -12.233,56.112 l 14.396,7.7168 16.87,-14.037 c 2.3898,-2.7779 4.7281,-5.4395 6.3862,-9.515 z"
       fill="#b71111" />
    <path
       id="path3835"
       d="m 327.51,514.07 c 121.44,-0.988 113.91,-24.709 158.34,-30.801 22.93,-1.2239 20.311,-8.344 28.395,-12.994 8.196,-5.4543 12.642,-10.909 10.588,-16.363 0.8667,-7.6471 -1.3549,-12.721 -8.1815,-13.957 -11.17,-5.234 -13.449,-1.578 -18.769,-0.9625 -14.17,0.9839 -19.806,3.675 -21.176,7.2189 -7.1183,1.2871 -16.82,2.6529 -25.026,6.2565 -15.602,15.591 -18.074,11.968 -23.582,12.994 -18.262,-4.2992 -21.541,-1.3565 -22.619,0.4813 -18.245,5.6705 -9.8444,3.1314 -16.844,3.3688 -27.433,-1.5385 -24.713,5.7916 -32.245,10.106 -9.8973,-4.8755 -24.505,0.48404 -30.57,3.2736 -24.168,34.236 -21.52,30.742 1.6941,31.377 z"
       transform="matrix(0.64679,0,0,0.64679,5.3098,78.262)"
       filter="url(#filter3835)"
       stroke="#000000"
       stroke-width="0.21641px"
       fill="#ffffff" />
    <path
       id="path4122"
       opacity="0.35"
       d="m 337.89,487 c 17.815,-4.0618 18.407,-61.731 32.385,-58.485 17.55,2.9188 35.89,39.748 12.973,22.015 -9.8982,15.377 -32.691,36.771 -45.358,36.471 z"
       transform="matrix(1.0727,0,0,0.92,-148.06,-58.159)"
       filter="url(#filter4166)"
       fill="url(#linearGradient3800)"
       style="fill:url(#linearGradient3800)" />
    <path
       id="path4140"
       d="m 307.66,539.51 c 9.3173,-20.063 13.59,-28.286 18.319,-36.182 9.1303,-15.972 26.499,-47.252 27.392,-61.84 2.3207,-5.2246 8.6906,-15.992 12.973,-15.332 6.6881,0.10178 11.896,1.0915 13.366,4.3243 2.544,4.2068 4.0964,8.1658 10.614,13.366 1.1828,4.8519 6.5074,27.146 3.7441,28.051"
       transform="matrix(0.85098,0,0,0.72988,-64.607,25.252)"
       filter="url(#filter4158)"
       stroke="#000000"
       stroke-width="1px"
       fill="none" />
    <path
       id="path4170"
       style="color:#000000"
       d="m 251.6,533.47 c -7.5912,-1.8797 -9.2062,1.0216 -11.794,3.145 -0.5311,3.4001 -1.1869,6.6755 -2.7518,9.0418 l -3.145,5.5037 c 0.0771,3.3222 -1.5802,7.0781 2.3587,9.4349 1.9873,2.8396 3.4931,6.642 7.4693,5.5037 1.9012,1.1104 3.7272,2.4466 5.1106,5.1106 3.145,2.8829 5.7658,2.6208 7.8624,-0.78624 9.2953,1.8317 8.8746,0.42475 12.58,0.39312 3.6817,-1.1076 5.6194,-3.0871 5.1106,-6.2899 2.4971,-2.0293 3.6493,-4.3948 1.9656,-7.4693 3.8696,-8.0506 1.0059,-8.0212 0,-10.221 -1.7035,-5.0537 -3.407,-5.6828 -5.1106,-6.683 -2.8469,-5.5857 -4.4333,-4.8694 -6.2899,-5.5037 -1.2401,-1.0227 -2.2429,-2.4014 -5.5037,-0.39312 -3.77,-2.5605 -6.1848,-2.4105 -7.8624,-0.78624 z"
       transform="matrix(0.64679,0,0,0.64679,5.3098,78.262)"
       filter="url(#filter3823)"
       stroke="#000000"
       stroke-width="0.21641px"
       fill="#ffffff" />
    <path
       id="path4207"
       opacity="0.77"
       d="m 409.74,425.85 c 6.1155,4.096 12.231,8.4417 18.347,11.119"
       transform="matrix(0.64679,0,0,0.64679,5.3098,78.262)"
       filter="url(#filter4229)"
       stroke="#000000"
       stroke-width="1px"
       fill="none" />
    <path
       id="path4233"
       opacity="0.45333"
       d="m 306.89,432.52 c 19.882,-31.373 19.998,-37.577 36.137,-56.152 15.398,-9.0316 11.623,-6.6425 26.686,-10.563 28.009,-3.3912 35.011,4.0231 51.148,7.2274 15.255,5.6279 19.342,15.822 21.682,20.014 -1.4182,7.3174 -8.4682,3.3036 -22.238,-5.0036 -21.52,-2.7812 -24.196,-7.4244 -38.917,-9.4512 -15.075,7.2156 -20.077,7.3994 -27.798,10.563 -21.115,16.123 -21.264,25.018 -45.588,56.152 -7.7209,14.947 -8.0133,18.544 -13.899,26.13 0.68666,-10.105 2.6026,-16.395 12.787,-38.917 z"
       transform="matrix(0.64679,0,0,0.64679,5.3098,78.262)"
       filter="url(#filter4303)"
       fill="url(#radialGradient3802)"
       style="fill:url(#radialGradient3802)" />
  </g>
  <metadata
     id="metadata464">
    <rdf:RDF>
      <cc:Work>
        <dc:format>image/svg+xml</dc:format>
        <dc:type
           rdf:resource="http://purl.org/dc/dcmitype/StillImage" />
        <cc:license
           rdf:resource="http://creativecommons.org/publicdomain/zero/1.0/" />
        <dc:publisher>
          <cc:Agent
             rdf:about="http://openclipart.org/">
            <dc:title>Openclipart</dc:title>
          </cc:Agent>
        </dc:publisher>
        <dc:date>2011-12-12T22:15:06</dc:date>
        <dc:description>A little christmas hat I made for a penguin on our website. </dc:description>
        <dc:source>http://openclipart.org/detail/166276/christmas-hat-by-</dc:source>
        <dc:creator>
          <cc:Agent>
            <dc:title>Moini</dc:title>
          </cc:Agent>
        </dc:creator>
        <dc:subject>
          <rdf:Bag>
            <rdf:li>cap</rdf:li>
            <rdf:li>christmas</rdf:li>
            <rdf:li>clip art</rdf:li>
            <rdf:li>clipart</rdf:li>
            <rdf:li>clothes</rdf:li>
            <rdf:li>clothing</rdf:li>
            <rdf:li>decoration</rdf:li>
            <rdf:li>hat</rdf:li>
            <rdf:li>santa</rdf:li>
            <rdf:li>seasonal</rdf:li>
            <rdf:li>xmas</rdf:li>
          </rdf:Bag>
        </dc:subject>
      </cc:Work>
      <cc:License
         rdf:about="http://creativecommons.org/publicdomain/zero/1.0/">
        <cc:permits
           rdf:resource="http://creativecommons.org/ns#Reproduction" />
        <cc:permits
           rdf:resource="http://creativecommons.org/ns#Distribution" />
        <cc:permits
           rdf:resource="http://creativecommons.org/ns#DerivativeWorks" />
      </cc:License>
    </rdf:RDF>
  </metadata>
</svg>
