<svg width="333" height="328" viewBox="0 0 333 328" fill="none" xmlns="http://www.w3.org/2000/svg">
<path d="M465.619 117.918C465.613 117.975 465.607 118.032 465.595 118.09C465.591 118.112 465.595 118.139 465.585 118.169L426.248 249.057C426.159 249.358 425.966 249.619 425.71 249.79L324.725 317.971C324.725 317.971 324.684 317.977 324.665 317.994C324.51 318.087 324.346 318.16 324.16 318.188C323.982 318.214 323.803 318.191 323.579 318.147C323.52 318.128 323.479 318.092 323.426 318.064C323.358 318.032 323.279 318.016 323.217 317.976L236.874 260.418L137.191 327.726C137.191 327.726 137.15 327.732 137.132 327.749C136.977 327.842 136.812 327.915 136.627 327.943C136.448 327.969 136.269 327.947 136.045 327.902C135.986 327.883 135.946 327.847 135.893 327.82C135.825 327.788 135.745 327.771 135.683 327.731L1.32198 238.162C0.823541 237.828 0.606599 237.215 0.774744 236.642L34.2302 125.328L19.2595 115.347C18.761 115.014 18.5441 114.4 18.7122 113.828L58.05 -17.0607C58.0791 -17.1492 58.1307 -17.2271 58.1755 -17.3039C58.1979 -17.3423 58.1987 -17.3845 58.2466 -17.4407C58.3392 -17.5737 58.4545 -17.696 58.6072 -17.8028C58.6072 -17.8028 83.8486 -34.8456 83.8555 -34.8466L159.565 -85.98C160.018 -86.2856 160.621 -86.2904 161.08 -85.9862C161.08 -85.9862 228.248 -41.2137 228.256 -41.2079C228.256 -41.2079 295.432 3.57046 295.448 3.58217C295.588 3.67382 295.697 3.79802 295.819 3.95555C295.838 3.98786 295.843 4.02221 295.861 4.04766C295.918 4.15148 295.969 4.25631 296 4.37105C296.008 4.42601 296.023 4.47994 296.032 4.54177C296.047 4.64481 296.042 4.75089 296.028 4.85112C296.023 4.9081 296.017 4.96508 296.005 5.02308C296.001 5.0447 296.005 5.07218 295.995 5.10168L279.266 60.7695L329.174 27.0705C329.627 26.7649 330.23 26.7601 330.689 27.0643C330.689 27.0643 364.265 49.4447 364.273 49.4506C364.273 49.4506 397.85 71.8378 397.865 71.8426C397.865 71.8426 431.434 94.224 431.458 94.2416C431.458 94.2416 465.034 116.622 465.05 116.634C465.19 116.725 465.299 116.85 465.421 117.007C465.44 117.039 465.445 117.074 465.463 117.099C465.52 117.203 465.571 117.308 465.602 117.423C465.61 117.478 465.625 117.531 465.634 117.593C465.649 117.696 465.644 117.802 465.63 117.903L465.619 117.918ZM442.223 186.475L420.537 201.119L411.939 229.728L433.625 215.084L442.223 186.475ZM398.542 264.857L407.146 236.247L385.46 250.891L376.855 279.501L398.542 264.857ZM373.293 281.901L381.898 253.291L360.205 267.936L351.6 296.546L373.293 281.901ZM348.046 298.952L356.651 270.342L334.958 284.986L326.36 313.595L348.046 298.952ZM323.189 314.702L332.206 284.698L300.98 263.88L291.964 293.884L323.189 314.702ZM289.604 292.309L298.621 262.305L267.388 241.488L258.372 271.492L289.597 292.31L289.604 292.309ZM256.012 269.917L265.029 239.913L246.703 227.697L223.159 243.59L214.561 272.199C214.561 272.199 236.107 257.653 236.114 257.652C236.255 257.561 236.414 257.496 236.577 257.458C236.747 257.419 236.921 257.414 237.123 257.447C237.296 257.478 237.468 257.551 237.624 257.654L256.019 269.916L256.012 269.917ZM211 274.606L219.598 245.997L197.905 260.642L189.307 289.251L210.993 274.607L211 274.606ZM185.759 291.649L194.247 263.393C192.653 264.668 190.606 265.967 187.837 267.702C185.434 269.208 182.441 271.082 178.688 273.616C177.297 274.558 176.13 275.496 175.188 276.245C174.122 277.105 173.303 277.738 172.579 277.971L164.071 306.286L185.765 291.641L185.759 291.649ZM160.512 308.7L169.109 280.091L147.423 294.735L138.825 323.344L160.518 308.699L160.512 308.7ZM135.655 324.451L144.671 294.446L113.445 273.628L104.429 303.632L135.655 324.451ZM102.063 302.058L111.079 272.054L79.8532 251.236L70.8369 281.24L102.07 302.057L102.063 302.058ZM68.4708 279.666L77.4872 249.662L46.2613 228.844L37.2449 258.848L68.4708 279.666ZM13.4822 203.735L44.715 224.552L53.7314 194.548L22.5054 173.729L13.489 203.734L13.4822 203.735ZM23.3184 171.012L54.5443 191.831L63.5607 161.826L32.3278 141.009L23.3115 171.013L23.3184 171.012ZM33.1545 138.29L64.3873 159.107L73.4037 129.103L42.1709 108.286L33.1545 138.29ZM31.4197 80.92L54.0117 95.9803C54.0117 95.9803 65.8885 87.9583 65.8953 87.9573L67.019 87.2018L71.6698 71.7399L40.437 50.9226L31.4207 80.9269L31.4197 80.92ZM41.2558 48.1976L72.4887 69.0149L81.505 39.0106L50.2722 18.1934L41.2558 48.1976ZM51.092 15.4752L82.3248 36.2925L91.3412 6.28827L60.1084 -14.529L51.092 15.4752ZM61.7773 -16.6776L92.9254 4.08898L115.741 -11.3182L84.5932 -32.0848L61.7773 -16.6776ZM87.0256 -33.7215L118.174 -12.9549L140.99 -28.362L109.841 -49.1287L87.0246 -33.7284L87.0256 -33.7215ZM112.266 -50.7712L143.414 -30.0046L166.23 -45.4118L135.082 -66.1784L112.266 -50.7712ZM193.923 -60.8233L171.106 -45.423L202.254 -24.6564L225.07 -40.0635L193.922 -60.8302L193.923 -60.8233ZM227.508 -38.4302L204.691 -23.0299L235.839 -2.26326L258.655 -17.6704L227.507 -38.4371L227.508 -38.4302ZM261.1 -16.0381L238.284 -0.630925L269.432 20.1357L292.248 4.72852L261.1 -16.0381ZM292.292 7.97186L270.606 22.6156L262.008 51.2244L283.694 36.5807L292.292 7.97186ZM256.622 79.3379L287.777 100.104L310.593 84.6963L279.444 63.9297L256.629 79.3369L256.622 79.3379ZM281.87 62.2941L313.018 83.0607L335.834 67.6535L304.686 46.8869L281.87 62.2941ZM363.519 52.2361L340.703 67.6433L371.851 88.4099L394.667 73.0027L363.519 52.2361ZM397.111 74.6282L374.295 90.0354L405.443 110.802L428.252 95.3958L397.104 74.6292L397.111 74.6282ZM430.703 97.0203L407.894 112.426L439.042 133.193L461.858 117.786L430.71 97.0193L430.703 97.0203ZM426.812 170.803L405.125 185.447L396.528 214.056L418.214 199.412L426.812 170.803ZM391.734 220.569L370.048 235.212L361.45 263.821L383.136 249.177L391.734 220.569ZM366.487 237.619L344.794 252.264L336.196 280.873L357.889 266.228L366.487 237.619ZM248.582 225.686L265.849 237.195L274.865 207.19L256.539 194.974L232.996 210.875L224.398 239.484L246.487 224.57C247.112 224.148 247.951 224.312 248.373 224.937C248.526 225.167 248.578 225.426 248.582 225.686ZM229.434 213.275L207.748 227.919C205.684 234.807 204.198 240.144 203.007 244.433C201.467 249.974 200.439 253.663 199.348 256.393L220.836 241.884L229.434 213.275ZM173.64 264.436C174.974 260.21 176.733 254.63 178.939 247.37L157.258 262.006L148.66 290.614L170.365 275.954C170.503 274.368 171.473 271.291 173.639 264.429L173.64 264.436ZM56.9103 193.404L88.1432 214.222L97.1595 184.217L65.9267 163.4L56.9103 193.404ZM74.8488 70.5966L83.2877 76.2219L110.125 58.1011L83.8652 40.5923L74.8488 70.5966ZM145.858 -28.3791L177.006 -7.6125L199.822 -23.0197L168.674 -43.7863L145.858 -28.3791ZM267.045 25.0226L245.352 39.6673L236.754 68.2762L258.447 53.6314L267.045 25.0226ZM231.923 96.0129L263.071 116.78L285.338 101.748L254.19 80.9815L231.924 96.0197L231.923 96.0129ZM315.462 84.6861L346.61 105.453L369.426 90.0456L338.278 69.279L315.462 84.6861ZM411.4 155.125L389.713 169.769L381.116 198.377L402.809 183.733L411.407 155.124L411.4 155.125ZM376.323 204.897L354.637 219.541L346.039 248.15L367.732 233.505L376.33 204.896L376.323 204.897ZM318.286 196.861L287.06 176.043L278.044 206.047L309.277 226.864L318.293 196.86L318.286 196.861ZM258.41 192.957L275.678 204.473L284.694 174.469L266.368 162.253L242.825 178.154L234.227 206.762L256.316 191.849C256.935 191.427 257.78 191.59 258.202 192.216C258.355 192.446 258.408 192.705 258.411 192.964L258.41 192.957ZM130.752 206.609L99.5256 185.791L90.5092 215.795L121.735 236.614L130.752 206.609ZM94.3284 72.0435L125.477 92.8101L148.292 77.4029L117.144 56.6363C117.144 56.6363 113.29 59.241 113.283 59.2421L94.3274 72.0366L94.3284 72.0435ZM128.954 28.1075L141.862 36.7157C142.272 36.5429 142.753 36.5701 143.136 36.8295L160.652 48.5053L182.919 33.4739L151.771 12.7072L128.955 28.1144L128.954 28.1075ZM154.203 11.0637L185.351 31.8303L208.167 16.4231L177.019 -4.34349L154.203 11.0637ZM187.795 33.4558L218.943 54.2224L241.759 38.8152L210.611 18.0486L187.795 33.4558ZM241.797 42.0664L220.103 56.7112L212.236 82.896L213.676 83.8554L233.192 70.6763L241.79 42.0674L241.797 42.0664ZM209.57 84.3776L186.754 99.7848C194.862 105.213 200.812 109.339 205.238 112.406C213.412 118.077 218.444 120.249 220.335 118.922C220.621 118.718 220.926 118.504 221.265 118.279L240.725 105.143C240.725 105.143 228.751 97.1621 228.744 97.1562L209.577 84.3766L209.57 84.3776ZM265.515 118.405C265.515 118.405 277.488 126.386 277.504 126.398C277.566 126.438 277.603 126.502 277.66 126.557C277.733 126.624 277.819 126.681 277.876 126.778C277.974 126.925 278.042 127.097 278.081 127.267C278.093 127.35 278.085 127.435 278.083 127.519L296.121 139.546L318.938 124.146L287.79 103.379L265.522 118.411L265.515 118.405ZM323.806 124.122L354.953 144.882L377.769 129.475L346.621 108.708L323.805 124.115L323.806 124.122ZM357.398 146.514L388.546 167.281L411.362 151.874L380.214 131.107L357.398 146.514ZM386.152 172.176L364.466 186.819L355.868 215.428L377.562 200.783L386.159 172.175L386.152 172.176ZM328.122 164.139L296.89 143.321L287.873 173.326L319.099 194.144L328.115 164.14L328.122 164.139ZM268.247 160.242L285.514 171.751L294.53 141.747L276.205 129.531L252.661 145.431L244.064 174.04L266.152 159.126C266.778 158.704 267.616 158.868 268.038 159.494C268.192 159.724 268.244 159.983 268.247 160.242ZM249.106 147.83L227.306 162.554C227.228 163.696 226.741 165.193 226.013 167.441C225.543 168.872 224.961 170.678 224.263 172.985C222.822 177.774 221.919 181.353 221.194 184.233C220.498 186.982 219.967 189.047 219.333 190.741L240.51 176.446L249.107 147.837L249.106 147.83ZM119.576 54.9927L150.724 75.7593L173.54 60.3522L142.392 39.5855L119.576 54.9927ZM163.096 50.1307C163.096 50.1307 176.712 59.2099 176.72 59.2157L194.244 70.8974L216.511 55.8659L185.363 35.0993L163.096 50.1307ZM249.068 144.579L217.92 123.813L195.104 139.22L222.258 157.319C223.114 157.888 223.837 158.315 224.422 158.663C225.221 159.135 225.823 159.551 226.271 159.97L249.062 144.58L249.068 144.579ZM223.936 161.55C223.695 161.396 223.41 161.22 223.048 161.007C222.425 160.636 221.665 160.194 220.754 159.584L192.673 140.863L169.857 156.27L201.005 177.037L223.937 161.557L223.936 161.55ZM215.444 122.206C213.121 121.159 209.721 118.812 203.693 114.634C199.118 111.456 192.872 107.136 184.322 101.428L161.513 116.834L192.662 137.601L215.446 122.22L215.444 122.206ZM207.133 82.7511L175.985 61.9845L153.169 77.3917L184.317 98.1583L207.133 82.7511ZM209.876 81.3212L216.549 59.1172L196.689 72.5297L209.876 81.3212ZM127.92 94.4355L159.069 115.202L181.884 99.795L150.736 79.0284L127.92 94.4355ZM136.265 133.878L167.413 154.645L190.229 139.238L159.081 118.471L136.265 133.878ZM144.609 173.314L175.757 194.081L198.573 178.674L167.425 157.907L144.609 173.314ZM142.948 175.469L133.932 205.473L165.157 226.291L174.174 196.287L142.948 175.469ZM168.327 225.178L190.02 210.533L198.618 181.924L176.925 196.569L168.327 225.178ZM193.57 208.148C197.307 205.652 200.439 203.617 203.052 201.919C211.731 196.276 216.9 190.157 218.561 183.562C219.296 180.653 220.208 177.037 221.662 172.197C222.364 169.868 222.957 168.04 223.424 166.595C223.647 165.916 223.839 165.312 224.012 164.774L202.172 179.518L193.57 208.148ZM332.15 163.565L363.299 184.332L386.114 168.924L354.966 148.158L332.15 163.565ZM321.465 195.718L352.698 216.535L361.714 186.531L330.482 165.714L321.465 195.718ZM321.374 125.766L298.557 141.166L329.706 161.933L352.521 146.525L321.374 125.766ZM243.162 106.77L222.784 120.532C222.458 120.749 222.165 120.954 221.892 121.148C221.314 121.557 220.808 121.884 220.322 122.159L251.494 142.943L274.31 127.536L243.162 106.77ZM127.293 30.262L121.165 50.6448L139.4 38.3358L127.293 30.262ZM102.672 111.479L133.82 132.246L156.636 116.839L125.488 96.0722L102.672 111.479ZM111.017 150.922L142.165 171.689L164.981 156.282L133.833 135.515L111.016 150.915L111.017 150.922ZM109.356 153.077L100.34 183.081L131.565 203.899L140.582 173.895L109.349 153.078L109.356 153.077ZM124.094 238.189L155.327 259.006L164.344 229.002L133.118 208.183L124.101 238.188L124.094 238.189ZM158.491 257.9L180.177 243.256L188.775 214.647L167.088 229.291L158.491 257.9ZM183.739 240.856L205.432 226.211L213.984 197.764C211.839 199.449 208.861 201.384 204.532 204.199C201.312 206.296 197.322 208.886 192.344 212.246L183.746 240.855L183.739 240.856ZM208.986 223.805L230.672 209.162L239.27 180.553L217.577 195.197L208.979 223.806L208.986 223.805ZM311.636 228.439L342.862 249.257L351.878 219.253L320.645 198.436L311.629 228.44L311.636 228.439ZM436.61 134.83L405.462 114.063L382.646 129.47L413.794 150.237L436.61 134.83ZM403.018 112.438L371.87 91.671L349.054 107.078L380.202 127.845L403.018 112.438ZM290.214 101.73L321.362 122.497L344.178 107.089L313.03 86.3228L290.214 101.73ZM226.645 92.4967L231.967 74.7878L216.127 85.4867L226.645 92.4967ZM267.007 21.7714L235.859 1.00474L213.043 16.4119L244.191 37.1785L267.007 21.7714ZM233.415 -0.620722L202.267 -21.3873L179.451 -5.98017L210.599 14.7865L233.415 -0.620722ZM120.611 -11.3284L151.759 9.43823L174.575 -5.96895L143.427 -26.7356L120.611 -11.3284ZM95.3693 5.71444L126.517 26.4811L149.333 11.0739L118.185 -9.69274L95.3693 5.71444ZM93.7014 7.86994L84.685 37.8742L112.563 56.4566L117.61 53.0439L124.927 28.6882L93.7014 7.86994ZM70.5809 84.8017L80.8564 77.8654L74.029 73.3147L70.574 84.8027L70.5809 84.8017ZM69.0802 89.0873L100.228 109.854L123.044 94.4468L91.8961 73.6801C91.8961 73.6801 84.0461 78.9807 84.0392 78.9817L69.0792 89.0804L69.0802 89.0873ZM77.4249 128.53L108.573 149.297L131.39 133.896L100.242 113.13L77.4259 128.537L77.4249 128.53ZM75.7639 130.685L66.7475 160.689L97.9803 181.506L106.997 151.502L75.7707 130.684L75.7639 130.685ZM47.0742 226.127L78.3001 246.945L87.3165 216.941L56.0836 196.123L47.0673 226.128L47.0742 226.127ZM80.6661 248.519L111.892 269.337L120.908 239.333L89.6825 218.515L80.6661 248.519ZM114.258 270.911L145.491 291.728L154.507 261.724L123.275 240.907L114.258 270.911ZM173.511 274.113C174.484 273.331 175.689 272.367 177.17 271.369C180.968 268.808 183.98 266.917 186.395 265.402C192.828 261.373 197.495 254.142 200.394 243.71C201.403 240.086 202.612 235.724 204.205 230.309L182.499 244.963C179.829 253.829 177.749 260.418 176.225 265.255C174.996 269.149 174.03 272.205 173.511 274.113ZM268.208 238.769L299.441 259.587L308.457 229.582L277.224 208.765L268.208 238.769ZM301.8 261.162L333.026 281.98L342.043 251.982L310.817 231.164L301.801 261.168L301.8 261.162ZM392.966 216.456L401.564 187.847L379.877 202.491L371.279 231.1L392.966 216.456ZM436.648 138.081L414.955 152.726L406.357 181.335L428.043 166.691L436.641 138.082L436.648 138.081ZM250.451 80.2282L257.208 57.7381L235.515 72.3828L228.996 94.0656L229.471 94.3816L250.443 80.2224L250.451 80.2282ZM43.833 106.138L74.9811 126.905L97.797 111.497L66.6488 90.7308L43.833 106.138ZM416.976 203.526L395.289 218.169L386.691 246.778L408.378 232.135L416.976 203.526ZM452.059 153.753L430.373 168.396L421.775 197.005L443.461 182.361L452.059 153.753ZM461.896 121.037L440.21 135.681L431.612 164.29L453.298 149.646L461.896 121.037ZM307.117 45.2433L338.272 66.0089L361.081 50.6028L329.933 29.8362L307.117 45.2433ZM275.698 63.1775L282.456 40.6942L260.77 55.338L254.012 77.8281L275.699 63.1844L275.698 63.1775ZM137.514 -67.8151L168.662 -47.0484L191.479 -62.4487L160.331 -83.2154L137.515 -67.8082L137.514 -67.8151ZM35.0353 122.605L40.0978 105.749C40.1268 105.661 40.1785 105.583 40.2233 105.506C40.2457 105.468 40.2465 105.425 40.2943 105.369C40.387 105.236 40.5023 105.114 40.6422 105.016L51.5872 97.6229L30.6067 83.6371L21.5904 113.641L35.0353 122.605ZM3.6529 236.456L34.8857 257.273L43.902 227.269L12.6692 206.452L3.6529 236.456ZM432.387 219.197L410.7 233.841L402.096 262.451L423.789 247.806L432.387 219.197Z" fill="#0500E2"/>
</svg>
