<svg width="444" height="438" viewBox="0 0 444 438" fill="none" xmlns="http://www.w3.org/2000/svg">
<path d="M213.846 -72.4413C189.091 -80.6188 162.886 -84.3412 136.526 -83.2819C135.432 -83.2818 134.326 -83.2419 133.247 -83.1497C128.1 -82.8499 122.967 -82.458 117.837 -81.8028C103.474 -79.9683 89.1402 -76.6594 75.0618 -71.8262C65.2082 -68.4404 55.4947 -64.332 45.988 -59.4361C-60.6284 -4.52948 -102.717 126.777 -47.8499 233.316C-5.11271 316.302 84.0518 360.114 171.779 349.47C182.106 348.225 192.397 346.203 202.586 343.406C216.965 339.478 231.195 334.037 244.97 326.943C318.405 289.124 361.198 215.035 362.829 137.775C363.543 102.872 355.871 67.3218 338.808 34.1902C311.745 -18.3598 266.041 -55.1841 213.872 -72.4548L213.846 -72.4413ZM63.0415 306.964C24.6919 288.603 -5.87253 258.915 -25.361 221.072C-58.6505 156.432 -51.8415 81.5705 -14.1006 24.9505C-13.1169 23.4505 -10.772 24.5938 -11.3583 26.2864C-13.832 33.3217 -15.9742 40.5504 -17.7578 48.025C-29.9485 99.6323 -22.5184 157.426 2.63528 206.654C35.4935 270.458 113.681 317.34 182.69 281.801C244.287 250.079 263.725 164.741 226.056 91.5946C208.346 57.2068 179.828 30.1404 147.519 15.7874C146.367 15.2879 146.571 13.6263 147.807 13.3874C186.161 6.08514 230.771 31.5197 254.235 77.0823C274.95 117.306 280.957 164.873 270.744 207.581C260.141 251.848 233.414 287.002 195.479 306.571C155.54 327.139 107.223 327.255 63.0677 306.95L63.0415 306.964ZM230.482 -42.0038C268.765 -23.7077 299.276 5.94154 318.739 43.7973C352.028 108.438 345.219 183.299 307.478 239.919C306.495 241.419 304.15 240.276 304.736 238.583C307.21 231.548 309.365 224.28 311.135 216.845C323.34 165.264 315.896 107.444 290.742 58.2152C257.884 -5.58804 179.697 -52.4706 110.688 -16.9316C49.0909 14.7904 29.6523 100.129 67.322 173.275C85.0314 207.663 113.55 234.729 145.859 249.082C147.011 249.582 146.806 251.243 145.571 251.482C107.217 258.785 62.6202 233.376 39.1558 187.814C18.4409 147.59 12.4339 100.023 22.6467 57.315C33.2364 13.0221 60.0036 -22.1196 97.9518 -41.6626C137.864 -62.2172 186.168 -62.3594 230.442 -42.0165L230.482 -42.0038ZM205.838 102.007C229.302 147.569 227.403 198.314 204.759 232.325C201.962 236.546 196.969 238.754 191.967 237.985L182.637 236.532C144.34 230.561 107.904 202.34 87.5797 162.876C64.1153 117.313 66.0147 66.5689 88.6588 32.5573C91.4551 28.3359 96.4483 26.1286 101.45 26.8971L110.78 28.3501C149.078 34.3213 185.514 62.5419 205.838 102.007Z" stroke="#0500E2" stroke-width="2" stroke-miterlimit="10"/>
<path d="M302.083 -12.2982C283.403 -30.4913 261.456 -45.2474 237.305 -55.8551C236.324 -56.3435 235.319 -56.7526 234.299 -57.1878C229.56 -59.1841 224.756 -61.0478 219.85 -62.726C206.135 -67.3515 191.791 -70.6262 177.017 -72.4209C166.687 -73.6905 156.169 -74.2336 145.462 -73.9843C25.5806 -71.151 -69.699 28.6104 -66.9746 148.427C-64.835 241.758 -3.82768 320.137 79.7081 348.901C89.535 352.284 99.6701 354.978 110.047 356.918C124.714 359.663 139.839 360.979 155.352 360.605C237.925 358.675 308.792 310.723 344.033 241.914C359.94 210.842 368.605 175.487 367.737 138.22C366.39 79.115 341.389 26 302.043 -12.3108L302.083 -12.2982ZM0.514968 263.134C-25.9546 229.881 -40.4371 189.791 -41.4197 147.22C-43.0689 74.5293 -4.19337 10.1398 54.4874 -24.2855C56.0445 -25.1867 57.6488 -23.1654 56.3597 -21.8724C51.0462 -16.6195 45.9603 -11.0534 41.1027 -5.10824C7.55457 35.9757 -11.0352 91.2427 -9.94439 146.506C-8.30593 218.275 41.5068 294.604 119.101 292.788C188.347 291.165 243.156 222.907 241.263 140.608C240.379 101.959 226.58 65.1268 203.779 38.0959C202.991 37.1443 203.857 35.738 205.086 36.0653C242.774 46.2576 271.747 88.619 272.923 139.866C273.95 185.096 258.578 230.527 230.704 264.484C201.816 299.691 162.411 319.621 119.768 320.655C74.847 321.704 31.3553 300.693 0.554628 263.147L0.514968 263.134ZM303.685 22.339C330.114 55.5143 344.596 95.5377 345.512 138.11C347.162 210.801 308.326 275.203 249.619 309.642C248.062 310.543 246.457 308.521 247.746 307.228C253.06 301.976 258.146 296.409 263.003 290.464C296.552 249.38 315.141 194.113 314.05 138.85C312.412 67.0808 262.599 -9.24833 185.005 -7.43172C115.76 -5.80924 60.95 62.4486 62.8427 144.748C63.7271 183.397 77.5397 220.255 100.327 247.26C101.115 248.212 100.249 249.618 99.0202 249.291C61.3321 239.098 32.3591 196.737 31.1968 145.517C30.17 100.286 45.5549 54.881 73.4293 20.9241C102.317 -14.2829 141.749 -34.226 184.405 -35.2341C229.286 -36.2957 272.778 -15.2848 303.698 22.3652L303.685 22.339ZM218.533 141.122C219.708 192.369 195.807 237.193 160.573 257.888C156.203 260.469 150.734 260.273 146.59 257.374L138.808 251.978C106.975 229.864 86.5633 188.557 85.5465 144.181C84.3707 92.9349 108.272 48.1107 143.507 27.4158C147.876 24.8342 153.345 25.0308 157.489 27.9297L165.232 33.3128C197.065 55.4273 217.476 96.7345 218.493 141.11L218.533 141.122Z" stroke="#0500E2" stroke-width="2" stroke-miterlimit="10"/>
<path d="M211.684 -67.6503C186.929 -75.8278 160.724 -79.5502 134.364 -78.4909C133.27 -78.4907 132.164 -78.4509 131.085 -78.3587C125.938 -78.0589 120.805 -77.667 115.675 -77.0118C101.311 -75.1773 86.9781 -71.8684 72.8997 -67.0352C63.0461 -63.6494 53.3326 -59.541 43.8259 -54.6451C-62.7643 0.248051 -104.866 131.594 -50.012 238.107C-7.27482 321.093 81.8897 364.905 169.617 354.261C179.943 353.016 190.234 350.994 200.424 348.197C214.803 344.269 229.033 338.828 242.808 331.734C316.243 293.915 359.036 219.826 360.667 142.566C361.381 107.663 353.709 72.1128 336.646 38.9812C309.583 -13.5688 263.879 -50.3931 211.71 -67.6638L211.684 -67.6503ZM60.8532 311.768C22.5036 293.407 -8.06082 263.719 -27.5493 225.877C-60.8388 161.236 -54.0298 86.375 -16.2889 29.755C-15.3052 28.255 -12.9603 29.3983 -13.5466 31.0909C-16.0203 38.1262 -18.1625 45.3549 -19.9461 52.8295C-32.1368 104.437 -24.7067 162.23 0.446986 211.459C33.3052 275.262 111.493 322.145 180.501 286.606C242.098 254.884 261.537 169.545 223.867 96.3991C206.158 62.0113 177.64 34.9449 145.33 20.5919C144.178 20.0924 144.383 18.4308 145.619 18.1919C183.973 10.8896 228.583 36.3243 252.047 81.8868C272.762 122.111 278.769 169.677 268.556 212.385C257.953 256.652 231.225 291.806 193.291 311.376C153.352 331.944 105.035 332.06 60.8794 311.755L60.8532 311.768ZM228.294 -37.1993C266.577 -18.9032 297.088 10.7461 316.55 48.6018C349.84 113.243 343.031 188.104 305.29 244.724C304.306 246.224 301.961 245.08 302.548 243.388C305.021 236.352 307.176 229.084 308.947 221.649C321.151 170.068 313.708 112.249 288.554 63.0197C255.696 -0.78352 177.508 -47.6661 108.5 -12.1271C46.9026 19.5949 27.464 104.934 65.1337 178.08C82.8431 212.467 111.362 239.534 143.671 253.887C144.823 254.386 144.618 256.048 143.383 256.287C105.029 263.589 60.4319 238.181 36.9675 192.618C16.2526 152.394 10.2456 104.828 20.4584 62.1195C31.0481 17.8266 57.8153 -17.315 95.7635 -36.8581C135.676 -57.4127 183.98 -57.5549 228.254 -37.212L228.294 -37.1993ZM203.649 106.811C227.114 152.374 225.214 203.118 202.57 237.13C199.774 241.351 194.781 243.558 189.779 242.79L180.449 241.337C142.151 235.366 105.716 207.145 85.3914 167.68C61.9271 122.118 63.8264 71.3733 86.4705 37.3618C89.2668 33.1404 94.26 30.9331 99.2616 31.7016L108.592 33.1546C146.89 39.1258 183.325 67.3464 203.649 106.811Z" stroke="#0500E2" stroke-width="2" stroke-miterlimit="10"/>
<g style="mix-blend-mode:overlay">
<path d="M211.684 -67.6503C186.929 -75.8278 160.724 -79.5502 134.364 -78.4909C133.27 -78.4907 132.164 -78.4509 131.085 -78.3587C125.938 -78.0589 120.805 -77.667 115.675 -77.0118C101.311 -75.1773 86.9781 -71.8684 72.8997 -67.0352C63.0461 -63.6494 53.3326 -59.541 43.8259 -54.6451C-62.7643 0.248051 -104.866 131.594 -50.012 238.107C-7.27482 321.093 81.8897 364.905 169.617 354.261C179.943 353.016 190.234 350.994 200.424 348.197C214.803 344.269 229.033 338.828 242.808 331.734C316.243 293.915 359.036 219.826 360.667 142.566C361.381 107.663 353.709 72.1128 336.646 38.9812C309.583 -13.5688 263.879 -50.3931 211.71 -67.6638L211.684 -67.6503ZM60.8532 311.768C22.5036 293.407 -8.06082 263.719 -27.5493 225.877C-60.8388 161.236 -54.0298 86.375 -16.2889 29.755C-15.3052 28.255 -12.9603 29.3983 -13.5466 31.0909C-16.0203 38.1262 -18.1625 45.3549 -19.9461 52.8295C-32.1368 104.437 -24.7067 162.23 0.446986 211.459C33.3052 275.262 111.493 322.145 180.501 286.606C242.098 254.884 261.537 169.545 223.867 96.3991C206.158 62.0113 177.64 34.9449 145.33 20.5919C144.178 20.0924 144.383 18.4308 145.619 18.1919C183.973 10.8896 228.583 36.3243 252.047 81.8868C272.762 122.111 278.769 169.677 268.556 212.385C257.953 256.652 231.225 291.806 193.291 311.376C153.352 331.944 105.035 332.06 60.8794 311.755L60.8532 311.768ZM228.294 -37.1993C266.577 -18.9032 297.088 10.7461 316.55 48.6018C349.84 113.243 343.031 188.104 305.29 244.724C304.306 246.224 301.961 245.08 302.548 243.388C305.021 236.352 307.176 229.084 308.947 221.649C321.151 170.068 313.708 112.249 288.554 63.0197C255.696 -0.78352 177.508 -47.6661 108.5 -12.1271C46.9026 19.5949 27.464 104.934 65.1337 178.08C82.8431 212.467 111.362 239.534 143.671 253.887C144.823 254.386 144.618 256.048 143.383 256.287C105.029 263.589 60.4319 238.181 36.9675 192.618C16.2526 152.394 10.2456 104.828 20.4584 62.1195C31.0481 17.8266 57.8153 -17.315 95.7635 -36.8581C135.676 -57.4127 183.98 -57.5549 228.254 -37.212L228.294 -37.1993ZM203.649 106.811C227.114 152.374 225.214 203.118 202.57 237.13C199.774 241.351 194.781 243.558 189.779 242.79L180.449 241.337C142.151 235.366 105.716 207.145 85.3914 167.68C61.9271 122.118 63.8264 71.3733 86.4705 37.3618C89.2668 33.1404 94.26 30.9331 99.2616 31.7016L108.592 33.1546C146.89 39.1258 183.325 67.3464 203.649 106.811Z" stroke="#0500E2" stroke-width="2" stroke-miterlimit="10"/>
</g>
<g opacity="0.5">
<path d="M211.684 -67.6503C186.929 -75.8278 160.724 -79.5502 134.364 -78.4909C133.27 -78.4907 132.164 -78.4509 131.085 -78.3587C125.938 -78.0589 120.805 -77.667 115.675 -77.0118C101.311 -75.1773 86.9781 -71.8684 72.8997 -67.0352C63.0461 -63.6494 53.3326 -59.541 43.8259 -54.6451C-62.7643 0.248051 -104.866 131.594 -50.012 238.107C-7.27482 321.093 81.8897 364.905 169.617 354.261C179.943 353.016 190.234 350.994 200.424 348.197C214.803 344.269 229.033 338.828 242.808 331.734C316.243 293.915 359.036 219.826 360.667 142.566C361.381 107.663 353.709 72.1128 336.646 38.9812C309.583 -13.5688 263.879 -50.3931 211.71 -67.6638L211.684 -67.6503ZM60.8532 311.768C22.5036 293.407 -8.06082 263.719 -27.5493 225.877C-60.8388 161.236 -54.0298 86.375 -16.2889 29.755C-15.3052 28.255 -12.9603 29.3983 -13.5466 31.0909C-16.0203 38.1262 -18.1625 45.3549 -19.9461 52.8295C-32.1368 104.437 -24.7067 162.23 0.446986 211.459C33.3052 275.262 111.493 322.145 180.501 286.606C242.098 254.884 261.537 169.545 223.867 96.3991C206.158 62.0113 177.64 34.9449 145.33 20.5919C144.178 20.0924 144.383 18.4308 145.619 18.1919C183.973 10.8896 228.583 36.3243 252.047 81.8868C272.762 122.111 278.769 169.677 268.556 212.385C257.953 256.652 231.225 291.806 193.291 311.376C153.352 331.944 105.035 332.06 60.8794 311.755L60.8532 311.768ZM228.294 -37.1993C266.577 -18.9032 297.088 10.7461 316.55 48.6018C349.84 113.243 343.031 188.104 305.29 244.724C304.306 246.224 301.961 245.08 302.548 243.388C305.021 236.352 307.176 229.084 308.947 221.649C321.151 170.068 313.708 112.249 288.554 63.0197C255.696 -0.78352 177.508 -47.6661 108.5 -12.1271C46.9026 19.5949 27.464 104.934 65.1337 178.08C82.8431 212.467 111.362 239.534 143.671 253.887C144.823 254.386 144.618 256.048 143.383 256.287C105.029 263.589 60.4319 238.181 36.9675 192.618C16.2526 152.394 10.2456 104.828 20.4584 62.1195C31.0481 17.8266 57.8153 -17.315 95.7635 -36.8581C135.676 -57.4127 183.98 -57.5549 228.254 -37.212L228.294 -37.1993ZM203.649 106.811C227.114 152.374 225.214 203.118 202.57 237.13C199.774 241.351 194.781 243.558 189.779 242.79L180.449 241.337C142.151 235.366 105.716 207.145 85.3914 167.68C61.9271 122.118 63.8264 71.3733 86.4705 37.3618C89.2668 33.1404 94.26 30.9331 99.2616 31.7016L108.592 33.1546C146.89 39.1258 183.325 67.3464 203.649 106.811Z" stroke="#0500E2" stroke-width="2" stroke-miterlimit="10"/>
<g style="mix-blend-mode:overlay">
<path d="M211.684 -67.6503C186.929 -75.8278 160.724 -79.5502 134.364 -78.4909C133.27 -78.4907 132.164 -78.4509 131.085 -78.3587C125.938 -78.0589 120.805 -77.667 115.675 -77.0118C101.311 -75.1773 86.9781 -71.8684 72.8997 -67.0352C63.0461 -63.6494 53.3326 -59.541 43.8259 -54.6451C-62.7643 0.248051 -104.866 131.594 -50.012 238.107C-7.27482 321.093 81.8897 364.905 169.617 354.261C179.943 353.016 190.234 350.994 200.424 348.197C214.803 344.269 229.033 338.828 242.808 331.734C316.243 293.915 359.036 219.826 360.667 142.566C361.381 107.663 353.709 72.1128 336.646 38.9812C309.583 -13.5688 263.879 -50.3931 211.71 -67.6638L211.684 -67.6503ZM60.8532 311.768C22.5036 293.407 -8.06082 263.719 -27.5493 225.877C-60.8388 161.236 -54.0298 86.375 -16.2889 29.755C-15.3052 28.255 -12.9603 29.3983 -13.5466 31.0909C-16.0203 38.1262 -18.1625 45.3549 -19.9461 52.8295C-32.1368 104.437 -24.7067 162.23 0.446986 211.459C33.3052 275.262 111.493 322.145 180.501 286.606C242.098 254.884 261.537 169.545 223.867 96.3991C206.158 62.0113 177.64 34.9449 145.33 20.5919C144.178 20.0924 144.383 18.4308 145.619 18.1919C183.973 10.8896 228.583 36.3243 252.047 81.8868C272.762 122.111 278.769 169.677 268.556 212.385C257.953 256.652 231.225 291.806 193.291 311.376C153.352 331.944 105.035 332.06 60.8794 311.755L60.8532 311.768ZM228.294 -37.1993C266.577 -18.9032 297.088 10.7461 316.55 48.6018C349.84 113.243 343.031 188.104 305.29 244.724C304.306 246.224 301.961 245.08 302.548 243.388C305.021 236.352 307.176 229.084 308.947 221.649C321.151 170.068 313.708 112.249 288.554 63.0197C255.696 -0.78352 177.508 -47.6661 108.5 -12.1271C46.9026 19.5949 27.464 104.934 65.1337 178.08C82.8431 212.467 111.362 239.534 143.671 253.887C144.823 254.386 144.618 256.048 143.383 256.287C105.029 263.589 60.4319 238.181 36.9675 192.618C16.2526 152.394 10.2456 104.828 20.4584 62.1195C31.0481 17.8266 57.8153 -17.315 95.7635 -36.8581C135.676 -57.4127 183.98 -57.5549 228.254 -37.212L228.294 -37.1993ZM203.649 106.811C227.114 152.374 225.214 203.118 202.57 237.13C199.774 241.351 194.781 243.558 189.779 242.79L180.449 241.337C142.151 235.366 105.716 207.145 85.3914 167.68C61.9271 122.118 63.8264 71.3733 86.4705 37.3618C89.2668 33.1404 94.26 30.9331 99.2616 31.7016L108.592 33.1546C146.89 39.1258 183.325 67.3464 203.649 106.811Z" stroke="#0500E2" stroke-width="2" stroke-miterlimit="10"/>
</g>
</g>
</svg>
