<?xml version="1.0" encoding="UTF-8"?>
<!DOCTYPE svg PUBLIC "-//W3C//DTD SVG 1.1//EN" "http://www.w3.org/Graphics/SVG/1.1/DTD/svg11.dtd">
<svg width="234mm" height="132mm" viewBox="0 0 23400 13200" version="1.1" xmlns="http://www.w3.org/2000/svg" xmlns:xlink="http://www.w3.org/1999/xlink" stroke-width="28.222" stroke-linejoin="round" xml:space="preserve">
 <path fill="rgb(255,255,255)" stroke="none" d="M 11700,13163 L -13,13163 -13,-13 23412,-13 23412,13163 11700,13163 Z"/>
 <path fill="none" stroke="rgb(179,179,179)" stroke-linejoin="round" d="M 12973,10331 L 3003,10331 3003,449 22944,449 22944,10331 12973,10331 Z"/>
 <path fill="none" stroke="rgb(179,179,179)" stroke-linejoin="round" d="M 3003,448 L 3003,10330"/>
 <path fill="none" stroke="rgb(179,179,179)" stroke-linejoin="round" d="M 4195,448 L 4195,10330"/>
 <path fill="none" stroke="rgb(179,179,179)" stroke-linejoin="round" d="M 5349,448 L 5349,10330"/>
 <path fill="none" stroke="rgb(179,179,179)" stroke-linejoin="round" d="M 6542,448 L 6542,10330"/>
 <path fill="none" stroke="rgb(179,179,179)" stroke-linejoin="round" d="M 7735,448 L 7735,10330"/>
 <path fill="none" stroke="rgb(179,179,179)" stroke-linejoin="round" d="M 8928,448 L 8928,10330"/>
 <path fill="none" stroke="rgb(179,179,179)" stroke-linejoin="round" d="M 10082,448 L 10082,10330"/>
 <path fill="none" stroke="rgb(179,179,179)" stroke-linejoin="round" d="M 11275,448 L 11275,10330"/>
 <path fill="none" stroke="rgb(179,179,179)" stroke-linejoin="round" d="M 12467,448 L 12467,10330"/>
 <path fill="none" stroke="rgb(179,179,179)" stroke-linejoin="round" d="M 13660,448 L 13660,10330"/>
 <path fill="none" stroke="rgb(179,179,179)" stroke-linejoin="round" d="M 14814,448 L 14814,10330"/>
 <path fill="none" stroke="rgb(179,179,179)" stroke-linejoin="round" d="M 16007,448 L 16007,10330"/>
 <path fill="none" stroke="rgb(179,179,179)" stroke-linejoin="round" d="M 17199,448 L 17199,10330"/>
 <path fill="none" stroke="rgb(179,179,179)" stroke-linejoin="round" d="M 18392,448 L 18392,10330"/>
 <path fill="none" stroke="rgb(179,179,179)" stroke-linejoin="round" d="M 19559,448 L 19559,10330"/>
 <path fill="none" stroke="rgb(179,179,179)" stroke-linejoin="round" d="M 20752,448 L 20752,10330"/>
 <path fill="none" stroke="rgb(179,179,179)" stroke-linejoin="round" d="M 21945,448 L 21945,10330"/>
 <path fill="none" stroke="rgb(179,179,179)" stroke-linejoin="round" d="M 22944,10330 L 3003,10330"/>
 <path fill="none" stroke="rgb(179,179,179)" stroke-linejoin="round" d="M 22944,8353 L 3003,8353"/>
 <path fill="none" stroke="rgb(179,179,179)" stroke-linejoin="round" d="M 22944,6377 L 3003,6377"/>
 <path fill="none" stroke="rgb(179,179,179)" stroke-linejoin="round" d="M 22944,4401 L 3003,4401"/>
 <path fill="none" stroke="rgb(179,179,179)" stroke-linejoin="round" d="M 22944,2424 L 3003,2424"/>
 <path fill="none" stroke="rgb(179,179,179)" stroke-linejoin="round" d="M 22944,448 L 3003,448"/>
 <path fill="none" stroke="rgb(221,221,221)" stroke-linejoin="round" d="M 22944,9934 L 3003,9934"/>
 <path fill="none" stroke="rgb(221,221,221)" stroke-linejoin="round" d="M 22944,9539 L 3003,9539"/>
 <path fill="none" stroke="rgb(221,221,221)" stroke-linejoin="round" d="M 22944,9144 L 3003,9144"/>
 <path fill="none" stroke="rgb(221,221,221)" stroke-linejoin="round" d="M 22944,8748 L 3003,8748"/>
 <path fill="none" stroke="rgb(221,221,221)" stroke-linejoin="round" d="M 22944,7958 L 3003,7958"/>
 <path fill="none" stroke="rgb(221,221,221)" stroke-linejoin="round" d="M 22944,7562 L 3003,7562"/>
 <path fill="none" stroke="rgb(221,221,221)" stroke-linejoin="round" d="M 22944,7167 L 3003,7167"/>
 <path fill="none" stroke="rgb(221,221,221)" stroke-linejoin="round" d="M 22944,6772 L 3003,6772"/>
 <path fill="none" stroke="rgb(221,221,221)" stroke-linejoin="round" d="M 22944,5982 L 3003,5982"/>
 <path fill="none" stroke="rgb(221,221,221)" stroke-linejoin="round" d="M 22944,5587 L 3003,5587"/>
 <path fill="none" stroke="rgb(221,221,221)" stroke-linejoin="round" d="M 22944,5191 L 3003,5191"/>
 <path fill="none" stroke="rgb(221,221,221)" stroke-linejoin="round" d="M 22944,4796 L 3003,4796"/>
 <path fill="none" stroke="rgb(221,221,221)" stroke-linejoin="round" d="M 22944,4005 L 3003,4005"/>
 <path fill="none" stroke="rgb(221,221,221)" stroke-linejoin="round" d="M 22944,3610 L 3003,3610"/>
 <path fill="none" stroke="rgb(221,221,221)" stroke-linejoin="round" d="M 22944,3215 L 3003,3215"/>
 <path fill="none" stroke="rgb(221,221,221)" stroke-linejoin="round" d="M 22944,2819 L 3003,2819"/>
 <path fill="none" stroke="rgb(221,221,221)" stroke-linejoin="round" d="M 22944,2029 L 3003,2029"/>
 <path fill="none" stroke="rgb(221,221,221)" stroke-linejoin="round" d="M 22944,1633 L 3003,1633"/>
 <path fill="none" stroke="rgb(221,221,221)" stroke-linejoin="round" d="M 22944,1238 L 3003,1238"/>
 <path fill="none" stroke="rgb(221,221,221)" stroke-linejoin="round" d="M 22944,843 L 3003,843"/>
 <path fill="none" stroke="rgb(179,179,179)" stroke-linejoin="round" d="M 3003,10480 L 3003,10330"/>
 <path fill="none" stroke="rgb(179,179,179)" stroke-linejoin="round" d="M 3003,10480 L 3003,10330"/>
 <path fill="none" stroke="rgb(179,179,179)" stroke-linejoin="round" d="M 4195,10480 L 4195,10330"/>
 <path fill="none" stroke="rgb(179,179,179)" stroke-linejoin="round" d="M 4195,10480 L 4195,10330"/>
 <path fill="none" stroke="rgb(179,179,179)" stroke-linejoin="round" d="M 5349,10480 L 5349,10330"/>
 <path fill="none" stroke="rgb(179,179,179)" stroke-linejoin="round" d="M 5349,10480 L 5349,10330"/>
 <path fill="none" stroke="rgb(179,179,179)" stroke-linejoin="round" d="M 6542,10480 L 6542,10330"/>
 <path fill="none" stroke="rgb(179,179,179)" stroke-linejoin="round" d="M 6542,10480 L 6542,10330"/>
 <path fill="none" stroke="rgb(179,179,179)" stroke-linejoin="round" d="M 7735,10480 L 7735,10330"/>
 <path fill="none" stroke="rgb(179,179,179)" stroke-linejoin="round" d="M 7735,10480 L 7735,10330"/>
 <path fill="none" stroke="rgb(179,179,179)" stroke-linejoin="round" d="M 8928,10480 L 8928,10330"/>
 <path fill="none" stroke="rgb(179,179,179)" stroke-linejoin="round" d="M 8928,10480 L 8928,10330"/>
 <path fill="none" stroke="rgb(179,179,179)" stroke-linejoin="round" d="M 10082,10480 L 10082,10330"/>
 <path fill="none" stroke="rgb(179,179,179)" stroke-linejoin="round" d="M 10082,10480 L 10082,10330"/>
 <path fill="none" stroke="rgb(179,179,179)" stroke-linejoin="round" d="M 11275,10480 L 11275,10330"/>
 <path fill="none" stroke="rgb(179,179,179)" stroke-linejoin="round" d="M 11275,10480 L 11275,10330"/>
 <path fill="none" stroke="rgb(179,179,179)" stroke-linejoin="round" d="M 12467,10480 L 12467,10330"/>
 <path fill="none" stroke="rgb(179,179,179)" stroke-linejoin="round" d="M 12467,10480 L 12467,10330"/>
 <path fill="none" stroke="rgb(179,179,179)" stroke-linejoin="round" d="M 13660,10480 L 13660,10330"/>
 <path fill="none" stroke="rgb(179,179,179)" stroke-linejoin="round" d="M 13660,10480 L 13660,10330"/>
 <path fill="none" stroke="rgb(179,179,179)" stroke-linejoin="round" d="M 14814,10480 L 14814,10330"/>
 <path fill="none" stroke="rgb(179,179,179)" stroke-linejoin="round" d="M 14814,10480 L 14814,10330"/>
 <path fill="none" stroke="rgb(179,179,179)" stroke-linejoin="round" d="M 16007,10480 L 16007,10330"/>
 <path fill="none" stroke="rgb(179,179,179)" stroke-linejoin="round" d="M 16007,10480 L 16007,10330"/>
 <path fill="none" stroke="rgb(179,179,179)" stroke-linejoin="round" d="M 17199,10480 L 17199,10330"/>
 <path fill="none" stroke="rgb(179,179,179)" stroke-linejoin="round" d="M 17199,10480 L 17199,10330"/>
 <path fill="none" stroke="rgb(179,179,179)" stroke-linejoin="round" d="M 18392,10480 L 18392,10330"/>
 <path fill="none" stroke="rgb(179,179,179)" stroke-linejoin="round" d="M 18392,10480 L 18392,10330"/>
 <path fill="none" stroke="rgb(179,179,179)" stroke-linejoin="round" d="M 19559,10480 L 19559,10330"/>
 <path fill="none" stroke="rgb(179,179,179)" stroke-linejoin="round" d="M 19559,10480 L 19559,10330"/>
 <path fill="none" stroke="rgb(179,179,179)" stroke-linejoin="round" d="M 20752,10480 L 20752,10330"/>
 <path fill="none" stroke="rgb(179,179,179)" stroke-linejoin="round" d="M 20752,10480 L 20752,10330"/>
 <path fill="none" stroke="rgb(179,179,179)" stroke-linejoin="round" d="M 21945,10480 L 21945,10330"/>
 <path fill="none" stroke="rgb(179,179,179)" stroke-linejoin="round" d="M 21945,10480 L 21945,10330"/>
 <path fill="none" stroke="rgb(179,179,179)" stroke-linejoin="round" d="M 3003,10330 L 22944,10330"/>
 <path fill="none" stroke="rgb(179,179,179)" stroke-linejoin="round" d="M 2853,10330 L 3003,10330"/>
 <path fill="none" stroke="rgb(179,179,179)" stroke-linejoin="round" d="M 2853,10330 L 3003,10330"/>
 <path fill="none" stroke="rgb(179,179,179)" stroke-linejoin="round" d="M 2853,8353 L 3003,8353"/>
 <path fill="none" stroke="rgb(179,179,179)" stroke-linejoin="round" d="M 2853,8353 L 3003,8353"/>
 <path fill="none" stroke="rgb(179,179,179)" stroke-linejoin="round" d="M 2853,6377 L 3003,6377"/>
 <path fill="none" stroke="rgb(179,179,179)" stroke-linejoin="round" d="M 2853,6377 L 3003,6377"/>
 <path fill="none" stroke="rgb(179,179,179)" stroke-linejoin="round" d="M 2853,4401 L 3003,4401"/>
 <path fill="none" stroke="rgb(179,179,179)" stroke-linejoin="round" d="M 2853,4401 L 3003,4401"/>
 <path fill="none" stroke="rgb(179,179,179)" stroke-linejoin="round" d="M 2853,2424 L 3003,2424"/>
 <path fill="none" stroke="rgb(179,179,179)" stroke-linejoin="round" d="M 2853,2424 L 3003,2424"/>
 <path fill="none" stroke="rgb(179,179,179)" stroke-linejoin="round" d="M 2853,448 L 3003,448"/>
 <path fill="none" stroke="rgb(179,179,179)" stroke-linejoin="round" d="M 2853,448 L 3003,448"/>
 <path fill="none" stroke="rgb(179,179,179)" stroke-linejoin="round" d="M 3003,10330 L 3003,448"/>
 <path fill="none" stroke="rgb(0,146,246)" stroke-width="80" stroke-linejoin="round" d="M 3003,2104 L 3028,2104 3041,2104 3054,2104 3067,2104 3080,2104 3093,2104 3106,2104 3119,2104 3132,2104 3145,2104 3158,2104 3171,2104 3184,2104 3197,2104 3210,2104 3223,2104 3249,2104 3262,2104 3275,2104 3288,2104 3301,2104 3314,2104 3327,2104 3340,2104 3353,2104 3366,2104 3379,2104 3391,2104 3404,2104 3417,2104 3430,2104 3443,2104 3469,2104 3482,2104 3495,2104 3508,2104 3521,2104 3534,2104 3547,2104 3560,2104 3573,2104 3586,2104 3599,2104 3612,2104 3625,2104 3638,2104 3651,2104 3664,2104 3677,2104 3703,2104 3716,2104 3729,2104 3742,2104 3755,2104 3768,2104 3780,2104 3793,2104 3806,2104 3819,2104 3832,2104 3845,2104 3858,2104 3871,2104 3884,2104 3897,2104 3923,2104 3936,2104 3949,2104 3962,2104 3975,2104 3988,2104 4001,2104 4014,2104 4027,2104 4040,2104 4053,2104 4066,2104 4079,2104 4092,2104 4105,2104 4118,2104 4131,2104 4156,2104 4169,2104 4182,2104 4195,2104 4208,2104 4221,2104 4234,2104 4247,2104 4260,2104 4273,2104 4286,2104 4299,2104 4312,2104 4325,2104 4338,2104 4351,2104 4377,2104 4390,2104 4403,2104 4416,2104 4429,2104 4442,2104 4455,2104 4468,2104 4481,2104 4494,2104 4507,2104 4520,2104 4533,2104 4545,2104 4558,2104 4571,2104 4584,2104 4610,2104 4623,2104 4636,2104 4649,2104 4662,2104 4675,2104 4688,2104 4701,2104 4714,2104 4727,2104 4740,2104 4753,2104 4766,2104 4779,2104 4792,2104 4805,2104 4831,2104 4844,2104 4857,2104 4870,2104 4883,2104 4896,2104 4909,2104 4921,2104 4934,2104 4947,2104 4960,2104 4973,2104 4986,2104 4999,2104 5012,2104 5025,2104 5038,2104 5064,2104 5077,2104 5090,2104 5103,2104 5116,2104 5129,2104 5142,2104 5155,2104 5168,2104 5181,2104 5194,2104 5207,2104 5220,2104 5233,2104 5246,2104 5259,2104 5285,2104 5298,2104 5310,2104 5323,2104 5336,2104 5349,2104 5362,2104 5375,2104 5388,2104 5401,2104 5414,2104 5427,2104 5440,2104 5453,2104 5466,2104 5479,2104 5492,2104 5518,2104 5531,2104 5544,2104 5557,2104 5570,2104 5583,2104 5596,2104 5609,2104 5622,2108 5635,2112 5648,2116 5661,2124 5674,2128 5687,2136 5699,2143 5712,2151 5725,2159 5738,2167 5751,2175 5764,2187 5777,2199 5790,2211 5803,2226 5816,2242 5829,2262 5842,2282 5855,2306 5868,2329 5881,2357 5894,2392 5907,2428 5920,2472 5933,2523 5946,2578 5959,2642 5972,2713 5985,2784 5998,2863 6011,2938 6024,3013 6037,3080 6050,3144 6063,3203 6075,3250 6088,3298 6101,3337 6114,3369 6127,3401 6140,3424 6153,3448 6166,3468 6179,3488 6192,3503 6205,3519 6218,3531 6231,3543 6244,3555 6257,3567 6270,3574 6283,3582 6296,3590 6309,3598 6322,3606 6335,3610 6348,3618 6361,3622 6374,3626 7982,3634 8007,3642 8020,3650 8033,3654 8046,3661 8059,3665 8072,3673 8085,3681 8098,3689 8111,3701 8124,3709 8137,3721 8150,3733 8163,3744 8176,3760 8189,3776 8202,3796 8215,3816 8228,3839 8241,3867 8254,3899 8267,3930 8280,3970 8293,4017 8306,4069 8319,4124 8332,4191 8345,4262 8358,4337 8371,4417 8383,4496 8396,4575 8409,4646 8422,4709 8435,4768 8448,4824 8461,4867 8474,4907 8487,4942 8500,4974 8513,5002 8526,5025 8539,5049 8552,5065 8565,5085 8578,5100 8591,5112 8604,5124 8617,5136 8630,5148 8643,5156 8656,5164 8669,5172 8682,5179 8695,5187 8708,5195 8721,5199 8734,5207 8747,5211 10341,5215 10354,5219 10380,5223 10393,5227 10406,5231 10419,5235 10432,5239 10445,5243 10458,5247 10471,5251 10497,5262 10510,5266 10523,5274 10536,5282 10549,5290 10562,5302 10575,5310 10588,5322 10601,5338 10614,5353 10627,5369 10640,5393 10653,5413 10666,5440 10678,5472 10691,5504 10704,5539 10717,5579 10730,5622 10743,5662 10756,5701 10769,5737 10782,5772 10795,5800 10808,5828 10821,5852 10834,5871 10847,5891 10860,5907 10873,5919 10886,5931 10899,5942 10912,5954 10925,5962 10938,5970 10951,5978 10964,5982 10977,5990 10990,5994 11003,5998 11016,6002 11029,6006 11042,6010 11055,6014 11067,6018 11080,6022 11106,6025 12713,6029 12726,6033 12739,6041 12765,6053 12778,6057 12791,6065 12804,6073 12817,6081 12830,6089 12843,6101 12856,6112 12869,6120 12882,6136 12895,6148 12908,6164 12921,6184 12934,6203 12947,6223 12960,6247 12973,6278 12985,6310 12998,6346 13011,6385 13024,6433 13037,6488 13050,6551 13063,6617 13076,6693 13089,6772 13102,6855 13115,6942 13128,7021 13141,7096 13154,7167 13167,7230 13180,7286 13193,7333 13206,7376 13219,7412 13232,7444 13245,7475 13258,7499 13271,7523 13284,7542 13297,7558 13310,7574 13323,7590 13336,7606 13349,7618 13361,7626 13374,7637 13387,7645 13400,7653 13413,7661 13426,7669 13439,7677 13452,7685 13465,7689 13478,7697 15086,7701 15099,7705 15112,7709 15125,7712 15138,7716 15151,7720 15164,7724 15177,7728 15190,7732 15203,7736 15216,7740 15229,7748 15242,7756 15255,7764 15268,7772 15280,7780 15293,7788 15306,7799 15319,7815 15332,7827 15345,7843 15358,7863 15371,7886 15384,7910 15397,7938 15410,7969 15423,8005 15436,8045 15449,8084 15462,8128 15475,8171 15488,8211 15501,8250 15514,8286 15527,8317 15540,8345 15553,8373 15566,8392 15579,8412 15592,8428 15605,8444 15618,8456 15631,8468 15644,8479 15657,8487 15669,8495 15682,8503 15708,8515 15721,8523 15734,8527 15747,8531 15760,8535 15773,8539 15786,8543 15799,8547 15812,8551 15825,8555 17446,8558 17472,8562 17485,8566 17511,8570 17524,8574 17550,8578 17563,8582 17575,8586 17588,8590 17601,8598 17614,8602 17627,8606 17640,8614 17653,8622 17666,8630 17679,8638 17692,8645 17705,8657 17718,8669 17731,8685 17744,8701 17757,8721 17770,8740 17783,8764 17796,8792 17809,8823 17822,8855 17835,8887 17848,8918 17861,8950 17874,8981 17887,9009 17900,9033 17913,9053 17926,9072 17939,9088 17952,9104 17964,9116 17977,9128 17990,9136 18003,9147 18016,9155 18029,9159 18042,9167 18055,9171 18068,9179 18081,9183 18094,9187 18107,9191 18120,9195 18146,9199 18159,9203 18185,9207 18198,9211 19832,9215 19883,9219 19922,9223 19961,9227 19987,9231 20013,9234 20026,9238 20039,9242 20065,9246 20078,9254 20091,9258 20104,9262 20117,9270 20130,9278 20143,9286 20156,9294 20169,9306 20182,9314 20195,9325 20208,9337 20221,9345 20234,9357 20247,9365 20259,9373 20272,9381 20285,9389 20298,9393 20311,9397 20337,9404 20350,9408 20363,9412 20389,9416 20415,9420 20441,9424 20493,9428 20545,9432 22178,9436 22204,9440 22217,9444 22230,9448 22243,9452 22256,9456 22282,9464 22295,9468 22308,9476 22321,9480 22334,9487 22347,9491 22360,9499 22373,9507 22386,9519 22399,9527 22412,9539 22425,9555 22438,9570 22451,9586 22464,9606 22477,9630 22490,9654 22503,9681 22516,9717 22529,9752 22542,9792 22555,9835 22567,9879 22580,9926 22593,9970 22606,10009 22619,10045 22632,10080 22645,10108 22658,10136 22671,10156 22684,10175 22697,10195 22710,10211 22736,10235 22749,10246 22762,10254 22775,10262 22788,10270 22801,10278 22814,10286 22827,10290 22840,10298 22853,10302 22866,10306 22879,10310 22892,10314 22905,10318 22918,10322 22944,10326"/>
 <text class="SVGTextShape" transform="rotate(-44.9 2150 11741)"><tspan class="TextParagraph" font-family="Arial, sans-serif" font-size="353px" font-weight="400"><tspan class="TextPosition" x="2150" y="11741"><tspan fill="rgb(0,0,0)" stroke="none" style="white-space: pre">11/18/20</tspan></tspan></tspan></text>
 <text class="SVGTextShape" transform="rotate(-44.9 3342 11741)"><tspan class="TextParagraph" font-family="Arial, sans-serif" font-size="353px" font-weight="400"><tspan class="TextPosition" x="3342" y="11741"><tspan fill="rgb(0,0,0)" stroke="none" style="white-space: pre">02/18/21</tspan></tspan></tspan></text>
 <text class="SVGTextShape" transform="rotate(-44.9 4496 11741)"><tspan class="TextParagraph" font-family="Arial, sans-serif" font-size="353px" font-weight="400"><tspan class="TextPosition" x="4496" y="11741"><tspan fill="rgb(0,0,0)" stroke="none" style="white-space: pre">05/18/21</tspan></tspan></tspan></text>
 <text class="SVGTextShape" transform="rotate(-44.9 5689 11741)"><tspan class="TextParagraph" font-family="Arial, sans-serif" font-size="353px" font-weight="400"><tspan class="TextPosition" x="5689" y="11741"><tspan fill="rgb(0,0,0)" stroke="none" style="white-space: pre">08/18/21</tspan></tspan></tspan></text>
 <text class="SVGTextShape" transform="rotate(-44.9 6882 11741)"><tspan class="TextParagraph" font-family="Arial, sans-serif" font-size="353px" font-weight="400"><tspan class="TextPosition" x="6882" y="11741"><tspan fill="rgb(0,0,0)" stroke="none" style="white-space: pre">11/18/21</tspan></tspan></tspan></text>
 <text class="SVGTextShape" transform="rotate(-44.9 8075 11741)"><tspan class="TextParagraph" font-family="Arial, sans-serif" font-size="353px" font-weight="400"><tspan class="TextPosition" x="8075" y="11741"><tspan fill="rgb(0,0,0)" stroke="none" style="white-space: pre">02/18/22</tspan></tspan></tspan></text>
 <text class="SVGTextShape" transform="rotate(-44.9 9229 11741)"><tspan class="TextParagraph" font-family="Arial, sans-serif" font-size="353px" font-weight="400"><tspan class="TextPosition" x="9229" y="11741"><tspan fill="rgb(0,0,0)" stroke="none" style="white-space: pre">05/18/22</tspan></tspan></tspan></text>
 <text class="SVGTextShape" transform="rotate(-44.9 10422 11741)"><tspan class="TextParagraph" font-family="Arial, sans-serif" font-size="353px" font-weight="400"><tspan class="TextPosition" x="10422" y="11741"><tspan fill="rgb(0,0,0)" stroke="none" style="white-space: pre">08/18/22</tspan></tspan></tspan></text>
 <text class="SVGTextShape" transform="rotate(-44.9 11615 11741)"><tspan class="TextParagraph" font-family="Arial, sans-serif" font-size="353px" font-weight="400"><tspan class="TextPosition" x="11615" y="11741"><tspan fill="rgb(0,0,0)" stroke="none" style="white-space: pre">11/18/22</tspan></tspan></tspan></text>
 <text class="SVGTextShape" transform="rotate(-44.9 12808 11741)"><tspan class="TextParagraph" font-family="Arial, sans-serif" font-size="353px" font-weight="400"><tspan class="TextPosition" x="12808" y="11741"><tspan fill="rgb(0,0,0)" stroke="none" style="white-space: pre">02/18/23</tspan></tspan></tspan></text>
 <text class="SVGTextShape" transform="rotate(-44.9 13962 11741)"><tspan class="TextParagraph" font-family="Arial, sans-serif" font-size="353px" font-weight="400"><tspan class="TextPosition" x="13962" y="11741"><tspan fill="rgb(0,0,0)" stroke="none" style="white-space: pre">05/18/23</tspan></tspan></tspan></text>
 <text class="SVGTextShape" transform="rotate(-44.9 15155 11741)"><tspan class="TextParagraph" font-family="Arial, sans-serif" font-size="353px" font-weight="400"><tspan class="TextPosition" x="15155" y="11741"><tspan fill="rgb(0,0,0)" stroke="none" style="white-space: pre">08/18/23</tspan></tspan></tspan></text>
 <text class="SVGTextShape" transform="rotate(-44.9 16347 11741)"><tspan class="TextParagraph" font-family="Arial, sans-serif" font-size="353px" font-weight="400"><tspan class="TextPosition" x="16347" y="11741"><tspan fill="rgb(0,0,0)" stroke="none" style="white-space: pre">11/18/23</tspan></tspan></tspan></text>
 <text class="SVGTextShape" transform="rotate(-44.9 17539 11741)"><tspan class="TextParagraph" font-family="Arial, sans-serif" font-size="353px" font-weight="400"><tspan class="TextPosition" x="17539" y="11741"><tspan fill="rgb(0,0,0)" stroke="none" style="white-space: pre">02/18/24</tspan></tspan></tspan></text>
 <text class="SVGTextShape" transform="rotate(-44.9 18706 11741)"><tspan class="TextParagraph" font-family="Arial, sans-serif" font-size="353px" font-weight="400"><tspan class="TextPosition" x="18706" y="11741"><tspan fill="rgb(0,0,0)" stroke="none" style="white-space: pre">05/18/24</tspan></tspan></tspan></text>
 <text class="SVGTextShape" transform="rotate(-44.9 19899 11741)"><tspan class="TextParagraph" font-family="Arial, sans-serif" font-size="353px" font-weight="400"><tspan class="TextPosition" x="19899" y="11741"><tspan fill="rgb(0,0,0)" stroke="none" style="white-space: pre">08/18/24</tspan></tspan></tspan></text>
 <text class="SVGTextShape" transform="rotate(-44.9 21092 11741)"><tspan class="TextParagraph" font-family="Arial, sans-serif" font-size="353px" font-weight="400"><tspan class="TextPosition" x="21092" y="11741"><tspan fill="rgb(0,0,0)" stroke="none" style="white-space: pre">11/18/24</tspan></tspan></tspan></text>
 <text class="SVGTextShape"><tspan class="TextParagraph" font-family="Arial, sans-serif" font-size="353px" font-weight="400"><tspan class="TextPosition" x="1774" y="10451"><tspan fill="rgb(0,0,0)" stroke="none" style="white-space: pre">0.00%</tspan></tspan></tspan></text>
 <text class="SVGTextShape"><tspan class="TextParagraph" font-family="Arial, sans-serif" font-size="353px" font-weight="400"><tspan class="TextPosition" x="1774" y="8474"><tspan fill="rgb(0,0,0)" stroke="none" style="white-space: pre">5.00%</tspan></tspan></tspan></text>
 <text class="SVGTextShape"><tspan class="TextParagraph" font-family="Arial, sans-serif" font-size="353px" font-weight="400"><tspan class="TextPosition" x="1589" y="6497"><tspan fill="rgb(0,0,0)" stroke="none" style="white-space: pre">10.00%</tspan></tspan></tspan></text>
 <text class="SVGTextShape"><tspan class="TextParagraph" font-family="Arial, sans-serif" font-size="353px" font-weight="400"><tspan class="TextPosition" x="1589" y="4521"><tspan fill="rgb(0,0,0)" stroke="none" style="white-space: pre">15.00%</tspan></tspan></tspan></text>
 <text class="SVGTextShape"><tspan class="TextParagraph" font-family="Arial, sans-serif" font-size="353px" font-weight="400"><tspan class="TextPosition" x="1589" y="2544"><tspan fill="rgb(0,0,0)" stroke="none" style="white-space: pre">20.00%</tspan></tspan></tspan></text>
 <text class="SVGTextShape"><tspan class="TextParagraph" font-family="Arial, sans-serif" font-size="353px" font-weight="400"><tspan class="TextPosition" x="1589" y="568"><tspan fill="rgb(0,0,0)" stroke="none" style="white-space: pre">25.00%</tspan></tspan></tspan></text>
 <text class="SVGTextShape"><tspan class="TextParagraph" font-family="Arial, sans-serif" font-size="388px" font-weight="400"><tspan class="TextPosition" x="11022" y="12547"><tspan fill="rgb(0,0,0)" stroke="none" style="white-space: pre">Expected date</tspan></tspan></tspan></text>
 <text class="SVGTextShape" transform="rotate(-90 924 6698)"><tspan class="TextParagraph" font-family="Arial, sans-serif" font-size="388px" font-weight="400"><tspan class="TextPosition" x="924" y="6698"><tspan fill="rgb(0,0,0)" stroke="none" style="white-space: pre">Reward</tspan></tspan></tspan></text>
</svg>