<?xml version="1.0" encoding="UTF-8"?>
<!DOCTYPE svg PUBLIC "-//W3C//DTD SVG 1.1//EN" "http://www.w3.org/Graphics/SVG/1.1/DTD/svg11.dtd">
<svg width="289mm" height="179mm" viewBox="0 0 28900 17900" version="1.1" xmlns="http://www.w3.org/2000/svg" xmlns:xlink="http://www.w3.org/1999/xlink" stroke-width="28.222" stroke-linejoin="round" xml:space="preserve">
 <path fill="rgb(255,255,255)" stroke="none" d="M 14420,17864 L -13,17864 -13,-13 28853,-13 28853,17864 14420,17864 Z"/>
 <path fill="none" stroke="rgb(179,179,179)" stroke-linejoin="round" d="M 16069,15060 L 3996,15060 3996,1326 28143,1326 28143,15060 16069,15060 Z"/>
 <path fill="none" stroke="rgb(179,179,179)" stroke-linejoin="round" d="M 3996,1325 L 3996,15059"/>
 <path fill="none" stroke="rgb(179,179,179)" stroke-linejoin="round" d="M 5211,1325 L 5211,15059"/>
 <path fill="none" stroke="rgb(179,179,179)" stroke-linejoin="round" d="M 6388,1325 L 6388,15059"/>
 <path fill="none" stroke="rgb(179,179,179)" stroke-linejoin="round" d="M 7604,1325 L 7604,15059"/>
 <path fill="none" stroke="rgb(179,179,179)" stroke-linejoin="round" d="M 8820,1325 L 8820,15059"/>
 <path fill="none" stroke="rgb(179,179,179)" stroke-linejoin="round" d="M 10036,1325 L 10036,15059"/>
 <path fill="none" stroke="rgb(179,179,179)" stroke-linejoin="round" d="M 11212,1325 L 11212,15059"/>
 <path fill="none" stroke="rgb(179,179,179)" stroke-linejoin="round" d="M 12428,1325 L 12428,15059"/>
 <path fill="none" stroke="rgb(179,179,179)" stroke-linejoin="round" d="M 13644,1325 L 13644,15059"/>
 <path fill="none" stroke="rgb(179,179,179)" stroke-linejoin="round" d="M 14859,1325 L 14859,15059"/>
 <path fill="none" stroke="rgb(179,179,179)" stroke-linejoin="round" d="M 16035,1325 L 16035,15059"/>
 <path fill="none" stroke="rgb(179,179,179)" stroke-linejoin="round" d="M 17251,1325 L 17251,15059"/>
 <path fill="none" stroke="rgb(179,179,179)" stroke-linejoin="round" d="M 18467,1325 L 18467,15059"/>
 <path fill="none" stroke="rgb(179,179,179)" stroke-linejoin="round" d="M 19683,1325 L 19683,15059"/>
 <path fill="none" stroke="rgb(179,179,179)" stroke-linejoin="round" d="M 20873,1325 L 20873,15059"/>
 <path fill="none" stroke="rgb(179,179,179)" stroke-linejoin="round" d="M 22089,1325 L 22089,15059"/>
 <path fill="none" stroke="rgb(179,179,179)" stroke-linejoin="round" d="M 23305,1325 L 23305,15059"/>
 <path fill="none" stroke="rgb(179,179,179)" stroke-linejoin="round" d="M 24521,1325 L 24521,15059"/>
 <path fill="none" stroke="rgb(179,179,179)" stroke-linejoin="round" d="M 25697,1325 L 25697,15059"/>
 <path fill="none" stroke="rgb(179,179,179)" stroke-linejoin="round" d="M 26913,1325 L 26913,15059"/>
 <path fill="none" stroke="rgb(179,179,179)" stroke-linejoin="round" d="M 28129,1325 L 28129,15059"/>
 <path fill="none" stroke="rgb(179,179,179)" stroke-linejoin="round" d="M 28143,15059 L 3996,15059"/>
 <path fill="none" stroke="rgb(179,179,179)" stroke-linejoin="round" d="M 28143,13096 L 3996,13096"/>
 <path fill="none" stroke="rgb(179,179,179)" stroke-linejoin="round" d="M 28143,11134 L 3996,11134"/>
 <path fill="none" stroke="rgb(179,179,179)" stroke-linejoin="round" d="M 28143,9172 L 3996,9172"/>
 <path fill="none" stroke="rgb(179,179,179)" stroke-linejoin="round" d="M 28143,7211 L 3996,7211"/>
 <path fill="none" stroke="rgb(179,179,179)" stroke-linejoin="round" d="M 28143,5249 L 3996,5249"/>
 <path fill="none" stroke="rgb(179,179,179)" stroke-linejoin="round" d="M 28143,3287 L 3996,3287"/>
 <path fill="none" stroke="rgb(179,179,179)" stroke-linejoin="round" d="M 28143,1325 L 3996,1325"/>
 <path fill="none" stroke="rgb(179,179,179)" stroke-linejoin="round" d="M 3996,15209 L 3996,15059"/>
 <path fill="none" stroke="rgb(179,179,179)" stroke-linejoin="round" d="M 3996,15209 L 3996,15059"/>
 <path fill="none" stroke="rgb(179,179,179)" stroke-linejoin="round" d="M 5211,15209 L 5211,15059"/>
 <path fill="none" stroke="rgb(179,179,179)" stroke-linejoin="round" d="M 5211,15209 L 5211,15059"/>
 <path fill="none" stroke="rgb(179,179,179)" stroke-linejoin="round" d="M 6388,15209 L 6388,15059"/>
 <path fill="none" stroke="rgb(179,179,179)" stroke-linejoin="round" d="M 6388,15209 L 6388,15059"/>
 <path fill="none" stroke="rgb(179,179,179)" stroke-linejoin="round" d="M 7604,15209 L 7604,15059"/>
 <path fill="none" stroke="rgb(179,179,179)" stroke-linejoin="round" d="M 7604,15209 L 7604,15059"/>
 <path fill="none" stroke="rgb(179,179,179)" stroke-linejoin="round" d="M 8820,15209 L 8820,15059"/>
 <path fill="none" stroke="rgb(179,179,179)" stroke-linejoin="round" d="M 8820,15209 L 8820,15059"/>
 <path fill="none" stroke="rgb(179,179,179)" stroke-linejoin="round" d="M 10036,15209 L 10036,15059"/>
 <path fill="none" stroke="rgb(179,179,179)" stroke-linejoin="round" d="M 10036,15209 L 10036,15059"/>
 <path fill="none" stroke="rgb(179,179,179)" stroke-linejoin="round" d="M 11212,15209 L 11212,15059"/>
 <path fill="none" stroke="rgb(179,179,179)" stroke-linejoin="round" d="M 11212,15209 L 11212,15059"/>
 <path fill="none" stroke="rgb(179,179,179)" stroke-linejoin="round" d="M 12428,15209 L 12428,15059"/>
 <path fill="none" stroke="rgb(179,179,179)" stroke-linejoin="round" d="M 12428,15209 L 12428,15059"/>
 <path fill="none" stroke="rgb(179,179,179)" stroke-linejoin="round" d="M 13644,15209 L 13644,15059"/>
 <path fill="none" stroke="rgb(179,179,179)" stroke-linejoin="round" d="M 13644,15209 L 13644,15059"/>
 <path fill="none" stroke="rgb(179,179,179)" stroke-linejoin="round" d="M 14859,15209 L 14859,15059"/>
 <path fill="none" stroke="rgb(179,179,179)" stroke-linejoin="round" d="M 14859,15209 L 14859,15059"/>
 <path fill="none" stroke="rgb(179,179,179)" stroke-linejoin="round" d="M 16035,15209 L 16035,15059"/>
 <path fill="none" stroke="rgb(179,179,179)" stroke-linejoin="round" d="M 16035,15209 L 16035,15059"/>
 <path fill="none" stroke="rgb(179,179,179)" stroke-linejoin="round" d="M 17251,15209 L 17251,15059"/>
 <path fill="none" stroke="rgb(179,179,179)" stroke-linejoin="round" d="M 17251,15209 L 17251,15059"/>
 <path fill="none" stroke="rgb(179,179,179)" stroke-linejoin="round" d="M 18467,15209 L 18467,15059"/>
 <path fill="none" stroke="rgb(179,179,179)" stroke-linejoin="round" d="M 18467,15209 L 18467,15059"/>
 <path fill="none" stroke="rgb(179,179,179)" stroke-linejoin="round" d="M 19683,15209 L 19683,15059"/>
 <path fill="none" stroke="rgb(179,179,179)" stroke-linejoin="round" d="M 19683,15209 L 19683,15059"/>
 <path fill="none" stroke="rgb(179,179,179)" stroke-linejoin="round" d="M 20873,15209 L 20873,15059"/>
 <path fill="none" stroke="rgb(179,179,179)" stroke-linejoin="round" d="M 20873,15209 L 20873,15059"/>
 <path fill="none" stroke="rgb(179,179,179)" stroke-linejoin="round" d="M 22089,15209 L 22089,15059"/>
 <path fill="none" stroke="rgb(179,179,179)" stroke-linejoin="round" d="M 22089,15209 L 22089,15059"/>
 <path fill="none" stroke="rgb(179,179,179)" stroke-linejoin="round" d="M 23305,15209 L 23305,15059"/>
 <path fill="none" stroke="rgb(179,179,179)" stroke-linejoin="round" d="M 23305,15209 L 23305,15059"/>
 <path fill="none" stroke="rgb(179,179,179)" stroke-linejoin="round" d="M 24521,15209 L 24521,15059"/>
 <path fill="none" stroke="rgb(179,179,179)" stroke-linejoin="round" d="M 24521,15209 L 24521,15059"/>
 <path fill="none" stroke="rgb(179,179,179)" stroke-linejoin="round" d="M 25697,15209 L 25697,15059"/>
 <path fill="none" stroke="rgb(179,179,179)" stroke-linejoin="round" d="M 25697,15209 L 25697,15059"/>
 <path fill="none" stroke="rgb(179,179,179)" stroke-linejoin="round" d="M 26913,15209 L 26913,15059"/>
 <path fill="none" stroke="rgb(179,179,179)" stroke-linejoin="round" d="M 26913,15209 L 26913,15059"/>
 <path fill="none" stroke="rgb(179,179,179)" stroke-linejoin="round" d="M 28129,15209 L 28129,15059"/>
 <path fill="none" stroke="rgb(179,179,179)" stroke-linejoin="round" d="M 28129,15209 L 28129,15059"/>
 <path fill="none" stroke="rgb(179,179,179)" stroke-linejoin="round" d="M 3996,15059 L 28143,15059"/>
 <path fill="none" stroke="rgb(179,179,179)" stroke-linejoin="round" d="M 3846,15059 L 3996,15059"/>
 <path fill="none" stroke="rgb(179,179,179)" stroke-linejoin="round" d="M 3846,15059 L 3996,15059"/>
 <path fill="none" stroke="rgb(179,179,179)" stroke-linejoin="round" d="M 3846,13096 L 3996,13096"/>
 <path fill="none" stroke="rgb(179,179,179)" stroke-linejoin="round" d="M 3846,13096 L 3996,13096"/>
 <path fill="none" stroke="rgb(179,179,179)" stroke-linejoin="round" d="M 3846,11134 L 3996,11134"/>
 <path fill="none" stroke="rgb(179,179,179)" stroke-linejoin="round" d="M 3846,11134 L 3996,11134"/>
 <path fill="none" stroke="rgb(179,179,179)" stroke-linejoin="round" d="M 3846,9172 L 3996,9172"/>
 <path fill="none" stroke="rgb(179,179,179)" stroke-linejoin="round" d="M 3846,9172 L 3996,9172"/>
 <path fill="none" stroke="rgb(179,179,179)" stroke-linejoin="round" d="M 3846,7211 L 3996,7211"/>
 <path fill="none" stroke="rgb(179,179,179)" stroke-linejoin="round" d="M 3846,7211 L 3996,7211"/>
 <path fill="none" stroke="rgb(179,179,179)" stroke-linejoin="round" d="M 3846,5249 L 3996,5249"/>
 <path fill="none" stroke="rgb(179,179,179)" stroke-linejoin="round" d="M 3846,5249 L 3996,5249"/>
 <path fill="none" stroke="rgb(179,179,179)" stroke-linejoin="round" d="M 3846,3287 L 3996,3287"/>
 <path fill="none" stroke="rgb(179,179,179)" stroke-linejoin="round" d="M 3846,3287 L 3996,3287"/>
 <path fill="none" stroke="rgb(179,179,179)" stroke-linejoin="round" d="M 3846,1325 L 3996,1325"/>
 <path fill="none" stroke="rgb(179,179,179)" stroke-linejoin="round" d="M 3846,1325 L 3996,1325"/>
 <path fill="none" stroke="rgb(179,179,179)" stroke-linejoin="round" d="M 3996,15059 L 3996,1325"/>
 <path fill="rgb(102,102,102)" stroke="none" d="M 4002,15034 L 5218,15009 6394,14985 7610,14960 8826,14936 10042,14911 11219,14887 12435,14862 13651,14838 14866,14813 16042,14789 17258,14764 18474,14740 19690,14715 20880,14691 22096,14666 23312,14642 24528,14617 25704,14592 26920,14568 28136,14543 28143,14543 28143,15059 4002,15059 4002,15034 Z"/>
 <g style="opacity: 0.498039215686275">
  <path fill="none" stroke="rgb(0,0,0)" stroke-linejoin="round" d="M 4002,15034 L 5218,15009 6394,14985 7610,14960 8826,14936 10042,14911 11219,14887 12435,14862 13651,14838 14866,14813 16042,14789 17258,14764 18474,14740 19690,14715 20880,14691 22096,14666 23312,14642 24528,14617 25704,14592 26920,14568 28136,14543 28143,14543 28143,15059 4002,15059 4002,15034 Z"/>
 </g>
 <path fill="rgb(63,166,82)" stroke="none" d="M 4002,14308 L 5218,14283 6394,14259 7610,13436 8826,13411 10042,12661 11219,12564 12435,12467 13651,12369 14866,12272 16042,12211 17258,12151 18474,12090 19690,12029 20880,11968 22096,11907 23312,11846 24528,11786 25704,11725 26920,11664 28136,11603 28143,11603 28143,14543 28136,14543 26920,14568 25704,14592 24528,14617 23312,14642 22096,14666 20880,14691 19690,14715 18474,14740 17258,14764 16042,14789 14866,14813 13651,14838 12435,14862 11219,14887 10042,14911 8826,14936 7610,14960 6394,14985 5218,15009 4002,15034 4002,14308 Z"/>
 <g style="opacity: 0.498039215686275">
  <path fill="none" stroke="rgb(0,0,0)" stroke-linejoin="round" d="M 4002,14308 L 5218,14283 6394,14259 7610,13436 8826,13411 10042,12661 11219,12564 12435,12467 13651,12369 14866,12272 16042,12211 17258,12151 18474,12090 19690,12029 20880,11968 22096,11907 23312,11846 24528,11786 25704,11725 26920,11664 28136,11603 28143,11603 28143,14543 28136,14543 26920,14568 25704,14592 24528,14617 23312,14642 22096,14666 20880,14691 19690,14715 18474,14740 17258,14764 16042,14789 14866,14813 13651,14838 12435,14862 11219,14887 10042,14911 8826,14936 7610,14960 6394,14985 5218,15009 4002,15034 4002,14308 Z"/>
 </g>
 <path fill="rgb(0,146,246)" stroke="none" d="M 4002,13817 L 5218,13793 6394,13768 7610,12945 8826,12921 10042,12170 11219,12073 12435,11780 13651,11683 14866,11586 16042,11525 17258,11415 18474,11354 19690,11293 20880,11232 22096,11122 23312,11013 24528,10903 25704,10793 26920,10683 28136,10573 28143,10572 28143,11603 28136,11603 26920,11664 25704,11725 24528,11786 23312,11846 22096,11907 20880,11968 19690,12029 18474,12090 17258,12151 16042,12211 14866,12272 13651,12369 12435,12467 11219,12564 10042,12661 8826,13411 7610,13436 6394,14259 5218,14283 4002,14308 4002,13817 Z"/>
 <g style="opacity: 0.498039215686275">
  <path fill="none" stroke="rgb(0,0,0)" stroke-linejoin="round" d="M 4002,13817 L 5218,13793 6394,13768 7610,12945 8826,12921 10042,12170 11219,12073 12435,11780 13651,11683 14866,11586 16042,11525 17258,11415 18474,11354 19690,11293 20880,11232 22096,11122 23312,11013 24528,10903 25704,10793 26920,10683 28136,10573 28143,10572 28143,11603 28136,11603 26920,11664 25704,11725 24528,11786 23312,11846 22096,11907 20880,11968 19690,12029 18474,12090 17258,12151 16042,12211 14866,12272 13651,12369 12435,12467 11219,12564 10042,12661 8826,13411 7610,13436 6394,14259 5218,14283 4002,14308 4002,13817 Z"/>
 </g>
 <path fill="rgb(255,66,18)" stroke="none" d="M 4002,13817 L 5218,13793 6394,13768 7610,12357 8826,12038 10042,10993 11219,10601 12435,10014 13651,9622 14866,9231 16042,8896 17258,8512 18474,8176 19690,7841 20880,7544 22096,7199 23312,7089 24528,6979 25704,6870 26920,6760 28136,6650 28143,6649 28143,10572 28136,10573 26920,10683 25704,10793 24528,10903 23312,11013 22096,11122 20880,11232 19690,11293 18474,11354 17258,11415 16042,11525 14866,11586 13651,11683 12435,11780 11219,12073 10042,12170 8826,12921 7610,12945 6394,13768 5218,13793 4002,13817 Z"/>
 <g style="opacity: 0.498039215686275">
  <path fill="none" stroke="rgb(0,0,0)" stroke-linejoin="round" d="M 4002,13817 L 5218,13793 6394,13768 7610,12357 8826,12038 10042,10993 11219,10601 12435,10014 13651,9622 14866,9231 16042,8896 17258,8512 18474,8176 19690,7841 20880,7544 22096,7199 23312,7089 24528,6979 25704,6870 26920,6760 28136,6650 28143,6649 28143,10572 28136,10573 26920,10683 25704,10793 24528,10903 23312,11013 22096,11122 20880,11232 19690,11293 18474,11354 17258,11415 16042,11525 14866,11586 13651,11683 12435,11780 11219,12073 10042,12170 8826,12921 7610,12945 6394,13768 5218,13793 4002,13817 Z"/>
 </g>
 <path fill="rgb(221,221,221)" stroke="none" d="M 4002,12328 L 5218,12304 6394,12279 7610,9378 8826,9059 10042,6481 11219,6090 12435,5502 13651,5110 14866,4719 16042,4383 17258,3999 18474,3663 19690,3328 20880,3032 22096,2686 23312,2576 24528,2466 25704,2357 26920,2247 28136,2137 28143,2136 28143,6649 28136,6650 26920,6760 25704,6870 24528,6979 23312,7089 22096,7199 20880,7544 19690,7841 18474,8176 17258,8512 16042,8896 14866,9231 13651,9622 12435,10014 11219,10601 10042,10993 8826,12038 7610,12357 6394,13768 5218,13793 4002,13817 4002,12328 Z"/>
 <g style="opacity: 0.498039215686275">
  <path fill="none" stroke="rgb(0,0,0)" stroke-linejoin="round" d="M 4002,12328 L 5218,12304 6394,12279 7610,9378 8826,9059 10042,6481 11219,6090 12435,5502 13651,5110 14866,4719 16042,4383 17258,3999 18474,3663 19690,3328 20880,3032 22096,2686 23312,2576 24528,2466 25704,2357 26920,2247 28136,2137 28143,2136 28143,6649 28136,6650 26920,6760 25704,6870 24528,6979 23312,7089 22096,7199 20880,7544 19690,7841 18474,8176 17258,8512 16042,8896 14866,9231 13651,9622 12435,10014 11219,10601 10042,10993 8826,12038 7610,12357 6394,13768 5218,13793 4002,13817 4002,12328 Z"/>
 </g>
 <text class="SVGTextShape" transform="rotate(-44.9 3149 16470)"><tspan class="TextParagraph" font-family="Arial, sans-serif" font-size="353px" font-weight="400"><tspan class="TextPosition" x="3149" y="16470"><tspan fill="rgb(0,0,0)" stroke="none" style="white-space: pre">11/18/20</tspan></tspan></tspan></text>
 <text class="SVGTextShape" transform="rotate(-44.9 4365 16470)"><tspan class="TextParagraph" font-family="Arial, sans-serif" font-size="353px" font-weight="400"><tspan class="TextPosition" x="4365" y="16470"><tspan fill="rgb(0,0,0)" stroke="none" style="white-space: pre">02/18/21</tspan></tspan></tspan></text>
 <text class="SVGTextShape" transform="rotate(-44.9 5541 16470)"><tspan class="TextParagraph" font-family="Arial, sans-serif" font-size="353px" font-weight="400"><tspan class="TextPosition" x="5541" y="16470"><tspan fill="rgb(0,0,0)" stroke="none" style="white-space: pre">05/18/21</tspan></tspan></tspan></text>
 <text class="SVGTextShape" transform="rotate(-44.9 6757 16470)"><tspan class="TextParagraph" font-family="Arial, sans-serif" font-size="353px" font-weight="400"><tspan class="TextPosition" x="6757" y="16470"><tspan fill="rgb(0,0,0)" stroke="none" style="white-space: pre">08/18/21</tspan></tspan></tspan></text>
 <text class="SVGTextShape" transform="rotate(-44.9 7973 16470)"><tspan class="TextParagraph" font-family="Arial, sans-serif" font-size="353px" font-weight="400"><tspan class="TextPosition" x="7973" y="16470"><tspan fill="rgb(0,0,0)" stroke="none" style="white-space: pre">11/18/21</tspan></tspan></tspan></text>
 <text class="SVGTextShape" transform="rotate(-44.9 9189 16470)"><tspan class="TextParagraph" font-family="Arial, sans-serif" font-size="353px" font-weight="400"><tspan class="TextPosition" x="9189" y="16470"><tspan fill="rgb(0,0,0)" stroke="none" style="white-space: pre">02/18/22</tspan></tspan></tspan></text>
 <text class="SVGTextShape" transform="rotate(-44.9 10366 16470)"><tspan class="TextParagraph" font-family="Arial, sans-serif" font-size="353px" font-weight="400"><tspan class="TextPosition" x="10366" y="16470"><tspan fill="rgb(0,0,0)" stroke="none" style="white-space: pre">05/18/22</tspan></tspan></tspan></text>
 <text class="SVGTextShape" transform="rotate(-44.9 11582 16470)"><tspan class="TextParagraph" font-family="Arial, sans-serif" font-size="353px" font-weight="400"><tspan class="TextPosition" x="11582" y="16470"><tspan fill="rgb(0,0,0)" stroke="none" style="white-space: pre">08/18/22</tspan></tspan></tspan></text>
 <text class="SVGTextShape" transform="rotate(-44.9 12798 16470)"><tspan class="TextParagraph" font-family="Arial, sans-serif" font-size="353px" font-weight="400"><tspan class="TextPosition" x="12798" y="16470"><tspan fill="rgb(0,0,0)" stroke="none" style="white-space: pre">11/18/22</tspan></tspan></tspan></text>
 <text class="SVGTextShape" transform="rotate(-44.9 14014 16470)"><tspan class="TextParagraph" font-family="Arial, sans-serif" font-size="353px" font-weight="400"><tspan class="TextPosition" x="14014" y="16470"><tspan fill="rgb(0,0,0)" stroke="none" style="white-space: pre">02/18/23</tspan></tspan></tspan></text>
 <text class="SVGTextShape" transform="rotate(-44.9 15190 16470)"><tspan class="TextParagraph" font-family="Arial, sans-serif" font-size="353px" font-weight="400"><tspan class="TextPosition" x="15190" y="16470"><tspan fill="rgb(0,0,0)" stroke="none" style="white-space: pre">05/18/23</tspan></tspan></tspan></text>
 <text class="SVGTextShape" transform="rotate(-44.9 16406 16470)"><tspan class="TextParagraph" font-family="Arial, sans-serif" font-size="353px" font-weight="400"><tspan class="TextPosition" x="16406" y="16470"><tspan fill="rgb(0,0,0)" stroke="none" style="white-space: pre">08/18/23</tspan></tspan></tspan></text>
 <text class="SVGTextShape" transform="rotate(-44.9 17622 16470)"><tspan class="TextParagraph" font-family="Arial, sans-serif" font-size="353px" font-weight="400"><tspan class="TextPosition" x="17622" y="16470"><tspan fill="rgb(0,0,0)" stroke="none" style="white-space: pre">11/18/23</tspan></tspan></tspan></text>
 <text class="SVGTextShape" transform="rotate(-44.9 18838 16470)"><tspan class="TextParagraph" font-family="Arial, sans-serif" font-size="353px" font-weight="400"><tspan class="TextPosition" x="18838" y="16470"><tspan fill="rgb(0,0,0)" stroke="none" style="white-space: pre">02/18/24</tspan></tspan></tspan></text>
 <text class="SVGTextShape" transform="rotate(-44.9 20028 16470)"><tspan class="TextParagraph" font-family="Arial, sans-serif" font-size="353px" font-weight="400"><tspan class="TextPosition" x="20028" y="16470"><tspan fill="rgb(0,0,0)" stroke="none" style="white-space: pre">05/18/24</tspan></tspan></tspan></text>
 <text class="SVGTextShape" transform="rotate(-44.9 21243 16470)"><tspan class="TextParagraph" font-family="Arial, sans-serif" font-size="353px" font-weight="400"><tspan class="TextPosition" x="21243" y="16470"><tspan fill="rgb(0,0,0)" stroke="none" style="white-space: pre">08/18/24</tspan></tspan></tspan></text>
 <text class="SVGTextShape" transform="rotate(-44.9 22459 16470)"><tspan class="TextParagraph" font-family="Arial, sans-serif" font-size="353px" font-weight="400"><tspan class="TextPosition" x="22459" y="16470"><tspan fill="rgb(0,0,0)" stroke="none" style="white-space: pre">11/18/24</tspan></tspan></tspan></text>
 <text class="SVGTextShape" transform="rotate(-44.9 23675 16470)"><tspan class="TextParagraph" font-family="Arial, sans-serif" font-size="353px" font-weight="400"><tspan class="TextPosition" x="23675" y="16470"><tspan fill="rgb(0,0,0)" stroke="none" style="white-space: pre">02/18/25</tspan></tspan></tspan></text>
 <text class="SVGTextShape" transform="rotate(-44.9 24851 16470)"><tspan class="TextParagraph" font-family="Arial, sans-serif" font-size="353px" font-weight="400"><tspan class="TextPosition" x="24851" y="16470"><tspan fill="rgb(0,0,0)" stroke="none" style="white-space: pre">05/18/25</tspan></tspan></tspan></text>
 <text class="SVGTextShape" transform="rotate(-44.9 26067 16470)"><tspan class="TextParagraph" font-family="Arial, sans-serif" font-size="353px" font-weight="400"><tspan class="TextPosition" x="26067" y="16470"><tspan fill="rgb(0,0,0)" stroke="none" style="white-space: pre">08/18/25</tspan></tspan></tspan></text>
 <text class="SVGTextShape" transform="rotate(-44.9 27283 16470)"><tspan class="TextParagraph" font-family="Arial, sans-serif" font-size="353px" font-weight="400"><tspan class="TextPosition" x="27283" y="16470"><tspan fill="rgb(0,0,0)" stroke="none" style="white-space: pre">11/18/25</tspan></tspan></tspan></text>
 <text class="SVGTextShape"><tspan class="TextParagraph" font-family="Arial, sans-serif" font-size="353px" font-weight="400"><tspan class="TextPosition" x="3561" y="15180"><tspan fill="rgb(0,0,0)" stroke="none" style="white-space: pre">0</tspan></tspan></tspan></text>
 <text class="SVGTextShape"><tspan class="TextParagraph" font-family="Arial, sans-serif" font-size="353px" font-weight="400"><tspan class="TextPosition" x="1576" y="13217"><tspan fill="rgb(0,0,0)" stroke="none" style="white-space: pre">1,000,000,000</tspan></tspan></tspan></text>
 <text class="SVGTextShape"><tspan class="TextParagraph" font-family="Arial, sans-serif" font-size="353px" font-weight="400"><tspan class="TextPosition" x="1576" y="11255"><tspan fill="rgb(0,0,0)" stroke="none" style="white-space: pre">2,000,000,000</tspan></tspan></tspan></text>
 <text class="SVGTextShape"><tspan class="TextParagraph" font-family="Arial, sans-serif" font-size="353px" font-weight="400"><tspan class="TextPosition" x="1576" y="9293"><tspan fill="rgb(0,0,0)" stroke="none" style="white-space: pre">3,000,000,000</tspan></tspan></tspan></text>
 <text class="SVGTextShape"><tspan class="TextParagraph" font-family="Arial, sans-serif" font-size="353px" font-weight="400"><tspan class="TextPosition" x="1576" y="7331"><tspan fill="rgb(0,0,0)" stroke="none" style="white-space: pre">4,000,000,000</tspan></tspan></tspan></text>
 <text class="SVGTextShape"><tspan class="TextParagraph" font-family="Arial, sans-serif" font-size="353px" font-weight="400"><tspan class="TextPosition" x="1576" y="5369"><tspan fill="rgb(0,0,0)" stroke="none" style="white-space: pre">5,000,000,000</tspan></tspan></tspan></text>
 <text class="SVGTextShape"><tspan class="TextParagraph" font-family="Arial, sans-serif" font-size="353px" font-weight="400"><tspan class="TextPosition" x="1576" y="3407"><tspan fill="rgb(0,0,0)" stroke="none" style="white-space: pre">6,000,000,000</tspan></tspan></tspan></text>
 <text class="SVGTextShape"><tspan class="TextParagraph" font-family="Arial, sans-serif" font-size="353px" font-weight="400"><tspan class="TextPosition" x="1576" y="1445"><tspan fill="rgb(0,0,0)" stroke="none" style="white-space: pre">7,000,000,000</tspan></tspan></tspan></text>
 <path fill="rgb(102,102,102)" stroke="none" d="M 5320,795 L 5215,795 5215,584 5426,584 5426,795 5320,795 Z"/>
 <g style="opacity: 0.498039215686275">
  <path fill="none" stroke="rgb(0,0,0)" stroke-linejoin="round" d="M 5320,795 L 5215,795 5215,584 5426,584 5426,795 5320,795 Z"/>
 </g>
 <path fill="rgb(63,166,82)" stroke="none" d="M 11595,795 L 11490,795 11490,584 11701,584 11701,795 11595,795 Z"/>
 <g style="opacity: 0.498039215686275">
  <path fill="none" stroke="rgb(0,0,0)" stroke-linejoin="round" d="M 11595,795 L 11490,795 11490,584 11701,584 11701,795 11595,795 Z"/>
 </g>
 <path fill="rgb(0,146,246)" stroke="none" d="M 17314,795 L 17208,795 17208,584 17419,584 17419,795 17314,795 Z"/>
 <g style="opacity: 0.498039215686275">
  <path fill="none" stroke="rgb(0,0,0)" stroke-linejoin="round" d="M 17314,795 L 17208,795 17208,584 17419,584 17419,795 17314,795 Z"/>
 </g>
 <path fill="rgb(255,66,18)" stroke="none" d="M 20784,795 L 20678,795 20678,584 20889,584 20889,795 20784,795 Z"/>
 <g style="opacity: 0.498039215686275">
  <path fill="none" stroke="rgb(0,0,0)" stroke-linejoin="round" d="M 20784,795 L 20678,795 20678,584 20889,584 20889,795 20784,795 Z"/>
 </g>
 <path fill="rgb(221,221,221)" stroke="none" d="M 25233,795 L 25127,795 25127,584 25338,584 25338,795 25233,795 Z"/>
 <g style="opacity: 0.498039215686275">
  <path fill="none" stroke="rgb(0,0,0)" stroke-linejoin="round" d="M 25233,795 L 25127,795 25127,584 25338,584 25338,795 25233,795 Z"/>
 </g>
 <text class="SVGTextShape"><tspan class="TextParagraph" font-family="Arial, sans-serif" font-size="353px" font-weight="400"><tspan class="TextPosition" x="5526" y="809"><tspan fill="rgb(0,0,0)" stroke="none" style="white-space: pre">Strategic Partners &amp; Reserve</tspan></tspan></tspan></text>
 <text class="SVGTextShape"><tspan class="TextParagraph" font-family="Arial, sans-serif" font-size="353px" font-weight="400"><tspan class="TextPosition" x="11801" y="809"><tspan fill="rgb(0,0,0)" stroke="none" style="white-space: pre">Community &amp; Ecosystem</tspan></tspan></tspan></text>
 <text class="SVGTextShape"><tspan class="TextParagraph" font-family="Arial, sans-serif" font-size="353px" font-weight="400"><tspan class="TextPosition" x="17519" y="809"><tspan fill="rgb(0,0,0)" stroke="none" style="white-space: pre">Foundation</tspan></tspan></tspan></text>
 <text class="SVGTextShape"><tspan class="TextParagraph" font-family="Arial, sans-serif" font-size="353px" font-weight="400"><tspan class="TextPosition" x="20989" y="809"><tspan fill="rgb(0,0,0)" stroke="none" style="white-space: pre">Core Contributors</tspan></tspan></tspan></text>
 <text class="SVGTextShape"><tspan class="TextParagraph" font-family="Arial, sans-serif" font-size="353px" font-weight="400"><tspan class="TextPosition" x="25438" y="809"><tspan fill="rgb(0,0,0)" stroke="none" style="white-space: pre">Backers</tspan></tspan></tspan></text>
 <text class="SVGTextShape"><tspan class="TextParagraph" font-family="Arial, sans-serif" font-size="318px" font-weight="400"><tspan class="TextPosition" x="13060" y="17270"><tspan fill="rgb(0,0,0)" stroke="none" style="white-space: pre">Expected distribution date</tspan></tspan></tspan></text>
 <text class="SVGTextShape" transform="rotate(-90 824 10308)"><tspan class="TextParagraph" font-family="Arial, sans-serif" font-size="318px" font-weight="400"><tspan class="TextPosition" x="824" y="10308"><tspan fill="rgb(0,0,0)" stroke="none" style="white-space: pre">Tokens in circulation</tspan></tspan></tspan></text>
</svg>