<?xml version="1.0" encoding="UTF-8"?>
<!DOCTYPE svg PUBLIC "-//W3C//DTD SVG 1.1//EN" "http://www.w3.org/Graphics/SVG/1.1/DTD/svg11.dtd">
<svg width="289mm" height="179mm" viewBox="0 0 28900 17900" version="1.1" xmlns="http://www.w3.org/2000/svg" xmlns:xlink="http://www.w3.org/1999/xlink" stroke-width="28.222" stroke-linejoin="round" xml:space="preserve">
 <path fill="rgb(255,255,255)" stroke="none" d="M 14420,17864 L -13,17864 -13,-13 28853,-13 28853,17864 14420,17864 Z"/>
 <path fill="none" stroke="rgb(179,179,179)" stroke-linejoin="round" d="M 16068,15060 L 3996,15060 3996,1326 28140,1326 28140,15060 16068,15060 Z"/>
 <path fill="none" stroke="rgb(179,179,179)" stroke-linejoin="round" d="M 28140,15059 L 3996,15059"/>
 <path fill="none" stroke="rgb(179,179,179)" stroke-linejoin="round" d="M 28140,13532 L 3996,13532"/>
 <path fill="none" stroke="rgb(179,179,179)" stroke-linejoin="round" d="M 28140,12006 L 3996,12006"/>
 <path fill="none" stroke="rgb(179,179,179)" stroke-linejoin="round" d="M 28140,10480 L 3996,10480"/>
 <path fill="none" stroke="rgb(179,179,179)" stroke-linejoin="round" d="M 28140,8954 L 3996,8954"/>
 <path fill="none" stroke="rgb(179,179,179)" stroke-linejoin="round" d="M 28140,7429 L 3996,7429"/>
 <path fill="none" stroke="rgb(179,179,179)" stroke-linejoin="round" d="M 28140,5903 L 3996,5903"/>
 <path fill="none" stroke="rgb(179,179,179)" stroke-linejoin="round" d="M 28140,4377 L 3996,4377"/>
 <path fill="none" stroke="rgb(179,179,179)" stroke-linejoin="round" d="M 28140,2851 L 3996,2851"/>
 <path fill="none" stroke="rgb(179,179,179)" stroke-linejoin="round" d="M 28140,1325 L 3996,1325"/>
 <path fill="none" stroke="rgb(179,179,179)" stroke-linejoin="round" d="M 3996,15209 L 3996,15059"/>
 <path fill="none" stroke="rgb(179,179,179)" stroke-linejoin="round" d="M 3996,15209 L 3996,15059"/>
 <path fill="none" stroke="rgb(179,179,179)" stroke-linejoin="round" d="M 4604,15209 L 4604,15059"/>
 <path fill="none" stroke="rgb(179,179,179)" stroke-linejoin="round" d="M 4604,15209 L 4604,15059"/>
 <path fill="none" stroke="rgb(179,179,179)" stroke-linejoin="round" d="M 5192,15209 L 5192,15059"/>
 <path fill="none" stroke="rgb(179,179,179)" stroke-linejoin="round" d="M 5192,15209 L 5192,15059"/>
 <path fill="none" stroke="rgb(179,179,179)" stroke-linejoin="round" d="M 5800,15209 L 5800,15059"/>
 <path fill="none" stroke="rgb(179,179,179)" stroke-linejoin="round" d="M 5800,15209 L 5800,15059"/>
 <path fill="none" stroke="rgb(179,179,179)" stroke-linejoin="round" d="M 6408,15209 L 6408,15059"/>
 <path fill="none" stroke="rgb(179,179,179)" stroke-linejoin="round" d="M 6408,15209 L 6408,15059"/>
 <path fill="none" stroke="rgb(179,179,179)" stroke-linejoin="round" d="M 7016,15209 L 7016,15059"/>
 <path fill="none" stroke="rgb(179,179,179)" stroke-linejoin="round" d="M 7016,15209 L 7016,15059"/>
 <path fill="none" stroke="rgb(179,179,179)" stroke-linejoin="round" d="M 7604,15209 L 7604,15059"/>
 <path fill="none" stroke="rgb(179,179,179)" stroke-linejoin="round" d="M 7604,15209 L 7604,15059"/>
 <path fill="none" stroke="rgb(179,179,179)" stroke-linejoin="round" d="M 8212,15209 L 8212,15059"/>
 <path fill="none" stroke="rgb(179,179,179)" stroke-linejoin="round" d="M 8212,15209 L 8212,15059"/>
 <path fill="none" stroke="rgb(179,179,179)" stroke-linejoin="round" d="M 8821,15209 L 8821,15059"/>
 <path fill="none" stroke="rgb(179,179,179)" stroke-linejoin="round" d="M 8821,15209 L 8821,15059"/>
 <path fill="none" stroke="rgb(179,179,179)" stroke-linejoin="round" d="M 9429,15209 L 9429,15059"/>
 <path fill="none" stroke="rgb(179,179,179)" stroke-linejoin="round" d="M 9429,15209 L 9429,15059"/>
 <path fill="none" stroke="rgb(179,179,179)" stroke-linejoin="round" d="M 10017,15209 L 10017,15059"/>
 <path fill="none" stroke="rgb(179,179,179)" stroke-linejoin="round" d="M 10017,15209 L 10017,15059"/>
 <path fill="none" stroke="rgb(179,179,179)" stroke-linejoin="round" d="M 10625,15209 L 10625,15059"/>
 <path fill="none" stroke="rgb(179,179,179)" stroke-linejoin="round" d="M 10625,15209 L 10625,15059"/>
 <path fill="none" stroke="rgb(179,179,179)" stroke-linejoin="round" d="M 11233,15209 L 11233,15059"/>
 <path fill="none" stroke="rgb(179,179,179)" stroke-linejoin="round" d="M 11233,15209 L 11233,15059"/>
 <path fill="none" stroke="rgb(179,179,179)" stroke-linejoin="round" d="M 11841,15209 L 11841,15059"/>
 <path fill="none" stroke="rgb(179,179,179)" stroke-linejoin="round" d="M 11841,15209 L 11841,15059"/>
 <path fill="none" stroke="rgb(179,179,179)" stroke-linejoin="round" d="M 12436,15209 L 12436,15059"/>
 <path fill="none" stroke="rgb(179,179,179)" stroke-linejoin="round" d="M 12436,15209 L 12436,15059"/>
 <path fill="none" stroke="rgb(179,179,179)" stroke-linejoin="round" d="M 13044,15209 L 13044,15059"/>
 <path fill="none" stroke="rgb(179,179,179)" stroke-linejoin="round" d="M 13044,15209 L 13044,15059"/>
 <path fill="none" stroke="rgb(179,179,179)" stroke-linejoin="round" d="M 13652,15209 L 13652,15059"/>
 <path fill="none" stroke="rgb(179,179,179)" stroke-linejoin="round" d="M 13652,15209 L 13652,15059"/>
 <path fill="none" stroke="rgb(179,179,179)" stroke-linejoin="round" d="M 14260,15209 L 14260,15059"/>
 <path fill="none" stroke="rgb(179,179,179)" stroke-linejoin="round" d="M 14260,15209 L 14260,15059"/>
 <path fill="none" stroke="rgb(179,179,179)" stroke-linejoin="round" d="M 14848,15209 L 14848,15059"/>
 <path fill="none" stroke="rgb(179,179,179)" stroke-linejoin="round" d="M 14848,15209 L 14848,15059"/>
 <path fill="none" stroke="rgb(179,179,179)" stroke-linejoin="round" d="M 15456,15209 L 15456,15059"/>
 <path fill="none" stroke="rgb(179,179,179)" stroke-linejoin="round" d="M 15456,15209 L 15456,15059"/>
 <path fill="none" stroke="rgb(179,179,179)" stroke-linejoin="round" d="M 16064,15209 L 16064,15059"/>
 <path fill="none" stroke="rgb(179,179,179)" stroke-linejoin="round" d="M 16064,15209 L 16064,15059"/>
 <path fill="none" stroke="rgb(179,179,179)" stroke-linejoin="round" d="M 16672,15209 L 16672,15059"/>
 <path fill="none" stroke="rgb(179,179,179)" stroke-linejoin="round" d="M 16672,15209 L 16672,15059"/>
 <path fill="none" stroke="rgb(179,179,179)" stroke-linejoin="round" d="M 17260,15209 L 17260,15059"/>
 <path fill="none" stroke="rgb(179,179,179)" stroke-linejoin="round" d="M 17260,15209 L 17260,15059"/>
 <path fill="none" stroke="rgb(179,179,179)" stroke-linejoin="round" d="M 17868,15209 L 17868,15059"/>
 <path fill="none" stroke="rgb(179,179,179)" stroke-linejoin="round" d="M 17868,15209 L 17868,15059"/>
 <path fill="none" stroke="rgb(179,179,179)" stroke-linejoin="round" d="M 18476,15209 L 18476,15059"/>
 <path fill="none" stroke="rgb(179,179,179)" stroke-linejoin="round" d="M 18476,15209 L 18476,15059"/>
 <path fill="none" stroke="rgb(179,179,179)" stroke-linejoin="round" d="M 19084,15209 L 19084,15059"/>
 <path fill="none" stroke="rgb(179,179,179)" stroke-linejoin="round" d="M 19084,15209 L 19084,15059"/>
 <path fill="none" stroke="rgb(179,179,179)" stroke-linejoin="round" d="M 19673,15209 L 19673,15059"/>
 <path fill="none" stroke="rgb(179,179,179)" stroke-linejoin="round" d="M 19673,15209 L 19673,15059"/>
 <path fill="none" stroke="rgb(179,179,179)" stroke-linejoin="round" d="M 20281,15209 L 20281,15059"/>
 <path fill="none" stroke="rgb(179,179,179)" stroke-linejoin="round" d="M 20281,15209 L 20281,15059"/>
 <path fill="none" stroke="rgb(179,179,179)" stroke-linejoin="round" d="M 20889,15209 L 20889,15059"/>
 <path fill="none" stroke="rgb(179,179,179)" stroke-linejoin="round" d="M 20889,15209 L 20889,15059"/>
 <path fill="none" stroke="rgb(179,179,179)" stroke-linejoin="round" d="M 21497,15209 L 21497,15059"/>
 <path fill="none" stroke="rgb(179,179,179)" stroke-linejoin="round" d="M 21497,15209 L 21497,15059"/>
 <path fill="none" stroke="rgb(179,179,179)" stroke-linejoin="round" d="M 22092,15209 L 22092,15059"/>
 <path fill="none" stroke="rgb(179,179,179)" stroke-linejoin="round" d="M 22092,15209 L 22092,15059"/>
 <path fill="none" stroke="rgb(179,179,179)" stroke-linejoin="round" d="M 22700,15209 L 22700,15059"/>
 <path fill="none" stroke="rgb(179,179,179)" stroke-linejoin="round" d="M 22700,15209 L 22700,15059"/>
 <path fill="none" stroke="rgb(179,179,179)" stroke-linejoin="round" d="M 23308,15209 L 23308,15059"/>
 <path fill="none" stroke="rgb(179,179,179)" stroke-linejoin="round" d="M 23308,15209 L 23308,15059"/>
 <path fill="none" stroke="rgb(179,179,179)" stroke-linejoin="round" d="M 23916,15209 L 23916,15059"/>
 <path fill="none" stroke="rgb(179,179,179)" stroke-linejoin="round" d="M 23916,15209 L 23916,15059"/>
 <path fill="none" stroke="rgb(179,179,179)" stroke-linejoin="round" d="M 24504,15209 L 24504,15059"/>
 <path fill="none" stroke="rgb(179,179,179)" stroke-linejoin="round" d="M 24504,15209 L 24504,15059"/>
 <path fill="none" stroke="rgb(179,179,179)" stroke-linejoin="round" d="M 25112,15209 L 25112,15059"/>
 <path fill="none" stroke="rgb(179,179,179)" stroke-linejoin="round" d="M 25112,15209 L 25112,15059"/>
 <path fill="none" stroke="rgb(179,179,179)" stroke-linejoin="round" d="M 25720,15209 L 25720,15059"/>
 <path fill="none" stroke="rgb(179,179,179)" stroke-linejoin="round" d="M 25720,15209 L 25720,15059"/>
 <path fill="none" stroke="rgb(179,179,179)" stroke-linejoin="round" d="M 26328,15209 L 26328,15059"/>
 <path fill="none" stroke="rgb(179,179,179)" stroke-linejoin="round" d="M 26328,15209 L 26328,15059"/>
 <path fill="none" stroke="rgb(179,179,179)" stroke-linejoin="round" d="M 26917,15209 L 26917,15059"/>
 <path fill="none" stroke="rgb(179,179,179)" stroke-linejoin="round" d="M 26917,15209 L 26917,15059"/>
 <path fill="none" stroke="rgb(179,179,179)" stroke-linejoin="round" d="M 27525,15209 L 27525,15059"/>
 <path fill="none" stroke="rgb(179,179,179)" stroke-linejoin="round" d="M 27525,15209 L 27525,15059"/>
 <path fill="none" stroke="rgb(179,179,179)" stroke-linejoin="round" d="M 28133,15209 L 28133,15059"/>
 <path fill="none" stroke="rgb(179,179,179)" stroke-linejoin="round" d="M 28133,15209 L 28133,15059"/>
 <path fill="none" stroke="rgb(179,179,179)" stroke-linejoin="round" d="M 3996,15059 L 28140,15059"/>
 <path fill="none" stroke="rgb(179,179,179)" stroke-linejoin="round" d="M 3846,15059 L 3996,15059"/>
 <path fill="none" stroke="rgb(179,179,179)" stroke-linejoin="round" d="M 3846,15059 L 3996,15059"/>
 <path fill="none" stroke="rgb(179,179,179)" stroke-linejoin="round" d="M 3846,13532 L 3996,13532"/>
 <path fill="none" stroke="rgb(179,179,179)" stroke-linejoin="round" d="M 3846,13532 L 3996,13532"/>
 <path fill="none" stroke="rgb(179,179,179)" stroke-linejoin="round" d="M 3846,12006 L 3996,12006"/>
 <path fill="none" stroke="rgb(179,179,179)" stroke-linejoin="round" d="M 3846,12006 L 3996,12006"/>
 <path fill="none" stroke="rgb(179,179,179)" stroke-linejoin="round" d="M 3846,10480 L 3996,10480"/>
 <path fill="none" stroke="rgb(179,179,179)" stroke-linejoin="round" d="M 3846,10480 L 3996,10480"/>
 <path fill="none" stroke="rgb(179,179,179)" stroke-linejoin="round" d="M 3846,8954 L 3996,8954"/>
 <path fill="none" stroke="rgb(179,179,179)" stroke-linejoin="round" d="M 3846,8954 L 3996,8954"/>
 <path fill="none" stroke="rgb(179,179,179)" stroke-linejoin="round" d="M 3846,7429 L 3996,7429"/>
 <path fill="none" stroke="rgb(179,179,179)" stroke-linejoin="round" d="M 3846,7429 L 3996,7429"/>
 <path fill="none" stroke="rgb(179,179,179)" stroke-linejoin="round" d="M 3846,5903 L 3996,5903"/>
 <path fill="none" stroke="rgb(179,179,179)" stroke-linejoin="round" d="M 3846,5903 L 3996,5903"/>
 <path fill="none" stroke="rgb(179,179,179)" stroke-linejoin="round" d="M 3846,4377 L 3996,4377"/>
 <path fill="none" stroke="rgb(179,179,179)" stroke-linejoin="round" d="M 3846,4377 L 3996,4377"/>
 <path fill="none" stroke="rgb(179,179,179)" stroke-linejoin="round" d="M 3846,2851 L 3996,2851"/>
 <path fill="none" stroke="rgb(179,179,179)" stroke-linejoin="round" d="M 3846,2851 L 3996,2851"/>
 <path fill="none" stroke="rgb(179,179,179)" stroke-linejoin="round" d="M 3846,1325 L 3996,1325"/>
 <path fill="none" stroke="rgb(179,179,179)" stroke-linejoin="round" d="M 3846,1325 L 3996,1325"/>
 <path fill="none" stroke="rgb(179,179,179)" stroke-linejoin="round" d="M 3996,15059 L 3996,1325"/>
 <path fill="rgb(102,102,102)" stroke="none" d="M 3999,15039 L 4607,15020 5195,15001 5803,14982 6411,14963 7019,14944 7608,14925 8216,14906 8824,14887 9432,14868 10020,14849 10628,14830 11236,14811 11844,14791 12439,14772 13047,14753 13655,14734 14264,14715 14851,14696 15459,14677 16067,14658 16675,14639 17263,14620 17871,14601 18480,14582 19088,14563 19676,14543 20284,14524 20892,14505 21500,14486 22095,14467 22703,14448 23311,14429 23919,14410 24508,14391 25116,14372 25724,14353 26332,14334 26920,14315 27528,14295 28136,14295 28136,15059 3999,15059 3999,15039 Z"/>
 <g style="opacity: 0.498039215686275">
  <path fill="none" stroke="rgb(0,0,0)" stroke-linejoin="round" d="M 3999,15039 L 4607,15020 5195,15001 5803,14982 6411,14963 7019,14944 7608,14925 8216,14906 8824,14887 9432,14868 10020,14849 10628,14830 11236,14811 11844,14791 12439,14772 13047,14753 13655,14734 14264,14715 14851,14696 15459,14677 16067,14658 16675,14639 17263,14620 17871,14601 18480,14582 19088,14563 19676,14543 20284,14524 20892,14505 21500,14486 22095,14467 22703,14448 23311,14429 23919,14410 24508,14391 25116,14372 25724,14353 26332,14334 26920,14315 27528,14295 28136,14295 28136,15059 3999,15059 3999,15039 Z"/>
 </g>
 <path fill="rgb(63,166,82)" stroke="none" d="M 3999,14475 L 4607,14456 5195,14437 5803,13796 6411,13777 7019,13194 7608,13118 8216,13043 8824,12967 9432,12891 10020,12844 10628,12797 11236,12749 11844,12702 12439,12655 13047,12608 13655,12560 14264,12513 14851,12466 15459,12418 16067,12371 16675,12324 17263,12276 17871,12229 18480,12182 19088,12134 19676,12087 20284,12040 20892,11993 21500,11945 22095,11898 22703,11851 23311,11803 23919,11756 24508,11709 25116,11661 25724,11614 26332,11567 26920,11519 27528,11472 28136,11472 28136,14295 27528,14295 26920,14315 26332,14334 25724,14353 25116,14372 24508,14391 23919,14410 23311,14429 22703,14448 22095,14467 21500,14486 20892,14505 20284,14524 19676,14543 19088,14563 18480,14582 17871,14601 17263,14620 16675,14639 16067,14658 15459,14677 14851,14696 14264,14715 13655,14734 13047,14753 12439,14772 11844,14791 11236,14811 10628,14830 10020,14849 9432,14868 8824,14887 8216,14906 7608,14925 7019,14944 6411,14963 5803,14982 5195,15001 4607,15020 3999,15039 3999,14475 Z"/>
 <g style="opacity: 0.498039215686275">
  <path fill="none" stroke="rgb(0,0,0)" stroke-linejoin="round" d="M 3999,14475 L 4607,14456 5195,14437 5803,13796 6411,13777 7019,13194 7608,13118 8216,13043 8824,12967 9432,12891 10020,12844 10628,12797 11236,12749 11844,12702 12439,12655 13047,12608 13655,12560 14264,12513 14851,12466 15459,12418 16067,12371 16675,12324 17263,12276 17871,12229 18480,12182 19088,12134 19676,12087 20284,12040 20892,11993 21500,11945 22095,11898 22703,11851 23311,11803 23919,11756 24508,11709 25116,11661 25724,11614 26332,11567 26920,11519 27528,11472 28136,11472 28136,14295 27528,14295 26920,14315 26332,14334 25724,14353 25116,14372 24508,14391 23919,14410 23311,14429 22703,14448 22095,14467 21500,14486 20892,14505 20284,14524 19676,14543 19088,14563 18480,14582 17871,14601 17263,14620 16675,14639 16067,14658 15459,14677 14851,14696 14264,14715 13655,14734 13047,14753 12439,14772 11844,14791 11236,14811 10628,14830 10020,14849 9432,14868 8824,14887 8216,14906 7608,14925 7019,14944 6411,14963 5803,14982 5195,15001 4607,15020 3999,15039 3999,14475 Z"/>
 </g>
 <path fill="rgb(0,146,246)" stroke="none" d="M 3999,14093 L 4607,14074 5195,14055 5803,13415 6411,13396 7019,12812 7608,12737 8216,12508 8824,12433 9432,12357 10020,12310 10628,12225 11236,12177 11844,12130 12439,12083 13047,11997 13655,11912 14264,11826 14851,11741 15459,11655 16067,11570 16675,11484 17263,11399 17871,11313 18480,11228 19088,11142 19676,11057 20284,10972 20892,10886 21500,10801 22095,10715 22703,10630 23311,10544 23919,10459 24508,10373 25116,10288 25724,10202 26332,10117 26920,10031 27528,9946 28136,9946 28136,11472 27528,11472 26920,11519 26332,11567 25724,11614 25116,11661 24508,11709 23919,11756 23311,11803 22703,11851 22095,11898 21500,11945 20892,11993 20284,12040 19676,12087 19088,12134 18480,12182 17871,12229 17263,12276 16675,12324 16067,12371 15459,12418 14851,12466 14264,12513 13655,12560 13047,12608 12439,12655 11844,12702 11236,12749 10628,12797 10020,12844 9432,12891 8824,12967 8216,13043 7608,13118 7019,13194 6411,13777 5803,13796 5195,14437 4607,14456 3999,14475 3999,14093 Z"/>
 <g style="opacity: 0.498039215686275">
  <path fill="none" stroke="rgb(0,0,0)" stroke-linejoin="round" d="M 3999,14093 L 4607,14074 5195,14055 5803,13415 6411,13396 7019,12812 7608,12737 8216,12508 8824,12433 9432,12357 10020,12310 10628,12225 11236,12177 11844,12130 12439,12083 13047,11997 13655,11912 14264,11826 14851,11741 15459,11655 16067,11570 16675,11484 17263,11399 17871,11313 18480,11228 19088,11142 19676,11057 20284,10972 20892,10886 21500,10801 22095,10715 22703,10630 23311,10544 23919,10459 24508,10373 25116,10288 25724,10202 26332,10117 26920,10031 27528,9946 28136,9946 28136,11472 27528,11472 26920,11519 26332,11567 25724,11614 25116,11661 24508,11709 23919,11756 23311,11803 22703,11851 22095,11898 21500,11945 20892,11993 20284,12040 19676,12087 19088,12134 18480,12182 17871,12229 17263,12276 16675,12324 16067,12371 15459,12418 14851,12466 14264,12513 13655,12560 13047,12608 12439,12655 11844,12702 11236,12749 10628,12797 10020,12844 9432,12891 8824,12967 8216,13043 7608,13118 7019,13194 6411,13777 5803,13796 5195,14437 4607,14456 3999,14475 3999,14093 Z"/>
 </g>
 <path fill="rgb(255,66,18)" stroke="none" d="M 3999,14093 L 4607,14074 5195,14055 5803,12957 6411,12709 7019,11896 7608,11592 8216,11135 8824,10830 9432,10526 10020,10265 10628,9966 11236,9705 11844,9444 12439,9213 13047,8945 13655,8860 14264,8775 14851,8690 15459,8604 16067,8519 16675,8433 17263,8348 17871,8262 18480,8177 19088,8091 19676,8006 20284,7920 20892,7835 21500,7749 22095,7664 22703,7579 23311,7493 23919,7408 24508,7322 25116,7237 25724,7151 26332,7066 26920,6980 27528,6895 28136,6895 28136,9946 27528,9946 26920,10031 26332,10117 25724,10202 25116,10288 24508,10373 23919,10459 23311,10544 22703,10630 22095,10715 21500,10801 20892,10886 20284,10972 19676,11057 19088,11142 18480,11228 17871,11313 17263,11399 16675,11484 16067,11570 15459,11655 14851,11741 14264,11826 13655,11912 13047,11997 12439,12083 11844,12130 11236,12177 10628,12225 10020,12310 9432,12357 8824,12433 8216,12508 7608,12737 7019,12812 6411,13396 5803,13415 5195,14055 4607,14074 3999,14093 Z"/>
 <g style="opacity: 0.498039215686275">
  <path fill="none" stroke="rgb(0,0,0)" stroke-linejoin="round" d="M 3999,14093 L 4607,14074 5195,14055 5803,12957 6411,12709 7019,11896 7608,11592 8216,11135 8824,10830 9432,10526 10020,10265 10628,9966 11236,9705 11844,9444 12439,9213 13047,8945 13655,8860 14264,8775 14851,8690 15459,8604 16067,8519 16675,8433 17263,8348 17871,8262 18480,8177 19088,8091 19676,8006 20284,7920 20892,7835 21500,7749 22095,7664 22703,7579 23311,7493 23919,7408 24508,7322 25116,7237 25724,7151 26332,7066 26920,6980 27528,6895 28136,6895 28136,9946 27528,9946 26920,10031 26332,10117 25724,10202 25116,10288 24508,10373 23919,10459 23311,10544 22703,10630 22095,10715 21500,10801 20892,10886 20284,10972 19676,11057 19088,11142 18480,11228 17871,11313 17263,11399 16675,11484 16067,11570 15459,11655 14851,11741 14264,11826 13655,11912 13047,11997 12439,12083 11844,12130 11236,12177 10628,12225 10020,12310 9432,12357 8824,12433 8216,12508 7608,12737 7019,12812 6411,13396 5803,13415 5195,14055 4607,14074 3999,14093 Z"/>
 </g>
 <path fill="rgb(221,221,221)" stroke="none" d="M 3999,12935 L 4607,12916 5195,12897 5803,10640 6411,10392 7019,8387 7608,8083 8216,7626 8824,7321 9432,7017 10020,6756 10628,6457 11236,6196 11844,5935 12439,5704 13047,5436 13655,5350 14264,5265 14851,5179 15459,5094 16067,5009 16675,4923 17263,4838 17871,4752 18480,4667 19088,4581 19676,4496 20284,4410 20892,4325 21500,4239 22095,4154 22703,4068 23311,3983 23919,3898 24508,3812 25116,3727 25724,3641 26332,3556 26920,3470 27528,3385 28136,3385 28136,6895 27528,6895 26920,6980 26332,7066 25724,7151 25116,7237 24508,7322 23919,7408 23311,7493 22703,7579 22095,7664 21500,7749 20892,7835 20284,7920 19676,8006 19088,8091 18480,8177 17871,8262 17263,8348 16675,8433 16067,8519 15459,8604 14851,8690 14264,8775 13655,8860 13047,8945 12439,9213 11844,9444 11236,9705 10628,9966 10020,10265 9432,10526 8824,10830 8216,11135 7608,11592 7019,11896 6411,12709 5803,12957 5195,14055 4607,14074 3999,14093 3999,12935 Z"/>
 <g style="opacity: 0.498039215686275">
  <path fill="none" stroke="rgb(0,0,0)" stroke-linejoin="round" d="M 3999,12935 L 4607,12916 5195,12897 5803,10640 6411,10392 7019,8387 7608,8083 8216,7626 8824,7321 9432,7017 10020,6756 10628,6457 11236,6196 11844,5935 12439,5704 13047,5436 13655,5350 14264,5265 14851,5179 15459,5094 16067,5009 16675,4923 17263,4838 17871,4752 18480,4667 19088,4581 19676,4496 20284,4410 20892,4325 21500,4239 22095,4154 22703,4068 23311,3983 23919,3898 24508,3812 25116,3727 25724,3641 26332,3556 26920,3470 27528,3385 28136,3385 28136,6895 27528,6895 26920,6980 26332,7066 25724,7151 25116,7237 24508,7322 23919,7408 23311,7493 22703,7579 22095,7664 21500,7749 20892,7835 20284,7920 19676,8006 19088,8091 18480,8177 17871,8262 17263,8348 16675,8433 16067,8519 15459,8604 14851,8690 14264,8775 13655,8860 13047,8945 12439,9213 11844,9444 11236,9705 10628,9966 10020,10265 9432,10526 8824,10830 8216,11135 7608,11592 7019,11896 6411,12709 5803,12957 5195,14055 4607,14074 3999,14093 3999,12935 Z"/>
 </g>
 <text class="SVGTextShape" transform="rotate(-44.9 3146 16470)"><tspan class="TextParagraph" font-family="Arial, sans-serif" font-size="353px" font-weight="400"><tspan class="TextPosition" x="3146" y="16470"><tspan fill="rgb(0,0,0)" stroke="none" style="white-space: pre">11/18/20</tspan></tspan></tspan></text>
 <text class="SVGTextShape" transform="rotate(-44.9 3754 16470)"><tspan class="TextParagraph" font-family="Arial, sans-serif" font-size="353px" font-weight="400"><tspan class="TextPosition" x="3754" y="16470"><tspan fill="rgb(0,0,0)" stroke="none" style="white-space: pre">02/18/21</tspan></tspan></tspan></text>
 <text class="SVGTextShape" transform="rotate(-44.9 4342 16470)"><tspan class="TextParagraph" font-family="Arial, sans-serif" font-size="353px" font-weight="400"><tspan class="TextPosition" x="4342" y="16470"><tspan fill="rgb(0,0,0)" stroke="none" style="white-space: pre">05/18/21</tspan></tspan></tspan></text>
 <text class="SVGTextShape" transform="rotate(-44.9 4950 16470)"><tspan class="TextParagraph" font-family="Arial, sans-serif" font-size="353px" font-weight="400"><tspan class="TextPosition" x="4950" y="16470"><tspan fill="rgb(0,0,0)" stroke="none" style="white-space: pre">08/18/21</tspan></tspan></tspan></text>
 <text class="SVGTextShape" transform="rotate(-44.9 5558 16470)"><tspan class="TextParagraph" font-family="Arial, sans-serif" font-size="353px" font-weight="400"><tspan class="TextPosition" x="5558" y="16470"><tspan fill="rgb(0,0,0)" stroke="none" style="white-space: pre">11/18/21</tspan></tspan></tspan></text>
 <text class="SVGTextShape" transform="rotate(-44.9 6166 16470)"><tspan class="TextParagraph" font-family="Arial, sans-serif" font-size="353px" font-weight="400"><tspan class="TextPosition" x="6166" y="16470"><tspan fill="rgb(0,0,0)" stroke="none" style="white-space: pre">02/18/22</tspan></tspan></tspan></text>
 <text class="SVGTextShape" transform="rotate(-44.9 6755 16470)"><tspan class="TextParagraph" font-family="Arial, sans-serif" font-size="353px" font-weight="400"><tspan class="TextPosition" x="6755" y="16470"><tspan fill="rgb(0,0,0)" stroke="none" style="white-space: pre">05/18/22</tspan></tspan></tspan></text>
 <text class="SVGTextShape" transform="rotate(-44.9 7363 16470)"><tspan class="TextParagraph" font-family="Arial, sans-serif" font-size="353px" font-weight="400"><tspan class="TextPosition" x="7363" y="16470"><tspan fill="rgb(0,0,0)" stroke="none" style="white-space: pre">08/18/22</tspan></tspan></tspan></text>
 <text class="SVGTextShape" transform="rotate(-44.9 7971 16470)"><tspan class="TextParagraph" font-family="Arial, sans-serif" font-size="353px" font-weight="400"><tspan class="TextPosition" x="7971" y="16470"><tspan fill="rgb(0,0,0)" stroke="none" style="white-space: pre">11/18/22</tspan></tspan></tspan></text>
 <text class="SVGTextShape" transform="rotate(-44.9 8579 16470)"><tspan class="TextParagraph" font-family="Arial, sans-serif" font-size="353px" font-weight="400"><tspan class="TextPosition" x="8579" y="16470"><tspan fill="rgb(0,0,0)" stroke="none" style="white-space: pre">02/18/23</tspan></tspan></tspan></text>
 <text class="SVGTextShape" transform="rotate(-44.9 9167 16470)"><tspan class="TextParagraph" font-family="Arial, sans-serif" font-size="353px" font-weight="400"><tspan class="TextPosition" x="9167" y="16470"><tspan fill="rgb(0,0,0)" stroke="none" style="white-space: pre">05/18/23</tspan></tspan></tspan></text>
 <text class="SVGTextShape" transform="rotate(-44.9 9775 16470)"><tspan class="TextParagraph" font-family="Arial, sans-serif" font-size="353px" font-weight="400"><tspan class="TextPosition" x="9775" y="16470"><tspan fill="rgb(0,0,0)" stroke="none" style="white-space: pre">08/18/23</tspan></tspan></tspan></text>
 <text class="SVGTextShape" transform="rotate(-44.9 10383 16470)"><tspan class="TextParagraph" font-family="Arial, sans-serif" font-size="353px" font-weight="400"><tspan class="TextPosition" x="10383" y="16470"><tspan fill="rgb(0,0,0)" stroke="none" style="white-space: pre">11/18/23</tspan></tspan></tspan></text>
 <text class="SVGTextShape" transform="rotate(-44.9 10991 16470)"><tspan class="TextParagraph" font-family="Arial, sans-serif" font-size="353px" font-weight="400"><tspan class="TextPosition" x="10991" y="16470"><tspan fill="rgb(0,0,0)" stroke="none" style="white-space: pre">02/18/24</tspan></tspan></tspan></text>
 <text class="SVGTextShape" transform="rotate(-44.9 11586 16470)"><tspan class="TextParagraph" font-family="Arial, sans-serif" font-size="353px" font-weight="400"><tspan class="TextPosition" x="11586" y="16470"><tspan fill="rgb(0,0,0)" stroke="none" style="white-space: pre">05/18/24</tspan></tspan></tspan></text>
 <text class="SVGTextShape" transform="rotate(-44.9 12194 16470)"><tspan class="TextParagraph" font-family="Arial, sans-serif" font-size="353px" font-weight="400"><tspan class="TextPosition" x="12194" y="16470"><tspan fill="rgb(0,0,0)" stroke="none" style="white-space: pre">08/18/24</tspan></tspan></tspan></text>
 <text class="SVGTextShape" transform="rotate(-44.9 12802 16470)"><tspan class="TextParagraph" font-family="Arial, sans-serif" font-size="353px" font-weight="400"><tspan class="TextPosition" x="12802" y="16470"><tspan fill="rgb(0,0,0)" stroke="none" style="white-space: pre">11/18/24</tspan></tspan></tspan></text>
 <text class="SVGTextShape" transform="rotate(-44.9 13411 16470)"><tspan class="TextParagraph" font-family="Arial, sans-serif" font-size="353px" font-weight="400"><tspan class="TextPosition" x="13411" y="16470"><tspan fill="rgb(0,0,0)" stroke="none" style="white-space: pre">02/18/25</tspan></tspan></tspan></text>
 <text class="SVGTextShape" transform="rotate(-44.9 13999 16470)"><tspan class="TextParagraph" font-family="Arial, sans-serif" font-size="353px" font-weight="400"><tspan class="TextPosition" x="13999" y="16470"><tspan fill="rgb(0,0,0)" stroke="none" style="white-space: pre">05/18/25</tspan></tspan></tspan></text>
 <text class="SVGTextShape" transform="rotate(-44.9 14607 16470)"><tspan class="TextParagraph" font-family="Arial, sans-serif" font-size="353px" font-weight="400"><tspan class="TextPosition" x="14607" y="16470"><tspan fill="rgb(0,0,0)" stroke="none" style="white-space: pre">08/18/25</tspan></tspan></tspan></text>
 <text class="SVGTextShape" transform="rotate(-44.9 15215 16470)"><tspan class="TextParagraph" font-family="Arial, sans-serif" font-size="353px" font-weight="400"><tspan class="TextPosition" x="15215" y="16470"><tspan fill="rgb(0,0,0)" stroke="none" style="white-space: pre">11/18/25</tspan></tspan></tspan></text>
 <text class="SVGTextShape" transform="rotate(-44.9 15823 16470)"><tspan class="TextParagraph" font-family="Arial, sans-serif" font-size="353px" font-weight="400"><tspan class="TextPosition" x="15823" y="16470"><tspan fill="rgb(0,0,0)" stroke="none" style="white-space: pre">02/18/26</tspan></tspan></tspan></text>
 <text class="SVGTextShape" transform="rotate(-44.9 16411 16470)"><tspan class="TextParagraph" font-family="Arial, sans-serif" font-size="353px" font-weight="400"><tspan class="TextPosition" x="16411" y="16470"><tspan fill="rgb(0,0,0)" stroke="none" style="white-space: pre">05/18/26</tspan></tspan></tspan></text>
 <text class="SVGTextShape" transform="rotate(-44.9 17019 16470)"><tspan class="TextParagraph" font-family="Arial, sans-serif" font-size="353px" font-weight="400"><tspan class="TextPosition" x="17019" y="16470"><tspan fill="rgb(0,0,0)" stroke="none" style="white-space: pre">08/18/26</tspan></tspan></tspan></text>
 <text class="SVGTextShape" transform="rotate(-44.9 17628 16470)"><tspan class="TextParagraph" font-family="Arial, sans-serif" font-size="353px" font-weight="400"><tspan class="TextPosition" x="17628" y="16470"><tspan fill="rgb(0,0,0)" stroke="none" style="white-space: pre">11/18/26</tspan></tspan></tspan></text>
 <text class="SVGTextShape" transform="rotate(-44.9 18236 16470)"><tspan class="TextParagraph" font-family="Arial, sans-serif" font-size="353px" font-weight="400"><tspan class="TextPosition" x="18236" y="16470"><tspan fill="rgb(0,0,0)" stroke="none" style="white-space: pre">02/18/27</tspan></tspan></tspan></text>
 <text class="SVGTextShape" transform="rotate(-44.9 18824 16470)"><tspan class="TextParagraph" font-family="Arial, sans-serif" font-size="353px" font-weight="400"><tspan class="TextPosition" x="18824" y="16470"><tspan fill="rgb(0,0,0)" stroke="none" style="white-space: pre">05/18/27</tspan></tspan></tspan></text>
 <text class="SVGTextShape" transform="rotate(-44.9 19432 16470)"><tspan class="TextParagraph" font-family="Arial, sans-serif" font-size="353px" font-weight="400"><tspan class="TextPosition" x="19432" y="16470"><tspan fill="rgb(0,0,0)" stroke="none" style="white-space: pre">08/18/27</tspan></tspan></tspan></text>
 <text class="SVGTextShape" transform="rotate(-44.9 20040 16470)"><tspan class="TextParagraph" font-family="Arial, sans-serif" font-size="353px" font-weight="400"><tspan class="TextPosition" x="20040" y="16470"><tspan fill="rgb(0,0,0)" stroke="none" style="white-space: pre">11/18/27</tspan></tspan></tspan></text>
 <text class="SVGTextShape" transform="rotate(-44.9 20647 16470)"><tspan class="TextParagraph" font-family="Arial, sans-serif" font-size="353px" font-weight="400"><tspan class="TextPosition" x="20647" y="16470"><tspan fill="rgb(0,0,0)" stroke="none" style="white-space: pre">02/18/28</tspan></tspan></tspan></text>
 <text class="SVGTextShape" transform="rotate(-44.9 21242 16470)"><tspan class="TextParagraph" font-family="Arial, sans-serif" font-size="353px" font-weight="400"><tspan class="TextPosition" x="21242" y="16470"><tspan fill="rgb(0,0,0)" stroke="none" style="white-space: pre">05/18/28</tspan></tspan></tspan></text>
 <text class="SVGTextShape" transform="rotate(-44.9 21850 16470)"><tspan class="TextParagraph" font-family="Arial, sans-serif" font-size="353px" font-weight="400"><tspan class="TextPosition" x="21850" y="16470"><tspan fill="rgb(0,0,0)" stroke="none" style="white-space: pre">08/18/28</tspan></tspan></tspan></text>
 <text class="SVGTextShape" transform="rotate(-44.9 22458 16470)"><tspan class="TextParagraph" font-family="Arial, sans-serif" font-size="353px" font-weight="400"><tspan class="TextPosition" x="22458" y="16470"><tspan fill="rgb(0,0,0)" stroke="none" style="white-space: pre">11/18/28</tspan></tspan></tspan></text>
 <text class="SVGTextShape" transform="rotate(-44.9 23066 16470)"><tspan class="TextParagraph" font-family="Arial, sans-serif" font-size="353px" font-weight="400"><tspan class="TextPosition" x="23066" y="16470"><tspan fill="rgb(0,0,0)" stroke="none" style="white-space: pre">02/18/29</tspan></tspan></tspan></text>
 <text class="SVGTextShape" transform="rotate(-44.9 23655 16470)"><tspan class="TextParagraph" font-family="Arial, sans-serif" font-size="353px" font-weight="400"><tspan class="TextPosition" x="23655" y="16470"><tspan fill="rgb(0,0,0)" stroke="none" style="white-space: pre">05/18/29</tspan></tspan></tspan></text>
 <text class="SVGTextShape" transform="rotate(-44.9 24263 16470)"><tspan class="TextParagraph" font-family="Arial, sans-serif" font-size="353px" font-weight="400"><tspan class="TextPosition" x="24263" y="16470"><tspan fill="rgb(0,0,0)" stroke="none" style="white-space: pre">08/18/29</tspan></tspan></tspan></text>
 <text class="SVGTextShape" transform="rotate(-44.9 24871 16470)"><tspan class="TextParagraph" font-family="Arial, sans-serif" font-size="353px" font-weight="400"><tspan class="TextPosition" x="24871" y="16470"><tspan fill="rgb(0,0,0)" stroke="none" style="white-space: pre">11/18/29</tspan></tspan></tspan></text>
 <text class="SVGTextShape" transform="rotate(-44.9 25479 16470)"><tspan class="TextParagraph" font-family="Arial, sans-serif" font-size="353px" font-weight="400"><tspan class="TextPosition" x="25479" y="16470"><tspan fill="rgb(0,0,0)" stroke="none" style="white-space: pre">02/18/30</tspan></tspan></tspan></text>
 <text class="SVGTextShape" transform="rotate(-44.9 26067 16470)"><tspan class="TextParagraph" font-family="Arial, sans-serif" font-size="353px" font-weight="400"><tspan class="TextPosition" x="26067" y="16470"><tspan fill="rgb(0,0,0)" stroke="none" style="white-space: pre">05/18/30</tspan></tspan></tspan></text>
 <text class="SVGTextShape" transform="rotate(-44.9 26675 16470)"><tspan class="TextParagraph" font-family="Arial, sans-serif" font-size="353px" font-weight="400"><tspan class="TextPosition" x="26675" y="16470"><tspan fill="rgb(0,0,0)" stroke="none" style="white-space: pre">08/18/30</tspan></tspan></tspan></text>
 <text class="SVGTextShape" transform="rotate(-44.9 27283 16470)"><tspan class="TextParagraph" font-family="Arial, sans-serif" font-size="353px" font-weight="400"><tspan class="TextPosition" x="27283" y="16470"><tspan fill="rgb(0,0,0)" stroke="none" style="white-space: pre">11/18/30</tspan></tspan></tspan></text>
 <text class="SVGTextShape"><tspan class="TextParagraph" font-family="Arial, sans-serif" font-size="353px" font-weight="400"><tspan class="TextPosition" x="3561" y="15180"><tspan fill="rgb(0,0,0)" stroke="none" style="white-space: pre">0</tspan></tspan></tspan></text>
 <text class="SVGTextShape"><tspan class="TextParagraph" font-family="Arial, sans-serif" font-size="353px" font-weight="400"><tspan class="TextPosition" x="1576" y="13653"><tspan fill="rgb(0,0,0)" stroke="none" style="white-space: pre">1,000,000,000</tspan></tspan></tspan></text>
 <text class="SVGTextShape"><tspan class="TextParagraph" font-family="Arial, sans-serif" font-size="353px" font-weight="400"><tspan class="TextPosition" x="1576" y="12127"><tspan fill="rgb(0,0,0)" stroke="none" style="white-space: pre">2,000,000,000</tspan></tspan></tspan></text>
 <text class="SVGTextShape"><tspan class="TextParagraph" font-family="Arial, sans-serif" font-size="353px" font-weight="400"><tspan class="TextPosition" x="1576" y="10601"><tspan fill="rgb(0,0,0)" stroke="none" style="white-space: pre">3,000,000,000</tspan></tspan></tspan></text>
 <text class="SVGTextShape"><tspan class="TextParagraph" font-family="Arial, sans-serif" font-size="353px" font-weight="400"><tspan class="TextPosition" x="1576" y="9075"><tspan fill="rgb(0,0,0)" stroke="none" style="white-space: pre">4,000,000,000</tspan></tspan></tspan></text>
 <text class="SVGTextShape"><tspan class="TextParagraph" font-family="Arial, sans-serif" font-size="353px" font-weight="400"><tspan class="TextPosition" x="1576" y="7549"><tspan fill="rgb(0,0,0)" stroke="none" style="white-space: pre">5,000,000,000</tspan></tspan></tspan></text>
 <text class="SVGTextShape"><tspan class="TextParagraph" font-family="Arial, sans-serif" font-size="353px" font-weight="400"><tspan class="TextPosition" x="1576" y="6023"><tspan fill="rgb(0,0,0)" stroke="none" style="white-space: pre">6,000,000,000</tspan></tspan></tspan></text>
 <text class="SVGTextShape"><tspan class="TextParagraph" font-family="Arial, sans-serif" font-size="353px" font-weight="400"><tspan class="TextPosition" x="1576" y="4497"><tspan fill="rgb(0,0,0)" stroke="none" style="white-space: pre">7,000,000,000</tspan></tspan></tspan></text>
 <text class="SVGTextShape"><tspan class="TextParagraph" font-family="Arial, sans-serif" font-size="353px" font-weight="400"><tspan class="TextPosition" x="1576" y="2971"><tspan fill="rgb(0,0,0)" stroke="none" style="white-space: pre">8,000,000,000</tspan></tspan></tspan></text>
 <text class="SVGTextShape"><tspan class="TextParagraph" font-family="Arial, sans-serif" font-size="353px" font-weight="400"><tspan class="TextPosition" x="1576" y="1445"><tspan fill="rgb(0,0,0)" stroke="none" style="white-space: pre">9,000,000,000</tspan></tspan></tspan></text>
 <path fill="rgb(102,102,102)" stroke="none" d="M 5320,795 L 5215,795 5215,584 5426,584 5426,795 5320,795 Z"/>
 <g style="opacity: 0.498039215686275">
  <path fill="none" stroke="rgb(0,0,0)" stroke-linejoin="round" d="M 5320,795 L 5215,795 5215,584 5426,584 5426,795 5320,795 Z"/>
 </g>
 <path fill="rgb(63,166,82)" stroke="none" d="M 11595,795 L 11490,795 11490,584 11701,584 11701,795 11595,795 Z"/>
 <g style="opacity: 0.498039215686275">
  <path fill="none" stroke="rgb(0,0,0)" stroke-linejoin="round" d="M 11595,795 L 11490,795 11490,584 11701,584 11701,795 11595,795 Z"/>
 </g>
 <path fill="rgb(0,146,246)" stroke="none" d="M 17314,795 L 17208,795 17208,584 17419,584 17419,795 17314,795 Z"/>
 <g style="opacity: 0.498039215686275">
  <path fill="none" stroke="rgb(0,0,0)" stroke-linejoin="round" d="M 17314,795 L 17208,795 17208,584 17419,584 17419,795 17314,795 Z"/>
 </g>
 <path fill="rgb(255,66,18)" stroke="none" d="M 20784,795 L 20678,795 20678,584 20889,584 20889,795 20784,795 Z"/>
 <g style="opacity: 0.498039215686275">
  <path fill="none" stroke="rgb(0,0,0)" stroke-linejoin="round" d="M 20784,795 L 20678,795 20678,584 20889,584 20889,795 20784,795 Z"/>
 </g>
 <path fill="rgb(221,221,221)" stroke="none" d="M 25233,795 L 25127,795 25127,584 25338,584 25338,795 25233,795 Z"/>
 <g style="opacity: 0.498039215686275">
  <path fill="none" stroke="rgb(0,0,0)" stroke-linejoin="round" d="M 25233,795 L 25127,795 25127,584 25338,584 25338,795 25233,795 Z"/>
 </g>
 <text class="SVGTextShape"><tspan class="TextParagraph" font-family="Arial, sans-serif" font-size="353px" font-weight="400"><tspan class="TextPosition" x="5526" y="809"><tspan fill="rgb(0,0,0)" stroke="none" style="white-space: pre">Strategic Partners &amp; Reserve</tspan></tspan></tspan></text>
 <text class="SVGTextShape"><tspan class="TextParagraph" font-family="Arial, sans-serif" font-size="353px" font-weight="400"><tspan class="TextPosition" x="11801" y="809"><tspan fill="rgb(0,0,0)" stroke="none" style="white-space: pre">Community &amp; Ecosystem</tspan></tspan></tspan></text>
 <text class="SVGTextShape"><tspan class="TextParagraph" font-family="Arial, sans-serif" font-size="353px" font-weight="400"><tspan class="TextPosition" x="17519" y="809"><tspan fill="rgb(0,0,0)" stroke="none" style="white-space: pre">Foundation</tspan></tspan></tspan></text>
 <text class="SVGTextShape"><tspan class="TextParagraph" font-family="Arial, sans-serif" font-size="353px" font-weight="400"><tspan class="TextPosition" x="20989" y="809"><tspan fill="rgb(0,0,0)" stroke="none" style="white-space: pre">Core Contributors</tspan></tspan></tspan></text>
 <text class="SVGTextShape"><tspan class="TextParagraph" font-family="Arial, sans-serif" font-size="353px" font-weight="400"><tspan class="TextPosition" x="25438" y="809"><tspan fill="rgb(0,0,0)" stroke="none" style="white-space: pre">Backers</tspan></tspan></tspan></text>
 <text class="SVGTextShape"><tspan class="TextParagraph" font-family="Arial, sans-serif" font-size="318px" font-weight="400"><tspan class="TextPosition" x="13060" y="17270"><tspan fill="rgb(0,0,0)" stroke="none" style="white-space: pre">Expected distribution date</tspan></tspan></tspan></text>
 <text class="SVGTextShape" transform="rotate(-90 824 10308)"><tspan class="TextParagraph" font-family="Arial, sans-serif" font-size="318px" font-weight="400"><tspan class="TextPosition" x="824" y="10308"><tspan fill="rgb(0,0,0)" stroke="none" style="white-space: pre">Tokens in circulation</tspan></tspan></tspan></text>
</svg>