<svg class="main-svg" xmlns="http://www.w3.org/2000/svg" xmlns:xlink="http://www.w3.org/1999/xlink" width="960" height="600" style="" viewBox="0 0 960 600"><rect x="0" y="0" width="960" height="600" style="fill: rgb(255, 255, 255); fill-opacity: 1;"/><defs id="defs-5e09bb"><g class="clips"><clipPath id="clip5e09bbxyplot" class="plotclip"><rect width="800" height="420"/></clipPath><clipPath class="axesclip" id="clip5e09bbx"><rect x="80" y="0" width="800" height="600"/></clipPath><clipPath class="axesclip" id="clip5e09bby"><rect x="0" y="100" width="960" height="420"/></clipPath><clipPath class="axesclip" id="clip5e09bbxy"><rect x="80" y="100" width="800" height="420"/></clipPath></g><g class="gradients"/><g class="patterns"/></defs><g class="bglayer"/><g class="layer-below"><g class="imagelayer"/><g class="shapelayer"/></g><g class="cartesianlayer"><g class="subplot xy"><g class="layer-subplot"><g class="shapelayer"/><g class="imagelayer"/></g><g class="minor-gridlayer"><g class="x"/><g class="y"/></g><g class="gridlayer"><g class="x"><path class="xgrid crisp" transform="translate(99.67,0)" d="M0,100v420" style="stroke: rgb(238, 238, 238); stroke-opacity: 1; stroke-width: 1px;"/><path class="xgrid crisp" transform="translate(119.34,0)" d="M0,100v420" style="stroke: rgb(238, 238, 238); stroke-opacity: 1; stroke-width: 1px;"/><path class="xgrid crisp" transform="translate(139.02,0)" d="M0,100v420" style="stroke: rgb(238, 238, 238); stroke-opacity: 1; stroke-width: 1px;"/><path class="xgrid crisp" transform="translate(158.69,0)" d="M0,100v420" style="stroke: rgb(238, 238, 238); stroke-opacity: 1; stroke-width: 1px;"/><path class="xgrid crisp" transform="translate(178.36,0)" d="M0,100v420" style="stroke: rgb(238, 238, 238); stroke-opacity: 1; stroke-width: 1px;"/><path class="xgrid crisp" transform="translate(198.03,0)" d="M0,100v420" style="stroke: rgb(238, 238, 238); stroke-opacity: 1; stroke-width: 1px;"/><path class="xgrid crisp" transform="translate(217.7,0)" d="M0,100v420" style="stroke: rgb(238, 238, 238); stroke-opacity: 1; stroke-width: 1px;"/><path class="xgrid crisp" transform="translate(237.38,0)" d="M0,100v420" style="stroke: rgb(238, 238, 238); stroke-opacity: 1; stroke-width: 1px;"/><path class="xgrid crisp" transform="translate(257.05,0)" d="M0,100v420" style="stroke: rgb(238, 238, 238); stroke-opacity: 1; stroke-width: 1px;"/><path class="xgrid crisp" transform="translate(276.72,0)" d="M0,100v420" style="stroke: rgb(238, 238, 238); stroke-opacity: 1; stroke-width: 1px;"/><path class="xgrid crisp" transform="translate(296.39,0)" d="M0,100v420" style="stroke: rgb(238, 238, 238); stroke-opacity: 1; stroke-width: 1px;"/><path class="xgrid crisp" transform="translate(316.07,0)" d="M0,100v420" style="stroke: rgb(238, 238, 238); stroke-opacity: 1; stroke-width: 1px;"/><path class="xgrid crisp" transform="translate(335.74,0)" d="M0,100v420" style="stroke: rgb(238, 238, 238); stroke-opacity: 1; stroke-width: 1px;"/><path class="xgrid crisp" transform="translate(355.41,0)" d="M0,100v420" style="stroke: rgb(238, 238, 238); stroke-opacity: 1; stroke-width: 1px;"/><path class="xgrid crisp" transform="translate(375.08,0)" d="M0,100v420" style="stroke: rgb(238, 238, 238); stroke-opacity: 1; stroke-width: 1px;"/><path class="xgrid crisp" transform="translate(394.75,0)" d="M0,100v420" style="stroke: rgb(238, 238, 238); stroke-opacity: 1; stroke-width: 1px;"/><path class="xgrid crisp" transform="translate(414.43,0)" d="M0,100v420" style="stroke: rgb(238, 238, 238); stroke-opacity: 1; stroke-width: 1px;"/><path class="xgrid crisp" transform="translate(434.1,0)" d="M0,100v420" style="stroke: rgb(238, 238, 238); stroke-opacity: 1; stroke-width: 1px;"/><path class="xgrid crisp" transform="translate(453.77,0)" d="M0,100v420" style="stroke: rgb(238, 238, 238); stroke-opacity: 1; stroke-width: 1px;"/><path class="xgrid crisp" transform="translate(473.44,0)" d="M0,100v420" style="stroke: rgb(238, 238, 238); stroke-opacity: 1; stroke-width: 1px;"/><path class="xgrid crisp" transform="translate(493.11,0)" d="M0,100v420" style="stroke: rgb(238, 238, 238); stroke-opacity: 1; stroke-width: 1px;"/><path class="xgrid crisp" transform="translate(512.79,0)" d="M0,100v420" style="stroke: rgb(238, 238, 238); stroke-opacity: 1; stroke-width: 1px;"/><path class="xgrid crisp" transform="translate(532.46,0)" d="M0,100v420" style="stroke: rgb(238, 238, 238); stroke-opacity: 1; stroke-width: 1px;"/><path class="xgrid crisp" transform="translate(552.13,0)" d="M0,100v420" style="stroke: rgb(238, 238, 238); stroke-opacity: 1; stroke-width: 1px;"/><path class="xgrid crisp" transform="translate(571.8,0)" d="M0,100v420" style="stroke: rgb(238, 238, 238); stroke-opacity: 1; stroke-width: 1px;"/><path class="xgrid crisp" transform="translate(591.48,0)" d="M0,100v420" style="stroke: rgb(238, 238, 238); stroke-opacity: 1; stroke-width: 1px;"/><path class="xgrid crisp" transform="translate(611.15,0)" d="M0,100v420" style="stroke: rgb(238, 238, 238); stroke-opacity: 1; stroke-width: 1px;"/><path class="xgrid crisp" transform="translate(630.82,0)" d="M0,100v420" style="stroke: rgb(238, 238, 238); stroke-opacity: 1; stroke-width: 1px;"/><path class="xgrid crisp" transform="translate(650.49,0)" d="M0,100v420" style="stroke: rgb(238, 238, 238); stroke-opacity: 1; stroke-width: 1px;"/><path class="xgrid crisp" transform="translate(670.16,0)" d="M0,100v420" style="stroke: rgb(238, 238, 238); stroke-opacity: 1; stroke-width: 1px;"/><path class="xgrid crisp" transform="translate(689.84,0)" d="M0,100v420" style="stroke: rgb(238, 238, 238); stroke-opacity: 1; stroke-width: 1px;"/><path class="xgrid crisp" transform="translate(709.51,0)" d="M0,100v420" style="stroke: rgb(238, 238, 238); stroke-opacity: 1; stroke-width: 1px;"/><path class="xgrid crisp" transform="translate(729.18,0)" d="M0,100v420" style="stroke: rgb(238, 238, 238); stroke-opacity: 1; stroke-width: 1px;"/><path class="xgrid crisp" transform="translate(748.85,0)" d="M0,100v420" style="stroke: rgb(238, 238, 238); stroke-opacity: 1; stroke-width: 1px;"/><path class="xgrid crisp" transform="translate(768.52,0)" d="M0,100v420" style="stroke: rgb(238, 238, 238); stroke-opacity: 1; stroke-width: 1px;"/><path class="xgrid crisp" transform="translate(788.2,0)" d="M0,100v420" style="stroke: rgb(238, 238, 238); stroke-opacity: 1; stroke-width: 1px;"/><path class="xgrid crisp" transform="translate(807.87,0)" d="M0,100v420" style="stroke: rgb(238, 238, 238); stroke-opacity: 1; stroke-width: 1px;"/><path class="xgrid crisp" transform="translate(827.54,0)" d="M0,100v420" style="stroke: rgb(238, 238, 238); stroke-opacity: 1; stroke-width: 1px;"/><path class="xgrid crisp" transform="translate(847.21,0)" d="M0,100v420" style="stroke: rgb(238, 238, 238); stroke-opacity: 1; stroke-width: 1px;"/><path class="xgrid crisp" transform="translate(866.89,0)" d="M0,100v420" style="stroke: rgb(238, 238, 238); stroke-opacity: 1; stroke-width: 1px;"/></g><g class="y"><path class="ygrid crisp" transform="translate(0,467.84)" d="M80,0h800" style="stroke: rgb(238, 238, 238); stroke-opacity: 1; stroke-width: 1px;"/><path class="ygrid crisp" transform="translate(0,415.69)" d="M80,0h800" style="stroke: rgb(238, 238, 238); stroke-opacity: 1; stroke-width: 1px;"/><path class="ygrid crisp" transform="translate(0,363.53)" d="M80,0h800" style="stroke: rgb(238, 238, 238); stroke-opacity: 1; stroke-width: 1px;"/><path class="ygrid crisp" transform="translate(0,311.37)" d="M80,0h800" style="stroke: rgb(238, 238, 238); stroke-opacity: 1; stroke-width: 1px;"/><path class="ygrid crisp" transform="translate(0,259.22)" d="M80,0h800" style="stroke: rgb(238, 238, 238); stroke-opacity: 1; stroke-width: 1px;"/><path class="ygrid crisp" transform="translate(0,207.06)" d="M80,0h800" style="stroke: rgb(238, 238, 238); stroke-opacity: 1; stroke-width: 1px;"/><path class="ygrid crisp" transform="translate(0,154.9)" d="M80,0h800" style="stroke: rgb(238, 238, 238); stroke-opacity: 1; stroke-width: 1px;"/><path class="ygrid crisp" transform="translate(0,102.75)" d="M80,0h800" style="stroke: rgb(238, 238, 238); stroke-opacity: 1; stroke-width: 1px;"/></g></g><g class="zerolinelayer"><path class="yzl zl crisp" transform="translate(0,520)" d="M80,0h800" style="stroke: rgb(68, 68, 68); stroke-opacity: 1; stroke-width: 1px;"/></g><path class="xlines-below"/><path class="ylines-below"/><g class="overlines-below"/><g class="xaxislayer-below"/><g class="yaxislayer-below"/><g class="overaxes-below"/><g class="plot" transform="translate(80,100)" clip-path="url(#clip5e09bbxyplot)"><g class="scatterlayer mlayer"><g class="trace scatter tracea11fe7" style="stroke-miterlimit: 2;"><g class="fills"><g><path class="js-fill" d="M800,420L0,420L0,420L72.13,420L78.69,404.35L91.8,404.35L98.36,396.53L111.48,396.53L118.03,388.71L131.15,388.71L137.7,380.88L150.82,380.88L157.38,373.06L170.49,373.06L177.05,365.24L190.16,365.24L196.72,357.41L209.84,357.41L216.39,350.11L229.51,350.11L236.07,342.81L249.18,342.81L255.74,335.51L268.85,335.51L275.41,328.2L288.52,328.2L295.08,321.95L308.2,321.95L314.75,315.69L800,315.69" style="fill: rgb(0, 0, 255); fill-opacity: 0.5; stroke-width: 0;"/></g><g><path class="js-fill" d="M0,380.41L72.13,380.41L78.69,325.18L91.8,325.18L98.36,317.36L111.48,317.36L118.03,268.75L131.15,268.75L137.7,260.92L150.82,260.92L157.38,253.1L170.49,253.1L177.05,245.27L190.16,245.27L196.72,237.45L209.84,237.45L216.39,230.15L229.51,230.15L236.07,222.85L249.18,222.85L255.74,215.55L268.85,215.55L275.41,208.24L288.52,208.24L295.08,201.98L308.2,201.98L314.75,195.73L800,195.73L800,315.69L314.75,315.69L308.2,321.95L295.08,321.95L288.52,328.2L275.41,328.2L268.85,335.51L255.74,335.51L249.18,342.81L236.07,342.81L229.51,350.11L216.39,350.11L209.84,357.41L196.72,357.41L190.16,365.24L177.05,365.24L170.49,373.06L157.38,373.06L150.82,380.88L137.7,380.88L131.15,388.71L118.03,388.71L111.48,396.53L98.36,396.53L91.8,404.35L78.69,404.35L72.13,420L0,420Z" style="fill: rgb(255, 0, 0); fill-opacity: 0.5; stroke-width: 0;"/></g></g><g class="errorbars"/><g class="lines"><path class="js-line" d="M0,420L72.13,420L78.69,404.35L91.8,404.35L98.36,396.53L111.48,396.53L118.03,388.71L131.15,388.71L137.7,380.88L150.82,380.88L157.38,373.06L170.49,373.06L177.05,365.24L190.16,365.24L196.72,357.41L209.84,357.41L216.39,350.11L229.51,350.11L236.07,342.81L249.18,342.81L255.74,335.51L268.85,335.51L275.41,328.2L288.52,328.2L295.08,321.95L308.2,321.95L314.75,315.69L800,315.69" style="vector-effect: non-scaling-stroke; fill: none; stroke: rgb(0, 0, 255); stroke-opacity: 1; stroke-width: 2px; opacity: 1;"/></g><g class="points"/><g class="text"/></g><g class="trace scatter trace6779ad" style="stroke-miterlimit: 2;"><g class="fills"><g><path class="js-fill" d="M0,367.37L72.13,367.37L78.69,312.14L91.8,312.14L98.36,304.32L111.48,304.32L118.03,255.71L131.15,255.71L137.7,247.88L150.82,247.88L157.38,234.84L170.49,234.84L177.05,227.02L190.16,227.02L196.72,219.2L209.84,219.2L216.39,211.89L229.51,211.89L236.07,203.29L249.18,203.29L255.74,195.99L268.85,195.99L275.41,188.68L288.52,188.68L295.08,182.43L308.2,182.43L314.75,174.86L327.87,174.86L334.43,173.56L347.54,173.56L354.1,172.25L367.21,172.25L373.77,170.95L386.89,170.95L393.44,169.65L406.56,169.65L413.11,168.34L426.23,168.34L432.79,167.04L445.9,167.04L452.46,165.74L465.57,165.74L472.13,164.43L485.25,164.43L491.8,163.13L504.92,163.13L511.48,161.82L524.59,161.82L531.15,160.52L544.26,160.52L550.82,159.22L563.93,159.22L570.49,157.91L583.61,157.91L590.16,156.61L603.28,156.61L609.84,155.3L622.95,155.3L629.51,154L642.62,154L649.18,152.7L662.3,152.7L668.85,151.39L681.97,151.39L688.52,150.09L701.64,150.09L708.2,148.78L721.31,148.78L727.87,147.48L740.98,147.48L747.54,146.18L760.66,146.18L767.21,144.87L780.33,144.87L786.89,143.57L800,143.57L800,195.73L314.75,195.73L308.2,201.98L295.08,201.98L288.52,208.24L275.41,208.24L268.85,215.55L255.74,215.55L249.18,222.85L236.07,222.85L229.51,230.15L216.39,230.15L209.84,237.45L196.72,237.45L190.16,245.27L177.05,245.27L170.49,253.1L157.38,253.1L150.82,260.92L137.7,260.92L131.15,268.75L118.03,268.75L111.48,317.36L98.36,317.36L91.8,325.18L78.69,325.18L72.13,380.41L0,380.41Z" style="fill: rgb(255, 215, 0); fill-opacity: 0.5; stroke-width: 0;"/></g></g><g class="errorbars"/><g class="lines"><path class="js-line" d="M0,380.41L72.13,380.41L78.69,325.18L91.8,325.18L98.36,317.36L111.48,317.36L118.03,268.75L131.15,268.75L137.7,260.92L150.82,260.92L157.38,253.1L170.49,253.1L177.05,245.27L190.16,245.27L196.72,237.45L209.84,237.45L216.39,230.15L229.51,230.15L236.07,222.85L249.18,222.85L255.74,215.55L268.85,215.55L275.41,208.24L288.52,208.24L295.08,201.98L308.2,201.98L314.75,195.73L800,195.73" style="vector-effect: non-scaling-stroke; fill: none; stroke: rgb(255, 0, 0); stroke-opacity: 1; stroke-width: 2px; opacity: 1;"/></g><g class="points"/><g class="text"/></g><g class="trace scatter trace7fb2c4" style="stroke-miterlimit: 2;"><g class="fills"><g><path class="js-fill" d="M0,348.08L72.13,348.08L78.69,271.61L91.8,271.61L98.36,263.79L111.48,263.79L118.03,195.88L131.15,195.88L137.7,186.13L150.82,186.13L157.38,171.16L170.49,171.16L177.05,161.41L190.16,161.41L196.72,151.65L209.84,151.65L216.39,143.39L229.51,143.39L236.07,133.82L249.18,133.82L255.74,125.55L268.85,125.55L275.41,117.28L288.52,117.28L295.08,110.06L308.2,110.06L314.75,101.53L327.87,101.53L334.43,99.26L347.54,99.26L354.1,96.99L367.21,96.99L373.77,94.72L386.89,94.72L393.44,92.45L406.56,92.45L413.11,90.19L426.23,90.19L432.79,87.92L445.9,87.92L452.46,85.65L465.57,85.65L472.13,83.38L485.25,83.38L491.8,81.11L504.92,81.11L511.48,78.84L524.59,78.84L531.15,76.57L544.26,76.57L550.82,74.3L563.93,74.3L570.49,72.04L583.61,72.04L590.16,69.77L603.28,69.77L609.84,67.5L622.95,67.5L629.51,65.23L642.62,65.23L649.18,62.96L662.3,62.96L668.85,60.69L681.97,60.69L688.52,58.42L701.64,58.42L708.2,56.15L721.31,56.15L727.87,53.88L740.98,53.88L747.54,51.62L760.66,51.62L767.21,49.35L780.33,49.35L786.89,47.08L800,47.08L800,143.57L786.89,143.57L780.33,144.87L767.21,144.87L760.66,146.18L747.54,146.18L740.98,147.48L727.87,147.48L721.31,148.78L708.2,148.78L701.64,150.09L688.52,150.09L681.97,151.39L668.85,151.39L662.3,152.7L649.18,152.7L642.62,154L629.51,154L622.95,155.3L609.84,155.3L603.28,156.61L590.16,156.61L583.61,157.91L570.49,157.91L563.93,159.22L550.82,159.22L544.26,160.52L531.15,160.52L524.59,161.82L511.48,161.82L504.92,163.13L491.8,163.13L485.25,164.43L472.13,164.43L465.57,165.74L452.46,165.74L445.9,167.04L432.79,167.04L426.23,168.34L413.11,168.34L406.56,169.65L393.44,169.65L386.89,170.95L373.77,170.95L367.21,172.25L354.1,172.25L347.54,173.56L334.43,173.56L327.87,174.86L314.75,174.86L308.2,182.43L295.08,182.43L288.52,188.68L275.41,188.68L268.85,195.99L255.74,195.99L249.18,203.29L236.07,203.29L229.51,211.89L216.39,211.89L209.84,219.2L196.72,219.2L190.16,227.02L177.05,227.02L170.49,234.84L157.38,234.84L150.82,247.88L137.7,247.88L131.15,255.71L118.03,255.71L111.48,304.32L98.36,304.32L91.8,312.14L78.69,312.14L72.13,367.37L0,367.37Z" style="fill: rgb(0, 128, 0); fill-opacity: 0.5; stroke-width: 0;"/></g></g><g class="errorbars"/><g class="lines"><path class="js-line" d="M0,367.37L72.13,367.37L78.69,312.14L91.8,312.14L98.36,304.32L111.48,304.32L118.03,255.71L131.15,255.71L137.7,247.88L150.82,247.88L157.38,234.84L170.49,234.84L177.05,227.02L190.16,227.02L196.72,219.2L209.84,219.2L216.39,211.89L229.51,211.89L236.07,203.29L249.18,203.29L255.74,195.99L268.85,195.99L275.41,188.68L288.52,188.68L295.08,182.43L308.2,182.43L314.75,174.86L327.87,174.86L334.43,173.56L347.54,173.56L354.1,172.25L367.21,172.25L373.77,170.95L386.89,170.95L393.44,169.65L406.56,169.65L413.11,168.34L426.23,168.34L432.79,167.04L445.9,167.04L452.46,165.74L465.57,165.74L472.13,164.43L485.25,164.43L491.8,163.13L504.92,163.13L511.48,161.82L524.59,161.82L531.15,160.52L544.26,160.52L550.82,159.22L563.93,159.22L570.49,157.91L583.61,157.91L590.16,156.61L603.28,156.61L609.84,155.3L622.95,155.3L629.51,154L642.62,154L649.18,152.7L662.3,152.7L668.85,151.39L681.97,151.39L688.52,150.09L701.64,150.09L708.2,148.78L721.31,148.78L727.87,147.48L740.98,147.48L747.54,146.18L760.66,146.18L767.21,144.87L780.33,144.87L786.89,143.57L800,143.57" style="vector-effect: non-scaling-stroke; fill: none; stroke: rgb(255, 215, 0); stroke-opacity: 1; stroke-width: 2px; opacity: 1;"/></g><g class="points"/><g class="text"/></g><g class="trace scatter traceebd23b" style="stroke-miterlimit: 2;"><g class="fills"><g><path class="js-fill" d="M0,347.42L52.46,346.77L59.02,346.12L72.13,346.12L78.69,269.01L91.8,269.01L98.36,260.53L111.48,260.53L118.03,191.97L131.15,191.97L137.7,181.56L150.82,181.56L157.38,165.94L170.49,165.94L177.05,155.54L190.16,155.54L196.72,145.13L209.84,145.13L216.39,136.21L229.51,136.21L236.07,125.99L249.18,125.99L255.74,117.07L268.85,117.07L275.41,108.15L288.52,108.15L295.08,100.28L308.2,100.28L314.75,91.1L327.87,91.1L334.43,88.18L347.54,88.18L354.1,85.26L367.21,85.26L373.77,82.34L386.89,82.34L393.44,79.42L406.56,79.42L413.11,76.49L426.23,76.49L432.79,73.57L445.9,73.57L452.46,70.65L465.57,70.65L472.13,67.73L485.25,67.73L491.8,64.81L504.92,64.81L511.48,61.89L524.59,61.89L531.15,58.97L544.26,58.97L550.82,56.05L563.93,56.05L570.49,53.13L583.61,53.13L590.16,50.21L603.28,50.21L609.84,47.29L622.95,47.29L629.51,44.37L642.62,44.37L649.18,41.45L662.3,41.45L668.85,38.52L681.97,38.52L688.52,35.6L701.64,35.6L708.2,32.68L721.31,32.68L727.87,29.76L740.98,29.76L747.54,26.84L760.66,26.84L767.21,23.92L780.33,23.92L786.89,21L800,21L800,47.08L786.89,47.08L780.33,49.35L767.21,49.35L760.66,51.62L747.54,51.62L740.98,53.88L727.87,53.88L721.31,56.15L708.2,56.15L701.64,58.42L688.52,58.42L681.97,60.69L668.85,60.69L662.3,62.96L649.18,62.96L642.62,65.23L629.51,65.23L622.95,67.5L609.84,67.5L603.28,69.77L590.16,69.77L583.61,72.04L570.49,72.04L563.93,74.3L550.82,74.3L544.26,76.57L531.15,76.57L524.59,78.84L511.48,78.84L504.92,81.11L491.8,81.11L485.25,83.38L472.13,83.38L465.57,85.65L452.46,85.65L445.9,87.92L432.79,87.92L426.23,90.19L413.11,90.19L406.56,92.45L393.44,92.45L386.89,94.72L373.77,94.72L367.21,96.99L354.1,96.99L347.54,99.26L334.43,99.26L327.87,101.53L314.75,101.53L308.2,110.06L295.08,110.06L288.52,117.28L275.41,117.28L268.85,125.55L255.74,125.55L249.18,133.82L236.07,133.82L229.51,143.39L216.39,143.39L209.84,151.65L196.72,151.65L190.16,161.41L177.05,161.41L170.49,171.16L157.38,171.16L150.82,186.13L137.7,186.13L131.15,195.88L118.03,195.88L111.48,263.79L98.36,263.79L91.8,271.61L78.69,271.61L72.13,348.08L0,348.08Z" style="fill: rgb(255, 165, 0); fill-opacity: 0.5; stroke-width: 0;"/></g></g><g class="errorbars"/><g class="lines"><path class="js-line" d="M0,348.08L72.13,348.08L78.69,271.61L91.8,271.61L98.36,263.79L111.48,263.79L118.03,195.88L131.15,195.88L137.7,186.13L150.82,186.13L157.38,171.16L170.49,171.16L177.05,161.41L190.16,161.41L196.72,151.65L209.84,151.65L216.39,143.39L229.51,143.39L236.07,133.82L249.18,133.82L255.74,125.55L268.85,125.55L275.41,117.28L288.52,117.28L295.08,110.06L308.2,110.06L314.75,101.53L327.87,101.53L334.43,99.26L347.54,99.26L354.1,96.99L367.21,96.99L373.77,94.72L386.89,94.72L393.44,92.45L406.56,92.45L413.11,90.19L426.23,90.19L432.79,87.92L445.9,87.92L452.46,85.65L465.57,85.65L472.13,83.38L485.25,83.38L491.8,81.11L504.92,81.11L511.48,78.84L524.59,78.84L531.15,76.57L544.26,76.57L550.82,74.3L563.93,74.3L570.49,72.04L583.61,72.04L590.16,69.77L603.28,69.77L609.84,67.5L622.95,67.5L629.51,65.23L642.62,65.23L649.18,62.96L662.3,62.96L668.85,60.69L681.97,60.69L688.52,58.42L701.64,58.42L708.2,56.15L721.31,56.15L727.87,53.88L740.98,53.88L747.54,51.62L760.66,51.62L767.21,49.35L780.33,49.35L786.89,47.08L800,47.08" style="vector-effect: non-scaling-stroke; fill: none; stroke: rgb(0, 128, 0); stroke-opacity: 1; stroke-width: 2px; opacity: 1;"/></g><g class="points"/><g class="text"/></g><g class="trace scatter tracee2c0be" style="stroke-miterlimit: 2;"><g class="fills"/><g class="errorbars"/><g class="lines"><path class="js-line" d="M0,347.42L52.46,346.77L59.02,346.12L72.13,346.12L78.69,269.01L91.8,269.01L98.36,260.53L111.48,260.53L118.03,191.97L131.15,191.97L137.7,181.56L150.82,181.56L157.38,165.94L170.49,165.94L177.05,155.54L190.16,155.54L196.72,145.13L209.84,145.13L216.39,136.21L229.51,136.21L236.07,125.99L249.18,125.99L255.74,117.07L268.85,117.07L275.41,108.15L288.52,108.15L295.08,100.28L308.2,100.28L314.75,91.1L327.87,91.1L334.43,88.18L347.54,88.18L354.1,85.26L367.21,85.26L373.77,82.34L386.89,82.34L393.44,79.42L406.56,79.42L413.11,76.49L426.23,76.49L432.79,73.57L445.9,73.57L452.46,70.65L465.57,70.65L472.13,67.73L485.25,67.73L491.8,64.81L504.92,64.81L511.48,61.89L524.59,61.89L531.15,58.97L544.26,58.97L550.82,56.05L563.93,56.05L570.49,53.13L583.61,53.13L590.16,50.21L603.28,50.21L609.84,47.29L622.95,47.29L629.51,44.37L642.62,44.37L649.18,41.45L662.3,41.45L668.85,38.52L681.97,38.52L688.52,35.6L701.64,35.6L708.2,32.68L721.31,32.68L727.87,29.76L740.98,29.76L747.54,26.84L760.66,26.84L767.21,23.92L780.33,23.92L786.89,21L800,21" style="vector-effect: non-scaling-stroke; fill: none; stroke: rgb(255, 165, 0); stroke-opacity: 1; stroke-width: 2px; opacity: 1;"/></g><g class="points"/><g class="text"/></g></g></g><g class="overplot"/><path class="xlines-above crisp" d="M0,0" style="fill: none;"/><path class="ylines-above crisp" d="M0,0" style="fill: none;"/><g class="overlines-above"/><g class="xaxislayer-above"><g class="xtick"><text text-anchor="end" x="-2.0999999999999996" y="529.4" transform="translate(80,0) rotate(-90,-2.0999999999999996,523.4)" style="font-family: 'Open Sans', verdana, arial, sans-serif; font-size: 12px; fill: rgb(68, 68, 68); fill-opacity: 1; white-space: pre; opacity: 1;">11/18/20</text></g><g class="xtick"><text text-anchor="end" x="-2.0999999999999996" y="529.4" transform="translate(99.67,0) rotate(-90,-2.0999999999999996,523.4)" style="font-family: 'Open Sans', verdana, arial, sans-serif; font-size: 12px; fill: rgb(68, 68, 68); fill-opacity: 1; white-space: pre; opacity: 1;">2/18/21</text></g><g class="xtick"><text text-anchor="end" x="-2.0999999999999996" y="529.4" transform="translate(119.34,0) rotate(-90,-2.0999999999999996,523.4)" style="font-family: 'Open Sans', verdana, arial, sans-serif; font-size: 12px; fill: rgb(68, 68, 68); fill-opacity: 1; white-space: pre; opacity: 1;">5/18/21</text></g><g class="xtick"><text text-anchor="end" x="-2.0999999999999996" y="529.4" transform="translate(139.02,0) rotate(-90,-2.0999999999999996,523.4)" style="font-family: 'Open Sans', verdana, arial, sans-serif; font-size: 12px; fill: rgb(68, 68, 68); fill-opacity: 1; white-space: pre; opacity: 1;">8/18/21</text></g><g class="xtick"><text text-anchor="end" x="-2.0999999999999996" y="529.4" transform="translate(158.69,0) rotate(-90,-2.0999999999999996,523.4)" style="font-family: 'Open Sans', verdana, arial, sans-serif; font-size: 12px; fill: rgb(68, 68, 68); fill-opacity: 1; white-space: pre; opacity: 1;">11/18/21</text></g><g class="xtick"><text text-anchor="end" x="-2.0999999999999996" y="529.4" transform="translate(178.36,0) rotate(-90,-2.0999999999999996,523.4)" style="font-family: 'Open Sans', verdana, arial, sans-serif; font-size: 12px; fill: rgb(68, 68, 68); fill-opacity: 1; white-space: pre; opacity: 1;">2/18/22</text></g><g class="xtick"><text text-anchor="end" x="-2.0999999999999996" y="529.4" transform="translate(198.03,0) rotate(-90,-2.0999999999999996,523.4)" style="font-family: 'Open Sans', verdana, arial, sans-serif; font-size: 12px; fill: rgb(68, 68, 68); fill-opacity: 1; white-space: pre; opacity: 1;">5/18/22</text></g><g class="xtick"><text text-anchor="end" x="-2.0999999999999996" y="529.4" transform="translate(217.7,0) rotate(-90,-2.0999999999999996,523.4)" style="font-family: 'Open Sans', verdana, arial, sans-serif; font-size: 12px; fill: rgb(68, 68, 68); fill-opacity: 1; white-space: pre; opacity: 1;">8/18/22</text></g><g class="xtick"><text text-anchor="end" x="-2.0999999999999996" y="529.4" transform="translate(237.38,0) rotate(-90,-2.0999999999999996,523.4)" style="font-family: 'Open Sans', verdana, arial, sans-serif; font-size: 12px; fill: rgb(68, 68, 68); fill-opacity: 1; white-space: pre; opacity: 1;">11/18/22</text></g><g class="xtick"><text text-anchor="end" x="-2.0999999999999996" y="529.4" transform="translate(257.05,0) rotate(-90,-2.0999999999999996,523.4)" style="font-family: 'Open Sans', verdana, arial, sans-serif; font-size: 12px; fill: rgb(68, 68, 68); fill-opacity: 1; white-space: pre; opacity: 1;">2/18/23</text></g><g class="xtick"><text text-anchor="end" x="-2.0999999999999996" y="529.4" transform="translate(276.72,0) rotate(-90,-2.0999999999999996,523.4)" style="font-family: 'Open Sans', verdana, arial, sans-serif; font-size: 12px; fill: rgb(68, 68, 68); fill-opacity: 1; white-space: pre; opacity: 1;">5/18/23</text></g><g class="xtick"><text text-anchor="end" x="-2.0999999999999996" y="529.4" transform="translate(296.39,0) rotate(-90,-2.0999999999999996,523.4)" style="font-family: 'Open Sans', verdana, arial, sans-serif; font-size: 12px; fill: rgb(68, 68, 68); fill-opacity: 1; white-space: pre; opacity: 1;">8/18/23</text></g><g class="xtick"><text text-anchor="end" x="-2.0999999999999996" y="529.4" transform="translate(316.07,0) rotate(-90,-2.0999999999999996,523.4)" style="font-family: 'Open Sans', verdana, arial, sans-serif; font-size: 12px; fill: rgb(68, 68, 68); fill-opacity: 1; white-space: pre; opacity: 1;">11/18/23</text></g><g class="xtick"><text text-anchor="end" x="-2.0999999999999996" y="529.4" transform="translate(335.74,0) rotate(-90,-2.0999999999999996,523.4)" style="font-family: 'Open Sans', verdana, arial, sans-serif; font-size: 12px; fill: rgb(68, 68, 68); fill-opacity: 1; white-space: pre; opacity: 1;">2/18/24</text></g><g class="xtick"><text text-anchor="end" x="-2.0999999999999996" y="529.4" transform="translate(355.41,0) rotate(-90,-2.0999999999999996,523.4)" style="font-family: 'Open Sans', verdana, arial, sans-serif; font-size: 12px; fill: rgb(68, 68, 68); fill-opacity: 1; white-space: pre; opacity: 1;">5/18/24</text></g><g class="xtick"><text text-anchor="end" x="-2.0999999999999996" y="529.4" transform="translate(375.08,0) rotate(-90,-2.0999999999999996,523.4)" style="font-family: 'Open Sans', verdana, arial, sans-serif; font-size: 12px; fill: rgb(68, 68, 68); fill-opacity: 1; white-space: pre; opacity: 1;">8/18/24</text></g><g class="xtick"><text text-anchor="end" x="-2.0999999999999996" y="529.4" transform="translate(394.75,0) rotate(-90,-2.0999999999999996,523.4)" style="font-family: 'Open Sans', verdana, arial, sans-serif; font-size: 12px; fill: rgb(68, 68, 68); fill-opacity: 1; white-space: pre; opacity: 1;">11/18/24</text></g><g class="xtick"><text text-anchor="end" x="-2.0999999999999996" y="529.4" transform="translate(414.43,0) rotate(-90,-2.0999999999999996,523.4)" style="font-family: 'Open Sans', verdana, arial, sans-serif; font-size: 12px; fill: rgb(68, 68, 68); fill-opacity: 1; white-space: pre; opacity: 1;">2/18/25</text></g><g class="xtick"><text text-anchor="end" x="-2.0999999999999996" y="529.4" transform="translate(434.1,0) rotate(-90,-2.0999999999999996,523.4)" style="font-family: 'Open Sans', verdana, arial, sans-serif; font-size: 12px; fill: rgb(68, 68, 68); fill-opacity: 1; white-space: pre; opacity: 1;">5/18/25</text></g><g class="xtick"><text text-anchor="end" x="-2.0999999999999996" y="529.4" transform="translate(453.77,0) rotate(-90,-2.0999999999999996,523.4)" style="font-family: 'Open Sans', verdana, arial, sans-serif; font-size: 12px; fill: rgb(68, 68, 68); fill-opacity: 1; white-space: pre; opacity: 1;">8/18/25</text></g><g class="xtick"><text text-anchor="end" x="-2.0999999999999996" y="529.4" transform="translate(473.44,0) rotate(-90,-2.0999999999999996,523.4)" style="font-family: 'Open Sans', verdana, arial, sans-serif; font-size: 12px; fill: rgb(68, 68, 68); fill-opacity: 1; white-space: pre; opacity: 1;">11/18/25</text></g><g class="xtick"><text text-anchor="end" x="-2.0999999999999996" y="529.4" transform="translate(493.11,0) rotate(-90,-2.0999999999999996,523.4)" style="font-family: 'Open Sans', verdana, arial, sans-serif; font-size: 12px; fill: rgb(68, 68, 68); fill-opacity: 1; white-space: pre; opacity: 1;">2/18/26</text></g><g class="xtick"><text text-anchor="end" x="-2.0999999999999996" y="529.4" transform="translate(512.79,0) rotate(-90,-2.0999999999999996,523.4)" style="font-family: 'Open Sans', verdana, arial, sans-serif; font-size: 12px; fill: rgb(68, 68, 68); fill-opacity: 1; white-space: pre; opacity: 1;">5/18/26</text></g><g class="xtick"><text text-anchor="end" x="-2.0999999999999996" y="529.4" transform="translate(532.46,0) rotate(-90,-2.0999999999999996,523.4)" style="font-family: 'Open Sans', verdana, arial, sans-serif; font-size: 12px; fill: rgb(68, 68, 68); fill-opacity: 1; white-space: pre; opacity: 1;">8/18/26</text></g><g class="xtick"><text text-anchor="end" x="-2.0999999999999996" y="529.4" transform="translate(552.13,0) rotate(-90,-2.0999999999999996,523.4)" style="font-family: 'Open Sans', verdana, arial, sans-serif; font-size: 12px; fill: rgb(68, 68, 68); fill-opacity: 1; white-space: pre; opacity: 1;">11/18/26</text></g><g class="xtick"><text text-anchor="end" x="-2.0999999999999996" y="529.4" transform="translate(571.8,0) rotate(-90,-2.0999999999999996,523.4)" style="font-family: 'Open Sans', verdana, arial, sans-serif; font-size: 12px; fill: rgb(68, 68, 68); fill-opacity: 1; white-space: pre; opacity: 1;">2/18/27</text></g><g class="xtick"><text text-anchor="end" x="-2.0999999999999996" y="529.4" transform="translate(591.48,0) rotate(-90,-2.0999999999999996,523.4)" style="font-family: 'Open Sans', verdana, arial, sans-serif; font-size: 12px; fill: rgb(68, 68, 68); fill-opacity: 1; white-space: pre; opacity: 1;">5/18/27</text></g><g class="xtick"><text text-anchor="end" x="-2.0999999999999996" y="529.4" transform="translate(611.15,0) rotate(-90,-2.0999999999999996,523.4)" style="font-family: 'Open Sans', verdana, arial, sans-serif; font-size: 12px; fill: rgb(68, 68, 68); fill-opacity: 1; white-space: pre; opacity: 1;">8/18/27</text></g><g class="xtick"><text text-anchor="end" x="-2.0999999999999996" y="529.4" transform="translate(630.82,0) rotate(-90,-2.0999999999999996,523.4)" style="font-family: 'Open Sans', verdana, arial, sans-serif; font-size: 12px; fill: rgb(68, 68, 68); fill-opacity: 1; white-space: pre; opacity: 1;">11/18/27</text></g><g class="xtick"><text text-anchor="end" x="-2.0999999999999996" y="529.4" transform="translate(650.49,0) rotate(-90,-2.0999999999999996,523.4)" style="font-family: 'Open Sans', verdana, arial, sans-serif; font-size: 12px; fill: rgb(68, 68, 68); fill-opacity: 1; white-space: pre; opacity: 1;">2/18/28</text></g><g class="xtick"><text text-anchor="end" x="-2.0999999999999996" y="529.4" transform="translate(670.16,0) rotate(-90,-2.0999999999999996,523.4)" style="font-family: 'Open Sans', verdana, arial, sans-serif; font-size: 12px; fill: rgb(68, 68, 68); fill-opacity: 1; white-space: pre; opacity: 1;">5/18/28</text></g><g class="xtick"><text text-anchor="end" x="-2.0999999999999996" y="529.4" transform="translate(689.84,0) rotate(-90,-2.0999999999999996,523.4)" style="font-family: 'Open Sans', verdana, arial, sans-serif; font-size: 12px; fill: rgb(68, 68, 68); fill-opacity: 1; white-space: pre; opacity: 1;">8/18/28</text></g><g class="xtick"><text text-anchor="end" x="-2.0999999999999996" y="529.4" transform="translate(709.51,0) rotate(-90,-2.0999999999999996,523.4)" style="font-family: 'Open Sans', verdana, arial, sans-serif; font-size: 12px; fill: rgb(68, 68, 68); fill-opacity: 1; white-space: pre; opacity: 1;">11/18/28</text></g><g class="xtick"><text text-anchor="end" x="-2.0999999999999996" y="529.4" transform="translate(729.18,0) rotate(-90,-2.0999999999999996,523.4)" style="font-family: 'Open Sans', verdana, arial, sans-serif; font-size: 12px; fill: rgb(68, 68, 68); fill-opacity: 1; white-space: pre; opacity: 1;">2/18/29</text></g><g class="xtick"><text text-anchor="end" x="-2.0999999999999996" y="529.4" transform="translate(748.85,0) rotate(-90,-2.0999999999999996,523.4)" style="font-family: 'Open Sans', verdana, arial, sans-serif; font-size: 12px; fill: rgb(68, 68, 68); fill-opacity: 1; white-space: pre; opacity: 1;">5/18/29</text></g><g class="xtick"><text text-anchor="end" x="-2.0999999999999996" y="529.4" transform="translate(768.52,0) rotate(-90,-2.0999999999999996,523.4)" style="font-family: 'Open Sans', verdana, arial, sans-serif; font-size: 12px; fill: rgb(68, 68, 68); fill-opacity: 1; white-space: pre; opacity: 1;">8/18/29</text></g><g class="xtick"><text text-anchor="end" x="-2.0999999999999996" y="529.4" transform="translate(788.2,0) rotate(-90,-2.0999999999999996,523.4)" style="font-family: 'Open Sans', verdana, arial, sans-serif; font-size: 12px; fill: rgb(68, 68, 68); fill-opacity: 1; white-space: pre; opacity: 1;">11/18/29</text></g><g class="xtick"><text text-anchor="end" x="-2.0999999999999996" y="529.4" transform="translate(807.87,0) rotate(-90,-2.0999999999999996,523.4)" style="font-family: 'Open Sans', verdana, arial, sans-serif; font-size: 12px; fill: rgb(68, 68, 68); fill-opacity: 1; white-space: pre; opacity: 1;">2/18/30</text></g><g class="xtick"><text text-anchor="end" x="-2.0999999999999996" y="529.4" transform="translate(827.54,0) rotate(-90,-2.0999999999999996,523.4)" style="font-family: 'Open Sans', verdana, arial, sans-serif; font-size: 12px; fill: rgb(68, 68, 68); fill-opacity: 1; white-space: pre; opacity: 1;">5/18/30</text></g><g class="xtick"><text text-anchor="end" x="-2.0999999999999996" y="529.4" transform="translate(847.21,0) rotate(-90,-2.0999999999999996,523.4)" style="font-family: 'Open Sans', verdana, arial, sans-serif; font-size: 12px; fill: rgb(68, 68, 68); fill-opacity: 1; white-space: pre; opacity: 1;">8/18/30</text></g><g class="xtick"><text text-anchor="end" x="-2.0999999999999996" y="529.4" transform="translate(866.89,0) rotate(-90,-2.0999999999999996,523.4)" style="font-family: 'Open Sans', verdana, arial, sans-serif; font-size: 12px; fill: rgb(68, 68, 68); fill-opacity: 1; white-space: pre; opacity: 1;">11/18/30</text></g></g><g class="yaxislayer-above"><g class="ytick"><text text-anchor="end" x="79" y="4.199999999999999" transform="translate(0,520)" style="font-family: 'Open Sans', verdana, arial, sans-serif; font-size: 12px; fill: rgb(68, 68, 68); fill-opacity: 1; white-space: pre; opacity: 1;">0</text></g><g class="ytick"><text text-anchor="end" x="79" y="4.199999999999999" style="font-family: 'Open Sans', verdana, arial, sans-serif; font-size: 12px; fill: rgb(68, 68, 68); fill-opacity: 1; white-space: pre; opacity: 1;" transform="translate(0,467.84)">1B</text></g><g class="ytick"><text text-anchor="end" x="79" y="4.199999999999999" style="font-family: 'Open Sans', verdana, arial, sans-serif; font-size: 12px; fill: rgb(68, 68, 68); fill-opacity: 1; white-space: pre; opacity: 1;" transform="translate(0,415.69)">2B</text></g><g class="ytick"><text text-anchor="end" x="79" y="4.199999999999999" style="font-family: 'Open Sans', verdana, arial, sans-serif; font-size: 12px; fill: rgb(68, 68, 68); fill-opacity: 1; white-space: pre; opacity: 1;" transform="translate(0,363.53)">3B</text></g><g class="ytick"><text text-anchor="end" x="79" y="4.199999999999999" style="font-family: 'Open Sans', verdana, arial, sans-serif; font-size: 12px; fill: rgb(68, 68, 68); fill-opacity: 1; white-space: pre; opacity: 1;" transform="translate(0,311.37)">4B</text></g><g class="ytick"><text text-anchor="end" x="79" y="4.199999999999999" style="font-family: 'Open Sans', verdana, arial, sans-serif; font-size: 12px; fill: rgb(68, 68, 68); fill-opacity: 1; white-space: pre; opacity: 1;" transform="translate(0,259.22)">5B</text></g><g class="ytick"><text text-anchor="end" x="79" y="4.199999999999999" style="font-family: 'Open Sans', verdana, arial, sans-serif; font-size: 12px; fill: rgb(68, 68, 68); fill-opacity: 1; white-space: pre; opacity: 1;" transform="translate(0,207.06)">6B</text></g><g class="ytick"><text text-anchor="end" x="79" y="4.199999999999999" style="font-family: 'Open Sans', verdana, arial, sans-serif; font-size: 12px; fill: rgb(68, 68, 68); fill-opacity: 1; white-space: pre; opacity: 1;" transform="translate(0,154.9)">7B</text></g><g class="ytick"><text text-anchor="end" x="79" y="4.199999999999999" style="font-family: 'Open Sans', verdana, arial, sans-serif; font-size: 12px; fill: rgb(68, 68, 68); fill-opacity: 1; white-space: pre; opacity: 1;" transform="translate(0,102.75)">8B</text></g></g><g class="overaxes-above"/></g></g><g class="polarlayer"/><g class="smithlayer"/><g class="ternarylayer"/><g class="geolayer"/><g class="funnelarealayer"/><g class="pielayer"/><g class="iciclelayer"/><g class="treemaplayer"/><g class="sunburstlayer"/><g class="glimages"/><defs id="topdefs-5e09bb"><g class="clips"/><clipPath id="legend5e09bb"><rect width="624" height="48" x="0" y="0"/></clipPath></defs><g class="layer-above"><g class="imagelayer"/><g class="shapelayer"/></g><g class="infolayer"><g class="legend" pointer-events="all" transform="translate(168,52)"><rect class="bg" shape-rendering="crispEdges" width="624" height="48" x="0" y="0" style="stroke: rgb(68, 68, 68); stroke-opacity: 1; fill: rgb(255, 255, 255); fill-opacity: 1; stroke-width: 0px;"/><g class="scrollbox" transform="" clip-path="url(#legend5e09bb)"><g class="groups"><g class="traces" transform="translate(0,14.5)" style="opacity: 1;"><text class="legendtext" text-anchor="start" x="40" y="4.680000000000001" style="font-family: 'Open Sans', verdana, arial, sans-serif; font-size: 12px; fill: rgb(68, 68, 68); fill-opacity: 1; white-space: pre;">Strategic Partners &amp; Reserve</text><g class="layers"><g class="legendfill"><path class="js-fill" d="M5,-2h30v6h-30z" style="stroke-width: 0; fill: rgb(255, 165, 0); fill-opacity: 0.5;"/></g><g class="legendlines"><path class="js-line" d="M5,-2h30" style="fill: none; stroke: rgb(255, 165, 0); stroke-opacity: 1; stroke-width: 2px;"/></g><g class="legendsymbols"><g class="legendpoints"/></g></g><rect class="legendtoggle" x="0" y="-9.5" width="215.8125" height="19" style="fill: rgb(0, 0, 0); fill-opacity: 0;"/></g><g class="traces" transform="translate(218.3125,14.5)" style="opacity: 1;"><text class="legendtext" text-anchor="start" x="40" y="4.680000000000001" style="font-family: 'Open Sans', verdana, arial, sans-serif; font-size: 12px; fill: rgb(68, 68, 68); fill-opacity: 1; white-space: pre;">Community &amp; Ecosystem</text><g class="layers"><g class="legendfill"><path class="js-fill" d="M5,-2h30v6h-30z" style="stroke-width: 0; fill: rgb(0, 128, 0); fill-opacity: 0.5;"/></g><g class="legendlines"><path class="js-line" d="M5,-2h30" style="fill: none; stroke: rgb(0, 128, 0); stroke-opacity: 1; stroke-width: 2px;"/></g><g class="legendsymbols"><g class="legendpoints"/></g></g><rect class="legendtoggle" x="0" y="-9.5" width="193.203125" height="19" style="fill: rgb(0, 0, 0); fill-opacity: 0;"/></g><g class="traces" transform="translate(436.625,14.5)" style="opacity: 1;"><text class="legendtext" text-anchor="start" x="40" y="4.680000000000001" style="font-family: 'Open Sans', verdana, arial, sans-serif; font-size: 12px; fill: rgb(68, 68, 68); fill-opacity: 1; white-space: pre;">Foundation Endowment</text><g class="layers"><g class="legendfill"><path class="js-fill" d="M5,-2h30v6h-30z" style="stroke-width: 0; fill: rgb(255, 215, 0); fill-opacity: 0.5;"/></g><g class="legendlines"><path class="js-line" d="M5,-2h30" style="fill: none; stroke: rgb(255, 215, 0); stroke-opacity: 1; stroke-width: 2px;"/></g><g class="legendsymbols"><g class="legendpoints"/></g></g><rect class="legendtoggle" x="0" y="-9.5" width="184.55078125" height="19" style="fill: rgb(0, 0, 0); fill-opacity: 0;"/></g><g class="traces" transform="translate(0,33.5)" style="opacity: 1;"><text class="legendtext" text-anchor="start" x="40" y="4.680000000000001" style="font-family: 'Open Sans', verdana, arial, sans-serif; font-size: 12px; fill: rgb(68, 68, 68); fill-opacity: 1; white-space: pre;">Backers</text><g class="layers"><g class="legendfill"><path class="js-fill" d="M5,-2h30v6h-30z" style="stroke-width: 0; fill: rgb(255, 0, 0); fill-opacity: 0.5;"/></g><g class="legendlines"><path class="js-line" d="M5,-2h30" style="fill: none; stroke: rgb(255, 0, 0); stroke-opacity: 1; stroke-width: 2px;"/></g><g class="legendsymbols"><g class="legendpoints"/></g></g><rect class="legendtoggle" x="0" y="-9.5" width="89.703125" height="19" style="fill: rgb(0, 0, 0); fill-opacity: 0;"/></g><g class="traces" transform="translate(218.3125,33.5)" style="opacity: 1;"><text class="legendtext" text-anchor="start" x="40" y="4.680000000000001" style="font-family: 'Open Sans', verdana, arial, sans-serif; font-size: 12px; fill: rgb(68, 68, 68); fill-opacity: 1; white-space: pre;">Core Contributors</text><g class="layers"><g class="legendfill"><path class="js-fill" d="M5,-2h30v6h-30z" style="stroke-width: 0; fill: rgb(0, 0, 255); fill-opacity: 0.5;"/></g><g class="legendlines"><path class="js-line" d="M5,-2h30" style="fill: none; stroke: rgb(0, 0, 255); stroke-opacity: 1; stroke-width: 2px;"/></g><g class="legendsymbols"><g class="legendpoints"/></g></g><rect class="legendtoggle" x="0" y="-9.5" width="149.515625" height="19" style="fill: rgb(0, 0, 0); fill-opacity: 0;"/></g></g></g><rect class="scrollbar" rx="20" ry="3" width="0" height="0" x="0" y="0" style="fill: rgb(128, 139, 164); fill-opacity: 1;"/></g><g class="g-gtitle"><text class="gtitle" x="480" y="30" text-anchor="middle" dy="0.7em" style="font-family: 'Open Sans', verdana, arial, sans-serif; font-size: 20px; fill: rgb(68, 68, 68); opacity: 1; font-weight: normal; white-space: pre;">10-Year Token Circulation Schedule</text></g><g class="g-xtitle"/><g class="g-ytitle"><text class="ytitle" transform="rotate(-90,42,310)" x="42" y="310" text-anchor="middle" style="font-family: 'Open Sans', verdana, arial, sans-serif; font-size: 14px; fill: rgb(68, 68, 68); opacity: 1; font-weight: normal; white-space: pre;">Tokens in Circulation</text></g></g></svg>