<svg class="main-svg" xmlns="http://www.w3.org/2000/svg" xmlns:xlink="http://www.w3.org/1999/xlink" width="960" height="600" style="" viewBox="0 0 960 600"><rect x="0" y="0" width="960" height="600" style="fill: rgb(255, 255, 255); fill-opacity: 1;"/><defs id="defs-4b5e35"><g class="clips"><clipPath id="clip4b5e35xyplot" class="plotclip"><rect width="880" height="420"/></clipPath><clipPath class="axesclip" id="clip4b5e35x"><rect x="80" y="0" width="880" height="600"/></clipPath><clipPath class="axesclip" id="clip4b5e35y"><rect x="0" y="100" width="960" height="420"/></clipPath><clipPath class="axesclip" id="clip4b5e35xy"><rect x="80" y="100" width="880" height="420"/></clipPath></g><g class="gradients"/><g class="patterns"/></defs><g class="bglayer"/><g class="layer-below"><g class="imagelayer"/><g class="shapelayer"/></g><g class="cartesianlayer"><g class="subplot xy"><g class="layer-subplot"><g class="shapelayer"/><g class="imagelayer"/></g><g class="minor-gridlayer"><g class="x"/><g class="y"/></g><g class="gridlayer"><g class="x"><path class="xgrid crisp" transform="translate(105.98,0)" d="M0,100v420" style="stroke: rgb(238, 238, 238); stroke-opacity: 1; stroke-width: 1px;"/><path class="xgrid crisp" transform="translate(141.34,0)" d="M0,100v420" style="stroke: rgb(238, 238, 238); stroke-opacity: 1; stroke-width: 1px;"/><path class="xgrid crisp" transform="translate(177.91,0)" d="M0,100v420" style="stroke: rgb(238, 238, 238); stroke-opacity: 1; stroke-width: 1px;"/><path class="xgrid crisp" transform="translate(214.47,0)" d="M0,100v420" style="stroke: rgb(238, 238, 238); stroke-opacity: 1; stroke-width: 1px;"/><path class="xgrid crisp" transform="translate(251.64,0)" d="M0,100v420" style="stroke: rgb(238, 238, 238); stroke-opacity: 1; stroke-width: 1px;"/><path class="xgrid crisp" transform="translate(288.2,0)" d="M0,100v420" style="stroke: rgb(238, 238, 238); stroke-opacity: 1; stroke-width: 1px;"/><path class="xgrid crisp" transform="translate(324.77,0)" d="M0,100v420" style="stroke: rgb(238, 238, 238); stroke-opacity: 1; stroke-width: 1px;"/><path class="xgrid crisp" transform="translate(360.13,0)" d="M0,100v420" style="stroke: rgb(238, 238, 238); stroke-opacity: 1; stroke-width: 1px;"/><path class="xgrid crisp" transform="translate(396.7,0)" d="M0,100v420" style="stroke: rgb(238, 238, 238); stroke-opacity: 1; stroke-width: 1px;"/><path class="xgrid crisp" transform="translate(433.26,0)" d="M0,100v420" style="stroke: rgb(238, 238, 238); stroke-opacity: 1; stroke-width: 1px;"/><path class="xgrid crisp" transform="translate(470.43,0)" d="M0,100v420" style="stroke: rgb(238, 238, 238); stroke-opacity: 1; stroke-width: 1px;"/><path class="xgrid crisp" transform="translate(506.99,0)" d="M0,100v420" style="stroke: rgb(238, 238, 238); stroke-opacity: 1; stroke-width: 1px;"/><path class="xgrid crisp" transform="translate(543.56,0)" d="M0,100v420" style="stroke: rgb(238, 238, 238); stroke-opacity: 1; stroke-width: 1px;"/><path class="xgrid crisp" transform="translate(578.9200000000001,0)" d="M0,100v420" style="stroke: rgb(238, 238, 238); stroke-opacity: 1; stroke-width: 1px;"/><path class="xgrid crisp" transform="translate(615.49,0)" d="M0,100v420" style="stroke: rgb(238, 238, 238); stroke-opacity: 1; stroke-width: 1px;"/><path class="xgrid crisp" transform="translate(652.06,0)" d="M0,100v420" style="stroke: rgb(238, 238, 238); stroke-opacity: 1; stroke-width: 1px;"/><path class="xgrid crisp" transform="translate(689.22,0)" d="M0,100v420" style="stroke: rgb(238, 238, 238); stroke-opacity: 1; stroke-width: 1px;"/><path class="xgrid crisp" transform="translate(725.78,0)" d="M0,100v420" style="stroke: rgb(238, 238, 238); stroke-opacity: 1; stroke-width: 1px;"/><path class="xgrid crisp" transform="translate(762.35,0)" d="M0,100v420" style="stroke: rgb(238, 238, 238); stroke-opacity: 1; stroke-width: 1px;"/><path class="xgrid crisp" transform="translate(798.32,0)" d="M0,100v420" style="stroke: rgb(238, 238, 238); stroke-opacity: 1; stroke-width: 1px;"/><path class="xgrid crisp" transform="translate(834.88,0)" d="M0,100v420" style="stroke: rgb(238, 238, 238); stroke-opacity: 1; stroke-width: 1px;"/><path class="xgrid crisp" transform="translate(871.45,0)" d="M0,100v420" style="stroke: rgb(238, 238, 238); stroke-opacity: 1; stroke-width: 1px;"/><path class="xgrid crisp" transform="translate(908.61,0)" d="M0,100v420" style="stroke: rgb(238, 238, 238); stroke-opacity: 1; stroke-width: 1px;"/><path class="xgrid crisp" transform="translate(945.18,0)" d="M0,100v420" style="stroke: rgb(238, 238, 238); stroke-opacity: 1; stroke-width: 1px;"/></g><g class="y"><path class="ygrid crisp" transform="translate(0,480.24)" d="M80,0h880" style="stroke: rgb(238, 238, 238); stroke-opacity: 1; stroke-width: 1px;"/><path class="ygrid crisp" transform="translate(0,440.48)" d="M80,0h880" style="stroke: rgb(238, 238, 238); stroke-opacity: 1; stroke-width: 1px;"/><path class="ygrid crisp" transform="translate(0,400.72)" d="M80,0h880" style="stroke: rgb(238, 238, 238); stroke-opacity: 1; stroke-width: 1px;"/><path class="ygrid crisp" transform="translate(0,360.95)" d="M80,0h880" style="stroke: rgb(238, 238, 238); stroke-opacity: 1; stroke-width: 1px;"/><path class="ygrid crisp" transform="translate(0,321.19)" d="M80,0h880" style="stroke: rgb(238, 238, 238); stroke-opacity: 1; stroke-width: 1px;"/><path class="ygrid crisp" transform="translate(0,281.43)" d="M80,0h880" style="stroke: rgb(238, 238, 238); stroke-opacity: 1; stroke-width: 1px;"/><path class="ygrid crisp" transform="translate(0,241.67)" d="M80,0h880" style="stroke: rgb(238, 238, 238); stroke-opacity: 1; stroke-width: 1px;"/><path class="ygrid crisp" transform="translate(0,201.91)" d="M80,0h880" style="stroke: rgb(238, 238, 238); stroke-opacity: 1; stroke-width: 1px;"/><path class="ygrid crisp" transform="translate(0,162.15)" d="M80,0h880" style="stroke: rgb(238, 238, 238); stroke-opacity: 1; stroke-width: 1px;"/><path class="ygrid crisp" transform="translate(0,122.39)" d="M80,0h880" style="stroke: rgb(238, 238, 238); stroke-opacity: 1; stroke-width: 1px;"/></g></g><g class="zerolinelayer"><path class="yzl zl crisp" transform="translate(0,520)" d="M80,0h880" style="stroke: rgb(68, 68, 68); stroke-opacity: 1; stroke-width: 1px;"/></g><path class="xlines-below"/><path class="ylines-below"/><g class="overlines-below"/><g class="xaxislayer-below"/><g class="yaxislayer-below"/><g class="overaxes-below"/><g class="plot" transform="translate(80,100)" clip-path="url(#clip4b5e35xyplot)"><g class="scatterlayer mlayer"><g class="trace scatter tracea1f27e" style="stroke-miterlimit: 2; opacity: 1;"><g class="fills"/><g class="errorbars"/><g class="lines"><path class="js-line" d="M0,21L93.2,21.63L93.8,22.05L96.19,23.52L96.78,23.94L99.77,26.66L100.37,27.49L103.36,32.93L103.95,34.39L106.94,46.04L107.54,49.36L113.51,83.53L114.11,85.57L117.69,93.31L118.29,94.13L121.88,97.78L122.47,98.19L126.66,100.42L200.74,100.83L204.92,102.85L205.52,103.26L209.1,106.5L209.7,107.31L212.09,111.35L212.69,112.76L215.67,123.03L216.27,125.84L223.44,165.21L224.04,166.98L227.02,173.08L227.62,174.06L231.21,177.59L231.8,177.99L235.99,180.34L309.47,180.53L319.03,184.25L319.63,184.84L321.42,186.59L322.02,187.37L324.41,191.66L325,193.22L328.59,204.48L329.19,206.23L332.17,212.8L332.77,213.76L336.36,217.23L336.95,217.62L340.54,219.15L341.13,219.35L344.72,220.31L418.8,220.5L422.39,222.23L422.98,222.62L426.57,225.69L427.17,226.26L430.15,231.05L430.75,232.58L433.14,240.02L433.74,242.69L436.8,260.95L437.39,264.8L440.31,279.95L440.9,282.05L443.82,289.1L444.41,290.06L449.08,295L449.67,295.38L453.18,297.46L525.68,297.65L533.86,301.06L534.45,301.44L536.79,303.71L537.37,304.46L540.29,310.5L540.88,312.19L546.73,329.63L547.31,330.56L550.23,334.1L550.82,334.66L556.08,337.27L556.67,337.45L559,338.2L632.09,338.38L639.11,340.24L639.69,340.42L642.62,342.1L643.2,342.47L646.12,345.99L646.71,346.91L650.22,355.23L650.8,356.7L653.72,362.4L654.31,363.14L657.23,365.89L657.82,366.26L666,368.82L739.67,369.01L750.2,370.47L750.78,370.84L754.29,372.67L754.88,373.22L762.48,377.78L763.06,377.96L767.15,378.69L769.49,378.87L771.83,379.05L845.5,379.24L850.77,380.69L851.35,381.06L854.27,382.51L854.86,383.06L856.61,384.7L857.2,385.42L859.54,389.23L860.12,390.5L868.31,413.02L868.89,413.92L871.81,416.6L872.4,416.96L877.08,419.11L877.66,419.29L880,419.82" style="vector-effect: none; fill: none; stroke: rgb(66, 133, 244); stroke-opacity: 1; stroke-width: 2px; opacity: 1;"/></g><g class="points"/><g class="text"/></g></g></g><g class="overplot"/><path class="xlines-above crisp" d="M0,0" style="fill: none;"/><path class="ylines-above crisp" d="M0,0" style="fill: none;"/><g class="overlines-above"/><g class="xaxislayer-above"><g class="xtick"><text text-anchor="end" x="-2.0999999999999996" y="529.4" transform="translate(105.98,0) rotate(-90,-2.0999999999999996,523.4)" style="font-family: 'Open Sans', verdana, arial, sans-serif; font-size: 12px; fill: rgb(68, 68, 68); fill-opacity: 1; white-space: pre; opacity: 1;">Jan 2021</text></g><g class="xtick"><text text-anchor="end" x="-2.0999999999999996" y="529.4" style="font-family: 'Open Sans', verdana, arial, sans-serif; font-size: 12px; fill: rgb(68, 68, 68); fill-opacity: 1; white-space: pre; opacity: 1;" transform="translate(141.34,0) rotate(-90,-2.0999999999999996,523.4)">Mar 2021</text></g><g class="xtick"><text text-anchor="end" x="-2.0999999999999996" y="529.4" style="font-family: 'Open Sans', verdana, arial, sans-serif; font-size: 12px; fill: rgb(68, 68, 68); fill-opacity: 1; white-space: pre; opacity: 1;" transform="translate(177.91,0) rotate(-90,-2.0999999999999996,523.4)">May 2021</text></g><g class="xtick"><text text-anchor="end" x="-2.0999999999999996" y="529.4" style="font-family: 'Open Sans', verdana, arial, sans-serif; font-size: 12px; fill: rgb(68, 68, 68); fill-opacity: 1; white-space: pre; opacity: 1;" transform="translate(214.47,0) rotate(-90,-2.0999999999999996,523.4)">Jul 2021</text></g><g class="xtick"><text text-anchor="end" x="-2.0999999999999996" y="529.4" style="font-family: 'Open Sans', verdana, arial, sans-serif; font-size: 12px; fill: rgb(68, 68, 68); fill-opacity: 1; white-space: pre; opacity: 1;" transform="translate(251.64,0) rotate(-90,-2.0999999999999996,523.4)">Sep 2021</text></g><g class="xtick"><text text-anchor="end" x="-2.0999999999999996" y="529.4" style="font-family: 'Open Sans', verdana, arial, sans-serif; font-size: 12px; fill: rgb(68, 68, 68); fill-opacity: 1; white-space: pre; opacity: 1;" transform="translate(288.2,0) rotate(-90,-2.0999999999999996,523.4)">Nov 2021</text></g><g class="xtick"><text text-anchor="end" x="-2.0999999999999996" y="529.4" style="font-family: 'Open Sans', verdana, arial, sans-serif; font-size: 12px; fill: rgb(68, 68, 68); fill-opacity: 1; white-space: pre; opacity: 1;" transform="translate(324.77,0) rotate(-90,-2.0999999999999996,523.4)">Jan 2022</text></g><g class="xtick"><text text-anchor="end" x="-2.0999999999999996" y="529.4" style="font-family: 'Open Sans', verdana, arial, sans-serif; font-size: 12px; fill: rgb(68, 68, 68); fill-opacity: 1; white-space: pre; opacity: 1;" transform="translate(360.13,0) rotate(-90,-2.0999999999999996,523.4)">Mar 2022</text></g><g class="xtick"><text text-anchor="end" x="-2.0999999999999996" y="529.4" style="font-family: 'Open Sans', verdana, arial, sans-serif; font-size: 12px; fill: rgb(68, 68, 68); fill-opacity: 1; white-space: pre; opacity: 1;" transform="translate(396.7,0) rotate(-90,-2.0999999999999996,523.4)">May 2022</text></g><g class="xtick"><text text-anchor="end" x="-2.0999999999999996" y="529.4" style="font-family: 'Open Sans', verdana, arial, sans-serif; font-size: 12px; fill: rgb(68, 68, 68); fill-opacity: 1; white-space: pre; opacity: 1;" transform="translate(433.26,0) rotate(-90,-2.0999999999999996,523.4)">Jul 2022</text></g><g class="xtick"><text text-anchor="end" x="-2.0999999999999996" y="529.4" style="font-family: 'Open Sans', verdana, arial, sans-serif; font-size: 12px; fill: rgb(68, 68, 68); fill-opacity: 1; white-space: pre; opacity: 1;" transform="translate(470.43,0) rotate(-90,-2.0999999999999996,523.4)">Sep 2022</text></g><g class="xtick"><text text-anchor="end" x="-2.0999999999999996" y="529.4" style="font-family: 'Open Sans', verdana, arial, sans-serif; font-size: 12px; fill: rgb(68, 68, 68); fill-opacity: 1; white-space: pre; opacity: 1;" transform="translate(506.99,0) rotate(-90,-2.0999999999999996,523.4)">Nov 2022</text></g><g class="xtick"><text text-anchor="end" x="-2.0999999999999996" y="529.4" style="font-family: 'Open Sans', verdana, arial, sans-serif; font-size: 12px; fill: rgb(68, 68, 68); fill-opacity: 1; white-space: pre; opacity: 1;" transform="translate(543.56,0) rotate(-90,-2.0999999999999996,523.4)">Jan 2023</text></g><g class="xtick"><text text-anchor="end" x="-2.0999999999999996" y="529.4" style="font-family: 'Open Sans', verdana, arial, sans-serif; font-size: 12px; fill: rgb(68, 68, 68); fill-opacity: 1; white-space: pre; opacity: 1;" transform="translate(578.9200000000001,0) rotate(-90,-2.0999999999999996,523.4)">Mar 2023</text></g><g class="xtick"><text text-anchor="end" x="-2.0999999999999996" y="529.4" style="font-family: 'Open Sans', verdana, arial, sans-serif; font-size: 12px; fill: rgb(68, 68, 68); fill-opacity: 1; white-space: pre; opacity: 1;" transform="translate(615.49,0) rotate(-90,-2.0999999999999996,523.4)">May 2023</text></g><g class="xtick"><text text-anchor="end" x="-2.0999999999999996" y="529.4" style="font-family: 'Open Sans', verdana, arial, sans-serif; font-size: 12px; fill: rgb(68, 68, 68); fill-opacity: 1; white-space: pre; opacity: 1;" transform="translate(652.06,0) rotate(-90,-2.0999999999999996,523.4)">Jul 2023</text></g><g class="xtick"><text text-anchor="end" x="-2.0999999999999996" y="529.4" style="font-family: 'Open Sans', verdana, arial, sans-serif; font-size: 12px; fill: rgb(68, 68, 68); fill-opacity: 1; white-space: pre; opacity: 1;" transform="translate(689.22,0) rotate(-90,-2.0999999999999996,523.4)">Sep 2023</text></g><g class="xtick"><text text-anchor="end" x="-2.0999999999999996" y="529.4" style="font-family: 'Open Sans', verdana, arial, sans-serif; font-size: 12px; fill: rgb(68, 68, 68); fill-opacity: 1; white-space: pre; opacity: 1;" transform="translate(725.78,0) rotate(-90,-2.0999999999999996,523.4)">Nov 2023</text></g><g class="xtick"><text text-anchor="end" x="-2.0999999999999996" y="529.4" style="font-family: 'Open Sans', verdana, arial, sans-serif; font-size: 12px; fill: rgb(68, 68, 68); fill-opacity: 1; white-space: pre; opacity: 1;" transform="translate(762.35,0) rotate(-90,-2.0999999999999996,523.4)">Jan 2024</text></g><g class="xtick"><text text-anchor="end" x="-2.0999999999999996" y="529.4" style="font-family: 'Open Sans', verdana, arial, sans-serif; font-size: 12px; fill: rgb(68, 68, 68); fill-opacity: 1; white-space: pre; opacity: 1;" transform="translate(798.32,0) rotate(-90,-2.0999999999999996,523.4)">Mar 2024</text></g><g class="xtick"><text text-anchor="end" x="-2.0999999999999996" y="529.4" style="font-family: 'Open Sans', verdana, arial, sans-serif; font-size: 12px; fill: rgb(68, 68, 68); fill-opacity: 1; white-space: pre; opacity: 1;" transform="translate(834.88,0) rotate(-90,-2.0999999999999996,523.4)">May 2024</text></g><g class="xtick"><text text-anchor="end" x="-2.0999999999999996" y="529.4" style="font-family: 'Open Sans', verdana, arial, sans-serif; font-size: 12px; fill: rgb(68, 68, 68); fill-opacity: 1; white-space: pre; opacity: 1;" transform="translate(871.45,0) rotate(-90,-2.0999999999999996,523.4)">Jul 2024</text></g><g class="xtick"><text text-anchor="end" x="-2.0999999999999996" y="529.4" style="font-family: 'Open Sans', verdana, arial, sans-serif; font-size: 12px; fill: rgb(68, 68, 68); fill-opacity: 1; white-space: pre; opacity: 1;" transform="translate(908.61,0) rotate(-90,-2.0999999999999996,523.4)">Sep 2024</text></g><g class="xtick"><text text-anchor="end" x="-2.0999999999999996" y="529.4" style="font-family: 'Open Sans', verdana, arial, sans-serif; font-size: 12px; fill: rgb(68, 68, 68); fill-opacity: 1; white-space: pre; opacity: 1;" transform="translate(945.18,0) rotate(-90,-2.0999999999999996,523.4)">Nov 2024</text></g></g><g class="yaxislayer-above"><g class="ytick"><text text-anchor="end" x="79" y="4.199999999999999" transform="translate(0,520)" style="font-family: 'Open Sans', verdana, arial, sans-serif; font-size: 12px; fill: rgb(68, 68, 68); fill-opacity: 1; white-space: pre; opacity: 1;">0%</text></g><g class="ytick"><text text-anchor="end" x="79" y="4.199999999999999" style="font-family: 'Open Sans', verdana, arial, sans-serif; font-size: 12px; fill: rgb(68, 68, 68); fill-opacity: 1; white-space: pre; opacity: 1;" transform="translate(0,480.24)">2%</text></g><g class="ytick"><text text-anchor="end" x="79" y="4.199999999999999" style="font-family: 'Open Sans', verdana, arial, sans-serif; font-size: 12px; fill: rgb(68, 68, 68); fill-opacity: 1; white-space: pre; opacity: 1;" transform="translate(0,440.48)">4%</text></g><g class="ytick"><text text-anchor="end" x="79" y="4.199999999999999" style="font-family: 'Open Sans', verdana, arial, sans-serif; font-size: 12px; fill: rgb(68, 68, 68); fill-opacity: 1; white-space: pre; opacity: 1;" transform="translate(0,400.72)">6%</text></g><g class="ytick"><text text-anchor="end" x="79" y="4.199999999999999" style="font-family: 'Open Sans', verdana, arial, sans-serif; font-size: 12px; fill: rgb(68, 68, 68); fill-opacity: 1; white-space: pre; opacity: 1;" transform="translate(0,360.95)">8%</text></g><g class="ytick"><text text-anchor="end" x="79" y="4.199999999999999" style="font-family: 'Open Sans', verdana, arial, sans-serif; font-size: 12px; fill: rgb(68, 68, 68); fill-opacity: 1; white-space: pre; opacity: 1;" transform="translate(0,321.19)">10%</text></g><g class="ytick"><text text-anchor="end" x="79" y="4.199999999999999" style="font-family: 'Open Sans', verdana, arial, sans-serif; font-size: 12px; fill: rgb(68, 68, 68); fill-opacity: 1; white-space: pre; opacity: 1;" transform="translate(0,281.43)">12%</text></g><g class="ytick"><text text-anchor="end" x="79" y="4.199999999999999" style="font-family: 'Open Sans', verdana, arial, sans-serif; font-size: 12px; fill: rgb(68, 68, 68); fill-opacity: 1; white-space: pre; opacity: 1;" transform="translate(0,241.67)">14%</text></g><g class="ytick"><text text-anchor="end" x="79" y="4.199999999999999" style="font-family: 'Open Sans', verdana, arial, sans-serif; font-size: 12px; fill: rgb(68, 68, 68); fill-opacity: 1; white-space: pre; opacity: 1;" transform="translate(0,201.91)">16%</text></g><g class="ytick"><text text-anchor="end" x="79" y="4.199999999999999" style="font-family: 'Open Sans', verdana, arial, sans-serif; font-size: 12px; fill: rgb(68, 68, 68); fill-opacity: 1; white-space: pre; opacity: 1;" transform="translate(0,162.15)">18%</text></g><g class="ytick"><text text-anchor="end" x="79" y="4.199999999999999" style="font-family: 'Open Sans', verdana, arial, sans-serif; font-size: 12px; fill: rgb(68, 68, 68); fill-opacity: 1; white-space: pre; opacity: 1;" transform="translate(0,122.39)">20%</text></g></g><g class="overaxes-above"/></g></g><g class="polarlayer"/><g class="smithlayer"/><g class="ternarylayer"/><g class="geolayer"/><g class="funnelarealayer"/><g class="pielayer"/><g class="iciclelayer"/><g class="treemaplayer"/><g class="sunburstlayer"/><g class="glimages"/><defs id="topdefs-4b5e35"><g class="clips"/></defs><g class="layer-above"><g class="imagelayer"/><g class="shapelayer"/></g><g class="infolayer"><g class="g-gtitle"><text class="gtitle" x="48" y="30" text-anchor="start" dy="0.7em" style="font-family: 'Open Sans', verdana, arial, sans-serif; font-size: 20px; fill: rgb(68, 68, 68); opacity: 1; font-weight: normal; white-space: pre;">Staking Rewards Schedule (time estimated from epoch interval)</text></g><g class="g-xtitle"/><g class="g-ytitle"><text class="ytitle" transform="rotate(-90,42,310)" x="42" y="310" text-anchor="middle" style="font-family: 'Open Sans', verdana, arial, sans-serif; font-size: 14px; fill: rgb(68, 68, 68); opacity: 1; font-weight: normal; white-space: pre;">Estimated Annualized Rewards</text></g></g></svg>