<svg class="main-svg" xmlns="http://www.w3.org/2000/svg" xmlns:xlink="http://www.w3.org/1999/xlink" width="960" height="600" style="" viewBox="0 0 960 600"><rect x="0" y="0" width="960" height="600" style="fill: rgb(255, 255, 255); fill-opacity: 1;"/><defs id="defs-f75ffc"><g class="clips"><clipPath id="clipf75ffcxyplot" class="plotclip"><rect width="880" height="400"/></clipPath><clipPath class="axesclip" id="clipf75ffcx"><rect x="80" y="0" width="880" height="600"/></clipPath><clipPath class="axesclip" id="clipf75ffcy"><rect x="0" y="120" width="960" height="400"/></clipPath><clipPath class="axesclip" id="clipf75ffcxy"><rect x="80" y="120" width="880" height="400"/></clipPath></g><g class="gradients"/><g class="patterns"/></defs><g class="bglayer"/><g class="layer-below"><g class="imagelayer"/><g class="shapelayer"/></g><g class="cartesianlayer"><g class="subplot xy"><g class="layer-subplot"><g class="shapelayer"/><g class="imagelayer"/></g><g class="minor-gridlayer"><g class="x"/><g class="y"/></g><g class="gridlayer"><g class="x"><path class="xgrid crisp" transform="translate(101.64,0)" d="M0,120v400" style="stroke: rgb(238, 238, 238); stroke-opacity: 1; stroke-width: 1px;"/><path class="xgrid crisp" transform="translate(123.28,0)" d="M0,120v400" style="stroke: rgb(238, 238, 238); stroke-opacity: 1; stroke-width: 1px;"/><path class="xgrid crisp" transform="translate(144.92000000000002,0)" d="M0,120v400" style="stroke: rgb(238, 238, 238); stroke-opacity: 1; stroke-width: 1px;"/><path class="xgrid crisp" transform="translate(166.56,0)" d="M0,120v400" style="stroke: rgb(238, 238, 238); stroke-opacity: 1; stroke-width: 1px;"/><path class="xgrid crisp" transform="translate(188.2,0)" d="M0,120v400" style="stroke: rgb(238, 238, 238); stroke-opacity: 1; stroke-width: 1px;"/><path class="xgrid crisp" transform="translate(209.84,0)" d="M0,120v400" style="stroke: rgb(238, 238, 238); stroke-opacity: 1; stroke-width: 1px;"/><path class="xgrid crisp" transform="translate(231.48,0)" d="M0,120v400" style="stroke: rgb(238, 238, 238); stroke-opacity: 1; stroke-width: 1px;"/><path class="xgrid crisp" transform="translate(253.11,0)" d="M0,120v400" style="stroke: rgb(238, 238, 238); stroke-opacity: 1; stroke-width: 1px;"/><path class="xgrid crisp" transform="translate(274.75,0)" d="M0,120v400" style="stroke: rgb(238, 238, 238); stroke-opacity: 1; stroke-width: 1px;"/><path class="xgrid crisp" transform="translate(296.39,0)" d="M0,120v400" style="stroke: rgb(238, 238, 238); stroke-opacity: 1; stroke-width: 1px;"/><path class="xgrid crisp" transform="translate(318.03,0)" d="M0,120v400" style="stroke: rgb(238, 238, 238); stroke-opacity: 1; stroke-width: 1px;"/><path class="xgrid crisp" transform="translate(339.67,0)" d="M0,120v400" style="stroke: rgb(238, 238, 238); stroke-opacity: 1; stroke-width: 1px;"/><path class="xgrid crisp" transform="translate(361.31,0)" d="M0,120v400" style="stroke: rgb(238, 238, 238); stroke-opacity: 1; stroke-width: 1px;"/><path class="xgrid crisp" transform="translate(382.95,0)" d="M0,120v400" style="stroke: rgb(238, 238, 238); stroke-opacity: 1; stroke-width: 1px;"/><path class="xgrid crisp" transform="translate(404.59,0)" d="M0,120v400" style="stroke: rgb(238, 238, 238); stroke-opacity: 1; stroke-width: 1px;"/><path class="xgrid crisp" transform="translate(426.23,0)" d="M0,120v400" style="stroke: rgb(238, 238, 238); stroke-opacity: 1; stroke-width: 1px;"/><path class="xgrid crisp" transform="translate(447.87,0)" d="M0,120v400" style="stroke: rgb(238, 238, 238); stroke-opacity: 1; stroke-width: 1px;"/><path class="xgrid crisp" transform="translate(469.51,0)" d="M0,120v400" style="stroke: rgb(238, 238, 238); stroke-opacity: 1; stroke-width: 1px;"/><path class="xgrid crisp" transform="translate(491.15,0)" d="M0,120v400" style="stroke: rgb(238, 238, 238); stroke-opacity: 1; stroke-width: 1px;"/><path class="xgrid crisp" transform="translate(512.79,0)" d="M0,120v400" style="stroke: rgb(238, 238, 238); stroke-opacity: 1; stroke-width: 1px;"/><path class="xgrid crisp" transform="translate(534.4300000000001,0)" d="M0,120v400" style="stroke: rgb(238, 238, 238); stroke-opacity: 1; stroke-width: 1px;"/><path class="xgrid crisp" transform="translate(556.0699999999999,0)" d="M0,120v400" style="stroke: rgb(238, 238, 238); stroke-opacity: 1; stroke-width: 1px;"/><path class="xgrid crisp" transform="translate(577.7,0)" d="M0,120v400" style="stroke: rgb(238, 238, 238); stroke-opacity: 1; stroke-width: 1px;"/><path class="xgrid crisp" transform="translate(599.34,0)" d="M0,120v400" style="stroke: rgb(238, 238, 238); stroke-opacity: 1; stroke-width: 1px;"/><path class="xgrid crisp" transform="translate(620.98,0)" d="M0,120v400" style="stroke: rgb(238, 238, 238); stroke-opacity: 1; stroke-width: 1px;"/><path class="xgrid crisp" transform="translate(642.62,0)" d="M0,120v400" style="stroke: rgb(238, 238, 238); stroke-opacity: 1; stroke-width: 1px;"/><path class="xgrid crisp" transform="translate(664.26,0)" d="M0,120v400" style="stroke: rgb(238, 238, 238); stroke-opacity: 1; stroke-width: 1px;"/><path class="xgrid crisp" transform="translate(685.9,0)" d="M0,120v400" style="stroke: rgb(238, 238, 238); stroke-opacity: 1; stroke-width: 1px;"/><path class="xgrid crisp" transform="translate(707.54,0)" d="M0,120v400" style="stroke: rgb(238, 238, 238); stroke-opacity: 1; stroke-width: 1px;"/><path class="xgrid crisp" transform="translate(729.18,0)" d="M0,120v400" style="stroke: rgb(238, 238, 238); stroke-opacity: 1; stroke-width: 1px;"/><path class="xgrid crisp" transform="translate(750.82,0)" d="M0,120v400" style="stroke: rgb(238, 238, 238); stroke-opacity: 1; stroke-width: 1px;"/><path class="xgrid crisp" transform="translate(772.46,0)" d="M0,120v400" style="stroke: rgb(238, 238, 238); stroke-opacity: 1; stroke-width: 1px;"/><path class="xgrid crisp" transform="translate(794.1,0)" d="M0,120v400" style="stroke: rgb(238, 238, 238); stroke-opacity: 1; stroke-width: 1px;"/><path class="xgrid crisp" transform="translate(815.74,0)" d="M0,120v400" style="stroke: rgb(238, 238, 238); stroke-opacity: 1; stroke-width: 1px;"/><path class="xgrid crisp" transform="translate(837.38,0)" d="M0,120v400" style="stroke: rgb(238, 238, 238); stroke-opacity: 1; stroke-width: 1px;"/><path class="xgrid crisp" transform="translate(859.02,0)" d="M0,120v400" style="stroke: rgb(238, 238, 238); stroke-opacity: 1; stroke-width: 1px;"/><path class="xgrid crisp" transform="translate(880.66,0)" d="M0,120v400" style="stroke: rgb(238, 238, 238); stroke-opacity: 1; stroke-width: 1px;"/><path class="xgrid crisp" transform="translate(902.3,0)" d="M0,120v400" style="stroke: rgb(238, 238, 238); stroke-opacity: 1; stroke-width: 1px;"/><path class="xgrid crisp" transform="translate(923.93,0)" d="M0,120v400" style="stroke: rgb(238, 238, 238); stroke-opacity: 1; stroke-width: 1px;"/><path class="xgrid crisp" transform="translate(945.57,0)" d="M0,120v400" style="stroke: rgb(238, 238, 238); stroke-opacity: 1; stroke-width: 1px;"/></g><g class="y"><path class="ygrid crisp" transform="translate(0,470.33)" d="M80,0h880" style="stroke: rgb(238, 238, 238); stroke-opacity: 1; stroke-width: 1px;"/><path class="ygrid crisp" transform="translate(0,420.65)" d="M80,0h880" style="stroke: rgb(238, 238, 238); stroke-opacity: 1; stroke-width: 1px;"/><path class="ygrid crisp" transform="translate(0,370.98)" d="M80,0h880" style="stroke: rgb(238, 238, 238); stroke-opacity: 1; stroke-width: 1px;"/><path class="ygrid crisp" transform="translate(0,321.31)" d="M80,0h880" style="stroke: rgb(238, 238, 238); stroke-opacity: 1; stroke-width: 1px;"/><path class="ygrid crisp" transform="translate(0,271.63)" d="M80,0h880" style="stroke: rgb(238, 238, 238); stroke-opacity: 1; stroke-width: 1px;"/><path class="ygrid crisp" transform="translate(0,221.95999999999998)" d="M80,0h880" style="stroke: rgb(238, 238, 238); stroke-opacity: 1; stroke-width: 1px;"/><path class="ygrid crisp" transform="translate(0,172.29)" d="M80,0h880" style="stroke: rgb(238, 238, 238); stroke-opacity: 1; stroke-width: 1px;"/><path class="ygrid crisp" transform="translate(0,122.61)" d="M80,0h880" style="stroke: rgb(238, 238, 238); stroke-opacity: 1; stroke-width: 1px;"/></g></g><g class="zerolinelayer"><path class="yzl zl crisp" transform="translate(0,520)" d="M80,0h880" style="stroke: rgb(68, 68, 68); stroke-opacity: 1; stroke-width: 1px;"/></g><path class="xlines-below"/><path class="ylines-below"/><g class="overlines-below"/><g class="xaxislayer-below"/><g class="yaxislayer-below"/><g class="overaxes-below"/><g class="plot" transform="translate(80,120)" clip-path="url(#clipf75ffcxyplot)"><g class="scatterlayer mlayer"><g class="trace scatter trace0431ce" style="stroke-miterlimit: 2;"><g class="fills"><g><path class="js-fill" d="M880,400L0,400L0,400L79.34,400L86.56,385.1L100.98,385.1L108.2,377.65L122.62,377.65L129.84,370.2L144.26,370.2L151.48,362.75L165.9,362.75L173.11,355.29L187.54,355.29L194.75,347.84L209.18,347.84L216.39,340.39L230.82,340.39L238.03,333.44L252.46,333.44L259.67,326.48L274.1,326.48L281.31,319.53L295.74,319.53L302.95,312.58L317.38,312.58L324.59,306.61L339.02,306.61L346.23,300.65L880,300.65" style="fill: rgb(79, 120, 238); fill-opacity: 0.5; stroke-width: 0;"/></g><g><path class="js-fill" d="M0,362.3L79.34,362.3L86.56,309.69L100.98,309.69L108.2,302.24L122.62,302.24L129.84,255.95L144.26,255.95L151.48,248.5L165.9,248.5L173.11,241.05L187.54,241.05L194.75,233.59L209.18,233.59L216.39,226.14L230.82,226.14L238.03,219.19L252.46,219.19L259.67,212.24L274.1,212.24L281.31,205.28L295.74,205.28L302.95,198.33L317.38,198.33L324.59,192.37L339.02,192.37L346.23,186.41L880,186.41L880,300.65L346.23,300.65L339.02,306.61L324.59,306.61L317.38,312.58L302.95,312.58L295.74,319.53L281.31,319.53L274.1,326.48L259.67,326.48L252.46,333.44L238.03,333.44L230.82,340.39L216.39,340.39L209.18,347.84L194.75,347.84L187.54,355.29L173.11,355.29L165.9,362.75L151.48,362.75L144.26,370.2L129.84,370.2L122.62,377.65L108.2,377.65L100.98,385.1L86.56,385.1L79.34,400L0,400Z" style="fill: rgb(240, 74, 60); fill-opacity: 0.5; stroke-width: 0;"/></g></g><g class="errorbars"/><g class="lines"><path class="js-line" d="M0,400L79.34,400L86.56,385.1L100.98,385.1L108.2,377.65L122.62,377.65L129.84,370.2L144.26,370.2L151.48,362.75L165.9,362.75L173.11,355.29L187.54,355.29L194.75,347.84L209.18,347.84L216.39,340.39L230.82,340.39L238.03,333.44L252.46,333.44L259.67,326.48L274.1,326.48L281.31,319.53L295.74,319.53L302.95,312.58L317.38,312.58L324.59,306.61L339.02,306.61L346.23,300.65L880,300.65" style="vector-effect: non-scaling-stroke; fill: none; stroke: rgb(79, 120, 238); stroke-opacity: 1; stroke-width: 2px; opacity: 1;"/></g><g class="points"/><g class="text"/></g><g class="trace scatter tracea1e3da" style="stroke-miterlimit: 2;"><g class="fills"><g><path class="js-fill" d="M0,349.88L79.34,349.88L86.56,297.28L100.98,297.28L108.2,289.82L122.62,289.82L129.84,243.53L144.26,243.53L151.48,236.08L165.9,236.08L173.11,223.66L187.54,223.66L194.75,216.21L209.18,216.21L216.39,208.76L230.82,208.76L238.03,201.8L252.46,201.8L259.67,193.61L274.1,193.61L281.31,186.65L295.74,186.65L302.95,179.7L317.38,179.7L324.59,173.74L339.02,173.74L346.23,166.54L360.66,166.54L367.87,165.29L382.3,165.29L389.51,164.05L403.93,164.05L411.15,162.81L425.57,162.81L432.79,161.57L447.21,161.57L454.43,160.33L468.85,160.33L476.07,159.08L490.49,159.08L497.7,157.84L512.13,157.84L519.34,156.6L533.77,156.6L540.98,155.36L555.41,155.36L562.62,154.12L577.05,154.12L584.26,152.88L598.69,152.88L605.9,151.63L620.33,151.63L627.54,150.39L641.97,150.39L649.18,149.15L663.61,149.15L670.82,147.91L685.25,147.91L692.46,146.67L706.89,146.67L714.1,145.42L728.52,145.42L735.74,144.18L750.16,144.18L757.38,142.94L771.8,142.94L779.02,141.7L793.44,141.7L800.66,140.46L815.08,140.46L822.3,139.22L836.72,139.22L843.93,137.97L858.36,137.97L865.57,136.73L880,136.73L880,186.41L346.23,186.41L339.02,192.37L324.59,192.37L317.38,198.33L302.95,198.33L295.74,205.28L281.31,205.28L274.1,212.24L259.67,212.24L252.46,219.19L238.03,219.19L230.82,226.14L216.39,226.14L209.18,233.59L194.75,233.59L187.54,241.05L173.11,241.05L165.9,248.5L151.48,248.5L144.26,255.95L129.84,255.95L122.62,302.24L108.2,302.24L100.98,309.69L86.56,309.69L79.34,362.3L0,362.3Z" style="fill: rgb(251, 195, 57); fill-opacity: 0.5; stroke-width: 0;"/></g></g><g class="errorbars"/><g class="lines"><path class="js-line" d="M0,362.3L79.34,362.3L86.56,309.69L100.98,309.69L108.2,302.24L122.62,302.24L129.84,255.95L144.26,255.95L151.48,248.5L165.9,248.5L173.11,241.05L187.54,241.05L194.75,233.59L209.18,233.59L216.39,226.14L230.82,226.14L238.03,219.19L252.46,219.19L259.67,212.24L274.1,212.24L281.31,205.28L295.74,205.28L302.95,198.33L317.38,198.33L324.59,192.37L339.02,192.37L346.23,186.41L880,186.41" style="vector-effect: non-scaling-stroke; fill: none; stroke: rgb(240, 74, 60); stroke-opacity: 1; stroke-width: 2px; opacity: 1;"/></g><g class="points"/><g class="text"/></g><g class="trace scatter trace8c121e" style="stroke-miterlimit: 2;"><g class="fills"><g><path class="js-fill" d="M0,331.5L79.34,331.5L86.56,258.68L100.98,258.68L108.2,251.23L122.62,251.23L129.84,186.55L144.26,186.55L151.48,177.27L165.9,177.27L173.11,163.01L187.54,163.01L194.75,153.72L209.18,153.72L216.39,144.43L230.82,144.43L238.03,136.56L252.46,136.56L259.67,127.44L274.1,127.44L281.31,119.57L295.74,119.57L302.95,111.7L317.38,111.7L324.59,104.82L339.02,104.82L346.23,96.7L360.66,96.7L367.87,94.53L382.3,94.53L389.51,92.37L403.93,92.37L411.15,90.21L425.57,90.21L432.79,88.05L447.21,88.05L454.43,85.89L468.85,85.89L476.07,83.73L490.49,83.73L497.7,81.57L512.13,81.57L519.34,79.41L533.77,79.41L540.98,77.25L555.41,77.25L562.62,75.09L577.05,75.09L584.26,72.93L598.69,72.93L605.9,70.77L620.33,70.77L627.54,68.61L641.97,68.61L649.18,66.44L663.61,66.44L670.82,64.28L685.25,64.28L692.46,62.12L706.89,62.12L714.1,59.96L728.52,59.96L735.74,57.8L750.16,57.8L757.38,55.64L771.8,55.64L779.02,53.48L793.44,53.48L800.66,51.32L815.08,51.32L822.3,49.16L836.72,49.16L843.93,47L858.36,47L865.57,44.84L880,44.84L880,136.73L865.57,136.73L858.36,137.97L843.93,137.97L836.72,139.22L822.3,139.22L815.08,140.46L800.66,140.46L793.44,141.7L779.02,141.7L771.8,142.94L757.38,142.94L750.16,144.18L735.74,144.18L728.52,145.42L714.1,145.42L706.89,146.67L692.46,146.67L685.25,147.91L670.82,147.91L663.61,149.15L649.18,149.15L641.97,150.39L627.54,150.39L620.33,151.63L605.9,151.63L598.69,152.88L584.26,152.88L577.05,154.12L562.62,154.12L555.41,155.36L540.98,155.36L533.77,156.6L519.34,156.6L512.13,157.84L497.7,157.84L490.49,159.08L476.07,159.08L468.85,160.33L454.43,160.33L447.21,161.57L432.79,161.57L425.57,162.81L411.15,162.81L403.93,164.05L389.51,164.05L382.3,165.29L367.87,165.29L360.66,166.54L346.23,166.54L339.02,173.74L324.59,173.74L317.38,179.7L302.95,179.7L295.74,186.65L281.31,186.65L274.1,193.61L259.67,193.61L252.46,201.8L238.03,201.8L230.82,208.76L216.39,208.76L209.18,216.21L194.75,216.21L187.54,223.66L173.11,223.66L165.9,236.08L151.48,236.08L144.26,243.53L129.84,243.53L122.62,289.82L108.2,289.82L100.98,297.28L86.56,297.28L79.34,349.88L0,349.88Z" style="fill: rgb(0, 171, 91); fill-opacity: 0.5; stroke-width: 0;"/></g></g><g class="errorbars"/><g class="lines"><path class="js-line" d="M0,349.88L79.34,349.88L86.56,297.28L100.98,297.28L108.2,289.82L122.62,289.82L129.84,243.53L144.26,243.53L151.48,236.08L165.9,236.08L173.11,223.66L187.54,223.66L194.75,216.21L209.18,216.21L216.39,208.76L230.82,208.76L238.03,201.8L252.46,201.8L259.67,193.61L274.1,193.61L281.31,186.65L295.74,186.65L302.95,179.7L317.38,179.7L324.59,173.74L339.02,173.74L346.23,166.54L360.66,166.54L367.87,165.29L382.3,165.29L389.51,164.05L403.93,164.05L411.15,162.81L425.57,162.81L432.79,161.57L447.21,161.57L454.43,160.33L468.85,160.33L476.07,159.08L490.49,159.08L497.7,157.84L512.13,157.84L519.34,156.6L533.77,156.6L540.98,155.36L555.41,155.36L562.62,154.12L577.05,154.12L584.26,152.88L598.69,152.88L605.9,151.63L620.33,151.63L627.54,150.39L641.97,150.39L649.18,149.15L663.61,149.15L670.82,147.91L685.25,147.91L692.46,146.67L706.89,146.67L714.1,145.42L728.52,145.42L735.74,144.18L750.16,144.18L757.38,142.94L771.8,142.94L779.02,141.7L793.44,141.7L800.66,140.46L815.08,140.46L822.3,139.22L836.72,139.22L843.93,137.97L858.36,137.97L865.57,136.73L880,136.73" style="vector-effect: non-scaling-stroke; fill: none; stroke: rgb(251, 195, 57); stroke-opacity: 1; stroke-width: 2px; opacity: 1;"/></g><g class="points"/><g class="text"/></g><g class="trace scatter trace528d93" style="stroke-miterlimit: 2;"><g class="fills"><g><path class="js-fill" d="M0,330.88L57.7,330.26L64.92,329.64L79.34,329.64L86.56,256.2L100.98,256.2L108.2,248.12L122.62,248.12L129.84,182.83L144.26,182.83L151.48,172.92L165.9,172.92L173.11,158.04L187.54,158.04L194.75,148.13L209.18,148.13L216.39,138.22L230.82,138.22L238.03,129.73L252.46,129.73L259.67,119.99L274.1,119.99L281.31,111.5L295.74,111.5L302.95,103L317.38,103L324.59,95.5L339.02,95.5L346.23,86.76L360.66,86.76L367.87,83.98L382.3,83.98L389.51,81.2L403.93,81.2L411.15,78.42L425.57,78.42L432.79,75.63L447.21,75.63L454.43,72.85L468.85,72.85L476.07,70.07L490.49,70.07L497.7,67.29L512.13,67.29L519.34,64.51L533.77,64.51L540.98,61.73L555.41,61.73L562.62,58.94L577.05,58.94L584.26,56.16L598.69,56.16L605.9,53.38L620.33,53.38L627.54,50.6L641.97,50.6L649.18,47.82L663.61,47.82L670.82,45.04L685.25,45.04L692.46,42.25L706.89,42.25L714.1,39.47L728.52,39.47L735.74,36.69L750.16,36.69L757.38,33.91L771.8,33.91L779.02,31.13L793.44,31.13L800.66,28.35L815.08,28.35L822.3,25.56L836.72,25.56L843.93,22.78L858.36,22.78L865.57,20L880,20L880,44.84L865.57,44.84L858.36,47L843.93,47L836.72,49.16L822.3,49.16L815.08,51.32L800.66,51.32L793.44,53.48L779.02,53.48L771.8,55.64L757.38,55.64L750.16,57.8L735.74,57.8L728.52,59.96L714.1,59.96L706.89,62.12L692.46,62.12L685.25,64.28L670.82,64.28L663.61,66.44L649.18,66.44L641.97,68.61L627.54,68.61L620.33,70.77L605.9,70.77L598.69,72.93L584.26,72.93L577.05,75.09L562.62,75.09L555.41,77.25L540.98,77.25L533.77,79.41L519.34,79.41L512.13,81.57L497.7,81.57L490.49,83.73L476.07,83.73L468.85,85.89L454.43,85.89L447.21,88.05L432.79,88.05L425.57,90.21L411.15,90.21L403.93,92.37L389.51,92.37L382.3,94.53L367.87,94.53L360.66,96.7L346.23,96.7L339.02,104.82L324.59,104.82L317.38,111.7L302.95,111.7L295.74,119.57L281.31,119.57L274.1,127.44L259.67,127.44L252.46,136.56L238.03,136.56L230.82,144.43L216.39,144.43L209.18,153.72L194.75,153.72L187.54,163.01L173.11,163.01L165.9,177.27L151.48,177.27L144.26,186.55L129.84,186.55L122.62,251.23L108.2,251.23L100.98,258.68L86.56,258.68L79.34,331.5L0,331.5Z" style="fill: rgb(255, 116, 38); fill-opacity: 0.5; stroke-width: 0;"/></g></g><g class="errorbars"/><g class="lines"><path class="js-line" d="M0,331.5L79.34,331.5L86.56,258.68L100.98,258.68L108.2,251.23L122.62,251.23L129.84,186.55L144.26,186.55L151.48,177.27L165.9,177.27L173.11,163.01L187.54,163.01L194.75,153.72L209.18,153.72L216.39,144.43L230.82,144.43L238.03,136.56L252.46,136.56L259.67,127.44L274.1,127.44L281.31,119.57L295.74,119.57L302.95,111.7L317.38,111.7L324.59,104.82L339.02,104.82L346.23,96.7L360.66,96.7L367.87,94.53L382.3,94.53L389.51,92.37L403.93,92.37L411.15,90.21L425.57,90.21L432.79,88.05L447.21,88.05L454.43,85.89L468.85,85.89L476.07,83.73L490.49,83.73L497.7,81.57L512.13,81.57L519.34,79.41L533.77,79.41L540.98,77.25L555.41,77.25L562.62,75.09L577.05,75.09L584.26,72.93L598.69,72.93L605.9,70.77L620.33,70.77L627.54,68.61L641.97,68.61L649.18,66.44L663.61,66.44L670.82,64.28L685.25,64.28L692.46,62.12L706.89,62.12L714.1,59.96L728.52,59.96L735.74,57.8L750.16,57.8L757.38,55.64L771.8,55.64L779.02,53.48L793.44,53.48L800.66,51.32L815.08,51.32L822.3,49.16L836.72,49.16L843.93,47L858.36,47L865.57,44.84L880,44.84" style="vector-effect: non-scaling-stroke; fill: none; stroke: rgb(0, 171, 91); stroke-opacity: 1; stroke-width: 2px; opacity: 1;"/></g><g class="points"/><g class="text"/></g><g class="trace scatter tracefa1dad" style="stroke-miterlimit: 2;"><g class="fills"/><g class="errorbars"/><g class="lines"><path class="js-line" d="M0,330.88L57.7,330.26L64.92,329.64L79.34,329.64L86.56,256.2L100.98,256.2L108.2,248.12L122.62,248.12L129.84,182.83L144.26,182.83L151.48,172.92L165.9,172.92L173.11,158.04L187.54,158.04L194.75,148.13L209.18,148.13L216.39,138.22L230.82,138.22L238.03,129.73L252.46,129.73L259.67,119.99L274.1,119.99L281.31,111.5L295.74,111.5L302.95,103L317.38,103L324.59,95.5L339.02,95.5L346.23,86.76L360.66,86.76L367.87,83.98L382.3,83.98L389.51,81.2L403.93,81.2L411.15,78.42L425.57,78.42L432.79,75.63L447.21,75.63L454.43,72.85L468.85,72.85L476.07,70.07L490.49,70.07L497.7,67.29L512.13,67.29L519.34,64.51L533.77,64.51L540.98,61.73L555.41,61.73L562.62,58.94L577.05,58.94L584.26,56.16L598.69,56.16L605.9,53.38L620.33,53.38L627.54,50.6L641.97,50.6L649.18,47.82L663.61,47.82L670.82,45.04L685.25,45.04L692.46,42.25L706.89,42.25L714.1,39.47L728.52,39.47L735.74,36.69L750.16,36.69L757.38,33.91L771.8,33.91L779.02,31.13L793.44,31.13L800.66,28.35L815.08,28.35L822.3,25.56L836.72,25.56L843.93,22.78L858.36,22.78L865.57,20L880,20" style="vector-effect: non-scaling-stroke; fill: none; stroke: rgb(255, 116, 38); stroke-opacity: 1; stroke-width: 2px; opacity: 1;"/></g><g class="points"/><g class="text"/></g></g></g><g class="overplot"/><path class="xlines-above crisp" style="fill: none;" d="M0,0"/><path class="ylines-above crisp" style="fill: none;" d="M0,0"/><g class="overlines-above"/><g class="xaxislayer-above"><g class="xtick"><text text-anchor="end" x="-2.0999999999999996" y="529.4" transform="translate(80,0) rotate(-90,-2.0999999999999996,523.4)" style="font-family: 'Open Sans', verdana, arial, sans-serif; font-size: 12px; fill: rgb(68, 68, 68); fill-opacity: 1; white-space: pre; opacity: 1;">11/18/20</text></g><g class="xtick"><text text-anchor="end" x="-2.0999999999999996" y="529.4" transform="translate(101.64,0) rotate(-90,-2.0999999999999996,523.4)" style="font-family: 'Open Sans', verdana, arial, sans-serif; font-size: 12px; fill: rgb(68, 68, 68); fill-opacity: 1; white-space: pre; opacity: 1;">2/18/21</text></g><g class="xtick"><text text-anchor="end" x="-2.0999999999999996" y="529.4" transform="translate(123.28,0) rotate(-90,-2.0999999999999996,523.4)" style="font-family: 'Open Sans', verdana, arial, sans-serif; font-size: 12px; fill: rgb(68, 68, 68); fill-opacity: 1; white-space: pre; opacity: 1;">5/18/21</text></g><g class="xtick"><text text-anchor="end" x="-2.0999999999999996" y="529.4" transform="translate(144.92000000000002,0) rotate(-90,-2.0999999999999996,523.4)" style="font-family: 'Open Sans', verdana, arial, sans-serif; font-size: 12px; fill: rgb(68, 68, 68); fill-opacity: 1; white-space: pre; opacity: 1;">8/18/21</text></g><g class="xtick"><text text-anchor="end" x="-2.0999999999999996" y="529.4" transform="translate(166.56,0) rotate(-90,-2.0999999999999996,523.4)" style="font-family: 'Open Sans', verdana, arial, sans-serif; font-size: 12px; fill: rgb(68, 68, 68); fill-opacity: 1; white-space: pre; opacity: 1;">11/18/21</text></g><g class="xtick"><text text-anchor="end" x="-2.0999999999999996" y="529.4" transform="translate(188.2,0) rotate(-90,-2.0999999999999996,523.4)" style="font-family: 'Open Sans', verdana, arial, sans-serif; font-size: 12px; fill: rgb(68, 68, 68); fill-opacity: 1; white-space: pre; opacity: 1;">2/18/22</text></g><g class="xtick"><text text-anchor="end" x="-2.0999999999999996" y="529.4" transform="translate(209.84,0) rotate(-90,-2.0999999999999996,523.4)" style="font-family: 'Open Sans', verdana, arial, sans-serif; font-size: 12px; fill: rgb(68, 68, 68); fill-opacity: 1; white-space: pre; opacity: 1;">5/18/22</text></g><g class="xtick"><text text-anchor="end" x="-2.0999999999999996" y="529.4" transform="translate(231.48,0) rotate(-90,-2.0999999999999996,523.4)" style="font-family: 'Open Sans', verdana, arial, sans-serif; font-size: 12px; fill: rgb(68, 68, 68); fill-opacity: 1; white-space: pre; opacity: 1;">8/18/22</text></g><g class="xtick"><text text-anchor="end" x="-2.0999999999999996" y="529.4" transform="translate(253.11,0) rotate(-90,-2.0999999999999996,523.4)" style="font-family: 'Open Sans', verdana, arial, sans-serif; font-size: 12px; fill: rgb(68, 68, 68); fill-opacity: 1; white-space: pre; opacity: 1;">11/18/22</text></g><g class="xtick"><text text-anchor="end" x="-2.0999999999999996" y="529.4" transform="translate(274.75,0) rotate(-90,-2.0999999999999996,523.4)" style="font-family: 'Open Sans', verdana, arial, sans-serif; font-size: 12px; fill: rgb(68, 68, 68); fill-opacity: 1; white-space: pre; opacity: 1;">2/18/23</text></g><g class="xtick"><text text-anchor="end" x="-2.0999999999999996" y="529.4" transform="translate(296.39,0) rotate(-90,-2.0999999999999996,523.4)" style="font-family: 'Open Sans', verdana, arial, sans-serif; font-size: 12px; fill: rgb(68, 68, 68); fill-opacity: 1; white-space: pre; opacity: 1;">5/18/23</text></g><g class="xtick"><text text-anchor="end" x="-2.0999999999999996" y="529.4" transform="translate(318.03,0) rotate(-90,-2.0999999999999996,523.4)" style="font-family: 'Open Sans', verdana, arial, sans-serif; font-size: 12px; fill: rgb(68, 68, 68); fill-opacity: 1; white-space: pre; opacity: 1;">8/18/23</text></g><g class="xtick"><text text-anchor="end" x="-2.0999999999999996" y="529.4" transform="translate(339.67,0) rotate(-90,-2.0999999999999996,523.4)" style="font-family: 'Open Sans', verdana, arial, sans-serif; font-size: 12px; fill: rgb(68, 68, 68); fill-opacity: 1; white-space: pre; opacity: 1;">11/18/23</text></g><g class="xtick"><text text-anchor="end" x="-2.0999999999999996" y="529.4" transform="translate(361.31,0) rotate(-90,-2.0999999999999996,523.4)" style="font-family: 'Open Sans', verdana, arial, sans-serif; font-size: 12px; fill: rgb(68, 68, 68); fill-opacity: 1; white-space: pre; opacity: 1;">2/18/24</text></g><g class="xtick"><text text-anchor="end" x="-2.0999999999999996" y="529.4" transform="translate(382.95,0) rotate(-90,-2.0999999999999996,523.4)" style="font-family: 'Open Sans', verdana, arial, sans-serif; font-size: 12px; fill: rgb(68, 68, 68); fill-opacity: 1; white-space: pre; opacity: 1;">5/18/24</text></g><g class="xtick"><text text-anchor="end" x="-2.0999999999999996" y="529.4" transform="translate(404.59,0) rotate(-90,-2.0999999999999996,523.4)" style="font-family: 'Open Sans', verdana, arial, sans-serif; font-size: 12px; fill: rgb(68, 68, 68); fill-opacity: 1; white-space: pre; opacity: 1;">8/18/24</text></g><g class="xtick"><text text-anchor="end" x="-2.0999999999999996" y="529.4" transform="translate(426.23,0) rotate(-90,-2.0999999999999996,523.4)" style="font-family: 'Open Sans', verdana, arial, sans-serif; font-size: 12px; fill: rgb(68, 68, 68); fill-opacity: 1; white-space: pre; opacity: 1;">11/18/24</text></g><g class="xtick"><text text-anchor="end" x="-2.0999999999999996" y="529.4" transform="translate(447.87,0) rotate(-90,-2.0999999999999996,523.4)" style="font-family: 'Open Sans', verdana, arial, sans-serif; font-size: 12px; fill: rgb(68, 68, 68); fill-opacity: 1; white-space: pre; opacity: 1;">2/18/25</text></g><g class="xtick"><text text-anchor="end" x="-2.0999999999999996" y="529.4" transform="translate(469.51,0) rotate(-90,-2.0999999999999996,523.4)" style="font-family: 'Open Sans', verdana, arial, sans-serif; font-size: 12px; fill: rgb(68, 68, 68); fill-opacity: 1; white-space: pre; opacity: 1;">5/18/25</text></g><g class="xtick"><text text-anchor="end" x="-2.0999999999999996" y="529.4" transform="translate(491.15,0) rotate(-90,-2.0999999999999996,523.4)" style="font-family: 'Open Sans', verdana, arial, sans-serif; font-size: 12px; fill: rgb(68, 68, 68); fill-opacity: 1; white-space: pre; opacity: 1;">8/18/25</text></g><g class="xtick"><text text-anchor="end" x="-2.0999999999999996" y="529.4" transform="translate(512.79,0) rotate(-90,-2.0999999999999996,523.4)" style="font-family: 'Open Sans', verdana, arial, sans-serif; font-size: 12px; fill: rgb(68, 68, 68); fill-opacity: 1; white-space: pre; opacity: 1;">11/18/25</text></g><g class="xtick"><text text-anchor="end" x="-2.0999999999999996" y="529.4" transform="translate(534.4300000000001,0) rotate(-90,-2.0999999999999996,523.4)" style="font-family: 'Open Sans', verdana, arial, sans-serif; font-size: 12px; fill: rgb(68, 68, 68); fill-opacity: 1; white-space: pre; opacity: 1;">2/18/26</text></g><g class="xtick"><text text-anchor="end" x="-2.0999999999999996" y="529.4" transform="translate(556.0699999999999,0) rotate(-90,-2.0999999999999996,523.4)" style="font-family: 'Open Sans', verdana, arial, sans-serif; font-size: 12px; fill: rgb(68, 68, 68); fill-opacity: 1; white-space: pre; opacity: 1;">5/18/26</text></g><g class="xtick"><text text-anchor="end" x="-2.0999999999999996" y="529.4" transform="translate(577.7,0) rotate(-90,-2.0999999999999996,523.4)" style="font-family: 'Open Sans', verdana, arial, sans-serif; font-size: 12px; fill: rgb(68, 68, 68); fill-opacity: 1; white-space: pre; opacity: 1;">8/18/26</text></g><g class="xtick"><text text-anchor="end" x="-2.0999999999999996" y="529.4" transform="translate(599.34,0) rotate(-90,-2.0999999999999996,523.4)" style="font-family: 'Open Sans', verdana, arial, sans-serif; font-size: 12px; fill: rgb(68, 68, 68); fill-opacity: 1; white-space: pre; opacity: 1;">11/18/26</text></g><g class="xtick"><text text-anchor="end" x="-2.0999999999999996" y="529.4" transform="translate(620.98,0) rotate(-90,-2.0999999999999996,523.4)" style="font-family: 'Open Sans', verdana, arial, sans-serif; font-size: 12px; fill: rgb(68, 68, 68); fill-opacity: 1; white-space: pre; opacity: 1;">2/18/27</text></g><g class="xtick"><text text-anchor="end" x="-2.0999999999999996" y="529.4" transform="translate(642.62,0) rotate(-90,-2.0999999999999996,523.4)" style="font-family: 'Open Sans', verdana, arial, sans-serif; font-size: 12px; fill: rgb(68, 68, 68); fill-opacity: 1; white-space: pre; opacity: 1;">5/18/27</text></g><g class="xtick"><text text-anchor="end" x="-2.0999999999999996" y="529.4" transform="translate(664.26,0) rotate(-90,-2.0999999999999996,523.4)" style="font-family: 'Open Sans', verdana, arial, sans-serif; font-size: 12px; fill: rgb(68, 68, 68); fill-opacity: 1; white-space: pre; opacity: 1;">8/18/27</text></g><g class="xtick"><text text-anchor="end" x="-2.0999999999999996" y="529.4" transform="translate(685.9,0) rotate(-90,-2.0999999999999996,523.4)" style="font-family: 'Open Sans', verdana, arial, sans-serif; font-size: 12px; fill: rgb(68, 68, 68); fill-opacity: 1; white-space: pre; opacity: 1;">11/18/27</text></g><g class="xtick"><text text-anchor="end" x="-2.0999999999999996" y="529.4" transform="translate(707.54,0) rotate(-90,-2.0999999999999996,523.4)" style="font-family: 'Open Sans', verdana, arial, sans-serif; font-size: 12px; fill: rgb(68, 68, 68); fill-opacity: 1; white-space: pre; opacity: 1;">2/18/28</text></g><g class="xtick"><text text-anchor="end" x="-2.0999999999999996" y="529.4" transform="translate(729.18,0) rotate(-90,-2.0999999999999996,523.4)" style="font-family: 'Open Sans', verdana, arial, sans-serif; font-size: 12px; fill: rgb(68, 68, 68); fill-opacity: 1; white-space: pre; opacity: 1;">5/18/28</text></g><g class="xtick"><text text-anchor="end" x="-2.0999999999999996" y="529.4" transform="translate(750.82,0) rotate(-90,-2.0999999999999996,523.4)" style="font-family: 'Open Sans', verdana, arial, sans-serif; font-size: 12px; fill: rgb(68, 68, 68); fill-opacity: 1; white-space: pre; opacity: 1;">8/18/28</text></g><g class="xtick"><text text-anchor="end" x="-2.0999999999999996" y="529.4" transform="translate(772.46,0) rotate(-90,-2.0999999999999996,523.4)" style="font-family: 'Open Sans', verdana, arial, sans-serif; font-size: 12px; fill: rgb(68, 68, 68); fill-opacity: 1; white-space: pre; opacity: 1;">11/18/28</text></g><g class="xtick"><text text-anchor="end" x="-2.0999999999999996" y="529.4" transform="translate(794.1,0) rotate(-90,-2.0999999999999996,523.4)" style="font-family: 'Open Sans', verdana, arial, sans-serif; font-size: 12px; fill: rgb(68, 68, 68); fill-opacity: 1; white-space: pre; opacity: 1;">2/18/29</text></g><g class="xtick"><text text-anchor="end" x="-2.0999999999999996" y="529.4" transform="translate(815.74,0) rotate(-90,-2.0999999999999996,523.4)" style="font-family: 'Open Sans', verdana, arial, sans-serif; font-size: 12px; fill: rgb(68, 68, 68); fill-opacity: 1; white-space: pre; opacity: 1;">5/18/29</text></g><g class="xtick"><text text-anchor="end" x="-2.0999999999999996" y="529.4" transform="translate(837.38,0) rotate(-90,-2.0999999999999996,523.4)" style="font-family: 'Open Sans', verdana, arial, sans-serif; font-size: 12px; fill: rgb(68, 68, 68); fill-opacity: 1; white-space: pre; opacity: 1;">8/18/29</text></g><g class="xtick"><text text-anchor="end" x="-2.0999999999999996" y="529.4" transform="translate(859.02,0) rotate(-90,-2.0999999999999996,523.4)" style="font-family: 'Open Sans', verdana, arial, sans-serif; font-size: 12px; fill: rgb(68, 68, 68); fill-opacity: 1; white-space: pre; opacity: 1;">11/18/29</text></g><g class="xtick"><text text-anchor="end" x="-2.0999999999999996" y="529.4" transform="translate(880.66,0) rotate(-90,-2.0999999999999996,523.4)" style="font-family: 'Open Sans', verdana, arial, sans-serif; font-size: 12px; fill: rgb(68, 68, 68); fill-opacity: 1; white-space: pre; opacity: 1;">2/18/30</text></g><g class="xtick"><text text-anchor="end" x="-2.0999999999999996" y="529.4" transform="translate(902.3,0) rotate(-90,-2.0999999999999996,523.4)" style="font-family: 'Open Sans', verdana, arial, sans-serif; font-size: 12px; fill: rgb(68, 68, 68); fill-opacity: 1; white-space: pre; opacity: 1;">5/18/30</text></g><g class="xtick"><text text-anchor="end" x="-2.0999999999999996" y="529.4" transform="translate(923.93,0) rotate(-90,-2.0999999999999996,523.4)" style="font-family: 'Open Sans', verdana, arial, sans-serif; font-size: 12px; fill: rgb(68, 68, 68); fill-opacity: 1; white-space: pre; opacity: 1;">8/18/30</text></g><g class="xtick"><text text-anchor="end" x="-2.0999999999999996" y="529.4" transform="translate(945.57,0) rotate(-90,-2.0999999999999996,523.4)" style="font-family: 'Open Sans', verdana, arial, sans-serif; font-size: 12px; fill: rgb(68, 68, 68); fill-opacity: 1; white-space: pre; opacity: 1;">11/18/30</text></g></g><g class="yaxislayer-above"><g class="ytick"><text text-anchor="end" x="79" y="4.199999999999999" transform="translate(0,520)" style="font-family: 'Open Sans', verdana, arial, sans-serif; font-size: 12px; fill: rgb(68, 68, 68); fill-opacity: 1; white-space: pre; opacity: 1;">0</text></g><g class="ytick"><text text-anchor="end" x="79" y="4.199999999999999" style="font-family: 'Open Sans', verdana, arial, sans-serif; font-size: 12px; fill: rgb(68, 68, 68); fill-opacity: 1; white-space: pre; opacity: 1;" transform="translate(0,470.33)">1B</text></g><g class="ytick"><text text-anchor="end" x="79" y="4.199999999999999" style="font-family: 'Open Sans', verdana, arial, sans-serif; font-size: 12px; fill: rgb(68, 68, 68); fill-opacity: 1; white-space: pre; opacity: 1;" transform="translate(0,420.65)">2B</text></g><g class="ytick"><text text-anchor="end" x="79" y="4.199999999999999" style="font-family: 'Open Sans', verdana, arial, sans-serif; font-size: 12px; fill: rgb(68, 68, 68); fill-opacity: 1; white-space: pre; opacity: 1;" transform="translate(0,370.98)">3B</text></g><g class="ytick"><text text-anchor="end" x="79" y="4.199999999999999" style="font-family: 'Open Sans', verdana, arial, sans-serif; font-size: 12px; fill: rgb(68, 68, 68); fill-opacity: 1; white-space: pre; opacity: 1;" transform="translate(0,321.31)">4B</text></g><g class="ytick"><text text-anchor="end" x="79" y="4.199999999999999" style="font-family: 'Open Sans', verdana, arial, sans-serif; font-size: 12px; fill: rgb(68, 68, 68); fill-opacity: 1; white-space: pre; opacity: 1;" transform="translate(0,271.63)">5B</text></g><g class="ytick"><text text-anchor="end" x="79" y="4.199999999999999" style="font-family: 'Open Sans', verdana, arial, sans-serif; font-size: 12px; fill: rgb(68, 68, 68); fill-opacity: 1; white-space: pre; opacity: 1;" transform="translate(0,221.95999999999998)">6B</text></g><g class="ytick"><text text-anchor="end" x="79" y="4.199999999999999" style="font-family: 'Open Sans', verdana, arial, sans-serif; font-size: 12px; fill: rgb(68, 68, 68); fill-opacity: 1; white-space: pre; opacity: 1;" transform="translate(0,172.29)">7B</text></g><g class="ytick"><text text-anchor="end" x="79" y="4.199999999999999" style="font-family: 'Open Sans', verdana, arial, sans-serif; font-size: 12px; fill: rgb(68, 68, 68); fill-opacity: 1; white-space: pre; opacity: 1;" transform="translate(0,122.61)">8B</text></g></g><g class="overaxes-above"/></g></g><g class="polarlayer"/><g class="smithlayer"/><g class="ternarylayer"/><g class="geolayer"/><g class="funnelarealayer"/><g class="pielayer"/><g class="iciclelayer"/><g class="treemaplayer"/><g class="sunburstlayer"/><g class="glimages"/><defs id="topdefs-f75ffc"><g class="clips"/><clipPath id="legendf75ffc"><rect width="846" height="29" x="0" y="0"/></clipPath></defs><g class="layer-above"><g class="imagelayer"/><g class="shapelayer"/></g><g class="infolayer"><g class="legend" pointer-events="all" transform="translate(97,60.000000000000036)"><rect class="bg" shape-rendering="crispEdges" style="stroke: rgb(68, 68, 68); stroke-opacity: 1; fill: rgb(255, 255, 255); fill-opacity: 1; stroke-width: 0px;" width="846" height="29" x="0" y="0"/><g class="scrollbox" transform="" clip-path="url(#legendf75ffc)"><g class="groups"><g class="traces" style="opacity: 1;" transform="translate(0,14.5)"><text class="legendtext" text-anchor="start" x="40" y="4.680000000000001" style="font-family: 'Open Sans', verdana, arial, sans-serif; font-size: 12px; fill: rgb(68, 68, 68); fill-opacity: 1; white-space: pre;">Strategic Partners &amp; Reserve</text><g class="layers"><g class="legendfill"><path class="js-fill" d="M5,-2h30v6h-30z" style="stroke-width: 0; fill: rgb(255, 116, 38); fill-opacity: 0.5;"/></g><g class="legendlines"><path class="js-line" d="M5,-2h30" style="fill: none; stroke: rgb(255, 116, 38); stroke-opacity: 1; stroke-width: 2px;"/></g><g class="legendsymbols"><g class="legendpoints"/></g></g><rect class="legendtoggle" x="0" y="-9.5" width="215.8125" height="19" style="fill: rgb(0, 0, 0); fill-opacity: 0;"/></g><g class="traces" style="opacity: 1;" transform="translate(218.3125,14.5)"><text class="legendtext" text-anchor="start" x="40" y="4.680000000000001" style="font-family: 'Open Sans', verdana, arial, sans-serif; font-size: 12px; fill: rgb(68, 68, 68); fill-opacity: 1; white-space: pre;">Community &amp; Ecosystem</text><g class="layers"><g class="legendfill"><path class="js-fill" d="M5,-2h30v6h-30z" style="stroke-width: 0; fill: rgb(0, 171, 91); fill-opacity: 0.5;"/></g><g class="legendlines"><path class="js-line" d="M5,-2h30" style="fill: none; stroke: rgb(0, 171, 91); stroke-opacity: 1; stroke-width: 2px;"/></g><g class="legendsymbols"><g class="legendpoints"/></g></g><rect class="legendtoggle" x="0" y="-9.5" width="193.203125" height="19" style="fill: rgb(0, 0, 0); fill-opacity: 0;"/></g><g class="traces" style="opacity: 1;" transform="translate(414.015625,14.5)"><text class="legendtext" text-anchor="start" x="40" y="4.680000000000001" style="font-family: 'Open Sans', verdana, arial, sans-serif; font-size: 12px; fill: rgb(68, 68, 68); fill-opacity: 1; white-space: pre;">Foundation Endowment</text><g class="layers"><g class="legendfill"><path class="js-fill" d="M5,-2h30v6h-30z" style="stroke-width: 0; fill: rgb(251, 195, 57); fill-opacity: 0.5;"/></g><g class="legendlines"><path class="js-line" d="M5,-2h30" style="fill: none; stroke: rgb(251, 195, 57); stroke-opacity: 1; stroke-width: 2px;"/></g><g class="legendsymbols"><g class="legendpoints"/></g></g><rect class="legendtoggle" x="0" y="-9.5" width="184.55078125" height="19" style="fill: rgb(0, 0, 0); fill-opacity: 0;"/></g><g class="traces" style="opacity: 1;" transform="translate(601.06640625,14.5)"><text class="legendtext" text-anchor="start" x="40" y="4.680000000000001" style="font-family: 'Open Sans', verdana, arial, sans-serif; font-size: 12px; fill: rgb(68, 68, 68); fill-opacity: 1; white-space: pre;">Backers</text><g class="layers"><g class="legendfill"><path class="js-fill" d="M5,-2h30v6h-30z" style="stroke-width: 0; fill: rgb(240, 74, 60); fill-opacity: 0.5;"/></g><g class="legendlines"><path class="js-line" d="M5,-2h30" style="fill: none; stroke: rgb(240, 74, 60); stroke-opacity: 1; stroke-width: 2px;"/></g><g class="legendsymbols"><g class="legendpoints"/></g></g><rect class="legendtoggle" x="0" y="-9.5" width="89.703125" height="19" style="fill: rgb(0, 0, 0); fill-opacity: 0;"/></g><g class="traces" style="opacity: 1;" transform="translate(693.26953125,14.5)"><text class="legendtext" text-anchor="start" x="40" y="4.680000000000001" style="font-family: 'Open Sans', verdana, arial, sans-serif; font-size: 12px; fill: rgb(68, 68, 68); fill-opacity: 1; white-space: pre;">Core Contributors</text><g class="layers"><g class="legendfill"><path class="js-fill" d="M5,-2h30v6h-30z" style="stroke-width: 0; fill: rgb(79, 120, 238); fill-opacity: 0.5;"/></g><g class="legendlines"><path class="js-line" d="M5,-2h30" style="fill: none; stroke: rgb(79, 120, 238); stroke-opacity: 1; stroke-width: 2px;"/></g><g class="legendsymbols"><g class="legendpoints"/></g></g><rect class="legendtoggle" x="0" y="-9.5" width="149.515625" height="19" style="fill: rgb(0, 0, 0); fill-opacity: 0;"/></g></g></g><rect class="scrollbar" rx="20" ry="3" width="0" height="0" style="fill: rgb(128, 139, 164); fill-opacity: 1;" x="0" y="0"/></g><g class="g-gtitle"><text class="gtitle" x="48" y="30" text-anchor="start" dy="0.7em" style="font-family: 'Open Sans', verdana, arial, sans-serif; font-size: 20px; fill: rgb(68, 68, 68); opacity: 1; font-weight: normal; white-space: pre;">10-Year Token Circulation Schedule</text></g><g class="g-xtitle"/><g class="g-ytitle"><text class="ytitle" transform="rotate(-90,42,320)" x="42" y="320" text-anchor="middle" style="font-family: 'Open Sans', verdana, arial, sans-serif; font-size: 14px; fill: rgb(68, 68, 68); opacity: 1; font-weight: normal; white-space: pre;">Tokens in Circulation</text></g></g></svg>