<svg class="main-svg" xmlns="http://www.w3.org/2000/svg" xmlns:xlink="http://www.w3.org/1999/xlink" width="960" height="600" style="" viewBox="0 0 960 600"><rect x="0" y="0" width="960" height="600" style="fill: rgb(255, 255, 255); fill-opacity: 1;"/><defs id="defs-891fdb"><g class="clips"><clipPath id="clip891fdbxyplot" class="plotclip"><rect width="880" height="420"/></clipPath><clipPath class="axesclip" id="clip891fdbx"><rect x="80" y="0" width="880" height="600"/></clipPath><clipPath class="axesclip" id="clip891fdby"><rect x="0" y="100" width="960" height="420"/></clipPath><clipPath class="axesclip" id="clip891fdbxy"><rect x="80" y="100" width="880" height="420"/></clipPath></g><g class="gradients"/><g class="patterns"/></defs><g class="bglayer"/><g class="layer-below"><g class="imagelayer"/><g class="shapelayer"/></g><g class="cartesianlayer"><g class="subplot xy"><g class="layer-subplot"><g class="shapelayer"/><g class="imagelayer"/></g><g class="minor-gridlayer"><g class="x"/><g class="y"/></g><g class="gridlayer"><g class="x"><path class="xgrid crisp" transform="translate(105.68,0)" d="M0,100v420" style="stroke: rgb(238, 238, 238); stroke-opacity: 1; stroke-width: 1px;"/><path class="xgrid crisp" transform="translate(140.64,0)" d="M0,100v420" style="stroke: rgb(238, 238, 238); stroke-opacity: 1; stroke-width: 1px;"/><path class="xgrid crisp" transform="translate(176.79000000000002,0)" d="M0,100v420" style="stroke: rgb(238, 238, 238); stroke-opacity: 1; stroke-width: 1px;"/><path class="xgrid crisp" transform="translate(212.93,0)" d="M0,100v420" style="stroke: rgb(238, 238, 238); stroke-opacity: 1; stroke-width: 1px;"/><path class="xgrid crisp" transform="translate(249.67,0)" d="M0,100v420" style="stroke: rgb(238, 238, 238); stroke-opacity: 1; stroke-width: 1px;"/><path class="xgrid crisp" transform="translate(285.82,0)" d="M0,100v420" style="stroke: rgb(238, 238, 238); stroke-opacity: 1; stroke-width: 1px;"/><path class="xgrid crisp" transform="translate(321.97,0)" d="M0,100v420" style="stroke: rgb(238, 238, 238); stroke-opacity: 1; stroke-width: 1px;"/><path class="xgrid crisp" transform="translate(356.93,0)" d="M0,100v420" style="stroke: rgb(238, 238, 238); stroke-opacity: 1; stroke-width: 1px;"/><path class="xgrid crisp" transform="translate(393.08,0)" d="M0,100v420" style="stroke: rgb(238, 238, 238); stroke-opacity: 1; stroke-width: 1px;"/><path class="xgrid crisp" transform="translate(429.23,0)" d="M0,100v420" style="stroke: rgb(238, 238, 238); stroke-opacity: 1; stroke-width: 1px;"/><path class="xgrid crisp" transform="translate(465.96,0)" d="M0,100v420" style="stroke: rgb(238, 238, 238); stroke-opacity: 1; stroke-width: 1px;"/><path class="xgrid crisp" transform="translate(502.11,0)" d="M0,100v420" style="stroke: rgb(238, 238, 238); stroke-opacity: 1; stroke-width: 1px;"/><path class="xgrid crisp" transform="translate(538.26,0)" d="M0,100v420" style="stroke: rgb(238, 238, 238); stroke-opacity: 1; stroke-width: 1px;"/><path class="xgrid crisp" transform="translate(573.22,0)" d="M0,100v420" style="stroke: rgb(238, 238, 238); stroke-opacity: 1; stroke-width: 1px;"/><path class="xgrid crisp" transform="translate(609.37,0)" d="M0,100v420" style="stroke: rgb(238, 238, 238); stroke-opacity: 1; stroke-width: 1px;"/><path class="xgrid crisp" transform="translate(645.52,0)" d="M0,100v420" style="stroke: rgb(238, 238, 238); stroke-opacity: 1; stroke-width: 1px;"/><path class="xgrid crisp" transform="translate(682.26,0)" d="M0,100v420" style="stroke: rgb(238, 238, 238); stroke-opacity: 1; stroke-width: 1px;"/><path class="xgrid crisp" transform="translate(718.4,0)" d="M0,100v420" style="stroke: rgb(238, 238, 238); stroke-opacity: 1; stroke-width: 1px;"/><path class="xgrid crisp" transform="translate(754.55,0)" d="M0,100v420" style="stroke: rgb(238, 238, 238); stroke-opacity: 1; stroke-width: 1px;"/><path class="xgrid crisp" transform="translate(790.1,0)" d="M0,100v420" style="stroke: rgb(238, 238, 238); stroke-opacity: 1; stroke-width: 1px;"/><path class="xgrid crisp" transform="translate(826.25,0)" d="M0,100v420" style="stroke: rgb(238, 238, 238); stroke-opacity: 1; stroke-width: 1px;"/><path class="xgrid crisp" transform="translate(862.4,0)" d="M0,100v420" style="stroke: rgb(238, 238, 238); stroke-opacity: 1; stroke-width: 1px;"/><path class="xgrid crisp" transform="translate(899.14,0)" d="M0,100v420" style="stroke: rgb(238, 238, 238); stroke-opacity: 1; stroke-width: 1px;"/><path class="xgrid crisp" transform="translate(935.29,0)" d="M0,100v420" style="stroke: rgb(238, 238, 238); stroke-opacity: 1; stroke-width: 1px;"/></g><g class="y"><path class="ygrid crisp" transform="translate(0,480.24)" d="M80,0h880" style="stroke: rgb(238, 238, 238); stroke-opacity: 1; stroke-width: 1px;"/><path class="ygrid crisp" transform="translate(0,440.48)" d="M80,0h880" style="stroke: rgb(238, 238, 238); stroke-opacity: 1; stroke-width: 1px;"/><path class="ygrid crisp" transform="translate(0,400.72)" d="M80,0h880" style="stroke: rgb(238, 238, 238); stroke-opacity: 1; stroke-width: 1px;"/><path class="ygrid crisp" transform="translate(0,360.95)" d="M80,0h880" style="stroke: rgb(238, 238, 238); stroke-opacity: 1; stroke-width: 1px;"/><path class="ygrid crisp" transform="translate(0,321.19)" d="M80,0h880" style="stroke: rgb(238, 238, 238); stroke-opacity: 1; stroke-width: 1px;"/><path class="ygrid crisp" transform="translate(0,281.43)" d="M80,0h880" style="stroke: rgb(238, 238, 238); stroke-opacity: 1; stroke-width: 1px;"/><path class="ygrid crisp" transform="translate(0,241.67)" d="M80,0h880" style="stroke: rgb(238, 238, 238); stroke-opacity: 1; stroke-width: 1px;"/><path class="ygrid crisp" transform="translate(0,201.91)" d="M80,0h880" style="stroke: rgb(238, 238, 238); stroke-opacity: 1; stroke-width: 1px;"/><path class="ygrid crisp" transform="translate(0,162.15)" d="M80,0h880" style="stroke: rgb(238, 238, 238); stroke-opacity: 1; stroke-width: 1px;"/><path class="ygrid crisp" transform="translate(0,122.39)" d="M80,0h880" style="stroke: rgb(238, 238, 238); stroke-opacity: 1; stroke-width: 1px;"/></g></g><g class="zerolinelayer"><path class="yzl zl crisp" transform="translate(0,520)" d="M80,0h880" style="stroke: rgb(68, 68, 68); stroke-opacity: 1; stroke-width: 1px;"/></g><path class="xlines-below"/><path class="ylines-below"/><g class="overlines-below"/><g class="xaxislayer-below"/><g class="yaxislayer-below"/><g class="overaxes-below"/><g class="plot" transform="translate(80,100)" clip-path="url(#clip891fdbxyplot)"><g class="scatterlayer mlayer"><g class="trace scatter tracedd786b" style="stroke-miterlimit: 2; opacity: 1;"><g class="fills"/><g class="errorbars"/><g class="lines"><path class="js-line" d="M0,21L92.13,21.63L92.72,22.05L95.09,23.52L95.68,23.94L98.63,26.66L99.22,27.49L102.17,32.93L102.77,34.39L105.72,46.04L106.31,49.36L112.21,83.53L112.81,85.57L116.35,93.31L116.94,94.13L120.48,97.78L121.07,98.19L125.21,100.42L198.44,100.83L202.58,102.85L203.17,103.26L206.71,106.5L207.3,107.31L209.66,111.35L210.26,112.76L212.62,120.41L213.21,123.03L216.16,140.63L216.75,144.61L219.7,161.07L220.3,163.24L223.25,171.12L223.84,172.3L228.56,177.59L229.15,177.99L233.29,180.34L305.93,180.53L315.38,184.25L315.97,184.84L317.74,186.59L318.34,187.37L320.7,191.66L321.29,193.22L325.42,206.23L326.01,207.97L329.56,214.53L330.15,215.11L334.28,218.19L334.87,218.58L340.78,220.31L414.01,220.5L418.15,222.62L418.74,223L421.69,225.69L422.28,226.26L425.23,231.05L425.83,232.58L428.19,240.02L428.78,242.69L432.32,264.47L432.91,268.23L435.87,283.04L436.46,285.09L440,292.91L440.59,293.66L444.72,297.74L445.32,298.11L448.86,300.15L522.09,300.34L529.77,303.3L530.36,303.67L533.32,306.26L533.91,307L536.86,312.9L537.45,314.55L543.36,331.6L543.95,332.51L546.9,335.97L547.49,336.52L552.81,339.07L553.4,339.25L555.76,339.97L629.58,340.16L636.67,341.97L637.26,342.15L640.21,343.79L640.81,344.15L643.76,347.6L644.35,348.5L647.3,355.19L647.89,356.63L651.44,363.65L652.03,364.37L654.98,367.06L655.57,367.42L663.84,369.93L738.26,370.11L748.89,371.54L749.48,371.9L753.02,373.69L753.61,374.22L761.29,378.69L761.88,378.87L766.01,379.58L768.38,379.76L770.74,379.94L845.15,380.11L850.47,381.54L851.06,381.9L854.01,383.32L854.6,383.85L856.97,386.17L857.56,386.88L859.92,391.14L860.51,392.73L867.6,412.3L868.19,413.17L871.14,416.33L871.73,416.68L877.05,419.13L877.64,419.3L880,419.83" style="vector-effect: non-scaling-stroke; fill: none; stroke: rgb(66, 133, 244); stroke-opacity: 1; stroke-width: 2px; opacity: 1;"/></g><g class="points"/><g class="text"/></g></g></g><g class="overplot"/><path class="xlines-above crisp" d="M0,0" style="fill: none;"/><path class="ylines-above crisp" d="M0,0" style="fill: none;"/><g class="overlines-above"/><g class="xaxislayer-above"><g class="xtick"><text text-anchor="end" x="-2.0999999999999996" y="529.4" transform="translate(105.68,0) rotate(-90,-2.0999999999999996,523.4)" style="font-family: 'Open Sans', verdana, arial, sans-serif; font-size: 12px; fill: rgb(68, 68, 68); fill-opacity: 1; white-space: pre; opacity: 1;">Jan 2021</text></g><g class="xtick"><text text-anchor="end" x="-2.0999999999999996" y="529.4" style="font-family: 'Open Sans', verdana, arial, sans-serif; font-size: 12px; fill: rgb(68, 68, 68); fill-opacity: 1; white-space: pre; opacity: 1;" transform="translate(140.64,0) rotate(-90,-2.0999999999999996,523.4)">Mar 2021</text></g><g class="xtick"><text text-anchor="end" x="-2.0999999999999996" y="529.4" style="font-family: 'Open Sans', verdana, arial, sans-serif; font-size: 12px; fill: rgb(68, 68, 68); fill-opacity: 1; white-space: pre; opacity: 1;" transform="translate(176.79000000000002,0) rotate(-90,-2.0999999999999996,523.4)">May 2021</text></g><g class="xtick"><text text-anchor="end" x="-2.0999999999999996" y="529.4" style="font-family: 'Open Sans', verdana, arial, sans-serif; font-size: 12px; fill: rgb(68, 68, 68); fill-opacity: 1; white-space: pre; opacity: 1;" transform="translate(212.93,0) rotate(-90,-2.0999999999999996,523.4)">Jul 2021</text></g><g class="xtick"><text text-anchor="end" x="-2.0999999999999996" y="529.4" style="font-family: 'Open Sans', verdana, arial, sans-serif; font-size: 12px; fill: rgb(68, 68, 68); fill-opacity: 1; white-space: pre; opacity: 1;" transform="translate(249.67,0) rotate(-90,-2.0999999999999996,523.4)">Sep 2021</text></g><g class="xtick"><text text-anchor="end" x="-2.0999999999999996" y="529.4" style="font-family: 'Open Sans', verdana, arial, sans-serif; font-size: 12px; fill: rgb(68, 68, 68); fill-opacity: 1; white-space: pre; opacity: 1;" transform="translate(285.82,0) rotate(-90,-2.0999999999999996,523.4)">Nov 2021</text></g><g class="xtick"><text text-anchor="end" x="-2.0999999999999996" y="529.4" style="font-family: 'Open Sans', verdana, arial, sans-serif; font-size: 12px; fill: rgb(68, 68, 68); fill-opacity: 1; white-space: pre; opacity: 1;" transform="translate(321.97,0) rotate(-90,-2.0999999999999996,523.4)">Jan 2022</text></g><g class="xtick"><text text-anchor="end" x="-2.0999999999999996" y="529.4" style="font-family: 'Open Sans', verdana, arial, sans-serif; font-size: 12px; fill: rgb(68, 68, 68); fill-opacity: 1; white-space: pre; opacity: 1;" transform="translate(356.93,0) rotate(-90,-2.0999999999999996,523.4)">Mar 2022</text></g><g class="xtick"><text text-anchor="end" x="-2.0999999999999996" y="529.4" style="font-family: 'Open Sans', verdana, arial, sans-serif; font-size: 12px; fill: rgb(68, 68, 68); fill-opacity: 1; white-space: pre; opacity: 1;" transform="translate(393.08,0) rotate(-90,-2.0999999999999996,523.4)">May 2022</text></g><g class="xtick"><text text-anchor="end" x="-2.0999999999999996" y="529.4" style="font-family: 'Open Sans', verdana, arial, sans-serif; font-size: 12px; fill: rgb(68, 68, 68); fill-opacity: 1; white-space: pre; opacity: 1;" transform="translate(429.23,0) rotate(-90,-2.0999999999999996,523.4)">Jul 2022</text></g><g class="xtick"><text text-anchor="end" x="-2.0999999999999996" y="529.4" style="font-family: 'Open Sans', verdana, arial, sans-serif; font-size: 12px; fill: rgb(68, 68, 68); fill-opacity: 1; white-space: pre; opacity: 1;" transform="translate(465.96,0) rotate(-90,-2.0999999999999996,523.4)">Sep 2022</text></g><g class="xtick"><text text-anchor="end" x="-2.0999999999999996" y="529.4" style="font-family: 'Open Sans', verdana, arial, sans-serif; font-size: 12px; fill: rgb(68, 68, 68); fill-opacity: 1; white-space: pre; opacity: 1;" transform="translate(502.11,0) rotate(-90,-2.0999999999999996,523.4)">Nov 2022</text></g><g class="xtick"><text text-anchor="end" x="-2.0999999999999996" y="529.4" style="font-family: 'Open Sans', verdana, arial, sans-serif; font-size: 12px; fill: rgb(68, 68, 68); fill-opacity: 1; white-space: pre; opacity: 1;" transform="translate(538.26,0) rotate(-90,-2.0999999999999996,523.4)">Jan 2023</text></g><g class="xtick"><text text-anchor="end" x="-2.0999999999999996" y="529.4" style="font-family: 'Open Sans', verdana, arial, sans-serif; font-size: 12px; fill: rgb(68, 68, 68); fill-opacity: 1; white-space: pre; opacity: 1;" transform="translate(573.22,0) rotate(-90,-2.0999999999999996,523.4)">Mar 2023</text></g><g class="xtick"><text text-anchor="end" x="-2.0999999999999996" y="529.4" style="font-family: 'Open Sans', verdana, arial, sans-serif; font-size: 12px; fill: rgb(68, 68, 68); fill-opacity: 1; white-space: pre; opacity: 1;" transform="translate(609.37,0) rotate(-90,-2.0999999999999996,523.4)">May 2023</text></g><g class="xtick"><text text-anchor="end" x="-2.0999999999999996" y="529.4" style="font-family: 'Open Sans', verdana, arial, sans-serif; font-size: 12px; fill: rgb(68, 68, 68); fill-opacity: 1; white-space: pre; opacity: 1;" transform="translate(645.52,0) rotate(-90,-2.0999999999999996,523.4)">Jul 2023</text></g><g class="xtick"><text text-anchor="end" x="-2.0999999999999996" y="529.4" style="font-family: 'Open Sans', verdana, arial, sans-serif; font-size: 12px; fill: rgb(68, 68, 68); fill-opacity: 1; white-space: pre; opacity: 1;" transform="translate(682.26,0) rotate(-90,-2.0999999999999996,523.4)">Sep 2023</text></g><g class="xtick"><text text-anchor="end" x="-2.0999999999999996" y="529.4" style="font-family: 'Open Sans', verdana, arial, sans-serif; font-size: 12px; fill: rgb(68, 68, 68); fill-opacity: 1; white-space: pre; opacity: 1;" transform="translate(718.4,0) rotate(-90,-2.0999999999999996,523.4)">Nov 2023</text></g><g class="xtick"><text text-anchor="end" x="-2.0999999999999996" y="529.4" style="font-family: 'Open Sans', verdana, arial, sans-serif; font-size: 12px; fill: rgb(68, 68, 68); fill-opacity: 1; white-space: pre; opacity: 1;" transform="translate(754.55,0) rotate(-90,-2.0999999999999996,523.4)">Jan 2024</text></g><g class="xtick"><text text-anchor="end" x="-2.0999999999999996" y="529.4" style="font-family: 'Open Sans', verdana, arial, sans-serif; font-size: 12px; fill: rgb(68, 68, 68); fill-opacity: 1; white-space: pre; opacity: 1;" transform="translate(790.1,0) rotate(-90,-2.0999999999999996,523.4)">Mar 2024</text></g><g class="xtick"><text text-anchor="end" x="-2.0999999999999996" y="529.4" style="font-family: 'Open Sans', verdana, arial, sans-serif; font-size: 12px; fill: rgb(68, 68, 68); fill-opacity: 1; white-space: pre; opacity: 1;" transform="translate(826.25,0) rotate(-90,-2.0999999999999996,523.4)">May 2024</text></g><g class="xtick"><text text-anchor="end" x="-2.0999999999999996" y="529.4" style="font-family: 'Open Sans', verdana, arial, sans-serif; font-size: 12px; fill: rgb(68, 68, 68); fill-opacity: 1; white-space: pre; opacity: 1;" transform="translate(862.4,0) rotate(-90,-2.0999999999999996,523.4)">Jul 2024</text></g><g class="xtick"><text text-anchor="end" x="-2.0999999999999996" y="529.4" style="font-family: 'Open Sans', verdana, arial, sans-serif; font-size: 12px; fill: rgb(68, 68, 68); fill-opacity: 1; white-space: pre; opacity: 1;" transform="translate(899.14,0) rotate(-90,-2.0999999999999996,523.4)">Sep 2024</text></g><g class="xtick"><text text-anchor="end" x="-2.0999999999999996" y="529.4" style="font-family: 'Open Sans', verdana, arial, sans-serif; font-size: 12px; fill: rgb(68, 68, 68); fill-opacity: 1; white-space: pre; opacity: 1;" transform="translate(935.29,0) rotate(-90,-2.0999999999999996,523.4)">Nov 2024</text></g></g><g class="yaxislayer-above"><g class="ytick"><text text-anchor="end" x="79" y="4.199999999999999" transform="translate(0,520)" style="font-family: 'Open Sans', verdana, arial, sans-serif; font-size: 12px; fill: rgb(68, 68, 68); fill-opacity: 1; white-space: pre; opacity: 1;">0%</text></g><g class="ytick"><text text-anchor="end" x="79" y="4.199999999999999" style="font-family: 'Open Sans', verdana, arial, sans-serif; font-size: 12px; fill: rgb(68, 68, 68); fill-opacity: 1; white-space: pre; opacity: 1;" transform="translate(0,480.24)">2%</text></g><g class="ytick"><text text-anchor="end" x="79" y="4.199999999999999" style="font-family: 'Open Sans', verdana, arial, sans-serif; font-size: 12px; fill: rgb(68, 68, 68); fill-opacity: 1; white-space: pre; opacity: 1;" transform="translate(0,440.48)">4%</text></g><g class="ytick"><text text-anchor="end" x="79" y="4.199999999999999" style="font-family: 'Open Sans', verdana, arial, sans-serif; font-size: 12px; fill: rgb(68, 68, 68); fill-opacity: 1; white-space: pre; opacity: 1;" transform="translate(0,400.72)">6%</text></g><g class="ytick"><text text-anchor="end" x="79" y="4.199999999999999" style="font-family: 'Open Sans', verdana, arial, sans-serif; font-size: 12px; fill: rgb(68, 68, 68); fill-opacity: 1; white-space: pre; opacity: 1;" transform="translate(0,360.95)">8%</text></g><g class="ytick"><text text-anchor="end" x="79" y="4.199999999999999" style="font-family: 'Open Sans', verdana, arial, sans-serif; font-size: 12px; fill: rgb(68, 68, 68); fill-opacity: 1; white-space: pre; opacity: 1;" transform="translate(0,321.19)">10%</text></g><g class="ytick"><text text-anchor="end" x="79" y="4.199999999999999" style="font-family: 'Open Sans', verdana, arial, sans-serif; font-size: 12px; fill: rgb(68, 68, 68); fill-opacity: 1; white-space: pre; opacity: 1;" transform="translate(0,281.43)">12%</text></g><g class="ytick"><text text-anchor="end" x="79" y="4.199999999999999" style="font-family: 'Open Sans', verdana, arial, sans-serif; font-size: 12px; fill: rgb(68, 68, 68); fill-opacity: 1; white-space: pre; opacity: 1;" transform="translate(0,241.67)">14%</text></g><g class="ytick"><text text-anchor="end" x="79" y="4.199999999999999" style="font-family: 'Open Sans', verdana, arial, sans-serif; font-size: 12px; fill: rgb(68, 68, 68); fill-opacity: 1; white-space: pre; opacity: 1;" transform="translate(0,201.91)">16%</text></g><g class="ytick"><text text-anchor="end" x="79" y="4.199999999999999" style="font-family: 'Open Sans', verdana, arial, sans-serif; font-size: 12px; fill: rgb(68, 68, 68); fill-opacity: 1; white-space: pre; opacity: 1;" transform="translate(0,162.15)">18%</text></g><g class="ytick"><text text-anchor="end" x="79" y="4.199999999999999" style="font-family: 'Open Sans', verdana, arial, sans-serif; font-size: 12px; fill: rgb(68, 68, 68); fill-opacity: 1; white-space: pre; opacity: 1;" transform="translate(0,122.39)">20%</text></g></g><g class="overaxes-above"/></g></g><g class="polarlayer"/><g class="smithlayer"/><g class="ternarylayer"/><g class="geolayer"/><g class="funnelarealayer"/><g class="pielayer"/><g class="iciclelayer"/><g class="treemaplayer"/><g class="sunburstlayer"/><g class="glimages"/><defs id="topdefs-891fdb"><g class="clips"/></defs><g class="layer-above"><g class="imagelayer"/><g class="shapelayer"/></g><g class="infolayer"><g class="g-gtitle"><text class="gtitle" x="480" y="30" text-anchor="middle" dy="0.7em" style="font-family: 'Open Sans', verdana, arial, sans-serif; font-size: 20px; fill: rgb(68, 68, 68); opacity: 1; font-weight: normal; white-space: pre;">Staking Rewards Schedule (time estimated from epoch interval)</text></g><g class="g-xtitle"/><g class="g-ytitle"><text class="ytitle" transform="rotate(-90,42,310)" x="42" y="310" text-anchor="middle" style="font-family: 'Open Sans', verdana, arial, sans-serif; font-size: 14px; fill: rgb(68, 68, 68); opacity: 1; font-weight: normal; white-space: pre;">Estimated Annualized Rewards</text></g></g></svg>