<svg width="413" height="329" viewBox="0 0 413 329" fill="none" xmlns="http://www.w3.org/2000/svg">
<path d="M229.066 76.1298H229.213L248.698 77.4882H248.709C248.719 77.4884 248.734 77.489 248.75 77.4901C248.776 77.4919 248.816 77.4972 248.851 77.5067L248.852 77.5057L267.885 81.5028L267.897 81.5057L267.864 81.6014L267.897 81.5067C267.903 81.5087 267.894 81.5055 267.9 81.5077C267.902 81.5081 267.904 81.5091 267.905 81.5096C267.913 81.5123 267.902 81.5086 267.911 81.5116L267.919 81.5135L267.92 81.5145H267.921C267.924 81.5156 267.92 81.5145 267.923 81.5155H267.924C267.925 81.516 267.926 81.5169 267.928 81.5175C267.929 81.5178 267.93 81.5171 267.931 81.5175C267.933 81.5181 267.93 81.5178 267.932 81.5184H267.933C267.935 81.5192 267.936 81.5196 267.939 81.5204C267.942 81.5215 267.939 81.521 267.943 81.5223L267.946 81.5233H267.947C267.948 81.5237 267.948 81.524 267.948 81.5243C267.954 81.5262 267.966 81.5291 267.972 81.5311L267.973 81.5321H267.975L267.986 81.536V81.537H267.989C267.991 81.5375 267.991 81.5374 267.992 81.538C267.994 81.5384 267.992 81.5384 267.993 81.5389C267.994 81.5393 267.994 81.5386 267.995 81.5389C267.998 81.5398 267.993 81.5389 267.996 81.5399C267.999 81.5408 267.996 81.539 267.998 81.5399L268 81.5409L268.012 81.5448C268.01 81.5443 268.012 81.5454 268.013 81.5458C268.016 81.5468 268.012 81.5447 268.015 81.5458L268.017 81.5468C268.021 81.5481 268.019 81.5474 268.023 81.5487C268.024 81.5491 268.027 81.5496 268.027 81.5497C268.031 81.5509 268.033 81.5525 268.036 81.5536H268.039L285.933 88.0497L285.943 88.0546L285.944 88.0555C285.945 88.0559 285.946 88.0559 285.947 88.0565C285.95 88.0577 285.954 88.0592 285.958 88.0614C285.967 88.0659 285.98 88.0724 285.994 88.079L286.071 88.1122L286.079 88.1141L286.087 88.119L302.187 96.8944L302.195 96.8993C302.196 96.8998 302.198 96.9013 302.199 96.9022C302.202 96.904 302.205 96.907 302.21 96.91C302.22 96.9163 302.233 96.9248 302.247 96.9344C302.276 96.9539 302.312 96.9774 302.335 96.993L302.342 96.9969L302.341 96.9979L316.055 107.757L316.064 107.765V107.766H316.065V107.766C316.065 107.767 316.065 107.767 316.066 107.767C316.069 107.771 316.064 107.765 316.067 107.768C316.07 107.771 316.075 107.776 316.079 107.78C316.081 107.782 316.081 107.783 316.082 107.784C316.085 107.787 316.084 107.785 316.087 107.788L316.106 107.807V107.807C316.107 107.809 316.105 107.807 316.107 107.808C316.107 107.809 316.107 107.808 316.108 107.809C316.109 107.81 316.109 107.81 316.109 107.81C316.111 107.811 316.109 107.811 316.11 107.812L316.113 107.814C316.118 107.819 316.111 107.812 316.116 107.817C316.127 107.828 316.128 107.83 316.139 107.841C316.146 107.847 316.144 107.846 316.15 107.852C316.151 107.853 316.151 107.852 316.152 107.853V107.854L316.156 107.858C316.159 107.861 316.16 107.861 316.162 107.863C316.168 107.869 316.168 107.869 316.174 107.875C316.176 107.877 316.174 107.876 316.176 107.878L316.178 107.879V107.88H316.179V107.881C316.182 107.884 316.179 107.881 316.182 107.884C316.184 107.886 316.182 107.883 316.185 107.886C316.188 107.889 316.192 107.893 316.194 107.896L316.204 107.905L316.209 107.91H316.208L326.988 120.294L326.993 120.299L326.913 120.359L326.993 120.3L326.994 120.301C326.995 120.302 326.996 120.304 326.997 120.306C327 120.309 327.004 120.315 327.009 120.321C327.018 120.334 327.032 120.352 327.046 120.372C327.072 120.409 327.105 120.461 327.125 120.499H327.126L332.056 129.509L332.104 129.597L332.016 129.644L330.306 130.579L330.415 130.778L330.173 130.698L330.08 130.667L329.862 130.595L330.034 130.5L325.24 121.745L314.611 109.547L301.068 98.9081L285.128 90.2196L267.384 83.7743L248.506 79.8104L229.174 78.453L210.078 79.7479L191.914 83.6503L175.348 90.0302L160.981 98.6561L149.357 109.215L146.744 112.968L146.688 113.05L146.606 112.993L144.858 111.774L144.776 111.718L144.833 111.636L147.517 107.778L147.519 107.775L147.52 107.773C147.52 107.772 147.522 107.771 147.524 107.769C147.526 107.766 147.53 107.76 147.535 107.754C147.545 107.741 147.56 107.723 147.576 107.703C147.607 107.666 147.653 107.615 147.694 107.584L159.482 96.8622L159.483 96.8602V96.8593L159.485 96.8583C159.486 96.8575 159.488 96.8566 159.489 96.8553C159.493 96.8525 159.497 96.8484 159.503 96.8436C159.515 96.8339 159.531 96.8209 159.55 96.8065C159.583 96.7809 159.629 96.7466 159.669 96.7255L174.209 87.996L174.21 87.995H174.211L174.212 87.994C174.213 87.9935 174.214 87.9929 174.216 87.9921C174.219 87.9902 174.225 87.9875 174.231 87.9843C174.242 87.9778 174.259 87.9683 174.277 87.9589C174.309 87.9429 174.355 87.9219 174.396 87.91L191.135 81.4608L191.144 81.4579H191.145C191.145 81.4577 191.147 81.4573 191.149 81.4569C191.152 81.456 191.156 81.4546 191.161 81.453C191.172 81.4499 191.187 81.4461 191.203 81.4413C191.237 81.4315 191.275 81.4201 191.296 81.413L191.306 81.4091L209.637 77.4589L209.642 77.4579H209.643C209.643 77.4578 209.645 77.4571 209.647 77.4569C209.65 77.4564 209.654 77.4557 209.659 77.455C209.67 77.4534 209.684 77.4521 209.7 77.4501C209.731 77.4463 209.772 77.4418 209.808 77.4413L229.059 76.1298L229.066 76.1288V76.1298Z" fill="#0500E2" stroke="#0500E2" stroke-width="0.2"/>
<path d="M383.543 91.5115L425.755 91.5705L425.751 93.8937L383.539 93.8347L383.543 91.5115Z" fill="#0500E2" stroke="#0500E2" stroke-width="0.2"/>
<path d="M419.224 67.2219L426.743 92.4065C426.777 92.5091 426.795 92.6128 426.796 92.717L427.261 117.367L443.293 119.604H443.292C443.421 119.607 443.544 119.662 443.635 119.707H443.634L481.42 138.165H481.421C481.83 138.37 482.086 138.797 482.069 139.258V139.259L481.968 139.254L482.068 139.259L479.214 196.959C479.213 197.06 479.195 197.146 479.162 197.232L472.922 217.954V217.955C472.922 217.956 472.922 217.958 472.922 217.959C472.921 217.963 472.918 217.967 472.917 217.973C472.913 217.985 472.907 218.002 472.901 218.02C472.891 218.049 472.872 218.091 472.852 218.125L472.854 218.126L462.978 238.115C462.756 238.559 462.294 238.798 461.817 238.747L417.152 233.875V233.874C417.022 233.871 416.898 233.817 416.797 233.774L416.794 233.773L401.975 226.915L381.619 247.915L381.618 247.916H381.617L381.598 247.935C381.586 247.946 381.569 247.962 381.55 247.979C381.519 248.007 381.471 248.044 381.429 248.068L381.43 248.069L380.446 248.726V249.052L380.262 248.775L379.092 247.011L379.037 246.927L379.12 246.872L380.047 246.253L400.898 224.758C401.239 224.4 401.769 224.297 402.215 224.52H402.214L417.611 231.631L461.285 236.386L470.752 217.216L476.923 196.716L479.727 139.924L442.796 121.892L425.964 119.536H425.963C425.401 119.451 424.975 118.974 424.958 118.41L424.957 118.409L424.473 92.9202L417.005 67.8879L416.976 67.7922L417.072 67.7639L419.1 67.1545L419.196 67.1252L419.224 67.2219Z" fill="#0500E2" stroke="#0500E2" stroke-width="0.2"/>
<path d="M418.059 66.3712L418.382 68.6718L378.173 74.3355L377.849 72.0349L418.059 66.3712Z" fill="#0500E2" stroke="#0500E2" stroke-width="0.2"/>
<path d="M379.193 72.7674L384.771 92.4604L382.538 93.0941L376.96 73.4012L379.193 72.7674Z" fill="#0500E2" stroke="#0500E2" stroke-width="0.2"/>
<path d="M405.034 43.1669L418.712 66.2977L433.682 64.1864L464.306 46.8788L464.393 46.829L464.443 46.9159L465.488 48.7587L465.537 48.8456L465.45 48.8954L434.638 66.3055C434.518 66.3743 434.366 66.4249 434.228 66.4423L434.229 66.4432L418.269 68.6923L418.256 68.6942V68.6932H418.216V68.7089H418.115C417.706 68.7088 417.331 68.5036 417.11 68.1464L417.108 68.1444L403.037 44.3456L402.986 44.2596L403.072 44.2089L404.897 43.1317L404.983 43.0809L405.034 43.1669Z" fill="#0500E2" stroke="#0500E2" stroke-width="0.2"/>
<path d="M403.824 42.5748L404.487 44.8013L367.698 55.786L367.035 53.5595L403.824 42.5748Z" fill="#0500E2" stroke="#0500E2" stroke-width="0.2"/>
<path d="M368.451 54.0833L379.107 72.5881L379.107 72.5891C379.294 72.9289 379.312 73.3223 379.142 73.6799L379.141 73.6819C378.97 74.0235 378.646 74.2616 378.257 74.3293H378.254L338.195 79.9661L338.198 79.9836H338.068L338.061 79.886L337.984 79.8967L337.689 77.7893L337.674 77.6897L337.773 77.676L376.238 72.262L366.437 55.2444L366.387 55.1584L366.474 55.1086L368.315 54.0461L368.401 53.9963L368.451 54.0833Z" fill="#0500E2" stroke="#0500E2" stroke-width="0.2"/>
<path d="M384.943 21.381L404.417 42.4318L418.274 38.297L418.369 38.2677L418.398 38.3634L419.006 40.3937L419.035 40.4894L418.94 40.5187L404.384 44.8595L404.383 44.8585C404.279 44.8927 404.161 44.9103 404.059 44.9103H404.043C403.718 44.9103 403.411 44.7737 403.19 44.5353V44.5343L383.236 22.9542L383.168 22.88L383.242 22.8126L384.802 21.3761L384.875 21.3077L384.943 21.381Z" fill="#0500E2" stroke="#0500E2" stroke-width="0.2"/>
<path d="M383.66 21.0978L384.682 23.1844L352.577 38.9343L351.556 36.8477L383.66 21.0978Z" fill="#0500E2" stroke="#0500E2" stroke-width="0.2"/>
<path d="M353.025 37.0603L368.312 53.9089L368.407 54.0242C368.606 54.3047 368.658 54.662 368.57 55.0017C368.467 55.3978 368.158 55.687 367.786 55.8054L367.785 55.8064L330.904 66.8152L330.776 66.8533V66.7195L330.172 64.7029L330.142 64.6062L330.239 64.5779L365.343 54.0974L351.301 38.6316L351.234 38.5574L351.307 38.49L352.883 37.0535L352.958 36.9861L353.025 37.0603Z" fill="#0500E2" stroke="#0500E2" stroke-width="0.2"/>
<path d="M397.579 15.135L418.941 38.0598L452.033 28.178L452.129 28.1497L452.158 28.2454L452.767 30.2747L452.795 30.3713L452.699 30.3997L418.908 40.4875L418.907 40.4866C418.813 40.5175 418.708 40.5324 418.603 40.5354L418.599 40.554C418.274 40.554 417.967 40.4165 417.745 40.178V40.179L395.889 16.7239L395.821 16.6506L395.894 16.5833L397.438 15.1301L397.511 15.0618L397.579 15.135Z" fill="#0500E2" stroke="#0500E2" stroke-width="0.2"/>
<path d="M330.579 -12.6503L359.627 2.46594L359.637 2.47083V2.4718H359.638L359.652 2.48157C359.662 2.4879 359.675 2.49725 359.69 2.50696L359.777 2.56555L359.781 2.5675V2.56848L384.21 20.7863L396.246 14.879C396.369 14.81 396.506 14.7772 396.636 14.7609L396.639 14.7599L436.951 10.6691H436.952C437.28 10.6394 437.595 10.7403 437.84 10.9601L437.94 11.0616L453.261 28.504H453.26C453.262 28.5062 453.265 28.5091 453.269 28.5128C453.276 28.5205 453.286 28.5314 453.296 28.5441C453.31 28.5618 453.331 28.5915 453.347 28.6241L465.858 47.2062V47.2072C465.996 47.4132 466.063 47.6671 466.063 47.9181V47.923L463.13 102.781C463.112 103.175 462.89 103.534 462.548 103.723L462.547 103.722L433.754 120.307V120.655L433.566 120.331L432.506 118.488L432.456 118.401L432.543 118.352L460.841 102.045L463.724 48.2111L451.47 30.0236L436.591 13.0743L397.082 17.0812L384.602 23.2101V23.2111C384.211 23.3983 383.748 23.3645 383.39 23.0909V23.09L358.464 4.49524L329.504 -10.5829L329.415 -10.6298L329.461 -10.7177L330.444 -12.6073L330.49 -12.6962L330.579 -12.6503Z" fill="#0500E2" stroke="#0500E2" stroke-width="0.2"/>
<path d="M358.463 2.51271L359.857 4.3697L333.496 24.2025L332.102 22.3455L358.463 2.51271Z" fill="#0500E2" stroke="#0500E2" stroke-width="0.2"/>
<path d="M329.238 -12.4377L331 -10.925L311.187 12.1974L309.425 10.6847L329.238 -12.4377Z" fill="#0500E2" stroke="#0500E2" stroke-width="0.2"/>
<path d="M310.817 10.2876L333.522 22.2545L332.44 24.3106L309.736 12.3437L310.817 10.2876Z" fill="#0500E2" stroke="#0500E2" stroke-width="0.2"/>
<path d="M296.978 -23.3775L299.058 -22.346L286.418 3.1867L284.338 2.15524L296.978 -23.3775Z" fill="#0500E2" stroke="#0500E2" stroke-width="0.2"/>
<path d="M285.792 1.49194L310.737 10.2527H310.736C311.098 10.3737 311.37 10.682 311.472 11.0544C311.575 11.4321 311.471 11.8248 311.233 12.113L311.232 12.114L291.217 35.4753L291.151 35.5515L291.075 35.4861L289.469 34.0964L289.394 34.031L289.458 33.9558L308.364 11.8757L285.023 3.67944L284.929 3.64624L284.962 3.55249L285.664 1.55347L285.697 1.45874L285.792 1.49194Z" fill="#0500E2" stroke="#0500E2" stroke-width="0.2"/>
<path d="M259.195 -3.91431L285.654 1.47241H285.653C285.969 1.53285 286.229 1.72498 286.402 1.98608L286.471 2.10229L286.473 2.1062C286.626 2.42985 286.626 2.80507 286.473 3.12866L286.472 3.12964L273.664 28.9578L273.556 28.9324L273.53 28.988L271.627 28.0505L271.537 28.0066L271.582 27.9167L283.707 3.43823L258.734 -1.64185L258.635 -1.66138L258.656 -1.76001L259.077 -3.83618L259.096 -3.93481L259.195 -3.91431Z" fill="#0500E2" stroke="#0500E2" stroke-width="0.2"/>
<path d="M165.236 -63.0656C165.593 -63.1504 165.97 -63.0663 166.245 -62.8253H166.244L191.938 -41.1202L191.94 -41.1193C192.089 -40.9868 192.21 -40.8329 192.279 -40.6417L195.935 -30.8751L229.309 -33.0704L229.315 -33.0714H229.462V-33.0704L263.102 -30.8136L264.911 -40.3761L264.912 -40.38C264.961 -40.5937 265.061 -40.8163 265.235 -40.9747L286.935 -62.6329L287.045 -62.7286C287.312 -62.9341 287.668 -63.016 288.011 -62.9415H288.012L314.613 -56.9474H314.618C314.626 -56.9471 314.637 -56.9458 314.648 -56.9445C314.66 -56.9432 314.675 -56.9417 314.69 -56.9376C314.697 -56.9358 314.709 -56.9312 314.723 -56.924L340.467 -48.8702H340.468C340.981 -48.7161 341.321 -48.2044 341.271 -47.674L338.137 -7.91516L338.129 -7.81555L338.028 -7.82336L335.907 -7.99524L335.808 -8.00403L335.815 -8.10266L338.866 -46.9386L314.046 -54.7062L288.099 -60.548L267.114 -39.6066L265.17 -29.3947L265.171 -29.3937C265.069 -28.8134 264.555 -28.4009 263.956 -28.4523V-28.4532L229.377 -30.7784L195.219 -28.5304C194.723 -28.4963 194.228 -28.8023 194.057 -29.2833V-29.2843L190.213 -39.5646L165.201 -60.674L140.312 -54.8947L116.816 -47.1378L110.881 1.33679V1.4657L110.768 1.45105L108.662 1.1864L108.563 1.17371L108.575 1.07507L114.613 -48.1456L114.643 -48.3087C114.743 -48.6803 115.025 -48.9836 115.398 -49.1036L139.642 -57.1144L139.649 -57.1163H139.651C139.653 -57.1167 139.655 -57.1176 139.657 -57.1183C139.663 -57.1198 139.671 -57.1216 139.68 -57.1241C139.699 -57.1299 139.715 -57.1362 139.723 -57.1398L139.732 -57.1447L139.744 -57.1476L165.236 -63.0665V-63.0656Z" fill="#0500E2" stroke="#0500E2" stroke-width="0.2"/>
<path d="M332.252 22.2686C332.655 22.016 333.188 22.0337 333.572 22.3223L352.855 36.9229H352.854C353.18 37.1631 353.349 37.5565 353.315 37.9639C353.281 38.377 353.024 38.7178 352.67 38.9033L352.667 38.9043L320.39 54.7539L320.245 54.8242V54.6543L319.319 52.7715L319.275 52.6826L319.365 52.6377L349.953 37.625L332.872 24.6973L306.989 44.1875L306.909 44.248L306.849 44.168L305.569 42.4658L305.51 42.3857L305.589 42.3262L332.173 22.3223L332.252 22.2686Z" fill="#0500E2" stroke="#0500E2" stroke-width="0.2"/>
<path d="M215.129 23.3503L215.133 23.3494H215.134C215.135 23.3492 215.137 23.3486 215.138 23.3484C215.141 23.3479 215.145 23.3472 215.15 23.3464C215.16 23.3449 215.175 23.3436 215.192 23.3416C215.222 23.3378 215.263 23.3333 215.299 23.3328L234.347 22.0525L234.354 22.0515V22.0525H234.502L253.799 23.3796H253.81C253.821 23.3799 253.836 23.3805 253.852 23.3816C253.878 23.3833 253.918 23.3878 253.952 23.3972H253.953L272.794 27.2693H272.797C272.797 27.2694 272.799 27.27 272.8 27.2703C272.804 27.2709 272.809 27.2711 272.814 27.2722C272.825 27.2745 272.84 27.2784 272.857 27.283C272.882 27.2896 272.918 27.3024 272.952 27.3201L290.674 33.613L290.686 33.6179L290.687 33.6189C290.688 33.6192 290.689 33.6193 290.69 33.6199C290.693 33.6211 290.696 33.6235 290.701 33.6257C290.71 33.6301 290.722 33.6359 290.736 33.6423L290.813 33.6755L290.821 33.6775L290.829 33.6824L306.789 42.1921L306.798 42.197L306.797 42.198H306.798L306.812 42.2078C306.822 42.2141 306.835 42.2225 306.849 42.2322L306.943 42.2947L320.531 52.7419L320.535 52.7449L320.536 52.7458L320.537 52.7468C320.538 52.7476 320.539 52.7484 320.541 52.7498C320.544 52.7526 320.549 52.7565 320.554 52.7615C320.566 52.7714 320.581 52.7861 320.597 52.8015C320.624 52.8263 320.66 52.8633 320.684 52.8953H320.685L331.372 64.9041L331.378 64.9099V64.9109V64.9119C331.378 64.9128 331.379 64.9141 331.381 64.9158C331.383 64.9193 331.388 64.9242 331.392 64.9304C331.402 64.943 331.415 64.9608 331.429 64.9802C331.459 65.0192 331.494 65.0662 331.517 65.0974L331.525 65.1082L331.437 65.158L331.524 65.1091L338.888 78.2576L338.89 78.2615V78.2625L338.891 78.2634C338.892 78.2648 338.893 78.2669 338.894 78.2693C338.897 78.2741 338.9 78.2813 338.904 78.2898C338.912 78.3067 338.923 78.3305 338.934 78.3572C338.955 78.4054 338.979 78.4727 338.99 78.53H338.991L342.686 92.3142C342.723 92.4255 342.723 92.5353 342.723 92.6414V92.6423L342.567 106.571C342.567 106.673 342.549 106.791 342.515 106.895L338.46 120.419L338.459 120.422C338.426 120.519 338.393 120.602 338.344 120.7L338.34 120.709L330.477 133.279L330.475 133.282L330.474 133.284C330.474 133.285 330.472 133.287 330.47 133.289C330.468 133.293 330.464 133.299 330.459 133.306C330.449 133.321 330.435 133.341 330.419 133.363C330.387 133.406 330.344 133.462 330.306 133.5L330.305 133.501L318.902 144.603L318.897 144.608H318.896L318.892 144.612C318.889 144.615 318.884 144.619 318.879 144.624C318.867 144.633 318.851 144.647 318.834 144.662C318.799 144.691 318.754 144.728 318.72 144.753L318.714 144.758L304.189 153.924L304.185 153.926L304.184 153.927C304.183 153.927 304.182 153.928 304.18 153.928C304.177 153.93 304.173 153.933 304.168 153.936C304.156 153.943 304.14 153.952 304.122 153.962C304.087 153.981 304.043 154.006 304.009 154.022L304.002 154.026V154.025L286.934 160.865L286.924 160.869H286.924C286.923 160.869 286.921 160.869 286.92 160.87C286.916 160.871 286.912 160.872 286.906 160.874C286.895 160.877 286.879 160.882 286.862 160.886C286.827 160.896 286.782 160.908 286.75 160.916L286.748 160.917L267.808 165.133L267.8 165.135H267.799C267.799 165.135 267.797 165.135 267.796 165.135C267.792 165.136 267.788 165.137 267.782 165.137C267.771 165.139 267.755 165.14 267.738 165.142C267.708 165.146 267.666 165.15 267.636 165.15L247.606 166.556H247.521L247.515 166.525H247.513L227.217 165.057C227.215 165.057 227.211 165.057 227.207 165.057C227.196 165.057 227.181 165.057 227.165 165.055C227.138 165.054 227.098 165.048 227.063 165.038V165.04L207.343 160.76L207.333 160.759V160.758H207.332C207.331 160.757 207.33 160.757 207.329 160.757C207.326 160.756 207.323 160.754 207.318 160.753C207.309 160.75 207.295 160.746 207.28 160.741C207.249 160.731 207.212 160.721 207.184 160.714L207.174 160.711V160.71L188.842 153.823L188.839 153.822V153.821H188.837C188.836 153.821 188.834 153.82 188.833 153.819C188.829 153.818 188.825 153.816 188.819 153.813C188.808 153.808 188.792 153.801 188.775 153.793C188.744 153.778 188.703 153.757 188.673 153.738V153.739L172.464 144.525H172.463L172.462 144.524C172.461 144.524 172.459 144.523 172.458 144.522C172.454 144.52 172.449 144.517 172.443 144.513C172.431 144.506 172.416 144.496 172.398 144.485C172.367 144.465 172.324 144.435 172.293 144.405V144.406L158.845 133.272L158.843 133.271V133.27L158.842 133.269C158.842 133.269 158.84 133.268 158.839 133.266C158.835 133.264 158.83 133.26 158.825 133.255C158.813 133.244 158.797 133.23 158.78 133.214C158.747 133.182 158.702 133.138 158.673 133.099V133.098L148.488 120.515L148.485 120.512L148.484 120.51C148.483 120.51 148.482 120.508 148.481 120.507C148.478 120.503 148.474 120.497 148.469 120.49C148.46 120.476 148.446 120.458 148.431 120.436C148.405 120.397 148.372 120.341 148.351 120.293V120.294L141.799 106.77V106.769C141.772 106.722 141.754 106.674 141.74 106.629C141.724 106.576 141.715 106.54 141.7 106.493L141.696 106.48V106.479L138.966 92.5515V92.5486C138.951 92.4559 138.932 92.3478 138.95 92.2214H138.951L140.104 78.4382C140.106 78.3284 140.142 78.2217 140.172 78.1335L140.173 78.1306L145.102 65.0134L145.103 65.0115C145.136 64.9293 145.187 64.826 145.241 64.7537L153.711 52.7791L153.712 52.7771L153.714 52.7751C153.714 52.7741 153.715 52.772 153.716 52.7703C153.719 52.7665 153.724 52.7611 153.729 52.7546C153.739 52.7416 153.754 52.7233 153.77 52.7039C153.801 52.6671 153.846 52.6157 153.887 52.5847L165.535 42.1902L165.537 42.1892L165.542 42.1843C165.545 42.1815 165.55 42.1775 165.556 42.1726C165.568 42.163 165.584 42.1497 165.602 42.1355C165.637 42.1085 165.687 42.0711 165.728 42.0505L180.106 33.575L180.107 33.574H180.108L180.109 33.573C180.11 33.5725 180.112 33.5719 180.113 33.571C180.116 33.5692 180.121 33.5663 180.127 33.5632C180.138 33.5569 180.153 33.5479 180.171 33.5388C180.201 33.5225 180.246 33.5003 180.278 33.489L196.83 27.2273L196.838 27.2244H196.84C196.84 27.2242 196.841 27.2237 196.842 27.2234C196.845 27.2225 196.85 27.221 196.855 27.2195C196.866 27.2164 196.881 27.2125 196.897 27.2078C196.931 27.1979 196.968 27.1866 196.99 27.1794L197.001 27.1755L215.129 23.3503ZM215.584 25.655L197.625 29.447L181.241 35.6423L167.048 44.0017L155.583 54.2468L147.281 65.9851L142.454 78.8123L141.334 92.2742L143.996 105.896L150.429 119.166L160.444 131.56L173.725 142.56L189.759 151.67L207.918 158.504L227.364 162.726L227.466 162.734L247.599 164.185L267.459 162.797L286.228 158.614L303.104 151.845L317.426 142.799L328.645 131.881L336.353 119.566L340.323 106.354L340.478 92.7449L336.849 79.2468L329.625 66.3425L319.091 54.5183L305.673 44.2078L289.882 35.782L272.315 29.5408L253.623 25.7019L234.478 24.3914L215.584 25.655Z" fill="#0500E2" stroke="#0500E2" stroke-width="0.2"/>
<path d="M163.389 -23.63L180.736 1.91082L178.816 3.21732L161.469 -22.3235L163.389 -23.63Z" fill="#0500E2" stroke="#0500E2" stroke-width="0.2"/>
<path d="M204.941 -3.99255C205.47 -4.10473 205.998 -3.84106 206.23 -3.35779L206.272 -3.25818L216.506 24.0983L216.549 24.2281C216.582 24.3586 216.588 24.4904 216.575 24.6285V24.6295L213.798 51.9723L213.696 51.9664L213.688 52.0465L211.582 51.8278L211.483 51.817L211.493 51.7184L214.236 24.6471L204.445 -1.51501L179.959 3.6051L179.861 3.62561L179.841 3.52795L179.404 1.45081L179.384 1.35315L179.481 1.33264L204.941 -3.99255Z" fill="#0500E2" stroke="#0500E2" stroke-width="0.2"/>
<path d="M133.233 -12.7503L157.284 10.3999L155.675 12.0745L131.624 -11.0756L133.233 -12.7503Z" fill="#0500E2" stroke="#0500E2" stroke-width="0.2"/>
<path d="M179.405 1.36877C179.877 1.23566 180.389 1.42658 180.675 1.82483L180.677 1.82678L198.243 27.6862L198.296 27.7721C198.412 27.9778 198.461 28.2177 198.431 28.4576L195.545 55.8463L195.466 55.8375L195.461 55.9352H195.334L195.335 55.9225L193.345 55.7164L193.246 55.7057L193.256 55.6061L196.091 28.6276L179.276 3.87854L156.823 12.2672L156.729 12.3024L156.694 12.2096L155.945 10.2262L155.91 10.1324L156.003 10.0973L179.311 1.39905L179.405 1.36877Z" fill="#0500E2" stroke="#0500E2" stroke-width="0.2"/>
<path d="M116.837 -48.3009L124.053 -21.547L133.268 -12.6808L133.269 -12.6788C133.523 -12.4248 133.662 -12.0665 133.61 -11.7042C133.559 -11.3479 133.356 -11.0232 133.031 -10.8351H133.03L106.889 4.16785L85.4481 22.6805V22.6815C85.1067 22.972 84.6276 23.0405 84.2176 22.8524V22.8514L70.5965 16.6903L30.4539 12.6073L18.8036 29.3768L9.86215 47.6669L2.32407 101.439L35.7088 118.997L42.3856 119.948L42.4842 119.962L42.4706 120.06L42.1747 122.169L42.162 122.255H42.0526L42.0457 122.254L35.1815 121.27V121.269C35.0481 121.253 34.9272 121.218 34.8055 121.149V121.15L0.515472 103.114C0.0884143 102.892 -0.167005 102.414 -0.0987854 101.919L7.60825 47.1229C7.62507 47.0051 7.65838 46.8851 7.71078 46.7802L16.7743 28.245L16.7752 28.244V28.243C16.7756 28.2423 16.7765 28.2414 16.7772 28.2401C16.7786 28.2374 16.7806 28.2332 16.7831 28.2284C16.7881 28.2185 16.7954 28.2046 16.8036 28.1893C16.8192 28.16 16.8406 28.1205 16.8592 28.0927L16.8602 28.0917L28.9354 10.6952C29.1728 10.3558 29.5662 10.1487 30.0116 10.2001H30.0106L71.0252 14.3856H71.0243C71.0877 14.3869 71.1499 14.4 71.2088 14.4188L71.3817 14.4862L71.3836 14.4872L84.5067 20.4257L105.473 2.32214L105.48 2.31628H105.481H105.482C105.483 2.31566 105.485 2.3145 105.486 2.31335C105.489 2.31105 105.494 2.30762 105.5 2.30359C105.511 2.29554 105.528 2.28445 105.546 2.27234C105.581 2.24893 105.629 2.21779 105.666 2.1991L130.553 -12.0822L122.224 -20.1095L122.223 -20.1115C122.072 -20.2635 121.97 -20.4336 121.903 -20.6349L121.901 -20.6398L114.6 -47.7023L114.574 -47.799L114.671 -47.8243L116.715 -48.3712L116.811 -48.3966L116.837 -48.3009Z" fill="#0500E2" stroke="#0500E2" stroke-width="0.2"/>
<path d="M235.609 23.3486H235.608L232.925 50.6602L232.915 50.7598L232.816 50.75L230.709 50.5469L230.61 50.5381L230.62 50.4385L233.287 23.2256L230.729 -4.50977C230.695 -4.85104 230.814 -5.19331 231.054 -5.43359C231.291 -5.67025 231.616 -5.80895 231.961 -5.77441L231.96 -5.77344L259.007 -3.94824H259.008C259.336 -3.93098 259.643 -3.75825 259.846 -3.50391C260.051 -3.24699 260.137 -2.90455 260.069 -2.57812L254.89 24.6904L252.317 51.9873L252.27 51.9824L252.239 52.0928L250.132 51.8906L250.034 51.8809L250.042 51.7812L252.617 24.4385V24.3447L252.618 24.335L257.557 -1.70996L233.169 -3.36523L235.608 23.127L235.609 23.1357V23.3486Z" fill="#0500E2" stroke="#0500E2" stroke-width="0.2"/>
<path d="M106.819 2.1812L136.805 22.0702L135.523 24.0066L105.537 4.1176L106.819 2.1812Z" fill="#0500E2" stroke="#0500E2" stroke-width="0.2"/>
<path d="M83.8678 21.014C84.2021 20.632 84.756 20.51 85.2213 20.7338L119.995 36.474L120.087 36.515L120.045 36.6068L119.171 38.5424L119.13 38.6342L119.039 38.5931L85.1178 23.2289L69.7223 43.9955L69.692 44.0355H69.5924L69.566 44.016L67.8658 42.7513L67.7857 42.6918L67.8453 42.6117L83.8043 21.0931L83.8678 21.014Z" fill="#0500E2" stroke="#0500E2" stroke-width="0.2"/>
<path d="M135.387 22.0582L136.918 23.8049L120.194 38.4852L118.664 36.7385L135.387 22.0582Z" fill="#0500E2" stroke="#0500E2" stroke-width="0.2"/>
<path d="M68.9824 42.1702L107.743 53.244L107.106 55.4782L68.3453 44.4044L68.9824 42.1702Z" fill="#0500E2" stroke="#0500E2" stroke-width="0.2"/>
<path d="M118.642 36.7705C118.976 36.3881 119.53 36.2665 119.994 36.4746H119.995L155.191 52.4023H155.19C155.651 52.6078 155.923 53.0865 155.872 53.5967V53.5977L152.737 81.3779L152.727 81.4668H152.611L150.505 81.2324L150.405 81.2207L150.416 81.1221L153.449 54.1787L119.893 38.9854L108.287 55.0195L108.229 55.1006L108.148 55.042L106.432 53.793L106.351 53.7334L106.409 53.6533L118.578 36.8506L118.642 36.7705Z" fill="#0500E2" stroke="#0500E2" stroke-width="0.2"/>
<path d="M53.7561 37.8127L69.0891 42.1995C69.4148 42.2852 69.6728 42.5088 69.8098 42.8157C69.9456 43.1045 69.9636 43.4618 69.843 43.7551L60.1712 67.5071L60.1106 67.4817L60.094 67.5686H59.93L59.9495 67.5188L58.0911 66.7649L57.9983 66.7278L58.0354 66.635L67.2132 44.0793L53.1243 40.05L53.0286 40.0227L53.055 39.927L53.6331 37.8811L53.6595 37.7844L53.7561 37.8127Z" fill="#0500E2" stroke="#0500E2" stroke-width="0.2"/>
<path d="M59.1689 65.8972L100.373 71.6569L100.052 73.9578L58.8479 68.1981L59.1689 65.8972Z" fill="#0500E2" stroke="#0500E2" stroke-width="0.2"/>
<path d="M106.241 53.8932C106.449 53.3646 106.988 53.077 107.531 53.1696L107.64 53.193L107.642 53.194L146.519 64.2965H146.518C147.064 64.4502 147.423 64.9796 147.355 65.5446L144.175 93.4811L144.26 93.651L144.077 93.6305L141.971 93.3971L141.871 93.3854L141.883 93.2858L144.962 66.2926L108.032 55.7369L101.186 73.2203L101.149 73.3141L101.056 73.277L99.0742 72.4967L98.9815 72.4596L99.0186 72.3668L106.241 53.8942V53.8932Z" fill="#0500E2" stroke="#0500E2" stroke-width="0.2"/>
<path d="M70.044 14.7721L71.9027 16.1644L54.2943 39.7159L52.4357 38.3236L70.044 14.7721Z" fill="#0500E2" stroke="#0500E2" stroke-width="0.2"/>
<path d="M18.1552 27.647L53.7558 37.812H53.7548C54.0407 37.8875 54.2725 38.0681 54.4276 38.3159L54.4892 38.4263L54.4901 38.4282C54.6263 38.7178 54.6436 39.0742 54.5243 39.3813L54.5233 39.3833L43.8368 65.2271L43.8114 65.2886H43.7089L43.6903 65.2817L41.7245 64.4692L41.6327 64.4312L41.6708 64.3384L51.8612 39.6909L17.5233 29.8843L17.4276 29.8569L17.454 29.7612L18.0321 27.7153L18.0585 27.6187L18.1552 27.647Z" fill="#0500E2" stroke="#0500E2" stroke-width="0.2"/>
<path d="M9.29678 46.2675L43.1044 63.6552L59.2655 65.9178L59.3642 65.9315L59.3505 66.0302L59.0546 68.1385L59.0399 68.2372L58.9413 68.2235L42.5937 65.9432V65.9442C42.4587 65.9273 42.3358 65.8925 42.2128 65.8221V65.8212L8.23819 48.3348L8.14932 48.2889L8.19522 48.2001L9.16202 46.3104L9.20792 46.2216L9.29678 46.2675Z" fill="#0500E2" stroke="#0500E2" stroke-width="0.2"/>
<path d="M37.8759 92.4902L40.1766 92.7987L36.4858 120.376L34.1851 120.068L37.8759 92.4902Z" fill="#0500E2" stroke="#0500E2" stroke-width="0.2"/>
<path d="M5.31765 73.8781L39.6316 91.7274L38.561 93.7893L4.24714 75.94L5.31765 73.8781Z" fill="#0500E2" stroke="#0500E2" stroke-width="0.2"/>
<path d="M41.7135 64.5428L43.8199 64.8241L43.9196 64.8378L43.9059 64.9364L40.3151 91.744L55.6149 93.9012L55.7135 93.9149L55.6998 94.0135L55.4039 96.1219L55.3893 96.2206L55.2906 96.2069L38.8473 93.8807V93.8798C38.2158 93.794 37.7717 93.2133 37.8571 92.5809L41.6012 64.6288L41.6149 64.5302L41.7135 64.5428Z" fill="#0500E2" stroke="#0500E2" stroke-width="0.2"/>
<path d="M155.833 10.135C156.277 9.8787 156.84 9.94793 157.215 10.3059H157.216L181.537 33.7141L181.538 33.7151C181.791 33.9682 181.931 34.3115 181.879 34.675L178.899 62.1702L178.888 62.2698L178.789 62.259L176.682 62.0247L176.584 62.0139L176.595 61.9143L179.506 34.9944L156.226 12.5784L138.271 23.0168L166.983 42.0569C167.341 42.2956 167.546 42.7224 167.495 43.1516L164.44 70.7444L164.443 70.7502L164.525 70.9153L164.343 70.8948L162.236 70.6604L162.138 70.6497L162.148 70.55L165.121 43.6262L135.437 23.9377C135.095 23.7148 134.908 23.3376 134.925 22.929C134.926 22.5177 135.15 22.1596 135.505 21.9563L155.832 10.136L155.833 10.135Z" fill="#0500E2" stroke="#0500E2" stroke-width="0.2"/>
<path d="M60.427 116.801L60.7239 118.908L60.7376 119.008L60.6389 119.022L44.2913 121.315L10.6682 139.272L2.83328 195.969L12.5501 216.313L25.5091 235.668L68.3479 231.055L82.4368 224.005L82.4378 224.004C82.861 223.801 83.3571 223.85 83.7171 224.175L108.374 245.749L129.866 258.581L129.951 258.633L129.9 258.719L128.808 260.546L128.621 260.857V260.535L107.079 247.682L107.072 247.678V247.677L107.071 247.676C107.07 247.675 107.069 247.675 107.068 247.674C107.065 247.672 107.06 247.668 107.055 247.664C107.044 247.656 107.028 247.646 107.012 247.635C106.979 247.611 106.941 247.584 106.919 247.569L106.908 247.563L106.908 247.562L82.763 226.431L69.1917 233.222C69.0669 233.293 68.9282 233.327 68.7962 233.344L68.7942 233.345L25.0501 238.06C24.6613 238.104 24.299 237.953 24.055 237.675L23.9573 237.548L10.5725 217.544L10.5657 217.533V217.532C10.5654 217.532 10.5643 217.531 10.5638 217.529C10.5625 217.527 10.5611 217.523 10.5589 217.519C10.5542 217.51 10.5476 217.497 10.5403 217.484C10.5248 217.454 10.507 217.422 10.4944 217.403L10.4905 217.398L10.4876 217.392L0.580353 196.653V196.652C0.478229 196.447 0.445033 196.224 0.47879 195.987L8.43484 138.366C8.48614 137.99 8.70876 137.683 9.02957 137.497L9.0325 137.495L43.3694 119.162C43.4932 119.092 43.6311 119.059 43.762 119.042L60.3147 116.716L60.4134 116.701L60.427 116.801Z" fill="#0500E2" stroke="#0500E2" stroke-width="0.2"/>
<path d="M56.1568 91.0577L98.3071 91.1166L98.3039 93.4399L56.1535 93.381L56.1568 91.0577Z" fill="#0500E2" stroke="#0500E2" stroke-width="0.2"/>
<path d="M59.2465 65.9019H59.2495L59.3657 65.9233C59.9325 66.0574 60.3339 66.587 60.2553 67.1821L60.2563 67.1831L57.4174 92.1704L61.644 117.641L61.6596 117.74L61.561 117.756L59.4711 118.1L59.3725 118.116L59.3559 118.017L56.1586 98.6968L53.4848 119.138L53.4809 119.172L53.4565 119.196L53.4057 119.247L53.3569 119.24L51.2504 118.959L51.1518 118.946L51.1645 118.847L57.9516 66.9097V66.9087C58.0371 66.2763 58.6167 65.8338 59.2465 65.9019Z" fill="#0500E2" stroke="#0500E2" stroke-width="0.2"/>
<path d="M101.722 110.96L102.018 113.068L102.033 113.167L101.933 113.181L62.1901 118.768L72.9313 142.46L72.9723 142.552L72.8815 142.593L70.9469 143.467L70.9206 143.41L70.8141 143.433L59.4411 118.324C59.2877 117.983 59.3053 117.606 59.4753 117.283C59.6467 116.957 59.9714 116.735 60.3297 116.684L101.609 110.875L101.709 110.861L101.722 110.96Z" fill="#0500E2" stroke="#0500E2" stroke-width="0.2"/>
<path d="M99.3039 91.9806L102.909 111.938L100.625 112.351L97.0197 92.3941L99.3039 91.9806Z" fill="#0500E2" stroke="#0500E2" stroke-width="0.2"/>
<path d="M110.574 130.17L111.238 132.396L72.1026 144.081L71.439 141.855L110.574 130.17Z" fill="#0500E2" stroke="#0500E2" stroke-width="0.2"/>
<path d="M142.815 105.198L143.111 107.306L143.125 107.405L143.026 107.419L103.471 112.975L111.838 130.826L111.881 130.916L111.79 130.959L109.974 131.816L110.002 131.874H109.829L109.81 131.79L109.754 131.817L100.705 112.531V112.53C100.554 112.194 100.551 111.817 100.738 111.489C100.91 111.164 101.235 110.942 101.593 110.891H101.594L142.701 105.113L142.8 105.099L142.815 105.198Z" fill="#0500E2" stroke="#0500E2" stroke-width="0.2"/>
<path d="M71.5322 141.844C71.9916 141.708 72.487 141.861 72.7783 142.238L91.0156 165.786L91.0771 165.866L90.998 165.927L89.3124 167.223L89.2685 167.165L89.1962 167.23L89.1005 167.134L89.1132 167.123L71.4296 144.303L56.5341 148.75L56.4384 148.779L56.4101 148.683L55.8017 146.654L55.7724 146.557L55.8691 146.529L71.5322 141.844Z" fill="#0500E2" stroke="#0500E2" stroke-width="0.2"/>
<path d="M124.634 148.273L125.656 150.359L90.5106 167.601L89.4889 165.514L124.634 148.273Z" fill="#0500E2" stroke="#0500E2" stroke-width="0.2"/>
<path d="M149.208 118.723L149.816 120.752L149.844 120.849L149.749 120.877L112.775 131.921L125.976 148.593L126.039 148.672L125.96 148.733L124.329 150.014V150.285L124.15 150.059L109.891 132.039H109.89C109.652 131.732 109.584 131.339 109.685 130.968L109.686 130.963H109.687C109.807 130.587 110.097 130.315 110.453 130.196L110.456 130.195L149.083 118.655L149.178 118.627L149.208 118.723Z" fill="#0500E2" stroke="#0500E2" stroke-width="0.2"/>
<path d="M44.9302 119.615L57.2807 147.251L55.1621 148.2L42.8116 120.564L44.9302 119.615Z" fill="#0500E2" stroke="#0500E2" stroke-width="0.2"/>
<path d="M55.8685 146.514C56.3277 146.377 56.8232 146.53 57.1146 146.923L76.9124 172.72L76.974 172.8L76.8949 172.86L75.2982 174.087L75.3665 174.177H74.8548L75.0179 174.051L55.766 148.974L19.7787 159.713L19.683 159.741L19.6546 159.645L19.0462 157.615L19.0169 157.519L19.1136 157.491L55.8685 146.514Z" fill="#0500E2" stroke="#0500E2" stroke-width="0.2"/>
<path d="M89.7472 165.507L90.6837 167.412L90.7276 167.502L90.6378 167.546L76.5343 174.464L76.5304 174.466C76.4194 174.514 76.283 174.565 76.1436 174.582H76.1417L32.881 179.158L32.7813 179.168L32.7716 179.068L32.5528 176.961L32.5431 176.861L32.6417 176.851L75.6974 172.292L89.6134 165.461L89.7032 165.417L89.7472 165.507Z" fill="#0500E2" stroke="#0500E2" stroke-width="0.2"/>
<path d="M10.6204 137.992L20.428 158.018L33.6858 177.345L33.7444 177.438C33.8713 177.657 33.9198 177.912 33.8743 178.155L33.8733 178.154L26.0647 236.972L26.2542 237.162L25.9622 237.123L23.8557 236.842L23.7571 236.829L23.7698 236.729L31.5334 178.286L18.4827 159.268L18.4817 159.267V159.266L18.4807 159.265L18.4709 159.25C18.4645 159.24 18.455 159.226 18.4456 159.21C18.4305 159.185 18.4106 159.146 18.3977 159.113L18.3967 159.114L8.53735 139.018L8.49341 138.928L8.58325 138.884L10.4866 137.946L10.5764 137.902L10.6204 137.992Z" fill="#0500E2" stroke="#0500E2" stroke-width="0.2"/>
<path d="M14.3268 187.778L16.6269 188.091L12.6786 217.131L10.3785 216.817L14.3268 187.778Z" fill="#0500E2" stroke="#0500E2" stroke-width="0.2"/>
<path d="M6.55507 167.029L16.5219 187.63L14.4331 188.642L4.46626 168.042L6.55507 167.029Z" fill="#0500E2" stroke="#0500E2" stroke-width="0.2"/>
<path d="M18.4217 158.362L20.5281 158.643L20.6277 158.657L20.614 158.756L16.6717 187.747L29.3777 206.498L72.1892 201.929L72.2888 201.919L72.2996 202.019L72.5174 204.126L72.5281 204.226L72.4295 204.237L28.9344 208.874L28.9236 208.875H28.8562L28.8406 208.891H28.7986C28.4253 208.891 28.05 208.705 27.8426 208.378L14.5037 188.671L14.5027 188.669C14.3502 188.432 14.281 188.143 14.3152 187.869L14.3162 187.868L18.3094 158.448L18.323 158.349L18.4217 158.362Z" fill="#0500E2" stroke="#0500E2" stroke-width="0.2"/>
<path d="M71.1671 202.847L73.4704 203.136L69.8079 232.402L67.5046 232.113L71.1671 202.847Z" fill="#0500E2" stroke="#0500E2" stroke-width="0.2"/>
<path d="M89.6675 165.41C90.0594 165.257 90.5211 165.325 90.8472 165.616H90.8462L115.283 186.532L145.09 203.942L145.196 204.012C145.397 204.165 145.545 204.384 145.621 204.621L145.653 204.741L145.654 204.746V204.747C145.704 205.086 145.619 205.427 145.398 205.699L145.397 205.701L136.475 216.126L131.675 248.527L131.676 248.528L124.867 308.726L152.337 318.769L181.449 326.373L205.976 299.362L208.405 286.477L208.429 286.369C208.574 285.845 209.075 285.487 209.635 285.535H209.634L247.989 288.439L285.845 285.676C286.342 285.642 286.835 285.949 287.022 286.443V286.445L291.756 299.412L321.246 326.671L349.061 319.161L374.899 309.175L378.933 248.966L368.198 216.667L357.281 206.146L357.208 206.075L357.279 206.004L358.76 204.474L358.83 204.402L358.902 204.471L370.025 215.184L370.026 215.185C370.159 215.318 370.262 215.471 370.315 215.661H370.316L381.219 248.435C381.272 248.576 381.289 248.732 381.272 248.887L377.169 310.065V310.066C377.135 310.51 376.845 310.901 376.437 311.072L376.435 311.073L349.851 321.348C349.849 321.349 349.847 321.35 349.845 321.351C349.837 321.354 349.825 321.36 349.812 321.365C349.792 321.372 349.761 321.379 349.728 321.382L321.25 329.078L321.25 329.079C321.139 329.116 321.029 329.115 320.938 329.115H320.915L320.893 329.105L320.88 329.098C320.636 329.093 320.404 329.016 320.207 328.865L320.122 328.792L289.967 300.92L289.87 300.823C289.779 300.719 289.709 300.597 289.659 300.457L285.128 288.051L248.059 290.763L248.051 290.764V290.763H247.888L210.489 287.927L208.197 300.114L208.196 300.113C208.161 300.318 208.059 300.522 207.906 300.677L207.907 300.678L182.696 328.441L182.697 328.442C182.405 328.768 181.96 328.886 181.538 328.784H181.536L151.692 320.977L151.689 320.976C151.687 320.975 151.684 320.975 151.681 320.974C151.674 320.972 151.664 320.969 151.653 320.966C151.636 320.961 151.611 320.951 151.589 320.942V320.943L123.211 310.573C122.7 310.386 122.392 309.89 122.459 309.344L129.371 248.209L129.372 248.205L134.223 215.428L134.258 215.268C134.303 215.114 134.377 214.977 134.478 214.85L134.48 214.847L142.717 205.225L114.023 188.467H114.021C114.02 188.466 114.019 188.465 114.017 188.464C114.014 188.462 114.009 188.46 114.003 188.456C113.992 188.449 113.975 188.439 113.958 188.428C113.926 188.408 113.883 188.377 113.851 188.347L90.981 168.777L84.0776 225.153L84.0659 225.252L83.9663 225.24L81.8599 224.974L81.7612 224.961L81.7729 224.863L88.9341 166.351L88.9644 166.194C89.0598 165.836 89.3248 165.545 89.6675 165.41Z" fill="#0500E2" stroke="#0500E2" stroke-width="0.2"/>
<path d="M74.9589 173.181L77.0643 173.446L77.1639 173.459L77.1512 173.559L73.7108 201.075L85.9628 195.006L85.9637 195.005C86.3365 194.826 86.7612 194.857 87.1005 195.061L87.2401 195.158L87.2421 195.16L111.876 216.476L111.952 216.541L111.887 216.616L110.522 218.196V218.395L110.356 218.251L86.3192 197.447L72.8221 204.133C72.4923 204.298 72.0982 204.292 71.7655 204.116L71.6278 204.031C71.2849 203.791 71.0984 203.364 71.1493 202.939V202.938L74.8466 173.268L74.8593 173.169L74.9589 173.181Z" fill="#0500E2" stroke="#0500E2" stroke-width="0.2"/>
<path d="M54.2978 94.8089L56.6042 95.0719L53.8619 119.163L51.5556 118.9L54.2978 94.8089Z" fill="#0500E2" stroke="#0500E2" stroke-width="0.2"/>
<path d="M140.257 93.6638L140.099 93.5056L98.1905 93.4441C97.866 93.444 97.5591 93.3073 97.338 93.0691C97.1147 92.8285 97.012 92.5025 97.046 92.1785L98.9649 72.7058V72.7048C98.999 72.3979 99.1524 72.1083 99.4073 71.9041L99.4112 71.9011C99.6651 71.7149 99.9708 71.63 100.292 71.6638H100.295L141.482 77.4265L141.58 77.4402L141.566 77.5398L141.27 79.6472L141.256 79.7468L141.157 79.7322L101.166 74.1404L99.4864 91.1365L140.157 91.199H140.257V93.6638Z" fill="#0500E2" stroke="#0500E2" stroke-width="0.2"/>
<path d="M143.513 164.428L144.793 166.13L144.852 166.211L144.772 166.271L115.726 188.122L112.284 217.515L112.274 217.604H112.157V217.602L110.052 217.353L109.952 217.341L109.964 217.243L113.474 187.354C113.509 187.028 113.681 186.754 113.935 186.567L143.373 164.409L143.453 164.349L143.513 164.428Z" fill="#0500E2" stroke="#0500E2" stroke-width="0.2"/>
<path d="M166.338 177.843L167.945 179.233L168.02 179.297L167.955 179.374L146.455 204.468L179.007 217.02L179.101 217.056L179.065 217.15L178.343 219.02L178.403 219.044L178.293 219.152L178.278 219.168L178.206 219.122L178.187 219.174L144.1 206.043C143.741 205.906 143.485 205.614 143.383 205.241V205.238C143.298 204.88 143.383 204.489 143.621 204.199L143.622 204.197L166.197 177.853L166.262 177.777L166.338 177.843Z" fill="#0500E2" stroke="#0500E2" stroke-width="0.2"/>
<path d="M144.556 164.297L167.754 177.665L166.595 179.679L143.397 166.311L144.556 164.297Z" fill="#0500E2" stroke="#0500E2" stroke-width="0.2"/>
<path d="M192.261 187.965L194.34 188.998L179.608 218.704L177.529 217.671L192.261 187.965Z" fill="#0500E2" stroke="#0500E2" stroke-width="0.2"/>
<path d="M188.522 151.953L190.129 153.342L190.204 153.407L190.14 153.483L169.046 178.11L193.656 187.476L193.749 187.511L193.714 187.604L192.965 189.587L192.93 189.681L192.836 189.646L166.689 179.683C166.331 179.546 166.074 179.255 165.973 178.882V178.878C165.888 178.521 165.972 178.129 166.211 177.839L166.212 177.838L188.381 151.962L188.446 151.886L188.522 151.953Z" fill="#0500E2" stroke="#0500E2" stroke-width="0.2"/>
<path d="M177.62 217.497C177.876 217.076 178.373 216.857 178.869 216.969L215.717 225.151L215.815 225.174L215.793 225.271L215.326 227.349L215.303 227.445L215.207 227.424L179.245 219.445L173.71 230.618L173.596 230.591L173.577 230.633L171.673 229.696L171.584 229.651L171.627 229.562L177.572 217.584L177.62 217.497Z" fill="#0500E2" stroke="#0500E2" stroke-width="0.2"/>
<path d="M220.317 194.413L222.597 194.848L216.569 226.569L214.289 226.135L220.317 194.413Z" fill="#0500E2" stroke="#0500E2" stroke-width="0.2"/>
<path d="M206.661 159.059L208.564 160.012L208.653 160.057L208.609 160.146L194.922 187.748L221.676 193.608L221.774 193.63L221.753 193.728L221.3 195.804L221.228 195.788L221.218 195.883H221.079L221.084 195.855L192.993 189.696V189.697C192.65 189.629 192.342 189.389 192.188 189.064C192.035 188.741 192.035 188.365 192.188 188.041L192.189 188.04L206.526 159.104L206.571 159.014L206.661 159.059Z" fill="#0500E2" stroke="#0500E2" stroke-width="0.2"/>
<path d="M135.703 214.481L173.18 228.994L172.343 231.161L134.865 216.648L135.703 214.481Z" fill="#0500E2" stroke="#0500E2" stroke-width="0.2"/>
<path d="M171.691 229.474C171.948 229.053 172.444 228.834 172.94 228.946L213.3 237.941L213.397 237.963L213.375 238.06L212.907 240.138L212.886 240.235L212.788 240.213L173.316 231.407L159.67 258.931L159.625 259.019L159.536 258.975L157.633 258.038L157.543 257.994L157.587 257.904L171.643 229.561L171.691 229.474Z" fill="#0500E2" stroke="#0500E2" stroke-width="0.2"/>
<path d="M214.42 225.963L216.509 226.354L216.608 226.372L216.59 226.471L214.156 239.271L214.157 239.272C214.122 239.496 214.018 239.685 213.865 239.839L213.866 239.84L189.057 266.664L189.181 266.779H188.68L188.775 266.675L187.298 265.315L187.223 265.247L187.292 265.173L211.936 238.524L214.302 226.043L214.321 225.946L214.42 225.963Z" fill="#0500E2" stroke="#0500E2" stroke-width="0.2"/>
<path d="M130.924 247.267L158.959 257.292H158.958L188.435 264.832H188.434C189 264.969 189.356 265.501 189.305 266.078V266.079L183.003 327.792L182.992 327.891L182.892 327.882L180.787 327.663L180.687 327.652L180.697 327.553L186.898 266.831L158.339 259.529H158.338L158.336 259.528C158.334 259.528 158.33 259.527 158.327 259.526C158.32 259.524 158.31 259.522 158.3 259.518C158.283 259.513 158.258 259.504 158.236 259.494V259.495L130.139 249.454L130.045 249.421L130.079 249.326L130.796 247.327L130.83 247.233L130.924 247.267Z" fill="#0500E2" stroke="#0500E2" stroke-width="0.2"/>
<path d="M110.598 216.337C110.91 216.188 111.262 216.182 111.572 216.308L111.702 216.371L111.705 216.372L133.78 229.411L133.866 229.462L133.815 229.548L132.739 231.375L132.688 231.462L132.602 231.411L112.062 219.277L108.837 246.784V246.912L108.726 246.899L106.619 246.649L106.519 246.637L106.531 246.538L109.964 217.243V217.242C110.015 216.851 110.253 216.509 110.596 216.338L110.598 216.337Z" fill="#0500E2" stroke="#0500E2" stroke-width="0.2"/>
<path d="M154.153 289.242L156.461 289.492L153.153 320.119L150.845 319.87L154.153 289.242Z" fill="#0500E2" stroke="#0500E2" stroke-width="0.2"/>
<path d="M127.34 278.087L155.773 288.367L154.984 290.552L126.551 280.272L127.34 278.087Z" fill="#0500E2" stroke="#0500E2" stroke-width="0.2"/>
<path d="M157.563 258.193L159.669 258.427L159.768 258.438L159.758 258.537L156.521 288.573L184.554 295.829L209.132 268.999L209.2 268.926L209.273 268.993L210.834 270.43L210.907 270.497L210.84 270.571L185.785 297.914H185.784C185.57 298.145 185.276 298.28 184.963 298.288V298.29H184.931V298.289C184.85 298.289 184.768 298.286 184.672 298.255L154.985 290.572C154.419 290.435 154.063 289.888 154.114 289.327V289.325L157.452 258.281L157.463 258.182L157.563 258.193Z" fill="#0500E2" stroke="#0500E2" stroke-width="0.2"/>
<path d="M208.866 269.559L211.176 269.786L208.206 300.104L205.896 299.877L208.866 269.559Z" fill="#0500E2" stroke="#0500E2" stroke-width="0.2"/>
<path d="M215.547 225.119L215.547 225.12L253.48 227.929L290.915 225.243L291.014 225.236L291.022 225.336L291.178 227.46L291.185 227.56L291.086 227.566L253.565 230.253H253.395L216.503 227.526L210.694 286.832L210.591 286.826L210.585 286.906L208.478 286.703L208.379 286.693L208.388 286.594L214.301 226.161V226.16C214.37 225.529 214.931 225.068 215.547 225.119Z" fill="#0500E2" stroke="#0500E2" stroke-width="0.2"/>
<path d="M211.977 238.86L214.082 239.064L214.182 239.073L214.172 239.173L212.56 255.616L250.774 258.474L250.872 258.481L250.866 258.58L250.709 260.704L250.703 260.804L250.602 260.797L213.405 258.008L211.145 269.991C211.056 270.48 210.674 270.825 210.221 270.91L210.258 270.947H209.847V270.946C209.233 270.861 208.788 270.297 208.857 269.681L211.868 238.95L211.877 238.851L211.977 238.86Z" fill="#0500E2" stroke="#0500E2" stroke-width="0.2"/>
<path d="M159.217 131.386L160.154 133.292L160.198 133.382L160.108 133.426L127.155 149.597L144.091 163.845L172.343 142.578L172.423 142.518L172.484 142.598L173.763 144.301L173.823 144.38L173.743 144.44L144.757 166.256C144.553 166.409 144.298 166.494 144.057 166.494C143.819 166.494 143.593 166.428 143.391 166.286L143.306 166.22L124.305 150.23C123.999 149.975 123.845 149.598 123.896 149.204C123.947 148.812 124.185 148.47 124.544 148.299L159.083 131.341L159.173 131.297L159.217 131.386Z" fill="#0500E2" stroke="#0500E2" stroke-width="0.2"/>
<path d="M254.626 229.209L251.86 259.652L251.92 259.658L251.839 259.82L251.759 259.798L251.755 259.844L249.634 259.657L249.534 259.648L249.544 259.548L252.303 229.088L249.34 196.994L249.332 196.895L249.431 196.886L251.538 196.698L251.636 196.689L251.646 196.789L254.626 229.004L254.627 229.013H254.626V229.209Z" fill="#0500E2" stroke="#0500E2" stroke-width="0.2"/>
<path d="M280.235 194.33L292.117 226.073L289.943 226.888L278.061 195.145L280.235 194.33Z" fill="#0500E2" stroke="#0500E2" stroke-width="0.2"/>
<path d="M279.198 193.663L279.363 195.98L250.484 198.037L250.319 195.72L279.198 193.663Z" fill="#0500E2" stroke="#0500E2" stroke-width="0.2"/>
<path d="M326.185 217.198L326.7 219.463L291.138 227.564L290.623 225.298L326.185 217.198Z" fill="#0500E2" stroke="#0500E2" stroke-width="0.2"/>
<path d="M307.16 188.02L327.376 217.784L325.456 219.09L305.24 189.327L307.16 188.02Z" fill="#0500E2" stroke="#0500E2" stroke-width="0.2"/>
<path d="M268.692 163.548L279.893 193.48L305.987 187.612L306.084 187.59L306.106 187.688L306.573 189.764L306.596 189.862L306.498 189.884L279.415 195.974L279.413 195.975C279.337 195.99 279.249 196.008 279.159 196.008H278.918L278.956 195.969C278.567 195.896 278.228 195.631 278.083 195.241L266.523 164.368L266.488 164.275L266.581 164.24L268.563 163.49L268.656 163.455L268.692 163.548Z" fill="#0500E2" stroke="#0500E2" stroke-width="0.2"/>
<path d="M357.739 204.271L358.551 206.239L358.589 206.331L358.496 206.37L328.125 218.862L335.483 229.691L335.539 229.773L335.457 229.829L333.71 231.032L333.64 231.078L333.559 230.997L333.555 230.99L325.395 218.982V218.981C325.191 218.689 325.14 218.33 325.242 217.991C325.343 217.653 325.581 217.377 325.908 217.255L357.608 204.216L357.701 204.178L357.739 204.271Z" fill="#0500E2" stroke="#0500E2" stroke-width="0.2"/>
<path d="M404.753 166.167L406.266 167.666L406.337 167.736L406.267 167.807L385.596 188.732V188.733H385.595L385.577 188.752C385.565 188.763 385.547 188.779 385.529 188.796C385.497 188.824 385.449 188.862 385.407 188.885L385.408 188.886L358.7 206.266L358.699 206.267C358.512 206.386 358.291 206.455 358.068 206.455H358.052C357.764 206.455 357.473 206.353 357.249 206.13L329.792 179.693L329.72 179.624L329.789 179.552L331.256 178.021L331.326 177.949L331.398 178.018L358.189 203.822L384.027 187.006L404.612 166.168L404.682 166.096L404.753 166.167Z" fill="#0500E2" stroke="#0500E2" stroke-width="0.2"/>
<path d="M287.51 159.076L306.684 187.289L330.152 177.764L330.245 177.726L330.282 177.818L331.078 179.786L331.115 179.879L331.022 179.916L306.685 189.801L306.683 189.802C306.614 189.828 306.538 189.849 306.461 189.864L306.499 189.902H306.258C305.928 189.902 305.612 189.758 305.39 189.505L305.302 189.39L285.597 160.392L285.542 160.31L285.624 160.253L287.371 159.051L287.454 158.993L287.51 159.076Z" fill="#0500E2" stroke="#0500E2" stroke-width="0.2"/>
<path d="M290.831 225.244C291.36 225.175 291.889 225.482 292.078 225.995L296.78 238.542L326.435 265.354L326.508 265.421L326.442 265.495L325.022 267.073L324.955 267.147L324.88 267.079L295.005 240.08V240.079C294.868 239.958 294.765 239.804 294.698 239.62L291.717 231.651L287.076 286.94L287.067 287.038L286.967 287.031L284.846 286.859L284.745 286.851L284.754 286.751L289.825 226.303V226.302C289.876 225.756 290.286 225.329 290.829 225.245L290.831 225.244Z" fill="#0500E2" stroke="#0500E2" stroke-width="0.2"/>
<path d="M334.39 229.271L334.858 231.349L334.88 231.446L334.783 231.469L296.881 240.149L294.408 270.044L294.306 270.039L294.299 270.119L292.178 269.947L292.078 269.939L292.087 269.84L294.63 239.108C294.664 238.593 295.042 238.185 295.533 238.066H295.534L334.27 229.196L334.368 229.174L334.39 229.271Z" fill="#0500E2" stroke="#0500E2" stroke-width="0.2"/>
<path d="M368.862 214.999L369.673 216.966L369.711 217.058L369.62 217.096L336.268 230.885L354.765 258.111L354.821 258.193L354.739 258.25L352.992 259.452L352.835 259.56V259.384L333.554 231.005V231.005C333.35 230.713 333.299 230.354 333.401 230.014C333.49 229.718 333.684 229.469 333.952 229.331L334.071 229.278L368.732 214.944L368.824 214.906L368.862 214.999Z" fill="#0500E2" stroke="#0500E2" stroke-width="0.2"/>
<path d="M379.799 247.779L380.548 249.762L380.583 249.855L380.491 249.891L354.228 259.849V259.85H354.224L354.223 259.852C354.221 259.853 354.217 259.854 354.213 259.856C354.205 259.86 354.193 259.865 354.18 259.87C354.161 259.877 354.131 259.884 354.099 259.887L326.742 267.13L322.052 328.04L321.971 328.033L321.968 328.131H321.844V328.123L319.838 327.975L319.739 327.968L319.746 327.868L324.489 266.124C324.523 265.628 324.865 265.219 325.341 265.083L325.343 265.082L353.449 257.65L379.67 247.72L379.764 247.685L379.799 247.779Z" fill="#0500E2" stroke="#0500E2" stroke-width="0.2"/>
<path d="M288.424 255.739C288.846 255.745 289.215 255.97 289.419 256.321L289.502 256.492V256.493L294.324 269.517L294.358 269.611L294.264 269.645L292.267 270.379L292.173 270.414L292.139 270.32L287.625 258.116L251.747 260.712L249.123 289.642L249.299 289.82L249.026 289.795L246.904 289.608L246.804 289.599L246.813 289.5L249.528 259.533C249.579 258.967 250.04 258.525 250.601 258.474H250.603L288.326 255.741L288.424 255.739Z" fill="#0500E2" stroke="#0500E2" stroke-width="0.2"/>
<path d="M292.822 268.865C293.23 268.711 293.706 268.796 294.031 269.086L294.032 269.087L323.571 296.096L351.287 288.693L351.383 288.667L351.41 288.764L351.956 290.81L351.981 290.907L351.884 290.932L323.554 298.505C323.177 298.608 322.766 298.505 322.476 298.232V298.231L294.203 272.385L291.912 300.151V300.266L291.803 300.257L289.682 300.086L289.581 300.078L289.59 299.978L292.086 269.855C292.121 269.409 292.412 269.035 292.819 268.866L292.822 268.865Z" fill="#0500E2" stroke="#0500E2" stroke-width="0.2"/>
<path d="M350.469 289.66L352.784 289.826L350.584 320.476L348.269 320.309L350.469 289.66Z" fill="#0500E2" stroke="#0500E2" stroke-width="0.2"/>
<path d="M352.771 258.583L354.893 258.739L354.993 258.746L354.985 258.846L352.89 288.077L377.611 278.608L377.705 278.573L377.74 278.666L378.504 280.649L378.54 280.742L378.447 280.778L352.019 290.897C351.88 290.95 351.742 290.967 351.609 290.967H351.593C351.353 290.967 351.1 290.881 350.899 290.747L350.895 290.744C350.571 290.505 350.399 290.128 350.433 289.733L352.664 258.676L352.671 258.575L352.771 258.583Z" fill="#0500E2" stroke="#0500E2" stroke-width="0.2"/>
<path d="M226.276 163.61L228.366 164L228.465 164.019L228.447 164.117L222.835 193.676L249.22 195.612L246.439 165.466L246.43 165.366L246.53 165.358L248.636 165.17L248.735 165.161L248.744 165.261L251.646 196.773L251.652 196.901C251.648 197.198 251.531 197.486 251.321 197.697C251.099 197.919 250.808 198.037 250.486 198.037H250.244L250.27 198.011L221.354 195.898V195.899C221.026 195.881 220.719 195.71 220.516 195.455C220.31 195.198 220.225 194.855 220.293 194.529L226.159 163.69L226.178 163.592L226.276 163.61Z" fill="#0500E2" stroke="#0500E2" stroke-width="0.2"/>
<path d="M351.836 164.687L385.408 186.955H385.407C385.75 187.177 385.955 187.587 385.921 187.999L383.924 217.901L383.917 218.001L383.818 217.995L381.696 217.854L381.596 217.847L381.603 217.748L383.565 188.509L350.555 166.618L350.472 166.563L350.527 166.479L351.697 164.714L351.752 164.631L351.836 164.687Z" fill="#0500E2" stroke="#0500E2" stroke-width="0.2"/>
<path d="M367.665 148.616L406.027 165.985L405.07 168.102L366.709 150.733L367.665 148.616Z" fill="#0500E2" stroke="#0500E2" stroke-width="0.2"/>
<path d="M366.528 148.863L368.161 150.513L351.949 166.589L350.316 164.938L366.528 148.863Z" fill="#0500E2" stroke="#0500E2" stroke-width="0.2"/>
<path d="M418.431 142.825L420.428 144.01L406.404 167.69L404.407 166.504L418.431 142.825Z" fill="#0500E2" stroke="#0500E2" stroke-width="0.2"/>
<path d="M378.434 130.58L419.775 142.391L419.138 144.625L377.797 132.814L378.434 130.58Z" fill="#0500E2" stroke="#0500E2" stroke-width="0.2"/>
<path d="M377.356 131.08L379.165 132.189L379.25 132.24L379.199 132.326L368.247 150.316C368.026 150.673 367.65 150.878 367.256 150.878H367.157V150.857C367.031 150.845 366.9 150.815 366.779 150.761V150.76L329.056 133.677L328.965 133.636L329.006 133.544L329.879 131.609L329.92 131.517L330.012 131.558L366.795 148.214L377.218 131.114L377.27 131.028L377.356 131.08Z" fill="#0500E2" stroke="#0500E2" stroke-width="0.2"/>
<path d="M383.885 111.297L426.303 117.231H426.305C426.627 117.281 426.935 117.468 427.108 117.745H427.107C427.294 118.02 427.345 118.361 427.26 118.683H427.259L420.796 142.666L436.255 147.091L436.35 147.118L436.324 147.214L435.747 149.26L435.726 149.332H435.621L435.607 149.328L419.054 144.597V144.596C418.44 144.424 418.082 143.793 418.253 143.178L424.665 119.349L383.561 113.603L383.462 113.589L383.476 113.489L383.772 111.382L383.786 111.282L383.885 111.297Z" fill="#0500E2" stroke="#0500E2" stroke-width="0.2"/>
<path d="M382.682 112.033L384.725 112.611L384.822 112.638L384.795 112.735L379.303 132.005V132.006C379.217 132.296 379.013 132.55 378.759 132.703C378.651 132.768 378.53 132.81 378.409 132.834L378.449 132.874H378.208C378.123 132.874 377.998 132.873 377.885 132.822V132.823L337.073 121.158L336.977 121.131L337.004 121.035L337.582 118.989L337.608 118.892L337.705 118.92L377.391 130.26L382.558 112.102L382.586 112.007L382.682 112.033Z" fill="#0500E2" stroke="#0500E2" stroke-width="0.2"/>
<path d="M404.848 165.997C405.134 165.817 405.483 165.782 405.794 165.879L405.925 165.928L421.154 172.824L465.146 177.522L465.246 177.533L465.235 177.632L465.017 179.74L465.006 179.84L464.907 179.829L420.725 175.113V175.112C420.595 175.109 420.47 175.055 420.369 175.012H420.367L406.489 168.729L402.881 225.569L403.054 225.741L402.789 225.724L400.666 225.584L400.567 225.577L400.574 225.477L404.287 166.919C404.304 166.539 404.528 166.199 404.848 165.997Z" fill="#0500E2" stroke="#0500E2" stroke-width="0.2"/>
<path d="M381.575 217.623L383.892 217.777L381.932 247.3L379.616 247.146L381.575 217.623Z" fill="#0500E2" stroke="#0500E2" stroke-width="0.2"/>
<path d="M402.74 195.759C403.081 195.418 403.609 195.314 404.054 195.52L419.545 202.609L419.636 202.651L419.595 202.742L418.705 204.679L418.663 204.77L418.572 204.728L403.831 197.979L383.6 218.651L383.594 218.657C383.59 218.661 383.585 218.665 383.579 218.671C383.567 218.682 383.551 218.698 383.532 218.715C383.5 218.743 383.452 218.781 383.41 218.805L383.411 218.806L372.771 225.802L372.747 225.817H372.647L372.618 225.772L371.447 223.992L371.393 223.909L371.477 223.854L382.013 216.927L402.739 195.76L402.74 195.759Z" fill="#0500E2" stroke="#0500E2" stroke-width="0.2"/>
<path d="M318.809 142.763L351.867 164.687L351.868 164.688C352.188 164.907 352.396 165.264 352.38 165.66L352.37 165.807C352.326 166.143 352.134 166.44 351.853 166.633L351.85 166.635L331.241 179.846C331.055 179.965 330.833 180.033 330.611 180.033H330.569L330.55 180.015C330.277 180.005 330.004 179.904 329.792 179.693L302.834 153.739L302.762 153.67L302.831 153.599L304.298 152.068L304.367 151.995L304.44 152.066L330.747 177.385L349.086 165.627L317.529 144.693L317.446 144.639L317.5 144.555L318.67 142.79L318.726 142.707L318.809 142.763Z" fill="#0500E2" stroke="#0500E2" stroke-width="0.2"/>
<path d="M383.621 91.5265C384.253 91.5265 384.782 92.0383 384.783 92.6876L384.861 112.457L384.854 112.583C384.824 112.875 384.693 113.149 384.464 113.332L384.463 113.331C384.257 113.518 383.986 113.619 383.7 113.619H383.6V113.604H383.545V113.603L341.637 107.746L341.412 110.685L341.405 110.784L341.305 110.776L339.183 110.621L339.083 110.613L339.091 110.514L340.464 92.5402V92.5392C340.515 91.943 341.009 91.464 341.624 91.464L383.621 91.5265ZM341.838 105.424L382.553 111.109L382.492 93.8331L342.731 93.7716L341.838 105.424Z" fill="#0500E2" stroke="#0500E2" stroke-width="0.2"/>
<path d="M336.839 106.61L339.503 116.674L337.259 117.269L334.595 107.205L336.839 106.61Z" fill="#0500E2" stroke="#0500E2" stroke-width="0.2"/>
<path d="M336.806 78.6549L339.12 78.8344L336.924 107.213L334.609 107.034L336.806 78.6549Z" fill="#0500E2" stroke="#0500E2" stroke-width="0.2"/>
<path d="M150.673 80.4913L152.573 81.8265L143.935 94.1439L142.034 92.8087L150.673 80.4913Z" fill="#0500E2" stroke="#0500E2" stroke-width="0.2"/>
<path d="M162.665 69.822L164.085 71.4001L164.152 71.4744L164.077 71.5408L152.67 81.8054L149.649 108.569V108.697L149.537 108.684L147.432 108.45L147.332 108.439L147.343 108.34L150.416 81.1218V81.1208C150.446 80.8672 150.554 80.6393 150.718 80.4607L150.792 80.3865L162.524 69.8152L162.598 69.7478L162.665 69.822Z" fill="#0500E2" stroke="#0500E2" stroke-width="0.2"/>
<path d="M177.31 61.1085L178.403 62.9357L178.453 63.0216L178.367 63.0734L164.401 71.3859L161.473 97.8683L161.463 97.9572H161.347V97.9562L159.241 97.7218L159.142 97.7111L159.153 97.6115L162.148 70.5499C162.183 70.188 162.406 69.865 162.71 69.6788H162.711L177.173 61.0743L177.259 61.0236L177.31 61.1085Z" fill="#0500E2" stroke="#0500E2" stroke-width="0.2"/>
<path d="M194.12 54.6759L194.868 56.6593L194.903 56.7521L194.811 56.7872L178.814 62.8868L175.986 89.0597L176.17 89.2433L175.887 89.212L173.781 88.9777L173.682 88.9669L173.692 88.8673L176.61 61.9308V61.9288C176.662 61.5025 176.95 61.1279 177.344 60.9738L177.345 60.9728L193.99 54.6173L194.084 54.5822L194.12 54.6759Z" fill="#0500E2" stroke="#0500E2" stroke-width="0.2"/>
<path d="M212.533 50.7864L212.97 52.8635L212.991 52.9612L212.893 52.9817L195.491 56.6985L192.752 82.6887L192.651 82.6829L192.643 82.762L190.537 82.5432L190.437 82.5334L190.448 82.4338L193.272 55.6057C193.324 55.1095 193.699 54.7005 194.177 54.5979V54.5969L212.415 50.7092L212.512 50.6877L212.533 50.7864Z" fill="#0500E2" stroke="#0500E2" stroke-width="0.2"/>
<path d="M231.833 49.4729L231.974 51.5969L231.98 51.6965L231.88 51.7034L213.711 52.9309L211.084 78.7375L211.074 78.8381L210.974 78.8274L208.868 78.6086L208.769 78.5989L208.779 78.4993L211.494 51.718C211.545 51.1542 212.006 50.7106 212.569 50.676L231.727 49.3801L231.827 49.3733L231.833 49.4729Z" fill="#0500E2" stroke="#0500E2" stroke-width="0.2"/>
<path d="M231.879 49.3802L231.88 49.3793L251.272 50.723L251.372 50.7299L251.365 50.8295L251.225 52.9525L251.218 53.0531L251.118 53.0463L232.853 51.7865L230.335 77.4261L230.233 77.4203L230.226 77.4994L228.12 77.2972L228.02 77.2875L228.03 77.1879L230.651 50.4222V50.4213C230.719 49.7934 231.246 49.33 231.879 49.3802Z" fill="#0500E2" stroke="#0500E2" stroke-width="0.2"/>
<path d="M250.505 50.9603C250.777 50.7561 251.103 50.688 251.426 50.7562L270.366 54.6908L270.464 54.7113L270.443 54.8099L270.007 56.8861L269.986 56.9838L269.888 56.9642L252.213 53.2855L249.809 78.7211L249.989 78.9008L249.712 78.8744L247.605 78.6713L247.506 78.6615L247.515 78.5619L250.043 51.7816V51.7806C250.077 51.4575 250.247 51.1497 250.505 50.9603Z" fill="#0500E2" stroke="#0500E2" stroke-width="0.2"/>
<path d="M271.452 28.21L273.764 28.4193L271.269 56.0207L268.957 55.8113L271.452 28.21Z" fill="#0500E2" stroke="#0500E2" stroke-width="0.2"/>
<path d="M269.513 54.8442C269.779 54.6813 270.099 54.6211 270.404 54.689L270.534 54.7261L288.351 61.1284L288.444 61.1626L288.411 61.2563L287.693 63.2554L287.659 63.3491L287.566 63.3149L271.166 57.4243L268.869 82.7651L268.859 82.8647L268.761 82.856L266.639 82.6685L266.539 82.6597L266.548 82.5601L268.982 55.7163L269.001 55.5845C269.064 55.2805 269.242 55.0102 269.513 54.8442Z" fill="#0500E2" stroke="#0500E2" stroke-width="0.2"/>
<path d="M289.162 34.506L291.474 34.7077L289.063 62.4106L286.75 62.2089L289.162 34.506Z" fill="#0500E2" stroke="#0500E2" stroke-width="0.2"/>
<path d="M287.379 61.197C287.722 61.0084 288.132 61.0096 288.488 61.196L288.489 61.197L304.527 69.8484L304.615 69.8953L304.567 69.9832L303.553 71.8572L303.505 71.9451L303.417 71.8982L288.933 64.0828L286.747 89.2615L286.667 89.2537L286.664 89.3523H286.539V89.3416L284.533 89.1648L284.433 89.156L284.442 89.0564L286.782 62.1199C286.816 61.7278 287.038 61.385 287.379 61.197Z" fill="#0500E2" stroke="#0500E2" stroke-width="0.2"/>
<path d="M305.172 43.0528L307.485 43.2473L305.15 71.0821L302.837 70.8877L305.172 43.0528Z" fill="#0500E2" stroke="#0500E2" stroke-width="0.2"/>
<path d="M303.504 69.8127C303.896 69.6425 304.341 69.6935 304.683 69.967H304.682L318.332 80.5696L318.41 80.6301L318.35 80.7092L317.055 82.3958L316.993 82.4758L316.914 82.4143L304.953 73.1252L302.863 98.053L302.762 98.0481L302.755 98.1282L300.634 97.9563L300.533 97.9485L300.542 97.8489L302.82 70.7864C302.854 70.3593 303.127 69.9846 303.502 69.8137L303.504 69.8127Z" fill="#0500E2" stroke="#0500E2" stroke-width="0.2"/>
<path d="M318.733 53.4877L321.047 53.676L318.772 81.6726L316.458 81.4843L318.733 53.4877Z" fill="#0500E2" stroke="#0500E2" stroke-width="0.2"/>
<path d="M317.255 80.3667C317.647 80.231 318.062 80.3338 318.363 80.5884L318.485 80.7065V80.7075L329.219 92.9038L329.285 92.978L329.21 93.0444L327.619 94.4497L327.544 94.5161L327.478 94.4409L318.553 84.2944L316.561 108.796L316.48 108.79L316.477 108.888H316.353V108.878L314.347 108.716L314.247 108.708L314.255 108.608L316.47 81.3745C316.504 80.9123 316.813 80.5199 317.255 80.3667Z" fill="#0500E2" stroke="#0500E2" stroke-width="0.2"/>
<path d="M329.457 65.5213L331.771 65.7044L329.546 93.8775L327.231 93.6943L329.457 65.5213Z" fill="#0500E2" stroke="#0500E2" stroke-width="0.2"/>
<path d="M328.109 92.5282C328.604 92.4258 329.117 92.6477 329.372 93.1083L336.767 106.46L336.769 106.464C336.869 106.665 336.921 106.886 336.903 107.109L335.525 124.903L335.656 124.913L335.502 125.068L335.295 125.275L335.31 125.088L333.302 124.94L333.202 124.933L333.21 124.833L334.565 107.265L329.218 97.6034L327.357 121.164L327.349 121.264L327.248 121.256L325.127 121.084L325.027 121.075L325.035 120.976L327.203 93.5702C327.238 93.0577 327.614 92.6311 328.109 92.5282Z" fill="#0500E2" stroke="#0500E2" stroke-width="0.2"/>
<path d="M142.009 92.9126C142.229 92.4601 142.718 92.2023 143.223 92.2739L143.332 92.2944C143.894 92.431 144.288 92.9766 144.219 93.5591L143.236 102.209L143.22 102.351L143.092 102.288L143.076 102.279L140.989 102.047L140.888 102.037L140.9 101.937L141.327 98.2505L140.262 97.8569L140.169 97.8218L140.204 97.728L141.966 93.0122L142.009 92.9126Z" fill="#0500E2" stroke="#0500E2" stroke-width="0.2"/>
<path d="M55.0976 91.9934L57.3993 92.2947L53.8841 119.202L51.5825 118.901L55.0976 91.9934Z" fill="#0500E2" stroke="#0500E2" stroke-width="0.2"/>
</svg>
