<?xml version="1.0" encoding="UTF-8"?>
<svg xmlns="http://www.w3.org/2000/svg" version="1.1" viewBox="0 0 310 326">
  <!-- Generator: Adobe Illustrator 28.7.5, SVG Export Plug-In . SVG Version: 1.2.0 Build 176)  -->
  <g>
    <g id="Layer_1">
      <path class="cls-1" d="M353.7-64.1c-2.5-.3-5.6-.6-9.6-1-.1,0-.2,0-.3,0-2.7.4-5.1.7-7.4,1-22.5,3.1-29.4,4.1-76,24.9-1-.5-2.1-.9-3.1-1.4-1-.5-2-.9-3.1-1.3-7.7-3.1-16.1-5.5-25.3-7.1-7.1-2.3-8.1-2.3-16.7-2.1-3.4-.3-6.8-.4-10.4-.5-3.1,0-6.1.1-9.1.3-7.6-.3-9.2-.2-15,1.5-25.2,3.8-44.7,13.3-61.6,26.9-3.1,1.8-4.6,3.1-6.9,5.9-7.9,7.1-15.2,15-22.5,23.7,0,0,0,.1-.1.2-4.5,7.8-8.5,15.3-11.8,22.7-1.5,2.6-3.2,5.6-5.3,9-.3.6-.1,1.3.4,1.6.1,0,.2,0,.3.1-6.3,16.5-9.5,32-9.7,47.3,0,.1,0,.3,0,.4,0,.3,0,.5,0,.7,0,.2,0,.3,0,.5,0,5.7.4,11.5,1.2,17.2,0,.2,0,.4.1.6.5,3.3,1.1,6.7,1.9,10-6,7.1-23.3,31.4-23.5,31.7,0,.1-.1.2-.2.3,0,0-.1.1-.2.2-3,5.4-5.3,9.5-7.2,12.8-4.8,8.4-8.6,16.9-11.4,25.4-.9,2.7-2,6.1-3.5,10.3,0,.1,0,.2,0,.3-.2,3.9-.4,6.8-.5,9.2-.6,9.3-.5,9.5,3.1,17.1.8,1.6,1.7,3.6,2.9,6.1,0,0,0,.2.1.2,0,0,0,0,.1.1,6.8,7.3,13.3,13.9,19.5,19.8-.3.5-.2,1.2.3,1.6,2.5,1.8,4.8,3.4,6.7,4.8,40.7,36.3,71,44.1,107.8,53.4,10.8,2.7,26.7,3.3,41.4,3.3,0,0,.2,0,.2,0,0,0,.2,0,.2,0,5.2,0,10.2,0,14.7-.1h4.9c11.6-.2,28.1-4.2,41.6-8,.1,0,.2,0,.4,0,.1,0,.2,0,.2,0,0,0,.2,0,.3,0,0,0,0,0,0,0,.2,0,.3-.2.4-.2,6.4-1.8,12-3.6,15.9-4.8l2.4-.7c4.5-1.4,18.8-6.4,38-18.7,0,0,.1,0,.2,0,0,0,0,0,.1,0,.1,0,.2-.1.3-.2,0,0,.3-.3.3-.3,13.2-8.5,28.6-20.5,44.6-36.9,1.5-1.3,2.8-2.6,4-4.2,3.7-4,7.5-8.2,11.2-12.7,12-14.4,24.4-39.7,29-49.2l.9-1.8c1-2,1.9-4.3,2.9-6.9.4,0,.8-.4.9-.9.4-1.7.7-3.3,1.1-4.8,2-6.2,3.8-13.1,5.3-19.7,2-8.4,3.6-16.3,4.7-21.8l.6-2.8c1.9-9.1,2.7-19.2,2.6-30,0-.1.1-.2.1-.3,0-.2,0-.4,0-.6l-.2-.6c-.2-8.8-1-18.2-2.5-27.8.3-.2.5-.4.5-.7,0-.2,0-.5,0-.7l-1.2-3.1c-1.4-8.3-3.3-16.9-5.7-25.6,0,0,0,0,0,0,.3-.2.4-.4.5-.7,0-.3,0-.6-.2-.9l-1.5-2.3c-.1-.4-.2-.8-.3-1.2-2.5-8.5-5.4-16.9-8.5-24.8v-.3c.2-.6-.1-1.2-.7-1.4-8.8-21.7-19.6-40.3-30.8-52.5-.1-.1-.2-.2-.3-.2-2.4-1.5-4.3-2.7-5.8-3.7-7.3-4.7-7.5-4.7-17.2-5.7h0ZM298-10c.7,1.2,1.3,2.2,1.8,3.1.2.3.3.5.4.8l-5.4-4.2-4.7-6.8c2.7,2.3,5.3,4.6,7.9,7.1h0ZM302.9,11.8c1.1,1,1.9,1.7,2.6,2-.4,3.9-.7,6.9-.9,9.1-.3,2.4-.4,4.2-.5,5.5-1.6-1.1-1.7-1.5-2.4-10.4-.2-2.1-.4-4.6-.6-7.7.7.6,1.3,1.1,1.9,1.6h0ZM282.5,63.2l-16.9,12.8-3.5-6.9,18.9-8.7,1.4,2.8h0ZM263.7,77.4l-19.3,13.3-5.7-11.2,21.2-9.5,3.7,7.4h0ZM242.4,92l-20.9,13.2-7.5-14.9,22.6-9.8,5.8,11.5ZM111.4,158l-12.1,2.9-10.3-20.4,11.5-4.1,10.9,21.5ZM96.9,161.2l-7.9.5c-.4-1.3-1.5-3.3-3.6-7.3-1.4-2.7-3.3-6.3-5.7-10.9l7-2.2,10.1,19.9h0ZM75.7,144.3l1.7-.3c2.5,4.9,4.5,8.7,5.9,11.4,1.2,2.4,2.3,4.3,2.9,5.6-.6-.3-1.3-.6-2.2-1-3.1-5.3-5.9-10.6-8.3-15.8h0ZM68.4,125.4c.4-.4.7-.8,1-1.1.2-.2.4-.4.6-.6l6.4,18.1-1.7.3c-2.5-5.6-4.6-11.1-6.3-16.7ZM66.3,117.9c0,0,0-.2.1-.3,0-.4,0-.9-.4-1.2,0,0,0,0,0,0-.7-3.2-1.3-6.4-1.8-9.6.6-1.5,1-2.7,1.3-3.7.1.6.2,1.2.4,1.9.4,2.1,1,5,1.7,8.6.4,1.7.7,3,.9,4,.5,2.2.3,3.9-.8,5,0,0,0,0-.1.1-.5-1.6-.9-3.2-1.3-4.9h0ZM62.9,88.2c.3-1.1.5-2.2.7-3.2.2,3.4.5,8,.9,14-.3.5-.6,1.3-1,2.5-.4-4.4-.7-8.9-.6-13.3h0ZM117.6-20.9c1.5-.9,3.5-1.9,6.2-3.4.8-.4,1.8-.9,2.8-1.5l-8.3,9.9-12.1,6.5c.8-1,1.5-1.9,2.2-2.7,1-1.3,1.9-2.3,2.6-3.2,2.2-2,4.4-3.9,6.7-5.7h0ZM192.7-48.9c.3,0,.5,0,.8,0,.9,0,1.9,0,3,.1-.5.2-1,.3-1.6.5-1.9.6-4.2,1.4-7,2.3h-13.9c.2-.2.4-.2.6-.3,1.4-.4,2.5-.8,3.6-1.1,4.6-.7,9.5-1.2,14.5-1.5h0ZM235.6,78.3l-22.6,9.8-5.6-15.8,23.8-6.3,4.3,12.3h0ZM210.9,89.1l-23,9.8-6.7-19.1,24-6.9,5.7,16.1h0ZM185.7,99.8l-22.4,9.4-7.6-21.5,23.2-7.2,6.8,19.3h0ZM117.2,127.6l-15.4,5.8-8.2-23.1,15.2-6.2,8.3,23.5ZM99.6,134.2l-11.5,4.1-7.7-21.7,11.1-5.3,8.1,22.9h0ZM85.8,139.1l-7.1,2.2-6.9-19.5,6.4-4,7.5,21.3h0ZM148.6-32.8l-9.6,11.4-16.8,4.4,9.8-11.7,16.6-4.2h0ZM232.6-45.2h-7.9c-4.3-1.1-7.6-2.1-10.2-2.9-.5-.2-1-.3-1.4-.4,5.3.4,10.4,1.1,15.3,2,.6.2,1.3.4,2,.6.7.2,1.5.5,2.3.7ZM230.6,63.7l-23.8,6.3-3.4-16.1,24.6-2.6,2.7,12.5ZM108.2,101.8l-15.2,6.2-5-23.5,15.1-6.7,5.1,24ZM90.8,109l-11,5.3-4.7-22,10.7-6.5,5,23.3ZM107.9,6.1l-4.9,18.9-14.5,7.2,4.8-18.6,14.6-7.6ZM171.7-34.1l-9.4,11.3-19.9,1.1,10.1-12,19.3-.4ZM102.7,75.4l-15,6.6-1.6-22.9,15-7.1,1.7,23.3h0ZM103.3,51.1l18.8-6,1.6,23-18.7,6.4-1.7-23.4h0ZM123.8,21.3l-1.7,21.4-18.6,5.9,1.8-21.9,18.6-5.5h0ZM131.6-.8l21.1-2.1-4.6,18-21.4,3.2,4.9-19.1h0ZM195.5-30.2l-8.6,10.3-21.8-2.6,9.6-11.5,20.8,3.8ZM259.7-18.1l-7,2.2-14.6-10.5c-1-.7-1.8-1.3-2.4-1.8-.4-.3-.7-.5-1-.7,1.9-.6,3.4-1.1,4.6-1.5,3.1-1,4.9-1.2,5.5-.6.3.3.8.8,1.3,1.3l13.5,11.7h0ZM126.2,20.7l21.6-3.2-1.6,20.2-21.7,4.5,1.7-21.4h0ZM150.1,17.2l23.6-.7-1.4,18-23.8,2.8,1.6-20.1ZM155.2-3l23,1.1-4.2,16-23.5.7,4.6-17.9ZM250.5-14.6l-6.4,4.3-17.2-9.9c-.9-.5-1.6-1-2.2-1.4-.4-.3-.7-.5-1-.6,1.5-1,2.7-1.9,3.7-2.6,2.4-1.7,3.8-2.7,4.5-2.8.5,0,.9.2,2.3,1.3.6.5,1.5,1.2,2.5,1.9l13.7,9.8h0ZM280.5,36.6l7.5,6-8-4.4.4-1.6h0ZM180.6-1.7l23.9,4.3-3.5,13.4-24.6-1.8,4.1-15.9h0ZM214.5-12c1.4-1.7,2.5-3.1,3.4-4.2,1.9-2.4,3.1-3.9,3.8-4.2.2-.1.5,0,1.7.8.6.4,1.3.9,2.3,1.5l16.7,9.6-5.4,6.5-22.5-9.9h0ZM233.7,9.2l4-8.2,21.6,13.3c-1,1.7-1.9,3.4-2.7,5.1l-22.9-10.2h0ZM261.2,15.7l18.9,15.5-.8,1.7-20.6-12.3c.7-1.6,1.5-3.2,2.5-4.8h0ZM281.9,32.9l6.2,6.7-6.8-5.4.6-1.3h0ZM283.2,30.8l.8-.9,4.9,7-5.6-6.1h0ZM282.5,28l-1,1.2-19-15.5c.9-1.3,1.8-2.6,2.9-3.9l17.1,18.2h0ZM263.7,8.2c-1.1,1.4-2.1,2.7-3.1,4.1L239-1l5.3-6.3,19.4,15.4ZM235.7,0l-4.1,8.4-23.8-7.4,5.4-11L235.7,0h0ZM206.9,3.2l23.8,7.4-2.6,10.1-24.6-4.3,3.4-13.1ZM230.4,21.2l2.5-9.8,22.8,10.1c-.8,2-1.4,4.1-1.8,6.2l-23.5-6.6ZM257.9,22.7l20.6,12.4-.6,2.1-21.7-8.7c.4-2,.9-3.9,1.6-5.8ZM285.7,28.3l.9-.6,3.6,7-4.5-6.4ZM285.3,25.7l-1.1.7-17.1-18.2c1.4-.9,2.6-1.7,3.8-2.3l14.4,19.8h0ZM269.4,4c-1.2.7-2.6,1.5-4,2.5l-19.3-15.4,6.2-4.3,17,17.1h0ZM219.3-21.6c-.9.8-1.9,2.1-3.2,3.8-1,1.3-2.3,2.9-3.9,4.8l-22.6-6.4,8.6-10.3,21.2,8h0ZM210.9-10.8l-5.5,11.2-23.9-4.3,6.5-13.3,22.8,6.4ZM176.1,16.5l24.6,1.8-1.2,15-24.9.9,1.4-17.8h0ZM203.1,18.7l24.6,4.3-.9,11.4-24.9-.9,1.2-14.7ZM230,23.5l23.5,6.6c-.3,2.3-.5,4.7-.5,7.2l-23.9-2.8.9-11h0ZM255.8,30.9l21.6,8.7-.2,2.6-21.8-4.5c0-2.3.1-4.6.4-6.7h0ZM279.8,40.7l8.8,4.8-8.9-2.8.2-2ZM288.8,26.8c.3,0,.6-.1.9-.2l2.5,6.8-3.4-6.6h0ZM288.7,24.4c0,0-.2,0-.2,0-.3,0-.6,0-1,.2l-14.4-19.8c1.4-.6,2.7-1.1,4-1.4,2.9,5.2,5.2,9.2,6.9,12.3,2.6,4.6,4.3,7.6,4.7,8.7h0ZM271.6,2.9l-16.8-16.9,6.9-2.1,13.9,17.5c-1.3.4-2.6.9-4,1.6h0ZM229.5-29.2c-.9.5-2,1.3-3.5,2.4-1.3.9-2.9,2-4.9,3.4l-20.9-7.9,10.1-6.9,19.1,9h0ZM163.5-20.3l22.1,2.7-6.6,13.4-22.9-1.1,7.4-15h0ZM124.4,44.6l21.7-4.5,1.5,21.6-21.6,5.8-1.6-22.9ZM148.5,39.7l23.8-2.8,1.4,19.3-23.6,5-1.5-21.4ZM174.7,36.7l24.9-1,1.1,16.1-24.7,3.9-1.4-19h0ZM201.9,35.8l24.9.9.9,12.2-24.6,2.6-1.1-15.8ZM229.2,36.9l23.9,2.8c0,2.5.3,5,.7,7.7l-23.8,1.3-.8-11.8ZM255.5,40.1l21.7,4.5.2,2.9h-21.3c-.3-2.6-.6-5-.7-7.3ZM279.6,45.2l9.7,3-9.5-.7-.2-2.3h0ZM292,26.1h1s1.5,7,1.5,7l-2.6-7h0ZM292.2,23.7h-1.3c-.5-1.4-1.9-4-4.9-9.2-1.6-2.9-3.8-6.7-6.4-11.5,1.4,0,2.9,0,4.5.2,2.1,5.2,3.6,9.2,4.8,12.2,1.6,4.2,2.6,6.7,3.4,8.2h0ZM282.7.7c-1.6-.1-3-.1-4.4,0l-13.7-17.2h7.3c0,0,10.9,17.2,10.9,17.2ZM269.7-18.8h-7.2c0,0-14.8-12.7-14.8-12.7-.2-.1-.3-.2-.4-.4h9.5c0-.1,12.8,13.1,12.8,13.1ZM241-33.5c-.7.2-1.5.5-2.4.8-1.6.5-3.7,1.2-6.5,2.1l-18.5-8.7,10.9-3.4,16.6,9.2h0ZM207.4-39l-9.9,6.8-20.1-3.7,11.1-7.6,19,4.5h0ZM140.5-19.2l20.4-1.1-7.3,14.9-20.9,2.1,7.8-15.9ZM124.1,18.7l-18.4,5.4,5-19.3L129-.3l-4.9,19ZM102.7,27.9l-1.7,21.6-14.8,7,1.7-21.2,14.8-7.4h0ZM83.7,57.8l-10.2,7.4c.3-2,.5-4.6.7-8.6.2-2.9.4-6.4.8-10.9l10.3-8.6-1.7,20.6ZM73.3,68.3l10.5-7.7,1.6,22.5-10.6,6.4-1.5-21.3h0ZM105.3,77l18.8-6.4,5,23.5-18.7,6.9-5.1-24h0ZM126.4,69.8l21.7-5.8,4.7,22.1-21.4,7.2-5-23.4h0ZM150.3,63.5l23.7-5,4.2,19.7-23.2,7.2-4.7-21.9ZM176.3,58.1l24.7-3.9,3.5,16.4-24,6.9-4.1-19.4h0ZM230.4,51l23.8-1.3c.4,2.5.9,5.2,1.5,8l-22.7,5.4-2.6-12.1ZM256.5,49.7h21.2c0,0,.6,3.1.6,3.1l-20.5,4.3c-.5-2.6-1-5.1-1.4-7.5ZM280.2,49.9l10,.8-9.5,1.7-.5-2.5h0ZM295.6,26.6c.2,0,.5.1.7.2.1,0,.2,0,.4,0l.5,7.1-1.6-7.3h0ZM296.1,24.2c-1.5-.4-1.9-1.4-5-9.6-1-2.7-2.4-6.3-4.2-10.9,1.3.3,2.8.6,4.4,1,1.3,5.1,2.2,9.1,2.9,12,.9,3.6,1.4,5.9,1.9,7.5h0ZM290,2.1c-1.6-.4-3-.7-4.3-.9l-10.7-17,7.3,1.9s0,0,0,0c0,.1.2.2.2.4,1.8,3.8,3.2,6.7,4.3,9.1,1.4,3,2.3,5,3.1,6.5ZM273-18.8l-12-12.3,9.1,2.3c.5.9,1.8,2.3,4,4.9,1.5,1.8,3.5,4,5.8,6.8l-6.9-1.8h0ZM253.3-34.4h-8.9c0,.1-15.4-8.4-15.4-8.4h10.7c0-.1,13.6,8.4,13.6,8.4ZM213.8-45.9c1.8.6,4,1.2,6.6,2l-10.2,3.2-17.6-4.2c1.2-.4,2.2-.7,3.2-1,5.7-1.9,11.7-1.9,18,0h0ZM173.9-36.5l-18.1.3,11.2-7.6h17.4c0,.1-10.5,7.3-10.5,7.3ZM151.4-36l-14,3.5c.5-.4,1-.7,1.5-1,5.5-3.8,11.4-6.5,17.8-7.9,1.2-.3,2.5-.6,4-.9l-9.3,6.3ZM137.5-18.6l-7.7,15.6-17.9,4.9,7.8-15.9,17.7-4.6ZM108.9,3l-13.9,7.2,7.3-14.8,14-7.5-7.4,15.1ZM91.4,12.2l-8.6,7.8c1.5-2.9,2.5-5,3.3-6.6,1.6-3.4,4.9-7.5,10-12.2.5-.4,1-.9,1.5-1.4l-6.1,12.4h0ZM80.2,25.5l10-9.1-4.5,17.4-9.8,8.1,4.3-16.5h0ZM71.9,56.5c-.5,7.3-2.1,12.6-4.9,16-.4.5-.8,1-1.2,1.5.2-2.6.3-4.7.4-6.5.4-6.4,2.1-11.8,5-16.1.4-.5.8-1.1,1.2-1.8-.2,2.7-.3,4.9-.5,6.9h0ZM65.5,78.1c1.3-1.6,2.4-3,3.2-4,1-1.2,1.7-2.1,2.3-2.9l1.4,20.1-5.8,5.5c-.4-5.2-.6-9.2-.8-12.2-.2-3.4-.3-5.4-.5-6.4h0ZM67.1,99.7l5.9-5.7,4.6,21.4-6.3,3.9c-.1-.6-.3-1.3-.5-2.2-.2-1-.6-2.3-.9-3.9-.8-3.6-1.3-6.5-1.7-8.6-.5-2.5-.8-4-1.1-4.9h0ZM111,103.2l18.7-6.9,8.2,23.1-18.5,7.3-8.3-23.5ZM132,95.6l21.4-7.2,7.7,21.7-20.9,8.5-8.1-23ZM233.6,65.4l22.6-5.4,2.8,7.8-21.2,9.5-4.2-11.9ZM258.5,59.5l20.5-4.3,1.1,3-18.9,8.7-2.6-7.4ZM281.4,54.7l9.8-1.7-8.9,4.2-.9-2.5h0ZM299.1,27.9c.1,0,.3.1.5.2.2,0,.5.2.7.3l-.6,7.1-.6-7.6ZM296.5,16.2c-.6-2.5-1.4-5.8-2.4-10,.5.3,1.1.5,1.7.8.7.3,1.7.8,2.7,1.3.4,4,.6,7.2.8,9.8.3,3.6.5,6,.8,7.6-1.5-.7-1.7-1.4-3.6-9.6h0ZM296.8,4.9c-2.5-1.1-5.1-4.6-7.7-10.3-.9-1.9-1.9-4.2-3.3-6.9.2.1.4.2.7.4,1.5.8,3.7,1.9,6.5,3.4l4.6,13.9c-.3-.1-.6-.3-.9-.4h0ZM287.5-14.1c-1.8-.9-2.9-1.5-3.6-1.8-3.4-4.1-6.1-7.2-8-9.5-.4-.5-.8-.9-1.2-1.4,0,0,.2.1.3.2,2.2,1.2,5.1,2.8,8.8,4.7l6.4,9.2c-1.1-.6-2-1-2.8-1.4h0ZM256.4-38.3c1.7.9,3.7,2.3,7,4.7.5.3,1,.7,1.6,1.1l-7.2-1.8-10.9-6.9h.6c2.5.7,4.3,1.2,5.7,1.6,1.1.4,2.2.9,3.3,1.3ZM75.6,33.9l-2.8,10.8c-1.2,1.8-2.2,3.3-3,4.6,1.6-5.1,3.6-10.2,5.8-15.4h0ZM102.7,135.6l15.4-5.8,11.2,22.1-15.6,5.4-11-21.7ZM120.3,128.9l18.5-7.3,11,21.7-18.3,7.7-11.2-22.1h0ZM141.1,120.7l20.9-8.5,10.3,20.4-20.3,9.8-11-21.6ZM164.2,111.3l22.4-9.4c1.9,3.8,3.4,6.7,4.6,9.1,2.2,4.4,3.4,6.8,4.7,9.1l-21.4,11.4-10.2-20.2h0ZM193.3,110c-1.2-2.3-2.6-5.2-4.5-8.9l23-9.8,7.7,15.2-21.6,12.5c-1.3-2.2-2.5-4.6-4.6-9ZM283.2,59.3l9.5-4.5c-.4.3-.7.6-1.1.9-1.9,1.5-4.2,3.4-7.2,5.9l-1.2-2.3h0ZM302.5,30.2c.1.1.3.2.4.3.3.2.5.4.8.6-.8,3-1.5,5.4-2,7.5l.7-8.4h0ZM304.5,10c-1-.9-2.2-1.9-3.8-3.1l-4.3-13,6.9,5.4c.6,3.6,1.2,6.4,1.6,8.5.2,1.2.5,2.3.6,3.1-.3-.2-.6-.5-.9-.8h0ZM337.1,59c.6-.7,1.2-1.3,1.8-2l3.9,4.2-19.4,33.1-8.8-9.5c.2-.2.5-.5.8-.9.6-.7,1.4-1.6,2.5-2.9,6.9-7.4,13.3-14.8,19.3-22.1h0ZM379.5-12l2.4-7.1,7.5,10.9-10.8,14-3.5-5,2.8-8c.6-1.6,1.1-3.1,1.6-4.7ZM383.2-31c.1-2.3.3-4.1.3-5.5,3,4.4,5.3,7.7,7,10.3,2.1,3.1,3.3,4.9,4.1,5.8l-3.9,9.6-7.9-11.4c.1-1.1.2-2.9.3-6.1v-1.9c0-.3.1-.6.1-.8h0ZM424,108.4c-.2-1.4-.6-3-.9-4.9-.5-2.7-1.2-6.1-1.9-10.3l1.2-15,2.6,9.5c.1,7.2-.2,14.1-.9,20.6h0ZM389.6,203.2c-1.2,1.3-2.5,2.9-4,4.6l8.3-27.3,10.7-12.8c-1,4-1.7,7.3-2.4,10.2-2.3,9.8-6.5,18.2-12.7,25.4ZM362.6,241.9c-2.2,1.9-5.1,3.8-9.7,6.8-1.6,1.1-3.4,2.3-5.5,3.7l16-24.7,15.6-10.7c-2.3,3.8-4.1,7-5.7,9.7-3.2,5.5-5.1,8.8-7.1,11.3-1.3,1.3-2.5,2.6-3.7,3.9h0ZM317.7,278.9c-4.9,1.5-8.7,2.7-12,3.7-4.1,1.3-7.2,2.2-9.7,3l22.1-20,20.5-6.4-20.7,19.5c-.1,0-.2.2-.4.2ZM260.7,303.4c-6,0-10.6,0-14.3,0-4.4,0-7.5,0-10.1.1,4.3-2.3,7.8-4.2,10.7-5.9,9.7-5.4,20-8.1,30.8-8,2.4,0,5.3,0,8.6,0-2.7,1.4-5.9,3.1-10.7,5.7-3.7,2-8.2,4.5-14.2,7.8-.3,0-.5.1-.8.2h0ZM231.3,158.6c2.6-2,5.2-4,7.8-6,5.2-3.9,8-6,9.4-7.1.3-.2.5-.4.7-.6l18.1,19.5-30.1,28.7-21.3-23c4.6-3.4,8.5-6.4,12-9,1.1-.8,2.3-1.7,3.4-2.5h0ZM276.5,121.6l6.2-5.4,13.9,15-27.6,31.5-17.9-19.3,7.1-6.1c6.2-5.2,12.3-10.4,18.3-15.8h0ZM308.7,90.7l4.2-4.2,9.1,9.8-24,33-13.6-14.7c.3-.3.7-.7,1.1-1.1.9-.9,2.3-2.2,4.2-4.2,6.6-6.2,12.9-12.4,18.9-18.7h0ZM420.5,71.8l-1.4,17.5-10.4-19.3.9-11.8,10.9,13.6h0ZM377.2,189.1l5.8-35.9,11.1-7.6-2.4,33.6-14.5,9.9ZM381.8,212.2l-16.9,11.5,11.6-31.3,14.2-9.7-8.9,29.4ZM290.7,287.2c-5.3,0-9.5,0-13,0-5.9,0-9.8,0-12.9.3l25.3-21.5,24.3-.3-23.7,21.4h0ZM59.1,241.3c5.9-.9,10.3-1.5,13.6-2,4.5-.7,6.9-1,8.3-1.3l25.1,27.1-23.3,1.7-23.7-25.6ZM145.4,213.2l32.8-18.3,24,25.9-31.3,19.9-25.5-27.5h0ZM180.2,193.7l33.8-22.2,21.5,23.2-31.3,24.8-23.9-25.8ZM270.7,164.3l27.6-31.5,15,11.6-23.3,34.8-19.3-15ZM386.4,40.8l-.4,4.7-17-12.8,17.4,8.1h0ZM418.7,93.5l-4.1,15.7-9.5-25.4,2.7-10.4,10.9,20.1h0ZM396.9,95.3l-5.8,6.9-11.3-36.6,2.3-2.7,14.9,32.4h0ZM389.2,104.2l-7.1,4.8-7.2-39.9,2.8-1.9,11.5,37h0ZM394.2,142.8l-11.1,7.6-.6-38.7,7.2-4.9,4.5,36.1h0ZM374.5,190.7l-16.9,5.3,9.8-37.7,13-4-5.9,36.5ZM338.6,232.8l-22.3.3,18.9-33.9c4.9,0,8.7,0,11.4,0,3.5,0,5.8,0,7.3-.1l-15.4,33.8h0ZM111.2,266.7c7.4-2.2,12.9-3.7,16.9-4.9,5.9-1.7,8.7-2.5,10.1-3.1l27.8,21.6-27.6,7.5-27.2-21.2h0ZM172.7,242.4l31.2-19.8,25.9,20.1-29.6,21.1-27.5-21.4ZM205.9,221.1l31.3-24.7,23.2,18-28.7,26.8-25.8-20.1ZM385.5,30.4l-18.4-3.3,17.2-2.2,1.2,5.5h0ZM383.8,54.9l-1.7,3.4-13-19.2,14.7,15.8h0ZM380.8,60.6l-2.2,2.6-10.6-21.4,12.7,18.8ZM376.9,64.9l-2.6,1.8-7.9-23,10.5,21.2ZM355,196.4c-.4.4-3.5.4-8.3.4-2.6,0-6,0-10.4,0l14.2-38.1,14.4-.2-9.6,36.8v.3c-.1.3-.2.7-.3.7ZM202.5,265.1l29.5-20.9,26.6,13.6-27.8,21.8-28.3-14.5ZM233.9,242.4l28.6-26.7,23.9,12.2-25.9,28.1-26.6-13.6ZM304,230.5c-3.3-.9-7.8-2.1-13.7-3.6l22.7-33.2,19.9,5.1-18.6,33.2v.2c-.2.2-.4.5-.4.5-.6.3-4.1-.7-9.9-2.2h0ZM357.7,115.3l-8.9,40.8-15-3.8,14-39.5,9.8,2.5h0ZM348.1,158.4l-14.3,38.2-19.7-5,18.8-37.1,15.2,3.9ZM365.4,156.2l-14.2.2,8.8-40.7h9.3c0-.1-3.9,40.6-3.9,40.6ZM363.4,69.1l-1.7-24.6,5,24.6h-3.3s0,0,0,0ZM363.4,71.5h3.7s2.3,41.6,2.3,41.6h-9c0,.1,3.1-41.7,3.1-41.7h0ZM369.4,71.1l3.3-1,7.2,40.1-8.2,2.6-2.3-41.6h0ZM372.1,67.8l-3,.9-4.9-24.1,7.9,23.1ZM361,68.8l-3.6-.9,1.8-24.4,1.7,25.3ZM361.1,71.2l-3.1,41.7-9.5-2.4,8.6-40.3,4,1h0ZM331.6,151.5l-15.1-7.7,19.1-36.9,10,5.1-14,39.5h0ZM330.7,153.6l-18.8,37.1-19.9-10.2,23.3-34.8,15.4,7.9ZM310.7,192.8l-22.8,33.3-23.8-12.2,26.5-31.4,20.1,10.3ZM198,265l-29.3,14.5-28-21.8,29.8-14.1,27.5,21.3h0ZM171.2,280.9l29-14.4,28.1,14.4-28.4,14.7-28.7-14.7h0ZM233.5,280.4l27.5-21.5,26.2,6.7-25.9,22-27.8-7.1h0ZM263,256.9l25.7-27.9c6.4,1.6,11.2,2.9,14.7,3.8,4.4,1.2,7.1,1.9,8.9,2.2l-23,28.6-26.3-6.7h0ZM380.7,151.7l-12.9,4,3.9-40.5,8.4-2.6.6,39.1h0ZM383.6,60.7l1.7-3.5,17.2,26.8-4.3,8.8-14.7-32ZM406.2,70.5l-2.7,10.4-17-26.4,1.1-4.3,18.6,20.4ZM385.7,48.2l-1.1,4.1-15.2-16.4,16.3,12.3h0ZM368.1,29.7l17.8,3.2.4,5.2-18.2-8.5ZM388.1,31l-1.3-6.3,16.4-.7,2.8,13.3-17.9-6.3h0ZM405,21.7l-5.1-14.4,6.4-4.2,7,19.9-8.3-1.3ZM402.4,21.6l-16.3.7-2.2-6.4,13.9-7.5,4.7,13.2ZM383.7,22.6l-17.5,2.2,15.6-7.7,1.9,5.5ZM355.2,66.9l-3.7-1.9,5.6-23.4-1.9,25.3h0ZM354.9,69.4l-8.6,40.2-9.7-4.9,14.2-37.4,4.1,2.1h0ZM314.5,142.4l-14.7-11.4,24-33,9.8,7.6-19.1,36.8h0ZM288.6,181.2l-26.5,31.4-23-17.9,30.1-28.7,19.5,15.2h0ZM168.7,241.9l-29.9,14.1s0,0,0,0c0,0-.2-.1-.2-.1l-25.8-27.8,30.5-13.6,25.5,27.5ZM136.3,256.9c-1.5.5-4.5,1.3-8.9,2.6-4.3,1.2-10.2,2.9-18.4,5.3l-25.4-27.4c7.7-2.5,13.3-4.2,17.4-5.5,5.3-1.7,8-2.5,9.4-3.1l26,28ZM81.8,269.2l22.8,17.7c-2-.6-3.7-1-5.3-1.5-9-2.5-17.5-7-25.5-13.4-2.3-1.8-5-4-8.3-6.6l16.3,3.8ZM85.5,269.1l22.8-1.6,26.5,20.6-24.3.5-25-19.5ZM141.4,289.5l27-7.4,28.3,14.5c-3.4.5-7.5,1.6-14,3.4-3.6,1-8.1,2.2-13.7,3.6l-27.6-14.1h0ZM215.9,299.5c-5.8-1.6-9.5-2.6-12.7-3l27.9-14.4,27.4,7c-3.2,1.2-6.8,3.2-12.6,6.4-3.8,2.1-8.5,4.7-14.7,8-6.4-1.6-11.2-3-15.1-4.1ZM316.9,263.4l-24.7.3,22.7-28.2,22.2-.3-20.2,28.2ZM356.8,198.7l16.9-5.2-12,32.3-20,6.2,15.2-33.3h0ZM391.8,105l5.8-7,7.6,31.7-9,10.8-4.5-35.5h0ZM399.5,95.6l4.3-8.8,9.8,26.2-6.6,13.5-7.5-30.9ZM416.1,113.2l3.7-14.4c.4,1.9.7,3.6,1,5.2,1.6,8.3,1.3,16.5-1,24.6-.5,1.8-1.1,3.8-1.7,6.2l-2-21.5ZM407.5,55.7l-.9,11.7-18.3-20,.4-5.1,18.8,13.4ZM388.8,39.4l-.4-5.8,18.1,6.3.9,12.7-18.6-13.2h0ZM408.6,38.4l-3-14.2,8.5,1.3,4.2,19.9-9.7-7ZM405.3.8l-6.4,4.2-6.8-13.4,3.8-9.4,9.4,18.5h0ZM396.9,6.3l-14,7.5-3-5.9,10.7-13.9,6.2,12.3h0ZM380.8,14.9l-15.5,7.7,12.9-12.8,2.6,5.1ZM349.4,63.6l-3.7-2.9c3.7-8.4,6.8-15.2,9.3-20.4l-5.6,23.3ZM348.7,66l-14.1,37.3-9.4-7.3,19.5-33.2,4.1,3.2ZM40.7,239.8c1.6.2,3.5.4,6.2.7,0,0,0,0,.1,0l2.6.3c3.4.4,5.3.6,6.5.7l22.8,24.6-17.5-4c-.5-.7-1.5-1.7-3.1-3.3-1.6-1.7-3.8-4-6.4-6.8-2.8-3.1-5-5.4-6.7-7.3-1.9-2.1-3.3-3.6-4.5-4.8h0ZM98.6,287.7c3,.8,6.6,1.8,11.1,3.1,6,3.1,10.6,5.5,14.3,7.5.3.2.6.3.9.5-9.2-3.1-18.4-6.7-27.8-11.5.5.1,1,.3,1.6.4h0ZM125.1,296.3c-2.8-1.5-6.1-3.3-10.2-5.4l23-.5,26,13.3c-3.3,0-6.2,0-8.6,0-10.9,0-21-2.4-30.2-7.4h0ZM173.6,304.9c3.8-1,7-1.9,9.7-2.6,11.3-3.1,22-3.2,32-.4,3,.9,6.6,1.9,11.1,3-3.1.7-7,1.6-12.6,3.1-3.8,1-8.4,2.1-14.1,3.6l-26-6.6h0ZM342.5,255.6l-21.9,6.8,19.6-27.4,19.6-6.1-17.3,26.7ZM394.3,176.3l2.3-32.5,8.8-10.6.4,29.3-11.5,13.8ZM407.8,130.3l6.3-12.9,2.2,23.7c-.7,1.1-1.7,3.2-3.7,7.5-1.2,2.5-2.7,5.6-4.5,9.4l-.3-27.7h0ZM409.9,54.6l-.9-13.1,10,7.3,1.3,18.9-10.5-13.1h0ZM373.9,3.1l3.1,4.5-12,12c2.9-5,5.2-9.2,7-13,.8-1.5,1.5-2.7,1.9-3.5ZM353.9,37c0,0,0,.2-.1.3-2.5,5.3-5.8,12.5-9.9,21.7l-3.5-3.8c.4-.6.8-1.2,1.3-1.8,4.4-5.6,8.5-11,12.2-16.4h0ZM43.4,246.2c1.7,1.9,3.9,4.3,6.7,7.3.6.7,1.3,1.4,1.8,2,0,0-.2-.1-.3-.2-6.3-5.6-12.9-12-19.8-19.1,1.1.7,2.1,1.3,3,1.8,2.7,1.9,4.1,3.4,8.6,8.3h0ZM149.7,306c1.6,0,3.5,0,5.5,0,3.6,0,8,0,13.4,0l21,5.3c-11.5-.2-22.9-1-31.1-3.1-3-.8-5.9-1.5-8.8-2.3ZM219.4,311.3h-4.9c-1.6,0-3.2.1-4.9.1,1.7-.4,3.3-.8,4.7-1.2,11.7-3,22.4-4.5,32.1-4.4,1.6,0,3.4,0,5.4,0-11.3,2.9-23.4,5.4-32.4,5.5ZM279.9,297.5l-2.4.7c-1.5.5-3.2,1-5.2,1.6,1.6-.9,3.1-1.7,4.4-2.4,9.7-5.3,19.5-9.5,29.6-12.6,1-.3,2-.6,3.1-.9-14.9,8.6-25.8,12.4-29.6,13.6h0ZM344,257.5c3.3-2.2,6-4.1,8.4-5.6-7.3,6.8-14.4,12.6-21.2,17.7l12.8-12h0ZM375.5,227.7c2.1-3.7,4.8-8.2,8.3-14.1,3.1-3.7,5.6-6.6,7.6-8.9,0-.1.2-.2.3-.3-4.4,7.6-9.3,15.1-14.1,20.9-.7.8-1.4,1.6-2.1,2.4h0ZM406.3,176.5c-.7,1.4-1.5,3.1-2.5,5.1.2-1,.5-2.1.8-3.3.9-3.9,2-8.7,3.6-15,2.8-5.7,5-10.4,6.6-13.8,0,0,0-.1,0-.2-.8,3.4-1.8,7.8-3,13.2-1.5,4.6-3,8.8-4.7,12.1l-.9,1.8h0ZM422.9,71.2l-1.1-15.2c1.2,7.1,2.1,14,2.6,20.7l-1.5-5.5h0ZM392.2-29c0,.2,0,.4,0,.6.1.4.2.7.3,1,0,0,0-.1-.1-.2-2.1-3.2-5-7.5-9.1-13.3,0,0,0,0,0,0,0,0,0,0,0,0-.2-.5-.4-1.1-.8-1.9-.3-.9-.8-1.9-1.3-3,3.8,5,7.5,10.6,11.1,16.9h0ZM369.6-56.4c1.5,1,3.3,2.1,5.6,3.5.7,1.5,1.3,2.8,1.8,3.9l2.1,4.7c.4.9.7,1.6,1,2.2.6,1.6.9,2.9.9,4.7l-.3,7.2c-.1,2.2-.3,4.9-.4,8.2-.8,2.2-1.4,4.3-2.1,6.3-.3,1-.6,2-1,3l-1.6,4.6c-1.5,4.2-3.2,8.5-5.8,13.8-.6,1.1-1.4,2.5-2.3,4.1-1.9,3.4-4.4,8-7.9,14.2-.4.6-.7,1.2-1.1,1.8-.1.2-.2.3-.3.5,0,0-.1.2-.1.2-1.1,1.2-3,3.9-7.1,9.7-2.7,3.8-6.2,8.7-10.5,14.7-2.4,3-4.8,6-7.4,9.1-5.1,5.8-8.9,10.2-11.9,13.6-.5.6-1,1.1-1.4,1.6C255.3,146.3,147.4,225.9,56.6,239.2c-3.9-.5-6.9-.8-9.4-1l-6.6-.8c-1.9-.3-3.2-.7-4.7-1.5-1.3-.8-2.8-1.8-4.9-3.1-.7-.4-1.4-.9-2.2-1.4-1-.6-2.1-1.4-3.4-2.1-1.1-2.4-2-4.2-2.7-5.8-2.3-4.8-3.3-10.1-2.9-16,.1-2.3.3-5.3.5-9.1,1.4-4.1,2.5-7.4,3.4-10.1,2.8-8.3,6.5-16.6,11.2-25,1.8-3.3,4.2-7.4,7.2-12.8,0,0,0-.1,0-.2,0,0,.1,0,.1-.1.2-.2,15.6-21.9,22.2-30.2.4,1.6.8,3.2,1.3,4.7-.2.5-.1,1,.3,1.4,0,0,0,0,.1,0,1.7,5.5,3.7,11,6.2,16.6-.2.3-.3.6-.3.9,0,.6.6.9,1.1,1,2.3,5.1,4.9,10.2,7.8,15.3,0,0-.1.2-.2.3-.2.6,0,1.3.7,1.5.2,0,.5.2.7.3,2.8,4.9,5.9,9.7,9.3,14.7.4.5,1.1.7,1.6.3.5-.4.7-1.1.3-1.6-2.7-3.9-5.2-7.8-7.6-11.7.6.3,1.1.5,1.6.5l12.1,17.5c.4.5,1.1.7,1.6.3.2-.2.4-.4.5-.7,0-.3,0-.7-.2-.9l-11.3-16.4,7.7-.5,13.5,19.6c.4.5,1.1.7,1.6.3.2-.2.4-.4.5-.7,0-.3,0-.7-.2-.9l-12.9-18.7,12-2.9,14.3,20.7c.4.5,1.1.7,1.6.3.2-.2.4-.4.5-.7,0-.3,0-.7-.2-.9l-13.8-20.1,15.5-5.4,14.5,21c.4.5,1.1.7,1.6.3.2-.2.4-.4.5-.7,0-.3,0-.7-.2-.9l-14.2-20.6,18.3-7.7,14.2,20.6c.4.5,1.1.7,1.6.3.5-.4.7-1.1.3-1.6l-13.9-20.2,20.3-9.7,13.3,19.3c.4.5,1.1.7,1.6.3.5-.4.7-1.1.3-1.6l-13.1-19,21.4-11.4c1.4,2.2,3.1,4.7,6.1,9,1.5,2.2,3.4,4.9,5.7,8.2.4.5,1.1.7,1.6.3.2-.2.4-.4.5-.7,0-.3,0-.7-.2-.9-2.3-3.4-4.2-6-5.7-8.2-3-4.2-4.7-6.7-6-8.8l21.5-12.5,10,14.5c.4.5,1.1.7,1.6.3.2-.2.4-.4.5-.7,0-.3,0-.7-.2-.9l-9.9-14.4,20.9-13.2,7.7,11.2c.4.5,1.1.7,1.6.3.2-.2.4-.4.5-.7,0-.3,0-.7-.2-.9l-7.7-11.1,19.3-13.3,5.1,7.4c.4.5,1.1.7,1.6.3.2-.2.4-.4.5-.7,0-.3,0-.7-.2-.9l-5.1-7.4,16.9-12.8,2.2,3.2c.4.5,1.1.7,1.6.3.2-.2.4-.4.5-.7,0-.3,0-.7-.2-.9l-2.3-3.4c3.1-2.6,5.5-4.6,7.5-6.1,3.5-2.8,5.5-4.4,6.8-6.1h.3c0-.2,0-.2.1-.2,0,0,0,0,0,0,.4-.5.4-.5.4-.6,0,0,0,0,0-.1,0,0,0-.1,0-.2v-.4c1.1-1.9,1.7-4.3,2.8-8.6.6-2.2,1.2-4.9,2.2-8.3.1.1.3.3.4.4.4.4.9.9,1.5,1.5.4.5,1.2.5,1.7,0,.2-.2.3-.4.3-.6,0-.4,0-.8-.3-1.1-.6-.7-1.2-1.2-1.6-1.6-1.1-1-1.3-3.9-.8-8.6.2-1.9.5-4.3.7-7.3l4.8,5.1c.4.5,1.2.5,1.7,0,.2-.2.3-.4.3-.6,0-.4,0-.8-.3-1.1l-6.3-6.8c0-.9-.2-2.5-.8-5.4-.3-1.3-.6-2.9-.9-4.8.6.6,1.2,1.3,2,2.1,1.2,1.3,2.8,2.9,4.8,5.1.4.5,1.2.5,1.7,0,.2-.2.3-.4.3-.6,0-.4,0-.8-.3-1.1-2-2.2-3.6-3.8-4.8-5.1-3.1-3.3-4.1-4.4-5.6-6.6,1.6,1.6,3.2,3.3,4.8,5.1.4.5,1.2.5,1.7,0,.2-.2.3-.4.3-.6,0-.4,0-.8-.3-1.1-3.6-3.9-7.3-7.7-11-11.2-.3-.5-.6-1.1-.9-1.6-.3-.5-.8-.7-1.3-.5-10.4-9.7-21.6-17.9-34.3-24.1,44.6-19.9,51.5-20.9,73.5-23.9,2.2-.3,4.6-.6,7.3-1,4,.5,7,.8,9.5,1,6.2.6,11.5,2.4,16.1,5.3h0Z"/>
    </g>
  </g>
</svg>