<?xml version="1.0" encoding="UTF-8" standalone="no"?>
<svg
   id="Layer_2"
   data-name="Layer 2"
   viewBox="0 0 32 32"
   version="1.1"
   width="32"
   height="32"
   xmlns="http://www.w3.org/2000/svg"
   xmlns:svg="http://www.w3.org/2000/svg">
  <defs
     id="defs4">
    <style
       id="style2">
      .cls-1 {
        fill: #0500e2;
        stroke-width: 0px;
      }
      @media (prefers-color-scheme: dark) {
        .cls-1 {
          fill: white;
        }
      }
    </style>
  </defs>
  <g
     id="Layer_1-2"
     data-name="Layer 1"
     transform="scale(0.04088778,0.04088725)">
    <path
       class="cls-1"
       d="M 670.61,117.6 C 637.75,84.08 598.88,56.54 555.83,36.49 554.08,35.59 552.3,34.77 550.46,34 542,30.22 533.45,26.62 524.69,23.44 500.18,14.53 474.53,8.03 448.03,4.16 429.5,1.46 410.57,0 391.31,0 175.54,0 0,175.54 0,391.32 c 0,168.1 106.56,311.76 255.67,367.04 17.54,6.5 35.67,11.76 54.28,15.71 26.26,5.58 53.47,8.57 81.36,8.57 148.63,0 278.16,-83.31 344.39,-205.68 29.91,-55.27 46.93,-118.5 46.93,-185.64 0,-106.47 -42.79,-203.09 -112.02,-273.72 z M 116.72,600.67 C 70.48,539.68 46.04,466.92 46.04,390.25 c 0,-130.92 72.58,-245.19 179.61,-304.7 2.83,-1.58 5.63,2.18 3.27,4.4 -9.78,9.21 -19.16,19.05 -28.13,29.53 -62.03,72.55 -97.77,171.21 -98.08,270.77 0,129.26 86.46,268.77 226.15,268.77 124.66,0 226.07,-120.57 226.07,-268.77 0,-69.63 -23.34,-136.49 -63.2,-186.11 -1.41,-1.75 0.26,-4.23 2.41,-3.6 67.38,19.93 117.77,97.42 117.77,189.71 0,81.48 -29.56,162.59 -81.11,222.56 -53.43,62.15 -125.15,96.4 -201.94,96.43 -80.87,0 -158.26,-39.65 -212.15,-108.56 z m 555.4,-420.64 c 46.2,60.84 70.58,133.49 70.51,210.14 0,130.91 -72.58,245.19 -179.62,304.7 -2.83,1.58 -5.63,-2.18 -3.27,-4.4 9.78,-9.21 19.16,-19.06 28.13,-29.53 62.03,-72.54 97.77,-171.21 98.08,-270.77 0,-129.26 -86.46,-268.77 -226.15,-268.77 -124.66,0 -226.07,120.57 -226.07,268.77 0,69.63 23.35,136.5 63.21,186.12 1.4,1.75 -0.26,4.23 -2.41,3.6 -67.39,-19.92 -117.78,-97.39 -117.78,-189.64 0,-81.46 29.56,-162.56 81.12,-222.51 53.45,-62.16 125.19,-96.4 202.01,-96.4 80.81,0 158.17,39.62 212.25,108.69 z M 514.03,390.25 c 0,92.31 -44.84,171.97 -109.11,207.74 -7.96,4.43 -17.77,3.88 -25.14,-1.49 l -13.75,-10.03 c -56.37,-41.13 -91.39,-116.35 -91.39,-196.29 0,-92.3 44.84,-171.96 109.12,-207.73 7.97,-4.43 17.78,-3.88 25.14,1.49 l 13.74,10.03 c 56.37,41.13 91.39,116.34 91.39,196.29 z"
       id="path6" />
  </g>
</svg>
