<?xml version="1.0" encoding="UTF-8"?>
<svg xmlns="http://www.w3.org/2000/svg" xmlns:ns0="http://www.w3.org/2000/svg" version="1.1" viewBox="0 0 413 329">
  <defs>
    <style>
      .cls-1 {
        fill: #0500e1;
        stroke: #0500e1;
        stroke-width: .2px;
      }
    </style>
  </defs>
  <!-- Generator: Adobe Illustrator 28.7.5, SVG Export Plug-In . SVG Version: 1.2.0 Build 176)  -->
  <g>
    <g id="Layer_1">
      <g id="Layer_1-2" data-name="Layer_1">
        <g id="Layer_1-2">
          <g>
            <path class="cls-1" d="M318.6,111.4c-.3,0-.5-.1-.7-.3l-28.3-28.7c-.2-.2-.3-.5-.3-.7s.1-.5.3-.7l65.6-60.1c.4-.4,1.1-.3,1.4,0,.4.4.3,1.1,0,1.4l-64.9,59.4,27.6,27.9c.4.4.4,1,0,1.4-.2.2-.5.3-.7.3h0Z"/>
            <path class="cls-1" d="M289.9,139.7c-.3,0-.5,0-.7-.3-.4-.4-.4-1,0-1.4s.9-.9,1.3-1.3c.9-.9,1.9-1.9,2.9-2.9,15.7-14.4,31.5-28.8,47.2-43.2l11.7-10.8c.4-.4,1.1-.3,1.4,0,.4.4.3,1.1,0,1.4l-11.7,10.8c-15.8,14.4-31.5,28.8-47.2,43.2-.9.9-1.9,1.8-2.9,2.8s-.9.9-1.3,1.3c-.2.2-.5.3-.7.3h0Z"/>
            <path class="cls-1" d="M522.2,281.9h-.2c-.5-.1-.9-.7-.7-1.2.1-.4,0-.6-.9-1.3-.2-.2-.5-.3-.6-.5-4.2-4-8.5-8-12.7-11.8-1.6-1.5-3.3-3-4.9-4.5l-3.3-3c-7.3-6.8-14.6-13.4-21.8-20.2-3-2.8-5.7-5.8-8.4-8.8-1.5-1.7-3.2-3.6-4.9-5.3-9-9.4-19-18.5-28.5-27.3-3.7-3.4-7.5-6.9-11.3-10.3-1-.9-2-1.9-3.1-2.9-2.9-2.8-5.8-5.5-8.9-8.1-1.9-1.6-3.3-3.6-4.6-5.5-1.1-1.6-2.2-3.2-3.5-4.4-2.8-2.7-6-5.8-9.4-9l-.4-.4c-.6-.5-2.2-1.9-2.7-1.8-1.3.2-2.8.4-4.1.6-4.4.6-8.5,1.2-12.3,3.6-.5.3-1.1.2-1.4-.3s-.2-1.1.3-1.4c4.1-2.6,8.6-3.2,13-3.8,1.3-.2,2.7-.4,4-.6,1.5-.3,3.1,1.1,4.4,2.4l.4.4c3.5,3.2,6.8,6.4,9.5,9,1.4,1.4,2.7,3.2,3.8,4.7,1.3,1.8,2.6,3.7,4.2,5.1,3.1,2.7,6,5.4,8.9,8.2,1,.9,2,1.9,3.1,2.9,3.7,3.5,7.5,7,11.2,10.3,9.5,8.8,19.5,17.8,28.5,27.4,1.6,1.7,3.3,3.6,4.9,5.4,2.7,3,5.3,6,8.3,8.7,7.3,6.8,14.6,13.5,21.8,20.2l3.3,3c1.6,1.5,3.3,3,4.9,4.5,4.2,3.8,8.5,7.8,12.7,11.8.1.1.3.2.5.4.7.5,2,1.5,1.6,3.4-.1.5-.5.8-1,.8l.3-.2h0Z"/>
            <path class="cls-1" d="M774.9,559.8h0c-.6,0-1-.5-1-1s-.4-.9-1-1.5-.4-.3-.5-.5c-4.1-4.4-8.2-8.7-12.3-13-2.6-2.7-5.1-5.3-7.7-8-17.1-18.1-34.8-37.6-52.8-57.9-5.5-6.3-11.2-12.5-16.7-18.5-2.4-2.6-4.7-5.1-7-7.7-1.3.8-2.6,1.5-3.8,2.4-3.2,1.9-6.1,3.8-9.1,5.8-12.1,8.2-23.7,17.9-34.4,29-12.7,13.1-21.6,24.7-28.1,36.6-.3.5-.9.7-1.4.4s-.7-.9-.4-1.4c6.6-12.1,15.6-23.9,28.4-37.1,10.9-11.2,22.5-21,34.7-29.3,3-2,5.9-3.9,9.1-5.8,1.4-.9,3-1.8,4.5-2.8.4-.3,1-.2,1.3.2,2.6,2.8,5,5.5,7.6,8.3,5.5,6,11.2,12.3,16.7,18.5,17.8,20.3,35.6,39.8,52.7,57.9,2.6,2.7,5.1,5.3,7.6,8,4.1,4.2,8.2,8.6,12.3,13l.4.4c.7.7,1.7,1.6,1.6,3.2,0,.5-.5,1-1,1h.3,0Z"/>
            <path class="cls-1" d="M761.6,747.6c-2,0-2.9-1.4-3.5-2.6l-.2-.4c-1.6-2.7-3.3-5.3-4.8-7.9-9.3-14.9-17.2-27.3-25.7-39.3-2.7-3.8-5.3-7.7-8-11.5-9.7-13.9-19.7-28.4-30.9-41.5-3-3.5-5.9-7-8.9-10.5-6.1-7.3-12.5-14.8-19-21.9-10.8-12.1-22.6-25.2-37.2-41.1-9.4-10.2-19.2-20.4-27.5-29-2.2-2.3-2.8-4.9-1.7-7.4.4-.8.7-1.7,1-2.7.7-2.2,1.5-4.5,3.3-6.4.4-.4,1-.5,1.4,0,.4.4.5,1,0,1.4-1.4,1.5-2.2,3.6-2.9,5.6-.3.9-.6,1.8-1,2.8-.7,1.7-.3,3.5,1.3,5.1,8.3,8.6,18.1,18.9,27.6,29,14.7,15.9,26.4,28.9,37.3,41.1,6.5,7.3,12.8,14.8,19,21.9,3,3.5,5.9,7,8.9,10.5,11.4,13.2,21.4,27.7,31,41.6,2.7,3.8,5.3,7.7,8,11.5,8.5,12.1,16.5,24.5,25.8,39.5,1.6,2.6,3.3,5.2,4.8,7.9l.2.4c.6,1.1.9,1.5,1.7,1.5s1,.4,1,1-.4,1-1,1h0v.2h-.1Z"/>
            <path class="cls-1" d="M671.2,554.8c-.3,0-.5,0-.7-.3l-7.4-7.7c-5.3-5.4-10.6-11-15.9-16.5-6.9-7.2-13.8-14.4-20.7-21.6l-8.4-8.8c-.4-.4-.4-1,0-1.4s1-.4,1.4,0l8.4,8.8c6.9,7.2,13.8,14.4,20.7,21.6,5.3,5.5,10.6,11,15.9,16.5l7.4,7.7c.4.4.4,1,0,1.4s-.4.3-.7.3Z"/>
            <path class="cls-1" d="M698.3,526.7c-.2,0-.5,0-.7-.3-5.2-4.8-10-10.1-14.8-15.3-2.4-2.6-4.8-5.3-7.4-7.9-3.9-4.1-7.8-8.3-11.6-12.5-5.5-6.1-11.3-12.4-17.3-18.3-.4-.4-.4-1,0-1.4s1-.4,1.4,0c6,5.9,11.8,12.3,17.3,18.3,3.7,4.1,7.6,8.3,11.5,12.4,2.5,2.6,4.9,5.3,7.4,7.9,4.7,5.1,9.5,10.3,14.7,15.2.4.4.4,1,0,1.4s-.5.3-.7.3l.2.2Z"/>
            <path class="cls-1" d="M651.4,580.7c-.3,0-.5,0-.7-.3-15.3-16.4-32.2-33.9-51.5-53.4-.4-.4-.4-1,0-1.4s1-.4,1.4,0c19.4,19.6,36.3,37.1,51.5,53.5.4.4.4,1,0,1.4s-.4.3-.7.3h0Z"/>
            <path class="cls-1" d="M748.2,495.6c-.3,0-.6,0-.8-.4-5.2-6.9-11-13.4-16.6-19.8-3.4-3.9-7-7.9-10.3-11.9-2.3-2.7-4.6-5.3-6.9-7.9-4.1-4.6-8.3-9.3-12-14.4-.4-.6-.8-.7-1.5-.4l-2.4.8c-7,2.6-14.1,5.3-20.4,9.6-.5.3-1.1.2-1.4-.2-.3-.5-.2-1.1.2-1.4,6.5-4.5,13.7-7.3,20.8-9.9l2.4-.8c2-.7,3.3.2,4,1.2,3.6,5,7.8,9.7,11.9,14.2,2.4,2.6,4.7,5.2,7,8,3.4,4,6.9,8,10.2,11.9,5.6,6.4,11.5,13,16.7,19.9.3.4.3,1.1-.2,1.4-.2,0-.4.2-.6.2h0Z"/>
            <path class="cls-1" d="M774,514.5c-.4,0-.8-.2-.9-.6h0c-.4-1-.8-1.8-1.4-2.7-4.6-5-9.3-10.1-13.8-15.1-4.2-4.6-8.3-9.1-12.6-13.6-7.6-8.2-15-16.8-22.1-25.2-5.9-7-12-14-18.2-20.9l-5.3-5.8c-13.3-14.8-27.2-30.1-41.8-44.1-17.1-16.4-32.9-30.1-48.2-42-10-7.9-20.5-15.5-30.6-23-3.4-2.5-6.9-5-10.2-7.5-.6-.5-1.2-1-1.9-1.5-2.2-1.7-4.2-3.5-7-3.6-.6,0-1-.5-1-1.1s.5-1,1.1-1c3.5.2,5.9,2.2,8.2,4.1.6.5,1.2,1,1.8,1.4,3.4,2.5,6.9,5,10.2,7.5,10.1,7.4,20.7,15.1,30.7,23,15.3,12,31.2,25.8,48.3,42.2,14.7,14,28.5,29.4,41.9,44.2l5.3,5.8c6.3,6.9,12.4,14,18.2,21,7.2,8.3,14.4,16.9,22,25.1,4.2,4.5,8.4,9.1,12.6,13.6,4.5,4.9,9.2,10,13.8,15.1.9,1,1.4,2,1.8,3.1h0c.2.6,0,1.2-.5,1.5h-.4,0Z"/>
            <path class="cls-1" d="M693.6,649.3h-.4c-.5-.2-.7-.8-.5-1.4.8-1.6,1.4-3.4,2-5.1,1-2.8,2-5.6,3.8-8.2.2-.4.3-.4-.4-1.2l-.5-.5c-9.6-11.6-20-22.9-30-33.7-5.1-5.6-10.5-11.4-15.7-17.2-.4-.4-.3-1.1,0-1.4.4-.4,1.1-.3,1.4,0,5.1,5.7,10.5,11.6,15.7,17.1,10,10.9,20.4,22.1,30.1,33.8l.4.4c.6.7,1.8,1.9.6,3.8-1.6,2.4-2.6,5-3.6,7.8-.6,1.7-1.3,3.6-2.2,5.3-.2.4-.5.6-.9.6h.1Z"/>
            <path class="cls-1" d="M762.4,655.5c-.3,0-.6,0-.8-.3l-41.9-46.9c-.3-.4-.3-.9,0-1.3,6.4-8.5,14-15.7,21.4-22.6,1.5-1.4,3.2-3,4.7-4.4l-6.3-6.8c-5.5-6-11.1-12-16.5-17.9-5.7-6.3-11.5-12.5-17.2-18.8l-7.5-8.2c-.4-.4-.3-1.1,0-1.4.4-.4,1.1-.3,1.4,0l7.5,8.2c5.7,6.3,11.5,12.5,17.2,18.8,5.4,5.9,11,11.9,16.5,17.9l6.9,7.5c.4.4.4,1,0,1.4-1.8,1.7-3.7,3.5-5.4,5.1-7.2,6.7-14.6,13.5-20.7,21.6l41.4,46.3c.4.4.3,1.1,0,1.4-.2.2-.4.3-.7.3h0Z"/>
            <path class="cls-1" d="M700,634.1c-.2,0-.4,0-.6-.2-.4-.3-.5-1-.2-1.4,1-1.3,2-2.7,3.1-4.1,5.2-7,10.6-14.2,16.5-20.8l-47.4-52.1c-.4-.4-.3-1.1,0-1.4.4-.4,1.1-.3,1.4,0l48.1,52.8c.4.4.4,1,0,1.4-6.1,6.7-11.7,14.1-17,21.3-1,1.3-2,2.8-3.1,4.1s-.5.4-.8.4h.1Z"/>
            <path class="cls-1" d="M594.5,538.7h-.2c-1.8-.4-3-1.6-4.1-2.8l-.5-.5c-14.4-14.9-28.7-30.4-42.3-45.6l-6-6.7c-15.5-17-29.3-32.5-42.2-49-6.3-7.9-12.6-15.9-18.9-23.6-5.6-7-11.5-14.2-17.1-21.4-3.1-3.9-6-7.8-9-11.7-5.7-7.4-11.7-15.1-17.7-22.3-13.6-16.4-27.7-32.5-39.7-46-4.3-4.9-8.8-9.7-13.1-14.4-4.6-4.9-9.3-10-13.9-15.3-8-9.1-15.6-16.9-23-23.9-3.8-3.5-4.4-7.7-1.9-12.8.2-.5.8-.7,1.3-.5s.7.8.5,1.3c-2,4.3-1.6,7.5,1.5,10.3,7.5,7,15.1,14.9,23.1,24,4.5,5.1,9.2,10.2,13.8,15.2,4.4,4.7,8.8,9.5,13.2,14.4,12,13.5,26.1,29.7,39.7,46.1,6,7.4,12,15.1,17.7,22.4,3,3.9,6,7.8,9,11.6,5.6,7.2,11.5,14.3,17.1,21.4,6.3,7.7,12.7,15.7,18.9,23.7,12.9,16.5,26.7,31.9,42.1,48.9l6,6.7c13.6,15.1,27.8,30.7,42.3,45.5l.5.5c1,1,1.8,1.9,3.1,2.3.5,0,.9.7.7,1.2,0,.5-.5.8-1,.8h.1Z"/>
            <path class="cls-1" d="M59.3,163.5c-.3,0-.6-.1-.8-.4-.3-.5-.2-1.1.2-1.4,1.4-1,3.1-1.3,4.6-1.6.3,0,.6-.1.9-.2,7.7-1.5,15.2-4,22.1-7.5,8.8-4.4,15.5-10.7,20.3-19.1,1-1.7,2.2-3.5,3.2-5.2,2.8-4.3,5.3-8.4,6.8-13.3l.2-.6c1.2-4.2,2.5-8.6,1.9-12.4v-.6c-.6-4.7-1.2-9.6-1.3-14.6,0-1.2,0-2.5-.2-3.7-.3-3.5-.5-7,.7-10.2,2.5-6.5,6.3-14.7,13.2-20.5,2.4-2,4.8-4,7.2-5.9,1.3-1.1,2.8-2.3,4.1-3.4,2.7-2.2,5.3-4.4,8-6.6,6.8-5.6,13.7-11.4,20.6-17.1,4.7-3.9,9.5-7.9,14.1-11.7,5.2-4.3,10.7-8.7,16-13.2,2.3-1.9,4.6-3.9,6.9-5.8,10.9-9.3,22.1-18.9,34.2-26.9l1.4-.9c9.6-6.5,19.6-13.1,30.3-18.1,14-6.6,30.7-13.9,48.4-19.8,15.9-5.3,33.6-10.2,54.1-15.2,12.8-3.1,27.9-6.5,43.2-8.5,4.6-.6,9.2-1.3,13.7-1.9,5-.7,10.2-1.5,15.5-2.2,10.1-1.3,20.5-1.8,29.4-2.3,3.1,0,6.1-.2,9.2-.3,1.9,0,4,0,5.9-.1,8.8-.3,18.2,0,30.4.9h3.3c3.6,0,7.2,0,10.6,2.2.5.3.6.9.4,1.4-.3.5-.9.6-1.4.4-3-1.7-6.1-1.8-9.6-1.8s-2.3,0-3.4,0c-12.2-.9-21.5-1.2-30.2-.9h-5.9c-3,0-6.1,0-9.1.3-8.9.4-19.2,1-29.2,2.3-5.1.6-10.3,1.4-15.4,2.2-4.5.6-9.1,1.3-13.7,1.9-15.3,2-30.3,5.3-43,8.4-20.4,4.9-38,9.8-53.9,15.1-17.5,5.8-34.1,13.2-48.2,19.8-10.7,4.9-20.5,11.6-30.1,18l-1.4.9c-12,8.1-23.3,17.6-34,26.8-2.3,1.9-4.6,3.9-6.9,5.8-5.3,4.5-10.8,8.9-16,13.2-4.6,3.8-9.4,7.7-14.1,11.6-6.9,5.7-13.8,11.5-20.6,17.1-2.7,2.2-5.3,4.4-8,6.6-1.3,1.1-2.8,2.3-4.1,3.4-2.4,1.9-4.8,3.9-7.2,5.9-6.6,5.5-10,13.1-12.6,19.7-1.1,2.9-.8,6-.6,9.3,0,1.2.2,2.6.2,3.8,0,4.8.6,9.6,1.2,14.3v.6c.6,4.2-.7,8.8-1.9,13.2l-.2.6c-1.4,5.2-4.3,9.5-7,13.8-1,1.6-2.2,3.4-3.2,5.1-5,8.8-12,15.3-21.2,19.9-7.2,3.6-14.8,6.1-22.7,7.7-.3,0-.6.1-1,.2-1.4.2-2.7.4-3.8,1.2-.2.1-.4.2-.6.2h.2,0Z"/>
            <path class="cls-1" d="M466.6,391.5h-.4c-.5-.2-.7-.8-.5-1.3,5.2-11.6,11.9-22.1,19.8-31.4l-27.7-30c-.4-.4-.4-1.1,0-1.4.4-.4,1.1-.4,1.4,0l28.3,30.7c.4.4.4,1,0,1.4-8.1,9.2-14.8,19.8-20.1,31.6-.2.4-.5.6-.9.6v-.2h.1Z"/>
            <path class="cls-1" d="M646.7,471.4c-.3,0-.5,0-.7-.3-2.6-2.8-5.1-5.4-7.7-8.2-5.8-6.3-12-12.7-17.9-19.2-5.3-5.7-11-11.5-16.4-17.1-2.5-2.5-4.8-4.9-7.2-7.5-2.9-3-5.7-6.1-8.6-9.1-3.1-3.3-6.3-6.8-9.4-10-5.5-5.7-11.3-11.5-16.8-17.1-2.4-2.4-4.7-4.8-7.1-7.2-.2-.2-.3-.5-.3-.8s0-.5.4-.7c7.7-6.5,16-11.6,24.1-16.6,1.5-.9,3-1.8,4.4-2.8.5-.3,1.1-.2,1.4.3.3.5.2,1.1-.3,1.4-1.4.9-3,1.8-4.5,2.8-7.7,4.8-15.7,9.7-23.1,15.7,2,2.2,4.2,4.2,6.3,6.4,5.5,5.6,11.3,11.4,16.8,17.1,3.2,3.3,6.5,6.8,9.5,10,2.8,3,5.6,6.1,8.5,9.1,2.4,2.5,4.8,4.9,7.2,7.5,5.4,5.5,11.1,11.3,16.4,17.1,5.9,6.4,12,12.8,17.9,19.1,2.6,2.8,5.1,5.4,7.7,8.2.4.4.4,1,0,1.4s-.4.3-.7.3v.2h.1Z"/>
            <path class="cls-1" d="M617.9,499.7c-.3,0-.6,0-.8-.3-12.8-14.3-26.5-28.4-39.8-41.9-2.9-2.9-5.6-5.8-8.5-8.7s-.4-1,0-1.4,1-.4,1.4,0c2.9,2.9,5.6,5.8,8.5,8.7,13.2,13.6,26.9,27.7,39.9,42,.4.4.3,1.1,0,1.4s-.4.3-.7.3h0Z"/>
            <path class="cls-1" d="M675.8,451.1c-.3,0-.6,0-.8-.3-16.6-18.9-33.6-37.3-50.6-54.5-14.9-15.1-28.3-28.5-41.2-40.9-7-6.7-14.2-13.1-21.4-19.4-7-6.1-14.1-12.4-21-19-.9-.8-1.7-.9-2.9-.2-1.9,1.2-3.9,2.5-5.8,3.7-6.3,3.9-12.8,8-18.3,13-.4.4-1.1.3-1.4,0s-.3-1.1,0-1.4c5.7-5.1,12.3-9.3,18.6-13.2,1.9-1.2,3.9-2.5,5.7-3.7,1.9-1.2,3.9-1.1,5.4.4,6.8,6.5,13.9,12.8,20.9,18.9,7.2,6.3,14.4,12.7,21.4,19.4,12.9,12.4,26.3,25.8,41.2,40.9,17,17.3,34,35.7,50.6,54.6.4.4.3,1.1,0,1.4s-.4.3-.7.3h.3Z"/>
            <path class="cls-1" d="M598.3,525.6c-.3,0-.5,0-.7-.3-2.4-2.5-4.8-5-7.2-7.5-5.4-5.6-11-11.6-16.6-17.3-5.4-5.6-11.1-11.3-16.4-16.8-2.4-2.5-4.8-4.9-7.2-7.3s-.4-1,0-1.4,1-.4,1.4,0c2.4,2.5,4.8,4.9,7.2,7.3,5.4,5.4,11,11.2,16.5,16.8,5.5,5.7,11.2,11.6,16.6,17.3,2.4,2.5,4.8,5,7.2,7.5.4.4.4,1,0,1.4s-.4.3-.7.3h-.1Z"/>
            <path class="cls-1" d="M83.9,261.9c-.3,0-.6-.1-.8-.4-.4-.4-.3-1.1,0-1.4l17.4-14.6-25.1-29.9c-.4-.4-.3-1.1,0-1.4.4-.4,1.1-.3,1.4.1l25.8,30.7c.2.2.3.5.2.7s-.2.5-.4.7l-18.2,15.2c-.2.2-.4.2-.6.2h.3Z"/>
            <path class="cls-1" d="M699.8,440.3c-.3,0-.6,0-.8-.4-.4-.4-.6-.9-.8-1.3s-.5-.8-.8-1.2c-5.1-5.4-10.6-11.4-17.6-19.3-2.9-3.2-5.9-6.4-8.9-9.4-5.4-5.6-11.1-11.5-16-17.9-.4-.5-1.7-1.7-3.2-.9-1.5.9-3.3,1.4-4.9,1.9-1.4.4-2.8.8-3.9,1.4-1.4.7-3,1.3-4.4,1.9-3.1,1.2-5.9,2.4-8.1,4.8-.4.4-1,.5-1.4.1s-.5-1,0-1.4c2.5-2.9,5.7-4.2,8.9-5.4,1.4-.6,2.9-1.1,4.2-1.8,1.4-.7,2.9-1.2,4.3-1.6,1.6-.5,3.1-.9,4.4-1.7,2.2-1.3,4.6-.3,5.9,1.4,4.8,6.3,10.5,12.1,15.8,17.7,3,3.1,6,6.3,8.9,9.5,7.1,7.9,12.5,13.8,17.6,19.3.5.5.8,1.1,1.1,1.6.2.4.4.7.6,1,.4.4.3,1.1,0,1.4s-.4.2-.6.2h-.3Z"/>
            <path class="cls-1" d="M769.3,754.7c-2.7,0-4.8-.8-6.3-2.4-1.6-1.7-2.3-4.4-1.7-7.5.9-6.4,3.3-11.8,6.9-16.2,1.1-1.3,1-1.9.2-3.5-6.9-12.2-15.4-23.6-23.7-34.5-2.2-2.8-4.2-5.6-6.4-8.4-5.8-7.9-12.4-15.5-18.8-22.7-1.8-2.2-3.8-4.3-5.6-6.6-1.5-1.8-3.1-3.7-4.5-5.5-3.2-4-6.5-8.2-10.5-11.6-.4-.4-.5-1,0-1.4s1-.5,1.4,0c4.1,3.6,7.5,7.8,10.7,11.9,1.4,1.8,3,3.7,4.5,5.5,1.8,2.2,3.7,4.3,5.6,6.6,6.4,7.4,12.9,15,18.9,22.9,2,2.8,4.2,5.6,6.4,8.4,8.3,11.1,16.9,22.4,23.9,34.7,1,1.7,1.6,3.4-.4,5.8-3.4,4-5.5,9.1-6.5,15.2-.4,2.6,0,4.5,1.2,5.8,1.1,1.2,3.1,1.8,5.6,1.6,5.4-.4,10.9-2.5,17.1-6.6.7-.5,1.5-.8,2.3-1.1,1.5-.6,2.8-1.1,3.4-2.7.2-.5.8-.8,1.3-.6s.8.8.6,1.3c-.8,2.4-2.8,3.2-4.5,3.9-.7.3-1.4.5-1.9.9-6.6,4.3-12.3,6.5-18,6.9h-1.1v-.2Z"/>
            <path class="cls-1" d="M550.3,474.9h-.6c-.3,0-.7-.2-1-.5-12.9-14.3-25.7-28.8-38.6-43.1l-1.6-1.8c-.4-.4-.3-1.1,0-1.4s1.1-.3,1.4,0l1.6,1.8c12.8,14.3,25.7,28.7,38.5,43h.4c.5.2.8.8.6,1.3-.2.4-.5.6-.9.6h.2Z"/>
            <path class="cls-1" d="M508.4,428.1c-.3,0-.6,0-.8-.4-1.7-2.3-3.6-4.4-5.3-6.6-4-4.9-8.1-9.9-12-15.1-1.4-1.8-2.8-3.6-4.1-5.4-4.7-6.3-9.5-12.7-15.3-18.1-.4-.4-.4-1,0-1.4s1-.4,1.4,0c5.9,5.5,10.8,12.1,15.6,18.3,1.3,1.8,2.7,3.6,4.1,5.4,3.9,5,8,10.1,12,15,1.7,2.2,3.6,4.4,5.3,6.7.4.4.3,1.1-.2,1.4-.2.2-.4.2-.6.2h-.1Z"/>
            <path class="cls-1" d="M568.7,447.5c-.3,0-.5,0-.7-.3-1.5-1.6-3.1-3.4-4.5-5-3.3-3.7-6.7-7.5-10.1-11.1-3.3-3.3-6.5-6.8-9.5-10.1-5.3-5.7-10.8-11.8-16.6-17.1-.4-.4-.4-1,0-1.4s1-.4,1.4,0c5.9,5.4,11.5,11.5,16.8,17.2,3.1,3.4,6.3,6.8,9.4,10.1,3.5,3.6,6.9,7.4,10.1,11.1,1.5,1.6,3,3.4,4.5,5,.4.4.3,1.1,0,1.4s-.4.3-.7.3h-.1Z"/>
            <path class="cls-1" d="M651.5,389.6c-.5,0-.9-.4-1-.9-.2-1.2-1-2-2-3-.2-.2-.5-.4-.7-.7l-2.4-2.4c-3.5-3.5-7.1-7.2-10.9-10.5-2.5-2.2-4.8-4.3-7.3-6.6-9-8.1-18.2-16.4-28.1-23.8-5.2-3.9-10.3-7.9-15.4-11.9-7.6-5.8-15.3-12-23.3-17.6,0,0-.2-.2-.4-.3-.8-.5-2-1.3-1.8-3.2.3-2.2-1.2-3.4-3.1-4.7l-3.7-2.9c-9.6-7.5-19.6-15.2-28.6-23.6-2.7-2.5-5.4-5-8.1-7.5-1.8-1.6-3.6-3.3-5.4-5l-10.3-9.5c-9.3-8.5-18.9-17.4-28.3-26-.3-.2-.5-.5-.7-.7-1.1-1.1-1.8-1.8-3.1-1.6-.5,0-1.1-.3-1.2-.8s.3-1.1.8-1.2c2.4-.4,3.8,1,4.9,2.3.2.2.4.5.7.7,9.4,8.7,19.1,17.5,28.4,26l10.3,9.5c1.8,1.6,3.6,3.3,5.4,5,2.8,2.5,5.4,5,8.1,7.5,9,8.4,19,16.1,28.5,23.5l3.7,2.9c1.8,1.4,4.2,3.3,3.8,6.7,0,.5,0,.7.9,1.2,0,0,.3.2.4.3,7.9,5.6,15.8,11.8,23.3,17.6,5,3.9,10.1,8,15.4,11.8,9.9,7.5,19.3,15.8,28.2,23.9,2.5,2.2,4.8,4.3,7.3,6.6,3.8,3.4,7.4,7,11,10.6l2.4,2.4c.2.2.4.4.7.6,1.1,1,2.5,2.3,2.7,4.2,0,.6-.3,1.1-.9,1.1h-.1Z"/>
            <path class="cls-1" d="M527,402.6c-.3,0-.5-.1-.7-.3l-39.1-41.6c-.4-.4-.4-1,0-1.4s1-.4,1.4,0l39.1,41.6c.4.4.4,1,0,1.4s-.4.3-.7.3h0Z"/>
            <path class="cls-1" d="M297.5-30.6c-.3,0-.7-.2-.8-.5-.3-.5-.2-1.1.3-1.4,15.3-9.8,31.7-17.7,45.8-24.1,12.2-5.5,25-10.2,37.4-14.9l3.3-1.2c.3,0,.7,0,1,.2,1.3,1,1.9,2.5,2.5,3.8.3.8.6,1.5,1.1,2.3,2.2,3.1,4.1,6.4,5.8,9.5.7,1.3,1.5,2.7,2.3,3.9.3.5.1,1.1-.4,1.4-.5.3-1.1,0-1.4-.4-.8-1.3-1.5-2.7-2.3-4-1.8-3.2-3.7-6.5-5.7-9.4-.6-.8-1-1.7-1.3-2.7-.4-1-.8-1.9-1.4-2.7l-2.7,1c-12.3,4.6-25.1,9.3-37.3,14.9-14,6.4-30.3,14.1-45.5,23.9-.2,0-.4.2-.5.2v.2h-.1Z"/>
            <path class="cls-1" d="M528.5,402.1c-.2,0-.4,0-.6-.2-.4-.4-.5-1-.2-1.4,7-8.7,15.5-16.2,23.6-23.5.8-.7,1.5-1.4,2.4-2.2-2.3-2.3-4.5-4.5-6.8-6.8-11.2-11.2-22.9-22.6-34.7-33.4-.4-.4-.4-1,0-1.4s1-.4,1.4,0c12,10.8,23.6,22.3,34.8,33.5,2.6,2.5,5,5,7.6,7.5.2.2.3.5.3.7,0,.3,0,.5-.3.7-1,.9-2.2,1.9-3.2,2.9-8.5,7.6-16.5,14.7-23.4,23.3-.2.2-.5.4-.8.4h-.1Z"/>
            <path class="cls-1" d="M102.8,308.8c-.5,0-1-.4-1-.9-.4-5.2-2.7-10-4.8-14.8-.3-.7-.6-1.4-1-2.2-1.1-2.7-1.4-4.5.7-6.6,13.7-12.9,26.4-24.1,39.1-34.1.4-.3,1.1-.3,1.4.2.3.4.3,1.1-.2,1.4-12.6,10-25.3,21.2-39,34-1.1,1.1-1.3,1.8-.3,4.2.3.7.6,1.4,1,2.2,2.3,4.8,4.5,9.8,5,15.4,0,.6-.4,1-.9,1.1h0Z"/>
            <path class="cls-1" d="M443.4,347.1c-.2,0-.5,0-.7-.2-5.3-4.7-10-10.1-14.6-15.4-1.6-1.9-3.4-3.9-5-5.8-14.9-16.7-31.3-34.2-50.2-53.4-.4-.4-.4-1,0-1.4s1-.4,1.4,0c18.9,19.3,35.4,36.7,50.2,53.5,1.7,1.9,3.4,3.9,5,5.8,4.5,5.2,9.1,10.7,14.3,15.2.4.4.5,1,0,1.4-.2.2-.5.3-.8.3h.3Z"/>
            <path class="cls-1" d="M783.2,620.5c-.4,0-.7-.2-.9-.5-1.9-3.5-4.6-6.1-7.5-8.9-1.4-1.3-2.9-2.8-4.1-4.2-5.6-6.3-11.4-12.5-16.9-18.5-2.4-2.5-4.6-5-6.9-7.5-.4-.4-.4-1,0-1.4,5.4-5.2,11.5-9.6,17.2-13.8,2.2-1.6,4.5-3.3,6.7-4.9l.5-.4c1.3-1,3-2.4,5.2-2.2.6,0,1,.5.9,1.1,0,.6-.5,1-1.1.9-1.4,0-2.7.8-3.8,1.7l-.5.4c-2.3,1.6-4.5,3.4-6.7,4.9-5.5,4-11.2,8.1-16.3,13,2,2.3,4.1,4.4,6.1,6.7,5.5,6,11.4,12.3,16.9,18.5,1.2,1.4,2.7,2.8,4,4.1,2.9,2.8,5.8,5.7,7.9,9.4.3.5,0,1.1-.4,1.4h-.5.1Z"/>
            <path class="cls-1" d="M481.3,303.6c-.3,0-.5,0-.7-.3l-38.9-38.2c-.4-.4-.4-1,0-1.4,2.8-3.2,5.9-5.4,8.9-7.7h0c1-.8,2.2-1.6,3.2-2.5,3.1-2.4,6.3-4.8,9.9-6.4,1.3-.6,2.7-1.2,4-1.8,3.7-1.6,7.5-3.4,11.5-4.5.5-.1,1.1.2,1.2.7.2.5-.2,1.1-.7,1.2-3.9,1.1-7.6,2.8-11.2,4.4-1.3.6-2.7,1.2-4.1,1.8-3.5,1.5-6.5,3.9-9.4,6.1-1,.8-2.2,1.6-3.2,2.5h0c-2.7,2-5.5,4.1-8,6.7l38.2,37.5c.4.4.4,1,0,1.4s-.5.3-.7.3h0Z"/>
            <path class="cls-1" d="M406.5,306c-.2,0-.4,0-.6-.2-.4-.3-.5-1-.2-1.4,1.2-1.5,2.4-3.1,3.6-4.7,2.6-3.4,5.3-7,8-10.3,6.5-8.1,13.8-16.2,23.2-25.2-.2-.3-.3-.5-.5-.7-3-3-6-5.9-9-8.9-9.1-9-18.5-18.2-27.9-27.3-5.9-5.7-12-11.5-17.9-17-2.7-2.6-5.3-5-8-7.6-.4-.4-.4-1,0-1.4s1-.4,1.4,0c2.7,2.6,5.3,5,8,7.6,5.9,5.5,12,11.3,17.9,17.1,9.3,9,18.8,18.3,27.9,27.3,3,3,6,5.9,9,8.9.3.3.6.7.8,1.1.1.2.2.4.4.6.3.4.2.9-.1,1.3-9.5,9.3-17,17.4-23.6,25.6-2.7,3.4-5.4,6.9-8,10.3-1.2,1.5-2.4,3.1-3.6,4.7-.2.3-.5.4-.8.4v-.2h0Z"/>
            <path class="cls-1" d="M456.9,327.3c-.3,0-.6-.1-.8-.3l-1.2-1.4c-.8-.9-1.6-1.8-2.6-2.8l-1.2-1.3c-9.9-10.8-20.1-21.8-30.7-32.2-.4-.4-.4-1,0-1.4s1-.4,1.4,0c10.7,10.3,20.9,21.5,30.8,32.3l1.2,1.3c.8.9,1.7,1.8,2.6,2.9l1.2,1.3c.4.4.3,1.1,0,1.4s-.4.3-.7.3h0Z"/>
            <path class="cls-1" d="M506.3,285.9c-.2,0-.5,0-.7-.3l-7.1-6.7c-5.7-5.4-11.5-10.8-17.2-16.2-1.2-1.1-2.6-2.4-3.8-3.5-3.7-3.4-7.6-6.9-10.8-11-.3-.4-.3-1.1.2-1.4.4-.3,1.1-.3,1.4.2,3.1,4,6.9,7.4,10.6,10.7,1.2,1.1,2.6,2.3,3.8,3.5,5.7,5.4,11.5,10.8,17.2,16.2l7.1,6.7c.4.4.4,1,0,1.4s-.5.3-.7.3h0Z"/>
            <path class="cls-1" d="M385-70c-.3,0-.6,0-.8-.3-.4-.4-.3-1.1,0-1.4.1,0,.2-.2.3-.3.4-.4.9-.9,1.8-1.2,3.7-1.1,7.3-2.3,11-3.4,10.3-3.3,21.1-6.6,32-9,3.2-.7,6.4-1.4,9.4-2.2,12.4-2.9,25.3-5.8,38.2-8,3.7-.6,7.4-1.1,11-1.5,3.9-.5,7.9-1,11.8-1.7,4.2-.7,8.5-1.1,12.7-1.4,4.8-.4,9.8-.8,14.7-1.8,1.3-.3,2.7-.2,3.9,0,2.2,0,4.1.2,5.6-1.2.4-.4,1.1-.3,1.4,0,.4.4.3,1.1,0,1.4-2.3,2-4.9,1.8-7.2,1.7-1.2,0-2.4-.1-3.4,0-4.9,1-10,1.4-14.9,1.8-4.1.4-8.4.7-12.5,1.4-3.9.7-8,1.2-11.9,1.7-3.6.5-7.3.9-11,1.5-12.8,2.2-25.6,5.1-38,8-3.2.7-6.4,1.4-9.4,2.2-10.8,2.5-21.4,5.7-31.8,9-3.7,1.1-7.3,2.3-11,3.4-.4,0-.5.3-.9.6-.1.2-.3.3-.5.5s-.4.3-.7.3h.1Z"/>
            <path class="cls-1" d="M359.9-31.2c-.3,0-.7-.2-.9-.5-.3-.5-.1-1.1.4-1.4,1.6-.9,3.3-1.8,4.9-2.9,3.6-2.2,7.3-4.3,11.1-6.3,2-1.1,4.1-2.2,6-3.3,6.5-3.5,13.1-7.1,20.1-10,6.8-2.9,13.7-5.9,20.4-8.8,3-1.3,5.8-2.6,8.8-3.9.5-.2,1.1,0,1.3.5.2.5,0,1.1-.5,1.3-3,1.3-5.8,2.6-8.8,3.9-6.7,3-13.5,5.9-20.4,8.8-6.9,2.9-13.4,6.5-19.9,9.9-2,1.1-4.1,2.2-6.1,3.3-3.7,1.9-7.4,4.1-11,6.3-1.6.9-3.3,1.9-4.9,2.9h-.5v.2Z"/>
            <path class="cls-1" d="M432.3-66.5c-.4,0-.8-.3-1-.7-.2-.5,0-1.1.6-1.3,20.3-7.4,44.3-15.7,68.7-21.8.5-.1,1.1.2,1.2.7s-.2,1.1-.7,1.2c-24.3,6.1-48.2,14.4-68.4,21.8h-.3Z"/>
            <path class="cls-1" d="M228.9,24.6c-.3,0-.6-.1-.8-.4-.4-.4-.3-1.1.2-1.4l11.9-9.6c9.1-7.4,18.2-14.8,27.4-22.1,6.4-5.1,12.7-10.2,19.2-15.4l8.8-7.1c.4-.4,1.1-.3,1.4.2.3.4.3,1.1-.2,1.4l-8.8,7.1c-6.4,5.1-12.8,10.2-19.2,15.4-9.1,7.4-18.2,14.8-27.4,22.1l-11.9,9.6c-.2.2-.4.2-.6.2h0Z"/>
            <path class="cls-1" d="M465.2,248.3c-.4,0-.7-.2-.9-.5-.1-.2-.2-.5-.3-.7-.2-.5-.4-.9-.7-1.2l-8.7-8.2c-12.3-11.6-25.1-23.6-37.5-35.6-1.4-1.4-3-2.8-4.5-4.2-4.1-3.8-8.4-7.7-11.9-12.3-.3-.4-.3-1.1.2-1.4.4-.3,1.1-.3,1.4.2,3.4,4.4,7.6,8.3,11.6,12,1.4,1.3,3,2.8,4.5,4.2,12.4,12,25.1,24,37.5,35.6l8.7,8.2c.6.6.9,1.2,1.2,1.8,0,.2.2.4.3.6.3.5,0,1.1-.4,1.4-.2,0-.3.1-.5.1h0Z"/>
            <path class="cls-1" d="M289.5,81.8c-.2,0-.5,0-.7-.3l-30.8-29.2c-.2-.2-.3-.5-.3-.8s.1-.6.3-.7l33.8-29.7-27.7-24c-.4-.4-.5-1-.1-1.4s1-.5,1.4,0l28.6,24.8c.2.2.3.5.3.8s-.1.6-.3.8l-33.8,29.8,30,28.5c.4.4.4,1,0,1.4-.2.2-.5.3-.7.3v-.2h0Z"/>
            <path class="cls-1" d="M419.4,287.4c-.3,0-.5,0-.7-.3l-.3-.3-32.9-33.2c-.4-.4-.4-1,0-1.4s1-.4,1.4,0l33.2,33.5c.4.4.4,1,0,1.4s-.5.3-.7.3h0Z"/>
            <path class="cls-1" d="M470.7,381.4c-.2,0-.4,0-.6-.2-1.1-.8-1.8-1.9-2.6-3-.3-.5-.6-.9-1-1.4-3.2-3.9-6.1-8-9.1-12-4.2-5.7-8.6-11.7-13.4-17.1-.4-.4-.3-1.1,0-1.4s1.1-.3,1.4,0c4.9,5.4,9.3,11.5,13.5,17.2,2.9,4,5.9,8.1,9,11.9.4.5.7,1,1.1,1.5.7.9,1.3,1.8,2.2,2.6.4.3.5,1,.2,1.4-.2.3-.5.4-.8.4h.1Z"/>
            <path class="cls-1" d="M338.8,130.9c-.3,0-.5-.1-.7-.3-.4-.4-.4-1,0-1.4.8-.8,1.6-1.6,2.5-2.5,1.7-1.8,3.7-3.7,5.6-5.4,4.4-3.9,8.9-8,13.2-11.9,8.8-8,17.8-16.2,27.3-23.8.4-.4,1.1-.3,1.4.1.4.4.3,1.1-.1,1.4-9.3,7.6-18.3,15.8-27.2,23.8-4.3,3.9-8.8,8-13.2,11.9-1.8,1.6-3.7,3.5-5.5,5.3-.8.8-1.6,1.6-2.6,2.6-.2.2-.5.3-.7.3h0Z"/>
            <path class="cls-1" d="M325.5-5.7c-.3,0-.6,0-.8-.4-.3-.4-.2-1.1.2-1.4,6.3-4.6,12.2-9.1,17.6-13.4,1.8-1.4,3.8-2.8,5.6-4,3.4-2.3,6.8-4.7,9.6-7.7.4-.4,1-.4,1.4,0s.4,1,0,1.4c-3,3.2-6.6,5.5-9.9,7.9-1.8,1.2-3.7,2.6-5.5,4-5.5,4.3-11.5,8.8-17.7,13.4-.2,0-.4.2-.6.2h.1Z"/>
            <path class="cls-1" d="M356.5,20.7h-.1c-.6,0-.9-.6-.9-1.1.1-1,.2-2,.4-3.1.2-2.3.5-4.7,1.1-7,3.8-13.4,11.8-24.3,23.8-32.2,5.8-3.8,11.8-7.6,17.6-11.3,2.4-1.4,4.6-3,7-4.4-.6-1-1.3-2-1.9-3.1l-.3-.5c-.8-1.2-1.7-2.4-2.9-3.5-1.6-1.8-3.4-3.7-4.3-6.3-.2-.5,0-1.1.6-1.3.5-.2,1.1,0,1.3.6.8,2.2,2.4,3.8,3.9,5.6,1,1.1,2.2,2.4,3.1,3.7l.3.5c.8,1.3,1.7,2.7,2.6,4,.3.5.1,1.1-.3,1.4-2.6,1.6-5.2,3.3-7.8,4.9-5.7,3.7-11.8,7.4-17.5,11.3-11.6,7.6-19.3,18-23,30.9-.6,2.2-.8,4.3-1,6.7-.1,1-.2,2.2-.4,3.2,0,.5-.5.9-1,.9h-.2Z"/>
            <path class="cls-1" d="M154.5,179c-.3,0-.5-.1-.7-.3-.4-.4-.4-1,0-1.4,1.5-1.4,3.2-3,4.7-4.4,3.5-3.3,7.1-6.6,10.8-9.8,8.9-7.7,17.8-12.9,27.4-16,4.2-1.3,8.4-2,12.5-2.7s4.2-.7,6.3-1.1c.5-.1,1.1.2,1.2.8.1.5-.2,1.1-.8,1.2-2,.4-4.2.8-6.3,1.1-4,.7-8.2,1.3-12.2,2.7-9.2,2.9-17.9,8-26.6,15.6-3.6,3.2-7.2,6.5-10.7,9.7-1.5,1.4-3.2,3-4.7,4.4-.2.2-.4.3-.7.3h-.1Z"/>
            <path class="cls-1" d="M8.3,200h0c-.6,0-1-.5-.9-1.1.2-2.3,1.8-3.4,3.1-4.3.4-.3.8-.5,1.1-.8,7-6.1,14-12.4,20.9-18.4,3.9-3.4,7.8-6.9,11.7-10.2s5.8-3.4,9.2-3.1h1.1c2.6.2,5.4.4,7.9,3,2,2.2,5.2,3.9,8,4.3,2.2.3,4.7-.5,7.2-1.3.5-.2,1-.3,1.5-.5,1.8-.6,3.8-1.1,5.6-1.5,3.8-1,7.7-1.9,11.2-3.8,1.8-.9,4-.5,5.8,1.1,2.4,2.2,4.9,4.2,7.5,6.1,3,2.4,6,4.8,8.9,7.6.4.4.7.9,1,1.4.5.8.9,1.3,1.5,1.4.6,0,.9.6.8,1.2,0,.6-.6.9-1.2.8-1.6-.3-2.5-1.4-3.1-2.5-.2-.4-.5-.8-.7-1-2.8-2.7-5.7-5-8.7-7.4-2.6-1.9-5.1-4.1-7.6-6.3-1.1-1-2.5-1.3-3.5-.8-3.7,1.9-7.7,3-11.6,4-1.8.5-3.7.9-5.5,1.5-.5.2-1,.3-1.5.5-2.7.9-5.5,1.8-8.2,1.4-3.3-.5-6.9-2.5-9.2-4.9-1.9-2-4.2-2.2-6.6-2.4h-1.1c-2.8-.2-5.5.7-7.7,2.6-3.9,3.4-7.8,6.9-11.7,10.2-6.9,6-14,12.2-20.9,18.4-.4.3-.8.7-1.2.9-1.1.8-2,1.5-2.3,2.8,0,.5-.5.9-1,.9h.1Z"/>
            <path class="cls-1" d="M407.2-37.1c-.2,0-.4,0-.6-.2-.5-.3-.6-.9-.3-1.4.7-1.1,1.7-1.1,2.5-1.1h.8c19-10.5,38.8-18.6,57.6-26,.8-.3,1.6-.5,2.6-.7,1.6-.4,3.3-.8,4.6-2-8.4-9.7-13.4-21.1-18.2-35-.2-.5,0-1.1.6-1.3.5-.2,1.1,0,1.3.6,4.9,14,9.9,25.4,18.4,35,.3.4.3.9,0,1.3-1.8,2.3-4.2,2.8-6.3,3.3-.8.2-1.5.4-2.3.7-18.6,7.5-38.5,15.6-57.4,25.9-.6.3-1.2.4-1.7.4s-.7,0-.8.2c-.2.3-.5.5-.8.5h0Z"/>
            <path class="cls-1" d="M374.5,57.4c-.4,0-.8-.2-.9-.6-.2-.5,0-1.1.5-1.3,1-.4,1.4-1.4,1.9-2.6.2-.4.3-.7.5-1.1,4.6-8.5,10-15.3,16.2-20,12.4-9.4,22.3-15.9,32.2-21.1,11.8-6.1,24.1-12,36.5-17.3,22.6-9.6,45.4-17.4,67.7-23.2,2.5-.6,4.9-1.2,7.4-1.8,4.4-1,8.9-2.2,13.4-3.5,2.4-.7,4.9-1.1,7.3-1.5,2.3-.4,4.6-.8,6.8-1.4s3.5-1.4,4-2.5c.5-.9.4-2.2,0-3.7-.4-1.2-.7-2.5-.9-3.6-.3-1.8-.7-3.6-1.7-5.1-1.6-2.7-3.2-3.7-5.4-3.8-6.4-.3-12.8-.5-19.1-.7l-5.9-.2c-11.2-.4-22.7-.4-34.4,0-1.3,0-2.8.2-4.2.3-3.2.3-6.6.6-9.6-.2-3.9-1-7.1.2-10.6,1.7-10.6,4.6-20.9,9.9-30.1,14.6s-20.1,11.4-29.6,17.4c-1.7,1.1-3.5,2.3-5.3,3.3-1.1.7-1.5,1.2-1.5,2s-.5,1-1.1,1-1-.5-1-1.1c0-1.9,1.3-2.9,2.5-3.7,1.7-1.1,3.5-2.3,5.2-3.3,9.5-6,19.5-12.3,29.7-17.5,9.2-4.7,19.7-9.9,30.2-14.7,3-1.3,7-3.1,11.9-1.8,2.8.7,5.7.4,8.9,0,1.4,0,2.9-.3,4.3-.3,11.7-.3,23.4-.3,34.5,0l5.9.2c6.3.2,12.7.4,19.2.7,3.7.2,5.6,2.4,7.1,4.7,1.2,1.9,1.6,4,2,5.8.2,1.1.4,2.3.8,3.3.8,2.2.8,3.9,0,5.4-.8,1.6-2.6,2.8-5.3,3.5-2.4.6-4.7,1-7,1.4-2.4.4-4.8.8-7.1,1.4-4.5,1.2-9,2.4-13.4,3.5-2.5.6-4.9,1.2-7.4,1.8-22.2,5.7-45,13.4-67.4,23.1-12.4,5.3-24.7,11.1-36.4,17.2-9.7,5.1-19.6,11.6-31.9,20.9-5.9,4.5-11.2,11-15.7,19.3-.2.3-.3.6-.4.9-.6,1.2-1.3,2.9-3.1,3.6h-.4l.4.4h-.1Z"/>
            <path class="cls-1" d="M419.2-2.8c-.4,0-.7-.2-.9-.6-1.3-2.8-1.9-5.7-2.7-8.6-.5-2.3-1-4.5-1.8-6.8-.1-.3,0-.6,0-.8.1-.3.4-.4.7-.5,1.5-.4,3-.7,4.4-1.1,3.1-.8,6-1.5,9-2.2,7.6-1.5,15.1-3.9,22.3-6,2.9-.9,5.7-1.7,8.7-2.6,2.2-.6,4.2-1.3,6.4-1.9,5.5-1.7,11.2-3.6,17.1-4.3.6,0,1.1.3,1.1.9s-.3,1.1-.9,1.1c-5.7.7-11.4,2.6-16.8,4.3-2,.6-4.2,1.3-6.4,1.9-2.9.8-5.7,1.7-8.6,2.6-7.3,2.3-14.9,4.5-22.4,6.1-3,.6-5.8,1.3-8.9,2.2-1.1.3-2.3.6-3.4.8.6,1.9,1.1,4,1.5,5.9.6,2.9,1.3,5.6,2.5,8.2.2.5,0,1.1-.5,1.3h-.4Z"/>
            <path class="cls-1" d="M100.5,162.8c-.3,0-.7-.2-.9-.5-.3-.5,0-1.1.4-1.4.6-.4,1.2-.7,1.9-1.1,1.3-.8,2.8-1.6,4.3-2.5,5.6-2.9,11.3-6.7,18.3-12.2,5.3-4.2,9.3-10,13.2-15.6.9-1.3,1.8-2.7,2.8-4,.3-.5.7-1,1.1-1.4,1.1-1.5,2.3-3.1,3-4.5,2-4.3,3.6-8.9,5.1-13.4.7-2.3,1.5-4.5,2.4-6.8.5-1.2.9-2.6,1.3-3.9,1.1-3.6,2.4-7.3,4.6-10.3,2.6-3.5,5.8-6.5,9-9.2,1.3-1.2,2.7-2.4,3.9-3.6s1-.4,1.4,0l30.6,29.2c.2.2.3.5.3.7s-.1.5-.3.7l-13,12.4,3.1,3.1c2.7,2.7,5.2,5.2,7.8,7.7,1.2,1.2,2.6,2.5,3.8,3.8,3.4,3.4,6.8,6.9,10.3,10,.7.6,1.1,1.4,1.5,2.3.7,1.3,1.1,2,2.4,2.2.6,0,1,.5,1,1.1s-.4,1-1.1,1c-2.5-.1-3.4-1.9-4.1-3.2-.3-.6-.6-1.2-1-1.6-3.6-3.3-7.1-6.8-10.5-10.1l-3.8-3.8c-2.6-2.6-5.1-5.1-7.8-7.7l-3.9-3.9c-.2-.2-.3-.5-.3-.7,0-.3.1-.5.3-.7l13-12.4-29.1-27.8c-1,1-2.2,1.9-3.3,3-3.1,2.8-6.3,5.6-8.7,8.9-2,2.8-3.2,6.4-4.3,9.7-.4,1.3-.8,2.7-1.3,4-.8,2.3-1.6,4.5-2.4,6.7-1.5,4.5-3.2,9.2-5.2,13.6-.7,1.6-1.9,3.3-3.2,4.9-.4.5-.7.9-1,1.4-.9,1.3-1.8,2.7-2.8,3.9-4,5.7-8,11.7-13.6,16.1-7.2,5.6-12.9,9.5-18.6,12.5-1.4.7-2.8,1.5-4.2,2.4-.6.4-1.2.7-1.9,1.1-.2,0-.3.1-.5.1h-.1Z"/>
            <path class="cls-1" d="M484-28.2c-.5,0-.9-.4-1-.8,0-.6.3-1.1.8-1.2.5,0,1-.2,1.5-.2,1.1,0,2.2-.3,3.2-.6,2.9-.8,5.7-1.6,8.6-2.6,7.3-2.3,14.9-4.5,22.6-5.8,3.1-.5,6-1,9.1-1.6,3.9-.7,7.8-1.4,11.8-2,6.1-1,12.5-2,18.5-3,2.7-.4,5.3-.8,8-1.2.6,0,1.1.3,1.2.8,0,.6-.3,1.1-.8,1.2-2.7.4-5.3.8-8,1.2-6,.9-12.4,1.9-18.5,3-3.9.6-7.9,1.3-11.8,2-3.1.5-6,1.1-9.1,1.6-7.6,1.3-15.1,3.6-22.3,5.7-2.8.8-5.7,1.7-8.6,2.6-1.1.3-2.4.5-3.5.6-.5,0-1,0-1.5.2h-.2Z"/>
            <path class="cls-1" d="M375.5,60.9c-.3,0-.6-.2-.8-.4-.9-1.3-1.4-2.7-2-4.1-.3-.8-.7-1.6-1.1-2.5-1.9-3.7-3.4-7.6-4.8-11.4-.4-.9-.7-1.9-1.1-2.9-.3-.7-.9-2.3.4-3.4.5-.5.5-1,.5-2v-1.1c.4-13.1,4.5-23.4,12.4-31.3,7.2-7.2,15.4-12.9,23.2-18.1.3-.2.6-.4.9-.6,1.7-1.2,3.6-2.5,6-2.3,1,0,2,0,3.1-.4.7-.2,1.4-.4,2.3-.5.6,0,1.1.3,1.1.9s-.3,1.1-.9,1.1-1.2.2-1.9.4c-1.1.3-2.5.7-3.9.5-1.6-.2-3.1.7-4.6,1.8-.3.2-.6.4-.9.6-7.7,5.1-15.8,10.8-22.9,17.8-7.6,7.5-11.4,17.2-11.8,29.8v.9c0,1.1.2,2.6-1.2,3.8-.1.1-.1.4.1,1,.4,1,.7,1.9,1.1,3,1.4,3.8,2.9,7.6,4.7,11.2.4.8.8,1.7,1.1,2.7.5,1.3,1,2.6,1.8,3.7.3.5.2,1.1-.3,1.4-.2.1-.4.2-.6.2h.2,0Z"/>
            <path class="cls-1" d="M288.2,140.6c-.3,0-.6-.1-.8-.3-7.9-9-16.5-17.7-24.8-26.1-2.3-2.4-4.6-4.7-6.9-7.1-6.3-6.5-12.8-12.7-19.2-18.9-2.9-2.8-5.7-5.5-8.5-8.3-.4-.4-.4-1,0-1.4s1-.4,1.4,0c2.9,2.8,5.6,5.5,8.5,8.3,6.4,6.1,12.9,12.5,19.2,19,2.3,2.4,4.6,4.7,6.9,7,8.3,8.4,16.9,17.1,24.8,26.2.4.4.3,1.1,0,1.4-.2.2-.4.3-.7.3h.1Z"/>
            <path class="cls-1" d="M451.3-17c-.4,0-.8-.3-1-.7-.2-.5.1-1.1.6-1.3l32-10.8c.5-.2,1.1,0,1.3.6.2.5-.1,1.1-.6,1.3l-32,10.8h-.3Z"/>
            <path class="cls-1" d="M323.9,50.4c-.2,0-.5,0-.7-.3l-30.4-28.4c-.2-.2-.3-.5-.3-.8s.1-.6.4-.7c.6-.5,1.2-.9,1.7-1.4,1.2-1,2.6-2,3.8-3.2,6.1-5.4,12.3-11,18.4-16.4l6.5-5.8c.4-.4,1.1-.3,1.4,0,.4.4.3,1.1,0,1.4l-6.5,5.8c-6.1,5.4-12.3,11-18.4,16.4-1.2,1.1-2.6,2.2-3.9,3.3-.3.2-.6.4-.8.7l29.6,27.6c.4.4.4,1,0,1.4-.2.2-.5.3-.7.3h-.1Z"/>
            <path class="cls-1" d="M192.3,174.2c-.3,0-.7-.2-.9-.5-.3-.5-.1-1.1.4-1.4,9.6-5.5,20.6-8.8,32.6-9.7.6,0,1,.4,1.1.9s-.4,1-.9,1.1c-11.7.9-22.3,4.1-31.7,9.4-.2,0-.3.1-.5.1h-.1Z"/>
            <path class="cls-1" d="M483.3-36.9c-.5,0-.9-.3-1-.8s.2-1.1.8-1.2l6.5-1.4c6.5-1.4,12.8-2.8,19.3-4.2,1.4-.3,2.9-.6,4.3-.9l1.9-.4c.5,0,1.1.2,1.2.8.1.5-.2,1.1-.8,1.2l-1.9.4c-1.4.3-2.9.6-4.3.9-6.5,1.4-12.8,2.8-19.3,4.2l-6.5,1.4h-.2Z"/>
            <path class="cls-1" d="M263.4,164.6c-.3,0-.5-.1-.7-.3l-30.1-30.9c-.2-.2-.3-.5-.3-.7,0-.3.1-.5.3-.7l24.7-22.2c.4-.4,1.1-.3,1.4,0,.4.4.3,1.1,0,1.4l-23.9,21.5,28.6,29.4c5-5.2,10.6-10.2,15.9-15.1,2.7-2.5,5.5-5,8.2-7.5.4-.4,1-.4,1.4,0s.4,1,0,1.4c-2.7,2.6-5.5,5.1-8.2,7.6-5.5,5-11.3,10.2-16.5,15.7-.2.2-.5.3-.7.3h-.1Z"/>
            <path class="cls-1" d="M308,159.3c-.2,0-.5,0-.7-.3-.4-.4-.4-1,0-1.4,8.4-8.9,17.8-17.2,26.8-25.2l3-2.7c.4-.4,1-.3,1.4,0,1.4,1.3,1.8,3.1,2.3,4.6.3,1,.5,1.9,1,2.8.3.5.2,1.1-.3,1.4-.5.3-1.1.2-1.4-.3-.7-1-1-2.3-1.3-3.4-.3-1-.5-2-1.1-2.9l-2.3,1.9c-9.4,8.4-18.3,16.2-26.7,25.1-.2.2-.5.3-.7.3h.1Z"/>
            <path class="cls-1" d="M475.7-67.2c-.4,0-.8-.2-.9-.7-.2-.5,0-1.1.6-1.3,1.4-.5,3-1.1,4.4-1.6,3.3-1.2,6.6-2.6,9.9-3.7,2.9-1,5.6-1.9,8.5-2.9,3.8-1.2,7.6-2.6,11.4-4,4.5-1.6,9.3-2.5,13.9-3.2,1.7-.3,3.4-.6,5.1-.9,2-.4,4.2-.7,6.3-1,3.5-.5,7.1-1.1,10.5-2,1.2-.3,2.6-.5,3.8-.6,2.4-.3,4.6-.6,6.6-1.9.5-.3,1.1-.2,1.4.3.3.5.2,1.1-.3,1.4-2.4,1.6-4.9,1.9-7.5,2.3-1.2.2-2.5.3-3.6.6-3.5.9-7.2,1.5-10.7,2-2,.3-4.1.6-6.1,1-1.7.3-3.4.6-5.1.9-4.6.8-9.3,1.5-13.6,3.1-3.8,1.3-7.7,2.7-11.5,4-2.9.9-5.6,1.9-8.5,2.9-3.3,1.1-6.7,2.5-9.8,3.7-1.4.6-3,1.1-4.4,1.6h-.4.1Z"/>
            <path class="cls-1" d="M789.1,687.3c-.4,0-.7-.2-.9-.6-1-2.3-2.7-4-4.4-5.8-.7-.8-1.5-1.6-2.3-2.5-1.2-1.4-2.4-2.9-3.6-4.3-4.8-5.8-9.9-12-15.4-17.5-.4-.4-.4-1,0-1.4s1-.4,1.4,0c5.5,5.6,10.6,11.7,15.5,17.6,1.2,1.4,2.4,2.9,3.6,4.3.7.8,1.4,1.6,2.2,2.4,1.7,1.8,3.6,3.9,4.8,6.4.2.5,0,1.1-.5,1.3h-.4v.2h0Z"/>
            <path class="cls-1" d="M272.4,225.2h-.2c-5.4-1-9.7-4.7-13.1-8.1-4.1-4.1-8.7-8.1-13.7-11.6-3.9-2.8-8.5-5.7-13.7-6.6-14.1-2.4-25.5-1.6-36,2.4-10.6,4-17.7,8.4-23.4,14.2-.4.4-1,.4-1.4,0s-.4-1,0-1.4c5.8-6,13.3-10.7,24.1-14.8s22.5-4.8,37-2.5c5.6.9,10.5,4,14.6,7,5,3.7,9.7,7.6,13.9,11.9,3.2,3.2,7.1,6.6,12,7.5.5.1.9.6.8,1.2,0,.5-.5.8-1,.8h.2Z"/>
            <path class="cls-1" d="M259.8,110.5c-.3,0-.5,0-.7-.3-.4-.4-.4-1,0-1.4l1.5-1.5c1.1-1.1,2.3-2.4,3.4-3.4,6.1-5.5,12.3-11,18.4-16.5l6.6-5.8c.4-.4,1.1-.3,1.4,0,.4.4.3,1.1,0,1.4l-6.6,5.8c-6.1,5.4-12.3,11-18.4,16.4-1.1,1-2.3,2.2-3.3,3.3-.5.5-1,1-1.5,1.6-.2.2-.5.3-.7.3h-.1Z"/>
            <path class="cls-1" d="M202.7,102.9c-.3,0-.5-.1-.7-.3-.4-.4-.3-1.1,0-1.4l54.9-49.7-28.3-25.6c-.4-.4-.4-1,0-1.4s1-.4,1.4,0l29.1,26.4c.2.2.3.5.3.7s-.1.6-.3.7l-55.8,50.5c-.2.2-.4.3-.7.3v-.2h.1Z"/>
            <path class="cls-1" d="M276.2,243c-1.4,0-3-.5-4.8-1.6-5.6-3.4-10.8-7.5-15.7-11.5-2-1.6-4.1-3.3-6.3-4.9-1.6-1.2-3.3-2.7-4.8-3.9-3.6-3-7.2-6.1-11.3-7.9-9.7-4.4-20.6-5.9-32.3-4.8-8.4.8-16.8,3.4-25.8,7.8-1.8.9-3.3,1-4.4.4s-1.9-1.9-2.3-4.1c0-.5,0-1-.1-1.5,0-1,0-1.8-.5-2.6-.3-.5-.1-1.1.4-1.4s1.1-.1,1.4.4c.7,1.2.7,2.5.8,3.5v1.3c.2,1.4.6,2.4,1.1,2.6.6.3,1.7,0,2.6-.5,9.2-4.5,17.9-7.2,26.5-8,12-1.2,23.3.5,33.4,5,4.3,1.9,8.1,5.1,11.8,8.2,1.5,1.3,3.2,2.7,4.7,3.9,2.2,1.6,4.2,3.3,6.3,4.9,4.9,3.9,10,8,15.5,11.3,3.3,1.9,4.9,1.8,7.8-.7,8.7-7.5,16-13.8,22.7-20.8.4-.4,1-.4,1.4,0s.4,1,0,1.4c-6.9,7.1-14,13.4-22.9,21-1.9,1.6-3.7,2.6-5.4,2.6h0Z"/>
            <path class="cls-1" d="M230,181.2c-.5,0-.9-.3-1-.8-1.6-9.1-4.7-18.4-9.3-28.5-2-4.5-1.4-7.9,1.8-10.5,2.4-1.8,4.5-3.9,6.8-5.9,1-.9,2-1.9,3.1-2.9-10.1-10.2-19.4-19.6-29.2-28.5-.4-.4-.4-1,0-1.4s1-.4,1.4,0c10,9.2,19.6,18.6,30,29.3.2.2.3.5.3.7,0,.3-.1.5-.3.7-1.3,1.1-2.6,2.4-3.8,3.6-2.2,2-4.4,4.2-6.9,6.1-2.6,1.9-2.9,4.3-1.2,8,4.7,10.2,7.8,19.7,9.4,28.9,0,.5-.3,1.1-.8,1.2h-.3Z"/>
            <path class="cls-1" d="M234.6,198.9h-.4c-.5-.2-.7-.8-.5-1.3.5-1.1.5-2.2,0-3.4-1.2-3.4-2.4-6.8-2.8-10.1-.1-1.1-.4-1.9-.9-2.3-.3-.2-.8-.3-1.4-.2-1.2.1-2.4.2-3.5.2s-2.7,0-4,.3c-4.8.8-9.5,2.4-14,3.8-2.8.8-5.5,1.7-8.4,2.5-.5.1-1.1-.2-1.2-.7s.2-1.1.7-1.2c2.8-.7,5.6-1.6,8.3-2.5,4.6-1.4,9.4-3,14.3-3.8,1.5-.3,3-.3,4.3-.3s2.2,0,3.3-.2c1.2-.1,2.2,0,3,.7.9.7,1.4,1.8,1.6,3.6.4,3.3,1.4,6.5,2.7,9.7.6,1.8.6,3.3-.1,4.9-.2.4-.5.6-.9.6v-.3h0Z"/>
            <path class="cls-1" d="M289.7,232.4c-.4,0-.7-.2-.9-.6,0-.2-.2-.3-.3-.5-.3-.4-.6-.9-.7-1.5-.4-1.7-.4-3.6-.5-5.3,0-2.8-.2-5.4-1.4-7.9-.3-.6-.1-1.5.1-2.2s.7-1.3,1.3-1.5c.9-.3,1.6-1,2.5-1.7.9-.8,1.8-1.7,3.2-2.2,1.4-.4,1.6-1.1,1.8-2.8v-.2c.2-1,.4-2,.6-3.1.4-1.9.7-3.7.8-5.6,0-3.1.5-7.7,2.5-11.9,1.6-3.5,3.8-6.8,5.9-9.8.8-1.1,1.5-2.4,2.4-3.5,2.3-3.5,2.2-7.9-.2-11.6-5.2,4.3-10.3,8.9-15.3,13.3-7.4,6.7-15.1,13.6-23.4,19.4-.3.2-.8.2-1.1,0-2-1.3-3.9-2.6-5.1-4.4-1.9-2.8-4.4-4.9-7-7.2-1.9-1.6-3.9-3.4-5.7-5.4-6-6.9-13.1-13.8-21.6-21.3-.8-.7-1.6-1.6-2.4-2.5-1.5-1.6-2.9-3.3-4.9-4-.5-.2-.8-.8-.6-1.3s.8-.8,1.3-.6c2.6.9,4.2,2.8,5.8,4.5.7.8,1.4,1.6,2.2,2.3,8.6,7.5,15.7,14.6,21.7,21.4,1.6,1.9,3.6,3.6,5.5,5.2,2.6,2.3,5.3,4.6,7.4,7.5.9,1.3,2.4,2.5,4,3.5,8-5.6,15.4-12.4,22.5-18.9,5.2-4.7,10.7-9.6,16.3-14.1.2-.2.5-.2.8-.2s.5.2.7.4c3.5,4.5,3.8,10.3.9,14.9-.8,1.2-1.5,2.4-2.4,3.6-2,3.1-4.2,6.3-5.7,9.5-1.7,3.9-2.3,8.2-2.3,11.1s-.4,4.1-.8,5.9c-.2.9-.4,1.9-.5,3v.2c-.2,1.5-.5,3.7-3.4,4.4s-1.4.8-2.3,1.6-1.7,1.7-3.1,2.2c-.1.2-.3.7-.4.9,1.4,2.9,1.5,5.7,1.6,8.6,0,1.7.1,3.4.4,5,0,.3.2.6.4.9.1.2.2.4.3.6.3.5,0,1.1-.4,1.4-.1,0-.3.1-.5.1l-.2.4h0Z"/>
            <path class="cls-1" d="M369.2,45c-.4,0-.8-.2-.9-.6-.2-.5,0-1.1.6-1.3,1.3-.5,1.6-1.5,2-3.2.2-.6.3-1.3.6-1.9,4.3-9.7,9.4-19.8,19.1-26.2,10.1-6.7,21.2-13.6,33.3-18.6,3.3-1.3,6.7-2.9,9.8-4.4,5.2-2.4,10.7-4.9,16.2-6.9.5-.2,1.1,0,1.3.6.2.5,0,1.1-.6,1.3-5.4,1.9-10.9,4.4-16,6.8-3.2,1.4-6.6,3-9.8,4.4-12,5-23,11.9-33,18.4-9.2,6-14,15.9-18.3,25.3-.2.5-.3,1-.5,1.6-.4,1.6-1,3.7-3.3,4.5h-.4v.2h-.1Z"/>
            <path class="cls-1" d="M122.6,225.7c-.3,0-.6-.1-.8-.4-.9-1.1-1.8-2.2-2.8-3.3-2-2.4-4.1-4.8-6.1-7.4-1.4-1.8-3-3.7-4.4-5.4-3.5-4.3-7.1-8.7-10.1-13.4-.3-.5-.2-1.1.3-1.4s1.1-.2,1.4.3c3,4.6,6.6,9,10,13.2,1.4,1.7,3,3.7,4.4,5.5,1.9,2.5,4,4.9,6,7.3.9,1.1,1.8,2.2,2.8,3.3.4.4.3,1.1,0,1.4-.2.2-.4.2-.6.2h-.1Z"/>
            <path class="cls-1" d="M539.2,316c-.2,0-.5,0-.7-.3-1.7-1.6-3.5-3.3-5.3-4.9-4.1-3.8-8.3-7.8-12.4-11.7-1.4-1.4-3.1-2.8-4.6-4.1-2.9-2.5-5.8-5-8.3-8.1-.3-.4-.3-1.1.2-1.4.4-.3,1.1-.3,1.4.2,2.4,2.9,5.2,5.4,8,7.8,1.5,1.3,3.2,2.8,4.7,4.2,4.1,3.9,8.3,7.9,12.4,11.7,1.7,1.6,3.5,3.3,5.3,4.9.4.4.4,1,0,1.4-.2.2-.5.3-.7.3h0Z"/>
            <path class="cls-1" d="M96,290.1h-.4c-3.9-1.8-7.3-4.5-10.6-7-1.1-.8-2.2-1.7-3.3-2.6-3.1-2.3-6.1-4.6-9.3-7-6.5-4.9-13.1-9.9-19.9-14.6-2.6-1.7-4.8-3.7-7.1-5.6-1.6-1.4-3.3-2.9-5-4.2-4.6-3.6-9.1-7.4-13.5-11.2-2.9-2.5-5.7-4.9-8.6-7.3-1.2-1-2.5-2-3.8-3.2-2.8-2.4-5.5-4.8-8.7-6.8-4-2.6-4-7.2-4-11v-.5c0-4,1.4-7.8,4.2-11,.2-.3.6-.4,1-.3,7.1,1.4,14,3.8,21.3,7.3,2.4,1.1,4.2,2.8,5.9,4.3.6.5,1.2,1.1,1.9,1.6,8.1,6.7,15.4,13.9,21.5,20.2,2.2,2.2,4.4,4.3,6.7,6.5,3.4,3.2,6.8,6.5,9.9,9.9,1.7,1.9,3.4,4.1,5,6.3,1.5,2,3.2,4.2,4.9,6,1.1,1.3,1,2.5.9,3.4v.7c0,.6-.4,1-1,1s-1-.4-1-1v-1.1c0-.7,0-1.1-.4-1.6-1.7-1.9-3.4-4.1-5-6.3-1.5-2-3.2-4.2-4.9-6-3.1-3.4-6.5-6.7-9.8-9.8-2.3-2.2-4.5-4.3-6.7-6.5-6-6.1-13.4-13.4-21.4-20.1-.7-.5-1.3-1.1-1.9-1.7-1.7-1.5-3.4-3.1-5.4-4-6.9-3.3-13.5-5.6-20.2-7.1-2.3,2.7-3.4,5.8-3.4,9.1v.5c0,3.6,0,7.3,3.1,9.2,3.2,2,6.1,4.5,8.9,7,1.2,1,2.5,2.2,3.7,3.2,3,2.4,5.8,4.9,8.7,7.3,4.3,3.7,8.8,7.6,13.4,11.1,1.7,1.3,3.5,2.9,5.1,4.2,2.2,1.8,4.4,3.8,6.9,5.5,6.8,4.7,13.5,9.7,20,14.7,3.1,2.4,6.1,4.6,9.2,7,1.1.8,2.3,1.6,3.3,2.6,3.2,2.5,6.5,5,10.1,6.8.5.2.7.8.5,1.3-.2.4-.5.6-.9.6h0Z"/>
            <path class="cls-1" d="M512,333.6c-.2,0-.4,0-.6-.2-.4-.3-.7-.5-1.1-.8-.9-.6-1.8-1.2-2.6-2-6.6-6.5-13-13-19.5-19.6l-5.8-5.8c-.4-.4-.4-1,0-1.4s1-.4,1.4,0l5.8,5.8c6.5,6.6,13,13,19.5,19.6.6.6,1.4,1.2,2.3,1.7.4.3.8.5,1.2.8.4.3.5,1,.2,1.4-.2.3-.5.4-.8.4h0Z"/>
            <path class="cls-1" d="M227.2,79.2c-.2,0-.5,0-.7-.3-5.1-4.6-10.2-9.4-15.2-14.1-4.9-4.6-9.9-9.3-15-13.9-3.5-3.2-7.1-6.4-10.6-9.4-5.9-5.3-12.2-10.9-18-16.5-.4-.4-.4-1,0-1.4s1-.4,1.4,0c5.8,5.6,12.1,11.1,18,16.4,3.5,3.1,7.1,6.3,10.6,9.4,5,4.6,10.1,9.3,15.1,13.9s10,9.4,15.2,14.1c.4.4.4,1,0,1.4s-.5.3-.7.3h-.1Z"/>
            <path class="cls-1" d="M93.3,314c-2,0-4.2-.6-6.5-1.7l-1.9-1c-5.5-2.9-11.2-5.8-16.3-9.8-8.4-6.6-17.3-13.7-25.3-21.9-7.2-7.4-16.3-17.4-23.3-28.9-.9-1.5-1.9-2.9-3-4.4-1.9-2.7-3.9-5.5-5.2-8.8-1.2-3.1-2.7-6.1-4.1-9.2-.7-1.4-1.3-2.9-2-4.3,0,0,0-.2-.2-.3-.4-.6-1.3-2,0-3.5.4-.4,1-.4,1.4,0,.4.4.4,1,0,1.4,0,.1-.2.2.2.9,0,.2.2.4.3.5.6,1.4,1.3,2.9,1.9,4.3,1.4,3.1,2.9,6.1,4.2,9.3,1.2,3.1,3.2,5.7,5,8.4,1,1.4,2.2,3,3.1,4.5,6.9,11.4,15.9,21.2,23,28.6,7.8,8.1,16.7,15.2,25.1,21.7,4.9,3.9,10.6,6.8,16,9.6l1.9,1c2.7,1.4,6.7,2.6,10.7-.1.9-.6,1.9-1.2,3-1.7,1.3-.7,2.7-1.4,3.7-2.4,6.7-5.4,13.3-11.1,19.8-16.6,4.3-3.7,8.7-7.4,13.1-11.1,1.6-1.3,2.5-3,2.5-4.8-.1-8.8,2.6-17.1,5.1-25.2l.7-2.2c.3-.9.7-1.9,1.1-2.9.7-1.6,1.4-3.2,1.3-4.5-.5-4.9,1.5-8.5,3.6-12,.3-.5.6-1,.8-1.5,5.2-9.3,11.8-17.5,19.5-24.2,8.5-7.4,16.4-12.1,24.8-14.9.5-.2,1.1.1,1.3.6s-.1,1.1-.6,1.3c-8.1,2.7-15.8,7.3-24.1,14.4-7.5,6.5-13.9,14.4-19.1,23.6-.3.5-.6,1-.9,1.5-2,3.5-3.8,6.6-3.3,10.8.2,1.9-.6,3.8-1.5,5.6-.4.9-.8,1.7-1,2.6l-.7,2.2c-2.5,7.9-5.1,16-5,24.5,0,2.4-1.1,4.7-3.2,6.4-4.4,3.7-8.8,7.4-13.1,11.1-6.5,5.5-13.1,11.2-19.9,16.6-1.2,1-2.7,1.7-4,2.6-.9.5-1.9,1-2.8,1.6-1.9,1.3-4.1,1.9-6.4,1.9l.2.3h0Z"/>
            <path class="cls-1" d="M198.9,50.6c-.3,0-.5,0-.7-.3-.4-.4-.4-1,0-1.4.2-.3.5-.5.7-.8.5-.6,1.1-1.2,1.7-1.7,6.7-5.8,13.4-11.7,20.1-17.5l5.9-5.1c.4-.4,1.1-.3,1.4,0,.4.4.3,1.1,0,1.4l-5.9,5.1c-6.8,5.8-13.4,11.7-20.1,17.5l-1.6,1.6c-.2.3-.5.5-.8.8s-.5.3-.7.3h0Z"/>
            <path class="cls-1" d="M146.9,218.7c-.3,0-.5-.1-.7-.3-.4-.4-.4-1,0-1.4,1.8-1.7,3.1-3.9,4.3-6.1.8-1.5,1.7-3.2,2.9-4.7,2.7-3.5,5.5-6.8,8-9.4,8.1-9,17.9-15.9,27.5-22.6l1-.7c.4-.3.9-.4,1.3-.5.1,0,.3,0,.4-.1.5-.2,1.1,0,1.3.6.2.5,0,1.1-.6,1.3-.2,0-.4.1-.5.2-.2,0-.5.1-.6.2l-1,.7c-9.4,6.7-19.3,13.5-27.2,22.3-2.5,2.7-5.2,5.8-7.9,9.3-1,1.3-1.8,2.9-2.8,4.4-1.3,2.4-2.6,4.7-4.7,6.7-.2.2-.4.3-.7.3h0Z"/>
            <path class="cls-1" d="M599,420.2c-.2,0-.4,0-.5-.2-.5-.3-.6-.9-.3-1.4,1.5-2.6,3.9-4.1,6.3-5.5.5-.3,1-.7,1.5-1,5-3.5,10.1-6.8,15.1-10,2-1.3,4-2.7,6-3.9.5-.3,1.1-.2,1.4.3.3.5.2,1.1-.3,1.4-2,1.3-4,2.7-6,4-4.9,3.3-10.1,6.6-15.1,10-.5.3-1,.7-1.5,1-2.2,1.4-4.2,2.8-5.6,4.9-.2.3-.5.5-.9.5h0Z"/>
            <path class="cls-1" d="M117.3,120.1c-.5,0-.9-.4-1-.8,0-.6.3-1.1.8-1.2,3.1-.5,5.4-1,5.8-2.9,1.1-5.1,2.4-10.5,1.6-15.6-.2-1.1-.5-3.3,1.3-4.1,1.1-.5,2.2-1.3,3.2-2.2,1.2-1,2.6-2.2,4.2-2.7-.2-.9-.4-1.8-.6-2.8-.5-2.7-1-5.2-1.7-7.7-.4-1.7-.8-3.5-1.1-5.1-.9-4.6-1.8-9-4.1-13.1-.3-.5,0-1.1.4-1.4.5-.3,1.1,0,1.4.4,2.4,4.3,3.4,9,4.3,13.6.3,1.6.7,3.4,1.1,5,.6,2.6,1.1,5.1,1.7,7.8.2,1.2.5,2.5.8,3.8,0,.3,0,.6-.2.8s-.4.4-.7.4c-1.6.2-3,1.3-4.3,2.5-1.1.9-2.3,1.8-3.7,2.5-.2.1-.3.7,0,1.9.8,5.5-.4,11.1-1.6,16.4-.7,3.4-4.6,4-7.5,4.4h-.2Z"/>
            <path class="cls-1" d="M168,138.9c-.2,0-.5,0-.6-.2-.4-.4-.5-1-.1-1.4,5-6.1,10.3-11.7,16-17.6,1.2-1.3,2.6-2.7,3.8-4l-28.5-26.9c-.4-.4-.4-1,0-1.4s1-.4,1.4,0l29.3,27.7c.4.4.4,1,0,1.4-1.5,1.6-3,3.2-4.5,4.7-5.6,5.9-10.9,11.5-15.9,17.5-.2.2-.5.4-.8.4h-.1Z"/>
            <path class="cls-1" d="M384.5,252.6c-.3,0-.5,0-.7-.3l-.6-.6c-.4-.5-.9-.9-1.4-1.4-3.2-3-6.4-6-9.4-9-5.5-5.4-11.2-11-17.3-15.9-.4-.3-.5-1-.2-1.4s1-.5,1.4-.2c6.3,4.9,11.9,10.6,17.4,16,3.1,3,6.1,6,9.3,9l1.4,1.4.6.6c.4.4.4,1,0,1.4s-.5.3-.7.3h.2Z"/>
            <path class="cls-1" d="M774.9,524.2c-.5,0-.9-.3-1-.8-.5-2.4-2.3-4-4.1-5.6-.7-.6-1.4-1.3-2-2-4.4-4.8-8.9-9.5-13.6-14.4-1.7-1.8-3.5-3.7-5.3-5.5-6.5,2.7-13.8,6.1-20.6,11.2-.4.3-1.1.2-1.4-.2-.3-.4-.2-1.1.2-1.4,7.3-5.3,15.4-9,21.7-11.7.4-.2.8,0,1.1.2,1.9,2,3.9,4.1,5.7,6,4.7,4.9,9.2,9.6,13.6,14.4l1.9,1.9c1.9,1.8,4,3.7,4.7,6.7,0,.5-.2,1.1-.8,1.2h-.2.1Z"/>
            <path class="cls-1" d="M171.5,73.8c-.2,0-.5,0-.7-.3-1.6-1.4-3.3-2.9-4.8-4.2-3.7-3.2-7.5-6.6-11.1-9.9-1.5-1.4-3.2-2.9-4.7-4.3-3.2-2.8-6.4-5.5-9-8.9-.3-.4-.3-1.1.2-1.4.4-.3,1.1-.3,1.4.2,2.6,3.3,5.7,6,8.7,8.7,1.6,1.4,3.3,2.9,4.8,4.4,3.6,3.4,7.4,6.8,11.1,9.9,1.6,1.4,3.3,2.9,4.9,4.3.4.4.5,1,0,1.4-.2.2-.5.3-.8.3v-.2h0Z"/>
            <path class="cls-1" d="M518.3-44h-2.4c-.6,0-1-.5-1-1s.5-1,1-1,0,0,0,0h3.2c5.2-1,10.7-1.8,15.8-2.6,2.3-.3,4.4-.6,6.7-.9,5.5-.8,11.2-1.7,16.6-2.7,2.5-.4,4.8-.8,7.3-1.2.6,0,1.1.3,1.2.8,0,.6-.3,1.1-.8,1.2-2.5.4-4.8.8-7.3,1.2-5.4.9-11.1,1.8-16.6,2.7-2.3.3-4.4.6-6.7.9-5.1.7-10.6,1.4-15.7,2.5h-1.3Z"/>
            <path class="cls-1" d="M372.9,271h-.2c-1.5-.3-2.5-1.4-3.2-2.4-.2-.2-.4-.5-.6-.7-8.4-9.3-16.4-17.5-24.3-25.2-.3-.3-.4-.8-.2-1.2l1.1-2.2c.8-1.5,1.7-3.2,2.6-4.8,7.5-14.4,18.9-25.6,28-33.7.4-.4,1.1-.3,1.4,0s.3,1.1,0,1.4c-9,8-20.2,19-27.6,33.1-.8,1.6-1.6,3.2-2.6,4.8l-.8,1.5c7.8,7.6,15.6,15.7,23.8,24.8.2.2.4.5.6.8.6.8,1.2,1.4,2,1.6.5.1.9.7.8,1.2s-.5.8-1,.8h.1Z"/>
            <path class="cls-1" d="M353,80c-.3,0-.5-.1-.7-.3-7.8-8.6-16.7-17.6-27.3-27.5-.4-.4-.4-1,0-1.4s1-.4,1.4,0c10.7,9.9,19.6,19,27.5,27.6.4.4.3,1.1,0,1.4-.2.2-.4.3-.7.3h-.2,0Z"/>
            <path class="cls-1" d="M400.3,186h-.2c-.3,0-.6-.2-.7-.5-1.1-2-2.9-3.5-4.5-4.9-.8-.7-1.6-1.3-2.5-2.2-3-3.1-6.3-5.9-9.3-8.8-5.3-4.9-10.8-9.9-15.6-15.6-.4-.4-.3-1.1.1-1.4.4-.4,1.1-.3,1.4.1,4.6,5.5,10,10.6,15.4,15.4,3.1,2.9,6.4,5.8,9.4,8.9s1.4,1.3,2.3,1.9c1.5,1.2,3.1,2.6,4.4,4.4,2.3-1.5,4.8-2.3,7.3-3,1.9-.5,4-1.1,5.8-2.2.5-.3,1.1,0,1.4.4.3.5,0,1.1-.4,1.4-2,1.1-4.2,1.7-6.3,2.3-2.8.8-5.3,1.5-7.5,3.3-.2.2-.4.2-.6.2v.2h0Z"/>
            <path class="cls-1" d="M141.6,261.9c-.3,0-.6-.1-.8-.4-1.6-1.9-2.4-4.3-3.1-6.6-.5-1.5-.9-2.9-1.6-4.2-.8-1.5-.6-3.2.4-4.6.4-.6.6-1.4.9-2.5.2-.6.3-1.3.6-1.9.9-2.5,1.6-5,2.4-7.5,1.3-4.7,2.7-9.6,5.7-13.8.2-.3.3-1.4.1-1.7-1.7-2.4-3.2-4.9-4.6-7.4-1.9-3.4-4-6.8-6.6-9.7-.4-.4-.3-1.1,0-1.4.4-.4,1.1-.3,1.4,0,2.7,3.1,4.8,6.7,6.8,10,1.4,2.5,2.9,4.9,4.5,7.3.8,1.1.6,3.2-.1,4.2-2.9,4-4.1,8.5-5.4,13.2-.7,2.6-1.4,5.2-2.5,7.8-.2.5-.3,1-.5,1.6-.3,1.1-.5,2.3-1.2,3.2-.7,1-.4,1.9-.2,2.4.8,1.4,1.2,3.1,1.7,4.5.7,2.2,1.3,4.2,2.8,5.9.4.4.3,1.1-.1,1.4-.2.2-.4.2-.6.2h0Z"/>
            <path class="cls-1" d="M646.6,594.4h-.3c-.5-.2-.8-.8-.6-1.3,4.3-11.7,11.6-21.7,18.6-31,15.5-20.3,34.6-38.3,56.9-53.6.5-.3.9-.5,1.4-.7.9-.4,1.5-.7,1.8-1.3.2-.5.9-.7,1.4-.5s.7.9.5,1.4c-.6,1.3-1.8,1.8-2.9,2.4s-.8.4-1.1.6c-22.1,15.2-41.1,33.1-56.5,53.2-7,9.2-14.1,19.1-18.3,30.5-.2.4-.5.7-.9.7v-.3h-.1Z"/>
            <path class="cls-1" d="M569.5,447.4c-.2,0-.5,0-.7-.2-.4-.4-.5-1,0-1.4,8.2-9.5,17.7-17.8,26.9-25.9l.4-.3c.4-.4,1.1-.3,1.4,0,.4.4.3,1.1,0,1.4l-.4.3c-9.2,8-18.6,16.4-26.7,25.7-.2.2-.5.4-.8.4h-.1Z"/>
            <path class="cls-1" d="M366,38c-.2,0-.4,0-.6-.2-1.6-1.2-2.8-2.9-3.4-4.8-2.2-7-6.5-12.7-14-18.4-5.6-4.3-11.1-9.1-16.2-13.7-2.3-2-4.5-4.1-6.9-6.1-.4-.4-.5-1,0-1.4.4-.4,1-.5,1.4,0,2.4,2,4.6,4.1,6.9,6.1,5.1,4.6,10.5,9.4,16.1,13.6,8,6,12.5,12,14.8,19.5.4,1.4,1.3,2.8,2.7,3.8.4.3.5,1,.2,1.4-.2.3-.5.4-.8.4h-.1Z"/>
            <path class="cls-1" d="M157.9,86.7c-.2,0-.4,0-.5-.2-2.5-1.5-4.6-3.5-6.7-5.4-.8-.7-1.6-1.5-2.5-2.3-2.9-2.6-5.7-5.2-8.5-7.8-4.2-3.9-8.5-8-13.1-11.6-.4-.3-.5-1-.2-1.4s1-.5,1.4-.2c4.7,3.6,9.1,7.7,13.3,11.7,2.8,2.6,5.5,5.2,8.5,7.7.8.7,1.6,1.5,2.5,2.3,2,1.8,4.1,3.7,6.4,5.2.5.3.6.9.3,1.4-.2.3-.5.5-.9.5h0Z"/>
            <path class="cls-1" d="M484-58.3c-.5,0-.9-.4-1-.9,0-.8.1-2.3,2.5-2.9,5.6-1.5,11.2-3.6,16.6-5.6,3.5-1.3,7-2.7,10.6-3.8,11.5-3.8,23.4-7.3,34.7-10.6,2.4-.7,4.7-1.3,7-2,1-.3,2.4-.9,2.8-1.9.4-1.1-.2-2.6-.9-3.5-.3-.4-.4-.9-.5-1.3v-.4c-1-3.3-2.5-4.2-6.1-4-12.1.8-21.8,1.9-30.6,3.6-1.5.3-3.2.5-4.7.6-3.9.4-7.6.9-11,2.8-.5.3-1.1,0-1.4-.4-.3-.5,0-1.1.4-1.4,3.7-2,7.8-2.6,11.7-3,1.5-.2,3.1-.4,4.6-.6,8.8-1.6,18.6-2.8,30.8-3.6,4.6-.3,7,1.2,8.3,5.4v.5c0,.3.2.6.3.7,1.6,2.5,1.5,4.3,1.1,5.3s-1.4,2.5-4.1,3.2c-2.4.7-4.7,1.3-7,2-11.4,3.3-23.3,6.7-34.6,10.5-3.5,1.1-7.1,2.5-10.5,3.8-5.4,2-11,4.1-16.7,5.6-1,.3-1,.5-1,.6,0,.6-.3,1.1-.9,1.1h-.1v.2h-.1Z"/>
            <path class="cls-1" d="M555.2,308.6c-.2,0-.5,0-.6-.2-2.7-2.2-5.3-4.4-8-6.6-6.8-5.5-13.8-11.3-20.5-17.2-2.7-2.4-5-2-7.7-1.4l-.8.2c-3.6.8-7.3,1.6-10.2,3.4l-1.8,1.1c-7.7,4.6-15.7,9.4-22.2,15.9-.4.4-1,.4-1.4,0s-.4-1,0-1.4c6.8-6.6,14.9-11.5,22.6-16.2l1.8-1.1c3.3-1.9,7.1-2.8,10.9-3.6l.8-.2c3-.6,6.1-1,9.5,1.9,6.7,5.9,13.6,11.7,20.4,17.2,2.7,2.2,5.3,4.4,8,6.6.4.4.5,1,0,1.4-.2.2-.5.4-.8.4v-.2h.1Z"/>
            <path class="cls-1" d="M263.2-3.8c-.3,0-.5,0-.7-.3-5.4-5.2-11.5-9.9-17.2-14.7-4.2-3.4-8.5-6.8-12.6-10.3-.4-.4-.5-1,0-1.4.4-.4,1-.5,1.4,0,4.1,3.6,8.3,7,12.5,10.3,5.8,4.7,11.8,9.5,17.3,14.8.4.4.4,1,0,1.4s-.5.3-.7.3h0Z"/>
            <path class="cls-1" d="M376.7,201.8c-.3,0-.5,0-.7-.3-3.2-3.1-6.5-6-9.6-9-5.8-5.3-11.9-10.9-17.3-16.7-.4-.4-.4-1,0-1.4,5.8-6,12.6-10.5,19.1-14.7,1.1-.7,2.2-1.4,3.3-2.2.5-.3,1.1-.2,1.4.3s.2,1.1-.3,1.4c-1.1.7-2.2,1.4-3.3,2.2-6.1,4-12.5,8.2-18,13.7,5.2,5.5,11,10.8,16.6,15.9,3.2,3,6.6,5.9,9.7,9,.4.4.4,1,0,1.4s-.5.3-.7.3h-.1Z"/>
            <path class="cls-1" d="M388,143.7c-.4,0-.7-.2-.9-.5-.3-.5-.1-1.1.4-1.4.5-.3.9-.5,1.4-.6,1.6-.7,2.5-1,2.3-3.3-1.2-13.2-2-25.4-2.5-37.3-.3-8.7-2.3-16.4-5.8-23.3-1-1.9-1.8-3.9-2.7-5.8-1.5-3.7-3.1-7.2-5.4-10.2-.3-.4-.3-1.1.2-1.4.4-.3,1.1-.3,1.4.2,2.6,3.3,4.2,7.1,5.7,10.8.8,1.9,1.6,3.9,2.6,5.7,3.7,7.2,5.6,15.1,6,24.2.5,11.9,1.3,24,2.5,37.2.3,3.7-1.9,4.6-3.6,5.3-.4.2-.8.3-1.2.5-.2,0-.3.1-.5.1h.1Z"/>
            <path class="cls-1" d="M227.7,24.3c-.2,0-.5,0-.7-.2L198.4-.3c-.4-.4-.5-1-.1-1.4s1-.5,1.4,0l28.6,24.4c.4.4.5,1,.1,1.4s-.5.4-.8.4h.1v-.2Z"/>
            <path class="cls-1" d="M776.9,752.3h0c-.6,0-1-.5-1-1,0-1.8.9-3.3,1.7-4.5,4.2-6.1,8.1-11.9,11.8-17.3,1.3-2,2.6-3.8,1.5-5.9-.2-.5,0-1.1.5-1.3s1.1,0,1.3.5c1.4,3.3-.3,5.7-1.7,7.9-3.7,5.5-7.6,11.2-11.8,17.3-.8,1.2-1.3,2.3-1.3,3.4s-.5,1-1,1Z"/>
            <path class="cls-1" d="M123.1,227.9c-.5,0-1-.4-1-1,0-1.7.8-3.1,1.6-4.2.4-.6.9-1.3,1.1-1.9l.3-1c3.3-9.1,6.6-18.5,13.6-26,3.4-3.6,6.7-7.3,9.8-11,1.4-1.6,2.9-3.3,4.3-4.9.4-.4,1-.5,1.4,0,.4.4.5,1,0,1.4-1.4,1.6-2.9,3.3-4.3,4.9-3.2,3.7-6.5,7.5-9.8,11.1-6.8,7.2-10,16.4-13.2,25.3l-.3,1c-.3.9-.8,1.7-1.3,2.5-.7,1-1.3,1.9-1.2,3,0,.6-.4,1-1,1h0Z"/>
            <path class="cls-1" d="M172.3,74.1c-.3,0-.5-.1-.7-.3-.4-.4-.4-1,0-1.4s1-.9,1.5-1.4c1.1-1,2.3-2.2,3.4-3.2,2.2-1.9,4.4-3.9,6.7-5.7,4.4-3.8,8.9-7.7,13-11.8s1-.4,1.4,0,.4,1,0,1.4c-4.2,4.2-8.7,8.1-13.1,11.9-2.2,1.8-4.4,3.8-6.6,5.7-1.1,1-2.3,2-3.4,3.1-.5.5-1,1-1.5,1.4-.2.2-.4.3-.7.3Z"/>
            <path class="cls-1" d="M60.6,165.6c-.4,0-.7-.2-.9-.6-.2-.5,0-1.1.5-1.4,2.2-1,4.4-1.3,6.7-1.6,1.6-.2,3.2-.4,4.6-.8,1.8-.6,3.7-1,5.4-1.5,3-.7,6-1.5,8.8-2.8.5-.2,1.1,0,1.3.5.2.5,0,1.1-.5,1.3-3,1.3-6.1,2.2-9.1,2.9-1.7.4-3.6.9-5.3,1.4-1.6.5-3.4.7-5,.9-2.2.3-4.2.5-6,1.4,0,0-.3.1-.4.1v.2h0Z"/>
            <path class="cls-1" d="M487.6,358.8c-.2,0-.5,0-.7-.2-.4-.4-.5-1-.1-1.4,6.9-8.2,14.8-16.1,24.2-24.2.4-.4,1.1-.3,1.4.1.4.4.3,1.1-.1,1.4-9.2,8-17.1,15.9-23.9,23.9-.2.2-.5.4-.8.4h0Z"/>
            <path class="cls-1" d="M98,195.2c-.2,0-.5,0-.7-.3-.9-.8-1.8-1.6-2.8-2.5-2-1.7-4.1-3.6-5.9-5.6-2.5-2.8-5.3-5-8.2-7.3-3-2.4-6.1-4.9-8.7-7.9-.4-.4-.3-1.1,0-1.4.4-.4,1.1-.3,1.4.1,2.5,2.9,5.5,5.3,8.4,7.6,2.9,2.3,5.8,4.7,8.4,7.5,1.7,1.9,3.8,3.8,5.7,5.4.9.8,1.8,1.6,2.8,2.5.4.4.4,1,0,1.4-.2.2-.5.3-.7.3l.2.2h.1Z"/>
            <path class="cls-1" d="M324.3-6c-.2,0-.5,0-.7-.2l-27.1-23.4c-.4-.4-.5-1-.1-1.4s1-.5,1.4,0l27.1,23.4c.4.4.5,1,.1,1.4-.2.2-.5.3-.8.3h.1Z"/>
            <path class="cls-1" d="M354.8,224.1c-.3,0-.5,0-.7-.3l-24.4-23.7c-.4-.4-.4-1,0-1.4s1-.4,1.4,0l24.4,23.7c.4.4.4,1,0,1.4s-.5.3-.7.3h0Z"/>
            <path class="cls-1" d="M57.2,231.7c-.2,0-.5,0-.7-.3-.4-.4-.4-1,0-1.4s.7-.8,1-1.1c.8-.8,1.5-1.7,2.5-2.6,8.1-7.6,17.1-15.2,29.3-24.6,1.3-1,2.7-2.3,3.9-3.4,1.5-1.4,3.2-2.9,5-4.2,4.8-3.4,9.8-6.8,14.8-9.9,2-1.3,4-2.7,6-4,.5-.3,1.1-.2,1.4.3s.2,1.1-.3,1.4c-2,1.3-4,2.7-6,4-4.8,3.2-9.8,6.6-14.7,9.9-1.6,1.2-3.3,2.7-4.8,4-1.3,1.1-2.6,2.4-4,3.5-12.2,9.3-21.1,16.9-29.2,24.5-.8.7-1.5,1.5-2.4,2.5-.4.4-.7.8-1.1,1.2-.2.2-.5.3-.7.3h0Z"/>
            <path class="cls-1" d="M75.1,215c-.4,0-.7-.2-.9-.5-.5-1-1.4-1.7-2.4-2.6l-.6-.5c-7.4-6.6-15.1-13.2-23-19.3-.4-.3-.5-1-.2-1.4s1-.5,1.4-.2c8,6.1,15.7,12.8,23.1,19.4l.6.5c1,.9,2,1.8,2.8,3.2.3.5,0,1.1-.4,1.4-.2,0-.3.1-.5.1h.1Z"/>
            <path class="cls-1" d="M740.6,683.6c-.2,0-.4,0-.6-.2-.5-.3-.6-1-.2-1.4,5.6-8.1,12.2-15.8,18.4-23.2,1-1.2,2.2-2.5,3.2-3.8.4-.4,1-.5,1.4,0s.5,1,0,1.4c-1,1.2-2.2,2.6-3.2,3.8-6.3,7.4-12.7,15-18.2,23.1-.2.3-.5.4-.8.4h-.1.1Z"/>
            <path class="cls-1" d="M121.4,181.5c-.3,0-.6-.1-.8-.3-.4-.4-.3-1.1,0-1.4,0-.1.3-.3.4-.4.3-.3.7-.6,1-.9,2.3-1.6,4.6-3.3,6.9-4.9,5.4-3.8,11.2-7.8,15.8-12.8,2.9-3.1,5.8-6.1,8.6-9.1,4-4.2,8.2-8.5,12.1-12.8.4-.4,1-.4,1.4,0s.5,1,0,1.4c-4,4.4-8.1,8.7-12.1,12.9-2.9,3-5.7,6-8.6,9-4.8,5.2-10.6,9.2-16.1,13.1-2.3,1.5-4.5,3.2-6.8,4.8-.3.2-.6.5-.9.8,0,.1-.3.3-.4.4-.2.2-.4.3-.7.3h.2Z"/>
            <path class="cls-1" d="M150.7,239.6h-.6c-.6,0-.9-.6-.8-1.2,0-.6.6-.9,1.2-.8.6,0,1.1,0,1.7-1.2,3.5-6.4,8.5-11.6,13.4-16.6,1.4-1.4,2.9-3,4.3-4.4s1-.4,1.4,0,.4,1,0,1.4c-1.4,1.5-2.9,3.1-4.3,4.5-4.8,4.9-9.7,9.9-13.1,16.1-.8,1.5-1.9,2.4-3.4,2.4h.1Z"/>
            <path class="cls-1" d="M296.4-30.8c-.2,0-.5,0-.6-.2-2.8-2.3-5.5-4.5-8.3-6.8-6-4.8-12.2-9.8-17.9-15.3-.4-.4-.4-1,0-1.4s1-.4,1.4,0c5.6,5.3,11.8,10.3,17.7,15.2,2.8,2.3,5.5,4.5,8.3,6.8.4.4.5,1,.1,1.4-.2.2-.5.4-.8.4h.1Z"/>
            <path class="cls-1" d="M546.5,487.9h-.2c-.5,0-.9-.7-.8-1.2,3.2-15.1,11.9-26.8,22.1-39.7.3-.4,1-.5,1.4-.2s.5,1,.2,1.4c-10,12.6-18.6,24.2-21.7,38.7,0,.5-.5.8-1,.8h0Z"/>
            <path class="cls-1" d="M345.5,242.4h-.4c-1.6-.8-2.9-2-4.1-3.3l-.7-.7c-5.7-5.7-12-11.8-18.2-17.7-1.8-1.7-2.3-3.4-1.4-5.6,2.4-6.5,5.5-12.5,8.1-17.1.3-.5.9-.7,1.4-.4s.7.9.4,1.4c-2.5,4.5-5.6,10.5-8,16.8-.5,1.4-.3,2.3.9,3.4,6.3,5.9,12.5,12,18.2,17.7l.7.7c1.1,1.1,2.2,2.2,3.5,2.8.5.2.7.8.5,1.3-.2.4-.5.6-.9.6h0Z"/>
            <path class="cls-1" d="M459.1,327.1c-.2,0-.5,0-.7-.3-.4-.4-.5-1,0-1.4l1.8-2c6.3-7,12.8-14.2,20.2-20.4.4-.4,1.1-.3,1.4.1.4.4.3,1.1-.1,1.4-7.3,6-13.7,13.2-20,20.2l-1.8,2c-.2.2-.5.3-.8.3h0Z"/>
            <path class="cls-1" d="M113.9,143.4h-.2c-.6,0-.9-.6-.8-1.2.2-1.6,1-3.1,2.3-4.3,5.6-5.5,10.1-11.9,13.6-18.8,4.8-9.7,6.1-18.1,4.1-26.4-.1-.5.2-1.1.7-1.2s1.1.2,1.2.7c2.2,8.7.7,17.8-4.2,27.9-3.5,7.1-8.2,13.6-14,19.3-.9.9-1.4,1.9-1.6,3.2,0,.5-.5.9-1,.9Z"/>
            <path class="cls-1" d="M33.4,183.6c-.2,0-.4,0-.5-.1-.5-.3-.6-.9-.3-1.4.9-1.5,2.3-2.6,3.6-3.6.8-.6,1.5-1.1,2.2-1.8,2.4-2.5,5-4.4,7.6-6.3,2.8-2,5.6-4.1,7.9-6.8.4-.4,1-.5,1.4,0,.4.4.5,1,0,1.4-2.5,2.8-5.4,4.9-8.3,7-2.6,1.8-5.1,3.8-7.3,6-.7.7-1.5,1.4-2.4,2-1.2.9-2.4,1.8-3.1,3.1-.2.3-.5.5-.9.5h.1Z"/>
            <path class="cls-1" d="M48.8,191.5c-.3,0-.5-.1-.7-.3-.4-.4-.3-1.1,0-1.4.5-.4.9-.9,1.4-1.3,1-.9,2-1.9,3.2-2.9,1.5-1.4,3.2-2.8,4.8-4.1,4.2-3.5,8.4-7,11.9-11.3.3-.4,1-.5,1.4-.2.4.4.5,1,.2,1.4-3.6,4.4-8,8.1-12.2,11.6-1.5,1.3-3.2,2.7-4.7,4-1,.9-2,1.8-3.1,2.9-.5.4-.9.9-1.4,1.3-.2.2-.4.3-.7.3h-.1Z"/>
            <path class="cls-1" d="M770.5,727.1c-.2,0-.4,0-.6-.2-.4-.3-.5-1-.2-1.4l4.3-5.3c3.7-4.5,7.4-9.2,11.1-13.8.5-.6,1.1-1.2,1.6-1.8,1.1-1.1,2-2.3,2.7-3.6.2-.5.8-.8,1.3-.5.5.2.8.8.5,1.3-.7,1.7-1.9,3-3.1,4.2-.5.6-1,1.1-1.5,1.7-3.7,4.6-7.5,9.3-11.1,13.8l-4.3,5.3c-.2.2-.5.4-.8.4h.1Z"/>
            <path class="cls-1" d="M385.3,253.3c-.2,0-.5,0-.7-.2-.4-.4-.5-1-.1-1.4,6.3-7.3,13.1-14.1,19.8-20.8l1.5-1.5c.4-.4,1-.4,1.4,0s.4,1,0,1.4l-1.5,1.5c-6.7,6.7-13.4,13.5-19.6,20.7-.2.2-.5.4-.8.4h0Z"/>
            <path class="cls-1" d="M763.5,655.8c-.2,0-.5,0-.7-.3-.4-.4-.4-1,0-1.4,2.2-2.4,4.4-4.6,6.6-6.8l4.5-4.5c1.1-1.1,2.4-2.2,3.5-3.2,2.4-1.9,4.5-3.7,5.7-6.4.2-.5.8-.7,1.3-.5s.7.8.5,1.3c-1.4,3.1-3.9,5.1-6.4,7.1-1.2,1-2.4,1.9-3.4,3-1.4,1.5-3,3.1-4.5,4.5-2.2,2.2-4.4,4.4-6.6,6.8-.2.2-.5.3-.7.3h.1Z"/>
            <path class="cls-1" d="M343.9,250.8h-.2c-1.8-.4-3-1.6-4.1-2.9l-.5-.5c-5.6-5.7-10.7-10.8-15.3-15.3-4-3.8-4.7-7.3-2.7-12.3.2-.5.8-.8,1.3-.6s.8.8.6,1.3c-1.6,4.2-1.1,6.8,2.3,10,4.7,4.5,9.7,9.5,15.4,15.4l.5.5c1,1,1.8,1.9,3.1,2.3.5.1.9.7.7,1.2-.1.5-.5.8-1,.8h-.1Z"/>
            <path class="cls-1" d="M378.3,201.7c-.3,0-.5-.1-.7-.3-.4-.4-.4-1,0-1.4,5.9-5.8,13-11,21.6-15.7.5-.3,1.1,0,1.4.4.3.5,0,1.1-.4,1.4-8.4,4.6-15.3,9.5-21.1,15.3-.2.2-.5.3-.7.3h-.1Z"/>
            <path class="cls-1" d="M505.7,440.4c-.2,0-.4,0-.5-.2-.5-.3-.6-.9-.3-1.4.1-.2.3-.4.4-.6.1,0,.3-.3.3-.4-.4-6.7,2.7-12.1,5.3-16.1,5.1-7.5,10-13.9,15-19.6.4-.4,1-.5,1.4,0,.4.4.5,1,0,1.4-4.9,5.6-9.8,12-14.9,19.4-2.6,3.7-5.4,8.8-5,15,0,.7-.4,1.3-.8,1.8-.1,0-.2.3-.3.4-.2.3-.5.5-.9.5l.3-.2h0Z"/>
            <path class="cls-1" d="M346.9,171.9c-.3,0-.5-.1-.7-.3-.4-.4-.4-1,0-1.4,8-7.9,16.1-15.4,26.1-20.6,2-1,4.2-1.9,6.4-2.8.9-.4,1.9-.7,2.9-1.1.5-.2,1.1,0,1.3.5.2.5,0,1.1-.5,1.3-.9.4-1.9.8-2.9,1.1-2,.8-4.2,1.6-6.1,2.7-9.8,5-17.7,12.4-25.6,20.2-.2.2-.5.3-.7.3h-.1Z"/>
            <path class="cls-1" d="M374.5-16.5c-.3,0-.6-.2-.8-.4-2.7-3.9-6.3-7-9.7-10-1.7-1.4-3.5-3-5.2-4.6-6.3-6-12.4-12.5-18.2-18.8l-1.9-2c-.4-.4-.4-1,0-1.4s1-.4,1.4,0l1.9,2c5.8,6.1,11.9,12.6,18.1,18.6,1.6,1.5,3.4,3.1,5.1,4.5,3.6,3.1,7.4,6.3,10.1,10.5.3.5.2,1.1-.3,1.4-.2,0-.4.2-.6.2h.1Z"/>
            <path class="cls-1" d="M325.8,195.2c-.2,0-.4,0-.6-.2-.4-.3-.5-1-.2-1.4,5.7-7.4,12.1-14.3,18.3-21.1l1.4-1.5c.4-.4,1-.4,1.4,0s.4,1,0,1.4l-1.4,1.5c-6.1,6.7-12.5,13.6-18.1,20.9-.2.3-.5.4-.8.4h0Z"/>
            <path class="cls-1" d="M408.4,230.1c-.3,0-.5-.1-.7-.3-.4-.4-.4-1,0-1.4,5.1-4.8,11-8.7,16.6-12.5,1.5-1,3.1-2,4.5-3.1.5-.3,1.1-.2,1.4.3s.2,1.1-.3,1.4l-4.6,3.1c-5.5,3.7-11.4,7.6-16.3,12.3-.2.2-.4.3-.7.3h.1Z"/>
            <path class="cls-1" d="M96.1,287c-.3,0-.6-.1-.8-.4-2-2.7-3.3-5.7-4.5-8.7l-.5-1.3c-2.9-6.9-6.8-11.2-12.5-13.9-6.3-3-11.5-7.6-16.5-12.1-2.3-1.9-4.6-4.1-7-5.9-5.5-4.4-11-9.1-16.2-13.7-4.5-4-9.2-8.2-14-12-.5-.4-.9-.9-1.3-1.4-.9-1.1-1.6-1.7-2.8-1.7h0c-.6,0-1-.4-1-1s.4-1,1-1h0c2.2,0,3.4,1.3,4.3,2.5.4.4.7.8,1.1,1.1,4.8,3.9,9.5,8.1,14.1,12.1,5.2,4.6,10.6,9.3,16.1,13.7,2.5,1.9,4.8,4,7.1,6,4.9,4.4,10,8.9,16,11.8,6.3,3,10.5,7.7,13.5,15.1l.5,1.3c1.1,2.9,2.4,5.8,4.3,8.3.3.4.3,1.1-.2,1.4-.2.1-.4.2-.6.2v-.2h-.1Z"/>
            <path class="cls-1" d="M773.9,729.6c-1.2,0-2.6-.2-3.9-.6-.5-.2-.8-.7-.7-1.3.2-.5.7-.8,1.3-.7,2.8.8,5.7.6,9.5-.8.8-.3,1.6-.6,2.5-.8,3.2-1.1,6.1-2,8.4-4.4.4-.4,1-.4,1.4,0s.4,1,0,1.4c-2.7,2.7-5.9,3.8-9.2,4.9-.8.3-1.6.5-2.4.8-1.9.7-4.3,1.4-7,1.4h0Z"/>
            <path class="cls-1" d="M136.3,249.1c-.2,0-.4,0-.5-.1-1.1-.7-1.6-1.7-2-2.7-.1-.3-.3-.6-.5-.9-2.6-4.3-5.2-8.5-7.8-12.7l-2.8-4.5c-.3-.5,0-1.1.3-1.4.5-.3,1.1-.1,1.4.3l2.8,4.5c2.6,4.2,5.2,8.5,7.8,12.8.2.3.4.7.5,1.1.4.7.7,1.4,1.3,1.7.5.3.6.9.3,1.4-.2.3-.5.5-.9.5h.1Z"/>
            <path class="cls-1" d="M114.9,268.8c-.3,0-.7-.2-.9-.5-1.7-2.8-3.3-5.6-4.8-8.4-2.3-4.2-4.7-8.5-7.5-12.4-.3-.5-.2-1.1.2-1.4.5-.3,1.1-.2,1.4.2,2.9,4,5.3,8.4,7.7,12.6,1.5,2.8,3.1,5.6,4.8,8.3.3.5.2,1.1-.3,1.4-.2.1-.4.2-.5.2h-.1Z"/>
            <path class="cls-1" d="M354.1,80.4c-.3,0-.5-.1-.7-.3-.4-.4-.4-1,0-1.4l20.3-19.2c.4-.4,1-.4,1.4,0s.4,1,0,1.4l-20.3,19.2c-.2.2-.4.3-.7.3h0Z"/>
            <path class="cls-1" d="M337.7-52.6c-.3,0-.6,0-.8-.4-1.4-1.9-3.1-3.6-4.8-5.2l-3.1-3.1c-1.2-1.3-2.6-2.6-3.8-3.8-2.6-2.5-5.3-5-7.2-8.3-.3-.5-.1-1.1.4-1.4.5-.3,1.1,0,1.4.4,1.7,3,4.2,5.3,6.9,7.8,1.3,1.2,2.7,2.6,3.9,3.9.9,1,1.9,2,3,3,1.7,1.7,3.5,3.5,5,5.5.3.4.2,1.1-.2,1.4-.2,0-.4.2-.6.2h-.1Z"/>
            <path class="cls-1" d="M329.9,198.6c-.2,0-.4,0-.6-.2-.4-.3-.5-1-.2-1.4,5.4-7.1,11.9-15.2,19-22.5.4-.4,1-.4,1.4,0s.4,1,0,1.4c-7,7.4-13.4,15.4-18.9,22.3-.2.3-.5.4-.8.4h.1Z"/>
            <path class="cls-1" d="M89.1,158.8c-1.9,0-3.9-1-5.2-3-.3-.5-.2-1.1.3-1.4s1.1-.2,1.4.3c1.3,1.9,3.5,2.6,5.2,1.6,5.8-3.3,13.3-7.8,19.5-13.9.4-.4,1-.4,1.4,0s.4,1,0,1.4c-6.4,6.4-13.9,11-19.9,14.2-.9.5-1.8.7-2.8.7Z"/>
            <path class="cls-1" d="M103.9,142.6h-.7c-.6,0-1-.5-.9-1.1,0-.6.5-1,1.1-.9,1.4.1,2.4-.2,3.2-1.1,5.1-5.6,9.6-10.8,12.7-17.1.2-.5.5-.9.8-1.3.6-.9.9-1.4.6-2.2-.2-.5,0-1.1.5-1.3s1.1,0,1.3.5c.8,1.8-.2,3.2-.8,4.2-.2.3-.5.6-.6,1-3.2,6.7-7.8,11.9-13.1,17.6-1.1,1.2-2.5,1.8-4.2,1.8h.1Z"/>
            <path class="cls-1" d="M102.7,245.9c-.2,0-.5,0-.7-.3-.4-.4-.5-1,0-1.4,1.1-1.3,2.5-2.7,3.9-3.9,3.9-3.3,7.8-6.7,11.6-10,1.4-1.2,2.9-2.6,4.3-3.8.4-.4,1.1-.3,1.4,0s.3,1.1,0,1.4c-1.4,1.2-2.9,2.6-4.3,3.8-3.8,3.3-7.7,6.8-11.6,10-1.4,1.1-2.6,2.5-3.7,3.7-.2.2-.5.3-.8.3v.2h-.1Z"/>
            <path class="cls-1" d="M134.8,92.1c-.5,0-.9-.4-1-.9,0-.6.3-1.1.8-1.2,7.2-1.1,14.1-3.1,20.4-5.8.5-.2,1.1,0,1.3.5s0,1.1-.5,1.3c-6.5,2.9-13.5,4.9-20.9,6h-.2.1Z"/>
            <path class="cls-1" d="M125.8,97.5c-.2,0-.4,0-.5-.2-1.1-.7-1.2-1.8-1.3-2.6v-.6c-.4-1.6-.7-3.4-1-5-.8-4.5-1.6-8.7-4.4-12.3-.3-.4-.3-1.1.2-1.4.4-.3,1.1-.3,1.4.2,3.1,4,4,8.7,4.8,13.2.3,1.6.6,3.3,1,4.8v.9c0,.7,0,.9.4,1,.5.3.6.9.3,1.4-.2.3-.5.5-.9.5h0Z"/>
            <path class="cls-1" d="M257.5,214.4h-.3c-.5-.2-.8-.7-.7-1.3,0-.2.2-.5.3-.7,0-.2.3-.6.2-.7-.2-1.4-.5-2.9-.8-4.2-.5-2.8-1.1-5.6-1.2-8.6,0-2.2-.9-3.6-1.7-4.1-1-.6-1.8-1.3-2.7-2s-1.5-1.3-2.5-1.8c-.9-.6-1.8-1.2-2.8-1.7-4.3-2.8-8.4-5.4-13.4-6.1-.6,0-.9-.6-.9-1.1s.6-.9,1.1-.9c5.4.8,9.9,3.7,14.2,6.5.9.6,1.8,1.2,2.8,1.7.9.6,1.8,1.3,2.7,2s1.6,1.3,2.5,1.8c1.5.9,2.7,3.3,2.8,5.7,0,2.8.6,5.5,1.2,8.2.3,1.4.6,2.9.8,4.3.1.7-.2,1.3-.4,1.8,0,.2-.1.3-.2.5-.1.4-.5.7-1,.7h.1Z"/>
            <path class="cls-1" d="M345.8,171.6c-.2,0-.5,0-.7-.3l-20.5-18.6c-.4-.4-.4-1,0-1.4s1-.4,1.4,0l20.5,18.6c.4.4.4,1,0,1.4s-.5.3-.7.3h0Z"/>
            <path class="cls-1" d="M585.9,356.6c-.3,0-.7-.2-.9-.5-.3-.5,0-1.1.3-1.4.3-.2.6-.4.9-.5.7-.4,1.3-.8,2-1.2,3.1-1.7,6.5-2.9,9.6-4,2.5-.8,4.9-1.7,7.3-2.8.5-.2,1.1,0,1.3.5s0,1.1-.5,1.3c-2.5,1.1-5,2-7.5,2.9-3.2,1.1-6.4,2.3-9.3,3.9-.6.4-1.3.8-1.9,1.1-.3.2-.6.4-.9.5-.2.1-.3.2-.5.2h.1Z"/>
            <path class="cls-1" d="M121.7,293.9c-.4,0-.8-.2-.9-.6-2-5.1-1.3-7.9,2.9-11.3.5-.4.9-.7,1.4-1.1.9-.7,1.8-1.5,2.9-2.3,1.4-1,2.9-2.3,4.2-3.5,2.6-2.3,5.2-4.5,8.4-6,.5-.2,1.1,0,1.3.5s0,1.1-.5,1.3c-3,1.3-5.4,3.5-8,5.7-1.3,1.2-2.8,2.5-4.3,3.6-.9.7-1.8,1.4-2.8,2.3-.5.4-.9.8-1.4,1.1-3.5,2.8-3.9,4.6-2.3,8.9.2.5,0,1.1-.6,1.3h-.4.1Z"/>
            <path class="cls-1" d="M13.4,201.9h-.2c-.5-.1-.9-.7-.7-1.2v-.3c0-.4.1-1,.6-1.4,2.4-2.2,4.7-4.3,7.1-6.5,3.5-3.1,7-6.4,10.5-9.5,1.9-1.8,3.8-1.1,5-.4,2.8,1.5,5.4,3.2,8.2,4.7l3.8,2.3c.5.3.6.9.4,1.4-.3.5-.9.6-1.4.4l-3.8-2.3c-2.7-1.5-5.4-3.2-8.1-4.7-1.1-.6-1.7-.6-2.6.2-3.5,3.2-7.1,6.5-10.5,9.5-2.4,2-4.6,4.2-7,6.3v.7c-.1.5-.5.8-1,.8h-.3ZM14.5,200.2h0Z"/>
            <path class="cls-1" d="M166.6,139.4c-.2,0-.4,0-.6-.2-3-2.4-5.7-4.9-8.4-7.4-3.8-3.5-7.7-7.1-12-10-.5-.3-.6-.9-.3-1.4s.9-.6,1.4-.3c4.4,3.1,8.4,6.7,12.2,10.2,2.7,2.5,5.4,5,8.3,7.3.4.3.5,1,.2,1.4-.2.2-.5.4-.8.4h0Z"/>
            <path class="cls-1" d="M407,172c-1.8,0-3.2-1.3-3.8-1.9-1.5-1.6-3.3-3.1-5-4.5-4.2-3.4-8.5-7-10.2-12.8v-.2c-.1-.1-.2-.3-.2-.4-2.7-2-5.1-4.5-7.6-6.9-3.1-3-6.3-6.1-9.8-8.6h-.2c-2.8-2-5.7-4-7.6-7.2-.3-.5-.1-1.1.3-1.4.5-.3,1.1-.1,1.4.3,1.6,2.8,4.4,4.6,7,6.5h.2c3.8,2.7,7,5.8,10.1,8.9,2.4,2.4,4.8,4.7,7.5,6.9.5.4.6.9.8,1.4v.2c1.7,5.2,5.5,8.4,9.7,11.8,1.7,1.4,3.6,3,5.2,4.6,1.1,1.2,1.9,1.5,2.9,1.3.5-.1,1.1.2,1.2.7s-.2,1.1-.7,1.2c-.4.1-.8.1-1.1.1h-.1Z"/>
            <path class="cls-1" d="M25,234.9h-.4c-.5-.2-.7-.8-.5-1.3.5-1,0-2-.4-3.2-.2-.4-.4-.8-.5-1.2-.5-1.6-1.2-3.3-1.8-4.9-1-2.6-2.2-5.3-2.8-8.1-.4-1.9-1.3-4.4-3.2-5.2-2.5-1-4.4-2.7-6.3-4.2-1.4-1.1-2.8-2.3-4.2-3.1-.5-.3-.6-.9-.4-1.4.3-.5.9-.6,1.4-.4,1.6.9,3.1,2.2,4.5,3.3,1.8,1.5,3.6,3,5.8,3.9,2.2.9,3.6,3.2,4.4,6.7.6,2.7,1.6,5.1,2.7,7.7.7,1.6,1.3,3.4,1.9,5,.1.3.3.7.4,1,.6,1.3,1.3,3,.4,4.9-.2.4-.5.6-.9.6h-.2Z"/>
            <path class="cls-1" d="M367.6,153c-.3,0-.5,0-.7-.3l-18.5-17.7c-.4-.4-.4-1,0-1.4s1-.4,1.4,0l18.5,17.7c.4.4.4,1,0,1.4s-.5.3-.7.3h0Z"/>
            <path class="cls-1" d="M378.6,4c-.3,0-.6-.2-.8-.4-1.2-1.7-1.3-3.5-1.4-5.3,0-1.2-.1-2.4-.6-3.5-.6-1.5-.7-3.2-.8-4.8-.1-1.9-.2-3.8-1.4-5.3-.3-.4-.3-1.1.2-1.4.4-.3,1.1-.3,1.4.2,1.6,2,1.7,4.3,1.8,6.6,0,1.4.2,2.9.7,4.1.6,1.3.6,2.8.7,4.1,0,1.5.2,3,1,4.2.3.5.2,1.1-.3,1.4-.2,0-.4.2-.6.2h.1Z"/>
            <path class="cls-1" d="M101.9,301.7c-.4,0-.8-.3-.9-.7-.2-.5,0-1.1.6-1.3,2.4-.9,4.2-2.6,6.1-4.4,1.2-1.1,2.5-2.3,3.9-3.3,1-.7,1.9-1.5,2.9-2.4,1.5-1.3,3.1-2.8,5.1-3.7.5-.2,1.1,0,1.3.5.2.5,0,1.1-.5,1.3-1.7.7-3.1,1.9-4.5,3.3-.9.9-1.9,1.8-3.1,2.6-1.3.9-2.5,1.9-3.7,3.1-1.9,1.8-4.1,3.8-6.9,4.8h-.3v.2h-.1Z"/>
            <path class="cls-1" d="M383.1-70.8c-.4,0-.8-.2-.9-.6-.2-.4-.4-.9-.6-1.3-.4-.9-.8-1.8-1.2-2.8-1.9-3.5-3.9-6.9-5.8-10.2l-2.2-3.8c-.3-.5-.1-1.1.4-1.4s1.1-.1,1.4.4l2.2,3.8c1.9,3.4,3.9,6.9,5.8,10.2.5.9.9,1.9,1.3,3,.2.4.4.9.5,1.3.2.5,0,1.1-.5,1.3h-.4,0Z"/>
            <path class="cls-1" d="M372,98.9c-.3,0-.5,0-.7-.3l-18.1-17.3c-.4-.4-.4-1,0-1.4s1-.4,1.4,0l18.1,17.3c.4.4.4,1,0,1.4-.2.2-.5.3-.7.3h0Z"/>
            <path class="cls-1" d="M135.1,200.3c-.3,0-.7-.2-.9-.5-4.2-6.6-9.4-12.5-13.9-17.6-.4-.4-.3-1.1,0-1.4.4-.4,1.1-.3,1.4,0,4.6,5.1,9.8,11.2,14.1,17.8.3.5.2,1.1-.3,1.4-.2.1-.4.2-.5.2h.1Z"/>
            <path class="cls-1" d="M306.8,159c-.3,0-.5,0-.7-.3-2.3-2.2-4.4-4.5-6.6-6.8-3.5-3.6-7-7.4-10.8-10.7-.4-.4-.5-1,0-1.4.4-.4,1-.5,1.4,0,3.9,3.4,7.5,7.2,11,10.8,2.2,2.3,4.3,4.5,6.5,6.7.4.4.4,1,0,1.4s-.5.3-.7.3h-.1Z"/>
            <path class="cls-1" d="M201.2,198.8c-.4,0-.7-.2-.9-.5-1.5-2.8-2.3-5.8-3-8.7-.5-1.9-1-3.9-1.6-5.8-3.8-9.8-9.1-18.6-14.9-27.7-.3-.5-.2-1.1.3-1.4s1.1-.2,1.4.3c5.7,9.1,11.3,18,15.1,28,.7,1.9,1.2,4.1,1.7,6,.7,2.9,1.4,5.6,2.8,8.2.3.5,0,1.1-.4,1.4-.2,0-.3.1-.5.1h0Z"/>
            <path class="cls-1" d="M337.7,130.6c-.3,0-.5,0-.7-.3-1.9-1.9-3.9-4-5.8-5.9-3.7-3.8-7.4-7.7-11.5-11.1-.4-.4-.5-1-.1-1.4s1-.5,1.4-.1c4.2,3.5,8,7.4,11.7,11.2,1.8,1.9,3.8,4,5.7,5.8.4.4.4,1,0,1.4-.2.2-.5.3-.7.3h0Z"/>
            <path class="cls-1" d="M100.7,309.8c-.2,0-.4,0-.6-.2-.9-.8-1.9-1.5-2.9-2.4-5.2-4.2-10.7-8.6-16.7-11.8-.5-.3-.7-.9-.4-1.4s.9-.7,1.4-.4c6.3,3.3,11.8,7.7,17.1,12,.9.8,1.9,1.5,2.9,2.4.4.3.5,1,.2,1.4-.2.3-.5.4-.8.4,0,0-.2,0-.2,0Z"/>
            <path class="cls-1" d="M280.7,181.7c-.3,0-.5,0-.7-.3l-16.6-16.7c-.4-.4-.4-1,0-1.4s1-.4,1.4,0l16.6,16.7c.4.4.4,1,0,1.4s-.5.3-.7.3h0Z"/>
            <path class="cls-1" d="M143,164.5c-.2,0-.5,0-.7-.3l-18-16.2c-.4-.4-.5-1,0-1.4s1-.4,1.4,0l18,16.2c.4.4.5,1,0,1.4-.2.2-.5.3-.8.3h.1Z"/>
            <path class="cls-1" d="M329.2,198.7c-.3,0-.5,0-.7-.3-5.2-5.1-11-9.9-16.5-14.6-2.3-1.8-4.5-3.8-6.8-5.7-.4-.4-.5-1-.1-1.4s1-.5,1.4-.1c2.3,1.9,4.5,3.8,6.8,5.7,5.5,4.6,11.4,9.4,16.6,14.7s.4,1,0,1.4-.5.3-.7.3h0Z"/>
            <path class="cls-1" d="M65.1,297.3h-.4c-.5-.2-.7-.8-.5-1.3.3-.5,0-.9-.4-1.8-.3-.4-.6-.9-.7-1.5-.4-1.6-1.1-3.3-1.8-4.9-1.1-2.7-2.4-5.4-2.5-8.5,0-.6.4-1,1-1h0c.5,0,1,.4,1,1,0,2.8,1.1,5.1,2.3,7.8.7,1.6,1.5,3.4,1.9,5.3,0,.3.3.6.5,1,.5.9,1.2,2.2.5,3.8-.2.4-.5.6-.9.6v-.4h0Z"/>
            <path class="cls-1" d="M310.2,168.2c-.4,0-.8-.2-.9-.6-.2-.5,0-1.1.6-1.3.8-.3,1.5-.7,2-1.3,4.1-5.6,7.9-10.6,12.5-14.9,12.8-11.8,24.5-19.3,36.9-23.5.5-.2,1.1.1,1.3.6.2.5-.1,1.1-.6,1.3-12.1,4.1-23.7,11.5-36.2,23.1-4.5,4.1-8.2,9-12.2,14.6-.8,1.1-1.9,1.6-3,2h-.5Z"/>
            <path class="cls-1" d="M45.8,252.4h-.2c-.5-.1-.9-.7-.8-1.2.4-1.9-.3-3.7-1.1-5.5-.4-1-.9-2.2-1.2-3.3-.2-.8-.5-1.6-.9-2.5-.8-1.7-1.7-3.8-.9-6.3.2-.5.7-.8,1.3-.7.5.2.8.7.7,1.3-.5,1.6,0,3.1.8,4.7.4.9.8,1.8,1,2.9s.6,1.9,1,3c.8,1.9,1.8,4.2,1.2,6.8,0,.5-.5.8-1,.8h.1Z"/>
            <path class="cls-1" d="M36.9,228.9h-.4c-.5-.2-.8-.8-.6-1.3.5-1.3,0-2.5-.6-3.8-.3-.6-.5-1.2-.7-1.8-.3-1.1-.8-2.4-1.3-3.5-1-2.5-2.2-4.9-1.9-7.9,0-.6.5-1,1.1-.9.6,0,1,.5.9,1.1-.1,2.5.8,4.7,1.7,7,.5,1.2,1,2.5,1.4,3.7,0,.5.4,1,.6,1.6.7,1.5,1.4,3.3.6,5.3-.2.4-.5.6-.9.6h.1Z"/>
            <path class="cls-1" d="M30.6,208.3c-.3,0-.5-.1-.7-.3-.4-.4-.4-1,0-1.4l16.5-15.5c.4-.4,1-.4,1.4,0s.4,1,0,1.4l-16.5,15.5c-.2.2-.4.3-.7.3Z"/>
            <path class="cls-1" d="M84.4,310h-.3c-.5-.1-.9-.7-.7-1.2.2-.8.2-1.3,0-2-2.8-6.9-5.7-14.2-8.3-21.6-.4-1.1-.9-2.2-1.4-3.3-1.2-2.6-2.5-5.3-2.4-8.5,0-.6.5-1,1.1-1s1,.5,1,1.1c0,2.7.9,5,2.2,7.5.5,1.1,1.1,2.3,1.5,3.5,2.7,7.4,5.5,14.8,8.3,21.5.4,1.1.5,2.2.2,3.3,0,.5-.5.8-1,.8h-.2Z"/>
            <path class="cls-1" d="M444.3,347c-.2,0-.4,0-.5-.2-.5-.3-.6-.9-.3-1.4,3.3-5.2,7.8-12,13.3-18.3.4-.4,1-.5,1.4-.1s.5,1,.1,1.4c-5.4,6.3-9.8,12.9-13.1,18-.2.3-.5.5-.9.5h0Z"/>
            <path class="cls-1" d="M276.5,242.3c-.5,0-.9-.3-1-.8l-.2-1c-.1-.7-.3-1.5-.4-2.3l-6.5-30.4c-.1-.5.2-1.1.8-1.2.5-.1,1.1.2,1.2.8l6.5,30.4c.2.7.3,1.5.5,2.3l.2,1c.1.5-.2,1.1-.8,1.2h-.3Z"/>
            <path class="cls-1" d="M55.2,273.9c-.2,0-.3,0-.4-.1-3.5-1.7-6.5-4.3-9.3-6.8-1.3-1.2-2.8-2.5-4.2-3.5-.5-.3-.9-.7-1.2-1.1-.9-.8-1.6-1.6-2.8-1.6s-1-.5-.9-1.1c0-.6.5-1,1.1-.9,1.8.1,3.1,1.2,4.1,2.3.4.3.7.7,1.1,1,1.5,1.1,3,2.4,4.3,3.6,2.9,2.5,5.5,4.8,8.9,6.5.5.2.7.9.5,1.4-.2.4-.5.6-.9.6l-.3-.2h0Z"/>
            <path class="cls-1" d="M392.8,33.4c-.5,0-.9-.3-1-.8l-.2-.7c-.1-.5-.2-1-.4-1.4-.4-1.4-.7-3-1-4.5-.7-3.4-1.3-6.5-3.4-9.1-.3-.4-.3-1.1.2-1.4.4-.3,1.1-.3,1.4.2,2.4,3.1,3.1,6.6,3.8,10,.3,1.4.6,2.9,1,4.3.2.5.3,1,.4,1.5l.2.7c.1.5-.2,1.1-.7,1.2h-.3Z"/>
            <path class="cls-1" d="M33.3,256.5h-.4c-.5-.2-.8-.8-.5-1.3.4-1,0-1.8-.6-3.2-.3-.5-.5-1.1-.7-1.7-.4-1.2-.9-2.4-1.4-3.5-1.1-2.3-2.2-4.7-2.2-7.5s.5-1,1-1h0c.6,0,1,.5,1,1,0,2.4.9,4.4,1.9,6.6.6,1.2,1.1,2.5,1.5,3.8.1.4.4.9.6,1.4.6,1.3,1.4,2.9.6,4.9-.2.4-.5.6-.9.6h0Z"/>
            <path class="cls-1" d="M421.4,14.4c-.5,0-.9-.3-1-.8l-2.9-16c0-.5.3-1.1.8-1.2s1.1.3,1.2.8l2.9,16c0,.5-.3,1.1-.8,1.2h-.2Z"/>
            <path class="cls-1" d="M314.9,213.2h0c-1.2,0-2.2-.8-2.8-1.4s-.4-.3-.5-.4c-4.7-3.6-9.3-7-14.3-9.6-.5-.3-.7-.9-.4-1.4.3-.5.9-.7,1.4-.4,5.1,2.8,9.8,6.3,14.7,9.8.2.2.4.3.6.5.6.5,1,.8,1.5.9.6,0,1,.5,1,1.1s-.5,1-1,1h-.2,0Z"/>
            <path class="cls-1" d="M312.7,226.5h-.3c-.5-.1-.9-.7-.7-1.2,0-.2.1-.5.2-.7.1-.4.3-.8.3-1.1.5-11.9,6.7-21.1,12.6-28.6.3-.4,1-.5,1.4-.2s.5,1,.2,1.4c-5.7,7.2-11.7,16-12.1,27.4,0,.6-.2,1.2-.4,1.7,0,.2-.1.4-.2.6-.1.5-.5.7-1,.7Z"/>
            <path class="cls-1" d="M181.2,155.9c-.3,0-.6-.1-.8-.4-4.4-5.2-8.8-10.2-13.7-15-.4-.4-.4-1,0-1.4s1-.4,1.4,0c5,4.8,9.4,9.9,13.8,15.2.4.4.3,1.1-.1,1.4-.2.2-.4.2-.7.2h.1Z"/>
            <path class="cls-1" d="M68.4,269.4c-.4,0-.7-.2-.9-.5-.4-.7-.4-1.4-.4-2v-1.1c-.5-1.5-1.1-3-1.8-4.5-1.2-2.7-2.5-5.4-2.6-8.5,0-.6.4-1,1-1.1.6,0,1,.4,1.1,1,0,2.8,1.2,5.2,2.4,7.8.7,1.5,1.4,3.2,1.9,4.8.2.6.2,1.2.2,1.7v1.1c.3.5,0,1.1-.4,1.4-.2,0-.3.1-.5.1v-.2h0Z"/>
            <path class="cls-1" d="M440.6-53.2c-.3,0-.7-.2-.9-.5-.3-.5-.5-.9-.8-1.4-.6-1-1.1-1.9-1.7-2.8-8.6-11.4-14.9-24.9-19.2-41.1-.1-.5.2-1.1.7-1.2s1.1.2,1.2.7c4.2,16,10.3,29.2,18.9,40.4.7.9,1.3,2,1.9,3.1.3.4.5.9.8,1.3.3.5.1,1.1-.3,1.4h-.6Z"/>
            <path class="cls-1" d="M76.8,291.3h-.3c-1.7-.5-2.9-1.6-4.1-2.8-.7-.6-1.4-1.3-2.2-1.7-1.7-1-3.3-2.3-4.7-3.5-1.9-1.5-3.8-3.1-5.9-4.1-3.5-1.7-4.9-6-5.6-9.1-.4-1.6-1.1-3.3-1.9-4.9-1.1-2.4-2.4-4.9-2.5-7.8,0-.6.4-1,1-1.1.6,0,1,.4,1.1,1,0,2.5,1.1,4.7,2.3,7,.8,1.6,1.6,3.4,2,5.3.6,2.7,1.8,6.5,4.5,7.8,2.4,1.2,4.4,2.8,6.4,4.3,1.5,1.2,2.9,2.4,4.5,3.3.9.6,1.7,1.3,2.6,1.9,1,.9,2,1.8,3.4,2.3.5.2.8.7.6,1.3,0,.4-.5.7-1,.7h-.1Z"/>
            <path class="cls-1" d="M370.8,279.6h-.3c-.5-.2-.8-.7-.7-1.2,1.5-5.5,3.2-11.3,7.3-16.2,1.7-2,3.2-4.3,4.7-6.6.7-1,1.3-2,2-3.1.3-.5.9-.6,1.4-.3.5.3.6.9.3,1.4-.7,1-1.3,2-2,3-1.5,2.3-3.1,4.6-4.8,6.7-3.8,4.5-5.3,10-6.9,15.5-.1.4-.5.7-1,.7h0Z"/>
            <path class="cls-1" d="M551.6-95.8c-.5,0-.9-.3-1-.8-.7-3.4-1.8-4.8-3.8-5.1-.9,0-1.8-.3-2.8-.5-1.9-.4-3.8-.7-5.6-.4-.6,0-1.1-.3-1.2-.8s.3-1.1.8-1.2c2.3-.4,4.4,0,6.5.4.9.2,1.7.3,2.7.4,4.2.5,5.2,5,5.6,6.7,0,.5-.2,1.1-.8,1.2h-.2v.2h-.1Z"/>
            <path class="cls-1" d="M409.7-20.3c-.5,0-.9-.3-1-.8l-3.3-15.6c-.1-.5.2-1.1.8-1.2.5,0,1.1.2,1.2.8l3.3,15.6c.1.5-.2,1.1-.8,1.2,0,0-.2,0-.2,0Z"/>
            <path class="cls-1" d="M375.4,116.3c-.4,0-.7-.2-.9-.5-1.3-2.4-1.5-4.8-1.8-7.2,0-.7-.1-1.3-.2-2,0-.7-.1-1.4-.1-2,0-1.4,0-2.7-.9-3.7-.4-.4-.3-1.1,0-1.4s1.1-.3,1.4,0c1.4,1.6,1.4,3.5,1.4,5.1v1.7c0,.7.2,1.4.2,2.2.2,2.3.4,4.5,1.5,6.4.3.5.1,1.1-.4,1.4-.2,0-.3.1-.5.1h.3Z"/>
            <path class="cls-1" d="M388.6,15.3c-.3,0-.6,0-.8-.4-1-1.3-1.4-2.9-1.7-4.1-.5-2.8-1.1-5.5-1.7-8.3-.2-1.1-.5-2.2-.7-3.3-.1-.5.2-1.1.8-1.2.5,0,1.1.2,1.2.8.2,1.1.5,2.2.7,3.3.6,2.8,1.2,5.5,1.7,8.3.3,1.4.6,2.5,1.3,3.2.3.4.3,1.1-.2,1.4-.2,0-.4.2-.6.2h0Z"/>
            <path class="cls-1" d="M164.5,194.1c-.3,0-.6-.1-.8-.4-1.5-1.9-2.8-4.2-4-6.3-1.6-2.9-3.2-5.6-5.4-7.9s-.4-1,0-1.4,1-.4,1.4,0c2.5,2.5,4.2,5.4,5.8,8.4,1.1,2,2.4,4.2,3.8,6,.3.4.3,1.1-.2,1.4-.2.1-.4.2-.6.2h0Z"/>
            <path class="cls-1" d="M731.5,700.6c-.2,0-.4,0-.5-.2-.5-.3-.6-.9-.3-1.4,0-.2.2-.3.3-.5.2-.3.4-.6.6-1,.6-1.2,1.2-2.6,1.7-3.8,1.6-3.5,3.3-7.2,5.8-10.2.4-.4,1-.5,1.4,0s.5,1,0,1.4c-2.5,2.9-4,6.3-5.5,9.8-.6,1.2-1.1,2.6-1.8,3.9-.2.4-.5.8-.7,1.2,0,.2-.2.3-.3.5-.2.3-.5.5-.9.5h.1v-.2Z"/>
            <path class="cls-1" d="M452.3-.8c-.5,0-.9-.4-1-.9-.2-1.4-.4-2.9-.6-4.3-.5-3.3-1-6.8-.8-10.1.1-3.4-.5-6.5-1.2-9.7-.1-.5-.2-1.1-.3-1.6-.1-.5.2-1.1.8-1.2.6,0,1.1.2,1.2.8.1.5.2,1.1.3,1.6.7,3.3,1.3,6.6,1.2,10.2-.1,3.2.4,6.6.8,9.7.2,1.4.4,2.9.6,4.3,0,.6-.3,1.1-.9,1.1h-.1Z"/>
            <path class="cls-1" d="M269,207.7c-.5,0-.9-.4-1-.9,0-.6.3-1.1.8-1.2,4.6-.7,8.3-3.2,12.2-5.8.9-.6,1.7-1.2,2.7-1.7.5-.3.3-1.3,0-1.6-1.2-2.6-1.8-5.2-2.4-7.9-.4-1.7-.8-3.5-1.3-5.2-.2-.5,0-1.1.6-1.3.5-.2,1.1,0,1.3.6.6,1.8,1,3.7,1.4,5.4.6,2.6,1.1,5,2.3,7.4.7,1.4.7,3.4-.8,4.3-.9.6-1.7,1.1-2.7,1.7-3.9,2.7-7.9,5.4-13,6.1h-.2v.2h.1Z"/>
            <path class="cls-1" d="M287.5,215c-.3,0-.7-.2-.9-.5-1-1.7-1.2-3.5-1.3-5.1-.2-3.3-.4-6.7-1.5-9.8-.2-.5,0-1.1.6-1.3.5-.2,1.1,0,1.3.6,1.2,3.4,1.4,7,1.6,10.3.1,1.6.3,3,1,4.2.3.5.1,1.1-.4,1.4-.2,0-.3.1-.5.1h.1Z"/>
            <path class="cls-1" d="M540.8,316.2c-.3,0-.7-.2-.9-.5-.3-.5-.2-1.1.3-1.4,6.5-4.1,12.1-6.9,18.8-7.4.6,0,1,.4,1.1.9,0,.6-.4,1-.9,1.1-6.3.5-11.7,3.2-17.8,7.1-.2.1-.4.2-.5.2h0Z"/>
            <path class="cls-1" d="M375,133.4c-.2,0-.4,0-.5-.2-.5-.3-.6-.9-.3-1.4.1-.2.3-.4.4-.6.1-.1.3-.3.3-.4-.2-1.5-.3-3.1-.3-4.6-.1-2.9-.3-5.5-1-8.2-.2-.5.2-1.1.7-1.3s1.1.2,1.3.7c.8,2.9,1,5.8,1.1,8.7,0,1.5.2,3.1.3,4.6,0,.7-.4,1.3-.8,1.8-.1.1-.2.3-.3.4-.2.3-.5.5-.9.5h0ZM374.9,130.9h0Z"/>
            <path class="cls-1" d="M121.3,285.6c-.4,0-.8-.2-.9-.6-.2-.4-.4-.9-.6-1.3-.4-1-.9-2-1.3-3.1-.3-.7-.5-1.5-.8-2.3-.8-2.6-1.6-4.9-3.3-7-.3-.4-.3-1.1.2-1.4.4-.3,1.1-.3,1.4.2,1.8,2.3,2.8,5,3.6,7.6.2.7.5,1.4.8,2.2.4,1,.8,1.9,1.2,3,.2.4.4.9.6,1.3.2.5,0,1.1-.5,1.3h-.4,0Z"/>
            <path class="cls-1" d="M261.3,232.9h0c-.6,0-1-.5-.9-1.1.2-2.6,0-4.4-.7-6.4-.8-2.3-1-5.1-.5-8,0-.5.6-.9,1.2-.8.5,0,.9.6.8,1.2-.4,2.6-.3,5,.4,7,1,2.8,1,5.2.8,7.3,0,.5-.5.9-1,.9h-.1Z"/>
            <path class="cls-1" d="M431.2,214.5c-.4,0-.7-.2-.9-.6-.3-.5,0-1.1.4-1.4,1.1-.6,2.4-1,3.5-1.5.8-.3,1.5-.6,2.4-1,1.2-.6,2.6-.7,3.8-.8,1.6-.2,3.1-.3,4.1-1.4.4-.4,1-.4,1.4,0s.4,1,0,1.4c-1.6,1.6-3.6,1.8-5.4,2-1.1.1-2.2.2-3.1.6-.8.4-1.6.7-2.5,1-1.1.5-2.3.9-3.3,1.4-.1,0-.3.1-.5.1v.2h.1Z"/>
            <path class="cls-1" d="M285.1,197.3c-.4,0-.7-.2-.9-.5-.3-.5-.1-1.1.4-1.4,2.8-1.5,5.2-3.7,7.6-5.7,1-.9,2.2-1.8,3.3-2.8,1-.8,1.9-.9,2.8-1h.3c.5-.1,1.1.2,1.2.8,0,.5-.3,1.1-.8,1.2h-.4c-.7.2-1.2.2-1.7.7-1.1.8-2.2,1.8-3.2,2.7-2.5,2.2-4.9,4.3-7.9,5.9-.2,0-.3.1-.5.1h-.1Z"/>
            <path class="cls-1" d="M40.8,274.8c-.2,0-.3,0-.5-.1-.5-.3-.7-.9-.4-1.4.7-1.4.2-2.4-.9-3.9-.3-.4-.6-.9-.8-1.3-.7-1.4-1.1-3-1.4-4.4-.5-2.2-.9-4.1-2.6-5.5-.8-.7-1.6-1.4-2.5-2.2-2-1.8-4.2-3.8-6.5-5.1-.7-.4-1.3-.9-1.9-1.4-1.1-.9-2-1.7-3.4-1.7s0,0,0,0c-.5,0-1-.4-1-1s.4-1,1-1c2.2,0,3.6,1.2,4.8,2.4.5.5,1,.9,1.6,1.2,2.5,1.4,4.7,3.5,6.8,5.3.8.7,1.6,1.4,2.5,2.2,2.2,1.8,2.7,4.3,3.3,6.7.3,1.4.6,2.8,1.2,3.9.2.4.5.7.7,1.1,1,1.4,2.4,3.5,1,6-.2.3-.5.5-.9.5h-.1Z"/>
            <path class="cls-1" d="M449.6-27.4c-.3,0-.7-.2-.9-.5-.6-1-.7-2-.7-3.1v-1c-.2-1.3-.3-2.7-.3-3.9,0-2.2-.2-4.1-.8-5.9-.2-.5,0-1.1.6-1.3.5-.2,1.1,0,1.3.6.8,2.2.9,4.4,1,6.6,0,1.3.1,2.5.3,3.7,0,.4,0,.8.1,1.2,0,.8,0,1.5.4,2,.3.5.1,1.1-.3,1.4h-.7v.2Z"/>
            <path class="cls-1" d="M389.3,146.5h-.1c-.6,0-1-.6-.9-1.1.1-1-.7-1.8-1.3-2.2-3.1-1.6-5.7-3.9-8.3-6-3-2.6-5.8-4.9-9.3-6.5-.5-.2-.9-.5-1.3-.7-1.5-.9-2.6-1.3-4-.7-.7.4-1.4,0-2.2-.5-.3-.2-.6-.4-1-.6-.3-.2-.5-.5-.5-.8s.1-.7.4-.9l27.5-22.1c.4-.4,1.1-.3,1.4.2.4.4.3,1.1-.2,1.4l-26.3,21.2c.1,0,.2.1.3.2,2.3-.9,4.1,0,5.5.9l1.2.6c3.7,1.7,6.8,4.3,9.7,6.8,2.5,2,5.1,4.3,8,5.8,1.3.7,2.6,2.4,2.4,4.2,0,.5-.5.9-1,.9h.1Z"/>
            <path class="cls-1" d="M377.2,135.3c-.3,0-.6-.1-.8-.4-.4-.4-.3-1.1.1-1.4l2.5-2c3.1-2.6,6.3-5.2,9.3-7.8.5-.4,1.2-.4,1.6-.4h.4c.6,0,1,.4,1.1.9,0,.6-.4,1-.9,1.1h-1c-3.1,2.6-6.3,5.2-9.2,7.7l-2.5,2c-.2.2-.4.2-.6.2h0Z"/>
            <path class="cls-1" d="M273.1,225.1c-.4,0-.9-.3-1-.8s.2-1.1.7-1.2c3.4-.9,6-2.9,8.9-4.9,1.3-1,2.7-1.9,4.2-2.9s1.1-.1,1.4.3c.3.5.1,1.1-.3,1.4-1.3.8-2.7,1.8-4,2.8-2.9,2.2-5.8,4.3-9.5,5.3h-.4Z"/>
            <path class="cls-1" d="M269,207.7c-.5,0-.9-.3-1-.8-1.1-5.2-1.7-9.9-2-14.3,0-.6.4-1,1-1.1.6,0,1,.4,1.1,1,.2,4.3.8,8.9,1.9,14,.1.5-.2,1.1-.8,1.2h-.2Z"/>
            <path class="cls-1" d="M59.2,247.7c-.5,0-1-.4-1-.9s.2-1.1.4-1.5.2-.5,0-.8c-.2-.6-.4-1.2-.6-1.7-1-3-2.2-5.9-1.9-9.3,0-.6.5-1,1.1-.9.6,0,1,.5.9,1.1-.2,3,.8,5.6,1.8,8.5.2.6.4,1.2.6,1.8.4,1.1,0,1.9-.2,2.4,0,.1-.2.3-.2.4,0,.6-.4,1-.9,1.1h0Z"/>
            <path class="cls-1" d="M516.9-37.1c-.4,0-.8-.3-1-.7-.8-2.4-1.2-4.7-1.6-7.1-.4-2.6-.9-5-1.8-7.4-.2-.4-.3-.8-.5-1.2-.6-1.3-1.3-3-1.2-4.8,0-.6.5-1,1.1-.9.6,0,1,.5.9,1.1-.1,1.3.4,2.5,1,3.8.2.4.4.8.6,1.3,1,2.6,1.4,5.2,1.9,7.8.4,2.4.8,4.6,1.5,6.8.2.5,0,1.1-.6,1.3,0,0-.3,0-.3,0Z"/>
            <path class="cls-1" d="M484.8-14.2c-.5,0-.9-.4-1-.9-.3-3-.6-5.9-.9-8.8-.8-7.4-1.6-15.1-2.6-22.6-.1-.9-.2-1.8-.3-2.8-.2-2.6-.4-5-1.5-7.3-.3-.5,0-1.1.4-1.4.5-.3,1.1,0,1.4.4,1.3,2.6,1.5,5.4,1.8,8.1,0,.9.1,1.8.3,2.7,1,7.6,1.8,15.3,2.7,22.6.3,3,.6,5.9.9,8.8,0,.6-.3,1.1-.9,1.1h-.3Z"/>
            <path class="cls-1" d="M395.1,157.2h-.3c-.5-.2-.8-.7-.7-1.3.7-2.5.6-5-.4-6.8-.4-.7-1.2-1.6-2.6-1.9-2.2-.4-4.3,0-5.8,1-.5.3-1.1.2-1.4-.2-.3-.5-.2-1.1.2-1.4,2-1.4,4.7-1.9,7.5-1.4,1.6.3,3,1.3,3.9,2.9,1.3,2.3,1.5,5.3.6,8.4-.1.4-.5.7-1,.7h.1Z"/>
            <path class="cls-1" d="M254.2,194.2h-.3c-.5-.1-.9-.7-.7-1.2.1-.4,0-.9,0-1.4v-.8c0-1.2-.5-2.5-.9-3.8-.7-2-1.3-4.2-.8-6.7.1-.5.7-.9,1.2-.8s.9.7.8,1.2c-.4,1.8.1,3.6.7,5.5.4,1.3.9,2.8,1,4.3v.7c0,.7.2,1.4,0,2.3-.1.5-.5.8-1,.8h0Z"/>
            <path class="cls-1" d="M250.8,176.4c-.3,0-.5,0-.7-.3-.4-.4-.4-1,0-1.4l11.5-11.6c.4-.4,1-.4,1.4,0s.4,1,0,1.4l-11.5,11.6c-.2.2-.5.3-.7.3Z"/>
            <path class="cls-1" d="M442.1-40c-.4,0-.8-.3-1-.7-.6-1.8-.8-3.8-.9-5.6-.2-2.2-.4-4.2-1.2-6.1-.2-.5,0-1.1.5-1.3s1.1,0,1.3.5c.9,2.3,1.1,4.5,1.3,6.8.2,1.8.3,3.6.8,5.2.2.5-.1,1.1-.7,1.3h-.3.2Z"/>
            <path class="cls-1" d="M154,177.6c-.3,0-.5-.1-.7-.3l-10-10.9c-.4-.4-.4-1,0-1.4s1-.4,1.4,0l10,10.9c.4.4.4,1,0,1.4s-.4.3-.7.3Z"/>
            <path class="cls-1" d="M268.2,207.4h0c-1.3,0-2.2-.8-2.9-1.4-.2-.1-.3-.3-.5-.4l-8.9-7.2c-.4-.3-.5-1-.2-1.4s1-.5,1.4-.2l8.9,7.2c.2.1.4.3.5.5.6.6,1,.9,1.6.9s1,.5,1,1.1-.5,1-1,1h0Z"/>
            <path class="cls-1" d="M234.3,212.9h-.4c-.5-.2-.8-.8-.6-1.3.7-1.8.8-3.7,1-5.7.2-1.8.3-3.8.9-5.7.2-.5.7-.8,1.3-.6.5.2.8.7.6,1.3-.5,1.6-.7,3.4-.9,5.3-.2,2-.4,4.2-1.1,6.3-.2.4-.5.7-.9.7v-.2h.1Z"/>
            <path class="cls-1" d="M518.6-25.5c-.5,0-.9-.3-1-.8l-2-10.8c-.1-.5.3-1.1.8-1.2s1.1.3,1.2.8l2,10.8c.1.5-.3,1.1-.8,1.2,0,0-.2,0-.2,0Z"/>
            <path class="cls-1" d="M143,121.3h-.4c-1.4-.6-2.9-1.1-4.4-1.6-2.3-.7-4.6-1.4-6.7-2.8-.5-.3-.6-.9-.3-1.4.3-.5.9-.6,1.4-.3,1.8,1.2,4,1.8,6.3,2.6,1.5.5,3.2,1,4.6,1.7.5.2.7.8.5,1.3-.2.4-.5.6-.9.6h-.1Z"/>
            <path class="cls-1" d="M318.9,231.4c-1.9,0-3.7-.8-5.3-2.6-.4-.5-.8-.9-1.1-1.4-.5-.6-.9-1.2-1.5-1.8-4.1-3.6-8.1-7.5-12-11.2-1.4-1.3-2.8-2.7-4.2-4-.4-.4-.4-1,0-1.4s1-.4,1.4,0c1.4,1.3,2.8,2.7,4.2,4,3.9,3.7,7.9,7.6,12,11.2.7.7,1.3,1.4,1.8,2,.3.4.7.8,1,1.2,1.8,2,3.8,2.5,6.1,1.3.5-.2,1.1,0,1.3.5s0,1.1-.5,1.3c-1.1.5-2.2.7-3.3.7h0Z"/>
            <path class="cls-1" d="M475.9-56.2c-.4,0-.7-.2-.9-.5-.9-1.7-.9-3.5-.9-5.2s0-2.9-.6-4.2c-.2-.5,0-1.1.5-1.3s1.1,0,1.3.5c.8,1.6.8,3.4.8,5s0,3,.7,4.3c.3.5,0,1.1-.4,1.4h-.5Z"/>
            <path class="cls-1" d="M168.9,205.8c-.4,0-.7-.2-.9-.5-.6-1.1-1-2.4-1.4-3.6-.6-1.8-1.2-3.6-2.6-4.9s-.4-1,0-1.4,1-.4,1.4,0c1.7,1.6,2.4,3.8,3.1,5.7.4,1.1.7,2.3,1.2,3.2.3.5,0,1.1-.4,1.4-.2,0-.3.1-.5.1h.1Z"/>
            <path class="cls-1" d="M508.7-79.5c-.3,0-.6-.1-.8-.4-.7-.9-1.3-1.9-1.9-2.9-1.4-2.2-2.7-4.2-4.4-5.7-5.1-4.5-6.7-10.3-8.1-16.1l-.4-1.5c-.1-.5.2-1.1.7-1.2.5,0,1.1.2,1.2.7l.4,1.6c1.4,5.6,2.9,11.1,7.5,15.1,1.9,1.7,3.4,4,4.8,6.1.6.9,1.2,1.9,1.8,2.9.3.5.2,1.1-.2,1.4-.2.1-.4.2-.6.2v-.2h0Z"/>
            <path class="cls-1" d="M509.2-68.9c-.5,0-.9-.3-1-.8l-1.5-8.6c0-.6.3-1.1.8-1.2.5,0,1.1.3,1.2.8l1.5,8.6c0,.5-.3,1.1-.8,1.2,0,0-.2,0-.2,0Z"/>
            <path class="cls-1" d="M439.8,357.7h-.4c-.5-.2-.8-.8-.5-1.3.4-1,.7-2,1-3.1.6-2.3,1.2-4.5,3-6.5.4-.4,1-.5,1.4,0s.5,1,0,1.4c-1.3,1.5-1.9,3.5-2.5,5.6-.3,1.1-.6,2.3-1,3.4-.2.4-.5.6-.9.6v-.2h-.1Z"/>
            <path class="cls-1" d="M16,210.7h-.3c-.5-.1-.9-.7-.7-1.2.4-1.5-.2-2.8-.9-4.2-.5-1.1-1.1-2.3-1.2-3.5,0-.6.3-1.1.9-1.1s1.1.3,1.1.9c.1.9.6,1.8,1,2.9.8,1.6,1.7,3.4,1.1,5.7-.1.4-.5.7-1,.7,0,0,0-.2,0-.2Z"/>
            <path class="cls-1" d="M150.3,230.9c-.4,0-.7-.2-.9-.5-.6-1.2-.9-2.5-1.1-3.7-.3-1.5-.6-3-1.6-4.1-.4-.4-.4-1,0-1.4s1-.4,1.4,0c1.4,1.5,1.8,3.4,2.2,5.1.2,1.1.4,2.3.9,3.2.3.5,0,1.1-.4,1.4-.2,0-.3.1-.5.1h.1Z"/>
            <path class="cls-1" d="M122.6,148.1c-.4,0-.8-.2-.9-.6,0-.3-.4-.4-1-.6-.4-.1-.9-.3-1.3-.6-1.9-1.3-4.2-1.8-6.6-2.4-2.2-.5-4.4-.9-6.5-2.2s-.7-.9-.4-1.4c.3-.5.9-.7,1.4-.4,1.7,1,3.8,1.4,5.8,1.8,2.5.5,5,1.1,7.3,2.7.2.1.5.2.7.3.7.2,1.8.6,2.4,1.8.2.5,0,1.1-.6,1.3h-.4v.2h.1Z"/>
            <path class="cls-1" d="M549.4-33.9c-.5,0-.9-.3-1-.8-.3-1.4-.6-2.9-.9-4.3-1.2-5.9-2.6-12-4.4-17.8-.2-.5,0-1.1.7-1.3.5-.2,1.1,0,1.3.7,1.8,5.9,3.2,12.1,4.4,18,.3,1.4.6,2.9.9,4.3,0,.5-.2,1.1-.8,1.2h-.2Z"/>
            <path class="cls-1" d="M402.9,314.8c-.2,0-.4,0-.5-.1-.5-.3-.6-.9-.3-1.4.5-.8.8-1.7,1.1-2.8.5-1.6,1.1-3.4,2.6-4.8.4-.4,1.1-.3,1.4,0s.3,1.1,0,1.4c-1.1,1-1.5,2.4-2,3.9-.3,1-.7,2.2-1.3,3.2-.2.3-.5.5-.9.5h0Z"/>
            <path class="cls-1" d="M201.6,207.5c-.5,0-.9-.3-1-.8l-1.3-6.7c-.1-.5.2-1.1.8-1.2s1.1.2,1.2.8l1.3,6.7c.1.5-.2,1.1-.8,1.2h-.2Z"/>
            <path class="cls-1" d="M96.8,163.8c-.4,0-.9-.3-1-.8-.2-1-1-1.3-2.3-1.9-1.2-.5-2.8-1.2-3.4-3-.2-.5,0-1.1.6-1.3.5-.2,1.1.1,1.3.6.3.9,1,1.2,2.3,1.7,1.3.6,3,1.2,3.5,3.3,0,.5-.2,1.1-.7,1.2h-.3v.2Z"/>
            <path class="cls-1" d="M130.6,117.9c-.2,0-.5,0-.7-.3-.8-.7-1.6-.7-3-.5-1,0-2,.2-3.2-.2-.5-.2-.8-.8-.6-1.3.2-.5.8-.8,1.3-.6.6.2,1.4.2,2.3,0,1.4-.1,3.1-.3,4.6,1.1.4.4.4,1,0,1.4-.2.2-.5.3-.7.3h0Z"/>
            <path class="cls-1" d="M537.6-78.3c-.5,0-1-.4-1-1v-6c-.2-.6.3-1,.8-1h0c.5,0,1,.4,1,1v6c.2.6-.3,1-.8,1h0Z"/>
            <path class="cls-1" d="M706.9,441.3c-.7,0-1.3-.2-1.8-.4-1-.3-1.3-.4-1.7,0s-1.1.3-1.4,0c-.4-.4-.3-1.1,0-1.4,1.3-1.1,2.8-.6,3.8-.3.8.3,1.2.4,1.6.2.5-.3,1.1-.2,1.4.3.3.5.2,1.1-.3,1.4s-1,.5-1.5.5v-.2h0Z"/>
            <path class="cls-1" d="M320.2,217.7c-1.7,0-2.8-1.1-3.6-1.9-.4-.5-.8-.9-1.3-1.1s-.7-.9-.5-1.4.9-.7,1.4-.5c.8.4,1.4,1,1.9,1.6.8.9,1.3,1.4,2.4,1.3.6,0,1.1.3,1.1.9s-.3,1.1-.9,1.1h-.5Z"/>
            <path class="cls-1" d="M120.6,102.5c-.5,0-.9-.4-1-.9,0-.6.3-1.1.9-1.1s.8-.4,1.2-1.1c.5-.7,1.2-1.7,2.6-1.8.6,0,1.1.3,1.1.8s-.3,1.1-.8,1.1-.7.4-1.2,1.1c-.6.8-1.3,1.7-2.7,1.9h-.1Z"/>
            <path class="cls-1" d="M778.3,564.1c-.5,0-1-.4-1-1s-.3-1-.6-1.6c-.7-1.2-1.5-3,0-4.9.3-.4,1-.5,1.4-.2s.5,1,.2,1.4c-.7.9-.4,1.4.2,2.7.4.7.8,1.6.9,2.7,0,.6-.4,1-1,1h-.1Z"/>
          </g>
        </g>
      </g>
    </g>
  </g>
</svg>