<?xml version="1.0" encoding="UTF-8"?>
<svg id="Layer_2" data-name="Layer 2" xmlns="http://www.w3.org/2000/svg" viewBox="0 0 652.55 160.41">
  <defs>
    <style>
      path {
        fill: white;
      }
    </style>
  </defs>
  <g id="Layer_1-2" data-name="Layer 1">
    <g>
      <g>
        <path class="cls-1" d="M137.45,24.1c-6.73-6.87-14.7-12.51-23.52-16.62-.36-.18-.72-.35-1.1-.51-1.73-.77-3.49-1.51-5.28-2.16-5.02-1.83-10.28-3.16-15.71-3.95-3.8-.55-7.68-.85-11.63-.85C35.98,0,0,35.98,0,80.2c0,34.45,21.84,63.9,52.4,75.23,3.6,1.33,7.31,2.41,11.13,3.22,5.38,1.14,10.96,1.76,16.68,1.76,30.46,0,57.01-17.08,70.58-42.16,6.13-11.33,9.62-24.29,9.62-38.05,0-21.82-8.77-41.63-22.96-56.1ZM23.92,123.11c-9.48-12.5-14.49-27.41-14.49-43.13,0-26.83,14.88-50.25,36.81-62.45.58-.32,1.15.45.67.9-2,1.89-3.93,3.9-5.76,6.05-12.71,14.87-20.04,35.09-20.1,55.5,0,26.49,17.72,55.09,46.35,55.09,25.55,0,46.34-24.71,46.34-55.09,0-14.27-4.78-27.98-12.95-38.14-.29-.36.05-.87.49-.74,13.81,4.08,24.14,19.97,24.14,38.88,0,16.7-6.06,33.32-16.62,45.61-10.95,12.74-25.65,19.76-41.39,19.76-16.57,0-32.44-8.13-43.48-22.25ZM137.75,36.9c9.47,12.47,14.47,27.36,14.45,43.07,0,26.83-14.88,50.25-36.81,62.45-.58.32-1.15-.45-.67-.9,2-1.89,3.93-3.91,5.76-6.05,12.71-14.87,20.04-35.09,20.1-55.5,0-26.49-17.72-55.09-46.35-55.09-25.55,0-46.34,24.71-46.34,55.09,0,14.27,4.79,27.98,12.96,38.15.29.36-.05.87-.49.74-13.81-4.08-24.14-19.96-24.14-38.87,0-16.7,6.06-33.32,16.63-45.61,10.95-12.74,25.66-19.76,41.4-19.76,16.56,0,32.42,8.12,43.5,22.28ZM105.35,79.98c0,18.92-9.19,35.25-22.36,42.58-1.63.91-3.64.8-5.15-.31l-2.82-2.06c-11.55-8.43-18.73-23.85-18.73-40.23,0-18.92,9.19-35.25,22.36-42.58,1.63-.91,3.64-.8,5.15.31l2.82,2.06c11.55,8.43,18.73,23.85,18.73,40.23Z"/>
        <g>
          <path class="cls-1" d="M226.95,55.91c-3.58-2.29-7.76-3.43-12.55-3.43s-8.99,1.14-12.59,3.43c-3.6,2.29-6.39,5.57-8.37,9.83-1.97,4.26-2.96,9.34-2.96,15.24s.99,10.9,2.96,15.16c1.97,4.26,4.76,7.55,8.37,9.87,3.6,2.32,7.8,3.47,12.59,3.47s8.97-1.16,12.55-3.47c3.58-2.32,6.37-5.61,8.37-9.87,2-4.26,3-9.32,3-15.16s-1-11.04-3-15.28c-2-4.24-4.79-7.5-8.37-9.79ZM224.86,91.24c-1.03,2.84-2.45,5.01-4.26,6.51-1.82,1.5-3.88,2.25-6.2,2.25s-4.4-.75-6.24-2.25c-1.84-1.5-3.28-3.67-4.3-6.51-1.03-2.84-1.54-6.26-1.54-10.26s.51-7.42,1.54-10.26c1.03-2.84,2.46-5.01,4.3-6.51,1.84-1.5,3.92-2.25,6.24-2.25s4.38.75,6.2,2.25c1.82,1.5,3.24,3.66,4.26,6.47,1.03,2.82,1.54,6.25,1.54,10.3s-.51,7.42-1.54,10.26Z"/>
          <path class="cls-1" d="M258.78,55.32l-13.53,49.98c-.44,1.63.79,3.23,2.47,3.23h6.04c1.16,0,2.18-.78,2.48-1.91l2.07-7.86c.3-1.13,1.31-1.91,2.48-1.91h13.79c1.17,0,2.19.79,2.48,1.92l2.03,7.84c.29,1.13,1.31,1.92,2.48,1.92h6.35c1.69,0,2.92-1.61,2.47-3.24l-13.61-49.98c-.3-1.12-1.32-1.89-2.47-1.89h-13.06c-1.16,0-2.17.78-2.47,1.89ZM264.64,87.38c-1.68,0-2.91-1.59-2.48-3.22l2.27-8.63.82-3.43c.63-2.62,4.36-2.62,4.98,0l.82,3.43,2.23,8.64c.42,1.62-.81,3.2-2.48,3.2h-6.17Z"/>
          <path class="cls-1" d="M352.23,55.99v4.35c0,1.42,1.15,2.56,2.56,2.56h4.11c1.42,0,2.56,1.15,2.56,2.56v31.03c0,1.42-1.15,2.56-2.56,2.56h-4.11c-1.42,0-2.56,1.15-2.56,2.56v4.35c0,1.42,1.15,2.56,2.56,2.56h24.8c1.42,0,2.56-1.15,2.56-2.56v-4.35c0-1.42-1.15-2.56-2.56-2.56h-4.11c-1.42,0-2.56-1.15-2.56-2.56v-31.03c0-1.42,1.15-2.56,2.56-2.56h4.11c1.42,0,2.56-1.15,2.56-2.56v-4.35c0-1.42-1.15-2.56-2.56-2.56h-24.8c-1.42,0-2.56,1.15-2.56,2.56Z"/>
          <path class="cls-1" d="M434.05,85.28c-1.08-2.03-2.5-3.66-4.26-4.9-1.76-1.24-3.68-2.21-5.76-2.92-2.08-.71-4.17-1.32-6.28-1.82-2.11-.5-4.04-1.03-5.8-1.58-1.76-.55-3.17-1.28-4.22-2.17-1.05-.89-1.58-2.08-1.58-3.55,0-2.05.78-3.63,2.33-4.74,1.55-1.11,3.51-1.66,5.88-1.66,1.63,0,3.17.27,4.54.99,1.81.95,3.05,2.41,3.74,3.46.47.71,1.27,1.13,2.12,1.13h6.92c1.79,0,3.07-1.8,2.41-3.47-.47-1.18-1.07-2.28-1.8-3.29-1.95-2.68-4.49-4.74-7.62-6.16-3.13-1.42-6.57-2.13-10.3-2.13-4.05,0-7.58.71-10.58,2.13-3,1.42-5.33,3.35-6.99,5.8-1.66,2.45-2.49,5.2-2.49,8.25s.53,5.38,1.58,7.3c1.05,1.92,2.46,3.46,4.22,4.62,1.76,1.16,3.7,2.11,5.8,2.84,2.1.74,4.2,1.37,6.28,1.89,2.08.53,4,1.09,5.76,1.7,1.76.61,3.17,1.38,4.22,2.33,1.05.95,1.58,2.21,1.58,3.79,0,2.16-.8,3.84-2.41,5.05-1.61,1.21-3.75,1.82-6.43,1.82-3.32,0-5.84-.97-7.58-2.92-.72-.81-1.28-1.79-1.69-2.92-.4-1.1-1.43-1.85-2.61-1.85h-6.22c-1.71,0-2.93,1.63-2.47,3.28.41,1.5.98,2.89,1.69,4.18,1.74,3.11,4.21,5.5,7.42,7.19,3.21,1.68,7.03,2.52,11.45,2.52,4,0,7.57-.7,10.7-2.09,3.13-1.39,5.59-3.32,7.38-5.76,1.79-2.45,2.68-5.3,2.68-8.57s-.54-5.75-1.62-7.78Z"/>
          <path class="cls-1" d="M339.6,85.28c-1.08-2.03-2.5-3.66-4.26-4.9-1.76-1.24-3.68-2.21-5.76-2.92-2.08-.71-4.17-1.32-6.28-1.82s-4.04-1.03-5.8-1.58c-1.76-.55-3.17-1.28-4.22-2.17-1.05-.89-1.58-2.08-1.58-3.55,0-2.05.78-3.63,2.33-4.74,1.55-1.11,3.51-1.66,5.88-1.66,1.63,0,3.17.27,4.54.99,1.81.95,3.05,2.41,3.74,3.46.47.71,1.27,1.13,2.12,1.13h6.92c1.79,0,3.07-1.8,2.41-3.47-.47-1.18-1.07-2.28-1.8-3.29-1.95-2.68-4.49-4.74-7.62-6.16-3.13-1.42-6.57-2.13-10.3-2.13-4.05,0-7.58.71-10.58,2.13-3,1.42-5.33,3.35-6.99,5.8-1.66,2.45-2.49,5.2-2.49,8.25s.53,5.38,1.58,7.3c1.05,1.92,2.46,3.46,4.22,4.62,1.76,1.16,3.7,2.11,5.8,2.84,2.1.74,4.2,1.37,6.28,1.89,2.08.53,4,1.09,5.76,1.7,1.76.61,3.17,1.38,4.22,2.33,1.05.95,1.58,2.21,1.58,3.79,0,2.16-.8,3.84-2.41,5.05-1.61,1.21-3.75,1.82-6.43,1.82-3.32,0-5.84-.97-7.58-2.92-.72-.81-1.28-1.79-1.69-2.92-.4-1.1-1.43-1.85-2.61-1.85h-6.22c-1.71,0-2.93,1.63-2.47,3.28.41,1.5.98,2.89,1.69,4.18,1.74,3.11,4.21,5.5,7.42,7.19,3.21,1.68,7.03,2.52,11.45,2.52,4,0,7.57-.7,10.7-2.09,3.13-1.39,5.59-3.32,7.38-5.76,1.79-2.45,2.68-5.3,2.68-8.57s-.54-5.75-1.62-7.78Z"/>
        </g>
      </g>
      <g>
        <path class="cls-1" d="M460.41,103.56v-49.62c0-1.4,1.14-2.54,2.54-2.54h13.29c3.92,0,7.44.64,10.58,1.92,3.13,1.28,5.8,3.11,7.99,5.49,2.19,2.38,3.89,5.24,5.09,8.58,1.2,3.34,1.8,7.08,1.8,11.21s-.6,7.95-1.8,11.32c-1.2,3.37-2.9,6.27-5.09,8.7-2.19,2.43-4.86,4.28-7.99,5.56-3.13,1.28-6.66,1.92-10.58,1.92h-13.29c-1.4,0-2.54-1.14-2.54-2.54ZM465.66,98.86c0,1.4,1.14,2.54,2.54,2.54h8.04c4.02,0,7.52-.94,10.5-2.82,2.98-1.88,5.29-4.54,6.94-7.99,1.65-3.45,2.47-7.44,2.47-11.99s-.82-8.58-2.47-11.95c-1.65-3.37-3.96-5.97-6.94-7.8-2.98-1.83-6.48-2.74-10.5-2.74h-8.04c-1.4,0-2.54,1.14-2.54,2.54v40.22Z"/>
        <path class="cls-1" d="M530.78,107.04c-4.54,0-8.49-1.18-11.83-3.53-3.34-2.35-5.93-5.64-7.76-9.87-1.83-4.23-2.74-9.19-2.74-14.89s.91-10.67,2.74-14.93c1.83-4.26,4.41-7.55,7.76-9.87,3.34-2.32,7.29-3.49,11.83-3.49s8.49,1.16,11.83,3.49c3.34,2.33,5.93,5.62,7.76,9.87,1.83,4.26,2.74,9.23,2.74,14.93s-.92,10.66-2.74,14.89c-1.83,4.23-4.41,7.52-7.76,9.87-3.34,2.35-7.29,3.53-11.83,3.53ZM530.78,102.34c3.4,0,6.35-.98,8.86-2.94,2.51-1.96,4.45-4.71,5.84-8.27,1.38-3.55,2.08-7.68,2.08-12.38s-.69-8.89-2.08-12.42c-1.38-3.53-3.33-6.27-5.84-8.23-2.51-1.96-5.46-2.94-8.86-2.94s-6.35.98-8.85,2.94c-2.51,1.96-4.45,4.71-5.84,8.27-1.38,3.55-2.08,7.68-2.08,12.38s.69,8.83,2.08,12.38c1.38,3.55,3.33,6.31,5.84,8.27,2.51,1.96,5.46,2.94,8.85,2.94Z"/>
        <path class="cls-1" d="M582.81,107.04c-4.75,0-8.88-1.24-12.38-3.72-3.5-2.48-6.18-5.86-8.03-10.15-1.86-4.28-2.78-9.12-2.78-14.5,0-5.75.99-10.74,2.98-14.97,1.99-4.23,4.74-7.5,8.27-9.79,3.53-2.3,7.56-3.45,12.11-3.45,3.81,0,7.2.74,10.15,2.23,2.95,1.49,5.37,3.59,7.25,6.31,1.33,1.92,2.28,4.08,2.85,6.49.38,1.6-.82,3.15-2.47,3.15h-.67c-1.2,0-2.21-.85-2.48-2.02-.71-3.15-2.19-5.74-4.44-7.78-2.72-2.45-6.14-3.68-10.27-3.68-3.55,0-6.66.98-9.33,2.94-2.66,1.96-4.73,4.71-6.19,8.27-1.46,3.55-2.19,7.68-2.19,12.38s.77,8.97,2.31,12.5c1.54,3.53,3.64,6.26,6.31,8.19,2.66,1.93,5.67,2.9,9.01,2.9,2.92,0,5.49-.6,7.68-1.8,2.19-1.2,3.97-2.87,5.33-5.02,1.01-1.59,1.7-3.36,2.07-5.33.23-1.22,1.26-2.12,2.5-2.12h.68c1.64,0,2.84,1.53,2.48,3.13-.56,2.5-1.49,4.78-2.8,6.83-1.83,2.87-4.27,5.09-7.33,6.66-3.06,1.57-6.6,2.35-10.62,2.35Z"/>
        <path class="cls-1" d="M633.59,107.04c-4.02,0-7.58-.77-10.66-2.31-3.08-1.54-5.49-3.81-7.21-6.82-1.36-2.36-2.18-5.15-2.47-8.37-.13-1.47,1.06-2.72,2.53-2.72h.18c1.33,0,2.4,1.03,2.53,2.35.38,3.84,1.73,6.88,4.04,9.13,2.77,2.69,6.43,4.04,10.97,4.04,3.97,0,7.2-.94,9.68-2.82,2.48-1.88,3.72-4.49,3.72-7.84,0-2.25-.6-4.05-1.8-5.41-1.2-1.36-2.78-2.45-4.74-3.29-1.96-.83-4.09-1.57-6.39-2.19-2.3-.63-4.62-1.29-6.97-2-2.35-.71-4.51-1.58-6.46-2.63-1.96-1.04-3.54-2.43-4.74-4.15-1.2-1.72-1.8-3.94-1.8-6.66,0-2.98.76-5.58,2.27-7.8,1.51-2.22,3.64-3.96,6.39-5.21,2.74-1.25,5.97-1.88,9.68-1.88s7.08.68,9.95,2.04c2.87,1.36,5.13,3.24,6.78,5.64,1.12,1.64,1.87,3.49,2.26,5.54.29,1.56-.92,3-2.51,3h-.14c-1.2,0-2.27-.84-2.48-2.02-.26-1.48-.82-2.81-1.67-4.01-1.23-1.72-2.9-3.07-5.02-4.04-2.12-.97-4.51-1.45-7.17-1.45-3.81,0-6.88.92-9.21,2.74-2.32,1.83-3.49,4.26-3.49,7.29,0,2.04.6,3.66,1.8,4.86,1.2,1.2,2.78,2.18,4.74,2.94,1.96.76,4.1,1.44,6.43,2.04,2.32.6,4.65,1.25,6.97,1.96,2.32.71,4.47,1.63,6.43,2.78,1.96,1.15,3.54,2.66,4.74,4.55,1.2,1.88,1.8,4.28,1.8,7.21,0,3.29-.84,6.09-2.51,8.38-1.67,2.3-3.94,4.06-6.82,5.29-2.87,1.23-6.09,1.84-9.64,1.84Z"/>
      </g>
    </g>
  </g>
</svg>
