<?xml version="1.0" encoding="UTF-8"?>
<svg xmlns="http://www.w3.org/2000/svg" version="1.1" viewBox="0 0 419 419">
  <defs>
    <style>
      .cls-1 {
        fill: #0500e2;
      }
    </style>
  </defs>
  <!-- Generator: Adobe Illustrator 28.7.5, SVG Export Plug-In . SVG Version: 1.2.0 Build 176)  -->
  <g>
    <g id="Layer_1">
      <path class="cls-1" d="M245.8,408h-.2c-25.7,0-51.2-4.1-75.8-12.3-15.5-5.1-29.9-12.1-44.8-20.9-10.2-6-19.8-12.7-28.5-19.7-37.9-30.6-65.3-71.5-79.2-118.2-14.3-48-13.3-98.5,2.9-146.1C36.8,41.9,68,.3,110.3-29.5c41.5-29.2,89-44.7,139.2-44.7s51.2,4.1,75.8,12.3c11.6,3.9,22.2,8.3,32.3,13.4,14.6,7.3,29.3,16.2,41.9,26.2,3.8,3,7.6,6.4,13,11.1.8.7,1.7,1.6,2.6,2.5,21,19.9,38,43.2,50.7,69.2l.2.5c27.5,57.2,31.4,121.7,11,181.8-12.9,37.8-35.1,72.2-64.2,99.5-45.4,42.3-105.4,65.6-167.1,65.6ZM249.3-72.6v.3s-.7,0-.7,0c-49.5.2-96.3,15.5-137.2,44.4C69.3,1.7,38.3,43,21.8,91.6c-16,47.3-17.1,97.4-2.9,144.9,13.9,46.6,41.1,87.2,78.6,117.3,8.6,7,18.1,13.6,28.3,19.5,14.4,8.5,28.7,15.4,44.4,20.7,24.3,8.1,49.7,12.2,75.3,12.2,61.2,0,120.8-23.1,165.8-65.1,29-27.1,51.1-61.3,63.8-98.7,20.2-59.4,16.4-123.3-10.7-180.1l-.2-.5c-12.5-26-29.5-49.3-50.5-69.2-.9-.9-1.7-1.7-2.6-2.4-4.6-4.3-8.6-7.7-12.9-11.1-12.3-9.8-26.9-18.5-41.5-26-10.5-5.3-21.3-9.8-32.1-13.4-24.4-8.1-49.7-12.2-75.2-12.2h-.3ZM287.9,378h-.2c-1-.1-1.8-.8-2.1-1.8-.4-1.3.2-2.7,1.4-3.2,7.4-3.4,14.9-7.4,22.2-11.7,50.2-30.1,90.4-80.5,110.2-138.2,15.5-45.6,12.9-96.6-6.9-136.4-15.2-30.7-39.7-52.4-70.8-62.8-11.9-4-24.4-6-37-6-62.6,0-122.9,48.6-146.5,118.2-13.5,39.6-13.5,83.3,0,120,.3.9,0,2-.7,2.6-.8.6-1.9.6-2.7,0-16.1-11.3-27.6-28.9-35.9-55.3-.1-.3-.2-.5-.3-.8-.7-2-9.1-29.2-7.8-38.1h1.5c-.2,7.9,2.7,21.7,7.9,37.9v.4c7.9,20.9,17.6,41.9,35.4,54.3h0s.6,0,.6,0v-.2c.2,0,.2-.2,0-.4-13.5-36.9-13.5-81.1,0-121.2,24-70.3,85-119.5,148.3-119.5h.1c12.8,0,25.4,2,37.5,6,31.7,10.6,56.5,32.6,71.9,63.7,20,40.2,22.6,91.7,7,137.8-19.9,58.1-60.4,108.9-111.1,139.2-7.1,4.3-14.6,8.2-22.2,11.8-.2,0-.4.2-.4.4,0,.2,0,.4,0,.6h0c0,.5.5.7.9.6,76.4-14.4,139.2-68.9,164.1-142.2,15.1-44.4,15.3-91.2.6-135.4-17.6-50.4-54.6-88.3-101.4-103.9-15.8-5.2-32.2-7.9-48.8-7.9-29.6,0-59.6,8.6-87,24.9-16.4,9.8-45.2,36.8-88.6,109.7q-2.6,4.3-3.2,4l-.6-.3.2-.7c16.2-47.7,49.6-89.4,91.6-114.4,27.6-16.5,58-25.2,87.9-25.2s33.4,2.7,49.4,8c47.3,15.8,84.6,54,102.4,104.9,14.8,44.6,14.6,91.9-.6,136.8-25.1,73.8-88.4,128.7-165.3,143.4h-.1s-.6,0-.6,0h-.2ZM198.7,22.7c-31.6,23.7-56.9,57.3-71.3,95.2,31-51.7,54.5-79.9,71.3-95.2ZM198.3,349c-16.7,0-33.3-2.7-49.2-8-47-15.6-84.3-53.6-102.3-104.3l-.2-.6c-14.9-44.8-14.7-92.1.6-136.8C72.2,25.5,134.6-29.4,211.5-44.1c.2,0,.3,0,.5,0,.9,0,2.1.5,2.5,1.7.4,1.3.9,2.7-.4,3.2-7.4,3.4-14.9,7.4-22.2,11.7C141.7,2.8,101.6,53.2,81.8,110.8c-15.5,45.6-12.9,96.6,6.9,136.4,15.2,30.7,39.7,52.4,70.8,62.8,11.9,4,24.4,6,37,6,62.6,0,122.9-48.6,146.5-118.2,13.5-39.6,13.5-83.3,0-120-.3-.9,0-2,.7-2.6.8-.6,1.8-.4,2.6.2h0l.2.2c17.3,12.1,30,32,35.7,56v.4c7.5,30.1,3.4,48.3.3,56.4l-1.4-.5c7.3-19.3,2.2-45.3-.3-55.5v-.4c-5.8-23.7-18.3-43.3-35.2-55.2h0s-.6,0-.6,0v.2c-.2,0-.2.2,0,.4,13.5,36.9,13.5,81.1,0,121.2-24,70.3-85,119.5-148.3,119.5s-25.4-2-37.5-6c-31.7-10.6-56.5-32.6-71.9-63.7-20-40.2-22.6-91.7-7-137.8C100.2,52.2,140.7,1.5,191.3-28.9c6.7-4,13.2-8,21.2-11.8.2,0,.4-.2.4-.4,0-.2,0-.4,0-.6h0c0-.5-.5-.7-.9-.6C135.7-27.9,73.8,26.5,48.8,99.9c-15,44.4-15.3,91.1-.7,135.1l.2.6c17.7,50.5,54.7,88.2,101.3,103.7,15.8,5.2,32.2,7.9,48.8,7.9,29.6,0,59.6-8.6,87-24.9,28.9-17.2,53.7-42.2,71.8-72.3l1.3.8c-18.3,30.5-43.3,55.7-72.4,73.1-27.5,16.4-57.9,25.1-87.8,25.1ZM211.9,291.1c-4.6-.3-8.7-2.6-11.3-6.4l-6-8.5c-24.8-35.1-30.3-86-14.4-132.9,17.7-52.3,59-91.8,105.3-100.6,1-.2,1.9-.3,2.9-.3,4.9,0,9.5,2.4,12.3,6.3l6,8.5c24.6,34.8,30.2,85.4,14.7,131.9l-.2.7h0s-.2.4-.2.4h0s-.2.7-.2.7c-17.9,51.8-59.1,90.9-105,99.6-.9.2-1.9.2-2.9.2h-.2c0,0-.8,0-.8,0ZM288.2,44.4c-.9,0-1.7,0-2.5.2-45.5,8.6-86.2,47.5-103.8,99.3-15.7,46.4-10.3,96.7,14.2,131.2l6,8.5c2.4,3.5,6.4,5.6,10.7,5.6.9,0,1.8,0,2.6-.3,45.4-8.6,86.2-47.5,103.9-99.3,15.7-46.4,10.3-96.7-14.2-131.2l-6-8.5c-2.4-3.5-6.5-5.6-10.9-5.6h-.1Z"/>
      <g>
        <path class="cls-1" d="M241.2,417.8h-.4c-63.1,0-121.6-24.2-166.3-68.2-11.8-11.5-22.5-24.6-31.9-38.7-6.3-9.5-11.9-19.6-16.9-30.2C5.2,236.8-2.4,188,5.5,139.9,13.6,90.7,37.5,45.7,72.8,9.8c23.2-23.6,49.3-41.8,79.7-54.3,29.3-12,60.3-18.1,92-18.1,63.2,0,123.7,24.2,168.5,68.2,8.2,8.1,16,16.9,23,26.1,9.8,12.9,18.3,26.8,25.2,41.4,2.5,5.3,4.6,10.4,6.7,15.7l.2.6c.4.9.7,1.8,1,2.8,10.1,27.5,14.2,56,14,84.9v4.8c-1.5,61.6-25.2,119.8-68.5,163.6-28,28.4-63.8,49.7-101.8,61.5-23.2,7.2-47.3,10.9-71.6,11h-.1ZM244.5-62.4c-65.4,0-125.7,25.7-171.6,72.2C37.8,45.6,13.9,90.5,5.8,139.8c-7.9,48.1-.3,96.8,20.1,140.8,4.8,10.3,10.5,20.5,16.9,30.2,9.6,14.5,20.3,27.4,31.8,38.6,44.8,43.9,103.1,68.1,166.2,68.1,24.3,0,48.5-3.7,71.8-10.9,38-11.8,73.8-33,101.7-61.4,44.5-45.2,69.1-104.9,69.3-168.2v-3.1c-.2-27.9-5.3-55.4-15-81.6l-1-2.8-.2-.6c-2-5-4.2-10.5-6.6-15.7-6.9-14.6-15.4-28.5-25.2-41.3-7.3-9.6-15-18.4-23-26.1-44.6-43.8-104.9-68-168-68.1h0ZM241.7,392.2c-18.8,0-36.5-2.6-54.4-7.5-.9-.2-1.5-1.1-1.4-2,.2-1,.9-1.6,1.9-1.6,1.3,0,2.6,0,4,0,7.6,0,14.5-.3,21.1-1,58.3-5.2,116.6-33.3,159.7-76.9,28.5-28.9,47.6-67.7,52.5-106.3,5.4-42.5-7-81-35-108.5-22.7-22.3-54.2-34.6-88.7-34.6s-91,20.3-125.8,55.7c-29.5,30-48.8,69.6-52.9,108.8,0,.7-.5,1.2-1.2,1.3-.2,0-.4,0-.5,0-.6,0-1-.3-1.3-.8-10.2-18.5-12.8-41.9-7.4-65.9,5.4-24.3,18.9-48.5,38-68.1,35.2-35.8,83.2-58.8,131.7-63.1,5.5-.5,11-.7,16.4-.7,43.7,0,84,16,113.6,45,35.4,34.7,52,85.3,45.7,138.9-6.1,46.6-26.9,89-60.1,122.7-40.3,41-97.4,64.5-154.9,64.5h-1ZM187.9,381.3c-1,0-1.3.7-1.5,1v.2c-.1,0-.1.2-.1.2,0,.8.3,1.3,1,1.5,18.4,5,36.3,7.5,55.3,7.5,57.4,0,114.4-23.5,154.8-64.4,33.1-33.6,53.9-75.9,60-122.4,6.3-53.5-10.3-104-45.7-138.6-29.5-28.9-69.6-44.9-113.2-44.9s-11,.2-16.6.7c-48.4,4.2-96.3,27.1-131.5,63-19.1,19.5-32.6,43.6-38,67.9-5.4,23.9-2.7,47.2,7.4,65.6.2.4.6.7,1.2.7s1.2-.6,1.2-1.2c4-39.2,23.3-78.9,52.9-108.9,35-35.5,81-55.8,126.2-55.8s66.3,12.3,89,34.7c28,27.6,40.5,66.2,35.1,108.8-5,38.7-24.2,77.5-52.6,106.4-43.3,43.6-101.6,71.7-160,77-7.5.6-14.9.9-21.9.9s-.5,0-.8,0h.1c0-.1-2.4-.1-2.4-.1ZM194.8,335.6h-2.4c-43.6,0-83.9-16-113.5-45-35.2-34.5-51.9-85-45.8-138.4h0v-.4c6.1-46.6,26.9-89,60.2-122.7C133.6-11.9,189.7-35.4,247.2-35.4s38,2.5,56.3,7.5c.9.2,1.5,1.1,1.4,1.9h0c0-.9-.3-1.4-1-1.6-18.4-5-37.3-7.5-56.4-7.5-57.4,0-113.4,23.4-153.7,64.3-32.8,33.4-53.5,75.3-59.9,121.4h-.4v1.3c-6.3,53.3,10.4,103.8,45.7,138.4,30,29.4,69.1,44.9,113.2,44.9s11-.2,16.5-.7c48.4-4.2,96.3-27.1,131.5-63,19.1-19.5,32.6-43.6,38-67.9,5.4-23.9,2.7-47.2-7.4-65.6-.2-.4-.6-.7-1.2-.7s-1.2.6-1.2,1.2c-4,39.2-23.3,78.9-52.9,108.9-34.9,35.5-80.9,55.8-126.2,55.8h0c-34.6,0-66.2-12.3-88.9-34.6-28-27.6-40.5-66.2-35.1-108.8,5-38.7,24.2-77.5,52.6-106.4C161.5,9.7,219.8-18.4,278.2-23.7c7.6-.6,14.8-.9,21.9-.9s2.1,0,3.2,0c1,0,1.3-.7,1.5-1h0c.3-.4-.8,1.3-1.7,1.3s0,0-.2,0c-1.4,0-2.7,0-4,0-7.6,0-14.5.3-21.1,1-58.3,5.2-116.6,33.3-159.7,76.9-28.5,28.9-47.6,67.7-52.5,106.3-5.4,42.5,7,81,35,108.5,22.7,22.3,54.2,34.6,88.7,34.6s91-20.3,125.8-55.7c29.5-30,48.8-69.6,52.9-108.8,0-.7.5-1.2,1.2-1.3.2,0,.4,0,.5,0,.6,0,1,.3,1.3.8,10.2,18.5,12.8,41.9,7.4,65.9-5.4,24.4-19,48.6-38.2,68.1-35.2,35.8-83.2,58.8-131.7,63.1-4.7.4-9.4.6-14.1.7h.1ZM190.1,278.1h-.4c-10.2,0-20.1-1.3-29.4-3.8-5.5-1.5-9.6-6.1-10.4-11.6l-1.6-10.3c-6.8-42.4,10.4-90.5,45-125.5,29.8-30.3,70.1-48.4,108-48.4s20.2,1.3,29.5,3.8c5.5,1.5,9.6,6.1,10.4,11.6l1.6,10.3c6.8,42-10.2,89.8-44.4,124.9l-.6.6c-29.7,30.2-69.9,48.3-107.6,48.4h-.1ZM301.2,78.8c-37.8,0-78.1,18.1-107.8,48.3-34.5,35.1-51.7,83.1-45,125.3l1.6,10.3c.9,5.5,4.8,9.9,10.2,11.4,9.3,2.6,19.2,3.8,29.4,3.8,38.1,0,77.1-17.4,107.2-47.7l.6-.6c34.5-35.1,51.7-83.1,45-125.3l-1.6-10.3c-.9-5.5-4.8-9.9-10.2-11.4-9.4-2.6-19.3-3.9-29.4-3.9Z"/>
        <path class="cls-1" d="M241.1,418.7h-.1c0-.1-.1-.1-.1-.1-63.3,0-122-24.3-166.9-68.4-11.8-11.6-22.6-24.6-32-38.8-6.3-9.5-12-19.7-16.9-30.3C4.5,236.9-3.2,188.1,4.8,139.8,12.9,90.5,36.9,45.3,72.2,9.3c23.3-23.6,49.5-41.9,79.9-54.4,29.4-12.1,60.5-18.2,92.3-18.2,63.4,0,124.1,24.3,169,68.4,8.3,8.1,16,17,23.1,26.2,9.8,12.9,18.3,26.9,25.3,41.5,2.5,5.3,4.7,10.4,6.7,15.8l.2.6c.4,1,.7,1.9,1,2.9,10.1,27.6,14.2,56.2,14.1,85.1v4.8c-1.5,61.9-25.3,120.1-68.7,164.1-28,28.5-64,49.8-102.1,61.7-23.3,7.3-47.4,11-71.8,11h-.3ZM244-61.6c-64.9.2-124.8,25.7-170.4,72C38.5,46,14.6,90.8,6.5,139.9c-7.9,48-.3,96.5,20.1,140.3,4.8,10.3,10.5,20.4,16.8,30.1,9.6,14.4,20.3,27.4,31.7,38.5,44.6,43.8,102.8,67.9,165.7,67.9,24.2,0,48.3-3.7,71.6-10.9,37.8-11.8,73.5-32.9,101.4-61.2,44.3-45,68.9-104.6,69.1-167.6v-3.1c-.2-27.8-5.3-55.2-15-81.3l-1.3-3.4c-2-5-4.2-10.4-6.6-15.7-6.9-14.6-15.4-28.4-25.1-41.1-7.3-9.6-15-18.3-22.9-26-44.5-43.7-104.6-67.8-167.4-67.8h-.6s0-.1,0-.1ZM242.4,393h-.8c-18.9,0-36.6-2.6-54.6-7.5-1.3-.3-2.1-1.6-1.9-2.9.2-1.4,1.2-2.2,2.7-2.2,1.3,0,2.6,0,4,0,7.6,0,14.5-.3,21-1,58.2-5.2,116.2-33.2,159.3-76.7,28.4-28.8,47.4-67.4,52.3-105.9,5.4-42.3-7-80.6-34.8-107.9-22.6-22.2-53.9-34.4-88.2-34.4s-90.6,20.2-125.3,55.5c-29.4,29.8-48.6,69.3-52.6,108.3-.1,1.1-.9,1.9-1.9,2-.2,0-.4,0-.6,0-.9,0-1.6-.4-2-1.2-10.3-18.6-13-42.2-7.5-66.4,5.4-24.4,19-48.8,38.2-68.5,35.3-35.9,83.5-59,132.1-63.3,5.5-.5,11.1-.7,16.5-.7,43.9,0,84.4,16.1,114.1,45.2,35.5,34.8,52.2,85.7,45.9,139.5-6.2,46.8-27,89.4-60.3,123.1-40.4,41.1-97.7,64.7-155.4,64.7h-.2ZM187,382.7h0c0,.6.2.8.5.9,18.2,5,36.1,7.5,55,7.5,57.2,0,114-23.4,154.2-64.2,33-33.5,53.7-75.6,59.8-122,6.3-53.2-10.3-103.5-45.4-138-29.3-28.8-69.3-44.7-112.6-44.7s-11,.2-16.5.7c-48.2,4.2-95.9,27-131.1,62.7-19,19.4-32.5,43.4-37.8,67.5-5.3,23.7-2.7,46.8,7.3,65.1,0,.2.2.3.5.3s.5-.2.5-.5c4.1-39.4,23.4-79.3,53.1-109.4,35.1-35.6,81.3-56,126.7-56s66.6,12.4,89.6,34.9c28.2,27.8,40.8,66.6,35.3,109.5-5,38.8-24.2,77.8-52.8,106.9-43.4,43.7-101.9,71.9-160.5,77.2-7.6.6-14.9.9-22,.9h-2.6s.1-.1.1-.1h-.6c-.4,0-.6.2-.8.6h0ZM192.9,336.4h.1c0-.1-.6-.1-.6-.1-43.8,0-84.3-16-114-45.2-35.4-34.7-52.1-85.4-46-139v-.3c6.2-46.8,27-89.4,60.4-123.2C133.2-12.6,189.5-36.2,247.2-36.2s38.1,2.5,56.5,7.6c1.1.3,1.9,1.3,1.9,2.4h.1c0,0-.1.6-.1.6,0,0-.1.3-.3.6-.1.2-.3.4-.4.5-.5.5-1.2,1-1.9.9-1.3,0-2.7,0-4,0-7.6,0-14.5.3-21,1-58.2,5.2-116.2,33.2-159.3,76.7-28.4,28.8-47.4,67.4-52.3,105.9-5.4,42.3,7,80.6,34.8,107.9,22.6,22.2,53.9,34.4,88.2,34.4s90.6-20.2,125.3-55.5c29.4-29.8,48.6-69.3,52.6-108.3.1-1.1.9-1.9,1.9-2,.2,0,.4,0,.6,0,.9,0,1.6.4,2,1.2,10.3,18.6,13,42.2,7.5,66.4-5.4,24.5-19.1,48.8-38.3,68.5-35.3,35.9-83.5,59-132.1,63.3-4.7.4-9.5.6-14.1.7h-1.8ZM34.3,151.3v.5c-6.3,53.2,10.3,103.4,45.4,137.9,29.8,29.2,68.8,44.7,112.7,44.7s10.9-.2,16.4-.7c48.2-4.2,95.9-27,131.1-62.7,19-19.4,32.4-43.4,37.8-67.5,5.3-23.7,2.7-46.8-7.3-65.1,0-.2-.2-.3-.5-.3s-.5.2-.5.5c-4.1,39.4-23.4,79.3-53.1,109.4-35.1,35.6-81.2,56.1-126.7,56.1-34.8,0-66.6-12.4-89.5-34.8-28.2-27.8-40.8-66.6-35.3-109.5,5-38.8,24.2-77.8,52.8-106.9C161.1,9,219.6-19.1,278.2-24.4c8.8-.7,17-1,25.2-.9.2,0,.3,0,.5-.1,0,0,.2-.2.2-.3,0,0,0-.1,0-.2h0c0-.7-.2-.8-.5-.9-18.3-5-37.2-7.5-56.1-7.5-57.2,0-113,23.4-153.1,64.1-32.6,33.2-53.3,75.1-59.7,121v.6h-.4ZM189.9,279h-.1c0-.1-.1-.1-.1-.1-10.2,0-20.2-1.3-29.6-3.8-5.8-1.6-10.1-6.4-11-12.2l-1.6-10.3c-6.9-42.6,10.5-91,45.2-126.2,29.9-30.4,70.5-48.6,108.6-48.6s20.3,1.3,29.7,3.9c5.8,1.6,10.1,6.4,11,12.2l1.6,10.3c6.8,42.2-10.3,90.3-44.6,125.6l-.6.6c-29.8,30.3-70.2,48.5-108.1,48.7h-.3ZM301.2,79.5c-37.6,0-77.7,18-107.3,48.1-34.3,34.9-51.5,82.7-44.7,124.6l1.6,10.3c.8,5.2,4.5,9.3,9.7,10.8,9.3,2.5,19.1,3.8,29.2,3.8,37.9,0,76.7-17.3,106.7-47.5l.6-.6c34.3-34.9,51.5-82.7,44.7-124.6l-1.6-10.3c-.8-5.2-4.5-9.3-9.7-10.8-9.4-2.5-19.2-3.8-29.2-3.8Z"/>
      </g>
      <g>
        <path class="cls-1" d="M239.4,408.2c-25.8,0-51.3-4.1-75.9-12.3-15.6-5.1-30-12.1-44.8-20.8-10.1-5.9-19.7-12.5-28.5-19.6-37.8-30.4-65.2-71.1-79.2-117.8-14.3-47.6-13.3-97.8,2.8-145.3C30.4,43.8,61.5,2.4,103.8-27.2c41.4-29,88.8-44.4,139-44.4s51.3,4.1,75.8,12.3c11.7,3.9,22.5,8.5,32.2,13.4,14.4,7.3,29.2,16.1,41.9,26.1,4,3.2,8,6.6,12.9,11.1.8.7,1.7,1.6,2.6,2.5,21.2,20.1,38.2,43.3,50.7,68.9l.2.5c27.5,56.8,31.4,121.1,11.1,181-12.8,37.7-35,71.9-64.1,98.9-45.3,42-105.2,65.2-166.7,65.2ZM242.6-71.3c-50,0-97.3,15.4-138.5,44.4C61.8,2.7,30.8,44,14.2,92.7-1.8,139.9-2.8,190.1,11.5,237.8c14,46.7,41.4,87.4,79.1,117.6,8.8,7.1,18.4,13.7,28.6,19.6,14.8,8.6,29.1,15.6,44.7,20.7,24.4,8.1,49.9,12.2,75.7,12.2h0c61.5,0,121.3-23.1,166.5-65.1,29.1-27,51.3-61.2,64.1-98.8,20.3-59.5,16.4-123.6-10.8-180.3l-.2-.5c-12.5-26-29.6-49.3-50.8-69.3-.9-.9-1.7-1.7-2.6-2.5-4.9-4.6-8.9-7.9-12.9-11.2-12.5-10-27.3-18.7-41.8-26-9.8-5-20.7-9.5-32.2-13.4-24.6-8.1-50.1-12.2-75.8-12.2h-.5ZM281.6,378.2c-.7,0-1.5-.6-1.7-1.3-.3-1,0-1.8,1-2.3,7.9-3.6,15.4-7.6,22.2-11.8,50.5-30.2,90.8-80.6,110.7-138.4,15.5-45.6,13-96.6-6.9-136.4-15.3-31-40.1-52.9-71.6-63.3-12-4-24.6-6-37.4-6-63,0-123.6,48.7-147.3,118.4-13.5,39.7-13.5,83.5,0,120.3.2.6,0,1.3-.5,1.8-.2.2-.5.3-.9.3s-.6-.1-.9-.3c-17.3-12-30-31.8-35.7-55.7-5.9-24.2-4.3-51.7,4.5-77.5,16.1-47.2,49.4-88.7,91.4-113.7,27.5-16.3,57.8-25,87.5-25s33.4,2.7,49.4,8c47.2,15.7,84.4,53.7,102.3,104.3,14.9,44.3,14.7,91.4-.5,136-25.1,73.5-88.3,128.1-165,142.5h-.6ZM280.3,376.7c.2.5.7,1.1,1.4,1.1s.2,0,.4,0c76.7-14.4,139.8-68.8,164.8-142.2,15.2-44.5,15.4-91.4.6-135.6-17.9-50.6-55-88.6-102.1-104.3-16-5.3-32.6-8-49.3-8-29.7,0-60,8.6-87.4,24.9-41.9,24.9-75.2,66.3-91.4,113.6-8.8,25.8-10.4,53.2-4.6,77.3,5.7,23.8,18.4,43.5,35.6,55.6l.3.2h1.2l.3-.5c.2-.3.2-.7,0-1.1-13.5-36.9-13.5-80.8,0-120.4,23.7-69.8,84.5-118.6,147.7-118.6h.1c12.8,0,25.4,2,37.5,6,31.5,10.5,56.4,32.4,71.8,63.4,19.8,39.9,22.4,91,6.9,136.7-19.8,57.8-60.2,108.3-110.9,138.5-7.1,4.3-14.6,8.2-22.3,11.7-.4.1-.7.4-.8.8-.1.4-.1.8,0,1.2ZM194.5,349.1h-2.4c-16.7,0-33.3-2.7-49.4-8-47-15.6-84.2-53.4-102.1-103.7l-.2-.6c-14.8-44.3-14.7-91.3.5-136C65.9,27.4,128.2-27.3,204.9-41.7c.1,0,.2,0,.3,0,.9,0,1.5.5,1.8,1.3.3,1,.9,1.8,0,2.3-7.4,3.4-14.9,7.4-22.2,11.8C134.4,3.8,94.1,54.2,74.1,112c-15.5,45.6-13,96.6,6.9,136.4,15.3,31,40.1,52.9,71.6,63.3,12,4,24.6,6,37.4,6,63,0,123.6-48.7,147.3-118.4,13.5-39.7,13.5-83.5,0-120.3-.2-.6,0-1.3.5-1.8.2-.2.5-.3.9-.3s.6.1.9.3c17.3,12,30,31.8,35.7,55.7,5.9,24.2,4.3,51.7-4.5,77.5-16.2,47.4-49.5,88.8-91.4,113.8-27.2,16.1-55.9,24.5-85.1,24.9h0ZM40.9,237c17.7,50.5,54.9,88.4,102,103.9,15.9,5.3,32.5,8,49.2,8,29.7,0,60-8.6,87.4-24.9,41.8-24.8,75.1-66.2,91.3-113.6,8.8-25.7,10.4-53.2,4.6-77.4-5.7-23.8-18.4-43.5-35.6-55.6l-.3-.2h-1.2l-.3.5c-.2.3-.2.7,0,1.1,13.5,36.9,13.5,80.8,0,120.4-23.8,69.9-84.5,118.6-147.7,118.6-12.8,0-25.4-2-37.4-6-31.5-10.5-56.4-32.4-71.8-63.4-19.8-39.9-22.4-91-6.9-136.7C93.9,53.9,134.3,3.5,184.9-26.7c7.1-4.3,14.6-8.2,22.3-11.7.4-.1.7-.4.8-.8.1-.4-.9-.8-1-1.2-.2-.5-.7-1.1-1.4-1.1s-.2,0-.4,0C128.5-27,66.3,27.5,41.2,100.9c-15,44.3-15.3,91.1-.7,135.4l.2.7h.2ZM205.4,291.4c-4.4-.3-8.4-2.5-10.8-6l-6-8.5c-24.8-34.9-30.3-85.5-14.4-132,17.6-51.9,58.8-91.1,104.8-99.7.9-.2,1.8-.3,2.8-.3,4.7,0,9.1,2.2,11.8,6l6,8.5c24.8,34.9,30.3,85.5,14.4,132-17.6,51.9-58.8,91.1-104.8,99.7-.9.2-1.8.2-2.7.2h-1ZM281.6,45.3c-.9,0-1.8,0-2.7.3-45.7,8.6-86.8,47.7-104.5,99.5-15.8,46.4-10.3,96.9,14.4,131.7l6,8.5c2.7,3.7,6.9,5.9,11.4,5.9s1.9,0,2.8-.3c45.5-8.6,86.4-47.2,104.3-98.6h.1s.6-1.9.6-1.9h0c15.4-46.2,9.8-96.2-14.7-130.8l-6-8.5c-2.6-3.7-6.9-5.9-11.5-5.9h-.1Z"/>
        <path class="cls-1" d="M239.4,409c-25.8,0-51.5-4.1-76.2-12.3-15.6-5.1-30.1-12.2-44.9-20.9-10.1-6-19.8-12.6-28.6-19.7-37.9-30.5-65.4-71.4-79.4-118.1-14.3-47.7-13.4-98.1,2.8-145.7C29.8,43.4,60.9,1.9,103.3-27.9c41.5-29.1,89.1-44.5,139.5-44.5s51.4,4.1,76.1,12.3c11.7,4,22.6,8.5,32.3,13.4,14.5,7.3,29.3,16.1,42,26.2,4.1,3.2,8.1,6.7,13,11.1.8.7,1.7,1.6,2.6,2.5,21.2,20.2,38.3,43.4,50.8,69.1l.2.5c27.6,57,31.5,121.5,11.1,181.5-12.9,37.8-35.1,72.1-64.3,99.2-45.5,42.2-105.5,65.4-167.2,65.4ZM243-70.7h-.2c0,.1-.2.1-.2.1-49.9,0-97,15.3-138.1,44.2C62.4,3.2,31.5,44.4,15,92.9-1,140-2,190,12.2,237.5c14,46.6,41.2,87.1,78.9,117.2,8.8,7.1,18.4,13.7,28.5,19.5,14.7,8.6,29,15.5,44.5,20.7,24.4,8.1,49.8,12.2,75.5,12.2,61.3,0,120.9-23.1,166-64.9,29-26.9,51.1-61,63.9-98.5,20.2-59.3,16.4-123.2-10.8-179.7l-.2-.5c-12.5-25.9-29.5-49.2-50.6-69.1-.9-.9-1.7-1.7-2.6-2.4-5-4.6-8.9-7.9-12.9-11.1-12.5-9.9-27.2-18.7-41.7-25.9-9.8-5-20.6-9.5-32.1-13.4-24.5-8.1-49.9-12.2-75.5-12.2h0ZM282.3,378.9h-.7c-1.1,0-2.1-.8-2.4-1.8-.4-1.3.1-2.6,1.4-3.2,7.9-3.6,15.4-7.6,22.2-11.7,50.3-30.1,90.5-80.4,110.4-138,15.5-45.4,12.9-96.2-6.9-135.9-15.2-30.8-39.8-52.5-71.2-62.9-12-4-24.5-6-37.2-6-62.7,0-123,48.5-146.6,117.9-13.5,39.5-13.5,83.2,0,119.8.3.9,0,2-.7,2.6-.8.6-1.9.6-2.7,0-17.4-12.1-30.2-32.1-36-56.1-5.9-24.3-4.3-52,4.5-78,16.1-47.4,49.5-89,91.7-114.1,27.6-16.4,58-25.1,87.9-25.1s33.6,2.7,49.6,8c47.4,15.8,84.8,53.9,102.8,104.8,14.9,44.5,14.7,91.7-.5,136.5-25.2,73.7-88.6,128.5-165.5,143h0ZM297.9,17.7h.1c12.8,0,25.5,2,37.8,6,31.7,10.5,56.7,32.6,72.3,63.8,19.9,40,22.5,91.4,7,137.3-19.9,57.9-60.4,108.6-111.2,138.9-7.2,4.3-14.7,8.2-22.3,11.7-.2,0-.4.2-.4.4,0,.2,0,.4,0,.6h0c0,.4.5.7.9.6,76.5-14.3,139.4-68.6,164.3-141.7,15.1-44.4,15.3-91.1.6-135.1-17.8-50.4-54.8-88.2-101.6-103.8-15.9-5.3-32.4-7.9-49.1-7.9-29.6,0-59.7,8.6-87,24.8-41.7,24.8-74.9,66-91.1,113.2-8.7,25.6-10.3,52.9-4.5,76.8,5.7,23.6,18.2,43.2,35.3,55.2h0s.6,0,.6,0v-.2c.2,0,.2-.2,0-.4-13.6-37.1-13.5-81.2,0-121,23.8-70.1,84.9-119.1,148.4-119.1ZM192.5,350h.1c0-.1-.6-.1-.6-.1-16.8,0-33.4-2.7-49.6-8-47.2-15.7-84.6-53.6-102.5-104.2l-.2-.6c-14.9-44.5-14.7-91.7.5-136.5C65.3,26.9,127.8-28,204.8-42.4c.2,0,.3,0,.5,0,1.2,0,2.1.7,2.5,1.8.4,1.3.9,2.5-.4,3.2-7.4,3.4-14.9,7.4-22.2,11.7C134.9,4.4,94.7,54.6,74.8,112.3c-15.5,45.4-12.9,96.2,6.9,135.9,15.2,30.8,39.8,52.5,71.2,62.9,12,4,24.5,6,37.2,6,62.7,0,123-48.5,146.6-117.9,13.5-39.5,13.5-83.2,0-119.8-.3-.9,0-2,.7-2.6.8-.6,1.9-.6,2.7,0,17.4,12.1,30.2,32.1,36,56.1,5.9,24.3,4.3,52-4.5,78-16.2,47.5-49.7,89.2-91.7,114.2-27.3,16.2-56.1,24.6-85.5,25h-1.8ZM41.2,236.2h.1l.2.5c17.7,50.3,54.7,88,101.6,103.5,15.8,5.3,32.3,7.9,49,7.9,29.6,0,59.7-8.6,87-24.8,41.7-24.7,74.8-66,91-113.2,8.7-25.6,10.3-52.9,4.5-77-5.7-23.6-18.2-43.2-35.3-55.2h0s-.6,0-.6,0v.2c-.2,0-.2.2,0,.4,13.6,37.1,13.5,81.2,0,121-23.9,70.2-84.9,119.2-148.4,119.2-12.9,0-25.5-2-37.7-6-31.7-10.5-56.7-32.6-72.3-63.8-19.9-40-22.5-91.4-6.9-137.3C93.3,53.5,133.8,2.9,184.5-27.4c7.2-4.3,14.7-8.2,22.3-11.7.2,0,.4-.2.4-.4,0-.2,0-.4,0-.6-.1-.4-1.5-.7-1.9-.6C128.9-26.3,66.9,28,41.9,101.1c-15,44.1-15.2,90.8-.7,134.9v.2ZM205.4,292.2c-4.7-.3-8.8-2.6-11.4-6.4l-6-8.5c-24.9-35.1-30.4-85.9-14.5-132.6,17.7-52.2,59.1-91.5,105.4-100.2,1-.2,1.9-.3,2.9-.3,4.9,0,9.6,2.4,12.4,6.3l6,8.5c24.9,35.1,30.4,85.9,14.5,132.6-17.7,52.2-59.1,91.5-105.4,100.2-.9.2-1.9.2-2.9.2h-.2c0,0-.8,0-.8,0ZM281.6,46.1c-.9,0-1.7,0-2.5.2-45.6,8.6-86.4,47.5-104,99-15.7,46.2-10.2,96.4,14.3,131l6,8.5c2.5,3.5,6.6,5.6,10.8,5.6s1.8,0,2.7-.3c45.2-8.5,85.9-47,103.7-98.1l.2-.7h0s.2-.4.2-.4v-.7c15.4-45.9,9.8-95.7-14.5-130.1l-6-8.5c-2.4-3.5-6.5-5.6-10.9-5.6h-.1Z"/>
      </g>
      <g>
        <path class="cls-1" d="M239.4,408.2c-25.8,0-51.3-4.1-75.9-12.3-15.6-5.1-30-12.1-44.8-20.8-10.1-5.9-19.7-12.5-28.5-19.6-37.8-30.4-65.2-71.1-79.2-117.8-14.3-47.6-13.3-97.8,2.8-145.3C30.4,43.8,61.5,2.4,103.8-27.2c41.4-29,88.8-44.4,139-44.4s51.3,4.1,75.8,12.3c11.7,3.9,22.5,8.5,32.2,13.4,14.4,7.3,29.2,16.1,41.9,26.1,4,3.2,8,6.6,12.9,11.1.8.7,1.7,1.6,2.6,2.5,21.2,20.1,38.2,43.3,50.7,68.9l.2.5c27.5,56.8,31.4,121.1,11.1,181-12.8,37.7-35,71.9-64.1,98.9-45.3,42-105.2,65.2-166.7,65.2ZM242.6-71.3c-50,0-97.3,15.4-138.5,44.4C61.8,2.7,30.8,44,14.2,92.7-1.8,139.9-2.8,190.1,11.5,237.8c14,46.7,41.4,87.4,79.1,117.6,8.8,7.1,18.4,13.7,28.6,19.6,14.8,8.6,29.1,15.6,44.7,20.7,24.4,8.1,49.9,12.2,75.7,12.2h0c61.5,0,121.3-23.1,166.5-65.1,29.1-27,51.3-61.2,64.1-98.8,20.3-59.5,16.4-123.6-10.8-180.3l-.2-.5c-12.5-26-29.6-49.3-50.8-69.3-.9-.9-1.7-1.7-2.6-2.5-4.9-4.6-8.9-7.9-12.9-11.2-12.5-10-27.3-18.7-41.8-26-9.8-5-20.7-9.5-32.2-13.4-24.6-8.1-50.1-12.2-75.8-12.2h-.5ZM281.6,378.2c-.7,0-1.5-.6-1.7-1.3-.3-1,0-1.8,1-2.3,7.9-3.6,15.4-7.6,22.2-11.8,50.5-30.2,90.8-80.6,110.7-138.4,15.5-45.6,13-96.6-6.9-136.4-15.3-31-40.1-52.9-71.6-63.3-12-4-24.6-6-37.4-6-63,0-123.6,48.7-147.3,118.4-13.5,39.7-13.5,83.5,0,120.3.2.6,0,1.3-.5,1.8-.2.2-.5.3-.9.3s-.6-.1-.9-.3c-17.3-12-30-31.8-35.7-55.7-5.9-24.2-4.3-51.7,4.5-77.5,16.1-47.2,49.4-88.7,91.4-113.7,27.5-16.3,57.8-25,87.5-25s33.4,2.7,49.4,8c47.2,15.7,84.4,53.7,102.3,104.3,14.9,44.3,14.7,91.4-.5,136-25.1,73.5-88.3,128.1-165,142.5h-.6ZM280.3,376.7c.2.5.7,1.1,1.4,1.1s.2,0,.4,0c76.7-14.4,139.8-68.8,164.8-142.2,15.2-44.5,15.4-91.4.6-135.6-17.9-50.6-55-88.6-102.1-104.3-16-5.3-32.6-8-49.3-8-29.7,0-60,8.6-87.4,24.9-41.9,24.9-75.2,66.3-91.4,113.6-8.8,25.8-10.4,53.2-4.6,77.3,5.7,23.8,18.4,43.5,35.6,55.6l.3.2h1.2l.3-.5c.2-.3.2-.7,0-1.1-13.5-36.9-13.5-80.8,0-120.4,23.7-69.8,84.5-118.6,147.7-118.6h.1c12.8,0,25.4,2,37.5,6,31.5,10.5,56.4,32.4,71.8,63.4,19.8,39.9,22.4,91,6.9,136.7-19.8,57.8-60.2,108.3-110.9,138.5-7.1,4.3-14.6,8.2-22.3,11.7-.4.1-.7.4-.8.8-.1.4-.1.8,0,1.2ZM194.5,349.1h-2.4c-16.7,0-33.3-2.7-49.4-8-47-15.6-84.2-53.4-102.1-103.7l-.2-.6c-14.8-44.3-14.7-91.3.5-136C65.9,27.4,128.2-27.3,204.9-41.7c.1,0,.2,0,.3,0,.9,0,1.5.5,1.8,1.3.3,1,.9,1.8,0,2.3-7.4,3.4-14.9,7.4-22.2,11.8C134.4,3.8,94.1,54.2,74.1,112c-15.5,45.6-13,96.6,6.9,136.4,15.3,31,40.1,52.9,71.6,63.3,12,4,24.6,6,37.4,6,63,0,123.6-48.7,147.3-118.4,13.5-39.7,13.5-83.5,0-120.3-.2-.6,0-1.3.5-1.8.2-.2.5-.3.9-.3s.6.1.9.3c17.3,12,30,31.8,35.7,55.7,5.9,24.2,4.3,51.7-4.5,77.5-16.2,47.4-49.5,88.8-91.4,113.8-27.2,16.1-55.9,24.5-85.1,24.9h0ZM40.9,237c17.7,50.5,54.9,88.4,102,103.9,15.9,5.3,32.5,8,49.2,8,29.7,0,60-8.6,87.4-24.9,41.8-24.8,75.1-66.2,91.3-113.6,8.8-25.7,10.4-53.2,4.6-77.4-5.7-23.8-18.4-43.5-35.6-55.6l-.3-.2h-1.2l-.3.5c-.2.3-.2.7,0,1.1,13.5,36.9,13.5,80.8,0,120.4-23.8,69.9-84.5,118.6-147.7,118.6-12.8,0-25.4-2-37.4-6-31.5-10.5-56.4-32.4-71.8-63.4-19.8-39.9-22.4-91-6.9-136.7C93.9,53.9,134.3,3.5,184.9-26.7c7.1-4.3,14.6-8.2,22.3-11.7.4-.1.7-.4.8-.8.1-.4-.9-.8-1-1.2-.2-.5-.7-1.1-1.4-1.1s-.2,0-.4,0C128.5-27,66.3,27.5,41.2,100.9c-15,44.3-15.3,91.1-.7,135.4l.2.7h.2ZM205.4,291.4c-4.4-.3-8.4-2.5-10.8-6l-6-8.5c-24.8-34.9-30.3-85.5-14.4-132,17.6-51.9,58.8-91.1,104.8-99.7.9-.2,1.8-.3,2.8-.3,4.7,0,9.1,2.2,11.8,6l6,8.5c24.8,34.9,30.3,85.5,14.4,132-17.6,51.9-58.8,91.1-104.8,99.7-.9.2-1.8.2-2.7.2h-1ZM281.6,45.3c-.9,0-1.8,0-2.7.3-45.7,8.6-86.8,47.7-104.5,99.5-15.8,46.4-10.3,96.9,14.4,131.7l6,8.5c2.7,3.7,6.9,5.9,11.4,5.9s1.9,0,2.8-.3c45.5-8.6,86.4-47.2,104.3-98.6h.1s.6-1.9.6-1.9h0c15.4-46.2,9.8-96.2-14.7-130.8l-6-8.5c-2.6-3.7-6.9-5.9-11.5-5.9h-.1Z"/>
        <path class="cls-1" d="M239.4,409c-25.8,0-51.5-4.1-76.2-12.3-15.6-5.1-30.1-12.2-44.9-20.9-10.1-6-19.8-12.6-28.6-19.7-37.9-30.5-65.4-71.4-79.4-118.1-14.3-47.7-13.4-98.1,2.8-145.7C29.8,43.4,60.9,1.9,103.3-27.9c41.5-29.1,89.1-44.5,139.5-44.5s51.4,4.1,76.1,12.3c11.7,4,22.6,8.5,32.3,13.4,14.5,7.3,29.3,16.1,42,26.2,4.1,3.2,8.1,6.7,13,11.1.8.7,1.7,1.6,2.6,2.5,21.2,20.2,38.3,43.4,50.8,69.1l.2.5c27.6,57,31.5,121.5,11.1,181.5-12.9,37.8-35.1,72.1-64.3,99.2-45.5,42.2-105.5,65.4-167.2,65.4ZM243-70.7h-.2c0,.1-.2.1-.2.1-49.9,0-97,15.3-138.1,44.2C62.4,3.2,31.5,44.4,15,92.9-1,140-2,190,12.2,237.5c14,46.6,41.2,87.1,78.9,117.2,8.8,7.1,18.4,13.7,28.5,19.5,14.7,8.6,29,15.5,44.5,20.7,24.4,8.1,49.8,12.2,75.5,12.2,61.3,0,120.9-23.1,166-64.9,29-26.9,51.1-61,63.9-98.5,20.2-59.3,16.4-123.2-10.8-179.7l-.2-.5c-12.5-25.9-29.5-49.2-50.6-69.1-.9-.9-1.7-1.7-2.6-2.4-5-4.6-8.9-7.9-12.9-11.1-12.5-9.9-27.2-18.7-41.7-25.9-9.8-5-20.6-9.5-32.1-13.4-24.5-8.1-49.9-12.2-75.5-12.2h0ZM282.3,378.9h-.7c-1.1,0-2.1-.8-2.4-1.8-.4-1.3.1-2.6,1.4-3.2,7.9-3.6,15.4-7.6,22.2-11.7,50.3-30.1,90.5-80.4,110.4-138,15.5-45.4,12.9-96.2-6.9-135.9-15.2-30.8-39.8-52.5-71.2-62.9-12-4-24.5-6-37.2-6-62.7,0-123,48.5-146.6,117.9-13.5,39.5-13.5,83.2,0,119.8.3.9,0,2-.7,2.6-.8.6-1.9.6-2.7,0-17.4-12.1-30.2-32.1-36-56.1-5.9-24.3-4.3-52,4.5-78,16.1-47.4,49.5-89,91.7-114.1,27.6-16.4,58-25.1,87.9-25.1s33.6,2.7,49.6,8c47.4,15.8,84.8,53.9,102.8,104.8,14.9,44.5,14.7,91.7-.5,136.5-25.2,73.7-88.6,128.5-165.5,143h0ZM297.9,17.7h.1c12.8,0,25.5,2,37.8,6,31.7,10.5,56.7,32.6,72.3,63.8,19.9,40,22.5,91.4,7,137.3-19.9,57.9-60.4,108.6-111.2,138.9-7.2,4.3-14.7,8.2-22.3,11.7-.2,0-.4.2-.4.4,0,.2,0,.4,0,.6h0c0,.4.5.7.9.6,76.5-14.3,139.4-68.6,164.3-141.7,15.1-44.4,15.3-91.1.6-135.1-17.8-50.4-54.8-88.2-101.6-103.8-15.9-5.3-32.4-7.9-49.1-7.9-29.6,0-59.7,8.6-87,24.8-41.7,24.8-74.9,66-91.1,113.2-8.7,25.6-10.3,52.9-4.5,76.8,5.7,23.6,18.2,43.2,35.3,55.2h0s.6,0,.6,0v-.2c.2,0,.2-.2,0-.4-13.6-37.1-13.5-81.2,0-121,23.8-70.1,84.9-119.1,148.4-119.1ZM192.5,350h.1c0-.1-.6-.1-.6-.1-16.8,0-33.4-2.7-49.6-8-47.2-15.7-84.6-53.6-102.5-104.2l-.2-.6c-14.9-44.5-14.7-91.7.5-136.5C65.3,26.9,127.8-28,204.8-42.4c.2,0,.3,0,.5,0,1.2,0,2.1.7,2.5,1.8.4,1.3.9,2.5-.4,3.2-7.4,3.4-14.9,7.4-22.2,11.7C134.9,4.4,94.7,54.6,74.8,112.3c-15.5,45.4-12.9,96.2,6.9,135.9,15.2,30.8,39.8,52.5,71.2,62.9,12,4,24.5,6,37.2,6,62.7,0,123-48.5,146.6-117.9,13.5-39.5,13.5-83.2,0-119.8-.3-.9,0-2,.7-2.6.8-.6,1.9-.6,2.7,0,17.4,12.1,30.2,32.1,36,56.1,5.9,24.3,4.3,52-4.5,78-16.2,47.5-49.7,89.2-91.7,114.2-27.3,16.2-56.1,24.6-85.5,25h-1.8ZM41.2,236.2h.1l.2.5c17.7,50.3,54.7,88,101.6,103.5,15.8,5.3,32.3,7.9,49,7.9,29.6,0,59.7-8.6,87-24.8,41.7-24.7,74.8-66,91-113.2,8.7-25.6,10.3-52.9,4.5-77-5.7-23.6-18.2-43.2-35.3-55.2h0s-.6,0-.6,0v.2c-.2,0-.2.2,0,.4,13.6,37.1,13.5,81.2,0,121-23.9,70.2-84.9,119.2-148.4,119.2-12.9,0-25.5-2-37.7-6-31.7-10.5-56.7-32.6-72.3-63.8-19.9-40-22.5-91.4-6.9-137.3C93.3,53.5,133.8,2.9,184.5-27.4c7.2-4.3,14.7-8.2,22.3-11.7.2,0,.4-.2.4-.4,0-.2,0-.4,0-.6-.1-.4-1.5-.7-1.9-.6C128.9-26.3,66.9,28,41.9,101.1c-15,44.1-15.2,90.8-.7,134.9v.2ZM205.4,292.2c-4.7-.3-8.8-2.6-11.4-6.4l-6-8.5c-24.9-35.1-30.4-85.9-14.5-132.6,17.7-52.2,59.1-91.5,105.4-100.2,1-.2,1.9-.3,2.9-.3,4.9,0,9.6,2.4,12.4,6.3l6,8.5c24.9,35.1,30.4,85.9,14.5,132.6-17.7,52.2-59.1,91.5-105.4,100.2-.9.2-1.9.2-2.9.2h-.2c0,0-.8,0-.8,0ZM281.6,46.1c-.9,0-1.7,0-2.5.2-45.6,8.6-86.4,47.5-104,99-15.7,46.2-10.2,96.4,14.3,131l6,8.5c2.5,3.5,6.6,5.6,10.8,5.6s1.8,0,2.7-.3c45.2-8.5,85.9-47,103.7-98.1l.2-.7h0s.2-.4.2-.4v-.7c15.4-45.9,9.8-95.7-14.5-130.1l-6-8.5c-2.4-3.5-6.5-5.6-10.9-5.6h-.1Z"/>
      </g>
      <g>
        <path class="cls-1" d="M239.4,408.2c-25.8,0-51.3-4.1-75.9-12.3-15.6-5.1-30-12.1-44.8-20.8-10.1-5.9-19.7-12.5-28.5-19.6-37.8-30.4-65.2-71.1-79.2-117.8-14.3-47.6-13.3-97.8,2.8-145.3C30.4,43.8,61.5,2.4,103.8-27.2c41.4-29,88.8-44.4,139-44.4s51.3,4.1,75.8,12.3c11.7,3.9,22.5,8.5,32.2,13.4,14.4,7.3,29.2,16.1,41.9,26.1,4,3.2,8,6.6,12.9,11.1.8.7,1.7,1.6,2.6,2.5,21.2,20.1,38.2,43.3,50.7,68.9l.2.5c27.5,56.8,31.4,121.1,11.1,181-12.8,37.7-35,71.9-64.1,98.9-45.3,42-105.2,65.2-166.7,65.2ZM242.6-71.3c-50,0-97.3,15.4-138.5,44.4C61.8,2.7,30.8,44,14.2,92.7-1.8,139.9-2.8,190.1,11.5,237.8c14,46.7,41.4,87.4,79.1,117.6,8.8,7.1,18.4,13.7,28.6,19.6,14.8,8.6,29.1,15.6,44.7,20.7,24.4,8.1,49.9,12.2,75.7,12.2h0c61.5,0,121.3-23.1,166.5-65.1,29.1-27,51.3-61.2,64.1-98.8,20.3-59.5,16.4-123.6-10.8-180.3l-.2-.5c-12.5-26-29.6-49.3-50.8-69.3-.9-.9-1.7-1.7-2.6-2.5-4.9-4.6-8.9-7.9-12.9-11.2-12.5-10-27.3-18.7-41.8-26-9.8-5-20.7-9.5-32.2-13.4-24.6-8.1-50.1-12.2-75.8-12.2h-.5ZM281.6,378.2c-.7,0-1.5-.6-1.7-1.3-.3-1,0-1.8,1-2.3,7.9-3.6,15.4-7.6,22.2-11.8,50.5-30.2,90.8-80.6,110.7-138.4,15.5-45.6,13-96.6-6.9-136.4-15.3-31-40.1-52.9-71.6-63.3-12-4-24.6-6-37.4-6-63,0-123.6,48.7-147.3,118.4-13.5,39.7-13.5,83.5,0,120.3.2.6,0,1.3-.5,1.8-.2.2-.5.3-.9.3s-.6-.1-.9-.3c-17.3-12-30-31.8-35.7-55.7-5.9-24.2-4.3-51.7,4.5-77.5,16.1-47.2,49.4-88.7,91.4-113.7,27.5-16.3,57.8-25,87.5-25s33.4,2.7,49.4,8c47.2,15.7,84.4,53.7,102.3,104.3,14.9,44.3,14.7,91.4-.5,136-25.1,73.5-88.3,128.1-165,142.5h-.6ZM280.3,376.7c.2.5.7,1.1,1.4,1.1s.2,0,.4,0c76.7-14.4,139.8-68.8,164.8-142.2,15.2-44.5,15.4-91.4.6-135.6-17.9-50.6-55-88.6-102.1-104.3-16-5.3-32.6-8-49.3-8-29.7,0-60,8.6-87.4,24.9-41.9,24.9-75.2,66.3-91.4,113.6-8.8,25.8-10.4,53.2-4.6,77.3,5.7,23.8,18.4,43.5,35.6,55.6l.3.2h1.2l.3-.5c.2-.3.2-.7,0-1.1-13.5-36.9-13.5-80.8,0-120.4,23.7-69.8,84.5-118.6,147.7-118.6h.1c12.8,0,25.4,2,37.5,6,31.5,10.5,56.4,32.4,71.8,63.4,19.8,39.9,22.4,91,6.9,136.7-19.8,57.8-60.2,108.3-110.9,138.5-7.1,4.3-14.6,8.2-22.3,11.7-.4.1-.7.4-.8.8-.1.4-.1.8,0,1.2ZM194.5,349.1h-2.4c-16.7,0-33.3-2.7-49.4-8-47-15.6-84.2-53.4-102.1-103.7l-.2-.6c-14.8-44.3-14.7-91.3.5-136C65.9,27.4,128.2-27.3,204.9-41.7c.1,0,.2,0,.3,0,.9,0,1.5.5,1.8,1.3.3,1,.9,1.8,0,2.3-7.4,3.4-14.9,7.4-22.2,11.8C134.4,3.8,94.1,54.2,74.1,112c-15.5,45.6-13,96.6,6.9,136.4,15.3,31,40.1,52.9,71.6,63.3,12,4,24.6,6,37.4,6,63,0,123.6-48.7,147.3-118.4,13.5-39.7,13.5-83.5,0-120.3-.2-.6,0-1.3.5-1.8.2-.2.5-.3.9-.3s.6.1.9.3c17.3,12,30,31.8,35.7,55.7,5.9,24.2,4.3,51.7-4.5,77.5-16.2,47.4-49.5,88.8-91.4,113.8-27.2,16.1-55.9,24.5-85.1,24.9h0ZM40.9,237c17.7,50.5,54.9,88.4,102,103.9,15.9,5.3,32.5,8,49.2,8,29.7,0,60-8.6,87.4-24.9,41.8-24.8,75.1-66.2,91.3-113.6,8.8-25.7,10.4-53.2,4.6-77.4-5.7-23.8-18.4-43.5-35.6-55.6l-.3-.2h-1.2l-.3.5c-.2.3-.2.7,0,1.1,13.5,36.9,13.5,80.8,0,120.4-23.8,69.9-84.5,118.6-147.7,118.6-12.8,0-25.4-2-37.4-6-31.5-10.5-56.4-32.4-71.8-63.4-19.8-39.9-22.4-91-6.9-136.7C93.9,53.9,134.3,3.5,184.9-26.7c7.1-4.3,14.6-8.2,22.3-11.7.4-.1.7-.4.8-.8.1-.4-.9-.8-1-1.2-.2-.5-.7-1.1-1.4-1.1s-.2,0-.4,0C128.5-27,66.3,27.5,41.2,100.9c-15,44.3-15.3,91.1-.7,135.4l.2.7h.2ZM205.4,291.4c-4.4-.3-8.4-2.5-10.8-6l-6-8.5c-24.8-34.9-30.3-85.5-14.4-132,17.6-51.9,58.8-91.1,104.8-99.7.9-.2,1.8-.3,2.8-.3,4.7,0,9.1,2.2,11.8,6l6,8.5c24.8,34.9,30.3,85.5,14.4,132-17.6,51.9-58.8,91.1-104.8,99.7-.9.2-1.8.2-2.7.2h-1ZM281.6,45.3c-.9,0-1.8,0-2.7.3-45.7,8.6-86.8,47.7-104.5,99.5-15.8,46.4-10.3,96.9,14.4,131.7l6,8.5c2.7,3.7,6.9,5.9,11.4,5.9s1.9,0,2.8-.3c45.5-8.6,86.4-47.2,104.3-98.6h.1s.6-1.9.6-1.9h0c15.4-46.2,9.8-96.2-14.7-130.8l-6-8.5c-2.6-3.7-6.9-5.9-11.5-5.9h-.1Z"/>
        <path class="cls-1" d="M239.4,409c-25.8,0-51.5-4.1-76.2-12.3-15.6-5.1-30.1-12.2-44.9-20.9-10.1-6-19.8-12.6-28.6-19.7-37.9-30.5-65.4-71.4-79.4-118.1-14.3-47.7-13.4-98.1,2.8-145.7C29.8,43.4,60.9,1.9,103.3-27.9c41.5-29.1,89.1-44.5,139.5-44.5s51.4,4.1,76.1,12.3c11.7,4,22.6,8.5,32.3,13.4,14.5,7.3,29.3,16.1,42,26.2,4.1,3.2,8.1,6.7,13,11.1.8.7,1.7,1.6,2.6,2.5,21.2,20.2,38.3,43.4,50.8,69.1l.2.5c27.6,57,31.5,121.5,11.1,181.5-12.9,37.8-35.1,72.1-64.3,99.2-45.5,42.2-105.5,65.4-167.2,65.4ZM243-70.7h-.2c0,.1-.2.1-.2.1-49.9,0-97,15.3-138.1,44.2C62.4,3.2,31.5,44.4,15,92.9-1,140-2,190,12.2,237.5c14,46.6,41.2,87.1,78.9,117.2,8.8,7.1,18.4,13.7,28.5,19.5,14.7,8.6,29,15.5,44.5,20.7,24.4,8.1,49.8,12.2,75.5,12.2,61.3,0,120.9-23.1,166-64.9,29-26.9,51.1-61,63.9-98.5,20.2-59.3,16.4-123.2-10.8-179.7l-.2-.5c-12.5-25.9-29.5-49.2-50.6-69.1-.9-.9-1.7-1.7-2.6-2.4-5-4.6-8.9-7.9-12.9-11.1-12.5-9.9-27.2-18.7-41.7-25.9-9.8-5-20.6-9.5-32.1-13.4-24.5-8.1-49.9-12.2-75.5-12.2h0ZM282.3,378.9h-.7c-1.1,0-2.1-.8-2.4-1.8-.4-1.3.1-2.6,1.4-3.2,7.9-3.6,15.4-7.6,22.2-11.7,50.3-30.1,90.5-80.4,110.4-138,15.5-45.4,12.9-96.2-6.9-135.9-15.2-30.8-39.8-52.5-71.2-62.9-12-4-24.5-6-37.2-6-62.7,0-123,48.5-146.6,117.9-13.5,39.5-13.5,83.2,0,119.8.3.9,0,2-.7,2.6-.8.6-1.9.6-2.7,0-17.4-12.1-30.2-32.1-36-56.1-5.9-24.3-4.3-52,4.5-78,16.1-47.4,49.5-89,91.7-114.1,27.6-16.4,58-25.1,87.9-25.1s33.6,2.7,49.6,8c47.4,15.8,84.8,53.9,102.8,104.8,14.9,44.5,14.7,91.7-.5,136.5-25.2,73.7-88.6,128.5-165.5,143h0ZM297.9,17.7h.1c12.8,0,25.5,2,37.8,6,31.7,10.5,56.7,32.6,72.3,63.8,19.9,40,22.5,91.4,7,137.3-19.9,57.9-60.4,108.6-111.2,138.9-7.2,4.3-14.7,8.2-22.3,11.7-.2,0-.4.2-.4.4,0,.2,0,.4,0,.6h0c0,.4.5.7.9.6,76.5-14.3,139.4-68.6,164.3-141.7,15.1-44.4,15.3-91.1.6-135.1-17.8-50.4-54.8-88.2-101.6-103.8-15.9-5.3-32.4-7.9-49.1-7.9-29.6,0-59.7,8.6-87,24.8-41.7,24.8-74.9,66-91.1,113.2-8.7,25.6-10.3,52.9-4.5,76.8,5.7,23.6,18.2,43.2,35.3,55.2h0s.6,0,.6,0v-.2c.2,0,.2-.2,0-.4-13.6-37.1-13.5-81.2,0-121,23.8-70.1,84.9-119.1,148.4-119.1ZM192.5,350h.1c0-.1-.6-.1-.6-.1-16.8,0-33.4-2.7-49.6-8-47.2-15.7-84.6-53.6-102.5-104.2l-.2-.6c-14.9-44.5-14.7-91.7.5-136.5C65.3,26.9,127.8-28,204.8-42.4c.2,0,.3,0,.5,0,1.2,0,2.1.7,2.5,1.8.4,1.3.9,2.5-.4,3.2-7.4,3.4-14.9,7.4-22.2,11.7C134.9,4.4,94.7,54.6,74.8,112.3c-15.5,45.4-12.9,96.2,6.9,135.9,15.2,30.8,39.8,52.5,71.2,62.9,12,4,24.5,6,37.2,6,62.7,0,123-48.5,146.6-117.9,13.5-39.5,13.5-83.2,0-119.8-.3-.9,0-2,.7-2.6.8-.6,1.9-.6,2.7,0,17.4,12.1,30.2,32.1,36,56.1,5.9,24.3,4.3,52-4.5,78-16.2,47.5-49.7,89.2-91.7,114.2-27.3,16.2-56.1,24.6-85.5,25h-1.8ZM41.2,236.2h.1l.2.5c17.7,50.3,54.7,88,101.6,103.5,15.8,5.3,32.3,7.9,49,7.9,29.6,0,59.7-8.6,87-24.8,41.7-24.7,74.8-66,91-113.2,8.7-25.6,10.3-52.9,4.5-77-5.7-23.6-18.2-43.2-35.3-55.2h0s-.6,0-.6,0v.2c-.2,0-.2.2,0,.4,13.6,37.1,13.5,81.2,0,121-23.9,70.2-84.9,119.2-148.4,119.2-12.9,0-25.5-2-37.7-6-31.7-10.5-56.7-32.6-72.3-63.8-19.9-40-22.5-91.4-6.9-137.3C93.3,53.5,133.8,2.9,184.5-27.4c7.2-4.3,14.7-8.2,22.3-11.7.2,0,.4-.2.4-.4,0-.2,0-.4,0-.6-.1-.4-1.5-.7-1.9-.6C128.9-26.3,66.9,28,41.9,101.1c-15,44.1-15.2,90.8-.7,134.9v.2ZM205.4,292.2c-4.7-.3-8.8-2.6-11.4-6.4l-6-8.5c-24.9-35.1-30.4-85.9-14.5-132.6,17.7-52.2,59.1-91.5,105.4-100.2,1-.2,1.9-.3,2.9-.3,4.9,0,9.6,2.4,12.4,6.3l6,8.5c24.9,35.1,30.4,85.9,14.5,132.6-17.7,52.2-59.1,91.5-105.4,100.2-.9.2-1.9.2-2.9.2h-.2c0,0-.8,0-.8,0ZM281.6,46.1c-.9,0-1.7,0-2.5.2-45.6,8.6-86.4,47.5-104,99-15.7,46.2-10.2,96.4,14.3,131l6,8.5c2.5,3.5,6.6,5.6,10.8,5.6s1.8,0,2.7-.3c45.2-8.5,85.9-47,103.7-98.1l.2-.7h0s.2-.4.2-.4v-.7c15.4-45.9,9.8-95.7-14.5-130.1l-6-8.5c-2.4-3.5-6.5-5.6-10.9-5.6h-.1Z"/>
      </g>
      <g>
        <path class="cls-1" d="M239.4,408.2c-25.8,0-51.3-4.1-75.9-12.3-15.6-5.1-30-12.1-44.8-20.8-10.1-5.9-19.7-12.5-28.5-19.6-37.8-30.4-65.2-71.1-79.2-117.8-14.3-47.6-13.3-97.8,2.8-145.3C30.4,43.8,61.5,2.4,103.8-27.2c41.4-29,88.8-44.4,139-44.4s51.3,4.1,75.8,12.3c11.7,3.9,22.5,8.5,32.2,13.4,14.4,7.3,29.2,16.1,41.9,26.1,4,3.2,8,6.6,12.9,11.1.8.7,1.7,1.6,2.6,2.5,21.2,20.1,38.2,43.3,50.7,68.9l.2.5c27.5,56.8,31.4,121.1,11.1,181-12.8,37.7-35,71.9-64.1,98.9-45.3,42-105.2,65.2-166.7,65.2ZM242.6-71.3c-50,0-97.3,15.4-138.5,44.4C61.8,2.7,30.8,44,14.2,92.7-1.8,139.9-2.8,190.1,11.5,237.8c14,46.7,41.4,87.4,79.1,117.6,8.8,7.1,18.4,13.7,28.6,19.6,14.8,8.6,29.1,15.6,44.7,20.7,24.4,8.1,49.9,12.2,75.7,12.2h0c61.5,0,121.3-23.1,166.5-65.1,29.1-27,51.3-61.2,64.1-98.8,20.3-59.5,16.4-123.6-10.8-180.3l-.2-.5c-12.5-26-29.6-49.3-50.8-69.3-.9-.9-1.7-1.7-2.6-2.5-4.9-4.6-8.9-7.9-12.9-11.2-12.5-10-27.3-18.7-41.8-26-9.8-5-20.7-9.5-32.2-13.4-24.6-8.1-50.1-12.2-75.8-12.2h-.5ZM281.6,378.2c-.7,0-1.5-.6-1.7-1.3-.3-1,0-1.8,1-2.3,7.9-3.6,15.4-7.6,22.2-11.8,50.5-30.2,90.8-80.6,110.7-138.4,15.5-45.6,13-96.6-6.9-136.4-15.3-31-40.1-52.9-71.6-63.3-12-4-24.6-6-37.4-6-63,0-123.6,48.7-147.3,118.4-13.5,39.7-13.5,83.5,0,120.3.2.6,0,1.3-.5,1.8-.2.2-.5.3-.9.3s-.6-.1-.9-.3c-17.3-12-30-31.8-35.7-55.7-5.9-24.2-4.3-51.7,4.5-77.5,16.1-47.2,49.4-88.7,91.4-113.7,27.5-16.3,57.8-25,87.5-25s33.4,2.7,49.4,8c47.2,15.7,84.4,53.7,102.3,104.3,14.9,44.3,14.7,91.4-.5,136-25.1,73.5-88.3,128.1-165,142.5h-.6ZM280.3,376.7c.2.5.7,1.1,1.4,1.1s.2,0,.4,0c76.7-14.4,139.8-68.8,164.8-142.2,15.2-44.5,15.4-91.4.6-135.6-17.9-50.6-55-88.6-102.1-104.3-16-5.3-32.6-8-49.3-8-29.7,0-60,8.6-87.4,24.9-41.9,24.9-75.2,66.3-91.4,113.6-8.8,25.8-10.4,53.2-4.6,77.3,5.7,23.8,18.4,43.5,35.6,55.6l.3.2h1.2l.3-.5c.2-.3.2-.7,0-1.1-13.5-36.9-13.5-80.8,0-120.4,23.7-69.8,84.5-118.6,147.7-118.6h.1c12.8,0,25.4,2,37.5,6,31.5,10.5,56.4,32.4,71.8,63.4,19.8,39.9,22.4,91,6.9,136.7-19.8,57.8-60.2,108.3-110.9,138.5-7.1,4.3-14.6,8.2-22.3,11.7-.4.1-.7.4-.8.8-.1.4-.1.8,0,1.2ZM194.5,349.1h-2.4c-16.7,0-33.3-2.7-49.4-8-47-15.6-84.2-53.4-102.1-103.7l-.2-.6c-14.8-44.3-14.7-91.3.5-136C65.9,27.4,128.2-27.3,204.9-41.7c.1,0,.2,0,.3,0,.9,0,1.5.5,1.8,1.3.3,1,.9,1.8,0,2.3-7.4,3.4-14.9,7.4-22.2,11.8C134.4,3.8,94.1,54.2,74.1,112c-15.5,45.6-13,96.6,6.9,136.4,15.3,31,40.1,52.9,71.6,63.3,12,4,24.6,6,37.4,6,63,0,123.6-48.7,147.3-118.4,13.5-39.7,13.5-83.5,0-120.3-.2-.6,0-1.3.5-1.8.2-.2.5-.3.9-.3s.6.1.9.3c17.3,12,30,31.8,35.7,55.7,5.9,24.2,4.3,51.7-4.5,77.5-16.2,47.4-49.5,88.8-91.4,113.8-27.2,16.1-55.9,24.5-85.1,24.9h0ZM40.9,237c17.7,50.5,54.9,88.4,102,103.9,15.9,5.3,32.5,8,49.2,8,29.7,0,60-8.6,87.4-24.9,41.8-24.8,75.1-66.2,91.3-113.6,8.8-25.7,10.4-53.2,4.6-77.4-5.7-23.8-18.4-43.5-35.6-55.6l-.3-.2h-1.2l-.3.5c-.2.3-.2.7,0,1.1,13.5,36.9,13.5,80.8,0,120.4-23.8,69.9-84.5,118.6-147.7,118.6-12.8,0-25.4-2-37.4-6-31.5-10.5-56.4-32.4-71.8-63.4-19.8-39.9-22.4-91-6.9-136.7C93.9,53.9,134.3,3.5,184.9-26.7c7.1-4.3,14.6-8.2,22.3-11.7.4-.1.7-.4.8-.8.1-.4-.9-.8-1-1.2-.2-.5-.7-1.1-1.4-1.1s-.2,0-.4,0C128.5-27,66.3,27.5,41.2,100.9c-15,44.3-15.3,91.1-.7,135.4l.2.7h.2ZM205.4,291.4c-4.4-.3-8.4-2.5-10.8-6l-6-8.5c-24.8-34.9-30.3-85.5-14.4-132,17.6-51.9,58.8-91.1,104.8-99.7.9-.2,1.8-.3,2.8-.3,4.7,0,9.1,2.2,11.8,6l6,8.5c24.8,34.9,30.3,85.5,14.4,132-17.6,51.9-58.8,91.1-104.8,99.7-.9.2-1.8.2-2.7.2h-1ZM281.6,45.3c-.9,0-1.8,0-2.7.3-45.7,8.6-86.8,47.7-104.5,99.5-15.8,46.4-10.3,96.9,14.4,131.7l6,8.5c2.7,3.7,6.9,5.9,11.4,5.9s1.9,0,2.8-.3c45.5-8.6,86.4-47.2,104.3-98.6h.1s.6-1.9.6-1.9h0c15.4-46.2,9.8-96.2-14.7-130.8l-6-8.5c-2.6-3.7-6.9-5.9-11.5-5.9h-.1Z"/>
        <path class="cls-1" d="M239.4,409c-25.8,0-51.5-4.1-76.2-12.3-15.6-5.1-30.1-12.2-44.9-20.9-10.1-6-19.8-12.6-28.6-19.7-37.9-30.5-65.4-71.4-79.4-118.1-14.3-47.7-13.4-98.1,2.8-145.7C29.8,43.4,60.9,1.9,103.3-27.9c41.5-29.1,89.1-44.5,139.5-44.5s51.4,4.1,76.1,12.3c11.7,4,22.6,8.5,32.3,13.4,14.5,7.3,29.3,16.1,42,26.2,4.1,3.2,8.1,6.7,13,11.1.8.7,1.7,1.6,2.6,2.5,21.2,20.2,38.3,43.4,50.8,69.1l.2.5c27.6,57,31.5,121.5,11.1,181.5-12.9,37.8-35.1,72.1-64.3,99.2-45.5,42.2-105.5,65.4-167.2,65.4ZM243-70.7h-.2c0,.1-.2.1-.2.1-49.9,0-97,15.3-138.1,44.2C62.4,3.2,31.5,44.4,15,92.9-1,140-2,190,12.2,237.5c14,46.6,41.2,87.1,78.9,117.2,8.8,7.1,18.4,13.7,28.5,19.5,14.7,8.6,29,15.5,44.5,20.7,24.4,8.1,49.8,12.2,75.5,12.2,61.3,0,120.9-23.1,166-64.9,29-26.9,51.1-61,63.9-98.5,20.2-59.3,16.4-123.2-10.8-179.7l-.2-.5c-12.5-25.9-29.5-49.2-50.6-69.1-.9-.9-1.7-1.7-2.6-2.4-5-4.6-8.9-7.9-12.9-11.1-12.5-9.9-27.2-18.7-41.7-25.9-9.8-5-20.6-9.5-32.1-13.4-24.5-8.1-49.9-12.2-75.5-12.2h0ZM282.3,378.9h-.7c-1.1,0-2.1-.8-2.4-1.8-.4-1.3.1-2.6,1.4-3.2,7.9-3.6,15.4-7.6,22.2-11.7,50.3-30.1,90.5-80.4,110.4-138,15.5-45.4,12.9-96.2-6.9-135.9-15.2-30.8-39.8-52.5-71.2-62.9-12-4-24.5-6-37.2-6-62.7,0-123,48.5-146.6,117.9-13.5,39.5-13.5,83.2,0,119.8.3.9,0,2-.7,2.6-.8.6-1.9.6-2.7,0-17.4-12.1-30.2-32.1-36-56.1-5.9-24.3-4.3-52,4.5-78,16.1-47.4,49.5-89,91.7-114.1,27.6-16.4,58-25.1,87.9-25.1s33.6,2.7,49.6,8c47.4,15.8,84.8,53.9,102.8,104.8,14.9,44.5,14.7,91.7-.5,136.5-25.2,73.7-88.6,128.5-165.5,143h0ZM297.9,17.7h.1c12.8,0,25.5,2,37.8,6,31.7,10.5,56.7,32.6,72.3,63.8,19.9,40,22.5,91.4,7,137.3-19.9,57.9-60.4,108.6-111.2,138.9-7.2,4.3-14.7,8.2-22.3,11.7-.2,0-.4.2-.4.4,0,.2,0,.4,0,.6h0c0,.4.5.7.9.6,76.5-14.3,139.4-68.6,164.3-141.7,15.1-44.4,15.3-91.1.6-135.1-17.8-50.4-54.8-88.2-101.6-103.8-15.9-5.3-32.4-7.9-49.1-7.9-29.6,0-59.7,8.6-87,24.8-41.7,24.8-74.9,66-91.1,113.2-8.7,25.6-10.3,52.9-4.5,76.8,5.7,23.6,18.2,43.2,35.3,55.2h0s.6,0,.6,0v-.2c.2,0,.2-.2,0-.4-13.6-37.1-13.5-81.2,0-121,23.8-70.1,84.9-119.1,148.4-119.1ZM192.5,350h.1c0-.1-.6-.1-.6-.1-16.8,0-33.4-2.7-49.6-8-47.2-15.7-84.6-53.6-102.5-104.2l-.2-.6c-14.9-44.5-14.7-91.7.5-136.5C65.3,26.9,127.8-28,204.8-42.4c.2,0,.3,0,.5,0,1.2,0,2.1.7,2.5,1.8.4,1.3.9,2.5-.4,3.2-7.4,3.4-14.9,7.4-22.2,11.7C134.9,4.4,94.7,54.6,74.8,112.3c-15.5,45.4-12.9,96.2,6.9,135.9,15.2,30.8,39.8,52.5,71.2,62.9,12,4,24.5,6,37.2,6,62.7,0,123-48.5,146.6-117.9,13.5-39.5,13.5-83.2,0-119.8-.3-.9,0-2,.7-2.6.8-.6,1.9-.6,2.7,0,17.4,12.1,30.2,32.1,36,56.1,5.9,24.3,4.3,52-4.5,78-16.2,47.5-49.7,89.2-91.7,114.2-27.3,16.2-56.1,24.6-85.5,25h-1.8ZM41.2,236.2h.1l.2.5c17.7,50.3,54.7,88,101.6,103.5,15.8,5.3,32.3,7.9,49,7.9,29.6,0,59.7-8.6,87-24.8,41.7-24.7,74.8-66,91-113.2,8.7-25.6,10.3-52.9,4.5-77-5.7-23.6-18.2-43.2-35.3-55.2h0s-.6,0-.6,0v.2c-.2,0-.2.2,0,.4,13.6,37.1,13.5,81.2,0,121-23.9,70.2-84.9,119.2-148.4,119.2-12.9,0-25.5-2-37.7-6-31.7-10.5-56.7-32.6-72.3-63.8-19.9-40-22.5-91.4-6.9-137.3C93.3,53.5,133.8,2.9,184.5-27.4c7.2-4.3,14.7-8.2,22.3-11.7.2,0,.4-.2.4-.4,0-.2,0-.4,0-.6-.1-.4-1.5-.7-1.9-.6C128.9-26.3,66.9,28,41.9,101.1c-15,44.1-15.2,90.8-.7,134.9v.2ZM205.4,292.2c-4.7-.3-8.8-2.6-11.4-6.4l-6-8.5c-24.9-35.1-30.4-85.9-14.5-132.6,17.7-52.2,59.1-91.5,105.4-100.2,1-.2,1.9-.3,2.9-.3,4.9,0,9.6,2.4,12.4,6.3l6,8.5c24.9,35.1,30.4,85.9,14.5,132.6-17.7,52.2-59.1,91.5-105.4,100.2-.9.2-1.9.2-2.9.2h-.2c0,0-.8,0-.8,0ZM281.6,46.1c-.9,0-1.7,0-2.5.2-45.6,8.6-86.4,47.5-104,99-15.7,46.2-10.2,96.4,14.3,131l6,8.5c2.5,3.5,6.6,5.6,10.8,5.6s1.8,0,2.7-.3c45.2-8.5,85.9-47,103.7-98.1l.2-.7h0s.2-.4.2-.4v-.7c15.4-45.9,9.8-95.7-14.5-130.1l-6-8.5c-2.4-3.5-6.5-5.6-10.9-5.6h-.1Z"/>
      </g>
    </g>
  </g>
</svg>