<?xml version="1.0" encoding="UTF-8"?>
<svg xmlns="http://www.w3.org/2000/svg" version="1.1" viewBox="0 0 418 385">
  <defs>
    <style>
      .cls-1 {
        isolation: isolate;
      }

      .cls-2 {
        mix-blend-mode: overlay;
      }

      .cls-3 {
        opacity: .5;
      }

      .cls-4 {
        fill: #0500e2;
      }
    </style>
  </defs>
  <!-- Generator: Adobe Illustrator 28.7.5, SVG Export Plug-In . SVG Version: 1.2.0 Build 176)  -->
  <g class="cls-1">
    <g id="Layer_1">
      <path class="cls-4" d="M269.3,319.2c-21.9,0-44-3.5-65.4-10.6-13.7-4.5-26.9-10.6-39.5-18-8.6-5.1-16.9-10.8-24.6-17-32.6-26.3-56.3-61.6-68.3-102-12.3-41.3-11.5-84.9,2.5-126C111-63.1,229.5-122.3,338.1-86.1c9.5,3.2,18.8,7,27.9,11.6,12.5,6.3,24.4,13.9,35.3,22.6,3.4,2.7,6.8,5.7,11.2,9.6.7.6,1.5,1.4,2.3,2.2,18.1,17.2,32.8,37.3,43.7,59.7h0s.2.4.2.4c23.7,49.3,27.1,105,9.5,156.8-11.1,32.6-30.3,62.3-55.4,85.8-39.7,37-91.1,56.6-143.3,56.6ZM272.7-94.7c-86.4,0-167.5,54.8-196.9,141.1-13.8,40.7-14.7,83.8-2.5,124.7,11.9,40,35.3,75,67.7,101,7.6,6.2,15.8,11.8,24.4,16.8,12.4,7.3,25.6,13.3,39.1,17.8,71.7,23.8,150.9,6.4,206.7-45.6,24.9-23.3,43.9-52.6,54.9-85,17.4-51.2,14.1-106.2-9.2-155l-.2-.4c-10.8-22.4-25.4-42.4-43.5-59.6-.8-.8-1.5-1.5-2.2-2.1-4.3-4-7.7-6.9-11.1-9.6-10.8-8.6-22.6-16.1-34.9-22.4-8.9-4.5-18.2-8.4-27.6-11.5-21.4-7.1-43.2-10.5-64.7-10.5ZM305,293.3c-1,0-1.9-.6-2.3-1.7-.4-1.2.1-2.5,1.3-3,6.5-3,12.9-6.4,19.1-10.1,43.2-25.9,77.8-69.3,94.9-119,13.3-39.2,11.1-83.1-5.9-117.4-13.1-26.4-34.2-45.1-60.9-54-62-20.6-132.8,22.7-157.9,96.6-11.6,34.1-11.6,71.7,0,103.3.3.9,0,1.9-.7,2.5-.8.6-1.8.6-2.6,0-15-10.5-26.1-27.8-31-48.6-5-21.1-3.6-45,4-67.4,14-41.1,42.8-77.1,79-98.7,37.6-22.4,79.7-27.7,118.5-14.8,40.8,13.6,73,46.5,88.4,90.5h0c12.8,38.6,12.6,79.3-.5,118-21.7,63.8-76.4,111.1-142.7,123.7-.2,0-.3,0-.5,0ZM319.3-19c10.9,0,21.8,1.7,32.4,5.2,27.3,9.1,48.8,28.1,62.1,55,17.3,34.7,19.5,79.2,6,118.9-17.2,50.2-52.1,93.9-95.8,120.1-6.2,3.7-12.6,7.1-19.2,10.2-.3.1-.3.4-.2.6,0,.2.2.4.5.3,65.7-12.4,119.8-59.3,141.2-122.4,13-38.2,13.2-78.5.5-116.5h0c-15.2-43.5-47-76-87.2-89.4-38.2-12.7-79.7-7.5-116.8,14.6-35.9,21.4-64.4,57-78.2,97.6-7.5,22-8.9,45.6-3.9,66.3,4.9,20.3,15.6,37.2,30.2,47.4,0,0,.2,0,.3,0,.1,0,0-.2,0-.2-11.7-32-11.6-70.1,0-104.6,21.2-62.2,74.4-103.1,128-103.1ZM227.8,268.3c-14.4,0-28.7-2.3-42.6-6.9-40.7-13.5-72.8-46.3-88.3-90h0s-.2-.5-.2-.5c-12.8-38.5-12.7-79.4.5-118,21.7-63.8,76.4-111.1,142.7-123.7,1.2-.2,2.4.4,2.8,1.6.4,1.2-.1,2.5-1.3,3-6.5,3-12.9,6.4-19.1,10.1C179.2-30.1,144.6,13.2,127.5,62.9c-13.3,39.2-11.1,83.1,5.9,117.4,13.1,26.4,34.2,45.1,60.9,54,62,20.6,132.8-22.7,157.9-96.6,11.6-34.1,11.6-71.7,0-103.3-.3-.9,0-1.9.7-2.5.8-.6,1.8-.6,2.6,0,15,10.5,26,27.8,31,48.6,5,21.1,3.6,45-4,67.4-14,41.1-42.8,77.1-79,98.7-24.1,14.4-50.1,21.7-75.9,21.7ZM98.5,169.8h0s.2.5.2.5c15.2,43.3,46.9,75.9,87.2,89.2,38.2,12.7,79.7,7.5,116.8-14.6,35.9-21.4,64.4-57,78.2-97.6,7.5-22,8.9-45.6,3.9-66.3-4.9-20.4-15.6-37.2-30.2-47.4,0,0-.2,0-.3,0-.1,0,0,.2,0,.2,11.7,32,11.6,70.1,0,104.6-21.2,62.2-74.4,103.1-128,103.1-10.9,0-21.8-1.7-32.4-5.2-27.3-9.1-48.8-28.1-62.1-55-17.3-34.7-19.5-79.2-6-118.9,17.2-50.1,52.1-93.9,95.8-120.1,6.2-3.7,12.7-7.1,19.2-10.2.3-.1.3-.4.2-.6,0-.2-.2-.4-.5-.3C174.7-56.5,120.6-9.6,99.1,53.5c-12.9,38.1-13.2,78.3-.6,116.3ZM240.3,218.5c-4.3,0-8.3-2-10.8-5.6l-5.2-7.3c-21.4-30.3-26.2-74.2-12.4-114.7,15.3-45.2,51-79.2,90.9-86.8,5.1-1,10.3,1.1,13.3,5.3l5.2,7.3c21.4,30.3,26.2,74.2,12.4,114.7l-.9-.3.9.3c-15.3,45.2-51,79.2-90.9,86.8-.8.2-1.7.2-2.5.2ZM305.2,5.9c-.7,0-1.4,0-2.1.2-39.2,7.4-74.2,41-89.3,85.4-13.5,39.8-8.9,83.1,12.2,112.9l5.2,7.3c2.5,3.6,7,5.4,11.3,4.5,39.2-7.4,74.2-41,89.4-85.4,13.5-39.8,8.9-83.1-12.2-112.9l-5.2-7.3c-2.1-3-5.6-4.7-9.2-4.7Z"/>
      <path class="cls-4" d="M266.1,328.9c-53.6,0-105.7-20.6-144.8-59-10.2-10-19.5-21.3-27.6-33.5-5.5-8.3-10.4-17.1-14.6-26.1-17.7-38-23.5-80.2-16.6-121.9,7-42.7,26.9-81.6,57.3-112.6,80.8-82.1,212.8-83.7,294.4-3.6,7.1,7,13.8,14.6,19.9,22.6,8.5,11.2,15.8,23.2,21.8,35.8,2,4.3,3.9,8.7,5.8,13.6l.2.5c.3.8.6,1.6.9,2.5,8.7,23.7,13.1,48.4,13,73.4v4.2s0-.1,0-.1c-1.3,53.3-22.5,103.5-60.1,141.6-24.2,24.6-54.4,43-87.2,53.2-20.5,6.4-41.5,9.5-62.3,9.5ZM269.3-84.9c-53.7,0-107.4,20.7-148.1,62-30.2,30.7-49.8,69.2-56.8,111.5-6.8,41.4-1.1,83.1,16.4,120.8,4.2,9,9.1,17.7,14.5,25.9,8,12,17.1,23.2,27.3,33.1,53.8,52.8,132.4,71.6,205.1,49.1,32.5-10.1,62.4-28.3,86.4-52.7,38.1-38.7,59.3-90,59.5-144.3v-2.7c-.2-23.9-4.5-47.4-12.9-70-.3-.8-.6-1.6-.9-2.4l-.2-.5c-1.9-4.8-3.7-9.2-5.7-13.5-5.9-12.4-13.2-24.4-21.6-35.4-6-7.9-12.6-15.5-19.7-22.4-39.7-39-91.6-58.4-143.5-58.4ZM267.7,306.8c-16.3,0-32.7-2.1-48.8-6.5-1.2-.3-2-1.5-1.8-2.7.2-1.3,1.2-2.1,2.5-2.1h0c7.2.1,14.4-.1,21.5-.8,50.1-4.5,100.1-28.6,137.1-66,24.4-24.8,40.8-58,45-91.1,4.6-36.3-6-69.3-29.9-92.8C346.8-.9,264.4,7.3,209.6,63c-25.3,25.7-41.8,59.7-45.3,93.2-.1,1-.8,1.8-1.8,1.9-1,.2-1.9-.2-2.4-1.1-8.9-16.1-11.2-36.5-6.5-57.4,4.7-21.2,16.5-42.2,33-59.1,30.5-31,72.1-50.9,114-54.6,43.5-3.8,83.6,9.8,112.7,38.4,30.6,30,45.1,73.9,39.6,120.4h0c-5.3,40.3-23.3,77.1-52,106.2-35.6,36.2-83.9,55.8-133.2,55.8ZM219.6,297.4c-.3,0-.4.2-.5.4,0,.2,0,.4.3.5,64.2,17.5,133.2-1.2,180.1-48.8,28.4-28.8,46.2-65.1,51.5-105h0c5.4-45.8-8.9-89.1-39.1-118.7-28.7-28.2-68.2-41.6-111.1-37.8-41.5,3.6-82.6,23.3-112.8,54-16.3,16.6-27.9,37.2-32.5,58.1-4.6,20.5-2.3,40.4,6.3,56,0,0,0,.1.2.1.1,0,.2,0,.2-.2,3.5-34,20.2-68.4,45.8-94.4C263.7,5.1,347.4-3.1,394.7,43.4c24.4,24,35.2,57.5,30.5,94.5-4.3,33.5-20.9,67.1-45.6,92.2-37.4,37.7-87.8,62-138.4,66.6-7.2.6-14.5.9-21.7.8h0ZM223.5,258c-37.9,0-72.5-13.6-98.4-39-30.6-30-45-73.7-39.7-120h0s0-.3,0-.3c5.3-40.4,23.3-77.1,52.1-106.3,47.3-48.1,117.1-67,182-49.3,1.2.3,2,1.5,1.8,2.7-.2,1.3-1.2,2.2-2.5,2.1-7.2-.1-14.4.1-21.5.8-50.1,4.5-100.1,28.6-137.1,66-24.4,24.8-40.8,58-45,91.1-4.6,36.3,6,69.3,29.9,92.8,46.5,45.7,128.9,37.5,183.7-18.2,25.3-25.7,41.8-59.7,45.3-93.2.1-1,.8-1.8,1.8-1.9,1-.2,1.9.2,2.4,1.1,8.9,16.1,11.2,36.5,6.5,57.4-4.7,21.2-16.5,42.2-33.1,59.1-30.5,31-72.1,50.9-114,54.6-4.8.4-9.6.6-14.3.6ZM87.5,98.6h0s0,.3,0,.3c-5.4,45.7,8.9,89,39.1,118.6,28.7,28.1,68.1,41.6,111.1,37.8,41.5-3.6,82.6-23.3,112.8-54,16.3-16.6,27.9-37.3,32.5-58.1,4.6-20.5,2.3-40.4-6.3-56,0,0,0-.1-.2-.1-.1,0-.2,0-.2.2-3.5,34-20.2,68.4-45.8,94.4-55.6,56.5-139.3,64.7-186.6,18.3-24.4-24-35.2-57.5-30.5-94.5,4.3-33.5,20.9-67.1,45.6-92.2,37.4-37.7,87.8-62,138.4-66.6,7.2-.6,14.4-.9,21.7-.8h0c.3,0,.4-.2.5-.4,0-.2,0-.4-.3-.5-64.3-17.5-133.3,1.2-180.1,48.7-28.3,28.8-46.1,65.1-51.5,104.9ZM221.2,208.5c-8.8,0-17.4-1.1-25.6-3.3-5-1.4-8.8-5.5-9.6-10.7l-1.4-8.9c-5.9-36.7,9-78.5,39-108.9,33.5-34.1,80.4-49.2,119.4-38.6,5,1.4,8.8,5.5,9.6,10.7l1.4,8.9c5.9,36.5-8.9,78-38.5,108.4h0s-.5.5-.5.5c-26.4,26.9-61.1,42-93.7,42ZM317.3,36.7c-32.1,0-66.3,14.9-92.3,41.4-29.5,30-44.3,71.1-38.5,107.2l1.4,8.9c.7,4.4,3.9,7.9,8.2,9.1,38.1,10.4,84-4.4,116.9-37.6h0s.5-.5.5-.5c29.5-30,44.3-71.1,38.5-107.2l-1.4-8.9c-.7-4.4-3.9-7.9-8.2-9.1-8.1-2.2-16.5-3.3-25.1-3.3Z"/>
      <path class="cls-4" d="M264.9,320.6c-22,0-44.2-3.5-65.7-10.6-13.7-4.5-27-10.6-39.6-18-8.7-5.1-17-10.8-24.7-17-32.7-26.3-56.4-61.5-68.5-101.9-12.4-41.3-11.5-84.7,2.4-125.7C105.8-61.2,224.5-120.1,333.4-84c9.5,3.2,18.9,7,27.9,11.6,12.5,6.3,24.4,13.9,35.4,22.6,3.4,2.7,6.8,5.6,11.2,9.6.7.6,1.5,1.4,2.3,2.2,18.1,17.2,32.9,37.2,43.8,59.6h0s.2.4.2.4c23.8,49.2,27.2,104.8,9.6,156.6-11.1,32.6-30.3,62.2-55.5,85.6-39.7,36.8-91.1,56.4-143.4,56.4ZM267.8-92.6c-86.5,0-167.7,54.6-197,140.7-13.8,40.6-14.6,83.6-2.4,124.5,12,40,35.4,74.9,67.9,100.9,7.7,6.2,15.9,11.8,24.5,16.8,12.5,7.3,25.6,13.3,39.2,17.8,71.8,23.8,151.2,6.4,207-45.4,25-23.2,44-52.5,55-84.8,17.4-51.1,14.1-106-9.3-154.7l-.2-.4c-10.8-22.4-25.5-42.4-43.6-59.5-.8-.8-1.5-1.5-2.2-2.1-4.3-4-7.8-6.9-11.1-9.6-10.8-8.6-22.6-16.1-35-22.3-8.9-4.5-18.2-8.3-27.6-11.5-21.5-7.1-43.4-10.5-65-10.5ZM300.4,294.7c-1,0-2-.7-2.3-1.7-.4-1.2.1-2.4,1.3-3,6.5-3,13-6.4,19.1-10.1,43.3-25.9,77.9-69.1,95-118.8,13.3-39,11.1-82.8-5.9-116.9-13.1-26.5-34.3-45.2-61.2-54.1-62.1-20.6-133,22.6-158.1,96.3-11.6,34-11.6,71.6,0,103.1.3.9,0,1.9-.7,2.5-.8.6-1.8.6-2.6,0-15.1-10.5-26.1-27.7-31.1-48.5-5.1-21-3.7-44.9,3.9-67.3C171.7,35.3,200.6-.6,236.9-22.2c37.7-22.4,79.8-27.6,118.7-14.7,40.9,13.6,73.2,46.5,88.7,90.4h0c12.9,38.5,12.7,79.2-.4,117.8-21.7,63.6-76.4,110.9-142.9,123.4-.2,0-.3,0-.5,0ZM314.5-17c10.9,0,21.9,1.7,32.6,5.2,27.4,9.1,49,28.2,62.4,55.1,17.2,34.6,19.4,78.9,6,118.5-17.2,50.1-52.2,93.7-95.9,119.8-6.2,3.7-12.7,7.1-19.3,10.1-.3.1-.3.4-.2.6,0,.1.2.4.5.3,65.8-12.3,120-59.1,141.4-122,13-38.1,13.2-78.4.5-116.3h0c-15.3-43.4-47.1-75.9-87.4-89.3-38.3-12.7-79.9-7.6-117.1,14.5C202,.9,173.5,36.4,159.6,76.9c-7.5,22-8.9,45.5-3.9,66.1,4.9,20.3,15.6,37.1,30.3,47.4,0,0,.2,0,.3,0,.1,0,0-.2,0-.2-11.7-32-11.7-70,0-104.4,21.1-62.1,74.4-102.8,128.1-102.8ZM223.2,269.7c-14.4,0-28.8-2.3-42.8-6.9-40.7-13.5-73-46.3-88.5-89.9h0s-.2-.5-.2-.5c-12.9-38.5-12.7-79.2.4-117.8,21.7-63.6,76.4-110.9,142.9-123.4,1.2-.2,2.4.4,2.8,1.7.4,1.2-.1,2.4-1.3,3-6.5,3-12.9,6.4-19.1,10.1-43.3,25.9-77.9,69.2-95,118.8-13.3,39-11.1,82.8,5.9,116.9,13.1,26.5,34.3,45.2,61.2,54.1,62.1,20.6,133-22.6,158.1-96.3,11.6-34,11.6-71.6,0-103.1-.3-.9,0-1.9.7-2.5.8-.6,1.8-.6,2.6,0,15.1,10.5,26.1,27.7,31.1,48.5,5.1,21.1,3.7,44.9-3.9,67.3-14,41-42.8,76.9-79.1,98.5-24.2,14.3-50.1,21.6-75.9,21.6ZM93.5,171.3h0s.2.5.2.5c15.2,43.3,47.1,75.8,87.4,89.1,38.3,12.7,79.9,7.5,117-14.5,35.9-21.3,64.4-56.8,78.3-97.4,7.5-22,8.9-45.5,3.9-66.2-4.9-20.3-15.6-37.1-30.3-47.4,0,0-.2,0-.3,0-.1,0,0,.2,0,.2,11.7,32,11.7,70,0,104.4-25.5,74.8-97.5,118.5-160.6,97.6-27.4-9.1-49-28.2-62.4-55.1-17.2-34.6-19.4-78.9-6-118.5,17.2-50,52.2-93.7,95.9-119.8,6.2-3.7,12.7-7.1,19.3-10.1.3-.1.3-.4.2-.6,0-.1-.2-.4-.5-.3C169.7-54.5,115.5-7.7,94,55.2c-12.9,38-13.1,78.1-.6,116.1ZM235.6,220c-4.3,0-8.4-2-10.9-5.6l-5.2-7.3c-21.5-30.3-26.3-74.1-12.5-114.5,15.3-45.1,51.1-79,91-86.5,5.1-1,10.4,1.1,13.4,5.3l5.2,7.3c21.5,30.3,26.3,74.1,12.5,114.5-15.3,45.1-51.1,79-91,86.5-.8.2-1.7.2-2.5.2ZM300.4,7.9c-.7,0-1.4,0-2.1.2-39.2,7.4-74.3,40.8-89.5,85.2-13.5,39.7-8.8,82.9,12.3,112.7l5.2,7.3c2.6,3.6,7,5.4,11.4,4.5,39.2-7.4,74.3-40.8,89.5-85.2l.9.3-.9-.3c13.5-39.7,8.8-82.9-12.3-112.7l-5.2-7.3c-2.1-3-5.6-4.7-9.2-4.7Z"/>
      <g class="cls-2">
        <path class="cls-4" d="M264.9,320.6c-22,0-44.2-3.5-65.7-10.6-13.7-4.5-27-10.6-39.6-18-8.7-5.1-17-10.8-24.7-17-32.7-26.3-56.4-61.5-68.5-101.9-12.4-41.3-11.5-84.7,2.4-125.7C105.8-61.2,224.5-120.1,333.4-84c9.5,3.2,18.9,7,27.9,11.6,12.5,6.3,24.4,13.9,35.4,22.6,3.4,2.7,6.8,5.6,11.2,9.6.7.6,1.5,1.4,2.3,2.2,18.1,17.2,32.9,37.2,43.8,59.6h0s.2.4.2.4c23.8,49.2,27.2,104.8,9.6,156.6-11.1,32.6-30.3,62.2-55.5,85.6-39.7,36.8-91.1,56.4-143.4,56.4ZM267.8-92.6c-86.5,0-167.7,54.6-197,140.7-13.8,40.6-14.6,83.6-2.4,124.5,12,40,35.4,74.9,67.9,100.9,7.7,6.2,15.9,11.8,24.5,16.8,12.5,7.3,25.6,13.3,39.2,17.8,71.8,23.8,151.2,6.4,207-45.4,25-23.2,44-52.5,55-84.8,17.4-51.1,14.1-106-9.3-154.7l-.2-.4c-10.8-22.4-25.5-42.4-43.6-59.5-.8-.8-1.5-1.5-2.2-2.1-4.3-4-7.8-6.9-11.1-9.6-10.8-8.6-22.6-16.1-35-22.3-8.9-4.5-18.2-8.3-27.6-11.5-21.5-7.1-43.4-10.5-65-10.5ZM300.4,294.7c-1,0-2-.7-2.3-1.7-.4-1.2.1-2.4,1.3-3,6.5-3,13-6.4,19.1-10.1,43.3-25.9,77.9-69.1,95-118.8,13.3-39,11.1-82.8-5.9-116.9-13.1-26.5-34.3-45.2-61.2-54.1-62.1-20.6-133,22.6-158.1,96.3-11.6,34-11.6,71.6,0,103.1.3.9,0,1.9-.7,2.5-.8.6-1.8.6-2.6,0-15.1-10.5-26.1-27.7-31.1-48.5-5.1-21-3.7-44.9,3.9-67.3C171.7,35.3,200.6-.6,236.9-22.2c37.7-22.4,79.8-27.6,118.7-14.7,40.9,13.6,73.2,46.5,88.7,90.4h0c12.9,38.5,12.7,79.2-.4,117.8-21.7,63.6-76.4,110.9-142.9,123.4-.2,0-.3,0-.5,0ZM314.5-17c10.9,0,21.9,1.7,32.6,5.2,27.4,9.1,49,28.2,62.4,55.1,17.2,34.6,19.4,78.9,6,118.5-17.2,50.1-52.2,93.7-95.9,119.8-6.2,3.7-12.7,7.1-19.3,10.1-.3.1-.3.4-.2.6,0,.1.2.4.5.3,65.8-12.3,120-59.1,141.4-122,13-38.1,13.2-78.4.5-116.3h0c-15.3-43.4-47.1-75.9-87.4-89.3-38.3-12.7-79.9-7.6-117.1,14.5C202,.9,173.5,36.4,159.6,76.9c-7.5,22-8.9,45.5-3.9,66.1,4.9,20.3,15.6,37.1,30.3,47.4,0,0,.2,0,.3,0,.1,0,0-.2,0-.2-11.7-32-11.7-70,0-104.4,21.1-62.1,74.4-102.8,128.1-102.8ZM223.2,269.7c-14.4,0-28.8-2.3-42.8-6.9-40.7-13.5-73-46.3-88.5-89.9h0s-.2-.5-.2-.5c-12.9-38.5-12.7-79.2.4-117.8,21.7-63.6,76.4-110.9,142.9-123.4,1.2-.2,2.4.4,2.8,1.7.4,1.2-.1,2.4-1.3,3-6.5,3-12.9,6.4-19.1,10.1-43.3,25.9-77.9,69.2-95,118.8-13.3,39-11.1,82.8,5.9,116.9,13.1,26.5,34.3,45.2,61.2,54.1,62.1,20.6,133-22.6,158.1-96.3,11.6-34,11.6-71.6,0-103.1-.3-.9,0-1.9.7-2.5.8-.6,1.8-.6,2.6,0,15.1,10.5,26.1,27.7,31.1,48.5,5.1,21.1,3.7,44.9-3.9,67.3-14,41-42.8,76.9-79.1,98.5-24.2,14.3-50.1,21.6-75.9,21.6ZM93.5,171.3h0s.2.5.2.5c15.2,43.3,47.1,75.8,87.4,89.1,38.3,12.7,79.9,7.5,117-14.5,35.9-21.3,64.4-56.8,78.3-97.4,7.5-22,8.9-45.5,3.9-66.2-4.9-20.3-15.6-37.1-30.3-47.4,0,0-.2,0-.3,0-.1,0,0,.2,0,.2,11.7,32,11.7,70,0,104.4-25.5,74.8-97.5,118.5-160.6,97.6-27.4-9.1-49-28.2-62.4-55.1-17.2-34.6-19.4-78.9-6-118.5,17.2-50,52.2-93.7,95.9-119.8,6.2-3.7,12.7-7.1,19.3-10.1.3-.1.3-.4.2-.6,0-.1-.2-.4-.5-.3C169.7-54.5,115.5-7.7,94,55.2c-12.9,38-13.1,78.1-.6,116.1ZM235.6,220c-4.3,0-8.4-2-10.9-5.6l-5.2-7.3c-21.5-30.3-26.3-74.1-12.5-114.5,15.3-45.1,51.1-79,91-86.5,5.1-1,10.4,1.1,13.4,5.3l5.2,7.3c21.5,30.3,26.3,74.1,12.5,114.5-15.3,45.1-51.1,79-91,86.5-.8.2-1.7.2-2.5.2ZM300.4,7.9c-.7,0-1.4,0-2.1.2-39.2,7.4-74.3,40.8-89.5,85.2-13.5,39.7-8.8,82.9,12.3,112.7l5.2,7.3c2.6,3.6,7,5.4,11.4,4.5,39.2-7.4,74.3-40.8,89.5-85.2l.9.3-.9-.3c13.5-39.7,8.8-82.9-12.3-112.7l-5.2-7.3c-2.1-3-5.6-4.7-9.2-4.7Z"/>
      </g>
      <g class="cls-3">
        <path class="cls-4" d="M264.9,320.6c-22,0-44.2-3.5-65.7-10.6-13.7-4.5-27-10.6-39.6-18-8.7-5.1-17-10.8-24.7-17-32.7-26.3-56.4-61.5-68.5-101.9-12.4-41.3-11.5-84.7,2.4-125.7C105.8-61.2,224.5-120.1,333.4-84c9.5,3.2,18.9,7,27.9,11.6,12.5,6.3,24.4,13.9,35.4,22.6,3.4,2.7,6.8,5.6,11.2,9.6.7.6,1.5,1.4,2.3,2.2,18.1,17.2,32.9,37.2,43.8,59.6h0s.2.4.2.4c23.8,49.2,27.2,104.8,9.6,156.6-11.1,32.6-30.3,62.2-55.5,85.6-39.7,36.8-91.1,56.4-143.4,56.4ZM267.8-92.6c-86.5,0-167.7,54.6-197,140.7-13.8,40.6-14.6,83.6-2.4,124.5,12,40,35.4,74.9,67.9,100.9,7.7,6.2,15.9,11.8,24.5,16.8,12.5,7.3,25.6,13.3,39.2,17.8,71.8,23.8,151.2,6.4,207-45.4,25-23.2,44-52.5,55-84.8,17.4-51.1,14.1-106-9.3-154.7l-.2-.4c-10.8-22.4-25.5-42.4-43.6-59.5-.8-.8-1.5-1.5-2.2-2.1-4.3-4-7.8-6.9-11.1-9.6-10.8-8.6-22.6-16.1-35-22.3-8.9-4.5-18.2-8.3-27.6-11.5-21.5-7.1-43.4-10.5-65-10.5ZM300.4,294.7c-1,0-2-.7-2.3-1.7-.4-1.2.1-2.4,1.3-3,6.5-3,13-6.4,19.1-10.1,43.3-25.9,77.9-69.1,95-118.8,13.3-39,11.1-82.8-5.9-116.9-13.1-26.5-34.3-45.2-61.2-54.1-62.1-20.6-133,22.6-158.1,96.3-11.6,34-11.6,71.6,0,103.1.3.9,0,1.9-.7,2.5-.8.6-1.8.6-2.6,0-15.1-10.5-26.1-27.7-31.1-48.5-5.1-21-3.7-44.9,3.9-67.3C171.7,35.3,200.6-.6,236.9-22.2c37.7-22.4,79.8-27.6,118.7-14.7,40.9,13.6,73.2,46.5,88.7,90.4h0c12.9,38.5,12.7,79.2-.4,117.8-21.7,63.6-76.4,110.9-142.9,123.4-.2,0-.3,0-.5,0ZM314.5-17c10.9,0,21.9,1.7,32.6,5.2,27.4,9.1,49,28.2,62.4,55.1,17.2,34.6,19.4,78.9,6,118.5-17.2,50.1-52.2,93.7-95.9,119.8-6.2,3.7-12.7,7.1-19.3,10.1-.3.1-.3.4-.2.6,0,.1.2.4.5.3,65.8-12.3,120-59.1,141.4-122,13-38.1,13.2-78.4.5-116.3h0c-15.3-43.4-47.1-75.9-87.4-89.3-38.3-12.7-79.9-7.6-117.1,14.5C202,.9,173.5,36.4,159.6,76.9c-7.5,22-8.9,45.5-3.9,66.1,4.9,20.3,15.6,37.1,30.3,47.4,0,0,.2,0,.3,0,.1,0,0-.2,0-.2-11.7-32-11.7-70,0-104.4,21.1-62.1,74.4-102.8,128.1-102.8ZM223.2,269.7c-14.4,0-28.8-2.3-42.8-6.9-40.7-13.5-73-46.3-88.5-89.9h0s-.2-.5-.2-.5c-12.9-38.5-12.7-79.2.4-117.8,21.7-63.6,76.4-110.9,142.9-123.4,1.2-.2,2.4.4,2.8,1.7.4,1.2-.1,2.4-1.3,3-6.5,3-12.9,6.4-19.1,10.1-43.3,25.9-77.9,69.2-95,118.8-13.3,39-11.1,82.8,5.9,116.9,13.1,26.5,34.3,45.2,61.2,54.1,62.1,20.6,133-22.6,158.1-96.3,11.6-34,11.6-71.6,0-103.1-.3-.9,0-1.9.7-2.5.8-.6,1.8-.6,2.6,0,15.1,10.5,26.1,27.7,31.1,48.5,5.1,21.1,3.7,44.9-3.9,67.3-14,41-42.8,76.9-79.1,98.5-24.2,14.3-50.1,21.6-75.9,21.6ZM93.5,171.3h0s.2.5.2.5c15.2,43.3,47.1,75.8,87.4,89.1,38.3,12.7,79.9,7.5,117-14.5,35.9-21.3,64.4-56.8,78.3-97.4,7.5-22,8.9-45.5,3.9-66.2-4.9-20.3-15.6-37.1-30.3-47.4,0,0-.2,0-.3,0-.1,0,0,.2,0,.2,11.7,32,11.7,70,0,104.4-25.5,74.8-97.5,118.5-160.6,97.6-27.4-9.1-49-28.2-62.4-55.1-17.2-34.6-19.4-78.9-6-118.5,17.2-50,52.2-93.7,95.9-119.8,6.2-3.7,12.7-7.1,19.3-10.1.3-.1.3-.4.2-.6,0-.1-.2-.4-.5-.3C169.7-54.5,115.5-7.7,94,55.2c-12.9,38-13.1,78.1-.6,116.1ZM235.6,220c-4.3,0-8.4-2-10.9-5.6l-5.2-7.3c-21.5-30.3-26.3-74.1-12.5-114.5,15.3-45.1,51.1-79,91-86.5,5.1-1,10.4,1.1,13.4,5.3l5.2,7.3c21.5,30.3,26.3,74.1,12.5,114.5-15.3,45.1-51.1,79-91,86.5-.8.2-1.7.2-2.5.2ZM300.4,7.9c-.7,0-1.4,0-2.1.2-39.2,7.4-74.3,40.8-89.5,85.2-13.5,39.7-8.8,82.9,12.3,112.7l5.2,7.3c2.6,3.6,7,5.4,11.4,4.5,39.2-7.4,74.3-40.8,89.5-85.2l.9.3-.9-.3c13.5-39.7,8.8-82.9-12.3-112.7l-5.2-7.3c-2.1-3-5.6-4.7-9.2-4.7Z"/>
        <g class="cls-2">
          <path class="cls-4" d="M264.9,320.6c-22,0-44.2-3.5-65.7-10.6-13.7-4.5-27-10.6-39.6-18-8.7-5.1-17-10.8-24.7-17-32.7-26.3-56.4-61.5-68.5-101.9-12.4-41.3-11.5-84.7,2.4-125.7C105.8-61.2,224.5-120.1,333.4-84c9.5,3.2,18.9,7,27.9,11.6,12.5,6.3,24.4,13.9,35.4,22.6,3.4,2.7,6.8,5.6,11.2,9.6.7.6,1.5,1.4,2.3,2.2,18.1,17.2,32.9,37.2,43.8,59.6h0s.2.4.2.4c23.8,49.2,27.2,104.8,9.6,156.6-11.1,32.6-30.3,62.2-55.5,85.6-39.7,36.8-91.1,56.4-143.4,56.4ZM267.8-92.6c-86.5,0-167.7,54.6-197,140.7-13.8,40.6-14.6,83.6-2.4,124.5,12,40,35.4,74.9,67.9,100.9,7.7,6.2,15.9,11.8,24.5,16.8,12.5,7.3,25.6,13.3,39.2,17.8,71.8,23.8,151.2,6.4,207-45.4,25-23.2,44-52.5,55-84.8,17.4-51.1,14.1-106-9.3-154.7l-.2-.4c-10.8-22.4-25.5-42.4-43.6-59.5-.8-.8-1.5-1.5-2.2-2.1-4.3-4-7.8-6.9-11.1-9.6-10.8-8.6-22.6-16.1-35-22.3-8.9-4.5-18.2-8.3-27.6-11.5-21.5-7.1-43.4-10.5-65-10.5ZM300.4,294.7c-1,0-2-.7-2.3-1.7-.4-1.2.1-2.4,1.3-3,6.5-3,13-6.4,19.1-10.1,43.3-25.9,77.9-69.1,95-118.8,13.3-39,11.1-82.8-5.9-116.9-13.1-26.5-34.3-45.2-61.2-54.1-62.1-20.6-133,22.6-158.1,96.3-11.6,34-11.6,71.6,0,103.1.3.9,0,1.9-.7,2.5-.8.6-1.8.6-2.6,0-15.1-10.5-26.1-27.7-31.1-48.5-5.1-21-3.7-44.9,3.9-67.3C171.7,35.3,200.6-.6,236.9-22.2c37.7-22.4,79.8-27.6,118.7-14.7,40.9,13.6,73.2,46.5,88.7,90.4h0c12.9,38.5,12.7,79.2-.4,117.8-21.7,63.6-76.4,110.9-142.9,123.4-.2,0-.3,0-.5,0ZM314.5-17c10.9,0,21.9,1.7,32.6,5.2,27.4,9.1,49,28.2,62.4,55.1,17.2,34.6,19.4,78.9,6,118.5-17.2,50.1-52.2,93.7-95.9,119.8-6.2,3.7-12.7,7.1-19.3,10.1-.3.1-.3.4-.2.6,0,.1.2.4.5.3,65.8-12.3,120-59.1,141.4-122,13-38.1,13.2-78.4.5-116.3h0c-15.3-43.4-47.1-75.9-87.4-89.3-38.3-12.7-79.9-7.6-117.1,14.5C202,.9,173.5,36.4,159.6,76.9c-7.5,22-8.9,45.5-3.9,66.1,4.9,20.3,15.6,37.1,30.3,47.4,0,0,.2,0,.3,0,.1,0,0-.2,0-.2-11.7-32-11.7-70,0-104.4,21.1-62.1,74.4-102.8,128.1-102.8ZM223.2,269.7c-14.4,0-28.8-2.3-42.8-6.9-40.7-13.5-73-46.3-88.5-89.9h0s-.2-.5-.2-.5c-12.9-38.5-12.7-79.2.4-117.8,21.7-63.6,76.4-110.9,142.9-123.4,1.2-.2,2.4.4,2.8,1.7.4,1.2-.1,2.4-1.3,3-6.5,3-12.9,6.4-19.1,10.1-43.3,25.9-77.9,69.2-95,118.8-13.3,39-11.1,82.8,5.9,116.9,13.1,26.5,34.3,45.2,61.2,54.1,62.1,20.6,133-22.6,158.1-96.3,11.6-34,11.6-71.6,0-103.1-.3-.9,0-1.9.7-2.5.8-.6,1.8-.6,2.6,0,15.1,10.5,26.1,27.7,31.1,48.5,5.1,21.1,3.7,44.9-3.9,67.3-14,41-42.8,76.9-79.1,98.5-24.2,14.3-50.1,21.6-75.9,21.6ZM93.5,171.3h0s.2.5.2.5c15.2,43.3,47.1,75.8,87.4,89.1,38.3,12.7,79.9,7.5,117-14.5,35.9-21.3,64.4-56.8,78.3-97.4,7.5-22,8.9-45.5,3.9-66.2-4.9-20.3-15.6-37.1-30.3-47.4,0,0-.2,0-.3,0-.1,0,0,.2,0,.2,11.7,32,11.7,70,0,104.4-25.5,74.8-97.5,118.5-160.6,97.6-27.4-9.1-49-28.2-62.4-55.1-17.2-34.6-19.4-78.9-6-118.5,17.2-50,52.2-93.7,95.9-119.8,6.2-3.7,12.7-7.1,19.3-10.1.3-.1.3-.4.2-.6,0-.1-.2-.4-.5-.3C169.7-54.5,115.5-7.7,94,55.2c-12.9,38-13.1,78.1-.6,116.1ZM235.6,220c-4.3,0-8.4-2-10.9-5.6l-5.2-7.3c-21.5-30.3-26.3-74.1-12.5-114.5,15.3-45.1,51.1-79,91-86.5,5.1-1,10.4,1.1,13.4,5.3l5.2,7.3c21.5,30.3,26.3,74.1,12.5,114.5-15.3,45.1-51.1,79-91,86.5-.8.2-1.7.2-2.5.2ZM300.4,7.9c-.7,0-1.4,0-2.1.2-39.2,7.4-74.3,40.8-89.5,85.2-13.5,39.7-8.8,82.9,12.3,112.7l5.2,7.3c2.6,3.6,7,5.4,11.4,4.5,39.2-7.4,74.3-40.8,89.5-85.2l.9.3-.9-.3c13.5-39.7,8.8-82.9-12.3-112.7l-5.2-7.3c-2.1-3-5.6-4.7-9.2-4.7Z"/>
        </g>
      </g>
    </g>
  </g>
</svg>